<?xml version="1.0" encoding="UTF-8" standalone="no"?>
<!-- Created with Inkscape (http://www.inkscape.org/) -->

<svg
   xmlns:dc="http://purl.org/dc/elements/1.1/"
   xmlns:cc="http://creativecommons.org/ns#"
   xmlns:rdf="http://www.w3.org/1999/02/22-rdf-syntax-ns#"
   xmlns:svg="http://www.w3.org/2000/svg"
   xmlns="http://www.w3.org/2000/svg"
   xmlns:sodipodi="http://sodipodi.sourceforge.net/DTD/sodipodi-0.dtd"
   xmlns:inkscape="http://www.inkscape.org/namespaces/inkscape"
   width="97.768829mm"
   height="28.304018mm"
   viewBox="0 0 97.768829 28.304018"
   version="1.1"
   id="svg2152"
   inkscape:version="0.92.2 (unknown)"
   sodipodi:docname="condiciones_borde.svg">
  <defs
     id="defs2146">
    <clipPath
       clipPathUnits="userSpaceOnUse"
       id="clipPath1821">
      <path
         d="m 177.93,197.273 v -77.678 h 277.14 v 77.678"
         id="path1819"
         inkscape:connector-curvature="0" />
    </clipPath>
    <clipPath
       clipPathUnits="userSpaceOnUse"
       id="clipPath1531">
      <path
         d="m 177.93,197.273 v -77.678 h 277.14 v 77.678"
         id="path1529"
         inkscape:connector-curvature="0" />
    </clipPath>
  </defs>
  <sodipodi:namedview
     id="base"
     pagecolor="#ffffff"
     bordercolor="#666666"
     borderopacity="1.0"
     inkscape:pageopacity="0.0"
     inkscape:pageshadow="2"
     inkscape:zoom="1.4"
     inkscape:cx="225.26193"
     inkscape:cy="-15.582336"
     inkscape:document-units="mm"
     inkscape:current-layer="layer1"
     showgrid="false"
     inkscape:window-width="1600"
     inkscape:window-height="876"
     inkscape:window-x="0"
     inkscape:window-y="0"
     inkscape:window-maximized="1" />
  <metadata
     id="metadata2149">
    <rdf:RDF>
      <cc:Work
         rdf:about="">
        <dc:format>image/svg+xml</dc:format>
        <dc:type
           rdf:resource="http://purl.org/dc/dcmitype/StillImage" />
        <dc:title></dc:title>
      </cc:Work>
    </rdf:RDF>
  </metadata>
  <g
     inkscape:label="Layer 1"
     inkscape:groupmode="layer"
     id="layer1"
     transform="translate(-101.55011,-70.881353)">
    <g
       transform="matrix(0.35277777,0,0,-0.35277777,38.78036,140.46571)"
       id="g1525">
      <g
         id="g1527"
         clip-path="url(#clipPath1531)">
        <g
           id="g1533"
           transform="translate(178.373,119.826)">
          <path
             d="M 0,0 C 28,55.334 245.334,60.666 276.667,62.666"
             style="fill:none;stroke:#1a1a1a;stroke-width:1;stroke-linecap:butt;stroke-linejoin:miter;stroke-miterlimit:4;stroke-dasharray:none;stroke-opacity:1"
             id="path1535"
             inkscape:connector-curvature="0" />
        </g>
      </g>
    </g>
    <g
       id="g1537"
       transform="matrix(0.35277777,0,0,-0.35277777,110.64366,89.432881)">
      <path
         d="M 0,0 -6,12.5"
         style="fill:none;stroke:#1a1a1a;stroke-width:0.5;stroke-linecap:butt;stroke-linejoin:miter;stroke-miterlimit:4;stroke-dasharray:none;stroke-opacity:1"
         id="path1539"
         inkscape:connector-curvature="0" />
    </g>
    <g
       id="g1541"
       transform="matrix(0.35277777,0,0,-0.35277777,108.60495,85.185787)">
      <path
         d="m 0,0 -1.151,-1.766 -0.063,0.038 -0.22,3.152 C -1.673,2.444 -1.913,3.465 -2.153,4.485 -1.507,3.66 -0.861,2.834 -0.215,2.009 L 2.107,-0.134 2.106,-0.203 0,0"
         style="fill:#1a1a1a;fill-opacity:1;fill-rule:nonzero;stroke:none"
         id="path1543"
         inkscape:connector-curvature="0" />
    </g>
    <g
       id="g1545"
       transform="matrix(0.35277777,0,0,-0.35277777,137.49887,82.068646)">
      <path
         d="M 0,0 -2.164,13.695"
         style="fill:none;stroke:#1a1a1a;stroke-width:0.5;stroke-linecap:butt;stroke-linejoin:miter;stroke-miterlimit:4;stroke-dasharray:none;stroke-opacity:1"
         id="path1547"
         inkscape:connector-curvature="0" />
    </g>
    <g
       id="g1549"
       transform="matrix(0.35277777,0,0,-0.35277777,136.76368,77.415154)">
      <path
         d="m 0,0 -1.609,-1.363 -0.049,0.055 0.694,3.083 c 0.063,1.046 0.125,2.092 0.188,3.138 0.382,-0.976 0.764,-1.951 1.147,-2.927 L 1.981,-0.734 1.961,-0.799 0,0"
         style="fill:#1a1a1a;fill-opacity:1;fill-rule:nonzero;stroke:none"
         id="path1551"
         inkscape:connector-curvature="0" />
    </g>
    <g
       id="g1553"
       transform="matrix(0.35277777,0,0,-0.35277777,160.45165,78.805452)">
      <path
         d="M 0,0 -1.461,13.788"
         style="fill:none;stroke:#1a1a1a;stroke-width:0.5;stroke-linecap:butt;stroke-linejoin:miter;stroke-miterlimit:4;stroke-dasharray:none;stroke-opacity:1"
         id="path1555"
         inkscape:connector-curvature="0" />
    </g>
    <g
       id="g1557"
       transform="matrix(0.35277777,0,0,-0.35277777,159.95494,74.120562)">
      <path
         d="m 0,0 -1.676,-1.279 -0.047,0.057 0.851,3.045 C -0.756,2.864 -0.64,3.906 -0.524,4.947 -0.192,3.953 0.139,2.959 0.471,1.965 L 1.941,-0.833 1.918,-0.898 0,0"
         style="fill:#1a1a1a;fill-opacity:1;fill-rule:nonzero;stroke:none"
         id="path1559"
         inkscape:connector-curvature="0" />
    </g>
    <g
       id="g1561"
       transform="matrix(0.35277777,0,0,-0.35277777,161.17908,85.861009)">
      <path
         d="M 0,0 -1.461,13.788"
         style="fill:none;stroke:#1a1a1a;stroke-width:0.5;stroke-linecap:butt;stroke-linejoin:miter;stroke-miterlimit:4;stroke-dasharray:none;stroke-opacity:1"
         id="path1563"
         inkscape:connector-curvature="0" />
    </g>
    <g
       id="g1565"
       transform="matrix(0.35277777,0,0,-0.35277777,160.68236,81.176119)">
      <path
         d="m 0,0 -1.676,-1.279 -0.047,0.057 0.851,3.044 c 0.116,1.041 0.233,2.083 0.349,3.125 C -0.191,3.953 0.14,2.959 0.472,1.965 L 1.942,-0.833 1.918,-0.898 0,0"
         style="fill:#1a1a1a;fill-opacity:1;fill-rule:nonzero;stroke:none"
         id="path1567"
         inkscape:connector-curvature="0" />
    </g>
    <g
       id="g1569"
       transform="matrix(0.35277777,0,0,-0.35277777,114.17849,96.635898)">
      <path
         d="M 0,0 -6,12.5"
         style="fill:none;stroke:#1a1a1a;stroke-width:0.5;stroke-linecap:butt;stroke-linejoin:miter;stroke-miterlimit:4;stroke-dasharray:none;stroke-opacity:1"
         id="path1571"
         inkscape:connector-curvature="0" />
    </g>
    <g
       id="g1573"
       transform="matrix(0.35277777,0,0,-0.35277777,112.13979,92.388102)">
      <path
         d="m 0,0 -1.15,-1.767 -0.063,0.037 -0.22,3.154 c -0.239,1.02 -0.48,2.04 -0.719,3.06 0.646,-0.825 1.292,-1.65 1.937,-2.476 L 2.108,-0.135 2.107,-0.204 0,0"
         style="fill:#1a1a1a;fill-opacity:1;fill-rule:nonzero;stroke:none"
         id="path1575"
         inkscape:connector-curvature="0" />
    </g>
    <g
       id="g1577"
       transform="matrix(0.35277777,0,0,-0.35277777,122.81449,84.493994)">
      <path
         d="M 0,0 C 3.5,1.249 13.25,4.249 19.25,5.499"
         style="fill:none;stroke:#1a1a1a;stroke-width:0.5;stroke-linecap:butt;stroke-linejoin:miter;stroke-miterlimit:4;stroke-dasharray:none;stroke-opacity:1"
         id="path1579"
         inkscape:connector-curvature="0" />
    </g>
    <g
       id="g1581"
       transform="matrix(0.35277777,0,0,-0.35277777,129.42801,82.59005)">
      <path
         d="M 0,0 -1.44,1.54 -1.388,1.593 1.726,1.05 C 2.774,1.038 3.822,1.026 4.87,1.015 3.914,0.585 2.957,0.156 2.002,-0.273 L -0.636,-2.014 -0.702,-1.997 0,0"
         style="fill:#1a1a1a;fill-opacity:1;fill-rule:nonzero;stroke:none"
         id="path1583"
         inkscape:connector-curvature="0" />
    </g>
    <g
       id="g1585"
       transform="matrix(0.35277777,0,0,-0.35277777,122.81449,87.382538)">
      <path
         d="M 0,0 C 3.5,1.25 13.25,4.25 19.25,5.5"
         style="fill:none;stroke:#1a1a1a;stroke-width:0.5;stroke-linecap:butt;stroke-linejoin:miter;stroke-miterlimit:4;stroke-dasharray:none;stroke-opacity:1"
         id="path1587"
         inkscape:connector-curvature="0" />
    </g>
    <g
       id="g1589"
       transform="matrix(0.35277777,0,0,-0.35277777,129.42801,85.478596)">
      <path
         d="M 0,0 -1.44,1.54 -1.388,1.593 1.726,1.05 C 2.774,1.039 3.822,1.027 4.87,1.015 3.914,0.586 2.957,0.157 2.002,-0.273 L -0.636,-2.014 -0.702,-1.996 0,0"
         style="fill:#1a1a1a;fill-opacity:1;fill-rule:nonzero;stroke:none"
         id="path1591"
         inkscape:connector-curvature="0" />
    </g>
    <g
       id="g1593"
       transform="matrix(0.35277777,0,0,-0.35277777,146.49505,79.336384)">
      <path
         d="M 0,0 C 3.631,0.794 13.683,2.529 19.794,3.005"
         style="fill:none;stroke:#1a1a1a;stroke-width:0.5;stroke-linecap:butt;stroke-linejoin:miter;stroke-miterlimit:4;stroke-dasharray:none;stroke-opacity:1"
         id="path1595"
         inkscape:connector-curvature="0" />
    </g>
    <g
       id="g1597"
       transform="matrix(0.35277777,0,0,-0.35277777,153.29732,78.289695)">
      <path
         d="m 0,0 -1.232,1.711 0.058,0.046 3.02,-0.935 C 2.883,0.677 3.921,0.532 4.959,0.387 3.957,0.083 2.954,-0.221 1.951,-0.525 L -0.887,-1.917 -0.951,-1.891 0,0"
         style="fill:#1a1a1a;fill-opacity:1;fill-rule:nonzero;stroke:none"
         id="path1599"
         inkscape:connector-curvature="0" />
    </g>
    <g
       id="g1601"
       transform="matrix(0.35277777,0,0,-0.35277777,166.01637,76.895867)">
      <path
         d="M 0,0 C 2.788,0.212 15.038,1.462 19.945,1.745"
         style="fill:none;stroke:#1a1a1a;stroke-width:0.5;stroke-linecap:butt;stroke-linejoin:miter;stroke-miterlimit:4;stroke-dasharray:none;stroke-opacity:1"
         id="path1603"
         inkscape:connector-curvature="0" />
    </g>
    <g
       id="g1605"
       transform="matrix(0.35277777,0,0,-0.35277777,172.87154,76.282034)">
      <path
         d="m 0,0 -1.121,1.785 0.06,0.042 2.954,-1.125 C 2.92,0.492 3.946,0.281 4.974,0.071 3.953,-0.169 2.933,-0.408 1.913,-0.649 L -1.008,-1.857 -1.069,-1.827 0,0"
         style="fill:#1a1a1a;fill-opacity:1;fill-rule:nonzero;stroke:none"
         id="path1607"
         inkscape:connector-curvature="0" />
    </g>
    <g
       id="g1609"
       transform="matrix(0.35277777,0,0,-0.35277777,187.51782,74.984866)">
      <path
         d="M 0,0 C 2.794,0.107 15.083,0.896 19.996,0.995"
         style="fill:none;stroke:#1a1a1a;stroke-width:0.5;stroke-linecap:butt;stroke-linejoin:miter;stroke-miterlimit:4;stroke-dasharray:none;stroke-opacity:1"
         id="path1611"
         inkscape:connector-curvature="0" />
    </g>
    <g
       id="g1613"
       transform="matrix(0.35277777,0,0,-0.35277777,194.39099,74.62892)">
      <path
         d="M 0,0 -1.053,1.827 -0.99,1.866 1.919,0.632 C 2.937,0.383 3.955,0.134 4.974,-0.115 3.945,-0.316 2.917,-0.518 1.888,-0.719 L -1.075,-1.818 -1.137,-1.785 0,0"
         style="fill:#1a1a1a;fill-opacity:1;fill-rule:nonzero;stroke:none"
         id="path1615"
         inkscape:connector-curvature="0" />
    </g>
    <g
       id="g1617"
       transform="matrix(0.35277777,0,0,-0.35277777,196.22613,74.634211)">
      <path
         d="M 0,0 -1.053,1.826 -0.99,1.866 1.919,0.631 C 2.938,0.383 3.955,0.133 4.973,-0.115 3.944,-0.317 2.916,-0.518 1.888,-0.72 L -1.076,-1.818 -1.137,-1.785 0,0"
         style="fill:#1a1a1a;fill-opacity:1;fill-rule:nonzero;stroke:none"
         id="path1619"
         inkscape:connector-curvature="0" />
    </g>
    <g
       id="g1621"
       transform="matrix(0.35277777,0,0,-0.35277777,146.49505,82.621802)">
      <path
         d="M 0,0 C 3.631,0.794 13.683,2.529 19.794,3.006"
         style="fill:none;stroke:#1a1a1a;stroke-width:0.5;stroke-linecap:butt;stroke-linejoin:miter;stroke-miterlimit:4;stroke-dasharray:none;stroke-opacity:1"
         id="path1623"
         inkscape:connector-curvature="0" />
    </g>
    <g
       id="g1625"
       transform="matrix(0.35277777,0,0,-0.35277777,153.29732,81.574759)">
      <path
         d="m 0,0 -1.232,1.711 0.058,0.045 3.02,-0.935 C 2.883,0.676 3.921,0.532 4.959,0.387 3.957,0.082 2.954,-0.222 1.951,-0.526 L -0.887,-1.917 -0.951,-1.891 0,0"
         style="fill:#1a1a1a;fill-opacity:1;fill-rule:nonzero;stroke:none"
         id="path1627"
         inkscape:connector-curvature="0" />
    </g>
    <g
       id="g1629"
       transform="matrix(0.35277777,0,0,-0.35277777,184.72699,76.674321)">
      <path
         d="M 0,0 C 0.552,0 1,0.448 1,1 1,1.552 0.552,2 0,2 -0.552,2 -1,1.552 -1,1 -1,0.448 -0.552,0 0,0"
         style="fill:#1a1a1a;fill-opacity:1;fill-rule:nonzero;stroke:none"
         id="path1631"
         inkscape:connector-curvature="0" />
    </g>
    <g
       id="g1633"
       transform="matrix(0.35277777,0,0,-0.35277777,182.19863,76.85071)">
      <path
         d="M 0,0 C 0.553,0 1,0.448 1,1 1,1.552 0.553,2 0,2 -0.551,2 -1,1.552 -1,1 -1,0.448 -0.551,0 0,0"
         style="fill:#1a1a1a;fill-opacity:1;fill-rule:nonzero;stroke:none"
         id="path1635"
         inkscape:connector-curvature="0" />
    </g>
    <g
       id="g1637"
       transform="matrix(0.35277777,0,0,-0.35277777,179.7881,76.968185)">
      <path
         d="m 0,0 c 0.552,0 1,0.447 1,0.999 0,0.553 -0.448,1 -1,1 -0.552,0 -1,-0.447 -1,-1 C -1,0.447 -0.552,0 0,0"
         style="fill:#1a1a1a;fill-opacity:1;fill-rule:nonzero;stroke:none"
         id="path1639"
         inkscape:connector-curvature="0" />
    </g>
    <g
       id="g1641"
       transform="matrix(0.35277777,0,0,-0.35277777,177.37722,77.08566)">
      <path
         d="M 0,0 C 0.553,0 1,0.447 1,0.999 1,1.552 0.553,2 0,2 -0.551,2 -1,1.552 -1,0.999 -1,0.447 -0.551,0 0,0"
         style="fill:#1a1a1a;fill-opacity:1;fill-rule:nonzero;stroke:none"
         id="path1643"
         inkscape:connector-curvature="0" />
    </g>
    <text
       y="84.729469"
       x="110.07529"
       style="font-style:italic;font-variant:normal;font-size:2.82222199px;font-family:'Times New Roman';-inkscape-font-specification:Times-Italic;writing-mode:lr-tb;fill:#1a1a1a;fill-opacity:1;fill-rule:nonzero;stroke:none;stroke-width:0.35277775"
       id="text1647">
      <tspan
         style="stroke-width:0.35277775"
         x="110.07529"
         y="84.729469"
         id="tspan1645">B</tspan>
    </text>
    <text
       y="85.435028"
       x="111.79964"
       style="font-style:italic;font-variant:normal;font-size:2.11666656px;font-family:'Times New Roman';-inkscape-font-specification:Times-Italic;writing-mode:lr-tb;fill:#1a1a1a;fill-opacity:1;fill-rule:nonzero;stroke:none;stroke-width:0.35277775"
       id="text1651">
      <tspan
         style="stroke-width:0.35277775"
         x="111.79964"
         y="85.435028"
         id="tspan1649">n</tspan>
    </text>
    <text
       y="85.435028"
       x="112.85797"
       style="font-variant:normal;font-weight:normal;font-size:2.11666656px;font-family:'Times New Roman';-inkscape-font-specification:Times-Roman;writing-mode:lr-tb;fill:#1a1a1a;fill-opacity:1;fill-rule:nonzero;stroke:none;stroke-width:0.35277775"
       id="text1655">
      <tspan
         style="stroke-width:0.35277775"
         x="112.85797"
         y="85.435028"
         id="tspan1653">2</tspan>
    </text>
    <text
       y="93.725304"
       x="113.66781"
       style="font-style:italic;font-variant:normal;font-size:2.82222199px;font-family:'Times New Roman';-inkscape-font-specification:Times-Italic;writing-mode:lr-tb;fill:#1a1a1a;fill-opacity:1;fill-rule:nonzero;stroke:none;stroke-width:0.35277775"
       id="text1659">
      <tspan
         style="stroke-width:0.35277775"
         x="113.66781"
         y="93.725304"
         id="tspan1657">B</tspan>
    </text>
    <text
       y="94.430862"
       x="115.39215"
       style="font-style:italic;font-variant:normal;font-size:2.11666656px;font-family:'Times New Roman';-inkscape-font-specification:Times-Italic;writing-mode:lr-tb;fill:#1a1a1a;fill-opacity:1;fill-rule:nonzero;stroke:none;stroke-width:0.35277775"
       id="text1663">
      <tspan
         style="stroke-width:0.35277775"
         x="115.39215"
         y="94.430862"
         id="tspan1661">n</tspan>
    </text>
    <text
       y="94.430862"
       x="116.55632"
       style="font-variant:normal;font-weight:normal;font-size:2.11666656px;font-family:'Times New Roman';-inkscape-font-specification:Times-Roman;writing-mode:lr-tb;fill:#1a1a1a;fill-opacity:1;fill-rule:nonzero;stroke:none;stroke-width:0.35277775"
       id="text1667">
      <tspan
         style="stroke-width:0.35277775"
         x="116.55632"
         y="94.430862"
         id="tspan1665">1</tspan>
    </text>
    <text
       y="89.021545"
       x="125.74057"
       style="font-style:italic;font-variant:normal;font-size:2.82222199px;font-family:'Times New Roman';-inkscape-font-specification:Times-Italic;writing-mode:lr-tb;fill:#1a1a1a;fill-opacity:1;fill-rule:nonzero;stroke:none;stroke-width:0.35277775"
       id="text1671">
      <tspan
         style="stroke-width:0.35277775"
         x="125.74057"
         y="89.021545"
         id="tspan1669">H</tspan>
    </text>
    <text
       y="89.727097"
       x="127.77818"
       style="font-style:italic;font-variant:normal;font-size:2.11666656px;font-family:'Times New Roman';-inkscape-font-specification:Times-Italic;writing-mode:lr-tb;fill:#1a1a1a;fill-opacity:1;fill-rule:nonzero;stroke:none;stroke-width:0.35277775"
       id="text1675">
      <tspan
         style="stroke-width:0.35277775"
         x="127.77818"
         y="89.727097"
         id="tspan1673">t</tspan>
    </text>
    <text
       y="89.727097"
       x="128.47244"
       style="font-variant:normal;font-weight:normal;font-size:2.11666656px;font-family:'Times New Roman';-inkscape-font-specification:Times-Roman;writing-mode:lr-tb;fill:#1a1a1a;fill-opacity:1;fill-rule:nonzero;stroke:none;stroke-width:0.35277775"
       id="text1679">
      <tspan
         style="stroke-width:0.35277775"
         x="128.47244"
         y="89.727097"
         id="tspan1677">1</tspan>
    </text>
    <text
       y="77.203491"
       x="147.4165"
       style="font-style:italic;font-variant:normal;font-size:2.82222199px;font-family:'Times New Roman';-inkscape-font-specification:Times-Italic;writing-mode:lr-tb;fill:#1a1a1a;fill-opacity:1;fill-rule:nonzero;stroke:none;stroke-width:0.35277775"
       id="text1683">
      <tspan
         style="stroke-width:0.35277775"
         x="147.4165"
         y="77.203491"
         id="tspan1681">E</tspan>
    </text>
    <text
       y="77.909042"
       x="149.14088"
       style="font-style:italic;font-variant:normal;font-size:2.11666656px;font-family:'Times New Roman';-inkscape-font-specification:Times-Italic;writing-mode:lr-tb;fill:#1a1a1a;fill-opacity:1;fill-rule:nonzero;stroke:none;stroke-width:0.35277775"
       id="text1687">
      <tspan
         style="stroke-width:0.35277775"
         x="149.14088"
         y="77.909042"
         id="tspan1685">t</tspan>
    </text>
    <text
       y="77.909042"
       x="149.83516"
       style="font-variant:normal;font-weight:normal;font-size:2.11666656px;font-family:'Times New Roman';-inkscape-font-specification:Times-Roman;writing-mode:lr-tb;fill:#1a1a1a;fill-opacity:1;fill-rule:nonzero;stroke:none;stroke-width:0.35277775"
       id="text1691">
      <tspan
         style="stroke-width:0.35277775"
         x="149.83516"
         y="77.909042"
         id="tspan1689">2</tspan>
    </text>
    <text
       y="74.263618"
       x="161.31242"
       style="font-style:italic;font-variant:normal;font-size:2.82222199px;font-family:'Times New Roman';-inkscape-font-specification:Times-Italic;writing-mode:lr-tb;fill:#1a1a1a;fill-opacity:1;fill-rule:nonzero;stroke:none;stroke-width:0.35277775"
       id="text1695">
      <tspan
         style="stroke-width:0.35277775"
         x="161.31242"
         y="74.263618"
         id="tspan1693">D</tspan>
    </text>
    <text
       y="74.96917"
       x="163.35007"
       style="font-style:italic;font-variant:normal;font-size:2.11666656px;font-family:'Times New Roman';-inkscape-font-specification:Times-Italic;writing-mode:lr-tb;fill:#1a1a1a;fill-opacity:1;fill-rule:nonzero;stroke:none;stroke-width:0.35277775"
       id="text1699">
      <tspan
         style="stroke-width:0.35277775"
         x="163.35007"
         y="74.96917"
         id="tspan1697">n</tspan>
    </text>
    <text
       y="74.96917"
       x="164.51424"
       style="font-variant:normal;font-weight:normal;font-size:2.11666656px;font-family:'Times New Roman';-inkscape-font-specification:Times-Roman;writing-mode:lr-tb;fill:#1a1a1a;fill-opacity:1;fill-rule:nonzero;stroke:none;stroke-width:0.35277775"
       id="text1703">
      <tspan
         style="stroke-width:0.35277775"
         x="164.51424"
         y="74.96917"
         id="tspan1701">2</tspan>
    </text>
    <text
       y="83.377098"
       x="161.8416"
       style="font-style:italic;font-variant:normal;font-size:2.82222199px;font-family:'Times New Roman';-inkscape-font-specification:Times-Italic;writing-mode:lr-tb;fill:#1a1a1a;fill-opacity:1;fill-rule:nonzero;stroke:none;stroke-width:0.35277775"
       id="text1707">
      <tspan
         style="stroke-width:0.35277775"
         x="161.8416"
         y="83.377098"
         id="tspan1705">D</tspan>
    </text>
    <text
       y="84.082657"
       x="163.87924"
       style="font-style:italic;font-variant:normal;font-size:2.11666656px;font-family:'Times New Roman';-inkscape-font-specification:Times-Italic;writing-mode:lr-tb;fill:#1a1a1a;fill-opacity:1;fill-rule:nonzero;stroke:none;stroke-width:0.35277775"
       id="text1711">
      <tspan
         style="stroke-width:0.35277775"
         x="163.87924"
         y="84.082657"
         id="tspan1709">n</tspan>
    </text>
    <text
       y="84.082657"
       x="165.0434"
       style="font-variant:normal;font-weight:normal;font-size:2.11666656px;font-family:'Times New Roman';-inkscape-font-specification:Times-Roman;writing-mode:lr-tb;fill:#1a1a1a;fill-opacity:1;fill-rule:nonzero;stroke:none;stroke-width:0.35277775"
       id="text1715">
      <tspan
         style="stroke-width:0.35277775"
         x="165.0434"
         y="84.082657"
         id="tspan1713">1</tspan>
    </text>
    <text
       y="84.788208"
       x="148.76906"
       style="font-style:italic;font-variant:normal;font-size:2.82222199px;font-family:'Times New Roman';-inkscape-font-specification:Times-Italic;writing-mode:lr-tb;fill:#1a1a1a;fill-opacity:1;fill-rule:nonzero;stroke:none;stroke-width:0.35277775"
       id="text1719">
      <tspan
         style="stroke-width:0.35277775"
         x="148.76906"
         y="84.788208"
         id="tspan1717">E</tspan>
    </text>
    <text
       y="85.493767"
       x="150.49344"
       style="font-style:italic;font-variant:normal;font-size:2.11666656px;font-family:'Times New Roman';-inkscape-font-specification:Times-Italic;writing-mode:lr-tb;fill:#1a1a1a;fill-opacity:1;fill-rule:nonzero;stroke:none;stroke-width:0.35277775"
       id="text1723">
      <tspan
         style="stroke-width:0.35277775"
         x="150.49344"
         y="85.493767"
         id="tspan1721">t</tspan>
    </text>
    <text
       y="85.493767"
       x="151.1877"
       style="font-variant:normal;font-weight:normal;font-size:2.11666656px;font-family:'Times New Roman';-inkscape-font-specification:Times-Roman;writing-mode:lr-tb;fill:#1a1a1a;fill-opacity:1;fill-rule:nonzero;stroke:none;stroke-width:0.35277775"
       id="text1727">
      <tspan
         style="stroke-width:0.35277775"
         x="151.1877"
         y="85.493767"
         id="tspan1725">1</tspan>
    </text>
    <text
       y="81.907249"
       x="123.21239"
       style="font-style:italic;font-variant:normal;font-size:2.82222199px;font-family:'Times New Roman';-inkscape-font-specification:Times-Italic;writing-mode:lr-tb;fill:#1a1a1a;fill-opacity:1;fill-rule:nonzero;stroke:none;stroke-width:0.35277775"
       id="text1731">
      <tspan
         style="stroke-width:0.35277775"
         x="123.21239"
         y="81.907249"
         id="tspan1729">H</tspan>
    </text>
    <text
       y="82.612808"
       x="125.25"
       style="font-style:italic;font-variant:normal;font-size:2.11666656px;font-family:'Times New Roman';-inkscape-font-specification:Times-Italic;writing-mode:lr-tb;fill:#1a1a1a;fill-opacity:1;fill-rule:nonzero;stroke:none;stroke-width:0.35277775"
       id="text1735">
      <tspan
         style="stroke-width:0.35277775"
         x="125.25"
         y="82.612808"
         id="tspan1733">t</tspan>
    </text>
    <text
       y="82.612808"
       x="125.94427"
       style="font-variant:normal;font-weight:normal;font-size:2.11666656px;font-family:'Times New Roman';-inkscape-font-specification:Times-Roman;writing-mode:lr-tb;fill:#1a1a1a;fill-opacity:1;fill-rule:nonzero;stroke:none;stroke-width:0.35277775"
       id="text1739">
      <tspan
         style="stroke-width:0.35277775"
         x="125.94427"
         y="82.612808"
         id="tspan1737">2</tspan>
    </text>
    <text
       y="95.018768"
       x="133.94621"
       style="font-variant:normal;font-weight:normal;font-size:2.82222199px;font-family:'Times New Roman';-inkscape-font-specification:Times-Roman;writing-mode:lr-tb;fill:#1a1a1a;fill-opacity:1;fill-rule:nonzero;stroke:none;stroke-width:0.35277775"
       id="text1767">
      <tspan
         style="stroke-width:0.35277775"
         x="143.51073 143.51073 146.41197"
         sodipodi:role="line"
         id="tspan1765" />
    </text>
    <text
       y="77.392792"
       x="137.98393"
       style="font-style:italic;font-variant:normal;font-size:2.82222199px;font-family:'Times New Roman';-inkscape-font-specification:Times-Italic;writing-mode:lr-tb;fill:#1a1a1a;fill-opacity:1;fill-rule:nonzero;stroke:none;stroke-width:0.35277775"
       id="text1793">
      <tspan
         style="stroke-width:0.35277775"
         x="137.98393"
         y="77.392792"
         id="tspan1789">n</tspan>
      <tspan
         style="stroke-width:0.35277775"
         x="168.63609"
         y="75.321281"
         id="tspan1791">J</tspan>
    </text>
    <text
       y="76.027504"
       x="169.88986"
       style="font-style:italic;font-variant:normal;font-size:2.11666656px;font-family:'Times New Roman';-inkscape-font-specification:Times-Italic;writing-mode:lr-tb;fill:#1a1a1a;fill-opacity:1;fill-rule:nonzero;stroke:none;stroke-width:0.35277775"
       id="text1797">
      <tspan
         style="stroke-width:0.35277775"
         x="169.88986"
         y="76.027504"
         id="tspan1795">s</tspan>
    </text>
    <text
       y="73.364105"
       x="189.31346"
       style="font-style:italic;font-variant:normal;font-size:2.82222199px;font-family:'Times New Roman';-inkscape-font-specification:Times-Italic;writing-mode:lr-tb;fill:#1a1a1a;fill-opacity:1;fill-rule:nonzero;stroke:none;stroke-width:0.35277775"
       id="text1801">
      <tspan
         style="stroke-width:0.35277775"
         x="189.31346"
         y="73.364105"
         id="tspan1799">M</tspan>
    </text>
    <text
       y="74.069656"
       x="191.66437"
       style="font-style:italic;font-variant:normal;font-size:2.11666656px;font-family:'Times New Roman';-inkscape-font-specification:Times-Italic;writing-mode:lr-tb;fill:#1a1a1a;fill-opacity:1;fill-rule:nonzero;stroke:none;stroke-width:0.35277775"
       id="text1805">
      <tspan
         style="stroke-width:0.35277775"
         x="191.66437"
         y="74.069656"
         id="tspan1803">s</tspan>
    </text>
    <g
       transform="matrix(0.35277777,0,0,-0.35277777,38.78036,140.46571)"
       id="g1815">
      <g
         id="g1817"
         clip-path="url(#clipPath1821)">
        <g
           id="g1823"
           transform="translate(369.407,191.688)">
          <path
             d="M 0,0 H 3.5 M 58.808,5.409 H 64.85"
             style="fill:none;stroke:#1a1a1a;stroke-width:0.30000001;stroke-linecap:butt;stroke-linejoin:miter;stroke-miterlimit:4;stroke-dasharray:none;stroke-opacity:1"
             id="path1825"
             inkscape:connector-curvature="0" />
        </g>
      </g>
    </g>
    <text
       y="77.157486"
       x="138.0432"
       style="font-style:italic;font-variant:normal;font-size:3.17499995px;font-family:'Times New Roman';-inkscape-font-specification:Times-Italic;writing-mode:lr-tb;fill:#1a1a1a;fill-opacity:1;fill-rule:nonzero;stroke:none;stroke-width:0.35277775"
       id="text1829">
      <tspan
         style="stroke-width:0.35277775"
         x="138.0432"
         y="77.157486"
         id="tspan1827">ˆ</tspan>
    </text>
    <text
       xml:space="preserve"
       style="font-style:normal;font-weight:normal;font-size:10.58333302px;line-height:1.25;font-family:sans-serif;letter-spacing:0px;word-spacing:0px;fill:#000000;fill-opacity:1;stroke:none;stroke-width:0.26458332"
       x="107.34525"
       y="75.789421"
       id="text2997"><tspan
         sodipodi:role="line"
         id="tspan3001"
         x="107.34525"
         y="75.789421"
         style="font-style:normal;font-variant:normal;font-weight:normal;font-stretch:normal;font-size:2.82222223px;font-family:'Times New Roman';-inkscape-font-specification:'Times New Roman, '">Medio 1: ε<tspan
   style="font-size:64.99999762%;baseline-shift:sub"
   id="tspan3039">1</tspan>, μ<tspan
   style="font-size:64.99999762%;baseline-shift:sub"
   id="tspan3035">1</tspan></tspan></text>
    <text
       xml:space="preserve"
       style="font-style:normal;font-weight:normal;font-size:10.58333302px;line-height:1.25;font-family:sans-serif;letter-spacing:0px;word-spacing:0px;fill:#000000;fill-opacity:1;stroke:none;stroke-width:0.26458332"
       x="143.3325"
       y="93.284615"
       id="text2997-1"><tspan
         sodipodi:role="line"
         id="tspan3001-2"
         x="143.3325"
         y="93.284615"
         style="font-style:normal;font-variant:normal;font-weight:normal;font-stretch:normal;font-size:2.82222223px;font-family:'Times New Roman';-inkscape-font-specification:'Times New Roman, ';stroke-width:0.26458332">Medio 2: ε<tspan
   style="font-size:64.99999762%;baseline-shift:sub"
   id="tspan3033">2</tspan>, μ<tspan
   style="font-size:64.99999762%;baseline-shift:sub"
   id="tspan3031">2</tspan></tspan></text>
    <text
       xml:space="preserve"
       style="font-style:normal;font-weight:normal;font-size:10.58333302px;line-height:1.25;font-family:sans-serif;letter-spacing:0px;word-spacing:0px;fill:#000000;fill-opacity:1;stroke:none;stroke-width:0.26458332"
       x="180.20015"
       y="74.466522"
       id="text3049"><tspan
         sodipodi:role="line"
         id="tspan3051"
         x="180.20015"
         y="74.466522"
         style="font-style:normal;font-variant:normal;font-weight:normal;font-stretch:normal;font-size:2.82222223px;font-family:'Times New Roman';-inkscape-font-specification:'Times New Roman, '">ρ</tspan></text>
  </g>
</svg>
