<?xml version="1.0" encoding="UTF-8" standalone="no"?>
<!-- Created with Inkscape (http://www.inkscape.org/) -->

<svg
   xmlns:ns0="http://www.iki.fi/pav/software/textext/"
   xmlns:dc="http://purl.org/dc/elements/1.1/"
   xmlns:cc="http://creativecommons.org/ns#"
   xmlns:rdf="http://www.w3.org/1999/02/22-rdf-syntax-ns#"
   xmlns:svg="http://www.w3.org/2000/svg"
   xmlns="http://www.w3.org/2000/svg"
   xmlns:sodipodi="http://sodipodi.sourceforge.net/DTD/sodipodi-0.dtd"
   xmlns:inkscape="http://www.inkscape.org/namespaces/inkscape"
   id="svg2816"
   version="1.1"
   inkscape:version="0.47 r22583"
   width="402.79651"
   height="319.48349"
   sodipodi:docname="fundamentos_11.svg">
  <sodipodi:namedview
     pagecolor="#ffffff"
     bordercolor="#666666"
     borderopacity="1"
     objecttolerance="10"
     gridtolerance="10"
     guidetolerance="10"
     inkscape:pageopacity="0"
     inkscape:pageshadow="2"
     inkscape:window-width="1366"
     inkscape:window-height="708"
     id="namedview2818"
     showgrid="false"
     inkscape:zoom="18.996189"
     inkscape:cx="116.54824"
     inkscape:cy="128.69432"
     inkscape:window-x="-4"
     inkscape:window-y="-4"
     inkscape:window-maximized="1"
     inkscape:current-layer="svg2816"
     inkscape:document-units="mm"
     units="mm"
     inkscape:object-paths="true" />
  <metadata
     id="metadata2822">
    <rdf:RDF>
      <cc:Work
         rdf:about="">
        <dc:format>image/svg+xml</dc:format>
        <dc:type
           rdf:resource="http://purl.org/dc/dcmitype/StillImage" />
        <dc:title />
      </cc:Work>
    </rdf:RDF>
  </metadata>
  <defs
     id="defs2820">
    <marker
       inkscape:stockid="TriangleOutM"
       orient="auto"
       refY="0"
       refX="0"
       id="TriangleOutM"
       style="overflow:visible">
      <path
         id="path4499"
         d="m 5.77,0 -8.65,5 0,-10 8.65,5 z"
         style="fill-rule:evenodd;stroke:#000000;stroke-width:1pt;marker-start:none"
         transform="scale(0.4,0.4)" />
    </marker>
    <marker
       inkscape:stockid="TriangleOutL"
       orient="auto"
       refY="0"
       refX="0"
       id="TriangleOutL"
       style="overflow:visible">
      <path
         id="path4496"
         d="m 5.77,0 -8.65,5 0,-10 8.65,5 z"
         style="fill-rule:evenodd;stroke:#000000;stroke-width:1pt;marker-start:none"
         transform="scale(0.8,0.8)" />
    </marker>
    <marker
       inkscape:stockid="Arrow2Lend"
       orient="auto"
       refY="0"
       refX="0"
       id="Arrow2Lend"
       style="overflow:visible">
      <path
         id="path4374"
         style="font-size:12px;fill-rule:evenodd;stroke-width:0.625;stroke-linejoin:round"
         d="M 8.7185878,4.0337352 -2.2072895,0.01601326 8.7185884,-4.0017078 c -1.7454984,2.3720609 -1.7354408,5.6174519 -6e-7,8.035443 z"
         transform="matrix(-1.1,0,0,-1.1,-1.1,0)" />
    </marker>
    <inkscape:perspective
       sodipodi:type="inkscape:persp3d"
       inkscape:vp_x="0 : 0.5 : 1"
       inkscape:vp_y="0 : 1000 : 0"
       inkscape:vp_z="1 : 0.5 : 1"
       inkscape:persp3d-origin="0.5 : 0.33333333 : 1"
       id="perspective2824" />
    <inkscape:perspective
       id="perspective5520"
       inkscape:persp3d-origin="0.5 : 0.33333333 : 1"
       inkscape:vp_z="1 : 0.5 : 1"
       inkscape:vp_y="0 : 1000 : 0"
       inkscape:vp_x="0 : 0.5 : 1"
       sodipodi:type="inkscape:persp3d" />
    <marker
       style="overflow:visible"
       id="Arrow2Mend"
       refX="0"
       refY="0"
       orient="auto"
       inkscape:stockid="Arrow2Mend">
      <path
         transform="scale(-0.6,-0.6)"
         d="M 8.7185878,4.0337352 -2.2072895,0.01601326 8.7185884,-4.0017078 c -1.7454984,2.3720609 -1.7354408,5.6174519 -6e-7,8.035443 z"
         style="font-size:12px;fill-rule:evenodd;stroke-width:0.625;stroke-linejoin:round"
         id="path4108" />
    </marker>
    <inkscape:perspective
       id="perspective6308"
       inkscape:persp3d-origin="0.5 : 0.33333333 : 1"
       inkscape:vp_z="1 : 0.5 : 1"
       inkscape:vp_y="0 : 1000 : 0"
       inkscape:vp_x="0 : 0.5 : 1"
       sodipodi:type="inkscape:persp3d" />
    <marker
       inkscape:stockid="Arrow2Lend"
       orient="auto"
       refY="0"
       refX="0"
       id="Arrow2Lend-1"
       style="overflow:visible">
      <path
         id="path4374-7"
         style="font-size:12px;fill-rule:evenodd;stroke-width:0.625;stroke-linejoin:round"
         d="M 8.7185878,4.0337352 -2.2072895,0.01601326 8.7185884,-4.0017078 c -1.7454984,2.3720609 -1.7354408,5.6174519 -6e-7,8.035443 z"
         transform="matrix(-1.1,0,0,-1.1,-1.1,0)" />
    </marker>
    <inkscape:perspective
       id="perspective6336"
       inkscape:persp3d-origin="0.5 : 0.33333333 : 1"
       inkscape:vp_z="1 : 0.5 : 1"
       inkscape:vp_y="0 : 1000 : 0"
       inkscape:vp_x="0 : 0.5 : 1"
       sodipodi:type="inkscape:persp3d" />
    <marker
       inkscape:stockid="Arrow2Lend"
       orient="auto"
       refY="0"
       refX="0"
       id="Arrow2Lend-0"
       style="overflow:visible">
      <path
         id="path4374-9"
         style="font-size:12px;fill-rule:evenodd;stroke-width:0.625;stroke-linejoin:round"
         d="M 8.7185878,4.0337352 -2.2072895,0.01601326 8.7185884,-4.0017078 c -1.7454984,2.3720609 -1.7354408,5.6174519 -6e-7,8.035443 z"
         transform="matrix(-1.1,0,0,-1.1,-1.1,0)" />
    </marker>
    <inkscape:perspective
       sodipodi:type="inkscape:persp3d"
       inkscape:vp_x="0 : 0.5 : 1"
       inkscape:vp_y="0 : 1000 : 0"
       inkscape:vp_z="1 : 0.5 : 1"
       inkscape:persp3d-origin="0.5 : 0.33333333 : 1"
       id="perspective6792" />
    <inkscape:perspective
       id="perspective7508"
       inkscape:persp3d-origin="0.5 : 0.33333333 : 1"
       inkscape:vp_z="1 : 0.5 : 1"
       inkscape:vp_y="0 : 1000 : 0"
       inkscape:vp_x="0 : 0.5 : 1"
       sodipodi:type="inkscape:persp3d" />
    <inkscape:perspective
       id="perspective7530"
       inkscape:persp3d-origin="0.5 : 0.33333333 : 1"
       inkscape:vp_z="1 : 0.5 : 1"
       inkscape:vp_y="0 : 1000 : 0"
       inkscape:vp_x="0 : 0.5 : 1"
       sodipodi:type="inkscape:persp3d" />
    <marker
       inkscape:stockid="Arrow2Lend"
       orient="auto"
       refY="0"
       refX="0"
       id="Arrow2Lend-4"
       style="overflow:visible">
      <path
         id="path4374-5"
         style="font-size:12px;fill-rule:evenodd;stroke-width:0.625;stroke-linejoin:round"
         d="M 8.7185878,4.0337352 -2.2072895,0.01601326 8.7185884,-4.0017078 c -1.7454984,2.3720609 -1.7354408,5.6174519 -6e-7,8.035443 z"
         transform="matrix(-1.1,0,0,-1.1,-1.1,0)" />
    </marker>
    <inkscape:perspective
       id="perspective7754"
       inkscape:persp3d-origin="0.5 : 0.33333333 : 1"
       inkscape:vp_z="1 : 0.5 : 1"
       inkscape:vp_y="0 : 1000 : 0"
       inkscape:vp_x="0 : 0.5 : 1"
       sodipodi:type="inkscape:persp3d" />
    <marker
       style="overflow:visible"
       id="Arrow2Mend-1"
       refX="0"
       refY="0"
       orient="auto"
       inkscape:stockid="Arrow2Mend">
      <path
         transform="scale(-0.6,-0.6)"
         d="M 8.7185878,4.0337352 -2.2072895,0.01601326 8.7185884,-4.0017078 c -1.7454984,2.3720609 -1.7354408,5.6174519 -6e-7,8.035443 z"
         style="font-size:12px;fill-rule:evenodd;stroke-width:0.625;stroke-linejoin:round"
         id="path4108-7" />
    </marker>
    <inkscape:perspective
       id="perspective7782"
       inkscape:persp3d-origin="0.5 : 0.33333333 : 1"
       inkscape:vp_z="1 : 0.5 : 1"
       inkscape:vp_y="0 : 1000 : 0"
       inkscape:vp_x="0 : 0.5 : 1"
       sodipodi:type="inkscape:persp3d" />
    <marker
       style="overflow:visible"
       id="Arrow2Mend-15"
       refX="0"
       refY="0"
       orient="auto"
       inkscape:stockid="Arrow2Mend">
      <path
         transform="scale(-0.6,-0.6)"
         d="M 8.7185878,4.0337352 -2.2072895,0.01601326 8.7185884,-4.0017078 c -1.7454984,2.3720609 -1.7354408,5.6174519 -6e-7,8.035443 z"
         style="font-size:12px;fill-rule:evenodd;stroke-width:0.625;stroke-linejoin:round"
         id="path4108-2" />
    </marker>
    <inkscape:perspective
       id="perspective8040"
       inkscape:persp3d-origin="0.5 : 0.33333333 : 1"
       inkscape:vp_z="1 : 0.5 : 1"
       inkscape:vp_y="0 : 1000 : 0"
       inkscape:vp_x="0 : 0.5 : 1"
       sodipodi:type="inkscape:persp3d" />
    <marker
       style="overflow:visible"
       id="Arrow2Mend-6"
       refX="0"
       refY="0"
       orient="auto"
       inkscape:stockid="Arrow2Mend">
      <path
         transform="scale(-0.6,-0.6)"
         d="M 8.7185878,4.0337352 -2.2072895,0.01601326 8.7185884,-4.0017078 c -1.7454984,2.3720609 -1.7354408,5.6174519 -6e-7,8.035443 z"
         style="font-size:12px;fill-rule:evenodd;stroke-width:0.625;stroke-linejoin:round"
         id="path4108-1" />
    </marker>
    <inkscape:perspective
       id="perspective8068"
       inkscape:persp3d-origin="0.5 : 0.33333333 : 1"
       inkscape:vp_z="1 : 0.5 : 1"
       inkscape:vp_y="0 : 1000 : 0"
       inkscape:vp_x="0 : 0.5 : 1"
       sodipodi:type="inkscape:persp3d" />
    <marker
       style="overflow:visible"
       id="Arrow2Mend-2"
       refX="0"
       refY="0"
       orient="auto"
       inkscape:stockid="Arrow2Mend">
      <path
         transform="scale(-0.6,-0.6)"
         d="M 8.7185878,4.0337352 -2.2072895,0.01601326 8.7185884,-4.0017078 c -1.7454984,2.3720609 -1.7354408,5.6174519 -6e-7,8.035443 z"
         style="font-size:12px;fill-rule:evenodd;stroke-width:0.625;stroke-linejoin:round"
         id="path4108-3" />
    </marker>
    <inkscape:perspective
       id="perspective9500"
       inkscape:persp3d-origin="0.5 : 0.33333333 : 1"
       inkscape:vp_z="1 : 0.5 : 1"
       inkscape:vp_y="0 : 1000 : 0"
       inkscape:vp_x="0 : 0.5 : 1"
       sodipodi:type="inkscape:persp3d" />
    <marker
       style="overflow:visible"
       id="Arrow2Mend-21"
       refX="0"
       refY="0"
       orient="auto"
       inkscape:stockid="Arrow2Mend">
      <path
         transform="scale(-0.6,-0.6)"
         d="M 8.7185878,4.0337352 -2.2072895,0.01601326 8.7185884,-4.0017078 c -1.7454984,2.3720609 -1.7354408,5.6174519 -6e-7,8.035443 z"
         style="font-size:12px;fill-rule:evenodd;stroke-width:0.625;stroke-linejoin:round"
         id="path4108-6" />
    </marker>
    <inkscape:perspective
       id="perspective9737"
       inkscape:persp3d-origin="0.5 : 0.33333333 : 1"
       inkscape:vp_z="1 : 0.5 : 1"
       inkscape:vp_y="0 : 1000 : 0"
       inkscape:vp_x="0 : 0.5 : 1"
       sodipodi:type="inkscape:persp3d" />
    <marker
       inkscape:stockid="Arrow2Lend"
       orient="auto"
       refY="0"
       refX="0"
       id="Arrow2Lend-5"
       style="overflow:visible">
      <path
         id="path4374-76"
         style="font-size:12px;fill-rule:evenodd;stroke-width:0.625;stroke-linejoin:round"
         d="M 8.7185878,4.0337352 -2.2072895,0.01601326 8.7185884,-4.0017078 c -1.7454984,2.3720609 -1.7354408,5.6174519 -6e-7,8.035443 z"
         transform="matrix(-1.1,0,0,-1.1,-1.1,0)" />
    </marker>
    <inkscape:perspective
       sodipodi:type="inkscape:persp3d"
       inkscape:vp_x="0 : 0.5 : 1"
       inkscape:vp_y="0 : 1000 : 0"
       inkscape:vp_z="1 : 0.5 : 1"
       inkscape:persp3d-origin="0.5 : 0.33333333 : 1"
       id="perspective11245" />
    <marker
       style="overflow:visible"
       id="Arrow2Mend-21-8"
       refX="0"
       refY="0"
       orient="auto"
       inkscape:stockid="Arrow2Mend">
      <path
         transform="scale(-0.6,-0.6)"
         d="M 8.7185878,4.0337352 -2.2072895,0.01601326 8.7185884,-4.0017078 c -1.7454984,2.3720609 -1.7354408,5.6174519 -6e-7,8.035443 z"
         style="font-size:12px;fill-rule:evenodd;stroke-width:0.625;stroke-linejoin:round"
         id="path4108-6-9" />
    </marker>
    <inkscape:perspective
       sodipodi:type="inkscape:persp3d"
       inkscape:vp_x="0 : 0.5 : 1"
       inkscape:vp_y="0 : 1000 : 0"
       inkscape:vp_z="1 : 0.5 : 1"
       inkscape:persp3d-origin="0.5 : 0.33333333 : 1"
       id="perspective11288" />
    <marker
       style="overflow:visible"
       id="Arrow2Mend-21-7"
       refX="0"
       refY="0"
       orient="auto"
       inkscape:stockid="Arrow2Mend">
      <path
         transform="scale(-0.6,-0.6)"
         d="M 8.7185878,4.0337352 -2.2072895,0.01601326 8.7185884,-4.0017078 c -1.7454984,2.3720609 -1.7354408,5.6174519 -6e-7,8.035443 z"
         style="font-size:12px;fill-rule:evenodd;stroke-width:0.625;stroke-linejoin:round"
         id="path4108-6-95" />
    </marker>
    <inkscape:perspective
       sodipodi:type="inkscape:persp3d"
       inkscape:vp_x="0 : 0.5 : 1"
       inkscape:vp_y="0 : 1000 : 0"
       inkscape:vp_z="1 : 0.5 : 1"
       inkscape:persp3d-origin="0.5 : 0.33333333 : 1"
       id="perspective11316" />
    <marker
       style="overflow:visible"
       id="Arrow2Mend-21-3"
       refX="0"
       refY="0"
       orient="auto"
       inkscape:stockid="Arrow2Mend">
      <path
         transform="scale(-0.6,-0.6)"
         d="M 8.7185878,4.0337352 -2.2072895,0.01601326 8.7185884,-4.0017078 c -1.7454984,2.3720609 -1.7354408,5.6174519 -6e-7,8.035443 z"
         style="font-size:12px;fill-rule:evenodd;stroke-width:0.625;stroke-linejoin:round"
         id="path4108-6-1" />
    </marker>
  </defs>
  <g
     id="g14835">
    <path
       style="fill:#000000;fill-opacity:0.15686275;stroke:none"
       d="m 214.70775,70.116894 c 4.43096,0.150182 7.61808,-0.632509 10.02006,-2.004047 4.41982,-3.189508 13.52583,-8.035723 18.03642,6.012141 4.19917,13.907805 -1.83721,20.455062 -2.67218,21.376203 -3.68031,5.585179 -16.87971,10.339979 -25.3843,8.016189 -16.40202,-4.010991 -22.39983,-31.316335 0,-33.400486 z"
       id="path10525"
       inkscape:connector-curvature="0"
       sodipodi:nodetypes="cccccc" />
    <path
       sodipodi:nodetypes="cc"
       style="fill:none;stroke:#000000;stroke-width:2.12598419;stroke-linecap:butt;stroke-linejoin:miter;stroke-miterlimit:4;stroke-opacity:1;stroke-dasharray:none;marker-end:url(#Arrow2Mend)"
       d="m 134.04409,200.72417 c -4.5e-4,4.5e-4 178.74587,-133.443031 178.74587,-133.443031"
       id="path4076-2-4-5-1" />
    <path
       sodipodi:nodetypes="cc"
       style="fill:none;stroke:#000000;stroke-width:2.12598419;stroke-linecap:butt;stroke-linejoin:miter;stroke-miterlimit:4;stroke-opacity:1;stroke-dasharray:none;marker-end:url(#Arrow2Mend)"
       d="m 221.98171,79.203442 c -4.5e-4,4.5e-4 87.52393,-19.085 87.52393,-19.085"
       id="path4076-2-4-5-1-4" />
    <g
       transform="matrix(0.45,0,0,0.45,38.216948,31.718875)"
       id="g3308">
      <path
         transform="matrix(1.55441,0,0,1.7764686,-326.28255,-31.330551)"
         d="m 627.29213,48.200245 c 0,1.708544 -1.58292,3.093592 -3.53554,3.093592 -1.95262,0 -3.53553,-1.385048 -3.53553,-3.093592 0,-1.708544 1.58291,-3.093592 3.53553,-3.093592 1.95262,0 3.53554,1.385048 3.53554,3.093592 z"
         sodipodi:ry="3.0935922"
         sodipodi:rx="3.5355339"
         sodipodi:cy="48.200245"
         sodipodi:cx="623.75659"
         id="path6934"
         style="fill:#000000;fill-opacity:1;stroke:none"
         sodipodi:type="arc" />
    </g>
    <g
       style="font-style:normal;font-variant:normal;font-weight:normal;font-stretch:normal;letter-spacing:normal;word-spacing:normal;text-anchor:start;fill:none;stroke:#000000;stroke-linecap:butt;stroke-linejoin:miter;stroke-miterlimit:10.43299961;stroke-opacity:1;stroke-dasharray:none;stroke-dashoffset:0"
       id="g4227"
       transform="matrix(1.35,0,0,-1.35,-301.7925,963.744)"
       xml:space="preserve"
       stroke-miterlimit="10.433"
       font-style="normal"
       font-variant="normal"
       font-weight="normal"
       font-stretch="normal"
       font-size-adjust="none"
       letter-spacing="normal"
       word-spacing="normal"
       ns0:text="x"
       ns0:preamble="E:\\preamble.tex">
<path
   style="fill:#000000;stroke-width:0"
   d="m 226.29,479.57 0.06,0.08 0.06,0.07 0.06,0.08 0.06,0.07 0.12,0.16 0.06,0.07 0.06,0.08 0.06,0.08 0.06,0.07 0.06,0.07 0.06,0.07 0.03,0.03 0.02,0.03 0.03,0.03 0.02,0.03 0.03,0.03 0.02,0.03 0.03,0.02 0.02,0.03 c 0.31,0.36 0.72,0.51 1.19,0.52 v 0.3 c -0.26,-0.01 -0.56,-0.03 -0.82,-0.03 -0.3,0 -0.83,0.03 -0.96,0.03 v -0.3 c 0.21,-0.02 0.29,-0.15 0.29,-0.31 0,-0.16 -0.1,-0.29 -0.15,-0.35 l -0.62,-0.78 -0.77,1.01 c -0.09,0.1 -0.09,0.12 -0.09,0.18 0,0.15 0.15,0.24 0.35,0.25 v 0.3 c -0.26,0 -0.92,-0.03 -1.08,-0.03 -0.21,0 -0.68,0.02 -0.95,0.03 v -0.3 c 0.7,0 0.71,-0.01 1.18,-0.61 l 0.98,-1.28 -0.93,-1.19 c -0.48,-0.58 -1.07,-0.6 -1.28,-0.6 v -0.31 c 0.26,0.03 0.57,0.04 0.83,0.04 0.29,0 0.71,-0.03 0.95,-0.04 v 0.31 c -0.22,0.03 -0.29,0.16 -0.29,0.31 0,0.22 0.29,0.55 0.89,1.27 l 0.76,-1 c 0.08,-0.11 0.21,-0.27 0.21,-0.33 0,-0.09 -0.09,-0.24 -0.36,-0.25 v -0.31 c 0.3,0.01 0.86,0.04 1.08,0.04 0.27,0 0.66,-0.01 0.96,-0.04 v 0.31 c -0.54,0 -0.72,0.02 -0.95,0.31 z"
   id="path4229" />
</g>    <path
       sodipodi:nodetypes="cc"
       style="fill:none;stroke:#000000;stroke-width:0.78129923;stroke-linecap:butt;stroke-linejoin:miter;stroke-miterlimit:4;stroke-opacity:1;stroke-dasharray:none;marker-end:url(#Arrow2Mend-21)"
       d="m 134.04409,93.588475 c 25.32326,0.29137 41.47512,2.652888 64.12548,15.037775"
       id="path4076-2-4-1" />
    <path
       sodipodi:nodetypes="cc"
       style="fill:none;stroke:#000000;stroke-width:0.78129923;stroke-linecap:butt;stroke-linejoin:miter;stroke-miterlimit:4;stroke-opacity:1;stroke-dasharray:none;marker-end:url(#Arrow2Mend-21)"
       d="m 134.04409,141.93698 c 18.38816,0.84976 39.57981,10.44259 48.75662,19.81019"
       id="path4076-2-4-1-2" />
    <path
       sodipodi:nodetypes="cc"
       style="fill:none;stroke:#000000;stroke-width:0.78129923;stroke-linecap:butt;stroke-linejoin:miter;stroke-miterlimit:4;stroke-opacity:1;stroke-dasharray:none;marker-end:url(#Arrow2Lend)"
       d="m 134.044,200.72461 c -9e-4,0 222.87697,0 222.87697,0"
       id="path4076-2-4" />
    <path
       sodipodi:nodetypes="cc"
       style="fill:none;stroke:#000000;stroke-width:2.12598419;stroke-linecap:butt;stroke-linejoin:miter;stroke-miterlimit:4;stroke-opacity:1;stroke-dasharray:none;marker-end:url(#Arrow2Mend)"
       d="m 134.04409,200.72417 c -4.5e-4,4.5e-4 83.07329,-114.79828 83.07329,-114.79828"
       id="path4076-2-4-5-8" />
    <path
       sodipodi:nodetypes="cc"
       style="fill:none;stroke:#000000;stroke-width:0.78129923;stroke-linecap:butt;stroke-linejoin:miter;stroke-miterlimit:4;stroke-opacity:1;stroke-dasharray:none;marker-end:url(#Arrow2Mend-21)"
       d="m 97.095016,233.64244 c 40.712464,6.35459 76.673604,3.53523 101.846344,-12.8022"
       id="path4076-2-4-1-2-4" />
    <path
       sodipodi:nodetypes="cc"
       style="fill:none;stroke:#000000;stroke-width:0.78129923;stroke-linecap:butt;stroke-linejoin:miter;stroke-miterlimit:4;stroke-opacity:1;stroke-dasharray:none;marker-end:url(#Arrow2Mend-21)"
       d="M 44.418437,279.9113 C 113.61993,319.20124 190.60395,298.84831 252.32482,269.82929"
       id="path4076-2-4-1-2-4-2" />
    <g
       transform="translate(1,0.92677)"
       id="g11070">
      <path
         id="path4076-2-4-4"
         d="m 133.04409,199.7974 c 0,4.5e-4 0,-189.349717 0,-189.349717"
         style="fill:none;stroke:#000000;stroke-width:0.78129923;stroke-linecap:butt;stroke-linejoin:miter;stroke-miterlimit:4;stroke-opacity:1;stroke-dasharray:none;marker-end:url(#Arrow2Lend)"
         sodipodi:nodetypes="cc" />
      <path
         id="path4076-2-4-48"
         d="m 133.04409,199.7974 c 9e-4,-3.7e-4 -123.259826,108.90386 -123.259826,108.90386"
         style="fill:none;stroke:#000000;stroke-width:0.78129923;stroke-linecap:butt;stroke-linejoin:miter;stroke-miterlimit:4;stroke-opacity:1;stroke-dasharray:none;marker-end:url(#Arrow2Lend)"
         sodipodi:nodetypes="cc" />
      <path
         sodipodi:nodetypes="ccc"
         id="path6936"
         d="m 133.04409,199.7974 193.65378,110.88255 0,-255.454794"
         style="fill:none;stroke:#000000;stroke-width:0.77970475;stroke-linecap:butt;stroke-linejoin:miter;stroke-miterlimit:4;stroke-opacity:1;stroke-dasharray:6.237638, 6.237638;stroke-dashoffset:0;marker-start:none;marker-mid:none" />
      <path
         sodipodi:nodetypes="ccc"
         id="path6936-2"
         d="m 133.04409,199.7974 87.93762,25.62554 0,-147.146268"
         style="fill:none;stroke:#000000;stroke-width:0.77970475;stroke-linecap:butt;stroke-linejoin:miter;stroke-miterlimit:4;stroke-opacity:1;stroke-dasharray:6.237638, 6.237638;stroke-dashoffset:0;marker-start:none;marker-mid:none" />
    </g>
    <g
       ns0:preamble="E:\\preamble.tex"
       ns0:text="y"
       word-spacing="normal"
       letter-spacing="normal"
       font-size-adjust="none"
       font-stretch="normal"
       font-weight="normal"
       font-variant="normal"
       font-style="normal"
       stroke-miterlimit="10.433"
       xml:space="preserve"
       transform="matrix(1.35,0,0,-1.35,60.909,847.6515)"
       id="g4543"
       style="font-style:normal;font-variant:normal;font-weight:normal;font-stretch:normal;letter-spacing:normal;word-spacing:normal;text-anchor:start;fill:none;stroke:#000000;stroke-linecap:butt;stroke-linejoin:miter;stroke-miterlimit:10.43299961;stroke-opacity:1;stroke-dasharray:none;stroke-dashoffset:0">
<path
   id="path4545"
   d="m 227.57,480.58 0.01,0.03 0.01,0.03 0.02,0.02 0.01,0.03 0.01,0.02 0.02,0.03 0.01,0.02 0.02,0.03 0.03,0.04 0.03,0.04 0.03,0.04 0.03,0.03 0.03,0.04 0.04,0.02 0.03,0.03 0.03,0.03 0.04,0.02 0.03,0.02 0.04,0.02 0.03,0.01 0.03,0.02 0.04,0.01 0.03,0.01 0.03,0.01 0.03,0.01 0.03,0 0.03,0.01 0.03,0 0.03,0.01 0.02,0 0.03,0 0.02,0 0.02,0.01 0.02,0 0.02,0 0.02,0 v 0.3 c -0.23,-0.01 -0.52,-0.03 -0.75,-0.03 -0.18,0 -0.65,0.03 -0.87,0.03 v -0.3 c 0.31,-0.01 0.47,-0.18 0.47,-0.43 0,-0.1 -0.01,-0.12 -0.06,-0.24 l -1.01,-2.45 -1.1,2.68 c -0.04,0.1 -0.06,0.14 -0.06,0.18 0,0.26 0.37,0.26 0.56,0.26 v 0.3 c -0.26,0 -0.92,-0.03 -1.09,-0.03 -0.27,0 -0.67,0.02 -0.97,0.03 v -0.3 c 0.48,0 0.67,0 0.81,-0.35 l 1.49,-3.64 c -0.05,-0.12 -0.18,-0.45 -0.24,-0.58 -0.22,-0.55 -0.5,-1.24 -1.14,-1.24 -0.05,0 -0.28,0 -0.47,0.18 0.31,0.04 0.39,0.26 0.39,0.42 0,0.26 -0.19,0.42 -0.42,0.42 -0.2,0 -0.42,-0.13 -0.42,-0.43 0,-0.45 0.42,-0.8 0.92,-0.8 0.63,0 1.03,0.56 1.27,1.13 z"
   style="fill:#000000;stroke-width:0" />
</g>    <g
       style="font-style:normal;font-variant:normal;font-weight:normal;font-stretch:normal;letter-spacing:normal;word-spacing:normal;text-anchor:start;fill:none;stroke:#000000;stroke-linecap:butt;stroke-linejoin:miter;stroke-miterlimit:10.43299961;stroke-opacity:1;stroke-dasharray:none;stroke-dashoffset:0"
       id="g4863"
       transform="matrix(1.35,0,0,-1.35,-170.4985,650.052)"
       xml:space="preserve"
       stroke-miterlimit="10.433"
       font-style="normal"
       font-variant="normal"
       font-weight="normal"
       font-stretch="normal"
       font-size-adjust="none"
       letter-spacing="normal"
       word-spacing="normal"
       ns0:text="z"
       ns0:preamble="E:\\preamble.tex">
<path
   style="fill:#000000;stroke-width:0"
   d="m 227.32,481.23 0,0 0.01,0.01 0,0 0.01,0.01 0,0 0,0 0.01,0.01 0,0 0,0.01 0.01,0 0,0 0,0.01 0,0 0.01,0.01 0,0 0.01,0.01 0,0.01 0,0 0.01,0.01 0,0 0,0.01 0.01,0 0,0.01 0,0 0,0 0,0.01 0,0 0.01,0.01 0,0 0,0 0,0.01 0,0 0,0.01 0,0.01 0,0 c 0,0.13 -0.08,0.13 -0.26,0.13 h -3.19 l -0.11,-1.6 h 0.25 c 0.06,1.02 0.25,1.39 1.35,1.39 h 1.13 l -2.78,-3.76 c -0.09,-0.11 -0.09,-0.13 -0.09,-0.18 0,-0.14 0.07,-0.14 0.26,-0.14 h 3.29 l 0.17,1.87 h -0.25 c -0.09,-1.18 -0.3,-1.62 -1.45,-1.62 h -1.18 z"
   id="path4865" />
</g>    <g
       ns0:preamble="E:\\preamble.tex"
       ns0:text="$\\phi$"
       word-spacing="normal"
       letter-spacing="normal"
       font-size-adjust="none"
       font-stretch="normal"
       font-weight="normal"
       font-variant="normal"
       font-style="normal"
       stroke-miterlimit="10.433"
       xml:space="preserve"
       transform="matrix(1.35,0,0,-1.35,-162.293,938.5845)"
       id="g5187"
       style="font-style:normal;font-variant:normal;font-weight:normal;font-stretch:normal;letter-spacing:normal;word-spacing:normal;text-anchor:start;fill:none;stroke:#000000;stroke-linecap:butt;stroke-linejoin:miter;stroke-miterlimit:10.43299961;stroke-opacity:1;stroke-dasharray:none;stroke-dashoffset:0">
<path
   id="path5189"
   d="m 227.79,483.9 0,0 0,0.01 0,0 0,0 0,0 0,0 0,0 0,0 0,0.01 0,0 0,0.01 0,0 0,0.01 0,0 0.01,0.01 0,0 0,0.01 0,0.01 0,0.01 0.01,0.01 0,0 0,0.01 0,0 0,0.01 0,0.01 0,0 0,0 0.01,0.01 0,0 0,0 0,0 0,0.01 0,0 0,0 0,0 0,0 0,0 0,0 0,0 c 0,0.01 0,0.1 -0.12,0.1 -0.1,0 -0.11,-0.03 -0.15,-0.2 l -0.58,-2.3 c -1.58,-0.05 -3.05,-1.37 -3.05,-2.72 0,-0.95 0.7,-1.74 1.91,-1.8 l 0.05,0.21 c -0.59,0.03 -1.31,0.38 -1.31,1.38 0,1.19 0.86,2.59 2.34,2.71 l -1.03,-4.09 -0.05,-0.21 c -0.07,-0.31 -0.15,-0.63 -0.23,-0.94 -0.11,-0.47 -0.21,-0.85 -0.21,-0.88 0,-0.1 0.07,-0.1 0.12,-0.1 0.04,0 0.06,0 0.09,0.03 0.03,0.02 0.08,0.26 0.11,0.4 l 0.38,1.49 0.05,0.21 1.03,4.09 c 0.76,-0.03 1.33,-0.49 1.33,-1.37 0,-1.17 -0.86,-2.6 -2.36,-2.72 l -0.05,-0.21 c 1.61,0.05 3.05,1.39 3.05,2.72 0,0.79 -0.52,1.7 -1.91,1.8 z"
   style="fill:#000000;stroke-width:0" />
</g>    <g
       style="font-style:normal;font-variant:normal;font-weight:normal;font-stretch:normal;letter-spacing:normal;word-spacing:normal;text-anchor:start;fill:none;stroke:#000000;stroke-linecap:butt;stroke-linejoin:miter;stroke-miterlimit:10.43299961;stroke-opacity:1;stroke-dasharray:none;stroke-dashoffset:0"
       id="g5515"
       transform="matrix(1.35,0,0,-1.35,-163.411,872.8715)"
       xml:space="preserve"
       stroke-miterlimit="10.433"
       font-style="normal"
       font-variant="normal"
       font-weight="normal"
       font-stretch="normal"
       font-size-adjust="none"
       letter-spacing="normal"
       word-spacing="normal"
       ns0:text="$\\phi \'$"
       ns0:preamble="E:\\preamble.tex">
<path
   style="fill:#000000;stroke-width:0"
   d="m 227.79,483.9 0,0 0,0.01 0,0 0,0 0,0 0,0 0,0 0,0 0,0.01 0,0 0,0.01 0,0 0,0.01 0,0 0.01,0.01 0,0 0,0.01 0,0.01 0,0.01 0.01,0.01 0,0 0,0.01 0,0 0,0.01 0,0.01 0,0 0,0 0.01,0.01 0,0 0,0 0,0 0,0.01 0,0 0,0 0,0 0,0 0,0 0,0 0,0 c 0,0.01 0,0.1 -0.12,0.1 -0.1,0 -0.11,-0.03 -0.15,-0.2 l -0.58,-2.3 c -1.58,-0.05 -3.05,-1.37 -3.05,-2.72 0,-0.95 0.7,-1.74 1.91,-1.8 l 0.05,0.21 c -0.59,0.03 -1.31,0.38 -1.31,1.38 0,1.19 0.86,2.59 2.34,2.71 l -1.03,-4.09 -0.05,-0.21 c -0.07,-0.31 -0.15,-0.63 -0.23,-0.94 -0.11,-0.47 -0.21,-0.85 -0.21,-0.88 0,-0.1 0.07,-0.1 0.12,-0.1 0.04,0 0.06,0 0.09,0.03 0.03,0.02 0.08,0.26 0.11,0.4 l 0.38,1.49 0.05,0.21 1.03,4.09 c 0.76,-0.03 1.33,-0.49 1.33,-1.37 0,-1.17 -0.86,-2.6 -2.36,-2.72 l -0.05,-0.21 c 1.61,0.05 3.05,1.39 3.05,2.72 0,0.79 -0.52,1.7 -1.91,1.8 z"
   id="path5517" />
<path
   style="fill:#000000;stroke-width:0"
   d="m 231.39,484.13 0,0.01 0.01,0.01 0,0.01 0.01,0.01 0,0.01 0,0.01 0.01,0.01 0,0.01 0,0.01 0.01,0.01 0,0 0,0.01 0,0.01 0.01,0.01 0,0 0,0.01 0,0.01 0,0 0,0.01 0,0 0.01,0.01 0,0.01 0,0 0,0.01 0,0.01 0,0.01 0,0.01 0,0.01 c 0,0.21 -0.19,0.38 -0.41,0.38 -0.27,0 -0.35,-0.22 -0.38,-0.33 l -0.92,-3.01 c -0.01,-0.01 -0.04,-0.1 -0.04,-0.11 0,-0.08 0.22,-0.15 0.27,-0.15 0.05,0 0.06,0.01 0.11,0.11 z"
   id="path5519" />
</g>    <g
       ns0:preamble="E:\\preamble.tex"
       ns0:text="$\\theta$"
       word-spacing="normal"
       letter-spacing="normal"
       font-size-adjust="none"
       font-stretch="normal"
       font-weight="normal"
       font-variant="normal"
       font-style="normal"
       stroke-miterlimit="10.433"
       xml:space="preserve"
       transform="matrix(1.35,0,0,-1.35,-150.5875,785.262)"
       id="g5851"
       style="font-style:normal;font-variant:normal;font-weight:normal;font-stretch:normal;letter-spacing:normal;word-spacing:normal;text-anchor:start;fill:none;stroke:#000000;stroke-linecap:butt;stroke-linejoin:miter;stroke-miterlimit:10.43299961;stroke-opacity:1;stroke-dasharray:none;stroke-dashoffset:0">
<path
   id="path5853"
   d="m 227.97,482.21 0,0.06 0,0.07 -0.01,0.07 0,0.08 -0.01,0.07 -0.01,0.08 0,0.08 -0.02,0.09 -0.01,0.08 -0.01,0.09 -0.02,0.08 -0.02,0.09 -0.03,0.08 -0.02,0.08 -0.03,0.09 -0.03,0.08 -0.03,0.08 -0.04,0.07 -0.04,0.08 -0.04,0.07 -0.05,0.07 -0.05,0.06 -0.05,0.06 -0.06,0.05 -0.06,0.05 -0.04,0.03 -0.03,0.02 -0.04,0.02 -0.03,0.02 -0.04,0.01 -0.04,0.02 -0.03,0.01 -0.04,0.02 -0.05,0.01 -0.04,0.01 -0.04,0 -0.05,0.01 -0.04,0 -0.05,0 -0.01,-0.22 c 0.49,0 0.55,-0.63 0.55,-1.2 0,-0.49 -0.08,-1 -0.32,-1.98 h -2.08 c 0.17,0.63 0.37,1.43 0.77,2.14 0.26,0.49 0.63,1.04 1.08,1.04 l 0.01,0.22 c -1.38,0 -2.92,-2.8 -2.92,-5.08 0,-0.94 0.29,-2.04 1.2,-2.04 v 0.21 c -0.33,0 -0.54,0.29 -0.54,1.22 0,0.42 0.06,0.99 0.32,1.97 h 2.07 c -0.11,-0.46 -0.32,-1.3 -0.7,-2.02 -0.35,-0.68 -0.72,-1.17 -1.15,-1.17 v -0.21 c 1.4,0 2.92,2.85 2.92,5.08 z"
   style="fill:#000000;stroke-width:0" />
</g>    <g
       style="font-style:normal;font-variant:normal;font-weight:normal;font-stretch:normal;letter-spacing:normal;word-spacing:normal;text-anchor:start;fill:none;stroke:#000000;stroke-linecap:butt;stroke-linejoin:miter;stroke-miterlimit:10.43299961;stroke-opacity:1;stroke-dasharray:none;stroke-dashoffset:0"
       id="g6189"
       transform="matrix(1.35,0,0,-1.35,-138.8285,734.863)"
       xml:space="preserve"
       stroke-miterlimit="10.433"
       font-style="normal"
       font-variant="normal"
       font-weight="normal"
       font-stretch="normal"
       font-size-adjust="none"
       letter-spacing="normal"
       word-spacing="normal"
       ns0:text="$\\theta \'$"
       ns0:preamble="E:\\preamble.tex">
<path
   style="fill:#000000;stroke-width:0"
   d="m 227.97,482.21 0,0.06 0,0.07 -0.01,0.07 0,0.08 -0.01,0.07 -0.01,0.08 0,0.08 -0.02,0.09 -0.01,0.08 -0.01,0.09 -0.02,0.08 -0.02,0.09 -0.03,0.08 -0.02,0.08 -0.03,0.09 -0.03,0.08 -0.03,0.08 -0.04,0.07 -0.04,0.08 -0.04,0.07 -0.05,0.07 -0.05,0.06 -0.05,0.06 -0.06,0.05 -0.06,0.05 -0.04,0.03 -0.03,0.02 -0.04,0.02 -0.03,0.02 -0.04,0.01 -0.04,0.02 -0.03,0.01 -0.04,0.02 -0.05,0.01 -0.04,0.01 -0.04,0 -0.05,0.01 -0.04,0 -0.05,0 -0.01,-0.22 c 0.49,0 0.55,-0.63 0.55,-1.2 0,-0.49 -0.08,-1 -0.32,-1.98 h -2.08 c 0.17,0.63 0.37,1.43 0.77,2.14 0.26,0.49 0.63,1.04 1.08,1.04 l 0.01,0.22 c -1.38,0 -2.92,-2.8 -2.92,-5.08 0,-0.94 0.29,-2.04 1.2,-2.04 v 0.21 c -0.33,0 -0.54,0.29 -0.54,1.22 0,0.42 0.06,0.99 0.32,1.97 h 2.07 c -0.11,-0.46 -0.32,-1.3 -0.7,-2.02 -0.35,-0.68 -0.72,-1.17 -1.15,-1.17 v -0.21 c 1.4,0 2.92,2.85 2.92,5.08 z"
   id="path6191" />
<path
   style="fill:#000000;stroke-width:0"
   d="m 230.41,484.13 0,0.01 0.01,0.01 0,0.01 0,0.01 0.01,0.01 0,0.01 0.01,0.01 0,0.01 0,0.01 0,0.01 0.01,0 0,0.01 0,0.01 0,0.01 0.01,0 0,0.01 0,0.01 0,0 0,0.01 0,0 0,0.01 0,0.01 0.01,0 0,0.01 0,0.01 0,0.01 0,0.01 0,0.01 c 0,0.21 -0.2,0.38 -0.41,0.38 -0.27,0 -0.35,-0.22 -0.39,-0.33 l -0.91,-3.01 c -0.01,-0.01 -0.04,-0.1 -0.04,-0.11 0,-0.08 0.22,-0.15 0.27,-0.15 0.05,0 0.06,0.01 0.11,0.11 z"
   id="path6193" />
</g>    <g
       ns0:preamble="E:\\preamble.tex"
       ns0:text="$S$"
       word-spacing="normal"
       letter-spacing="normal"
       font-size-adjust="none"
       font-stretch="normal"
       font-weight="normal"
       font-variant="normal"
       font-style="normal"
       stroke-miterlimit="10.433"
       xml:space="preserve"
       transform="matrix(1.35,0,0,-1.35,-65.5325,750.3155)"
       id="g6535"
       style="font-style:normal;font-variant:normal;font-weight:normal;font-stretch:normal;letter-spacing:normal;word-spacing:normal;text-anchor:start;fill:none;stroke:#000000;stroke-linecap:butt;stroke-linejoin:miter;stroke-miterlimit:10.43299961;stroke-opacity:1;stroke-dasharray:none;stroke-dashoffset:0">
<path
   id="path6537"
   d="m 229.86,484.15 0,0 0,0.01 0,0 0,0 0,0.01 0,0 0,0.01 0,0 0,0 -0.01,0.01 0,0 0,0.01 0,0 0,0 -0.01,0.01 0,0 0,0.01 -0.01,0 0,0 0,0.01 -0.01,0 0,0 -0.01,0.01 0,0 -0.01,0 0,0 0,0 -0.01,0.01 0,0 0,0 -0.01,0 0,0 0,0 -0.01,0 0,0 -0.01,0 0,0 0,0 -0.01,0 c -0.05,0 -0.06,-0.01 -0.18,-0.15 l -0.48,-0.56 c -0.25,0.46 -0.77,0.71 -1.42,0.71 -1.27,0 -2.46,-1.14 -2.46,-2.35 0,-0.8 0.53,-1.26 1.03,-1.41 l 1.07,-0.28 c 0.37,-0.09 0.92,-0.24 0.92,-1.05 0,-0.9 -0.82,-1.83 -1.8,-1.83 -0.64,0 -1.74,0.21 -1.74,1.45 0,0.24 0.05,0.48 0.06,0.54 0.01,0.04 0.02,0.04 0.02,0.07 0,0.09 -0.07,0.1 -0.12,0.1 -0.05,0 -0.07,-0.01 -0.1,-0.04 -0.04,-0.03 -0.6,-2.31 -0.6,-2.33 0,-0.06 0.05,-0.1 0.11,-0.1 0.05,0 0.06,0.01 0.18,0.15 l 0.49,0.56 c 0.43,-0.58 1.1,-0.71 1.68,-0.71 1.36,0 2.54,1.32 2.54,2.55 0,0.69 -0.34,1.03 -0.49,1.17 -0.23,0.23 -0.38,0.27 -1.27,0.5 -0.22,0.06 -0.58,0.15 -0.67,0.18 -0.27,0.09 -0.61,0.37 -0.61,0.9 0,0.81 0.8,1.65 1.75,1.65 0.83,0 1.43,-0.42 1.43,-1.54 0,-0.32 -0.04,-0.5 -0.04,-0.56 0,-0.01 0,-0.1 0.12,-0.1 0.1,0 0.11,0.03 0.15,0.2 z"
   style="fill:#000000;stroke-width:0" />
</g>    <g
       style="font-style:normal;font-variant:normal;font-weight:normal;font-stretch:normal;letter-spacing:normal;word-spacing:normal;text-anchor:start;fill:none;stroke:#000000;stroke-linecap:butt;stroke-linejoin:miter;stroke-miterlimit:10.43299961;stroke-opacity:1;stroke-dasharray:none;stroke-dashoffset:0"
       id="g6883"
       transform="matrix(1.35,0,0,-1.35,-28.565,705.641)"
       xml:space="preserve"
       stroke-miterlimit="10.433"
       font-style="normal"
       font-variant="normal"
       font-weight="normal"
       font-stretch="normal"
       font-size-adjust="none"
       letter-spacing="normal"
       word-spacing="normal"
       ns0:text="$\\mathbf{R}$"
       ns0:preamble="E:\\preamble.tex">
<path
   style="fill:#000000;stroke-width:0"
   d="m 228.91,480.62 0.11,0.03 0.1,0.03 0.1,0.03 0.1,0.04 0.09,0.03 0.09,0.04 0.08,0.04 0.08,0.04 0.08,0.05 0.07,0.04 0.07,0.05 0.07,0.04 0.06,0.05 0.06,0.05 0.06,0.05 0.05,0.06 0.05,0.05 0.05,0.05 0.04,0.06 0.04,0.05 0.03,0.06 0.04,0.06 0.03,0.06 0.02,0.06 0.02,0.05 0.02,0.06 0.02,0.07 0.01,0.06 0.02,0.06 0,0.06 0.01,0.06 0,0.06 c 0,1.01 -1.1,1.84 -2.97,1.84 h -3.79 v -0.46 h 1.08 v -5.9 h -1.08 v -0.47 c 0.36,0.04 1.34,0.04 1.75,0.04 0.42,0 1.4,0 1.76,-0.04 v 0.47 h -1.08 v 2.77 0.36 2.77 h 1.18 c 1.6,0 1.62,-0.78 1.62,-1.39 0,-0.56 0,-1.38 -1.64,-1.38 h -1.16 v -0.36 h 1.17 c 0.14,0 0.58,0 0.89,-0.34 0.32,-0.35 0.32,-0.54 0.32,-1.26 0,-0.66 0,-1.15 0.69,-1.49 0.44,-0.21 1.06,-0.25 1.47,-0.25 1.06,0 1.2,0.89 1.2,1.05 0,0.22 -0.14,0.22 -0.24,0.22 -0.21,0 -0.22,-0.1 -0.23,-0.23 -0.05,-0.47 -0.34,-0.69 -0.64,-0.69 -0.6,0 -0.69,0.71 -0.74,1.13 -0.02,0.11 -0.1,0.79 -0.11,0.84 -0.14,0.7 -0.69,1.01 -1.12,1.17 z"
   id="path6885" />
</g>    <g
       ns0:preamble="E:\\preamble.tex"
       ns0:text="$\\mathbf{r}$"
       word-spacing="normal"
       letter-spacing="normal"
       font-size-adjust="none"
       font-stretch="normal"
       font-weight="normal"
       font-variant="normal"
       font-style="normal"
       stroke-miterlimit="10.433"
       xml:space="preserve"
       transform="matrix(1.35,0,0,-1.35,-36.016,738.686)"
       id="g7235"
       style="font-style:normal;font-variant:normal;font-weight:normal;font-stretch:normal;letter-spacing:normal;word-spacing:normal;text-anchor:start;fill:none;stroke:#000000;stroke-linecap:butt;stroke-linejoin:miter;stroke-miterlimit:10.43299961;stroke-opacity:1;stroke-dasharray:none;stroke-dashoffset:0">
<path
   id="path7237"
   d="m 225.46,480.59 v 1.12 l -1.66,-0.08 v -0.46 c 0.62,0 0.69,0 0.69,-0.39 v -3.08 h -0.69 v -0.47 c 0.35,0.01 0.8,0.04 1.26,0.04 0.38,0 1.01,0 1.37,-0.04 v 0.47 h -0.86 v 1.74 c 0,0.7 0.24,1.92 1.24,1.92 -0.01,-0.01 -0.19,-0.17 -0.19,-0.46 0,-0.41 0.32,-0.61 0.61,-0.61 0.29,0 0.61,0.21 0.61,0.61 0,0.52 -0.54,0.81 -1.06,0.81 -0.7,0 -1.1,-0.49 -1.32,-1.12 z"
   style="fill:#000000;stroke-width:0" />
</g>    <g
       style="font-style:normal;font-variant:normal;font-weight:normal;font-stretch:normal;letter-spacing:normal;word-spacing:normal;text-anchor:start;fill:none;stroke:#000000;stroke-linecap:butt;stroke-linejoin:miter;stroke-miterlimit:10.43299961;stroke-opacity:1;stroke-dasharray:none;stroke-dashoffset:0"
       id="g7591"
       transform="matrix(1.35,0,0,-1.35,-127.65,775.462)"
       xml:space="preserve"
       stroke-miterlimit="10.433"
       font-style="normal"
       font-variant="normal"
       font-weight="normal"
       font-stretch="normal"
       font-size-adjust="none"
       letter-spacing="normal"
       word-spacing="normal"
       ns0:text="$\\mathbf{r}\'$"
       ns0:preamble="E:\\preamble.tex">
<path
   style="fill:#000000;stroke-width:0"
   d="m 225.46,480.59 v 1.12 l -1.66,-0.08 v -0.46 c 0.62,0 0.69,0 0.69,-0.39 v -3.08 h -0.69 v -0.47 c 0.35,0.01 0.8,0.04 1.26,0.04 0.38,0 1.01,0 1.37,-0.04 v 0.47 h -0.86 v 1.74 c 0,0.7 0.24,1.92 1.24,1.92 -0.01,-0.01 -0.19,-0.17 -0.19,-0.46 0,-0.41 0.32,-0.61 0.61,-0.61 0.29,0 0.61,0.21 0.61,0.61 0,0.52 -0.54,0.81 -1.06,0.81 -0.7,0 -1.1,-0.49 -1.32,-1.12 z"
   id="path7593" />
<path
   style="fill:#000000;stroke-width:0"
   d="m 230.17,484.13 0.01,0.01 0,0.01 0.01,0.01 0,0.01 0,0.01 0.01,0.01 0,0.01 0,0.01 0.01,0.01 0,0.01 0,0 0,0.01 0.01,0.01 0,0.01 0,0 0,0.01 0,0.01 0.01,0 0,0.01 0,0 0,0.01 0,0.01 0,0 0,0.01 0,0.01 0,0.01 0,0.01 0,0.01 c 0,0.21 -0.19,0.38 -0.41,0.38 -0.26,0 -0.35,-0.22 -0.38,-0.33 l -0.92,-3.01 c -0.01,-0.01 -0.03,-0.1 -0.03,-0.11 0,-0.08 0.21,-0.15 0.27,-0.15 0.05,0 0.05,0.01 0.1,0.11 z"
   id="path7595" />
</g>    <g
       ns0:preamble="E:\\preamble.tex"
       ns0:text="\\centering\nPunto fuente\\\\\n$\\left(x\',y\',z\'\\right)$"
       word-spacing="normal"
       letter-spacing="normal"
       font-size-adjust="none"
       font-stretch="normal"
       font-weight="normal"
       font-variant="normal"
       font-style="normal"
       stroke-miterlimit="10.433"
       xml:space="preserve"
       transform="matrix(1.35,0,0,-1.35,-313.659,685.74)"
       id="g7955"
       style="font-style:normal;font-variant:normal;font-weight:normal;font-stretch:normal;letter-spacing:normal;word-spacing:normal;text-anchor:start;fill:none;stroke:#000000;stroke-linecap:butt;stroke-linejoin:miter;stroke-miterlimit:10.43299961;stroke-opacity:1;stroke-dasharray:none;stroke-dashoffset:0">
<path
   id="path7957"
   d="m 369.39,480.38 -0.03,0.26 v 2.69 c 0,0.32 0.02,0.39 0.49,0.39 h 0.89 c 1.58,0 1.58,-1.05 1.58,-1.54 0,-0.47 0,-1.54 -1.58,-1.54 h -1.38 l 0.03,-0.26 h 1.69 c 1.19,0 2.27,0.81 2.27,1.8 0,0.98 -0.99,1.85 -2.35,1.85 h -3.52 v -0.31 h 0.24 c 0.76,0 0.79,-0.11 0.79,-0.46 v -5.25 c 0,-0.36 -0.03,-0.47 -0.79,-0.47 h -0.24 v -0.31 c 0.35,0.04 1.08,0.04 1.46,0.04 0.38,0 1.13,0 1.48,-0.04 v 0.31 h -0.24 c -0.77,0 -0.79,0.11 -0.79,0.47 z"
   style="fill:#000000;stroke-width:0" />
<path
   id="path7959"
   d="m 377.81,478.02 v -0.89 l 1.43,0.1 v 0.31 c -0.69,0 -0.78,0.07 -0.78,0.56 v 3.53 L 377,481.52 v -0.3 c 0.7,0 0.78,-0.07 0.78,-0.56 v -1.77 c 0,-0.87 -0.48,-1.55 -1.21,-1.55 -0.84,0 -0.88,0.47 -0.88,0.99 v 3.3 l -1.46,-0.11 v -0.3 c 0.78,0 0.78,-0.03 0.78,-0.92 v -1.49 c 0,-0.78 0,-1.68 1.51,-1.68 0.56,0 1,0.27 1.29,0.89 z"
   style="fill:#000000;stroke-width:0" />
<path
   id="path7961"
   d="m 380.54,480.66 v -2.67 c 0,-0.45 -0.11,-0.45 -0.78,-0.45 v -0.31 c 0.35,0.01 0.86,0.04 1.13,0.04 0.26,0 0.78,-0.03 1.12,-0.04 v 0.31 c -0.67,0 -0.78,0 -0.78,0.45 v 1.83 c 0,1.04 0.71,1.6 1.35,1.6 0.62,0 0.73,-0.54 0.73,-1.11 v -2.32 c 0,-0.45 -0.11,-0.45 -0.77,-0.45 v -0.31 c 0.34,0.01 0.85,0.04 1.12,0.04 0.26,0 0.78,-0.03 1.12,-0.04 v 0.31 c -0.52,0 -0.77,0 -0.78,0.3 v 1.9 c 0,0.86 0,1.17 -0.31,1.53 -0.14,0.16 -0.47,0.36 -1.05,0.36 -0.72,0 -1.19,-0.42 -1.47,-1.04 v 1.04 l -1.41,-0.11 v -0.3 c 0.7,0 0.78,-0.07 0.78,-0.56 z"
   style="fill:#000000;stroke-width:0" />
<path
   id="path7963"
   d="m 386.43,481.22 h 1.42 v 0.3 h -1.42 v 1.84 h -0.25 c -0.01,-0.82 -0.31,-1.88 -1.29,-1.93 v -0.21 h 0.85 v -2.75 c 0,-1.23 0.93,-1.34 1.28,-1.34 0.71,0 0.99,0.7 0.99,1.34 v 0.57 h -0.25 v -0.55 c 0,-0.74 -0.3,-1.12 -0.67,-1.12 -0.66,0 -0.66,0.91 -0.66,1.08 z"
   style="fill:#000000;stroke-width:0" />
<path
   id="path7965"
   d="m 393.27,479.36 0,0.12 -0.01,0.12 -0.01,0.12 -0.02,0.11 -0.03,0.11 -0.03,0.11 -0.03,0.11 -0.04,0.11 -0.05,0.1 -0.05,0.1 -0.05,0.1 -0.06,0.09 -0.06,0.09 -0.07,0.09 -0.07,0.09 -0.07,0.08 -0.08,0.07 -0.08,0.08 -0.08,0.07 -0.08,0.06 -0.09,0.06 -0.1,0.06 -0.09,0.05 -0.1,0.05 -0.1,0.04 -0.1,0.04 -0.11,0.03 -0.1,0.03 -0.11,0.02 -0.11,0.01 -0.11,0.01 -0.11,0 -0.01,-0.21 c 0.44,0 0.86,-0.22 1.12,-0.65 0.26,-0.43 0.26,-1.01 0.26,-1.39 0,-0.35 0,-0.89 -0.22,-1.33 -0.21,-0.45 -0.65,-0.74 -1.15,-0.74 h 0 c -0.43,0 -0.87,0.21 -1.14,0.67 -0.25,0.44 -0.25,1.05 -0.25,1.4 0,0.39 0,0.93 0.24,1.37 0.27,0.46 0.74,0.67 1.14,0.67 l 0.01,0.21 c -1.25,0 -2.21,-1.08 -2.21,-2.33 0,-1.28 1.03,-2.23 2.2,-2.23 1.2,0 2.21,0.97 2.21,2.23 z"
   style="fill:#000000;stroke-width:0" />
<path
   id="path7967"
   d="m 398.62,481.52 v 1.16 c 0,0.87 0.48,1.35 0.92,1.35 0.03,0 0.17,0 0.32,-0.07 -0.12,-0.04 -0.29,-0.17 -0.29,-0.41 0,-0.23 0.16,-0.43 0.42,-0.43 0.29,0 0.44,0.2 0.44,0.43 0,0.37 -0.37,0.7 -0.89,0.7 -0.7,0 -1.55,-0.53 -1.55,-1.58 v -1.15 h -0.79 v -0.3 h 0.79 v -3.23 c 0,-0.45 -0.11,-0.45 -0.78,-0.45 v -0.31 c 0.39,0.01 0.86,0.04 1.14,0.04 0.4,0 0.87,0 1.27,-0.04 v 0.31 h -0.21 c -0.74,0 -0.76,0.11 -0.76,0.47 v 3.21 h 1.14 v 0.3 z"
   style="fill:#000000;stroke-width:0" />
<path
   id="path7969"
   d="m 403.82,478.02 v -0.89 l 1.43,0.1 v 0.31 c -0.7,0 -0.78,0.07 -0.78,0.56 v 3.53 l -1.46,-0.11 v -0.3 c 0.7,0 0.78,-0.07 0.78,-0.56 v -1.77 c 0,-0.87 -0.48,-1.55 -1.21,-1.55 -0.84,0 -0.88,0.47 -0.88,0.99 v 3.3 l -1.46,-0.11 v -0.3 c 0.78,0 0.78,-0.03 0.78,-0.92 v -1.49 c 0,-0.78 0,-1.68 1.51,-1.68 0.56,0 1,0.27 1.29,0.89 z"
   style="fill:#000000;stroke-width:0" />
<path
   id="path7971"
   d="m 406.56,479.53 0.01,0.21 c 0.06,1.49 0.9,1.74 1.24,1.74 1.02,0 1.12,-1.35 1.12,-1.74 h -2.36 l -0.01,-0.21 h 2.78 c 0.22,0 0.25,0 0.25,0.21 0,0.99 -0.54,1.95 -1.78,1.95 -1.16,0 -2.08,-1.02 -2.08,-2.27 0,-1.33 1.05,-2.29 2.2,-2.29 1.21,0 1.66,1.1 1.66,1.29 0,0.1 -0.08,0.12 -0.13,0.12 -0.09,0 -0.11,-0.06 -0.13,-0.14 -0.35,-1.03 -1.24,-1.03 -1.34,-1.03 -0.5,0 -0.9,0.3 -1.13,0.67 -0.3,0.48 -0.3,1.14 -0.3,1.49 z"
   style="fill:#000000;stroke-width:0" />
<path
   id="path7973"
   d="m 410.98,480.66 v -2.67 c 0,-0.45 -0.11,-0.45 -0.78,-0.45 v -0.31 c 0.35,0.01 0.86,0.04 1.13,0.04 0.26,0 0.77,-0.03 1.11,-0.04 v 0.31 c -0.67,0 -0.77,0 -0.77,0.45 v 1.83 c 0,1.04 0.7,1.6 1.34,1.6 0.63,0 0.74,-0.54 0.74,-1.11 v -2.32 c 0,-0.45 -0.11,-0.45 -0.78,-0.45 v -0.31 c 0.35,0.01 0.86,0.04 1.13,0.04 0.26,0 0.78,-0.03 1.11,-0.04 v 0.31 c -0.51,0 -0.76,0 -0.77,0.3 v 1.9 c 0,0.86 0,1.17 -0.31,1.53 -0.14,0.16 -0.47,0.36 -1.05,0.36 -0.73,0 -1.19,-0.42 -1.47,-1.04 v 1.04 l -1.41,-0.11 v -0.3 c 0.7,0 0.78,-0.07 0.78,-0.56 z"
   style="fill:#000000;stroke-width:0" />
<path
   id="path7975"
   d="m 416.87,481.22 h 1.43 v 0.3 h -1.43 v 1.84 h -0.25 c -0.01,-0.82 -0.31,-1.88 -1.28,-1.93 v -0.21 h 0.84 v -2.75 c 0,-1.23 0.93,-1.34 1.29,-1.34 0.71,0 0.99,0.7 0.99,1.34 v 0.57 h -0.25 v -0.55 c 0,-0.74 -0.3,-1.12 -0.67,-1.12 -0.67,0 -0.67,0.91 -0.67,1.08 z"
   style="fill:#000000;stroke-width:0" />
<path
   id="path7977"
   d="m 420.13,479.53 0.01,0.21 c 0.06,1.49 0.9,1.74 1.24,1.74 1.02,0 1.12,-1.35 1.12,-1.74 h -2.36 l -0.01,-0.21 h 2.78 c 0.22,0 0.25,0 0.25,0.21 0,0.99 -0.54,1.95 -1.78,1.95 -1.16,0 -2.08,-1.02 -2.08,-2.27 0,-1.33 1.05,-2.29 2.19,-2.29 1.22,0 1.67,1.1 1.67,1.29 0,0.1 -0.08,0.12 -0.13,0.12 -0.09,0 -0.11,-0.06 -0.13,-0.14 -0.35,-1.03 -1.25,-1.03 -1.35,-1.03 -0.49,0 -0.89,0.3 -1.12,0.67 -0.3,0.48 -0.3,1.14 -0.3,1.49 z"
   style="fill:#000000;stroke-width:0" />
<path
   id="path7979"
   d="m 378.09,462.89 0,0.01 0,0 0,0 0,0.01 0,0 0,0 0,0.01 -0.01,0 0,0 0,0.01 0,0 -0.01,0.01 0,0 0,0.01 -0.01,0 0,0.01 -0.01,0.01 0,0 -0.01,0.01 0,0 0,0.01 -0.01,0 0,0 0,0.01 -0.01,0 0,0.01 -0.01,0 0,0.01 -0.01,0 0,0.01 -0.01,0.01 0,0 -0.01,0.01 0,0 -0.01,0.01 -0.01,0.01 0,0 -0.01,0.01 -0.01,0.01 -0.01,0 0,0.01 -0.01,0.01 c -1.25,1.25 -1.57,3.13 -1.57,4.66 0,1.73 0.38,3.46 1.61,4.71 0.13,0.12 0.13,0.13 0.13,0.16 0,0.07 -0.04,0.1 -0.1,0.1 -0.1,0 -1,-0.67 -1.59,-1.94 -0.51,-1.09 -0.62,-2.2 -0.62,-3.03 0,-0.78 0.11,-1.98 0.65,-3.11 0.6,-1.22 1.46,-1.87 1.56,-1.87 0.06,0 0.1,0.03 0.1,0.1 z"
   style="fill:#000000;stroke-width:0" />
<path
   id="path7981"
   d="m 381.99,468.29 0.01,0.02 0.01,0.03 0,0.03 0.01,0.04 0.01,0.04 0.02,0.04 0.01,0.04 0.01,0.05 0.02,0.04 0.02,0.05 0.02,0.05 0.02,0.05 0.02,0.05 0.02,0.05 0.03,0.05 0.03,0.05 0.03,0.05 0.03,0.05 0.03,0.04 0.04,0.05 0.03,0.04 0.04,0.04 0.05,0.04 0.04,0.03 0.05,0.03 0.05,0.03 0.02,0.02 0.03,0.01 0.02,0.01 0.03,0.01 0.03,0.01 0.03,0.01 0.03,0 0.02,0.01 0.04,0 0.03,0.01 0.03,0 0.03,0 c 0.05,0 0.29,0 0.5,-0.13 -0.28,-0.05 -0.48,-0.3 -0.48,-0.54 0,-0.16 0.11,-0.34 0.38,-0.34 0.22,0 0.54,0.17 0.54,0.57 0,0.52 -0.59,0.66 -0.93,0.66 -0.58,0 -0.93,-0.53 -1.05,-0.76 -0.25,0.66 -0.78,0.76 -1.07,0.76 -1.04,0 -1.61,-1.29 -1.61,-1.53 0,-0.1 0.1,-0.1 0.12,-0.1 0.08,0 0.11,0.02 0.13,0.11 0.34,1.05 1,1.3 1.34,1.3 0.19,0 0.54,-0.09 0.54,-0.67 0,-0.31 -0.17,-0.97 -0.54,-2.37 -0.16,-0.61 -0.51,-1.03 -0.95,-1.03 -0.06,0 -0.29,0 -0.5,0.13 0.25,0.05 0.47,0.26 0.47,0.54 0,0.27 -0.22,0.34 -0.37,0.34 -0.3,0 -0.55,-0.25 -0.55,-0.57 0,-0.46 0.5,-0.66 0.94,-0.66 0.66,0 1.02,0.7 1.05,0.76 0.12,-0.37 0.48,-0.76 1.07,-0.76 1.03,0 1.6,1.28 1.6,1.53 0,0.1 -0.09,0.1 -0.12,0.1 -0.09,0 -0.11,-0.04 -0.13,-0.11 -0.33,-1.06 -1.01,-1.3 -1.33,-1.3 -0.39,0 -0.55,0.32 -0.55,0.66 0,0.22 0.07,0.43 0.17,0.87 z"
   style="fill:#000000;stroke-width:0" />
<path
   id="path7983"
   d="m 386.38,472.18 0,0.01 0.01,0.01 0,0.01 0.01,0.01 0,0.01 0,0.01 0.01,0.01 0,0.01 0,0 0.01,0.01 0,0.01 0,0.01 0,0 0.01,0.01 0,0.01 0,0.01 0,0 0,0.01 0,0 0,0.01 0.01,0.01 0,0 0,0.01 0,0 0,0.01 0,0.01 0,0.01 0,0.01 c 0,0.22 -0.2,0.38 -0.41,0.38 -0.26,0 -0.35,-0.21 -0.38,-0.32 l -0.92,-3.01 c -0.01,-0.02 -0.04,-0.11 -0.04,-0.12 0,-0.08 0.22,-0.15 0.27,-0.15 0.05,0 0.06,0.02 0.11,0.12 z"
   style="fill:#000000;stroke-width:0" />
<path
   id="path7985"
   d="m 389.18,465.29 0,0.06 -0.01,0.06 0,0.06 0,0.05 -0.01,0.06 -0.01,0.05 -0.01,0.05 -0.01,0.05 -0.01,0.05 -0.01,0.04 -0.02,0.05 -0.01,0.04 -0.02,0.04 -0.02,0.04 -0.02,0.03 -0.02,0.04 -0.02,0.03 -0.02,0.03 -0.02,0.03 -0.03,0.03 -0.02,0.02 -0.03,0.02 -0.03,0.03 -0.03,0.01 -0.03,0.02 -0.03,0.01 -0.03,0.02 -0.03,0.01 -0.04,0 -0.03,0.01 -0.04,0 -0.03,0 c -0.33,0 -0.53,-0.24 -0.53,-0.52 0,-0.27 0.2,-0.53 0.53,-0.53 0.12,0 0.25,0.04 0.35,0.13 0.03,0.02 0.04,0.03 0.05,0.03 0.01,0 0.02,-0.01 0.02,-0.15 0,-0.74 -0.35,-1.33 -0.68,-1.66 -0.11,-0.11 -0.11,-0.13 -0.11,-0.16 0,-0.07 0.05,-0.11 0.1,-0.11 0.11,0 0.91,0.77 0.91,1.93 z"
   style="fill:#000000;stroke-width:0" />
<path
   id="path7987"
   d="m 396.43,469.07 0,0.01 0,0 0,0.01 0.01,0.01 0,0.01 0,0.01 0,0.01 0.01,0.01 0,0.01 0,0.01 0,0 0.01,0.01 0,0.01 0,0.01 0,0 0,0.01 0,0.01 0,0 0,0.01 0.01,0 0,0.01 0,0.01 0,0.02 0,0.01 0,0.01 0,0 0,0.01 0,0 0,0.01 c 0,0.18 -0.14,0.27 -0.29,0.27 -0.1,0 -0.26,-0.06 -0.35,-0.21 -0.02,-0.05 -0.1,-0.36 -0.14,-0.54 -0.07,-0.26 -0.14,-0.52 -0.2,-0.79 l -0.45,-1.8 c -0.04,-0.14 -0.46,-0.84 -1.12,-0.84 -0.51,0 -0.62,0.44 -0.62,0.81 0,0.45 0.17,1.07 0.51,1.95 0.16,0.4 0.2,0.51 0.2,0.71 0,0.45 -0.32,0.82 -0.82,0.82 -0.95,0 -1.32,-1.44 -1.32,-1.53 0,-0.1 0.1,-0.1 0.12,-0.1 0.1,0 0.11,0.02 0.16,0.18 0.27,0.93 0.67,1.23 1.01,1.23 0.08,0 0.25,0 0.25,-0.32 0,-0.25 -0.1,-0.51 -0.17,-0.69 -0.4,-1.06 -0.58,-1.63 -0.58,-2.09 0,-0.89 0.63,-1.19 1.22,-1.19 0.39,0 0.73,0.17 1,0.45 -0.13,-0.52 -0.24,-1.01 -0.64,-1.53 -0.26,-0.34 -0.64,-0.63 -1.1,-0.63 -0.14,0 -0.59,0.03 -0.76,0.42 0.16,0 0.29,0 0.43,0.12 0.1,0.09 0.2,0.21 0.2,0.4 0,0.31 -0.27,0.35 -0.37,0.35 -0.23,0 -0.56,-0.16 -0.56,-0.64 0,-0.5 0.44,-0.87 1.06,-0.87 1.03,0 2.05,0.9 2.33,2.03 z"
   style="fill:#000000;stroke-width:0" />
<path
   id="path7989"
   d="m 398.84,472.18 0.01,0.01 0,0.01 0.01,0.01 0,0.01 0,0.01 0.01,0.01 0,0.01 0,0.01 0.01,0 0,0.01 0,0.01 0.01,0.01 0,0 0,0.01 0,0.01 0,0.01 0.01,0 0,0.01 0,0 0,0.01 0,0.01 0,0 0,0.01 0,0 0,0.01 0,0.01 0,0.01 0,0.01 c 0,0.22 -0.19,0.38 -0.41,0.38 -0.26,0 -0.35,-0.21 -0.38,-0.32 l -0.92,-3.01 c -0.01,-0.02 -0.03,-0.11 -0.03,-0.12 0,-0.08 0.21,-0.15 0.27,-0.15 0.05,0 0.05,0.02 0.1,0.12 z"
   style="fill:#000000;stroke-width:0" />
<path
   id="path7991"
   d="m 401.64,465.29 0,0.06 0,0.06 -0.01,0.06 0,0.05 -0.01,0.06 0,0.05 -0.01,0.05 -0.01,0.05 -0.02,0.05 -0.01,0.04 -0.01,0.05 -0.02,0.04 -0.02,0.04 -0.01,0.04 -0.02,0.03 -0.02,0.04 -0.02,0.03 -0.03,0.03 -0.02,0.03 -0.02,0.03 -0.03,0.02 -0.03,0.02 -0.02,0.03 -0.03,0.01 -0.03,0.02 -0.03,0.01 -0.04,0.02 -0.03,0.01 -0.03,0 -0.04,0.01 -0.03,0 -0.04,0 c -0.33,0 -0.53,-0.24 -0.53,-0.52 0,-0.27 0.2,-0.53 0.53,-0.53 0.12,0 0.25,0.04 0.35,0.13 0.03,0.02 0.04,0.03 0.05,0.03 0.01,0 0.02,-0.01 0.02,-0.15 0,-0.74 -0.35,-1.33 -0.68,-1.66 -0.11,-0.11 -0.11,-0.13 -0.11,-0.16 0,-0.07 0.05,-0.11 0.1,-0.11 0.11,0 0.91,0.77 0.91,1.93 z"
   style="fill:#000000;stroke-width:0" />
<path
   id="path7993"
   d="m 405.37,466.11 0.05,0.05 0.05,0.05 0.05,0.05 0.04,0.05 0.05,0.04 0.04,0.05 0.04,0.04 0.05,0.04 0.04,0.04 0.04,0.04 0.03,0.04 0.04,0.04 0.04,0.03 0.03,0.04 0.07,0.06 0.07,0.07 0.07,0.06 0.06,0.06 0.07,0.05 0.13,0.12 0.06,0.05 0.07,0.06 c 0,0.01 0.62,0.54 0.98,0.9 0.94,0.92 1.16,1.4 1.16,1.44 0,0.1 -0.09,0.1 -0.11,0.1 -0.07,0 -0.1,-0.02 -0.15,-0.11 -0.3,-0.48 -0.5,-0.64 -0.74,-0.64 -0.24,0 -0.36,0.15 -0.51,0.32 -0.19,0.23 -0.36,0.43 -0.69,0.43 -0.75,0 -1.21,-0.93 -1.21,-1.14 0,-0.05 0.03,-0.11 0.12,-0.11 0.09,0 0.11,0.05 0.13,0.11 0.19,0.46 0.77,0.47 0.85,0.47 0.21,0 0.4,-0.07 0.63,-0.15 0.4,-0.15 0.51,-0.15 0.77,-0.15 -0.36,-0.42 -1.2,-1.14 -1.39,-1.3 l -0.9,-0.84 c -0.67,-0.66 -1.02,-1.23 -1.02,-1.3 0,-0.1 0.1,-0.1 0.12,-0.1 0.08,0 0.1,0.02 0.16,0.13 0.22,0.35 0.52,0.62 0.84,0.62 0.23,0 0.33,-0.09 0.58,-0.38 0.17,-0.21 0.35,-0.37 0.64,-0.37 0.99,0 1.57,1.26 1.57,1.53 0,0.05 -0.04,0.1 -0.12,0.1 -0.1,0 -0.12,-0.06 -0.14,-0.13 -0.23,-0.64 -0.87,-0.83 -1.2,-0.83 -0.2,0 -0.38,0.06 -0.59,0.13 -0.34,0.13 -0.49,0.17 -0.7,0.17 -0.02,0 -0.18,0 -0.27,-0.03 z"
   style="fill:#000000;stroke-width:0" />
<path
   id="path7995"
   d="m 411.14,472.18 0,0.01 0.01,0.01 0,0.01 0.01,0.01 0,0.01 0,0.01 0.01,0.01 0,0.01 0,0 0.01,0.01 0,0.01 0,0.01 0,0 0.01,0.01 0,0.01 0,0.01 0,0 0,0.01 0,0 0,0.01 0,0.01 0.01,0 0,0.01 0,0 0,0.01 0,0.01 0,0.01 0,0.01 c 0,0.22 -0.2,0.38 -0.41,0.38 -0.27,0 -0.35,-0.21 -0.38,-0.32 l -0.92,-3.01 c -0.01,-0.02 -0.04,-0.11 -0.04,-0.12 0,-0.08 0.22,-0.15 0.27,-0.15 0.05,0 0.06,0.02 0.11,0.12 z"
   style="fill:#000000;stroke-width:0" />
<path
   id="path7997"
   d="m 414.79,467.77 0,0.07 0,0.08 0,0.08 0,0.08 -0.01,0.17 -0.01,0.17 -0.02,0.19 -0.02,0.19 -0.03,0.19 -0.03,0.2 -0.04,0.2 -0.05,0.21 -0.05,0.21 -0.06,0.21 -0.07,0.22 -0.08,0.21 -0.04,0.11 -0.05,0.1 -0.04,0.11 -0.05,0.1 c -0.6,1.23 -1.46,1.87 -1.56,1.87 -0.06,0 -0.1,-0.04 -0.1,-0.1 0,-0.03 0,-0.04 0.19,-0.22 0.98,-0.99 1.54,-2.57 1.54,-4.65 0,-1.7 -0.36,-3.45 -1.6,-4.71 -0.13,-0.12 -0.13,-0.14 -0.13,-0.17 0,-0.06 0.04,-0.1 0.1,-0.1 0.1,0 1,0.68 1.59,1.94 0.5,1.1 0.62,2.2 0.62,3.04 z"
   style="fill:#000000;stroke-width:0" />
</g>    <g
       style="font-style:normal;font-variant:normal;font-weight:normal;font-stretch:normal;letter-spacing:normal;word-spacing:normal;text-anchor:start;fill:none;stroke:#000000;stroke-linecap:butt;stroke-linejoin:miter;stroke-miterlimit:10.43299961;stroke-opacity:1;stroke-dasharray:none;stroke-dashoffset:0"
       id="g8401"
       transform="matrix(1.35,0,0,-1.35,-164.433,687.2555)"
       xml:space="preserve"
       stroke-miterlimit="10.433"
       font-style="normal"
       font-variant="normal"
       font-weight="normal"
       font-stretch="normal"
       font-size-adjust="none"
       letter-spacing="normal"
       word-spacing="normal"
       ns0:text="\\centering\nPunto de\\\\\nobservaci\xc3\xb3n\\\\\n$\\left(x,y,z\\right)$"
       ns0:preamble="E:\\preamble.tex">
<path
   style="fill:#000000;stroke-width:0"
   d="m 377.7,480.38 -0.03,0.26 v 2.69 c 0,0.32 0.01,0.39 0.48,0.39 h 0.89 c 1.59,0 1.59,-1.05 1.59,-1.54 0,-0.47 0,-1.54 -1.59,-1.54 h -1.37 l 0.03,-0.26 h 1.68 c 1.2,0 2.27,0.81 2.27,1.8 0,0.98 -0.98,1.85 -2.35,1.85 h -3.52 v -0.31 h 0.24 c 0.77,0 0.79,-0.11 0.79,-0.46 v -5.25 c 0,-0.36 -0.02,-0.47 -0.79,-0.47 h -0.24 v -0.31 c 0.35,0.04 1.09,0.04 1.47,0.04 0.38,0 1.12,0 1.47,-0.04 v 0.31 h -0.24 c -0.77,0 -0.78,0.11 -0.78,0.47 z"
   id="path8403" />
<path
   style="fill:#000000;stroke-width:0"
   d="m 386.11,478.02 v -0.89 l 1.44,0.1 v 0.31 c -0.7,0 -0.78,0.07 -0.78,0.56 v 3.53 l -1.47,-0.11 v -0.3 c 0.7,0 0.78,-0.07 0.78,-0.56 v -1.77 c 0,-0.87 -0.48,-1.55 -1.21,-1.55 -0.83,0 -0.87,0.47 -0.87,0.99 v 3.3 l -1.47,-0.11 v -0.3 c 0.78,0 0.78,-0.03 0.78,-0.92 v -1.49 c 0,-0.78 0,-1.68 1.51,-1.68 0.56,0 1,0.27 1.29,0.89 z"
   id="path8405" />
<path
   style="fill:#000000;stroke-width:0"
   d="m 388.84,480.66 v -2.67 c 0,-0.45 -0.11,-0.45 -0.77,-0.45 v -0.31 c 0.35,0.01 0.85,0.04 1.12,0.04 0.26,0 0.78,-0.03 1.12,-0.04 v 0.31 c -0.67,0 -0.78,0 -0.78,0.45 v 1.83 c 0,1.04 0.71,1.6 1.35,1.6 0.63,0 0.74,-0.54 0.74,-1.11 v -2.32 c 0,-0.45 -0.11,-0.45 -0.78,-0.45 v -0.31 c 0.35,0.01 0.86,0.04 1.12,0.04 0.26,0 0.78,-0.03 1.12,-0.04 v 0.31 c -0.52,0 -0.77,0 -0.78,0.3 v 1.9 c 0,0.86 0,1.17 -0.31,1.53 -0.13,0.16 -0.46,0.36 -1.04,0.36 -0.73,0 -1.2,-0.42 -1.48,-1.04 v 1.04 l -1.4,-0.11 v -0.3 c 0.69,0 0.77,-0.07 0.77,-0.56 z"
   id="path8407" />
<path
   style="fill:#000000;stroke-width:0"
   d="m 394.73,481.22 h 1.42 v 0.3 h -1.42 v 1.84 h -0.25 c -0.01,-0.82 -0.31,-1.88 -1.29,-1.93 v -0.21 h 0.85 v -2.75 c 0,-1.23 0.93,-1.34 1.29,-1.34 0.7,0 0.98,0.7 0.98,1.34 v 0.57 h -0.25 v -0.55 c 0,-0.74 -0.29,-1.12 -0.66,-1.12 -0.67,0 -0.67,0.91 -0.67,1.08 z"
   id="path8409" />
<path
   style="fill:#000000;stroke-width:0"
   d="m 401.57,479.36 0,0.12 -0.01,0.12 -0.01,0.12 -0.02,0.11 -0.03,0.11 -0.03,0.11 -0.03,0.11 -0.04,0.11 -0.05,0.1 -0.04,0.1 -0.06,0.1 -0.06,0.09 -0.06,0.09 -0.06,0.09 -0.07,0.09 -0.08,0.08 -0.07,0.07 -0.08,0.08 -0.09,0.07 -0.08,0.06 -0.09,0.06 -0.09,0.06 -0.1,0.05 -0.1,0.05 -0.1,0.04 -0.1,0.04 -0.1,0.03 -0.11,0.03 -0.11,0.02 -0.11,0.01 -0.11,0.01 -0.11,0 -0.01,-0.21 c 0.44,0 0.87,-0.22 1.13,-0.65 0.26,-0.43 0.26,-1.01 0.26,-1.39 0,-0.35 0,-0.89 -0.22,-1.33 -0.22,-0.45 -0.66,-0.74 -1.16,-0.74 h 0 c -0.43,0 -0.87,0.21 -1.14,0.67 -0.25,0.44 -0.25,1.05 -0.25,1.4 0,0.39 0,0.93 0.24,1.37 0.27,0.46 0.74,0.67 1.14,0.67 l 0.01,0.21 c -1.25,0 -2.21,-1.08 -2.21,-2.33 0,-1.28 1.03,-2.23 2.2,-2.23 1.21,0 2.21,0.97 2.21,2.23 z"
   id="path8411" />
<path
   style="fill:#000000;stroke-width:0"
   d="m 408.96,477.78 v -0.65 l 1.47,0.1 v 0.31 c -0.7,0 -0.78,0.07 -0.78,0.56 v 6.04 l -1.43,-0.11 v -0.31 c 0.7,0 0.77,-0.07 0.77,-0.55 v -2.15 c -0.28,0.36 -0.71,0.61 -1.25,0.61 l 0.04,-0.21 c 0.35,0 0.77,-0.15 1.08,-0.6 0.1,-0.17 0.1,-0.19 0.1,-0.37 h 0 v -2.04 c 0,-0.18 0,-0.2 -0.1,-0.37 -0.3,-0.48 -0.75,-0.7 -1.18,-0.7 -0.45,0 -0.81,0.26 -1.05,0.64 -0.26,0.41 -0.29,0.98 -0.29,1.38 0,0.37 0.02,0.97 0.31,1.42 0.21,0.31 0.59,0.64 1.13,0.64 l -0.04,0.21 c -1.18,0 -2.22,-0.97 -2.22,-2.25 0,-1.27 0.97,-2.25 2.11,-2.25 0.64,0 1.09,0.33 1.33,0.65 z"
   id="path8413" />
<path
   style="fill:#000000;stroke-width:0"
   d="m 411.82,479.53 0.01,0.21 c 0.06,1.49 0.9,1.74 1.24,1.74 1.02,0 1.12,-1.35 1.12,-1.74 h -2.36 l -0.01,-0.21 h 2.78 c 0.22,0 0.25,0 0.25,0.21 0,0.99 -0.54,1.95 -1.78,1.95 -1.16,0 -2.08,-1.02 -2.08,-2.27 0,-1.33 1.05,-2.29 2.19,-2.29 1.22,0 1.67,1.1 1.67,1.29 0,0.1 -0.08,0.12 -0.13,0.12 -0.09,0 -0.11,-0.06 -0.13,-0.14 -0.35,-1.03 -1.25,-1.03 -1.35,-1.03 -0.49,0 -0.89,0.3 -1.12,0.67 -0.3,0.48 -0.3,1.14 -0.3,1.49 z"
   id="path8415" />
<path
   style="fill:#000000;stroke-width:0"
   d="m 374.9,467.41 -0.01,0.12 -0.01,0.12 -0.01,0.11 -0.02,0.12 -0.02,0.11 -0.03,0.11 -0.04,0.11 -0.04,0.1 -0.04,0.1 -0.05,0.1 -0.06,0.1 -0.05,0.1 -0.06,0.09 -0.07,0.09 -0.07,0.08 -0.07,0.08 -0.08,0.08 -0.08,0.07 -0.08,0.07 -0.09,0.07 -0.09,0.06 -0.09,0.06 -0.1,0.05 -0.09,0.04 -0.1,0.05 -0.11,0.03 -0.1,0.03 -0.11,0.03 -0.1,0.02 -0.11,0.02 -0.11,0.01 -0.12,0 -0.01,-0.22 c 0.44,0 0.87,-0.22 1.13,-0.65 0.26,-0.42 0.26,-1 0.26,-1.38 0,-0.36 0,-0.9 -0.22,-1.33 -0.22,-0.45 -0.66,-0.74 -1.16,-0.74 h 0 c -0.43,0 -0.86,0.21 -1.13,0.67 -0.25,0.43 -0.25,1.04 -0.25,1.4 0,0.39 0,0.93 0.24,1.36 0.27,0.46 0.73,0.67 1.13,0.67 l 0.01,0.22 c -1.24,0 -2.21,-1.09 -2.21,-2.33 0,-1.28 1.04,-2.24 2.2,-2.24 1.21,0 2.22,0.98 2.22,2.24 z"
   id="path8417" />
<path
   style="fill:#000000;stroke-width:0"
   d="m 376.9,469.03 v 3.16 l -1.44,-0.11 v -0.31 c 0.7,0 0.78,-0.07 0.78,-0.56 v -5.93 h 0.25 c 0.01,0.01 0.09,0.15 0.36,0.62 0.15,-0.23 0.57,-0.73 1.3,-0.73 l -0.04,0.22 c -0.45,0 -0.8,0.24 -1.04,0.61 -0.14,0.21 -0.14,0.23 -0.14,0.42 h 0 v 2.04 c 0,0.19 0,0.2 0.11,0.36 0.38,0.56 0.93,0.64 1.17,0.64 0.45,0 0.81,-0.26 1.05,-0.64 0.26,-0.4 0.29,-0.97 0.29,-1.38 0,-0.37 -0.02,-0.97 -0.31,-1.41 -0.21,-0.31 -0.59,-0.64 -1.13,-0.64 l 0.04,-0.22 c 1.19,0 2.23,0.98 2.23,2.26 0,1.26 -0.98,2.25 -2.12,2.25 -0.78,0 -1.2,-0.47 -1.36,-0.65 z"
   id="path8419" />
<path
   style="fill:#000000;stroke-width:0"
   d="m 382.79,467.21 0.02,0 0.03,-0.01 0.03,0 0.03,-0.01 0.03,-0.01 0.04,-0.01 0.04,-0.01 0.04,-0.01 0.04,-0.01 0.04,-0.01 0.04,-0.02 0.05,-0.02 0.04,-0.02 0.04,-0.02 0.05,-0.02 0.04,-0.02 0.04,-0.03 0.05,-0.03 0.04,-0.03 0.04,-0.03 0.04,-0.04 0.03,-0.03 0.04,-0.04 0.03,-0.05 0.03,-0.04 0.01,-0.02 0.01,-0.03 0.01,-0.02 0.01,-0.03 0.01,-0.02 0.01,-0.03 0.01,-0.03 0.01,-0.03 0,-0.03 0.01,-0.03 0,-0.03 0.01,-0.03 0,-0.03 0,-0.03 c 0,-0.51 -0.35,-0.91 -1.13,-0.91 -0.84,0 -1.19,0.57 -1.38,1.41 -0.03,0.13 -0.04,0.17 -0.14,0.17 -0.13,0 -0.13,-0.07 -0.13,-0.25 v -1.31 c 0,-0.17 0,-0.24 0.11,-0.24 0.05,0 0.06,0.01 0.24,0.2 0.02,0.02 0.02,0.04 0.21,0.23 0.43,-0.42 0.88,-0.43 1.09,-0.43 1.15,0 1.61,0.67 1.61,1.38 0,0.53 -0.3,0.83 -0.42,0.95 -0.33,0.32 -0.72,0.4 -1.14,0.48 -0.56,0.11 -1.23,0.24 -1.23,0.81 0,0.35 0.26,0.76 1.12,0.76 1.1,0 1.15,-0.9 1.17,-1.2 0.01,-0.09 0.1,-0.09 0.12,-0.09 0.13,0 0.13,0.05 0.13,0.23 v 1.01 c 0,0.17 0,0.24 -0.11,0.24 -0.05,0 -0.07,0 -0.2,-0.12 -0.03,-0.04 -0.13,-0.13 -0.17,-0.16 -0.38,0.28 -0.79,0.28 -0.94,0.28 -1.22,0 -1.59,-0.67 -1.59,-1.22 0,-0.35 0.16,-0.63 0.43,-0.85 0.31,-0.26 0.59,-0.32 1.31,-0.46 z"
   id="path8421" />
<path
   style="fill:#000000;stroke-width:0"
   d="m 385.75,467.58 0.01,0.21 c 0.06,1.48 0.9,1.73 1.24,1.73 1.03,0 1.13,-1.34 1.13,-1.73 h -2.37 l -0.01,-0.21 h 2.78 c 0.22,0 0.25,0 0.25,0.21 0,0.98 -0.54,1.95 -1.78,1.95 -1.16,0 -2.07,-1.03 -2.07,-2.27 0,-1.33 1.04,-2.3 2.19,-2.3 1.21,0 1.66,1.1 1.66,1.29 0,0.1 -0.08,0.12 -0.13,0.12 -0.09,0 -0.11,-0.06 -0.13,-0.14 -0.34,-1.02 -1.24,-1.02 -1.34,-1.02 -0.5,0 -0.9,0.3 -1.13,0.67 -0.3,0.47 -0.3,1.13 -0.3,1.49 z"
   id="path8423" />
<path
   style="fill:#000000;stroke-width:0"
   d="m 390.74,468.58 v 1.1 l -1.39,-0.11 v -0.31 c 0.7,0 0.78,-0.07 0.78,-0.56 v -2.66 c 0,-0.45 -0.11,-0.45 -0.78,-0.45 v -0.31 c 0.39,0.01 0.86,0.03 1.14,0.03 0.4,0 0.87,0 1.27,-0.03 v 0.31 h -0.21 c -0.74,0 -0.76,0.11 -0.76,0.47 v 1.53 c 0,0.98 0.42,1.87 1.17,1.87 0.08,0 0.09,0 0.12,-0.01 -0.03,-0.01 -0.23,-0.13 -0.23,-0.39 0,-0.28 0.2,-0.43 0.42,-0.43 0.18,0 0.43,0.12 0.43,0.44 0,0.32 -0.31,0.61 -0.74,0.61 -0.72,0 -1.08,-0.67 -1.22,-1.1 z"
   id="path8425" />
<path
   style="fill:#000000;stroke-width:0"
   d="m 397.12,468.59 0.01,0.03 0.01,0.02 0.01,0.02 0.01,0.03 0.01,0.02 0.01,0.03 0.02,0.03 0.01,0.02 0.02,0.03 0.01,0.03 0.02,0.03 0.02,0.02 0.02,0.03 0.02,0.03 0.02,0.02 0.03,0.03 0.02,0.02 0.03,0.03 0.03,0.02 0.03,0.03 0.04,0.02 0.03,0.02 0.04,0.02 0.04,0.01 0.04,0.02 0.05,0.02 0.05,0.01 0.05,0.01 0.05,0.01 0.02,0 0.03,0 0.03,0.01 0.03,0 0.03,0 0.03,0 v 0.31 c -0.23,-0.02 -0.52,-0.03 -0.75,-0.03 -0.24,0 -0.69,0.02 -0.86,0.03 v -0.31 c 0.36,-0.01 0.47,-0.24 0.47,-0.43 0,-0.09 -0.02,-0.13 -0.06,-0.24 l -1.01,-2.53 -1.12,2.77 c -0.06,0.13 -0.06,0.15 -0.06,0.17 0,0.26 0.39,0.26 0.57,0.26 v 0.31 c -0.3,-0.01 -0.86,-0.03 -1.09,-0.03 -0.27,0 -0.67,0.01 -0.96,0.03 v -0.31 c 0.62,0 0.66,-0.06 0.79,-0.37 l 1.44,-3.53 c 0.06,-0.14 0.08,-0.19 0.21,-0.19 0.13,0 0.17,0.09 0.21,0.19 z"
   id="path8427" />
<path
   style="fill:#000000;stroke-width:0"
   d="m 401,466.04 0,-0.04 0.01,-0.04 0,-0.04 0.01,-0.03 0.01,-0.04 0.01,-0.04 0.01,-0.03 0.02,-0.04 0.01,-0.03 0.02,-0.04 0.02,-0.03 0.02,-0.04 0.02,-0.03 0.02,-0.03 0.02,-0.03 0.02,-0.03 0.03,-0.03 0.03,-0.03 0.02,-0.02 0.03,-0.03 0.03,-0.02 0.03,-0.02 0.04,-0.02 0.03,-0.02 0.04,-0.01 0.03,-0.02 0.04,-0.01 0.04,-0.01 0.04,-0.01 0.04,-0.01 0.04,0 0.04,0 c 0.21,0 0.82,0.14 0.82,0.95 v 0.55 h -0.25 v -0.55 c 0,-0.58 -0.25,-0.64 -0.36,-0.64 -0.33,0 -0.37,0.45 -0.37,0.5 v 1.99 c 0,0.41 0,0.8 -0.35,1.17 -0.39,0.39 -0.89,0.55 -1.37,0.55 -0.82,0 -1.51,-0.47 -1.51,-1.13 0,-0.29 0.2,-0.46 0.46,-0.46 0.28,0 0.46,0.2 0.46,0.45 0,0.12 -0.05,0.45 -0.51,0.46 0.27,0.35 0.76,0.46 1.08,0.46 0.49,0 1.06,-0.39 1.06,-1.27 v -0.37 -0.21 -1 c 0,-0.94 -0.72,-1.28 -1.17,-1.28 -0.49,0 -0.9,0.35 -0.9,0.84 0,0.55 0.42,1.38 2.07,1.44 h 0 v 0.21 c -0.51,-0.03 -1.21,-0.06 -1.84,-0.36 -0.74,-0.34 -0.99,-0.86 -0.99,-1.29 0,-0.81 0.96,-1.06 1.59,-1.06 0.66,0 1.12,0.4 1.31,0.87 z"
   id="path8429" />
<path
   style="fill:#000000;stroke-width:0"
   d="m 403.82,467.45 0,0.08 0.01,0.07 0,0.07 0,0.07 0.01,0.07 0,0.07 0.01,0.06 0.01,0.06 0.01,0.07 0.01,0.06 0.01,0.05 0.01,0.06 0.03,0.11 0.03,0.1 0.03,0.1 0.04,0.09 0.04,0.09 0.04,0.08 0.04,0.07 0.05,0.07 0.05,0.07 0.05,0.06 0.05,0.05 0.05,0.05 0.06,0.05 0.05,0.04 0.06,0.04 0.05,0.03 0.06,0.03 0.06,0.03 0.05,0.02 0.06,0.02 0.06,0.02 0.05,0.01 0.05,0.01 0.06,0 0.05,0.01 0.05,0 c 0.09,0 0.72,-0.01 1.07,-0.37 -0.41,-0.03 -0.47,-0.33 -0.47,-0.46 0,-0.26 0.18,-0.45 0.46,-0.45 0.26,0 0.45,0.17 0.45,0.46 0,0.68 -0.75,1.07 -1.52,1.07 -1.25,0 -2.16,-1.08 -2.16,-2.31 0,-1.27 0.98,-2.26 2.14,-2.26 1.34,0 1.66,1.19 1.66,1.29 0,0.1 -0.1,0.1 -0.13,0.1 -0.09,0 -0.11,-0.04 -0.13,-0.1 -0.29,-0.92 -0.94,-1.04 -1.31,-1.04 -0.53,0 -1.41,0.43 -1.41,2.03 z"
   id="path8431" />
<path
   style="fill:#000000;stroke-width:0"
   d="m 408.86,469.68 -1.4,-0.11 v -0.31 c 0.65,0 0.74,-0.06 0.74,-0.55 v -2.67 c 0,-0.45 -0.11,-0.45 -0.78,-0.45 v -0.31 c 0.32,0.01 0.86,0.03 1.1,0.03 0.35,0 0.7,-0.02 1.04,-0.03 v 0.31 c -0.66,0 -0.7,0.05 -0.7,0.44 z"
   id="path8433" />
<path
   style="fill:#000000;stroke-width:0"
   d="m 408.9,471.41 0,0.03 0,0.03 -0.01,0.03 0,0.02 -0.01,0.03 0,0.03 -0.01,0.02 -0.01,0.03 -0.01,0.02 -0.02,0.02 -0.01,0.03 -0.01,0.02 -0.02,0.02 -0.02,0.02 -0.01,0.02 -0.02,0.01 -0.02,0.02 -0.02,0.02 -0.02,0.01 -0.02,0.02 -0.02,0.01 -0.02,0.01 -0.03,0.01 -0.02,0.01 -0.02,0.01 -0.03,0.01 -0.02,0 -0.03,0.01 -0.02,0 -0.03,0.01 -0.02,0 -0.03,0 c -0.31,0 -0.53,-0.27 -0.53,-0.53 0,-0.27 0.22,-0.53 0.53,-0.53 0.28,0 0.53,0.21 0.53,0.53 z"
   id="path8435" />
<path
   style="fill:#000000;stroke-width:0"
   d="m 413.59,471.57 0.02,0.01 0.01,0.02 0.02,0.01 0.02,0.02 0.01,0.02 0.01,0 0,0.01 0.01,0.01 0.01,0.01 0,0.01 0.01,0.01 0.01,0.01 0,0.01 0.01,0.01 0,0.01 0.01,0.01 0,0.01 0,0.01 0.01,0.01 0,0.01 0,0.01 0.01,0.01 0,0.01 0,0.01 0,0.02 0,0.01 0,0.01 c 0,0.18 -0.18,0.36 -0.36,0.36 -0.15,0 -0.26,-0.11 -0.3,-0.17 l -1.19,-1.52 0.17,-0.18 z"
   id="path8437" />
<path
   style="fill:#000000;stroke-width:0"
   d="m 414.55,467.41 0,0.12 -0.01,0.12 -0.02,0.11 -0.02,0.12 -0.02,0.11 -0.03,0.11 -0.04,0.11 -0.04,0.1 -0.04,0.1 -0.05,0.1 -0.05,0.1 -0.06,0.1 -0.06,0.09 -0.07,0.09 -0.07,0.08 -0.07,0.08 -0.08,0.08 -0.08,0.07 -0.08,0.07 -0.09,0.07 -0.09,0.06 -0.09,0.06 -0.09,0.05 -0.1,0.04 -0.1,0.05 -0.1,0.03 -0.11,0.03 -0.1,0.03 -0.11,0.02 -0.11,0.02 -0.11,0.01 -0.11,0 -0.02,-0.22 c 0.44,0 0.87,-0.22 1.13,-0.65 0.26,-0.42 0.26,-1 0.26,-1.38 0,-0.36 0,-0.9 -0.22,-1.33 -0.22,-0.45 -0.66,-0.74 -1.15,-0.74 h 0 c -0.43,0 -0.87,0.21 -1.14,0.67 -0.25,0.43 -0.25,1.04 -0.25,1.4 0,0.39 0,0.93 0.24,1.36 0.27,0.46 0.74,0.67 1.13,0.67 l 0.02,0.22 c -1.25,0 -2.22,-1.09 -2.22,-2.33 0,-1.28 1.04,-2.24 2.2,-2.24 1.21,0 2.22,0.98 2.22,2.24 z"
   id="path8439" />
<path
   style="fill:#000000;stroke-width:0"
   d="m 415.93,468.7 v -2.66 c 0,-0.45 -0.11,-0.45 -0.78,-0.45 v -0.31 c 0.35,0.01 0.86,0.03 1.13,0.03 0.26,0 0.78,-0.02 1.12,-0.03 v 0.31 c -0.67,0 -0.78,0 -0.78,0.45 v 1.83 c 0,1.03 0.71,1.59 1.34,1.59 0.63,0 0.74,-0.54 0.74,-1.1 v -2.32 c 0,-0.45 -0.11,-0.45 -0.78,-0.45 v -0.31 c 0.35,0.01 0.86,0.03 1.13,0.03 0.26,0 0.78,-0.02 1.12,-0.03 v 0.31 c -0.52,0 -0.77,0 -0.78,0.3 v 1.9 c 0,0.85 0,1.16 -0.31,1.52 -0.14,0.17 -0.47,0.37 -1.05,0.37 -0.72,0 -1.19,-0.43 -1.47,-1.05 v 1.05 l -1.41,-0.11 v -0.31 c 0.7,0 0.78,-0.07 0.78,-0.56 z"
   id="path8441" />
<path
   style="fill:#000000;stroke-width:0"
   d="m 382.28,450.94 0,0 0,0.01 0,0 0,0 0,0.01 0,0 0,0 0,0.01 0,0 -0.01,0 0,0.01 0,0 -0.01,0.01 0,0 0,0.01 -0.01,0.01 0,0 -0.01,0.01 0,0 -0.01,0.01 0,0 0,0.01 -0.01,0 0,0 -0.01,0.01 0,0 0,0.01 -0.01,0 0,0.01 -0.01,0 0,0.01 -0.01,0.01 -0.01,0 0,0.01 -0.01,0 0,0.01 -0.01,0.01 -0.01,0.01 -0.01,0 0,0.01 -0.01,0.01 -0.01,0 c -1.24,1.26 -1.56,3.14 -1.56,4.66 0,1.74 0.38,3.47 1.6,4.71 0.13,0.12 0.13,0.14 0.13,0.17 0,0.07 -0.04,0.1 -0.1,0.1 -0.1,0 -1,-0.68 -1.58,-1.94 -0.51,-1.1 -0.63,-2.2 -0.63,-3.04 0,-0.77 0.11,-1.98 0.66,-3.1 0.6,-1.23 1.45,-1.87 1.55,-1.87 0.06,0 0.1,0.03 0.1,0.1 z"
   id="path8443" />
<path
   style="fill:#000000;stroke-width:0"
   d="m 386.18,456.33 0.01,0.03 0.01,0.03 0.01,0.03 0.01,0.04 0.01,0.03 0.01,0.05 0.01,0.04 0.02,0.04 0.01,0.05 0.02,0.05 0.02,0.05 0.02,0.05 0.02,0.05 0.03,0.05 0.02,0.05 0.03,0.04 0.03,0.05 0.03,0.05 0.03,0.05 0.04,0.04 0.04,0.04 0.04,0.04 0.04,0.04 0.04,0.04 0.05,0.03 0.05,0.03 0.02,0.01 0.03,0.01 0.02,0.02 0.03,0.01 0.03,0 0.03,0.01 0.03,0.01 0.03,0 0.03,0.01 0.03,0 0.03,0 0.03,0.01 c 0.05,0 0.29,0 0.5,-0.13 -0.28,-0.05 -0.48,-0.3 -0.48,-0.54 0,-0.16 0.11,-0.35 0.38,-0.35 0.22,0 0.54,0.18 0.54,0.58 0,0.51 -0.59,0.65 -0.93,0.65 -0.58,0 -0.92,-0.52 -1.04,-0.75 -0.25,0.66 -0.79,0.75 -1.08,0.75 -1.04,0 -1.61,-1.28 -1.61,-1.53 0,-0.1 0.1,-0.1 0.12,-0.1 0.08,0 0.11,0.02 0.13,0.11 0.34,1.06 1,1.31 1.34,1.31 0.19,0 0.54,-0.09 0.54,-0.67 0,-0.31 -0.17,-0.98 -0.54,-2.37 -0.16,-0.62 -0.51,-1.04 -0.95,-1.04 -0.06,0 -0.29,0 -0.5,0.13 0.25,0.05 0.47,0.26 0.47,0.54 0,0.27 -0.22,0.35 -0.37,0.35 -0.3,0 -0.55,-0.26 -0.55,-0.58 0,-0.45 0.5,-0.65 0.94,-0.65 0.66,0 1.02,0.69 1.05,0.75 0.12,-0.37 0.48,-0.75 1.07,-0.75 1.03,0 1.6,1.28 1.6,1.53 0,0.1 -0.09,0.1 -0.12,0.1 -0.09,0 -0.11,-0.04 -0.13,-0.11 -0.33,-1.07 -1.01,-1.31 -1.32,-1.31 -0.39,0 -0.55,0.32 -0.55,0.66 0,0.22 0.06,0.44 0.17,0.88 z"
   id="path8445" />
<path
   style="fill:#000000;stroke-width:0"
   d="m 390.57,453.33 0,0.07 0,0.05 0,0.06 -0.01,0.06 0,0.05 -0.01,0.06 -0.01,0.05 -0.01,0.05 -0.01,0.04 -0.02,0.05 -0.01,0.04 -0.02,0.04 -0.01,0.04 -0.02,0.04 -0.02,0.04 -0.02,0.03 -0.02,0.04 -0.02,0.03 -0.03,0.03 -0.02,0.02 -0.03,0.03 -0.02,0.02 -0.03,0.02 -0.03,0.02 -0.03,0.02 -0.03,0.01 -0.03,0.01 -0.04,0.01 -0.03,0.01 -0.03,0.01 -0.04,0 -0.04,0 c -0.32,0 -0.52,-0.25 -0.52,-0.53 0,-0.27 0.2,-0.52 0.52,-0.52 0.12,0 0.25,0.03 0.35,0.12 0.03,0.02 0.04,0.03 0.05,0.03 0.01,0 0.02,-0.01 0.02,-0.15 0,-0.73 -0.34,-1.33 -0.67,-1.66 -0.11,-0.11 -0.11,-0.13 -0.11,-0.16 0,-0.07 0.05,-0.11 0.1,-0.11 0.11,0 0.9,0.77 0.9,1.93 z"
   id="path8447" />
<path
   style="fill:#000000;stroke-width:0"
   d="m 397.83,457.12 0,0 0,0.01 0,0.01 0,0 0.01,0.01 0,0.01 0,0.01 0,0.01 0.01,0.01 0,0.01 0,0.01 0,0.01 0,0.01 0.01,0 0,0.01 0,0.01 0,0 0,0.01 0,0 0,0.01 0,0.01 0,0.01 0,0.01 0,0.01 0,0.01 0,0.01 0,0 0,0.01 0,0.01 c 0,0.17 -0.13,0.26 -0.28,0.26 -0.1,0 -0.26,-0.06 -0.35,-0.21 -0.02,-0.04 -0.1,-0.35 -0.14,-0.53 -0.07,-0.26 -0.14,-0.53 -0.2,-0.8 l -0.45,-1.79 c -0.04,-0.15 -0.47,-0.85 -1.13,-0.85 -0.51,0 -0.61,0.44 -0.61,0.81 0,0.46 0.16,1.08 0.5,1.95 0.16,0.41 0.2,0.52 0.2,0.72 0,0.45 -0.32,0.81 -0.81,0.81 -0.95,0 -1.32,-1.44 -1.32,-1.53 0,-0.1 0.1,-0.1 0.12,-0.1 0.1,0 0.11,0.02 0.16,0.18 0.27,0.94 0.67,1.24 1.01,1.24 0.08,0 0.24,0 0.24,-0.32 0,-0.25 -0.09,-0.51 -0.16,-0.7 -0.4,-1.06 -0.58,-1.62 -0.58,-2.09 0,-0.89 0.63,-1.18 1.21,-1.18 0.39,0 0.73,0.17 1.01,0.44 -0.13,-0.51 -0.25,-1 -0.65,-1.53 -0.26,-0.34 -0.64,-0.63 -1.09,-0.63 -0.14,0 -0.59,0.03 -0.76,0.42 0.16,0 0.29,0 0.43,0.12 0.1,0.09 0.2,0.22 0.2,0.41 0,0.31 -0.27,0.35 -0.37,0.35 -0.23,0 -0.56,-0.16 -0.56,-0.65 0,-0.5 0.44,-0.86 1.06,-0.86 1.02,0 2.05,0.9 2.33,2.03 z"
   id="path8449" />
<path
   style="fill:#000000;stroke-width:0"
   d="m 400.25,453.33 0,0.07 0,0.05 -0.01,0.06 0,0.06 -0.01,0.05 -0.01,0.06 -0.01,0.05 -0.01,0.05 -0.01,0.04 -0.01,0.05 -0.02,0.04 -0.01,0.04 -0.02,0.04 -0.02,0.04 -0.01,0.04 -0.03,0.03 -0.02,0.04 -0.02,0.03 -0.02,0.03 -0.03,0.02 -0.02,0.03 -0.03,0.02 -0.03,0.02 -0.03,0.02 -0.03,0.02 -0.03,0.01 -0.03,0.01 -0.03,0.01 -0.03,0.01 -0.04,0.01 -0.03,0 -0.04,0 c -0.33,0 -0.53,-0.25 -0.53,-0.53 0,-0.27 0.2,-0.52 0.53,-0.52 0.12,0 0.25,0.03 0.35,0.12 0.03,0.02 0.04,0.03 0.05,0.03 0.01,0 0.02,-0.01 0.02,-0.15 0,-0.73 -0.35,-1.33 -0.68,-1.66 -0.11,-0.11 -0.11,-0.13 -0.11,-0.16 0,-0.07 0.05,-0.11 0.1,-0.11 0.11,0 0.91,0.77 0.91,1.93 z"
   id="path8451" />
<path
   style="fill:#000000;stroke-width:0"
   d="m 403.97,454.15 0.05,0.05 0.05,0.06 0.05,0.04 0.04,0.05 0.05,0.05 0.04,0.04 0.04,0.05 0.04,0.04 0.04,0.04 0.04,0.04 0.04,0.04 0.04,0.03 0.04,0.04 0.03,0.03 0.07,0.07 0.07,0.06 0.07,0.06 0.06,0.06 0.07,0.06 0.13,0.11 0.06,0.06 0.07,0.06 c 0,0.01 0.62,0.53 0.98,0.89 0.94,0.93 1.16,1.4 1.16,1.45 0,0.09 -0.09,0.09 -0.11,0.09 -0.07,0 -0.1,-0.02 -0.15,-0.11 -0.3,-0.47 -0.51,-0.63 -0.75,-0.63 -0.24,0 -0.36,0.15 -0.5,0.32 -0.19,0.22 -0.36,0.42 -0.69,0.42 -0.75,0 -1.21,-0.92 -1.21,-1.13 0,-0.05 0.03,-0.11 0.12,-0.11 0.09,0 0.11,0.05 0.13,0.11 0.19,0.46 0.77,0.47 0.85,0.47 0.21,0 0.4,-0.07 0.63,-0.15 0.4,-0.15 0.51,-0.15 0.76,-0.15 -0.36,-0.43 -1.19,-1.15 -1.38,-1.31 l -0.9,-0.83 c -0.68,-0.67 -1.03,-1.23 -1.03,-1.3 0,-0.1 0.1,-0.1 0.12,-0.1 0.08,0 0.1,0.01 0.16,0.13 0.23,0.34 0.53,0.61 0.85,0.61 0.23,0 0.33,-0.09 0.58,-0.38 0.17,-0.2 0.35,-0.36 0.64,-0.36 0.98,0 1.56,1.26 1.56,1.53 0,0.05 -0.04,0.1 -0.12,0.1 -0.09,0 -0.11,-0.06 -0.14,-0.13 -0.23,-0.65 -0.86,-0.84 -1.19,-0.84 -0.2,0 -0.38,0.06 -0.59,0.13 -0.34,0.13 -0.49,0.17 -0.7,0.17 -0.02,0 -0.18,0 -0.27,-0.03 z"
   id="path8453" />
<path
   style="fill:#000000;stroke-width:0"
   d="m 410.6,455.81 0,0.08 0,0.07 0,0.08 -0.01,0.08 0,0.17 -0.02,0.18 -0.01,0.18 -0.02,0.19 -0.03,0.2 -0.03,0.19 -0.04,0.21 -0.05,0.21 -0.05,0.21 -0.06,0.21 -0.07,0.21 -0.08,0.21 -0.05,0.11 -0.04,0.11 -0.05,0.1 -0.05,0.11 c -0.6,1.22 -1.45,1.87 -1.55,1.87 -0.06,0 -0.1,-0.04 -0.1,-0.1 0,-0.03 0,-0.05 0.19,-0.23 0.97,-0.98 1.54,-2.57 1.54,-4.65 0,-1.7 -0.37,-3.45 -1.6,-4.7 -0.13,-0.12 -0.13,-0.14 -0.13,-0.17 0,-0.06 0.04,-0.1 0.1,-0.1 0.1,0 0.99,0.67 1.58,1.94 0.51,1.09 0.63,2.2 0.63,3.03 z"
   id="path8455" />
</g>    <path
       sodipodi:nodetypes="cccc"
       id="path13771"
       d="m 134.04409,200.72449 87.93791,-121.521 105.716,-23.052 -193.65391,144.573 z"
       style="fill:none;stroke:#000000;stroke-width:2.12598419;stroke-linecap:butt;stroke-linejoin:miter;stroke-miterlimit:4;stroke-opacity:1;stroke-dasharray:none" />
  </g>
</svg>
