<?xml version="1.0" encoding="UTF-8" standalone="no"?>
<!-- Created with Inkscape (http://www.inkscape.org/) -->

<svg
   xmlns:ns0="http://www.iki.fi/pav/software/textext/"
   xmlns:dc="http://purl.org/dc/elements/1.1/"
   xmlns:cc="http://creativecommons.org/ns#"
   xmlns:rdf="http://www.w3.org/1999/02/22-rdf-syntax-ns#"
   xmlns:svg="http://www.w3.org/2000/svg"
   xmlns="http://www.w3.org/2000/svg"
   xmlns:sodipodi="http://sodipodi.sourceforge.net/DTD/sodipodi-0.dtd"
   xmlns:inkscape="http://www.inkscape.org/namespaces/inkscape"
   width="201.91901"
   height="232.02599"
   id="svg2"
   version="1.1"
   inkscape:version="0.47 r22583"
   sodipodi:docname="principios_7.svg">
  <sodipodi:namedview
     id="base"
     pagecolor="#ffffff"
     bordercolor="#666666"
     borderopacity="1.0"
     inkscape:pageopacity="0.0"
     inkscape:pageshadow="2"
     inkscape:zoom="4"
     inkscape:cx="131.49834"
     inkscape:cy="115.15725"
     inkscape:document-units="px"
     inkscape:current-layer="layer1"
     showgrid="false"
     inkscape:window-width="1366"
     inkscape:window-height="708"
     inkscape:window-x="-4"
     inkscape:window-y="-4"
     inkscape:window-maximized="1"
     inkscape:object-paths="true"
     inkscape:snap-intersection-paths="false"
     inkscape:object-nodes="false" />
  <defs
     id="defs4">
    <inkscape:perspective
       id="perspective10"
       inkscape:persp3d-origin="372.04724 : 350.78739 : 1"
       inkscape:vp_z="744.09448 : 526.18109 : 1"
       inkscape:vp_y="0 : 1000 : 0"
       inkscape:vp_x="0 : 526.18109 : 1"
       sodipodi:type="inkscape:persp3d" />
    <inkscape:perspective
       sodipodi:type="inkscape:persp3d"
       inkscape:vp_x="0 : 0.5 : 1"
       inkscape:vp_y="0 : 1000 : 0"
       inkscape:vp_z="1 : 0.5 : 1"
       inkscape:persp3d-origin="0.5 : 0.33333333 : 1"
       id="perspective2824" />
    <inkscape:perspective
       sodipodi:type="inkscape:persp3d"
       inkscape:vp_x="0 : 0.5 : 1"
       inkscape:vp_y="0 : 1000 : 0"
       inkscape:vp_z="1 : 0.5 : 1"
       inkscape:persp3d-origin="0.5 : 0.33333333 : 1"
       id="perspective4073" />
  </defs>
  <metadata
     id="metadata7">
    <rdf:RDF>
      <cc:Work
         rdf:about="">
        <dc:format>image/svg+xml</dc:format>
        <dc:type
           rdf:resource="http://purl.org/dc/dcmitype/StillImage" />
        <dc:title />
      </cc:Work>
    </rdf:RDF>
  </metadata>
  <g
     transform="translate(-274.76139,-394.34919)"
     id="layer1"
     inkscape:groupmode="layer"
     inkscape:label="Capa 1">
    <g
       id="g4375">
      <path
         style="fill:#000000;fill-opacity:0.17254902;stroke:#000000;stroke-width:0.78307086;stroke-linecap:butt;stroke-linejoin:miter;stroke-miterlimit:4;stroke-opacity:1;stroke-dasharray:none"
         d="m 332.8072,436.66923 c -25.42188,20.1422 -37.76601,45.62779 -37.93281,73.75156 0.1668,28.12378 12.51093,53.60936 37.93281,73.75157 l 35.87031,-73.75157 -35.87031,-73.75156 z"
         id="path4091" />
      <path
         style="fill:none;stroke:#000000;stroke-width:2.12598419;stroke-linecap:butt;stroke-linejoin:miter;stroke-miterlimit:4;stroke-opacity:1;stroke-dasharray:none"
         d="m 275.83199,510.36218 c -0.39046,-40.89192 14.28452,-80.68716 35.86,-114.95 m -35.86,114.95 c -0.39046,40.89192 14.28452,80.68716 35.86,114.95"
         id="path3694" />
      <path
         style="fill:#000000;fill-opacity:0;fill-rule:evenodd;stroke:#000000;stroke-width:0.78307086;stroke-linecap:butt;stroke-linejoin:miter;stroke-miterlimit:10;stroke-opacity:1;stroke-dasharray:4.69842517, 4.69842517;stroke-dashoffset:0"
         d="m 442.47273,510.41871 c 0,41.69746 -33.04208,73.80103 -73.80154,73.80103 -40.75949,0 -73.80147,-32.10357 -73.80147,-73.80103 0,-41.69745 33.04198,-73.80199 73.80147,-73.80199 40.75946,0 73.80154,32.10454 73.80154,73.80199 z"
         id="path3251"
         sodipodi:nodetypes="csssc" />
      <path
         sodipodi:nodetypes="csssc"
         id="path4087"
         d="m 418.04235,510.4185 c 0,27.89448 -22.10422,49.37086 -49.37116,49.37086 -27.26694,0 -49.37109,-21.47638 -49.37109,-49.37086 0,-27.89436 22.10415,-49.37141 49.37109,-49.37141 27.26694,0 49.37116,21.47705 49.37116,49.37141 z"
         style="fill:#000000;fill-opacity:0;fill-rule:evenodd;stroke:#000000;stroke-width:0.78307086;stroke-linecap:butt;stroke-linejoin:miter;stroke-miterlimit:10;stroke-opacity:1;stroke-dasharray:4.69842517, 4.69842517;stroke-dashoffset:0" />
      <path
         style="fill:#000000;fill-opacity:0;fill-rule:evenodd;stroke:#000000;stroke-width:0.78307086;stroke-linecap:butt;stroke-linejoin:miter;stroke-miterlimit:10;stroke-opacity:1;stroke-dasharray:4.69842517, 4.69842517;stroke-dashoffset:0"
         d="m 393.598,510.4185 c 0,14.08339 -11.1601,24.92651 -24.92681,24.92651 -13.76668,0 -24.92674,-10.84312 -24.92674,-24.92651 0,-14.08361 11.16006,-24.92705 24.92674,-24.92705 13.76671,0 24.92681,10.84344 24.92681,24.92705 z"
         id="path4089"
         sodipodi:nodetypes="csssc" />
      <g
         style="font-style:normal;font-variant:normal;font-weight:normal;font-stretch:normal;letter-spacing:normal;word-spacing:normal;text-anchor:start;fill:none;stroke:#000000;stroke-linecap:butt;stroke-linejoin:miter;stroke-miterlimit:10.43299961;stroke-opacity:1;stroke-dasharray:none;stroke-dashoffset:0"
         id="content"
         transform="matrix(1.35,0,0,-1.35,147.60439,1159.2025)"
         xml:space="preserve"
         stroke-miterlimit="10.433"
         font-style="normal"
         font-variant="normal"
         font-weight="normal"
         font-stretch="normal"
         font-size-adjust="none"
         letter-spacing="normal"
         word-spacing="normal"
         ns0:text="0 dB"
         ns0:preamble="E:\\preamble.tex">
<path
   style="fill:#000000;stroke-width:0"
   d="m 228.02,480.42 0,0.15 -0.01,0.15 0,0.15 -0.01,0.15 -0.01,0.14 -0.01,0.15 -0.01,0.15 -0.02,0.15 -0.02,0.14 -0.03,0.15 -0.03,0.14 -0.04,0.15 -0.04,0.14 -0.05,0.14 -0.06,0.14 -0.03,0.07 -0.03,0.07 c -0.46,0.95 -1.28,1.11 -1.7,1.11 -0.59,0 -1.32,-0.25 -1.73,-1.18 -0.32,-0.69 -0.37,-1.46 -0.37,-2.26 0,-0.75 0.04,-1.64 0.45,-2.4 0.43,-0.81 1.16,-1 1.64,-1 v 0.21 c -0.39,0 -0.97,0.25 -1.15,1.21 -0.11,0.6 -0.11,1.51 -0.11,2.1 0,0.64 0,1.29 0.08,1.83 0.19,1.18 0.93,1.27 1.18,1.27 0.33,0 0.99,-0.18 1.18,-1.16 0.1,-0.56 0.1,-1.31 0.1,-1.94 0,-0.75 0,-1.42 -0.11,-2.06 -0.15,-0.95 -0.72,-1.25 -1.17,-1.25 h 0 v -0.21 c 0.54,0 1.3,0.21 1.74,1.15 0.32,0.69 0.37,1.46 0.37,2.25 z"
   id="path4317" />
<path
   style="fill:#000000;stroke-width:0"
   d="m 235.52,477.78 v -0.65 l 1.46,0.1 v 0.31 c -0.69,0 -0.77,0.07 -0.77,0.56 v 6.04 l -1.44,-0.11 v -0.31 c 0.7,0 0.78,-0.07 0.78,-0.55 v -2.15 c -0.29,0.36 -0.72,0.61 -1.26,0.61 l 0.04,-0.21 c 0.35,0 0.77,-0.15 1.08,-0.6 0.11,-0.17 0.11,-0.19 0.11,-0.37 h 0 v -2.04 c 0,-0.18 0,-0.2 -0.11,-0.37 -0.3,-0.48 -0.75,-0.7 -1.18,-0.7 -0.45,0 -0.8,0.26 -1.04,0.64 -0.26,0.41 -0.29,0.98 -0.29,1.38 0,0.37 0.02,0.97 0.31,1.42 0.21,0.31 0.58,0.64 1.12,0.64 l -0.04,0.21 c -1.17,0 -2.22,-0.97 -2.22,-2.25 0,-1.27 0.98,-2.25 2.11,-2.25 0.64,0 1.09,0.33 1.34,0.65 z"
   id="path4319" />
<path
   style="fill:#000000;stroke-width:0"
   d="m 241.83,480.79 0.09,0.02 0.09,0.02 0.09,0.02 0.08,0.03 0.08,0.03 0.08,0.03 0.08,0.03 0.08,0.04 0.07,0.04 0.07,0.04 0.07,0.04 0.07,0.04 0.06,0.05 0.07,0.04 0.05,0.05 0.06,0.05 0.05,0.06 0.06,0.05 0.04,0.06 0.05,0.05 0.04,0.06 0.04,0.06 0.03,0.06 0.03,0.06 0.03,0.07 0.03,0.06 0.02,0.06 0.01,0.07 0.02,0.07 0.01,0.06 0,0.07 0.01,0.07 c 0,0.87 -0.92,1.68 -2.22,1.68 l -0.07,-0.31 c 0.97,0 1.32,-0.84 1.32,-1.37 0,-0.64 -0.49,-1.47 -1.6,-1.47 h -1.44 v -0.22 h 1.87 c 0.99,0 1.41,-0.93 1.41,-1.59 0,-0.71 -0.52,-1.53 -1.55,-1.53 h 0 -1.24 c -0.47,0 -0.49,0.07 -0.49,0.4 v 2.72 0.22 2.45 c 0,0.32 0.02,0.39 0.49,0.39 h 1.23 l 0.07,0.31 h -3.64 v -0.31 h 0.23 c 0.77,0 0.79,-0.11 0.79,-0.46 v -5.25 c 0,-0.36 -0.02,-0.47 -0.79,-0.47 h -0.23 v -0.31 h 3.9 c 1.33,0 2.23,0.89 2.23,1.83 0,0.86 -0.82,1.61 -1.93,1.73 z"
   id="path4321" />
</g>    </g>
  </g>
</svg>
