<?xml version="1.0" encoding="UTF-8" standalone="no"?>
<!-- Created with Inkscape (http://www.inkscape.org/) -->

<svg
   xmlns:ns0="http://www.iki.fi/pav/software/textext/"
   xmlns:dc="http://purl.org/dc/elements/1.1/"
   xmlns:cc="http://creativecommons.org/ns#"
   xmlns:rdf="http://www.w3.org/1999/02/22-rdf-syntax-ns#"
   xmlns:svg="http://www.w3.org/2000/svg"
   xmlns="http://www.w3.org/2000/svg"
   xmlns:sodipodi="http://sodipodi.sourceforge.net/DTD/sodipodi-0.dtd"
   xmlns:inkscape="http://www.inkscape.org/namespaces/inkscape"
   id="svg2816"
   version="1.1"
   inkscape:version="0.47 r22583"
   width="467.80518"
   height="310.74841"
   sodipodi:docname="principios_6.svg">
  <sodipodi:namedview
     pagecolor="#ffffff"
     bordercolor="#666666"
     borderopacity="1"
     objecttolerance="10"
     gridtolerance="10"
     guidetolerance="10"
     inkscape:pageopacity="0"
     inkscape:pageshadow="2"
     inkscape:window-width="1366"
     inkscape:window-height="708"
     id="namedview2818"
     showgrid="false"
     inkscape:zoom="1.4142136"
     inkscape:cx="56.42531"
     inkscape:cy="123.15423"
     inkscape:window-x="-4"
     inkscape:window-y="-4"
     inkscape:window-maximized="1"
     inkscape:current-layer="svg2816"
     inkscape:snap-midpoints="false"
     inkscape:snap-bbox="false"
     inkscape:bbox-nodes="false"
     inkscape:snap-bbox-edge-midpoints="false"
     inkscape:snap-bbox-midpoints="false"
     inkscape:snap-global="true"
     inkscape:object-nodes="false"
     inkscape:snap-smooth-nodes="false"
     inkscape:snap-nodes="true"
     inkscape:object-paths="true"
     inkscape:snap-page="false"
     inkscape:snap-grids="true"
     inkscape:snap-to-guides="true"
     units="mm"
     inkscape:snap-intersection-paths="false"
     showguides="true"
     inkscape:guide-bbox="true" />
  <metadata
     id="metadata2822">
    <rdf:RDF>
      <cc:Work
         rdf:about="">
        <dc:format>image/svg+xml</dc:format>
        <dc:type
           rdf:resource="http://purl.org/dc/dcmitype/StillImage" />
        <dc:title />
      </cc:Work>
    </rdf:RDF>
  </metadata>
  <defs
     id="defs2820">
    <marker
       inkscape:stockid="Arrow2Lstart"
       orient="auto"
       refY="0"
       refX="0"
       id="Arrow2Lstart"
       style="overflow:visible">
      <path
         id="path6193"
         style="font-size:12px;fill-rule:evenodd;stroke-width:0.625;stroke-linejoin:round"
         d="M 8.7185878,4.0337352 -2.2072895,0.01601326 8.7185884,-4.0017078 c -1.7454984,2.3720609 -1.7354408,5.6174519 -6e-7,8.035443 z"
         transform="matrix(1.1,0,0,1.1,1.1,0)" />
    </marker>
    <marker
       inkscape:stockid="Arrow2Mstart"
       orient="auto"
       refY="0"
       refX="0"
       id="Arrow2Mstart"
       style="overflow:visible">
      <path
         id="path6199"
         style="font-size:12px;fill-rule:evenodd;stroke-width:0.625;stroke-linejoin:round"
         d="M 8.7185878,4.0337352 -2.2072895,0.01601326 8.7185884,-4.0017078 c -1.7454984,2.3720609 -1.7354408,5.6174519 -6e-7,8.035443 z"
         transform="scale(0.6,0.6)" />
    </marker>
    <inkscape:perspective
       sodipodi:type="inkscape:persp3d"
       inkscape:vp_x="0 : 0.5 : 1"
       inkscape:vp_y="0 : 1000 : 0"
       inkscape:vp_z="1 : 0.5 : 1"
       inkscape:persp3d-origin="0.5 : 0.33333333 : 1"
       id="perspective2824" />
    <inkscape:perspective
       id="perspective5137"
       inkscape:persp3d-origin="0.5 : 0.33333333 : 1"
       inkscape:vp_z="1 : 0.5 : 1"
       inkscape:vp_y="0 : 1000 : 0"
       inkscape:vp_x="0 : 0.5 : 1"
       sodipodi:type="inkscape:persp3d" />
    <inkscape:perspective
       sodipodi:type="inkscape:persp3d"
       inkscape:vp_x="0 : 0.5 : 1"
       inkscape:vp_y="0 : 1000 : 0"
       inkscape:vp_z="1 : 0.5 : 1"
       inkscape:persp3d-origin="0.5 : 0.33333333 : 1"
       id="perspective6374" />
    <marker
       style="overflow:visible"
       id="Arrow2Lend"
       refX="0"
       refY="0"
       orient="auto"
       inkscape:stockid="Arrow2Lend">
      <path
         transform="matrix(-1.1,0,0,-1.1,-1.1,0)"
         d="M 8.7185878,4.0337352 -2.2072895,0.01601326 8.7185884,-4.0017078 c -1.7454984,2.3720609 -1.7354408,5.6174519 -6e-7,8.035443 z"
         style="font-size:12px;fill-rule:evenodd;stroke-width:0.625;stroke-linejoin:round"
         id="path4374" />
    </marker>
    <inkscape:perspective
       sodipodi:type="inkscape:persp3d"
       inkscape:vp_x="0 : 0.5 : 1"
       inkscape:vp_y="0 : 1000 : 0"
       inkscape:vp_z="1 : 0.5 : 1"
       inkscape:persp3d-origin="0.5 : 0.33333333 : 1"
       id="perspective6402" />
    <marker
       style="overflow:visible"
       id="Arrow2Lend-1"
       refX="0"
       refY="0"
       orient="auto"
       inkscape:stockid="Arrow2Lend">
      <path
         transform="matrix(-1.1,0,0,-1.1,-1.1,0)"
         d="M 8.7185878,4.0337352 -2.2072895,0.01601326 8.7185884,-4.0017078 c -1.7454984,2.3720609 -1.7354408,5.6174519 -6e-7,8.035443 z"
         style="font-size:12px;fill-rule:evenodd;stroke-width:0.625;stroke-linejoin:round"
         id="path4374-7" />
    </marker>
    <inkscape:perspective
       id="perspective6474"
       inkscape:persp3d-origin="0.5 : 0.33333333 : 1"
       inkscape:vp_z="1 : 0.5 : 1"
       inkscape:vp_y="0 : 1000 : 0"
       inkscape:vp_x="0 : 0.5 : 1"
       sodipodi:type="inkscape:persp3d" />
    <inkscape:perspective
       id="perspective6496"
       inkscape:persp3d-origin="0.5 : 0.33333333 : 1"
       inkscape:vp_z="1 : 0.5 : 1"
       inkscape:vp_y="0 : 1000 : 0"
       inkscape:vp_x="0 : 0.5 : 1"
       sodipodi:type="inkscape:persp3d" />
    <marker
       style="overflow:visible"
       id="Arrow2Mend"
       refX="0"
       refY="0"
       orient="auto"
       inkscape:stockid="Arrow2Mend">
      <path
         transform="scale(-0.6,-0.6)"
         d="M 8.7185878,4.0337352 -2.2072895,0.01601326 8.7185884,-4.0017078 c -1.7454984,2.3720609 -1.7354408,5.6174519 -6e-7,8.035443 z"
         style="font-size:12px;fill-rule:evenodd;stroke-width:0.625;stroke-linejoin:round"
         id="path4108" />
    </marker>
    <inkscape:perspective
       id="perspective8096"
       inkscape:persp3d-origin="0.5 : 0.33333333 : 1"
       inkscape:vp_z="1 : 0.5 : 1"
       inkscape:vp_y="0 : 1000 : 0"
       inkscape:vp_x="0 : 0.5 : 1"
       sodipodi:type="inkscape:persp3d" />
    <marker
       style="overflow:visible"
       id="Arrow2Mend-21-24"
       refX="0"
       refY="0"
       orient="auto"
       inkscape:stockid="Arrow2Mend">
      <path
         transform="scale(-0.6,-0.6)"
         d="M 8.7185878,4.0337352 -2.2072895,0.01601326 8.7185884,-4.0017078 c -1.7454984,2.3720609 -1.7354408,5.6174519 -6e-7,8.035443 z"
         style="font-size:12px;fill-rule:evenodd;stroke-width:0.625;stroke-linejoin:round"
         id="path4108-6-55" />
    </marker>
    <inkscape:perspective
       id="perspective8318"
       inkscape:persp3d-origin="0.5 : 0.33333333 : 1"
       inkscape:vp_z="1 : 0.5 : 1"
       inkscape:vp_y="0 : 1000 : 0"
       inkscape:vp_x="0 : 0.5 : 1"
       sodipodi:type="inkscape:persp3d" />
    <marker
       inkscape:stockid="Arrow2Lend"
       orient="auto"
       refY="0"
       refX="0"
       id="Arrow2Lend-0"
       style="overflow:visible">
      <path
         id="path4374-9"
         style="font-size:12px;fill-rule:evenodd;stroke-width:0.625;stroke-linejoin:round"
         d="M 8.7185878,4.0337352 -2.2072895,0.01601326 8.7185884,-4.0017078 c -1.7454984,2.3720609 -1.7354408,5.6174519 -6e-7,8.035443 z"
         transform="matrix(-1.1,0,0,-1.1,-1.1,0)" />
    </marker>
    <inkscape:perspective
       id="perspective8361"
       inkscape:persp3d-origin="0.5 : 0.33333333 : 1"
       inkscape:vp_z="1 : 0.5 : 1"
       inkscape:vp_y="0 : 1000 : 0"
       inkscape:vp_x="0 : 0.5 : 1"
       sodipodi:type="inkscape:persp3d" />
    <marker
       style="overflow:visible"
       id="Arrow2Lend-1-8"
       refX="0"
       refY="0"
       orient="auto"
       inkscape:stockid="Arrow2Lend">
      <path
         transform="matrix(-1.1,0,0,-1.1,-1.1,0)"
         d="M 8.7185878,4.0337352 -2.2072895,0.01601326 8.7185884,-4.0017078 c -1.7454984,2.3720609 -1.7354408,5.6174519 -6e-7,8.035443 z"
         style="font-size:12px;fill-rule:evenodd;stroke-width:0.625;stroke-linejoin:round"
         id="path4374-7-8" />
    </marker>
    <inkscape:perspective
       id="perspective4639"
       inkscape:persp3d-origin="0.5 : 0.33333333 : 1"
       inkscape:vp_z="1 : 0.5 : 1"
       inkscape:vp_y="0 : 1000 : 0"
       inkscape:vp_x="0 : 0.5 : 1"
       sodipodi:type="inkscape:persp3d" />
    <inkscape:perspective
       id="perspective11702"
       inkscape:persp3d-origin="0.5 : 0.33333333 : 1"
       inkscape:vp_z="1 : 0.5 : 1"
       inkscape:vp_y="0 : 1000 : 0"
       inkscape:vp_x="0 : 0.5 : 1"
       sodipodi:type="inkscape:persp3d" />
    <inkscape:perspective
       id="perspective11726"
       inkscape:persp3d-origin="0.5 : 0.33333333 : 1"
       inkscape:vp_z="1 : 0.5 : 1"
       inkscape:vp_y="0 : 1000 : 0"
       inkscape:vp_x="0 : 0.5 : 1"
       sodipodi:type="inkscape:persp3d" />
    <marker
       style="overflow:visible"
       id="Arrow2Lend-1-1"
       refX="0"
       refY="0"
       orient="auto"
       inkscape:stockid="Arrow2Lend">
      <path
         transform="matrix(-1.1,0,0,-1.1,-1.1,0)"
         d="M 8.7185878,4.0337352 -2.2072895,0.01601326 8.7185884,-4.0017078 c -1.7454984,2.3720609 -1.7354408,5.6174519 -6e-7,8.035443 z"
         style="font-size:12px;fill-rule:evenodd;stroke-width:0.625;stroke-linejoin:round"
         id="path4374-7-7" />
    </marker>
    <inkscape:perspective
       id="perspective12554"
       inkscape:persp3d-origin="0.5 : 0.33333333 : 1"
       inkscape:vp_z="1 : 0.5 : 1"
       inkscape:vp_y="0 : 1000 : 0"
       inkscape:vp_x="0 : 0.5 : 1"
       sodipodi:type="inkscape:persp3d" />
    <marker
       inkscape:stockid="Arrow2Lstart"
       orient="auto"
       refY="0"
       refX="0"
       id="Arrow2Lstart-0"
       style="overflow:visible">
      <path
         id="path6193-9"
         style="font-size:12px;fill-rule:evenodd;stroke-width:0.625;stroke-linejoin:round"
         d="M 8.7185878,4.0337352 -2.2072895,0.01601326 8.7185884,-4.0017078 c -1.7454984,2.3720609 -1.7354408,5.6174519 -6e-7,8.035443 z"
         transform="matrix(1.1,0,0,1.1,1.1,0)" />
    </marker>
    <marker
       style="overflow:visible"
       id="Arrow2Lend-1-1-4"
       refX="0"
       refY="0"
       orient="auto"
       inkscape:stockid="Arrow2Lend">
      <path
         transform="matrix(-1.1,0,0,-1.1,-1.1,0)"
         d="M 8.7185878,4.0337352 -2.2072895,0.01601326 8.7185884,-4.0017078 c -1.7454984,2.3720609 -1.7354408,5.6174519 -6e-7,8.035443 z"
         style="font-size:12px;fill-rule:evenodd;stroke-width:0.625;stroke-linejoin:round"
         id="path4374-7-7-8" />
    </marker>
    <inkscape:perspective
       id="perspective7603"
       inkscape:persp3d-origin="0.5 : 0.33333333 : 1"
       inkscape:vp_z="1 : 0.5 : 1"
       inkscape:vp_y="0 : 1000 : 0"
       inkscape:vp_x="0 : 0.5 : 1"
       sodipodi:type="inkscape:persp3d" />
    <marker
       inkscape:stockid="Arrow2Mstart"
       orient="auto"
       refY="0"
       refX="0"
       id="Arrow2Mstart-1"
       style="overflow:visible">
      <path
         id="path6199-7"
         style="font-size:12px;fill-rule:evenodd;stroke-width:0.625;stroke-linejoin:round"
         d="M 8.7185878,4.0337352 -2.2072895,0.01601326 8.7185884,-4.0017078 c -1.7454984,2.3720609 -1.7354408,5.6174519 -6e-7,8.035443 z"
         transform="scale(0.6,0.6)" />
    </marker>
    <marker
       style="overflow:visible"
       id="Arrow2Mend-21-24-4"
       refX="0"
       refY="0"
       orient="auto"
       inkscape:stockid="Arrow2Mend">
      <path
         transform="scale(-0.6,-0.6)"
         d="M 8.7185878,4.0337352 -2.2072895,0.01601326 8.7185884,-4.0017078 c -1.7454984,2.3720609 -1.7354408,5.6174519 -6e-7,8.035443 z"
         style="font-size:12px;fill-rule:evenodd;stroke-width:0.625;stroke-linejoin:round"
         id="path4108-6-55-0" />
    </marker>
    <inkscape:perspective
       id="perspective7899"
       inkscape:persp3d-origin="0.5 : 0.33333333 : 1"
       inkscape:vp_z="1 : 0.5 : 1"
       inkscape:vp_y="0 : 1000 : 0"
       inkscape:vp_x="0 : 0.5 : 1"
       sodipodi:type="inkscape:persp3d" />
  </defs>
  <g
     id="g8293"
     transform="translate(137.102,-1.259308e-7)">
    <a
       id="a8306"
       transform="translate(-45.38622,-24.437008)">
      <path
         style="fill:none;stroke:#000000;stroke-width:2.12598425;stroke-linecap:butt;stroke-linejoin:miter;stroke-miterlimit:4;stroke-opacity:1;stroke-dasharray:none;marker-end:url(#Arrow2Mend)"
         d="M 372.18898,179.8122 111.32997,57.472099 211.48099,79.006983"
         id="path6974"
         sodipodi:nodetypes="ccc" />
    </a>
    <path
       sodipodi:nodetypes="cc"
       style="fill:none;stroke:#000000;stroke-width:0.78129923;stroke-linecap:butt;stroke-linejoin:miter;stroke-miterlimit:4;stroke-opacity:1;stroke-dasharray:none;marker-end:none"
       d="m 326.80276,155.37519 c 9e-4,0 -276.58976,0 -276.58976,0"
       id="path4076-2-4" />
    <path
       d="m 50.212205,155.3744 c 0.0742,22.10483 1.413402,47.78867 5.788735,74.34897 4.37534,26.5603 10.72239,53.99705 18.68344,79.60772 M 50.212203,155.37401 c 0.0742,-22.10483 1.413404,-47.78867 5.788737,-74.348968 C 60.37628,54.464747 66.72333,27.02799 74.68438,1.417323"
       style="fill:none;stroke:#000000;stroke-width:2.12598425;stroke-linecap:butt;stroke-linejoin:miter;stroke-miterlimit:4;stroke-opacity:1;stroke-dasharray:none"
       id="path2894"
       sodipodi:nodetypes="csccsc" />
    <g
       style="font-style:normal;font-variant:normal;font-weight:normal;font-stretch:normal;letter-spacing:normal;word-spacing:normal;text-anchor:start;fill:none;stroke:#000000;stroke-linecap:butt;stroke-linejoin:miter;stroke-miterlimit:10.43299961;stroke-opacity:1;stroke-dasharray:none;stroke-dashoffset:0"
       id="g3831"
       transform="matrix(1.35,0,0,-1.35,-128.83064,704.34751)"
       xml:space="preserve"
       stroke-miterlimit="10.433"
       font-style="normal"
       font-variant="normal"
       font-weight="normal"
       font-stretch="normal"
       font-size-adjust="none"
       letter-spacing="normal"
       word-spacing="normal"
       ns0:text="$\\versor{n}$"
       ns0:preamble="E:\\preamble.tex">
<polygon
   style="fill:#000000;stroke-width:0"
   points="228.18,482.88 226.61,484.14 225.05,482.89 225.32,482.5 226.61,483.33 227.9,482.51 "
   id="polygon3833" />
<path
   style="fill:#000000;stroke-width:0"
   d="m 224.57,480.78 v -3.08 h -0.69 v -0.47 c 0.28,0.01 0.88,0.04 1.26,0.04 0.38,0 0.97,-0.03 1.25,-0.04 v 0.47 h -0.69 v 2.08 c 0,1.09 0.86,1.58 1.49,1.58 0.34,0 0.55,-0.21 0.55,-0.97 v -2.69 h -0.69 v -0.47 c 0.28,0.01 0.88,0.04 1.26,0.04 0.38,0 0.97,-0.03 1.25,-0.04 v 0.47 h -0.69 v 2.58 c 0,1.05 -0.53,1.43 -1.53,1.43 -0.96,0 -1.49,-0.56 -1.75,-1.07 v 1.07 l -1.71,-0.08 v -0.46 c 0.62,0 0.69,0 0.69,-0.39 z"
   id="path3835" />
</g>    <path
       sodipodi:nodetypes="cc"
       style="fill:none;stroke:#000000;stroke-width:0.35433072;stroke-linecap:butt;stroke-linejoin:miter;stroke-miterlimit:4;stroke-opacity:1;stroke-dasharray:none;stroke-dashoffset:0;marker-end:none"
       d="m 50.212205,155.37519 c 0,-7.7e-4 0,90.65978 0,90.65978"
       id="path11716" />
    <path
       sodipodi:nodetypes="cc"
       id="path5149-4"
       d="m 51.41693,246.03497 273.9685,0"
       style="fill:none;stroke:#000000;stroke-width:0.78307086;stroke-linecap:butt;stroke-linejoin:miter;stroke-miterlimit:4;stroke-opacity:1;stroke-dasharray:none;marker-start:url(#Arrow2Mstart);marker-end:url(#Arrow2Mend-21-24)" />
    <g
       ns0:preamble="E:\\preamble.tex"
       ns0:text="$f$"
       word-spacing="normal"
       letter-spacing="normal"
       font-size-adjust="none"
       font-stretch="normal"
       font-weight="normal"
       font-variant="normal"
       font-style="normal"
       stroke-miterlimit="10.433"
       xml:space="preserve"
       transform="matrix(1.35,0,0,-1.35,-117.01687,880.94797)"
       id="g14023"
       style="font-style:normal;font-variant:normal;font-weight:normal;font-stretch:normal;letter-spacing:normal;word-spacing:normal;text-anchor:start;fill:none;stroke:#000000;stroke-linecap:butt;stroke-linejoin:miter;stroke-miterlimit:10.43299961;stroke-opacity:1;stroke-dasharray:none;stroke-dashoffset:0">
<path
   id="path14025"
   d="m 227.09,481.22 h 0.86 c 0.2,0 0.3,0 0.3,0.2 0,0.1 -0.1,0.1 -0.27,0.1 h -0.83 l 0.21,1.14 c 0.04,0.21 0.18,0.92 0.24,1.03 0.09,0.19 0.26,0.34 0.47,0.34 0.04,0 0.3,0 0.49,-0.18 -0.44,-0.04 -0.54,-0.39 -0.54,-0.53 0,-0.23 0.18,-0.35 0.37,-0.35 0.26,0 0.54,0.22 0.54,0.6 0,0.45 -0.45,0.68 -0.86,0.68 -0.34,0 -0.97,-0.18 -1.27,-1.16 -0.06,-0.21 -0.09,-0.31 -0.33,-1.57 h -0.68 c -0.19,0 -0.3,0 -0.3,-0.19 0,-0.11 0.08,-0.11 0.27,-0.11 h 0.66 l -0.74,-3.93 c -0.19,-0.97 -0.35,-1.88 -0.87,-1.88 -0.04,0 -0.29,0 -0.48,0.18 0.46,0.03 0.55,0.39 0.55,0.54 0,0.23 -0.18,0.35 -0.37,0.35 -0.26,0 -0.55,-0.22 -0.55,-0.6 0,-0.45 0.44,-0.68 0.85,-0.68 0.55,0 0.95,0.58 1.12,0.96 0.32,0.63 0.55,1.83 0.56,1.9 z"
   style="fill:#000000;stroke-width:0" />
</g>    <path
       sodipodi:nodetypes="cc"
       id="path14768"
       d="m 220.45561,155.37497 c -0.27577,-15.03223 2.48059,-30.70614 8.87077,-43.40529"
       style="fill:none;stroke:#000000;stroke-width:0.78299999;stroke-linecap:butt;stroke-linejoin:miter;stroke-miterlimit:4;stroke-opacity:1;stroke-dasharray:none;marker-start:none;marker-end:url(#Arrow2Mend-21-24)" />
    <g
       style="font-style:normal;font-variant:normal;font-weight:normal;font-stretch:normal;letter-spacing:normal;word-spacing:normal;text-anchor:start;fill:none;stroke:#000000;stroke-linecap:butt;stroke-linejoin:miter;stroke-miterlimit:10.43299961;stroke-opacity:1;stroke-dasharray:none;stroke-dashoffset:0"
       id="g15934"
       transform="matrix(1.35,0,0,-1.35,-92.196316,780.11649)"
       xml:space="preserve"
       stroke-miterlimit="10.433"
       font-style="normal"
       font-variant="normal"
       font-weight="normal"
       font-stretch="normal"
       font-size-adjust="none"
       letter-spacing="normal"
       word-spacing="normal"
       ns0:text="$\\theta \'$"
       ns0:preamble="E:\\preamble.tex">
<path
   style="fill:#000000;stroke-width:0"
   d="m 227.97013,480.72853 0,0.06 0,0.07 -0.01,0.07 0,0.08 -0.01,0.07 -0.01,0.08 0,0.08 -0.02,0.09 -0.01,0.08 -0.01,0.09 -0.02,0.08 -0.02,0.09 -0.03,0.08 -0.02,0.08 -0.03,0.09 -0.03,0.08 -0.03,0.08 -0.04,0.07 -0.04,0.08 -0.04,0.07 -0.05,0.07 -0.05,0.06 -0.05,0.06 -0.06,0.05 -0.06,0.05 -0.04,0.03 -0.03,0.02 -0.04,0.02 -0.03,0.02 -0.04,0.01 -0.04,0.02 -0.03,0.01 -0.04,0.02 -0.05,0.01 -0.04,0.01 -0.04,0 -0.05,0.01 -0.04,0 -0.05,0 -0.01,-0.22 c 0.49,0 0.55,-0.63 0.55,-1.2 0,-0.49 -0.08,-1 -0.32,-1.98 h -2.08 c 0.17,0.63 0.37,1.43 0.77,2.14 0.26,0.49 0.63,1.04 1.08,1.04 l 0.01,0.22 c -1.38,0 -2.92,-2.8 -2.92,-5.08 0,-0.94 0.29,-2.04 1.2,-2.04 v 0.21 c -0.33,0 -0.54,0.29 -0.54,1.22 0,0.42 0.06,0.99 0.32,1.97 h 2.07 c -0.11,-0.46 -0.32,-1.3 -0.7,-2.02 -0.35,-0.68 -0.72,-1.17 -1.15,-1.17 v -0.21 c 1.4,0 2.92,2.85 2.92,5.08 z"
   id="path15936" />
<path
   style="fill:#000000;stroke-width:0"
   d="m 230.41013,482.64853 0,0.01 0.01,0.01 0,0.01 0,0.01 0.01,0.01 0,0.01 0.01,0.01 0,0.01 0,0.01 0,0.01 0.01,0 0,0.01 0,0.01 0,0.01 0.01,0 0,0.01 0,0.01 0,0 0,0.01 0,0 0,0.01 0,0.01 0.01,0 0,0.01 0,0.01 0,0.01 0,0.01 0,0.01 c 0,0.21 -0.2,0.38 -0.41,0.38 -0.27,0 -0.35,-0.22 -0.39,-0.33 l -0.91,-3.01 c -0.01,-0.01 -0.04,-0.1 -0.04,-0.11 0,-0.08 0.22,-0.15 0.27,-0.15 0.05,0 0.06,0.01 0.11,0.11 z"
   id="path15938" />
</g>    <g
       transform="translate(-63.348798,-24.509545)"
       id="g16061">
      <path
         id="path16059"
         d="m 393.66044,179.88477 c 0,1.93841 -1.5714,3.50981 -3.50982,3.50981 -1.93841,0 -3.50981,-1.5714 -3.50981,-3.50981 0,-1.93842 1.5714,-3.50982 3.50981,-3.50982 1.93842,0 3.50982,1.5714 3.50982,3.50982 z"
         style="fill:#000000;fill-opacity:1;fill-rule:nonzero;stroke:#000000;stroke-width:0.78307086;stroke-linecap:square;stroke-linejoin:miter;stroke-miterlimit:4;stroke-opacity:1;stroke-dasharray:none;stroke-dashoffset:0" />
    </g>
    <g
       ns0:preamble="E:\\preamble.tex"
       ns0:text="$\\mathbf{r}\'$"
       word-spacing="normal"
       letter-spacing="normal"
       font-size-adjust="none"
       font-stretch="normal"
       font-weight="normal"
       font-variant="normal"
       font-style="normal"
       stroke-miterlimit="10.433"
       xml:space="preserve"
       transform="matrix(1.35,0,0,-1.35,-17.94264,775.71647)"
       id="g16684"
       style="font-style:normal;font-variant:normal;font-weight:normal;font-stretch:normal;letter-spacing:normal;word-spacing:normal;text-anchor:start;fill:none;stroke:#000000;stroke-linecap:butt;stroke-linejoin:miter;stroke-miterlimit:10.43299961;stroke-opacity:1;stroke-dasharray:none;stroke-dashoffset:0">
<path
   id="path16686"
   d="m 225.46,480.59 v 1.12 l -1.66,-0.08 v -0.46 c 0.62,0 0.69,0 0.69,-0.39 v -3.08 h -0.69 v -0.47 c 0.35,0.01 0.8,0.04 1.26,0.04 0.38,0 1.01,0 1.37,-0.04 v 0.47 h -0.86 v 1.74 c 0,0.7 0.24,1.92 1.24,1.92 -0.01,-0.01 -0.19,-0.17 -0.19,-0.46 0,-0.41 0.32,-0.61 0.61,-0.61 0.29,0 0.61,0.21 0.61,0.61 0,0.52 -0.54,0.81 -1.06,0.81 -0.7,0 -1.1,-0.49 -1.32,-1.12 z"
   style="fill:#000000;stroke-width:0" />
<path
   id="path16688"
   d="m 230.17,484.13 0.01,0.01 0,0.01 0.01,0.01 0,0.01 0,0.01 0.01,0.01 0,0.01 0,0.01 0.01,0.01 0,0.01 0,0 0,0.01 0.01,0.01 0,0.01 0,0 0,0.01 0,0.01 0.01,0 0,0.01 0,0 0,0.01 0,0.01 0,0 0,0.01 0,0.01 0,0.01 0,0.01 0,0.01 c 0,0.21 -0.19,0.38 -0.41,0.38 -0.26,0 -0.35,-0.22 -0.38,-0.33 l -0.92,-3.01 c -0.01,-0.01 -0.03,-0.1 -0.03,-0.11 0,-0.08 0.21,-0.15 0.27,-0.15 0.05,0 0.05,0.01 0.1,0.11 z"
   style="fill:#000000;stroke-width:0" />
</g>    <g
       id="g3228"
       transform="translate(-307.14892,-24.509545)">
      <path
         style="fill:#000000;fill-opacity:1;fill-rule:nonzero;stroke:#000000;stroke-width:0.78307086;stroke-linecap:square;stroke-linejoin:miter;stroke-miterlimit:4;stroke-opacity:1;stroke-dasharray:none;stroke-dashoffset:0"
         d="m 360.87144,179.88477 c 0,1.93841 -1.5714,3.50981 -3.50982,3.50981 -1.93841,0 -3.50981,-1.5714 -3.50981,-3.50981 0,-1.93842 1.5714,-3.50982 3.50981,-3.50982 1.93842,0 3.50982,1.5714 3.50982,3.50982 z"
         id="path3230" />
    </g>
    <g
       transform="translate(-307.14892,-146.85014)"
       id="g3232">
      <path
         id="path3234"
         d="m 376.60244,179.88477 c 0,1.93841 -1.5714,3.50981 -3.50982,3.50981 -1.93841,0 -3.50981,-1.5714 -3.50981,-3.50981 0,-1.93842 1.5714,-3.50982 3.50981,-3.50982 1.93842,0 3.50982,1.5714 3.50982,3.50982 z"
         style="fill:#000000;fill-opacity:1;fill-rule:nonzero;stroke:#000000;stroke-width:0.78307086;stroke-linecap:square;stroke-linejoin:miter;stroke-miterlimit:4;stroke-opacity:1;stroke-dasharray:none;stroke-dashoffset:0" />
    </g>
    <path
       style="fill:none;stroke:#000000;stroke-width:0.78307086;stroke-linecap:butt;stroke-linejoin:miter;stroke-miterlimit:4;stroke-opacity:1;stroke-dasharray:none;marker-start:none;marker-end:url(#Arrow2Mend-21-24)"
       d="m 67.64336,155.37497 0,-117.799995"
       id="path3236"
       sodipodi:nodetypes="cc" />
    <g
       style="font-style:normal;font-variant:normal;font-weight:normal;font-stretch:normal;letter-spacing:normal;word-spacing:normal;text-anchor:start;fill:none;stroke:#000000;stroke-linecap:butt;stroke-linejoin:miter;stroke-miterlimit:10.43299961;stroke-opacity:1;stroke-dasharray:none;stroke-dashoffset:0"
       id="content"
       transform="matrix(1.35,0,0,-1.35,-229.23214,744.60497)"
       xml:space="preserve"
       stroke-miterlimit="10.433"
       font-style="normal"
       font-variant="normal"
       font-weight="normal"
       font-stretch="normal"
       font-size-adjust="none"
       letter-spacing="normal"
       word-spacing="normal"
       ns0:text="$\\rho$"
       ns0:preamble="E:\\preamble.tex">
<path
   style="fill:#000000;stroke-width:0"
   d="m 223.76,475.51 0,0 0,-0.01 0,0 0,-0.01 -0.01,0 0,-0.01 0,0 0,-0.01 0,0 0,-0.01 0,0 0,0 0,-0.01 0,0 -0.01,-0.01 0,-0.01 0,0 0,-0.01 0,0 0,-0.01 0,0 0,-0.01 -0.01,0 0,-0.01 0,0 0,0 0,-0.01 0,0 0,0 0,-0.01 0,0 0,0 0,0 0,-0.01 0,0 0,-0.01 c 0,-0.15 0.11,-0.27 0.28,-0.27 0.21,0 0.33,0.18 0.35,0.21 0.05,0.09 0.37,1.43 0.64,2.5 0.2,-0.4 0.51,-0.66 0.98,-0.66 l -0.01,0.21 c -0.69,0 -0.85,0.8 -0.85,0.89 0,0.04 0.05,0.24 0.08,0.37 0.28,1.11 0.37,1.47 0.59,1.87 0.43,0.73 0.93,0.95 1.24,0.95 0.37,0 0.69,-0.29 0.69,-0.98 0,-0.55 -0.29,-1.66 -0.56,-2.15 -0.33,-0.63 -0.81,-0.95 -1.19,-0.95 h 0 l 0.01,-0.21 c 1.17,0 2.46,1.4 2.46,2.88 0,1.06 -0.66,1.62 -1.39,1.62 -0.97,0 -2.01,-0.99 -2.31,-2.21 z"
   id="path3305" />
</g>    <path
       sodipodi:nodetypes="ccc"
       id="path3373"
       d="M 36.351855,41.110354 326.80236,155.37497 46.341448,4.044489"
       style="fill:none;stroke:#000000;stroke-width:0.78307086;stroke-linecap:butt;stroke-linejoin:miter;stroke-miterlimit:4;stroke-opacity:1;stroke-dasharray:6.2645669, 6.2645669;stroke-dashoffset:0" />
    <path
       sodipodi:nodetypes="cc"
       id="path4419"
       style="fill:none;stroke:#000000;stroke-width:0.78307086;stroke-linecap:butt;stroke-linejoin:miter;stroke-miterlimit:4;stroke-opacity:1;stroke-dasharray:none;marker-start:url(#Arrow2Mstart);marker-end:url(#Arrow2Mend-21-24)"
       d="m 47.288262,43.897975 c 3.59385,-14.731297 4.817518,-19.06346 8.706044,-33.103" />
    <g
       ns0:preamble="E:\\preamble.tex"
       ns0:text="$dH$"
       word-spacing="normal"
       letter-spacing="normal"
       font-size-adjust="none"
       font-stretch="normal"
       font-weight="normal"
       font-variant="normal"
       font-style="normal"
       stroke-miterlimit="10.433"
       xml:space="preserve"
       transform="matrix(1.35,0,0,-1.35,-272.7495,672.60991)"
       id="g4901"
       style="font-style:normal;font-variant:normal;font-weight:normal;font-stretch:normal;letter-spacing:normal;word-spacing:normal;text-anchor:start;fill:none;stroke:#000000;stroke-linecap:butt;stroke-linejoin:miter;stroke-miterlimit:10.43299961;stroke-opacity:1;stroke-dasharray:none;stroke-dashoffset:0">
<path
   id="path4903"
   d="m 228.58,484.03 0,0 0,0 0,0.01 0,0 0,0 0,0 0,0.01 -0.01,0 0,0 0,0.01 0,0 0,0.01 0,0 0,0.01 0,0 -0.01,0.01 0,0 0,0.01 -0.01,0 0,0.01 -0.01,0 0,0 0,0 0,0.01 -0.01,0 0,0 0,0 -0.01,0 0,0.01 0,0 -0.01,0 0,0 0,0 -0.01,0 0,0.01 -0.01,0 0,0 -0.01,0 0,0 -0.01,0 0,0 -0.01,0 0,0 -0.01,0 0,0 c -0.15,0 -1.1,-0.09 -1.27,-0.11 -0.08,-0.01 -0.14,-0.06 -0.14,-0.19 0,-0.12 0.09,-0.12 0.24,-0.12 0.48,0 0.5,-0.07 0.5,-0.17 l -0.03,-0.19 -0.6,-2.36 c -0.18,0.36 -0.47,0.63 -0.92,0.63 -1.16,0 -2.4,-1.46 -2.4,-2.91 0,-0.94 0.55,-1.59 1.33,-1.59 l 0.02,0.21 c -0.5,0 -0.64,0.55 -0.64,0.94 0,0.5 0.32,1.72 0.55,2.18 0.31,0.59 0.75,0.96 1.15,0.96 0.65,0 0.79,-0.82 0.79,-0.88 0,-0.06 -0.02,-0.12 -0.03,-0.17 l -0.5,-1.95 c -0.05,-0.18 -0.05,-0.2 -0.2,-0.37 -0.44,-0.55 -0.84,-0.71 -1.12,-0.71 l -0.02,-0.21 c 0.2,0 0.69,0.04 1.29,0.74 0.08,-0.42 0.43,-0.74 0.91,-0.74 0.35,0 0.58,0.22 0.74,0.54 0.17,0.36 0.3,0.97 0.3,0.99 0,0.1 -0.09,0.1 -0.12,0.1 -0.1,0 -0.11,-0.04 -0.14,-0.18 -0.17,-0.65 -0.35,-1.24 -0.76,-1.24 -0.27,0 -0.3,0.26 -0.3,0.46 0,0.24 0.02,0.31 0.06,0.48 z"
   style="fill:#000000;stroke-width:0" />
<path
   id="path4905"
   d="m 236.22,483.27 0.01,0.03 0.01,0.03 0.01,0.03 0,0.03 0.01,0.03 0.01,0.02 0.01,0.03 0.01,0.02 0.01,0.02 0.01,0.02 0.01,0.02 0.02,0.02 0.01,0.02 0.02,0.01 0.01,0.02 0.02,0.01 0.02,0.01 0.03,0.01 0.02,0.01 0.03,0.01 0.03,0.01 0.03,0.01 0.02,0 0.02,0.01 0.02,0 0.02,0 0.02,0.01 0.02,0 0.02,0 0.02,0 0.02,0 0.03,0.01 0.02,0 0.03,0 0.03,0 0.02,0 0.03,0 0.03,0 0.03,0 0.03,0 0.04,0 0.03,0 c 0.26,0 0.34,0 0.34,0.2 0,0.11 -0.11,0.11 -0.14,0.11 -0.28,0 -1,-0.03 -1.28,-0.03 -0.28,0 -0.99,0.03 -1.28,0.03 -0.08,0 -0.19,0 -0.19,-0.2 0,-0.11 0.09,-0.11 0.28,-0.11 0.02,0 0.21,0 0.38,-0.02 0.18,-0.02 0.27,-0.03 0.27,-0.15 0,-0.04 -0.01,-0.07 -0.04,-0.19 l -0.6,-2.43 h -3.04 l 0.59,2.34 c 0.08,0.36 0.11,0.45 0.83,0.45 0.26,0 0.34,0 0.34,0.2 0,0.11 -0.11,0.11 -0.14,0.11 -0.28,0 -0.99,-0.03 -1.27,-0.03 -0.29,0 -1,0.03 -1.29,0.03 -0.08,0 -0.19,0 -0.19,-0.2 0,-0.11 0.09,-0.11 0.28,-0.11 0.02,0 0.21,0 0.38,-0.02 0.18,-0.02 0.27,-0.03 0.27,-0.15 0,-0.04 -0.01,-0.07 -0.04,-0.19 l -1.34,-5.35 c -0.1,-0.39 -0.12,-0.47 -0.91,-0.47 -0.17,0 -0.26,0 -0.26,-0.2 0,-0.11 0.12,-0.11 0.14,-0.11 0.28,0 0.98,0.04 1.26,0.04 0.21,0 0.43,-0.01 0.64,-0.01 0.22,0 0.44,-0.03 0.65,-0.03 0.08,0 0.2,0 0.2,0.2 0,0.11 -0.09,0.11 -0.28,0.11 -0.37,0 -0.65,0 -0.65,0.18 0,0.06 0.02,0.11 0.03,0.17 l 0.68,2.73 h 3.04 c -0.42,-1.65 -0.65,-2.6 -0.69,-2.75 -0.1,-0.32 -0.29,-0.33 -0.91,-0.33 -0.15,0 -0.24,0 -0.24,-0.2 0,-0.11 0.12,-0.11 0.14,-0.11 0.28,0 0.99,0.04 1.27,0.04 0.21,0 0.43,-0.01 0.64,-0.01 0.22,0 0.44,-0.03 0.64,-0.03 0.08,0 0.2,0 0.2,0.2 0,0.11 -0.09,0.11 -0.27,0.11 -0.37,0 -0.65,0 -0.65,0.18 0,0.06 0.02,0.11 0.03,0.17 z"
   style="fill:#000000;stroke-width:0" />
</g>    <g
       style="font-style:normal;font-variant:normal;font-weight:normal;font-stretch:normal;letter-spacing:normal;word-spacing:normal;text-anchor:start;fill:none;stroke:#000000;stroke-linecap:butt;stroke-linejoin:miter;stroke-miterlimit:10.43299961;stroke-opacity:1;stroke-dasharray:none;stroke-dashoffset:0"
       id="g5051"
       transform="matrix(1.35,0,0,-1.35,-133.27214,757.40947)"
       xml:space="preserve"
       stroke-miterlimit="10.433"
       font-style="normal"
       font-variant="normal"
       font-weight="normal"
       font-stretch="normal"
       font-size-adjust="none"
       letter-spacing="normal"
       word-spacing="normal"
       ns0:text="$d\\theta \'$"
       ns0:preamble="E:\\preamble.tex">
<path
   style="fill:#000000;stroke-width:0"
   d="m 228.58,484.03 0,0 0,0 0,0.01 0,0 0,0 0,0 0,0.01 -0.01,0 0,0 0,0.01 0,0 0,0.01 0,0 0,0.01 0,0 -0.01,0.01 0,0 0,0.01 -0.01,0 0,0.01 -0.01,0 0,0 0,0 0,0.01 -0.01,0 0,0 0,0 -0.01,0 0,0.01 0,0 -0.01,0 0,0 0,0 -0.01,0 0,0.01 -0.01,0 0,0 -0.01,0 0,0 -0.01,0 0,0 -0.01,0 0,0 -0.01,0 0,0 c -0.15,0 -1.1,-0.09 -1.27,-0.11 -0.08,-0.01 -0.14,-0.06 -0.14,-0.19 0,-0.12 0.09,-0.12 0.24,-0.12 0.48,0 0.5,-0.07 0.5,-0.17 l -0.03,-0.19 -0.6,-2.36 c -0.18,0.36 -0.47,0.63 -0.92,0.63 -1.16,0 -2.4,-1.46 -2.4,-2.91 0,-0.94 0.55,-1.59 1.33,-1.59 l 0.02,0.21 c -0.5,0 -0.64,0.55 -0.64,0.94 0,0.5 0.32,1.72 0.55,2.18 0.31,0.59 0.75,0.96 1.15,0.96 0.65,0 0.79,-0.82 0.79,-0.88 0,-0.06 -0.02,-0.12 -0.03,-0.17 l -0.5,-1.95 c -0.05,-0.18 -0.05,-0.2 -0.2,-0.37 -0.44,-0.55 -0.84,-0.71 -1.12,-0.71 l -0.02,-0.21 c 0.2,0 0.69,0.04 1.29,0.74 0.08,-0.42 0.43,-0.74 0.91,-0.74 0.35,0 0.58,0.22 0.74,0.54 0.17,0.36 0.3,0.97 0.3,0.99 0,0.1 -0.09,0.1 -0.12,0.1 -0.1,0 -0.11,-0.04 -0.14,-0.18 -0.17,-0.65 -0.35,-1.24 -0.76,-1.24 -0.27,0 -0.3,0.26 -0.3,0.46 0,0.24 0.02,0.31 0.06,0.48 z"
   id="path5053" />
<path
   style="fill:#000000;stroke-width:0"
   d="m 233.15,482.21 0,0.06 0,0.07 0,0.07 -0.01,0.08 0,0.07 -0.01,0.08 -0.01,0.08 -0.01,0.09 -0.01,0.08 -0.02,0.09 -0.02,0.08 -0.02,0.09 -0.02,0.08 -0.02,0.08 -0.03,0.09 -0.03,0.08 -0.04,0.08 -0.03,0.07 -0.04,0.08 -0.05,0.07 -0.04,0.07 -0.05,0.06 -0.06,0.06 -0.06,0.05 -0.06,0.05 -0.03,0.03 -0.03,0.02 -0.04,0.02 -0.04,0.02 -0.03,0.01 -0.04,0.02 -0.04,0.01 -0.04,0.02 -0.04,0.01 -0.04,0.01 -0.05,0 -0.04,0.01 -0.05,0 -0.04,0 -0.01,-0.22 c 0.48,0 0.54,-0.63 0.54,-1.2 0,-0.49 -0.08,-1 -0.31,-1.98 h -2.09 c 0.17,0.63 0.37,1.43 0.77,2.14 0.27,0.49 0.64,1.04 1.09,1.04 l 0.01,0.22 c -1.39,0 -2.92,-2.8 -2.92,-5.08 0,-0.94 0.28,-2.04 1.19,-2.04 v 0.21 c -0.33,0 -0.54,0.29 -0.54,1.22 0,0.42 0.06,0.99 0.32,1.97 h 2.08 c -0.11,-0.46 -0.32,-1.3 -0.7,-2.02 -0.35,-0.68 -0.73,-1.17 -1.16,-1.17 v -0.21 c 1.41,0 2.92,2.85 2.92,5.08 z"
   id="path5055" />
<path
   style="fill:#000000;stroke-width:0"
   d="m 235.59,484.13 0.01,0.01 0,0.01 0.01,0.01 0,0.01 0,0.01 0.01,0.01 0,0.01 0,0.01 0.01,0.01 0,0.01 0,0 0,0.01 0.01,0.01 0,0.01 0,0 0,0.01 0,0.01 0.01,0 0,0.01 0,0 0,0.01 0,0.01 0,0 0,0.01 0,0.01 0,0.01 0,0.01 0,0.01 c 0,0.21 -0.19,0.38 -0.41,0.38 -0.26,0 -0.35,-0.22 -0.38,-0.33 l -0.92,-3.01 c -0.01,-0.01 -0.04,-0.1 -0.04,-0.11 0,-0.08 0.22,-0.15 0.28,-0.15 0.05,0 0.05,0.01 0.1,0.11 z"
   id="path5057" />
</g>    <path
       sodipodi:nodetypes="cc"
       id="path5136"
       d="m 131.3989,92.224102 c 2.30893,-6.903525 5.39396,-15.205434 8.21846,-22.349127"
       style="fill:none;stroke:#000000;stroke-width:0.78299999;stroke-linecap:butt;stroke-linejoin:miter;stroke-miterlimit:4;stroke-opacity:1;stroke-dasharray:none;marker-start:none;marker-end:url(#Arrow2Mend-21-24)" />
    <path
       style="fill:none;stroke:#000000;stroke-width:0.78299999;stroke-linecap:butt;stroke-linejoin:miter;stroke-miterlimit:4;stroke-opacity:1;stroke-dasharray:none;marker-start:url(#Arrow2Mstart);marker-end:none"
       d="m 148.55236,48.704975 c 3.25478,-7.616918 6.81885,-13.99451 10.546,-20.587872"
       id="path5513"
       sodipodi:nodetypes="cc" />
    <g
       style="font-style:normal;font-variant:normal;font-weight:normal;font-stretch:normal;letter-spacing:normal;word-spacing:normal;text-anchor:start;fill:none;stroke:#000000;stroke-linecap:butt;stroke-linejoin:miter;stroke-miterlimit:10.43299961;stroke-opacity:1;stroke-dasharray:none;stroke-dashoffset:0"
       id="g6796"
       transform="matrix(1.35,0,0,-1.35,-175.74014,685.91847)"
       xml:space="preserve"
       stroke-miterlimit="10.433"
       font-style="normal"
       font-variant="normal"
       font-weight="normal"
       font-stretch="normal"
       font-size-adjust="none"
       letter-spacing="normal"
       word-spacing="normal"
       ns0:text="$\\theta \'\\!/2$"
       ns0:preamble="E:\\preamble.tex">
<path
   style="fill:#000000;stroke-width:0"
   d="m 227.97,482.21 0,0.06 0,0.07 -0.01,0.07 0,0.08 -0.01,0.07 -0.01,0.08 0,0.08 -0.02,0.09 -0.01,0.08 -0.01,0.09 -0.02,0.08 -0.02,0.09 -0.03,0.08 -0.02,0.08 -0.03,0.09 -0.03,0.08 -0.03,0.08 -0.04,0.07 -0.04,0.08 -0.04,0.07 -0.05,0.07 -0.05,0.06 -0.05,0.06 -0.06,0.05 -0.06,0.05 -0.04,0.03 -0.03,0.02 -0.04,0.02 -0.03,0.02 -0.04,0.01 -0.04,0.02 -0.03,0.01 -0.04,0.02 -0.05,0.01 -0.04,0.01 -0.04,0 -0.05,0.01 -0.04,0 -0.05,0 -0.01,-0.22 c 0.49,0 0.55,-0.63 0.55,-1.2 0,-0.49 -0.08,-1 -0.32,-1.98 h -2.08 c 0.17,0.63 0.37,1.43 0.77,2.14 0.26,0.49 0.63,1.04 1.08,1.04 l 0.01,0.22 c -1.38,0 -2.92,-2.8 -2.92,-5.08 0,-0.94 0.29,-2.04 1.2,-2.04 v 0.21 c -0.33,0 -0.54,0.29 -0.54,1.22 0,0.42 0.06,0.99 0.32,1.97 h 2.07 c -0.11,-0.46 -0.32,-1.3 -0.7,-2.02 -0.35,-0.68 -0.72,-1.17 -1.15,-1.17 v -0.21 c 1.4,0 2.92,2.85 2.92,5.08 z"
   id="path6798" />
<path
   style="fill:#000000;stroke-width:0"
   d="m 230.41,484.13 0,0.01 0.01,0.01 0,0.01 0,0.01 0.01,0.01 0,0.01 0.01,0.01 0,0.01 0,0.01 0,0.01 0.01,0 0,0.01 0,0.01 0,0.01 0.01,0 0,0.01 0,0.01 0,0 0,0.01 0,0 0,0.01 0,0.01 0.01,0 0,0.01 0,0.01 0,0.01 0,0.01 0,0.01 c 0,0.21 -0.2,0.38 -0.41,0.38 -0.27,0 -0.35,-0.22 -0.39,-0.33 l -0.91,-3.01 c -0.01,-0.01 -0.04,-0.1 -0.04,-0.11 0,-0.08 0.22,-0.15 0.27,-0.15 0.05,0 0.06,0.01 0.11,0.11 z"
   id="path6800" />
<path
   style="fill:#000000;stroke-width:0"
   d="m 233.9,484.32 0,0.01 0,0 0,0.01 0,0 0.01,0.01 0,0.01 0,0 0,0.01 0.01,0.01 0,0 0,0.01 0,0.01 0.01,0.01 0,0.01 0,0.01 0,0 0.01,0.01 0,0 0,0.01 0,0.01 0,0 0,0.01 0,0 0,0 0,0.01 0,0 0,0 0.01,0.01 0,0 0,0 0,0 0,0 0,0.01 0,0 0,0 0,0 c 0,0.11 -0.09,0.2 -0.2,0.2 -0.07,0 -0.14,-0.03 -0.17,-0.09 l -3.46,-9.48 c -0.05,-0.13 -0.05,-0.17 -0.05,-0.18 0,-0.11 0.09,-0.2 0.2,-0.2 0.13,0 0.16,0.07 0.22,0.24 z"
   id="path6802" />
<path
   style="fill:#000000;stroke-width:0"
   d="m 235.77,478 1.05,1.03 c 1.56,1.37 2.16,1.91 2.16,2.9 0,1.14 -0.9,1.93 -2.11,1.93 -1.13,0 -1.87,-0.91 -1.87,-1.8 0,-0.55 0.5,-0.55 0.53,-0.55 0.17,0 0.52,0.11 0.52,0.52 0,0.26 -0.18,0.52 -0.53,0.52 -0.08,0 -0.1,0 -0.13,-0.01 0.23,0.65 0.77,1.01 1.35,1.01 0.9,0 1.33,-0.8 1.33,-1.62 0,-0.79 -0.5,-1.58 -1.05,-2.2 l -1.91,-2.13 C 235,477.49 235,477.47 235,477.23 h 3.7 l 0.28,1.74 h -0.25 c -0.05,-0.3 -0.12,-0.74 -0.22,-0.89 C 238.44,478 237.78,478 237.56,478 z"
   id="path6804" />
</g>    <path
       id="path6899"
       d="m 326.80136,155.37519 c 0,-7.7e-4 0,90.65978 0,90.65978"
       style="fill:none;stroke:#000000;stroke-width:0.35433072;stroke-linecap:butt;stroke-linejoin:miter;stroke-miterlimit:4;stroke-opacity:1;stroke-dasharray:none;stroke-dashoffset:0;marker-end:none"
       sodipodi:nodetypes="cc" />
    <path
       style="fill:none;stroke:#000000;stroke-width:0.78299999;stroke-linecap:butt;stroke-linejoin:miter;stroke-miterlimit:4;stroke-opacity:1;stroke-dasharray:none;marker-start:none;marker-end:url(#Arrow2Mend-21-24)"
       d="m 182.31299,125.28796 c 2.24458,-6.54463 5.35196,-14.76183 8.25773,-21.97499"
       id="path6901"
       sodipodi:nodetypes="cc" />
    <path
       sodipodi:nodetypes="cc"
       id="path6903"
       d="m 198.69325,84.679669 c 3.5522,-7.548756 6.6538,-13.807526 10.18955,-20.451326"
       style="fill:none;stroke:#000000;stroke-width:0.78299999;stroke-linecap:butt;stroke-linejoin:miter;stroke-miterlimit:4;stroke-opacity:1;stroke-dasharray:none;marker-start:url(#Arrow2Mstart);marker-end:none" />
    <path
       id="path4076-2-4-3-6-0-0-7-1"
       d="m -85.62329,290.73909 c 7.7e-4,0 -27.40394,0 -27.40394,0"
       style="fill:none;stroke:#000000;stroke-width:0.35433072;stroke-linecap:butt;stroke-linejoin:miter;stroke-miterlimit:4;stroke-opacity:1;stroke-dasharray:none;stroke-dashoffset:0;marker-end:none"
       sodipodi:nodetypes="cc" />
    <path
       sodipodi:nodetypes="cc"
       id="path7915"
       d="m -113.027,289.52609 0,-263.578997"
       style="fill:none;stroke:#000000;stroke-width:0.78307086;stroke-linecap:butt;stroke-linejoin:miter;stroke-miterlimit:4;stroke-opacity:1;stroke-dasharray:none;marker-start:url(#Arrow2Mstart-1);marker-end:url(#Arrow2Mend-21-24)" />
    <path
       sodipodi:nodetypes="ccc"
       id="path8129"
       d="m 0.839102,284.77044 -26.461719,5.9688 26.461719,-5.9688 z"
       style="fill:none;stroke:#000000;stroke-width:0.35433072;stroke-linecap:butt;stroke-linejoin:miter;stroke-miterlimit:4;stroke-opacity:1;stroke-dasharray:none" />
    <path
       sodipodi:nodetypes="cccc"
       id="path7205"
       d="m -85.623,24.739093 0,265.999997 60,0 -60,-265.999997 z"
       style="fill:none;stroke:#000000;stroke-width:2.12598425;stroke-linecap:butt;stroke-linejoin:miter;stroke-miterlimit:4;stroke-opacity:1;stroke-dasharray:none" />
    <g
       style="font-style:normal;font-variant:normal;font-weight:normal;font-stretch:normal;letter-spacing:normal;word-spacing:normal;text-anchor:start;fill:none;stroke:#000000;stroke-linecap:butt;stroke-linejoin:miter;stroke-miterlimit:10.43299961;stroke-opacity:1;stroke-dasharray:none;stroke-dashoffset:0"
       id="g7207"
       transform="matrix(1.35,0,0,-1.35,-439.2725,806.59359)"
       xml:space="preserve"
       stroke-miterlimit="10.433"
       font-style="normal"
       font-variant="normal"
       font-weight="normal"
       font-stretch="normal"
       font-size-adjust="none"
       letter-spacing="normal"
       word-spacing="normal"
       ns0:text="$dH$"
       ns0:preamble="E:\\preamble.tex">
<path
   style="fill:#000000;stroke-width:0"
   d="m 228.58,484.03 0,0 0,0 0,0.01 0,0 0,0 0,0 0,0.01 -0.01,0 0,0 0,0.01 0,0 0,0.01 0,0 0,0.01 0,0 -0.01,0.01 0,0 0,0.01 -0.01,0 0,0.01 -0.01,0 0,0 0,0 0,0.01 -0.01,0 0,0 0,0 -0.01,0 0,0.01 0,0 -0.01,0 0,0 0,0 -0.01,0 0,0.01 -0.01,0 0,0 -0.01,0 0,0 -0.01,0 0,0 -0.01,0 0,0 -0.01,0 0,0 c -0.15,0 -1.1,-0.09 -1.27,-0.11 -0.08,-0.01 -0.14,-0.06 -0.14,-0.19 0,-0.12 0.09,-0.12 0.24,-0.12 0.48,0 0.5,-0.07 0.5,-0.17 l -0.03,-0.19 -0.6,-2.36 c -0.18,0.36 -0.47,0.63 -0.92,0.63 -1.16,0 -2.4,-1.46 -2.4,-2.91 0,-0.94 0.55,-1.59 1.33,-1.59 l 0.02,0.21 c -0.5,0 -0.64,0.55 -0.64,0.94 0,0.5 0.32,1.72 0.55,2.18 0.31,0.59 0.75,0.96 1.15,0.96 0.65,0 0.79,-0.82 0.79,-0.88 0,-0.06 -0.02,-0.12 -0.03,-0.17 l -0.5,-1.95 c -0.05,-0.18 -0.05,-0.2 -0.2,-0.37 -0.44,-0.55 -0.84,-0.71 -1.12,-0.71 l -0.02,-0.21 c 0.2,0 0.69,0.04 1.29,0.74 0.08,-0.42 0.43,-0.74 0.91,-0.74 0.35,0 0.58,0.22 0.74,0.54 0.17,0.36 0.3,0.97 0.3,0.99 0,0.1 -0.09,0.1 -0.12,0.1 -0.1,0 -0.11,-0.04 -0.14,-0.18 -0.17,-0.65 -0.35,-1.24 -0.76,-1.24 -0.27,0 -0.3,0.26 -0.3,0.46 0,0.24 0.02,0.31 0.06,0.48 z"
   id="path7209" />
<path
   style="fill:#000000;stroke-width:0"
   d="m 236.22,483.27 0.01,0.03 0.01,0.03 0.01,0.03 0,0.03 0.01,0.03 0.01,0.02 0.01,0.03 0.01,0.02 0.01,0.02 0.01,0.02 0.01,0.02 0.02,0.02 0.01,0.02 0.02,0.01 0.01,0.02 0.02,0.01 0.02,0.01 0.03,0.01 0.02,0.01 0.03,0.01 0.03,0.01 0.03,0.01 0.02,0 0.02,0.01 0.02,0 0.02,0 0.02,0.01 0.02,0 0.02,0 0.02,0 0.02,0 0.03,0.01 0.02,0 0.03,0 0.03,0 0.02,0 0.03,0 0.03,0 0.03,0 0.03,0 0.04,0 0.03,0 c 0.26,0 0.34,0 0.34,0.2 0,0.11 -0.11,0.11 -0.14,0.11 -0.28,0 -1,-0.03 -1.28,-0.03 -0.28,0 -0.99,0.03 -1.28,0.03 -0.08,0 -0.19,0 -0.19,-0.2 0,-0.11 0.09,-0.11 0.28,-0.11 0.02,0 0.21,0 0.38,-0.02 0.18,-0.02 0.27,-0.03 0.27,-0.15 0,-0.04 -0.01,-0.07 -0.04,-0.19 l -0.6,-2.43 h -3.04 l 0.59,2.34 c 0.08,0.36 0.11,0.45 0.83,0.45 0.26,0 0.34,0 0.34,0.2 0,0.11 -0.11,0.11 -0.14,0.11 -0.28,0 -0.99,-0.03 -1.27,-0.03 -0.29,0 -1,0.03 -1.29,0.03 -0.08,0 -0.19,0 -0.19,-0.2 0,-0.11 0.09,-0.11 0.28,-0.11 0.02,0 0.21,0 0.38,-0.02 0.18,-0.02 0.27,-0.03 0.27,-0.15 0,-0.04 -0.01,-0.07 -0.04,-0.19 l -1.34,-5.35 c -0.1,-0.39 -0.12,-0.47 -0.91,-0.47 -0.17,0 -0.26,0 -0.26,-0.2 0,-0.11 0.12,-0.11 0.14,-0.11 0.28,0 0.98,0.04 1.26,0.04 0.21,0 0.43,-0.01 0.64,-0.01 0.22,0 0.44,-0.03 0.65,-0.03 0.08,0 0.2,0 0.2,0.2 0,0.11 -0.09,0.11 -0.28,0.11 -0.37,0 -0.65,0 -0.65,0.18 0,0.06 0.02,0.11 0.03,0.17 l 0.68,2.73 h 3.04 c -0.42,-1.65 -0.65,-2.6 -0.69,-2.75 -0.1,-0.32 -0.29,-0.33 -0.91,-0.33 -0.15,0 -0.24,0 -0.24,-0.2 0,-0.11 0.12,-0.11 0.14,-0.11 0.28,0 0.99,0.04 1.27,0.04 0.21,0 0.43,-0.01 0.64,-0.01 0.22,0 0.44,-0.03 0.64,-0.03 0.08,0 0.2,0 0.2,0.2 0,0.11 -0.09,0.11 -0.27,0.11 -0.37,0 -0.65,0 -0.65,0.18 0,0.06 0.02,0.11 0.03,0.17 z"
   id="path7211" />
</g>    <g
       ns0:preamble="E:\\preamble.tex"
       ns0:text="$dN$"
       word-spacing="normal"
       letter-spacing="normal"
       font-size-adjust="none"
       font-stretch="normal"
       font-weight="normal"
       font-variant="normal"
       font-style="normal"
       stroke-miterlimit="10.433"
       xml:space="preserve"
       transform="matrix(1.35,0,0,-1.35,-323.1875,802.89359)"
       id="g7302"
       style="font-style:normal;font-variant:normal;font-weight:normal;font-stretch:normal;letter-spacing:normal;word-spacing:normal;text-anchor:start;fill:none;stroke:#000000;stroke-linecap:butt;stroke-linejoin:miter;stroke-miterlimit:10.43299961;stroke-opacity:1;stroke-dasharray:none;stroke-dashoffset:0">
<path
   id="path7304"
   d="m 228.58,484.03 0,0 0,0 0,0.01 0,0 0,0 0,0 0,0.01 -0.01,0 0,0 0,0.01 0,0 0,0.01 0,0 0,0.01 0,0 -0.01,0.01 0,0 0,0.01 -0.01,0 0,0.01 -0.01,0 0,0 0,0 0,0.01 -0.01,0 0,0 0,0 -0.01,0 0,0.01 0,0 -0.01,0 0,0 0,0 -0.01,0 0,0.01 -0.01,0 0,0 -0.01,0 0,0 -0.01,0 0,0 -0.01,0 0,0 -0.01,0 0,0 c -0.15,0 -1.1,-0.09 -1.27,-0.11 -0.08,-0.01 -0.14,-0.06 -0.14,-0.19 0,-0.12 0.09,-0.12 0.24,-0.12 0.48,0 0.5,-0.07 0.5,-0.17 l -0.03,-0.19 -0.6,-2.36 c -0.18,0.36 -0.47,0.63 -0.92,0.63 -1.16,0 -2.4,-1.46 -2.4,-2.91 0,-0.94 0.55,-1.59 1.33,-1.59 l 0.02,0.21 c -0.5,0 -0.64,0.55 -0.64,0.94 0,0.5 0.32,1.72 0.55,2.18 0.31,0.59 0.75,0.96 1.15,0.96 0.65,0 0.79,-0.82 0.79,-0.88 0,-0.06 -0.02,-0.12 -0.03,-0.17 l -0.5,-1.95 c -0.05,-0.18 -0.05,-0.2 -0.2,-0.37 -0.44,-0.55 -0.84,-0.71 -1.12,-0.71 l -0.02,-0.21 c 0.2,0 0.69,0.04 1.29,0.74 0.08,-0.42 0.43,-0.74 0.91,-0.74 0.35,0 0.58,0.22 0.74,0.54 0.17,0.36 0.3,0.97 0.3,0.99 0,0.1 -0.09,0.1 -0.12,0.1 -0.1,0 -0.11,-0.04 -0.14,-0.18 -0.17,-0.65 -0.35,-1.24 -0.76,-1.24 -0.27,0 -0.3,0.26 -0.3,0.46 0,0.24 0.02,0.31 0.06,0.48 z"
   style="fill:#000000;stroke-width:0" />
<path
   id="path7306"
   d="m 236.15,482.99 0.02,0.07 0.01,0.04 0.02,0.03 0.01,0.04 0.01,0.03 0.02,0.03 0.01,0.04 0.02,0.03 0.02,0.03 0.02,0.03 0.02,0.03 0.02,0.03 0.03,0.02 0.02,0.03 0.03,0.02 0.03,0.03 0.03,0.02 0.04,0.02 0.04,0.02 0.04,0.02 0.04,0.02 0.04,0.02 0.05,0.01 0.05,0.02 0.05,0.01 0.06,0.01 0.06,0.01 0.06,0.01 0.07,0.01 0.07,0 0.03,0 0.04,0 c 0.05,0 0.17,0.01 0.17,0.2 0,0.01 0,0.11 -0.13,0.11 -0.33,0 -0.68,-0.03 -1.01,-0.03 -0.34,0 -0.69,0.03 -1.01,0.03 -0.06,0 -0.18,0 -0.18,-0.2 0,-0.11 0.1,-0.11 0.18,-0.11 0.57,-0.01 0.67,-0.21 0.67,-0.43 0,-0.03 -0.02,-0.18 -0.03,-0.21 l -1.11,-4.43 -2.21,5.19 c -0.08,0.18 -0.08,0.19 -0.31,0.19 h -1.34 c -0.2,0 -0.29,0 -0.29,-0.2 0,-0.11 0.09,-0.11 0.28,-0.11 0.05,0 0.68,0 0.68,-0.09 l -1.34,-5.34 c -0.1,-0.4 -0.27,-0.72 -1.07,-0.75 -0.06,0 -0.17,-0.01 -0.17,-0.2 0,-0.07 0.05,-0.11 0.13,-0.11 0.32,0 0.66,0.04 0.99,0.04 0.34,0 0.7,-0.04 1.03,-0.04 0.05,0 0.18,0 0.18,0.2 0,0.1 -0.09,0.11 -0.2,0.11 -0.58,0.02 -0.66,0.24 -0.66,0.44 0,0.07 0.01,0.12 0.04,0.23 l 1.32,5.25 c 0.04,-0.06 0.04,-0.07 0.09,-0.17 l 2.48,-5.87 c 0.07,-0.16 0.1,-0.19 0.19,-0.19 0.11,0 0.11,0.04 0.16,0.21 z"
   style="fill:#000000;stroke-width:0" />
</g>    <g
       style="font-style:normal;font-variant:normal;font-weight:normal;font-stretch:normal;letter-spacing:normal;word-spacing:normal;text-anchor:start;fill:none;stroke:#000000;stroke-linecap:butt;stroke-linejoin:miter;stroke-miterlimit:10.43299961;stroke-opacity:1;stroke-dasharray:none;stroke-dashoffset:0"
       id="g7490"
       transform="matrix(1.35,0,0,-1.35,-375.55786,840.58078)"
       xml:space="preserve"
       stroke-miterlimit="10.433"
       font-style="normal"
       font-variant="normal"
       font-weight="normal"
       font-stretch="normal"
       font-size-adjust="none"
       letter-spacing="normal"
       word-spacing="normal"
       ns0:text="$\\dfrac{\\theta \'}{2}$"
       ns0:preamble="E:\\preamble.tex">
<path
   style="fill:#000000;stroke-width:0"
   d="m 229.16,484.68 0,0.07 0,0.07 0,0.07 -0.01,0.07 0,0.08 -0.01,0.08 -0.01,0.08 -0.01,0.08 -0.01,0.08 -0.02,0.09 -0.02,0.08 -0.02,0.09 -0.02,0.08 -0.02,0.09 -0.03,0.08 -0.03,0.08 -0.04,0.08 -0.03,0.08 -0.04,0.07 -0.05,0.07 -0.04,0.07 -0.05,0.06 -0.06,0.06 -0.06,0.06 -0.06,0.05 -0.03,0.02 -0.03,0.02 -0.04,0.02 -0.04,0.02 -0.03,0.02 -0.04,0.01 -0.04,0.02 -0.04,0.01 -0.04,0.01 -0.04,0.01 -0.05,0.01 -0.04,0 -0.05,0 -0.04,0 -0.01,-0.21 c 0.49,0 0.55,-0.64 0.55,-1.21 0,-0.49 -0.08,-0.99 -0.32,-1.98 h -2.09 c 0.17,0.64 0.37,1.43 0.77,2.14 0.27,0.49 0.64,1.05 1.09,1.05 l 0.01,0.21 c -1.39,0 -2.92,-2.8 -2.92,-5.08 0,-0.94 0.29,-2.04 1.19,-2.04 v 0.22 c -0.33,0 -0.53,0.29 -0.53,1.21 0,0.42 0.05,1 0.31,1.97 h 2.08 c -0.11,-0.46 -0.32,-1.3 -0.7,-2.02 -0.35,-0.68 -0.73,-1.16 -1.16,-1.16 v -0.22 c 1.41,0 2.92,2.85 2.92,5.08 z"
   id="path7492" />
<path
   style="fill:#000000;stroke-width:0"
   d="m 231.6,486.61 0.01,0.01 0,0.01 0.01,0.01 0,0.01 0,0.01 0.01,0.01 0,0.01 0,0 0.01,0.01 0,0.01 0,0.01 0,0.01 0.01,0 0,0.01 0,0.01 0,0 0,0.01 0.01,0.01 0,0 0,0.01 0,0 0,0.01 0,0 0,0.01 0,0.01 0,0.01 0,0.01 0,0.01 c 0,0.21 -0.19,0.38 -0.41,0.38 -0.26,0 -0.35,-0.22 -0.38,-0.33 l -0.92,-3.01 c -0.01,-0.01 -0.04,-0.1 -0.04,-0.11 0,-0.08 0.22,-0.15 0.28,-0.15 0.05,0 0.05,0.01 0.1,0.12 z"
   id="path7494" />
<line
   style="stroke-width:0.398"
   x1="224.63"
   y1="475.45999"
   x2="232.38"
   y2="475.45999"
   id="line7496" />
<path
   style="fill:#000000;stroke-width:0"
   d="m 227.28,466.9 1.05,1.03 c 1.56,1.37 2.16,1.91 2.16,2.9 0,1.14 -0.9,1.93 -2.12,1.93 -1.12,0 -1.86,-0.91 -1.86,-1.8 0,-0.56 0.5,-0.56 0.53,-0.56 0.17,0 0.52,0.12 0.52,0.53 0,0.26 -0.18,0.52 -0.53,0.52 -0.08,0 -0.1,0 -0.13,-0.01 0.23,0.65 0.77,1.01 1.34,1.01 0.91,0 1.34,-0.8 1.34,-1.62 0,-0.79 -0.5,-1.58 -1.05,-2.2 l -1.91,-2.13 c -0.11,-0.11 -0.11,-0.13 -0.11,-0.36 h 3.7 l 0.28,1.73 h -0.25 c -0.05,-0.3 -0.12,-0.74 -0.22,-0.89 -0.07,-0.08 -0.73,-0.08 -0.95,-0.08 z"
   id="path7498" />
</g>    <path
       sodipodi:nodetypes="cc"
       id="path5149-4-9"
       d="m -83.178,178.73909 29.805,0"
       style="fill:none;stroke:#000000;stroke-width:0.78307086;stroke-linecap:butt;stroke-linejoin:miter;stroke-miterlimit:4;stroke-opacity:1;stroke-dasharray:none;marker-start:url(#Arrow2Mstart);marker-end:url(#Arrow2Mend-21-24)" />
    <path
       sodipodi:nodetypes="cc"
       style="fill:none;stroke:#000000;stroke-width:0.35433072;stroke-linecap:butt;stroke-linejoin:miter;stroke-miterlimit:4;stroke-opacity:1;stroke-dasharray:none;stroke-dashoffset:0;marker-end:none"
       d="m -85.623,24.739093 c 7.7e-4,0 -27.41,0 -27.41,0"
       id="path7913" />
    <path
       style="fill:none;stroke:#000000;stroke-width:0.35433072;stroke-linecap:butt;stroke-linejoin:miter;stroke-miterlimit:4;stroke-opacity:1;stroke-dasharray:none"
       d="m -59.16109,18.77003 -26.46191,5.9688 26.46191,-5.9688 z"
       id="path8125"
       sodipodi:nodetypes="ccc" />
    <path
       style="fill:none;stroke:#000000;stroke-width:0.78307086;stroke-linecap:butt;stroke-linejoin:miter;stroke-miterlimit:4;stroke-opacity:1;stroke-dasharray:none;marker-start:url(#Arrow2Mstart-1);marker-end:url(#Arrow2Mend-21-24)"
       d="M 0.562,283.59409 -58.893,19.949093"
       id="path8131"
       sodipodi:nodetypes="cc" />
  </g>
</svg>
