<?xml version="1.0" encoding="UTF-8" standalone="no"?>
<!-- Created with Inkscape (http://www.inkscape.org/) -->

<svg
   xmlns:ns0="http://www.iki.fi/pav/software/textext/"
   xmlns:osb="http://www.openswatchbook.org/uri/2009/osb"
   xmlns:dc="http://purl.org/dc/elements/1.1/"
   xmlns:cc="http://creativecommons.org/ns#"
   xmlns:rdf="http://www.w3.org/1999/02/22-rdf-syntax-ns#"
   xmlns:svg="http://www.w3.org/2000/svg"
   xmlns="http://www.w3.org/2000/svg"
   xmlns:sodipodi="http://sodipodi.sourceforge.net/DTD/sodipodi-0.dtd"
   xmlns:inkscape="http://www.inkscape.org/namespaces/inkscape"
   width="410.99359"
   height="136.60181"
   id="svg2"
   version="1.1"
   inkscape:version="0.47 r22583"
   sodipodi:docname="ApendiceB_1.svg">
  <sodipodi:namedview
     id="base"
     pagecolor="#ffffff"
     bordercolor="#666666"
     borderopacity="1.0"
     inkscape:pageopacity="0.0"
     inkscape:pageshadow="2"
     inkscape:zoom="1.4"
     inkscape:cx="26.033033"
     inkscape:cy="84.770916"
     inkscape:document-units="mm"
     inkscape:current-layer="layer1"
     showgrid="false"
     inkscape:snap-nodes="true"
     inkscape:window-width="1280"
     inkscape:window-height="898"
     inkscape:window-x="-8"
     inkscape:window-y="-8"
     inkscape:window-maximized="1"
     units="mm"
     showguides="false"
     inkscape:snap-bbox="true"
     inkscape:bbox-nodes="false"
     inkscape:object-nodes="false"
     inkscape:object-paths="false"
     inkscape:snap-bbox-midpoints="true"
     inkscape:snap-bbox-edge-midpoints="true" />
  <defs
     id="defs4">
    <inkscape:perspective
       sodipodi:type="inkscape:persp3d"
       inkscape:vp_x="0 : 212.59842 : 1"
       inkscape:vp_y="0 : 1000 : 0"
       inkscape:vp_z="318.89764 : 212.59842 : 1"
       inkscape:persp3d-origin="159.44882 : 141.73228 : 1"
       id="perspective2858" />
    <linearGradient
       id="linearGradient12593"
       osb:paint="solid">
      <stop
         style="stop-color:#ff5555;stop-opacity:1;"
         offset="0"
         id="stop12595" />
    </linearGradient>
    <marker
       inkscape:stockid="Arrow2Mend"
       orient="auto"
       refY="0"
       refX="0"
       id="Arrow2Mend"
       style="overflow:visible">
      <path
         id="path11080"
         style="fill-rule:evenodd;stroke-width:0.625;stroke-linejoin:round"
         d="M 8.7185878,4.0337352 -2.2072895,0.01601326 8.7185884,-4.0017078 c -1.7454984,2.3720609 -1.7354408,5.6174519 -6e-7,8.035443 z"
         transform="scale(-0.6,-0.6)"
         inkscape:connector-curvature="0" />
    </marker>
    <marker
       inkscape:stockid="Arrow2Lend"
       orient="auto"
       refY="0"
       refX="0"
       id="Arrow2Lend"
       style="overflow:visible">
      <path
         id="path11074"
         style="fill-rule:evenodd;stroke-width:0.625;stroke-linejoin:round"
         d="M 8.7185878,4.0337352 -2.2072895,0.01601326 8.7185884,-4.0017078 c -1.7454984,2.3720609 -1.7354408,5.6174519 -6e-7,8.035443 z"
         transform="matrix(-1.1,0,0,-1.1,-1.1,0)"
         inkscape:connector-curvature="0" />
    </marker>
    <inkscape:perspective
       sodipodi:type="inkscape:persp3d"
       inkscape:vp_x="0 : 0.5 : 1"
       inkscape:vp_y="0 : 1000 : 0"
       inkscape:vp_z="1 : 0.5 : 1"
       inkscape:persp3d-origin="0.5 : 0.33333333 : 1"
       id="perspective4024" />
    <inkscape:perspective
       sodipodi:type="inkscape:persp3d"
       inkscape:vp_x="0 : 0.5 : 1"
       inkscape:vp_y="0 : 1000 : 0"
       inkscape:vp_z="1 : 0.5 : 1"
       inkscape:persp3d-origin="0.5 : 0.33333333 : 1"
       id="perspective7544" />
    <inkscape:perspective
       sodipodi:type="inkscape:persp3d"
       inkscape:vp_x="0 : 0.5 : 1"
       inkscape:vp_y="0 : 1000 : 0"
       inkscape:vp_z="1 : 0.5 : 1"
       inkscape:persp3d-origin="0.5 : 0.33333333 : 1"
       id="perspective7652" />
    <inkscape:perspective
       sodipodi:type="inkscape:persp3d"
       inkscape:vp_x="0 : 0.5 : 1"
       inkscape:vp_y="0 : 1000 : 0"
       inkscape:vp_z="1 : 0.5 : 1"
       inkscape:persp3d-origin="0.5 : 0.33333333 : 1"
       id="perspective7689" />
    <inkscape:perspective
       sodipodi:type="inkscape:persp3d"
       inkscape:vp_x="0 : 0.5 : 1"
       inkscape:vp_y="0 : 1000 : 0"
       inkscape:vp_z="1 : 0.5 : 1"
       inkscape:persp3d-origin="0.5 : 0.33333333 : 1"
       id="perspective7717" />
    <inkscape:perspective
       sodipodi:type="inkscape:persp3d"
       inkscape:vp_x="0 : 0.5 : 1"
       inkscape:vp_y="0 : 1000 : 0"
       inkscape:vp_z="1 : 0.5 : 1"
       inkscape:persp3d-origin="0.5 : 0.33333333 : 1"
       id="perspective7745" />
    <inkscape:perspective
       sodipodi:type="inkscape:persp3d"
       inkscape:vp_x="0 : 0.5 : 1"
       inkscape:vp_y="0 : 1000 : 0"
       inkscape:vp_z="1 : 0.5 : 1"
       inkscape:persp3d-origin="0.5 : 0.33333333 : 1"
       id="perspective7770" />
    <inkscape:perspective
       sodipodi:type="inkscape:persp3d"
       inkscape:vp_x="0 : 0.5 : 1"
       inkscape:vp_y="0 : 1000 : 0"
       inkscape:vp_z="1 : 0.5 : 1"
       inkscape:persp3d-origin="0.5 : 0.33333333 : 1"
       id="perspective7807" />
  </defs>
  <metadata
     id="metadata7">
    <rdf:RDF>
      <cc:Work
         rdf:about="">
        <dc:format>image/svg+xml</dc:format>
        <dc:type
           rdf:resource="http://purl.org/dc/dcmitype/StillImage" />
        <dc:title />
      </cc:Work>
    </rdf:RDF>
  </metadata>
  <g
     inkscape:label="Capa 1"
     inkscape:groupmode="layer"
     id="layer1"
     transform="translate(-382.53217,-792.5523)">
    <g
       id="g8509">
      <path
         sodipodi:nodetypes="cccc"
         id="path3237"
         d="m 475.1072,905.86881 273.41487,0 0,-91.13827 -273.41487,0"
         style="fill:none;stroke:#000000;stroke-width:0.99921262;stroke-linecap:butt;stroke-linejoin:miter;stroke-miterlimit:4;stroke-opacity:1;stroke-dasharray:none" />
      <path
         sodipodi:nodetypes="cc"
         id="path3239"
         d="m 566.24549,905.86881 0,-91.13827"
         style="fill:none;stroke:#000000;stroke-width:0.99921262;stroke-linecap:butt;stroke-linejoin:miter;stroke-miterlimit:4;stroke-opacity:1;stroke-dasharray:none" />
      <path
         sodipodi:nodetypes="cc"
         id="path3241"
         d="m 657.38378,905.86881 0,-91.13827"
         style="fill:none;stroke:#000000;stroke-width:0.99921262;stroke-linecap:butt;stroke-linejoin:miter;stroke-miterlimit:4;stroke-opacity:1;stroke-dasharray:none" />
      <path
         sodipodi:nodetypes="ccccc"
         id="path3243"
         d="m 730.29441,924.09647 0,-127.59359 36.45532,0 0,127.59359 -36.45532,0 z"
         style="fill:none;stroke:#000000;stroke-width:0.99921262;stroke-linecap:butt;stroke-linejoin:miter;stroke-miterlimit:4;stroke-opacity:1;stroke-dasharray:2.9976378, 2.9976378;stroke-dashoffset:0" />
      <g
         ns0:preamble=""
         ns0:text="$\\Gamma_{\\mbox{\\scriptsize M}}$"
         word-spacing="normal"
         letter-spacing="normal"
         font-size-adjust="none"
         font-stretch="normal"
         font-weight="normal"
         font-variant="normal"
         font-style="normal"
         stroke-miterlimit="10.433"
         xml:space="preserve"
         transform="matrix(1.35,0,0,-1.35,155.49459,1818.4689)"
         id="g6262"
         style="font-style:normal;font-variant:normal;font-weight:normal;font-stretch:normal;letter-spacing:normal;word-spacing:normal;text-anchor:start;fill:none;stroke:#000000;stroke-linecap:butt;stroke-linejoin:miter;stroke-miterlimit:10.43299961;stroke-opacity:1;stroke-dasharray:none;stroke-dashoffset:0">
<path
   id="path6264"
   d="m 228.94,713.88 h -5.18 v -0.31 H 224 c 0.76,0 0.79,-0.11 0.79,-0.47 v -5.2 c 0,-0.36 -0.03,-0.47 -0.79,-0.47 h -0.24 v -0.3 c 0.35,0.03 1.12,0.03 1.51,0.03 0.41,0 1.32,0 1.67,-0.03 v 0.3 h -0.32 c -0.95,0 -0.95,0.13 -0.95,0.48 v 5.26 c 0,0.33 0.02,0.4 0.49,0.4 h 1.02 c 1.43,0 1.64,-0.58 1.79,-1.92 h 0.25 z"
   style="fill:#000000;stroke-width:0" />
<path
   id="path6266"
   d="m 231.57,710.23 0,0.01 -0.01,0.01 0,0.02 -0.01,0.01 0,0.01 -0.01,0.01 -0.01,0.01 0,0.01 -0.01,0 -0.01,0.01 0,0.01 -0.01,0 -0.01,0.01 0,0 -0.01,0.01 -0.01,0 0,0 -0.01,0.01 -0.01,0 -0.01,0 -0.01,0 -0.01,0.01 -0.01,0 -0.01,0 -0.01,0 -0.01,0 -0.01,0 -0.01,0 -0.01,0 -0.01,0 -0.02,0 -0.01,0 h -1.22 v -0.25 h 0.17 c 0.53,0 0.55,-0.07 0.55,-0.31 v -3.44 c 0,-0.19 0,-0.5 -0.72,-0.5 v -0.25 c 0.29,0.02 0.56,0.03 0.85,0.03 0.29,0 0.57,-0.01 0.85,-0.03 v 0.25 c -0.72,0 -0.72,0.31 -0.72,0.5 v 3.67 l 0.01,0 1.81,-4.26 c 0.04,-0.08 0.07,-0.16 0.18,-0.16 0.04,0 0.11,0.02 0.16,0.15 l 1.84,4.34 0.01,0 v -3.93 c 0,-0.23 -0.02,-0.31 -0.55,-0.31 h -0.17 v -0.25 c 0.33,0.02 0.72,0.03 1.01,0.03 0.28,0 0.67,-0.01 1.01,-0.03 v 0.25 h -0.17 c -0.53,0 -0.55,0.07 -0.55,0.31 v 3.63 c 0,0.23 0.02,0.31 0.55,0.31 h 0.17 v 0.25 h -1.21 c -0.14,0 -0.2,0 -0.26,-0.14 l -1.67,-3.94 z"
   style="fill:#000000;stroke-width:0" />
</g>      <g
         style="font-style:normal;font-variant:normal;font-weight:normal;font-stretch:normal;letter-spacing:normal;word-spacing:normal;text-anchor:start;fill:none;stroke:#000000;stroke-linecap:butt;stroke-linejoin:miter;stroke-miterlimit:10.43299961;stroke-opacity:1;stroke-dasharray:none;stroke-dashoffset:0"
         id="g6469"
         transform="matrix(1.35,0,0,-1.35,475.80326,1818.3744)"
         xml:space="preserve"
         stroke-miterlimit="10.433"
         font-style="normal"
         font-variant="normal"
         font-weight="normal"
         font-stretch="normal"
         font-size-adjust="none"
         letter-spacing="normal"
         word-spacing="normal"
         ns0:text="$\\Gamma_{\\mbox{\\scriptsize R}}$"
         ns0:preamble="">
<path
   style="fill:#000000;stroke-width:0"
   d="m 228.94,713.88 h -5.18 v -0.31 H 224 c 0.76,0 0.79,-0.11 0.79,-0.47 v -5.2 c 0,-0.36 -0.03,-0.47 -0.79,-0.47 h -0.24 v -0.3 c 0.35,0.03 1.12,0.03 1.51,0.03 0.41,0 1.32,0 1.67,-0.03 v 0.3 h -0.32 c -0.95,0 -0.95,0.13 -0.95,0.48 v 5.26 c 0,0.33 0.02,0.4 0.49,0.4 h 1.02 c 1.43,0 1.64,-0.58 1.79,-1.92 h 0.25 z"
   id="path6471" />
<path
   style="fill:#000000;stroke-width:0"
   d="m 233.15,708 0.06,0.02 0.06,0.01 0.06,0.02 0.06,0.02 0.06,0.02 0.05,0.02 0.06,0.02 0.06,0.03 0.05,0.03 0.05,0.02 0.06,0.03 0.05,0.03 0.05,0.03 0.05,0.04 0.04,0.03 0.05,0.04 0.04,0.03 0.04,0.04 0.04,0.04 0.04,0.04 0.03,0.04 0.03,0.04 0.03,0.05 0.03,0.04 0.03,0.05 0.02,0.04 0.02,0.05 0.01,0.05 0.01,0.05 0.01,0.05 0.01,0.05 0,0.05 c 0,0.7 -0.92,1.26 -2,1.26 h -2.35 v -0.25 h 0.17 c 0.54,0 0.55,-0.07 0.55,-0.31 v -3.63 c 0,-0.23 -0.01,-0.31 -0.55,-0.31 h -0.17 v -0.25 c 0.01,0 0.75,0.03 1.03,0.03 0.3,0 0.69,-0.01 1.04,-0.03 v 0.25 h -0.17 c -0.53,0 -0.55,0.07 -0.55,0.31 v 1.72 0.2 1.75 c 0,0.19 0.01,0.24 0.19,0.26 0.06,0.01 0.3,0.01 0.44,0.01 0.67,0 1.62,0 1.62,-1.01 0,-0.78 -0.6,-1.01 -1.34,-1.01 h 0 -0.91 v -0.2 h 0.93 c 0.13,0 0.49,0 0.79,-0.28 0.25,-0.22 0.25,-0.39 0.25,-0.86 0,-0.45 0,-0.74 0.32,-1 0.3,-0.24 0.71,-0.28 0.9,-0.28 0.6,0 0.75,0.56 0.75,0.77 0,0.05 0,0.14 -0.12,0.14 -0.1,0 -0.11,-0.07 -0.12,-0.14 -0.03,-0.4 -0.26,-0.57 -0.48,-0.57 -0.39,0 -0.45,0.41 -0.53,1.04 -0.08,0.56 -0.1,0.67 -0.3,0.9 -0.07,0.07 -0.27,0.25 -0.65,0.37 z"
   id="path6473" />
</g>      <g
         ns0:preamble=""
         ns0:text="$\\mbox{E}_{\\mbox{\\scriptsize D}}$"
         word-spacing="normal"
         letter-spacing="normal"
         font-size-adjust="none"
         font-stretch="normal"
         font-weight="normal"
         font-variant="normal"
         font-style="normal"
         stroke-miterlimit="10.433"
         xml:space="preserve"
         transform="matrix(1.35,0,0,-1.35,238.38671,1818.4689)"
         id="content"
         style="font-style:normal;font-variant:normal;font-weight:normal;font-stretch:normal;letter-spacing:normal;word-spacing:normal;text-anchor:start;fill:none;stroke:#000000;stroke-linecap:butt;stroke-linejoin:miter;stroke-miterlimit:10.43299961;stroke-opacity:1;stroke-dasharray:none;stroke-dashoffset:0">
<path
   id="path6677"
   d="m 224.79,707.9 -0.01,-0.03 0,-0.03 0,-0.03 0,-0.03 0,-0.03 0,-0.03 -0.01,-0.02 0,-0.02 -0.01,-0.03 0,-0.02 -0.01,-0.02 -0.01,-0.02 -0.01,-0.01 -0.02,-0.02 -0.01,-0.01 -0.02,-0.02 -0.02,-0.01 -0.02,-0.01 -0.02,-0.01 -0.01,0 -0.01,-0.01 -0.02,0 -0.01,-0.01 -0.02,0 -0.01,-0.01 -0.02,0 -0.02,0 -0.02,-0.01 -0.01,0 -0.03,0 -0.02,-0.01 -0.02,0 -0.02,0 -0.02,0 -0.03,-0.01 -0.02,0 -0.03,0 -0.03,0 -0.03,0 -0.02,0 -0.03,0 -0.04,-0.01 -0.03,0 -0.03,0 -0.04,0 -0.03,0 h -0.24 v -0.3 h 5.74 l 0.42,2.56 h -0.25 c -0.25,-1.53 -0.48,-2.26 -2.19,-2.26 h -1.32 c -0.47,0 -0.49,0.07 -0.49,0.4 v 2.65 h 0.9 c 0.96,0 1.07,-0.32 1.07,-1.16 h 0.25 v 2.63 h -0.25 c 0,-0.85 -0.11,-1.16 -1.07,-1.16 h -0.9 v 2.38 c 0,0.33 0.02,0.4 0.49,0.4 h 1.28 c 1.52,0 1.79,-0.54 1.95,-1.92 h 0.25 l -0.28,2.23 h -5.6 v -0.31 H 224 c 0.76,0 0.79,-0.11 0.79,-0.47 z"
   style="fill:#000000;stroke-width:0" />
<path
   id="path6679"
   d="m 230.62,710.38 v -0.25 h 0.16 c 0.54,0 0.55,-0.07 0.55,-0.31 v -3.63 c 0,-0.23 -0.01,-0.31 -0.55,-0.31 h -0.16 v -0.25 h 2.74 l -0.19,0.25 h -0.87 c -0.33,0 -0.33,0.06 -0.33,0.27 v 3.71 c 0,0.21 0,0.27 0.33,0.27 h 0.86 c 0.6,0 1.11,-0.24 1.43,-0.65 0.29,-0.38 0.4,-0.91 0.4,-1.51 0,-0.81 -0.2,-1.23 -0.45,-1.52 -0.31,-0.35 -0.81,-0.57 -1.37,-0.57 l 0.19,-0.25 c 1.28,0 2.35,1.03 2.35,2.34 0,1.32 -1.06,2.41 -2.35,2.41 z"
   style="fill:#000000;stroke-width:0" />
</g>      <g
         ns0:preamble=""
         ns0:text="$\\mbox{E}_{\\mbox{\\scriptsize T}}$"
         word-spacing="normal"
         letter-spacing="normal"
         font-size-adjust="none"
         font-stretch="normal"
         font-weight="normal"
         font-variant="normal"
         font-style="normal"
         stroke-miterlimit="10.433"
         xml:space="preserve"
         transform="matrix(1.35,0,0,-1.35,301.78039,1881.7546)"
         id="g7098"
         style="font-style:normal;font-variant:normal;font-weight:normal;font-stretch:normal;letter-spacing:normal;word-spacing:normal;text-anchor:start;fill:none;stroke:#000000;stroke-linecap:butt;stroke-linejoin:miter;stroke-miterlimit:10.43299961;stroke-opacity:1;stroke-dasharray:none;stroke-dashoffset:0">
<path
   id="path7100"
   d="m 224.79,707.9 -0.01,-0.03 0,-0.03 0,-0.03 0,-0.03 0,-0.03 0,-0.03 -0.01,-0.02 0,-0.02 -0.01,-0.03 0,-0.02 -0.01,-0.02 -0.01,-0.02 -0.01,-0.01 -0.02,-0.02 -0.01,-0.01 -0.02,-0.02 -0.02,-0.01 -0.02,-0.01 -0.02,-0.01 -0.01,0 -0.01,-0.01 -0.02,0 -0.01,-0.01 -0.02,0 -0.01,-0.01 -0.02,0 -0.02,0 -0.02,-0.01 -0.01,0 -0.03,0 -0.02,-0.01 -0.02,0 -0.02,0 -0.02,0 -0.03,-0.01 -0.02,0 -0.03,0 -0.03,0 -0.03,0 -0.02,0 -0.03,0 -0.04,-0.01 -0.03,0 -0.03,0 -0.04,0 -0.03,0 h -0.24 v -0.3 h 5.74 l 0.42,2.56 h -0.25 c -0.25,-1.53 -0.48,-2.26 -2.19,-2.26 h -1.32 c -0.47,0 -0.49,0.07 -0.49,0.4 v 2.65 h 0.9 c 0.96,0 1.07,-0.32 1.07,-1.16 h 0.25 v 2.63 h -0.25 c 0,-0.85 -0.11,-1.16 -1.07,-1.16 h -0.9 v 2.38 c 0,0.33 0.02,0.4 0.49,0.4 h 1.28 c 1.52,0 1.79,-0.54 1.95,-1.92 h 0.25 l -0.28,2.23 h -5.6 v -0.31 H 224 c 0.76,0 0.79,-0.11 0.79,-0.47 z"
   style="fill:#000000;stroke-width:0" />
<path
   id="path7102"
   d="m 235.4,710.33 h -4.71 l -0.14,-1.6 h 0.23 c 0.1,1.2 0.3,1.35 1.37,1.35 0.14,0 0.35,0 0.42,-0.01 0.15,-0.02 0.15,-0.1 0.15,-0.26 v -3.61 c 0,-0.23 0,-0.32 -0.73,-0.32 h -0.29 v -0.25 c 0.34,0.03 0.99,0.03 1.35,0.03 0.37,0 1.01,0 1.35,-0.03 v 0.25 h -0.3 c -0.72,0 -0.72,0.09 -0.72,0.32 v 3.61 c 0,0.16 0,0.24 0.15,0.26 0.07,0.01 0.28,0.01 0.42,0.01 0.39,0 0.68,0 0.93,-0.14 0.31,-0.18 0.36,-0.63 0.37,-0.66 l 0.06,-0.55 h 0.24 z"
   style="fill:#000000;stroke-width:0" />
</g>      <g
         style="font-style:normal;font-variant:normal;font-weight:normal;font-stretch:normal;letter-spacing:normal;word-spacing:normal;text-anchor:start;fill:none;stroke:#000000;stroke-linecap:butt;stroke-linejoin:miter;stroke-miterlimit:10.43299961;stroke-opacity:1;stroke-dasharray:none;stroke-dashoffset:0"
         id="g7314"
         transform="matrix(1.35,0,0,-1.35,364.13456,1818.4689)"
         xml:space="preserve"
         stroke-miterlimit="10.433"
         font-style="normal"
         font-variant="normal"
         font-weight="normal"
         font-stretch="normal"
         font-size-adjust="none"
         letter-spacing="normal"
         word-spacing="normal"
         ns0:text="$\\mbox{E}_{\\mbox{\\scriptsize M}}$"
         ns0:preamble="">
<path
   style="fill:#000000;stroke-width:0"
   d="m 224.79,707.9 -0.01,-0.03 0,-0.03 0,-0.03 0,-0.03 0,-0.03 0,-0.03 -0.01,-0.02 0,-0.02 -0.01,-0.03 0,-0.02 -0.01,-0.02 -0.01,-0.02 -0.01,-0.01 -0.02,-0.02 -0.01,-0.01 -0.02,-0.02 -0.02,-0.01 -0.02,-0.01 -0.02,-0.01 -0.01,0 -0.01,-0.01 -0.02,0 -0.01,-0.01 -0.02,0 -0.01,-0.01 -0.02,0 -0.02,0 -0.02,-0.01 -0.01,0 -0.03,0 -0.02,-0.01 -0.02,0 -0.02,0 -0.02,0 -0.03,-0.01 -0.02,0 -0.03,0 -0.03,0 -0.03,0 -0.02,0 -0.03,0 -0.04,-0.01 -0.03,0 -0.03,0 -0.04,0 -0.03,0 h -0.24 v -0.3 h 5.74 l 0.42,2.56 h -0.25 c -0.25,-1.53 -0.48,-2.26 -2.19,-2.26 h -1.32 c -0.47,0 -0.49,0.07 -0.49,0.4 v 2.65 h 0.9 c 0.96,0 1.07,-0.32 1.07,-1.16 h 0.25 v 2.63 h -0.25 c 0,-0.85 -0.11,-1.16 -1.07,-1.16 h -0.9 v 2.38 c 0,0.33 0.02,0.4 0.49,0.4 h 1.28 c 1.52,0 1.79,-0.54 1.95,-1.92 h 0.25 l -0.28,2.23 h -5.6 v -0.31 H 224 c 0.76,0 0.79,-0.11 0.79,-0.47 z"
   id="path7316" />
<path
   style="fill:#000000;stroke-width:0"
   d="m 232.13,710.23 -0.01,0.01 0,0.01 -0.01,0.02 -0.01,0.01 0,0.01 -0.01,0.01 0,0.01 -0.01,0.01 -0.01,0 0,0.01 -0.01,0.01 -0.01,0 0,0.01 -0.01,0 -0.01,0.01 0,0 -0.01,0 -0.01,0.01 -0.01,0 -0.01,0 0,0 -0.01,0.01 -0.01,0 -0.01,0 -0.01,0 -0.01,0 -0.01,0 -0.02,0 -0.01,0 -0.01,0 -0.01,0 -0.02,0 h -1.22 v -0.25 h 0.17 c 0.54,0 0.55,-0.07 0.55,-0.31 v -3.44 c 0,-0.19 0,-0.5 -0.72,-0.5 v -0.25 c 0.29,0.02 0.57,0.03 0.85,0.03 0.29,0 0.57,-0.01 0.85,-0.03 v 0.25 c -0.71,0 -0.71,0.31 -0.71,0.5 v 3.67 l 0,0 1.81,-4.26 c 0.04,-0.08 0.07,-0.16 0.18,-0.16 0.05,0 0.11,0.02 0.17,0.15 l 1.83,4.34 0.01,0 v -3.93 c 0,-0.23 -0.01,-0.31 -0.55,-0.31 h -0.17 v -0.25 c 0.34,0.02 0.73,0.03 1.01,0.03 0.29,0 0.68,-0.01 1.01,-0.03 v 0.25 h -0.16 c -0.54,0 -0.56,0.07 -0.56,0.31 v 3.63 c 0,0.23 0.02,0.31 0.56,0.31 h 0.16 v 0.25 h -1.21 c -0.14,0 -0.2,0 -0.26,-0.14 l -1.67,-3.94 z"
   id="path7318" />
</g>      <g
         ns0:preamble=""
         ns0:text="1"
         word-spacing="normal"
         letter-spacing="normal"
         font-size-adjust="none"
         font-stretch="normal"
         font-weight="normal"
         font-variant="normal"
         font-style="normal"
         stroke-miterlimit="10.433"
         xml:space="preserve"
         transform="matrix(1.35,0,0,-1.35,306.76864,1756.1013)"
         id="g7536"
         style="font-style:normal;font-variant:normal;font-weight:normal;font-stretch:normal;letter-spacing:normal;word-spacing:normal;text-anchor:start;fill:none;stroke:#000000;stroke-linecap:butt;stroke-linejoin:miter;stroke-miterlimit:10.43299961;stroke-opacity:1;stroke-dasharray:none;stroke-dashoffset:0">
<path
   id="path7538"
   d="m 226.36,713.48 0,0.01 0,0.01 0,0.02 0,0.01 0,0 0,0.01 0,0.01 0,0.01 0,0.01 0,0.01 0,0.01 0,0.01 0,0 -0.01,0.01 0,0.01 0,0 0,0.01 0,0.01 0,0.01 0,0.01 -0.01,0.01 0,0.01 0,0.01 -0.01,0 0,0.01 -0.01,0.01 0,0 -0.01,0.01 -0.01,0 -0.01,0.01 0,0 -0.01,0 0,0 -0.01,0 0,0 -0.01,0 -0.01,0.01 0,0 -0.01,0 -0.01,0 0,0 -0.01,0 -0.01,0 -0.01,0 0,0 -0.01,0 -0.01,0 -0.01,0 -0.01,0 -0.01,0 -0.01,0 -0.01,0 c -0.62,-0.64 -1.49,-0.64 -1.81,-0.64 v -0.3 c 0.2,0 0.78,0 1.3,0.25 v -5.14 c 0,-0.36 -0.03,-0.48 -0.92,-0.48 h -0.32 v -0.3 c 0.35,0.03 1.21,0.03 1.61,0.03 0.4,0 1.26,0 1.61,-0.03 v 0.3 h -0.32 c -0.89,0 -0.92,0.11 -0.92,0.48 z"
   style="fill:#000000;stroke-width:0" />
</g>      <g
         ns0:preamble=""
         ns0:text="\\centering\nPOTENCIA\\\\\nINCIDENTE"
         word-spacing="normal"
         letter-spacing="normal"
         font-size-adjust="none"
         font-stretch="normal"
         font-weight="normal"
         font-variant="normal"
         font-style="normal"
         stroke-miterlimit="10.433"
         xml:space="preserve"
         transform="matrix(1.35,0,0,-1.35,-108.20633,1765.4342)"
         id="g7996"
         style="font-style:normal;font-variant:normal;font-weight:normal;font-stretch:normal;letter-spacing:normal;word-spacing:normal;text-anchor:start;fill:none;stroke:#000000;stroke-linecap:butt;stroke-linejoin:miter;stroke-miterlimit:10.43299961;stroke-opacity:1;stroke-dasharray:none;stroke-dashoffset:0">
<path
   id="path7998"
   d="m 370.42,710.26 -0.02,0.26 v 2.69 c 0,0.32 0.02,0.39 0.48,0.39 h 0.89 c 1.58,0 1.58,-1.05 1.58,-1.54 0,-0.47 0,-1.54 -1.58,-1.54 h -1.37 l 0.02,-0.26 h 1.69 c 1.19,0 2.27,0.81 2.27,1.8 0,0.98 -0.99,1.85 -2.35,1.85 h -3.51 v -0.31 h 0.23 c 0.77,0 0.79,-0.11 0.79,-0.46 v -5.24 c 0,-0.36 -0.02,-0.47 -0.79,-0.47 h -0.23 v -0.3 c 0.34,0.03 1.08,0.03 1.46,0.03 0.38,0 1.12,0 1.47,-0.03 v 0.3 h -0.24 c -0.76,0 -0.79,0.11 -0.79,0.47 z"
   style="fill:#000000;stroke-width:0" />
<path
   id="path8000"
   d="m 382.12,710.49 0,0.19 -0.02,0.19 -0.02,0.18 -0.03,0.18 -0.03,0.18 -0.05,0.17 -0.05,0.17 -0.06,0.17 -0.07,0.16 -0.07,0.15 -0.08,0.16 -0.09,0.14 -0.09,0.15 -0.1,0.13 -0.11,0.13 -0.11,0.13 -0.11,0.12 -0.12,0.11 -0.13,0.11 -0.13,0.1 -0.13,0.1 -0.14,0.08 -0.14,0.08 -0.15,0.07 -0.15,0.07 -0.15,0.06 -0.16,0.04 -0.16,0.04 -0.16,0.04 -0.17,0.02 -0.16,0.01 -0.17,0.01 v -0.25 c 0.86,0 2.29,-0.71 2.29,-3.25 0,-2.63 -1.37,-3.47 -2.28,-3.47 h 0 c -0.96,0 -2.29,0.88 -2.29,3.47 0,2.58 1.45,3.25 2.28,3.25 v 0.25 c -1.78,0 -3.3,-1.59 -3.3,-3.64 0,-2.03 1.53,-3.58 3.3,-3.58 1.81,0 3.31,1.58 3.31,3.58 z"
   style="fill:#000000;stroke-width:0" />
<path
   id="path8002"
   d="m 389.32,713.85 h -6.08 l -0.19,-2.24 h 0.25 c 0.14,1.6 0.29,1.93 1.79,1.93 0.18,0 0.44,0 0.54,-0.02 0.21,-0.04 0.21,-0.15 0.21,-0.37 v -5.24 c 0,-0.34 0,-0.48 -1.04,-0.48 h -0.4 v -0.3 c 0.41,0.03 1.42,0.03 1.88,0.03 0.46,0 1.48,0 1.89,-0.03 v 0.3 h -0.4 c -1.04,0 -1.04,0.14 -1.04,0.48 v 5.24 c 0,0.19 0,0.33 0.17,0.37 0.11,0.02 0.38,0.02 0.57,0.02 1.5,0 1.65,-0.33 1.79,-1.93 h 0.25 z"
   style="fill:#000000;stroke-width:0" />
<path
   id="path8004"
   d="m 391.24,707.9 0,-0.03 0,-0.03 0,-0.03 0,-0.03 0,-0.03 0,-0.03 -0.01,-0.02 0,-0.02 -0.01,-0.03 0,-0.02 -0.01,-0.02 -0.01,-0.02 -0.01,-0.01 -0.02,-0.02 -0.01,-0.01 -0.02,-0.02 -0.02,-0.01 -0.02,-0.01 -0.02,-0.01 -0.01,0 -0.01,-0.01 -0.02,0 -0.01,-0.01 -0.02,0 -0.01,-0.01 -0.02,0 -0.02,0 -0.02,-0.01 -0.02,0 -0.02,0 -0.02,-0.01 -0.02,0 -0.02,0 -0.02,0 -0.03,-0.01 -0.02,0 -0.03,0 -0.03,0 -0.03,0 -0.03,0 -0.03,0 -0.03,-0.01 -0.03,0 -0.03,0 -0.04,0 -0.03,0 h -0.24 v -0.3 h 5.74 l 0.42,2.56 h -0.25 c -0.25,-1.53 -0.48,-2.26 -2.19,-2.26 h -1.32 c -0.47,0 -0.49,0.07 -0.49,0.4 v 2.65 h 0.89 c 0.97,0 1.08,-0.32 1.08,-1.16 h 0.25 v 2.63 h -0.25 c 0,-0.85 -0.11,-1.16 -1.08,-1.16 h -0.89 v 2.38 c 0,0.33 0.02,0.4 0.49,0.4 h 1.28 c 1.52,0 1.79,-0.54 1.95,-1.92 h 0.25 l -0.28,2.23 h -5.6 v -0.31 h 0.24 c 0.77,0 0.78,-0.11 0.78,-0.47 z"
   style="fill:#000000;stroke-width:0" />
<path
   id="path8006"
   d="m 398.98,713.78 -0.01,0.01 -0.01,0.01 0,0.01 -0.01,0.01 -0.01,0.01 0,0.01 -0.01,0 -0.01,0.01 0,0.01 -0.01,0 0,0.01 -0.01,0 -0.01,0.01 0,0 -0.01,0.01 -0.01,0 0,0 -0.01,0.01 -0.01,0 -0.01,0 -0.01,0 -0.01,0 -0.01,0.01 -0.01,0 -0.01,0 -0.01,0 -0.01,0 -0.02,0 -0.01,0 -0.01,0 0,0 -0.01,0 -0.01,0 -0.01,0 -0.01,0 H 397 v -0.31 h 0.29 c 0.15,0 0.35,-0.01 0.5,-0.02 0.23,-0.03 0.23,-0.04 0.23,-0.23 v -5.18 c 0,-0.27 0,-0.74 -1.02,-0.74 v -0.3 c 0.35,0.01 0.84,0.03 1.16,0.03 0.33,0 0.82,-0.02 1.17,-0.03 v 0.3 c -1.03,0 -1.03,0.47 -1.03,0.74 v 5.16 c 0.05,-0.05 0.06,-0.06 0.1,-0.12 l 4.06,-5.96 c 0.09,-0.11 0.1,-0.12 0.17,-0.12 0.14,0 0.14,0.06 0.14,0.25 v 5.49 c 0,0.27 0,0.73 1.03,0.73 v 0.31 c -0.35,-0.01 -0.84,-0.03 -1.17,-0.03 -0.33,0 -0.81,0.02 -1.16,0.03 v -0.31 c 1.02,0 1.02,-0.46 1.02,-0.73 v -4.24 z"
   style="fill:#000000;stroke-width:0" />
<path
   id="path8008"
   d="m 404.7,710.52 0.01,-0.19 0.01,-0.19 0.02,-0.18 0.03,-0.18 0.04,-0.18 0.05,-0.18 0.06,-0.16 0.06,-0.17 0.07,-0.16 0.08,-0.16 0.09,-0.15 0.09,-0.15 0.1,-0.14 0.1,-0.13 0.11,-0.13 0.12,-0.13 0.12,-0.12 0.13,-0.11 0.13,-0.1 0.13,-0.1 0.15,-0.09 0.14,-0.09 0.15,-0.08 0.15,-0.07 0.16,-0.06 0.16,-0.06 0.16,-0.04 0.16,-0.04 0.17,-0.03 0.17,-0.03 0.17,-0.01 0.17,0 c 1.63,0 2.6,1.38 2.6,2.53 0,0.1 0,0.17 -0.13,0.17 -0.11,0 -0.11,-0.06 -0.12,-0.16 -0.08,-1.42 -1.14,-2.24 -2.23,-2.24 -0.6,0 -2.55,0.34 -2.55,3.3 0,2.97 1.94,3.31 2.54,3.31 1.09,0 1.97,-0.9 2.17,-2.35 0.02,-0.14 0.02,-0.17 0.16,-0.17 0.16,0 0.16,0.03 0.16,0.24 v 2.35 c 0,0.17 0,0.24 -0.11,0.24 -0.04,0 -0.08,0 -0.16,-0.12 l -0.5,-0.74 c -0.36,0.36 -0.87,0.86 -1.83,0.86 -1.86,0 -3.46,-1.58 -3.46,-3.61 z"
   style="fill:#000000;stroke-width:0" />
<path
   id="path8010"
   d="m 413.58,713.14 0,0.03 0,0.03 0,0.03 0,0.03 0,0.03 0,0.02 0.01,0.03 0,0.02 0.01,0.02 0.01,0.02 0.01,0.02 0.01,0.02 0.01,0.02 0.02,0.01 0.01,0.02 0.02,0.01 0.02,0.02 0.02,0.01 0.02,0 0.01,0.01 0.01,0 0.02,0.01 0.01,0 0.02,0.01 0.02,0 0.02,0.01 0.01,0 0.02,0 0.02,0.01 0.02,0 0.03,0 0.02,0 0.02,0.01 0.03,0 0.02,0 0.03,0 0.02,0.01 0.03,0 0.03,0 0.03,0 0.03,0 0.03,0 0.04,0 0.03,0 0.04,0 0.03,0 h 0.26 v 0.31 c -0.35,-0.03 -1.13,-0.03 -1.51,-0.03 -0.39,0 -1.17,0 -1.52,0.03 v -0.31 h 0.26 c 0.78,0 0.81,-0.11 0.81,-0.46 v -5.24 c 0,-0.36 -0.03,-0.47 -0.81,-0.47 h -0.26 v -0.3 c 0.35,0.03 1.13,0.03 1.51,0.03 0.39,0 1.17,0 1.52,-0.03 v 0.3 h -0.26 c -0.78,0 -0.81,0.11 -0.81,0.47 z"
   style="fill:#000000;stroke-width:0" />
<path
   id="path8012"
   d="m 418.9,714.04 -0.01,0.01 0,0.01 -0.01,0.01 0,0.01 -0.01,0.02 0,0.01 0,0.01 -0.01,0 0,0.01 -0.01,0.01 0,0.01 -0.01,0.01 0,0.01 -0.01,0 0,0.01 -0.01,0.01 0,0 -0.01,0.01 -0.01,0 0,0.01 -0.01,0 -0.01,0.01 -0.01,0 -0.01,0.01 -0.01,0 -0.01,0 -0.01,0 -0.01,0 -0.01,0.01 -0.01,0 -0.02,0 -0.01,0 0,0 c -0.16,0 -0.19,-0.06 -0.24,-0.2 l -2.06,-5.94 c -0.18,-0.51 -0.58,-0.66 -1.11,-0.67 v -0.3 c 0.22,0.01 0.65,0.03 1.01,0.03 0.31,0 0.83,-0.02 1.14,-0.03 v 0.3 c -0.49,0 -0.74,0.25 -0.74,0.51 0,0.03 0.01,0.13 0.02,0.15 l 0.45,1.3 h 2.46 l -0.11,0.31 h -2.24 l 1.12,3.23 1.12,-3.23 0.11,-0.31 0.53,-1.52 c 0.01,-0.04 0.03,-0.1 0.03,-0.14 0,-0.3 -0.56,-0.3 -0.83,-0.3 v -0.3 c 0.36,0.03 1.06,0.03 1.44,0.03 0.42,0 0.88,-0.01 1.3,-0.03 v 0.3 h -0.18 c -0.6,0 -0.74,0.07 -0.84,0.4 z"
   style="fill:#000000;stroke-width:0" />
<path
   id="path8014"
   d="m 368.68,701.18 0,0.03 0,0.03 0,0.03 0,0.03 0,0.03 0,0.03 0.01,0.02 0,0.02 0.01,0.03 0.01,0.02 0.01,0.02 0.01,0.02 0.01,0.01 0.01,0.02 0.02,0.01 0.02,0.02 0.02,0.01 0.02,0.01 0.02,0.01 0.01,0 0.01,0.01 0.02,0 0.01,0.01 0.02,0 0.02,0.01 0.01,0 0.02,0 0.02,0.01 0.02,0 0.02,0 0.02,0.01 0.03,0 0.02,0 0.02,0 0.03,0.01 0.03,0 0.02,0 0.03,0 0.03,0 0.03,0 0.03,0 0.03,0.01 0.04,0 0.03,0 0.03,0 0.04,0 h 0.26 v 0.31 c -0.35,-0.04 -1.13,-0.04 -1.51,-0.04 -0.39,0 -1.18,0 -1.52,0.04 v -0.31 h 0.25 c 0.79,0 0.82,-0.11 0.82,-0.47 v -5.23 c 0,-0.36 -0.03,-0.47 -0.82,-0.47 h -0.25 v -0.31 c 0.34,0.03 1.13,0.03 1.51,0.03 0.39,0 1.17,0 1.52,-0.03 v 0.31 h -0.26 c -0.79,0 -0.81,0.11 -0.81,0.47 z"
   style="fill:#000000;stroke-width:0" />
<path
   id="path8016"
   d="m 372.34,701.83 -0.01,0.01 0,0.01 -0.01,0.01 -0.01,0.01 0,0 -0.01,0.01 -0.01,0.01 0,0.01 -0.01,0 -0.01,0.01 0,0 -0.01,0.01 0,0 -0.01,0.01 -0.01,0 0,0.01 -0.01,0 -0.01,0 -0.01,0 -0.01,0.01 0,0 -0.01,0 -0.01,0 -0.01,0 -0.01,0 -0.02,0 -0.01,0 -0.01,0 -0.02,0 0,0 -0.01,0 -0.01,0 -0.01,0 -0.01,0.01 -0.01,0 h -1.69 v -0.31 h 0.29 c 0.15,0 0.35,-0.01 0.5,-0.02 0.23,-0.03 0.24,-0.04 0.24,-0.23 v -5.19 c 0,-0.26 0,-0.73 -1.03,-0.73 v -0.31 c 0.35,0.01 0.84,0.03 1.17,0.03 0.33,0 0.81,-0.02 1.16,-0.03 v 0.31 c -1.02,0 -1.02,0.47 -1.02,0.73 v 5.17 c 0.05,-0.05 0.06,-0.06 0.1,-0.12 l 4.06,-5.96 c 0.08,-0.12 0.09,-0.13 0.16,-0.13 0.14,0 0.14,0.07 0.14,0.26 v 5.48 c 0,0.27 0,0.74 1.03,0.74 v 0.31 c -0.35,-0.01 -0.84,-0.04 -1.17,-0.04 -0.32,0 -0.81,0.03 -1.16,0.04 v -0.31 c 1.03,0 1.03,-0.47 1.03,-0.74 v -4.24 z"
   style="fill:#000000;stroke-width:0" />
<path
   id="path8018"
   d="m 378.06,698.57 0.01,-0.19 0.01,-0.19 0.03,-0.19 0.03,-0.18 0.04,-0.18 0.04,-0.17 0.06,-0.17 0.06,-0.17 0.08,-0.16 0.07,-0.15 0.09,-0.15 0.09,-0.15 0.1,-0.14 0.1,-0.14 0.11,-0.13 0.12,-0.12 0.12,-0.12 0.13,-0.11 0.13,-0.11 0.14,-0.1 0.14,-0.09 0.14,-0.08 0.15,-0.08 0.15,-0.07 0.16,-0.07 0.16,-0.05 0.16,-0.05 0.17,-0.04 0.16,-0.03 0.17,-0.02 0.17,-0.01 0.18,-0.01 c 1.62,0 2.59,1.38 2.59,2.53 0,0.1 0,0.17 -0.13,0.17 -0.11,0 -0.11,-0.06 -0.12,-0.16 -0.08,-1.42 -1.14,-2.23 -2.23,-2.23 -0.6,0 -2.55,0.34 -2.55,3.3 0,2.97 1.94,3.3 2.55,3.3 1.08,0 1.97,-0.9 2.16,-2.35 0.02,-0.14 0.02,-0.17 0.16,-0.17 0.16,0 0.16,0.03 0.16,0.24 v 2.35 c 0,0.17 0,0.24 -0.11,0.24 -0.04,0 -0.08,0 -0.16,-0.12 l -0.49,-0.73 c -0.37,0.36 -0.88,0.85 -1.83,0.85 -1.86,0 -3.47,-1.58 -3.47,-3.6 z"
   style="fill:#000000;stroke-width:0" />
<path
   id="path8020"
   d="m 386.94,701.18 0,0.03 0,0.03 0,0.03 0,0.03 0,0.03 0.01,0.03 0,0.02 0.01,0.02 0,0.03 0.01,0.02 0.01,0.02 0.01,0.02 0.01,0.01 0.02,0.02 0.01,0.01 0.02,0.02 0.02,0.01 0.03,0.01 0.01,0.01 0.01,0 0.02,0.01 0.01,0 0.02,0.01 0.01,0 0.02,0.01 0.02,0 0.02,0 0.02,0.01 0.02,0 0.02,0 0.02,0.01 0.02,0 0.02,0 0.03,0 0.02,0.01 0.03,0 0.03,0 0.03,0 0.02,0 0.03,0 0.04,0 0.03,0.01 0.03,0 0.03,0 0.04,0 0.04,0 h 0.25 v 0.31 c -0.34,-0.04 -1.13,-0.04 -1.51,-0.04 -0.39,0 -1.17,0 -1.52,0.04 v -0.31 h 0.26 c 0.78,0 0.81,-0.11 0.81,-0.47 v -5.23 c 0,-0.36 -0.03,-0.47 -0.81,-0.47 h -0.26 v -0.31 c 0.35,0.03 1.13,0.03 1.51,0.03 0.39,0 1.18,0 1.52,-0.03 v 0.31 h -0.25 c -0.79,0 -0.82,0.11 -0.82,0.47 z"
   style="fill:#000000;stroke-width:0" />
<path
   id="path8022"
   d="m 388.65,701.96 v -0.31 h 0.24 c 0.76,0 0.78,-0.11 0.78,-0.47 v -5.23 c 0,-0.36 -0.02,-0.47 -0.78,-0.47 h -0.24 v -0.31 h 3.64 l -0.27,0.31 h -1 c -0.47,0 -0.49,0.07 -0.49,0.4 v 5.37 c 0,0.33 0.02,0.4 0.49,0.4 h 0.99 c 0.62,0 1.3,-0.22 1.81,-0.93 0.43,-0.58 0.52,-1.44 0.52,-2.21 0,-1.1 -0.19,-1.7 -0.55,-2.19 -0.2,-0.27 -0.77,-0.84 -1.77,-0.84 l 0.27,-0.31 c 1.67,0 3.04,1.47 3.04,3.34 0,1.89 -1.34,3.45 -3.04,3.45 z"
   style="fill:#000000;stroke-width:0" />
<path
   id="path8024"
   d="m 397.26,695.95 0,-0.04 0,-0.03 0,-0.03 0,-0.03 0,-0.03 0,-0.02 -0.01,-0.03 0,-0.02 -0.01,-0.02 -0.01,-0.02 0,-0.02 -0.01,-0.02 -0.02,-0.02 -0.01,-0.01 -0.02,-0.02 -0.01,-0.01 -0.02,-0.02 -0.03,-0.01 -0.01,0 -0.01,-0.01 -0.01,0 -0.02,-0.01 -0.01,0 -0.02,-0.01 -0.02,0 -0.01,-0.01 -0.02,0 -0.02,0 -0.02,-0.01 -0.02,0 -0.02,0 -0.02,0 -0.02,-0.01 -0.03,0 -0.02,0 -0.03,0 -0.02,-0.01 -0.03,0 -0.03,0 -0.03,0 -0.03,0 -0.03,0 -0.03,0 -0.03,0 -0.04,0 -0.03,0 h -0.24 v -0.31 h 5.74 l 0.42,2.56 h -0.25 c -0.25,-1.53 -0.48,-2.25 -2.19,-2.25 h -1.32 c -0.47,0 -0.49,0.07 -0.49,0.4 v 2.65 h 0.89 c 0.97,0 1.08,-0.32 1.08,-1.17 h 0.25 V 700 h -0.25 c 0,-0.86 -0.11,-1.16 -1.08,-1.16 h -0.89 v 2.38 c 0,0.33 0.02,0.4 0.49,0.4 h 1.28 c 1.52,0 1.79,-0.55 1.95,-1.93 h 0.25 l -0.28,2.23 h -5.6 v -0.3 h 0.24 c 0.76,0 0.78,-0.11 0.78,-0.47 z"
   style="fill:#000000;stroke-width:0" />
<path
   id="path8026"
   d="m 405,701.83 -0.01,0.01 -0.01,0.01 -0.01,0.01 0,0.01 -0.01,0 -0.01,0.01 0,0.01 -0.01,0.01 0,0 -0.01,0.01 -0.01,0 0,0.01 -0.01,0 -0.01,0.01 0,0 -0.01,0.01 -0.01,0 0,0 -0.01,0 -0.01,0.01 -0.01,0 -0.01,0 -0.01,0 -0.01,0 -0.01,0 -0.01,0 -0.01,0 -0.02,0 -0.01,0 -0.01,0 -0.01,0 0,0 -0.01,0 -0.01,0.01 -0.01,0 h -1.69 v -0.31 h 0.29 c 0.15,0 0.34,-0.01 0.49,-0.02 0.23,-0.03 0.24,-0.04 0.24,-0.23 v -5.19 c 0,-0.26 0,-0.73 -1.02,-0.73 v -0.31 c 0.35,0.01 0.83,0.03 1.16,0.03 0.33,0 0.82,-0.02 1.17,-0.03 v 0.31 c -1.03,0 -1.03,0.47 -1.03,0.73 v 5.17 c 0.05,-0.05 0.06,-0.06 0.1,-0.12 l 4.06,-5.96 c 0.09,-0.12 0.1,-0.13 0.17,-0.13 0.14,0 0.14,0.07 0.14,0.26 v 5.48 c 0,0.27 0,0.74 1.02,0.74 v 0.31 c -0.35,-0.01 -0.83,-0.04 -1.16,-0.04 -0.33,0 -0.82,0.03 -1.17,0.04 v -0.31 c 1.03,0 1.03,-0.47 1.03,-0.74 v -4.24 z"
   style="fill:#000000;stroke-width:0" />
<path
   id="path8028"
   d="m 416.79,701.9 h -6.08 l -0.19,-2.24 h 0.25 c 0.14,1.6 0.29,1.93 1.79,1.93 0.18,0 0.44,0 0.54,-0.02 0.21,-0.04 0.21,-0.15 0.21,-0.38 v -5.23 c 0,-0.34 0,-0.48 -1.05,-0.48 h -0.4 v -0.31 c 0.41,0.03 1.43,0.03 1.88,0.03 0.46,0 1.49,0 1.89,-0.03 v 0.31 h -0.39 c -1.05,0 -1.05,0.14 -1.05,0.48 v 5.23 c 0,0.2 0,0.34 0.18,0.38 0.11,0.02 0.38,0.02 0.57,0.02 1.5,0 1.65,-0.33 1.79,-1.93 h 0.25 z"
   style="fill:#000000;stroke-width:0" />
<path
   id="path8030"
   d="m 418.71,695.95 0,-0.04 0,-0.03 0,-0.03 0,-0.03 0,-0.03 -0.01,-0.02 0,-0.03 -0.01,-0.02 0,-0.02 -0.01,-0.02 -0.01,-0.02 -0.01,-0.02 -0.01,-0.02 -0.01,-0.01 -0.02,-0.02 -0.02,-0.01 -0.02,-0.02 -0.02,-0.01 -0.01,0 -0.01,-0.01 -0.02,0 -0.01,-0.01 -0.02,0 -0.01,-0.01 -0.02,0 -0.01,-0.01 -0.02,0 -0.02,0 -0.02,-0.01 -0.02,0 -0.02,0 -0.02,0 -0.03,-0.01 -0.02,0 -0.02,0 -0.03,0 -0.03,-0.01 -0.02,0 -0.03,0 -0.03,0 -0.03,0 -0.03,0 -0.03,0 -0.04,0 -0.03,0 -0.04,0 h -0.24 v -0.31 h 5.75 l 0.41,2.56 h -0.24 c -0.25,-1.53 -0.48,-2.25 -2.19,-2.25 h -1.33 c -0.47,0 -0.48,0.07 -0.48,0.4 v 2.65 h 0.89 c 0.97,0 1.08,-0.32 1.08,-1.17 h 0.24 V 700 h -0.24 c 0,-0.86 -0.11,-1.16 -1.08,-1.16 h -0.89 v 2.38 c 0,0.33 0.01,0.4 0.48,0.4 h 1.29 c 1.52,0 1.79,-0.55 1.95,-1.93 h 0.25 l -0.28,2.23 h -5.61 v -0.3 h 0.24 c 0.77,0 0.79,-0.11 0.79,-0.47 z"
   style="fill:#000000;stroke-width:0" />
</g>      <g
         style="font-style:normal;font-variant:normal;font-weight:normal;font-stretch:normal;letter-spacing:normal;word-spacing:normal;text-anchor:start;fill:none;stroke:#000000;stroke-linecap:butt;stroke-linejoin:miter;stroke-miterlimit:10.43299961;stroke-opacity:1;stroke-dasharray:none;stroke-dashoffset:0"
         id="g8296"
         transform="matrix(1.35,0,0,-1.35,-110.39333,1857.5717)"
         xml:space="preserve"
         stroke-miterlimit="10.433"
         font-style="normal"
         font-variant="normal"
         font-weight="normal"
         font-stretch="normal"
         font-size-adjust="none"
         letter-spacing="normal"
         word-spacing="normal"
         ns0:text="\\centering\nPOTENCIA\\\\\nREFLEJADA"
         ns0:preamble="">
<path
   style="fill:#000000;stroke-width:0"
   d="m 370.42,710.26 -0.02,0.26 v 2.69 c 0,0.32 0.02,0.39 0.48,0.39 h 0.89 c 1.58,0 1.58,-1.05 1.58,-1.54 0,-0.47 0,-1.54 -1.58,-1.54 h -1.37 l 0.02,-0.26 h 1.69 c 1.19,0 2.27,0.81 2.27,1.8 0,0.98 -0.99,1.85 -2.35,1.85 h -3.51 v -0.31 h 0.23 c 0.77,0 0.79,-0.11 0.79,-0.46 v -5.24 c 0,-0.36 -0.02,-0.47 -0.79,-0.47 h -0.23 v -0.3 c 0.34,0.03 1.08,0.03 1.46,0.03 0.38,0 1.12,0 1.47,-0.03 v 0.3 h -0.24 c -0.76,0 -0.79,0.11 -0.79,0.47 z"
   id="path8298" />
<path
   style="fill:#000000;stroke-width:0"
   d="m 382.12,710.49 0,0.19 -0.02,0.19 -0.02,0.18 -0.03,0.18 -0.03,0.18 -0.05,0.17 -0.05,0.17 -0.06,0.17 -0.07,0.16 -0.07,0.15 -0.08,0.16 -0.09,0.14 -0.09,0.15 -0.1,0.13 -0.11,0.13 -0.11,0.13 -0.11,0.12 -0.12,0.11 -0.13,0.11 -0.13,0.1 -0.13,0.1 -0.14,0.08 -0.14,0.08 -0.15,0.07 -0.15,0.07 -0.15,0.06 -0.16,0.04 -0.16,0.04 -0.16,0.04 -0.17,0.02 -0.16,0.01 -0.17,0.01 v -0.25 c 0.86,0 2.29,-0.71 2.29,-3.25 0,-2.63 -1.37,-3.47 -2.28,-3.47 h 0 c -0.96,0 -2.29,0.88 -2.29,3.47 0,2.58 1.45,3.25 2.28,3.25 v 0.25 c -1.78,0 -3.3,-1.59 -3.3,-3.64 0,-2.03 1.53,-3.58 3.3,-3.58 1.81,0 3.31,1.58 3.31,3.58 z"
   id="path8300" />
<path
   style="fill:#000000;stroke-width:0"
   d="m 389.32,713.85 h -6.08 l -0.19,-2.24 h 0.25 c 0.14,1.6 0.29,1.93 1.79,1.93 0.18,0 0.44,0 0.54,-0.02 0.21,-0.04 0.21,-0.15 0.21,-0.37 v -5.24 c 0,-0.34 0,-0.48 -1.04,-0.48 h -0.4 v -0.3 c 0.41,0.03 1.42,0.03 1.88,0.03 0.46,0 1.48,0 1.89,-0.03 v 0.3 h -0.4 c -1.04,0 -1.04,0.14 -1.04,0.48 v 5.24 c 0,0.19 0,0.33 0.17,0.37 0.11,0.02 0.38,0.02 0.57,0.02 1.5,0 1.65,-0.33 1.79,-1.93 h 0.25 z"
   id="path8302" />
<path
   style="fill:#000000;stroke-width:0"
   d="m 391.24,707.9 0,-0.03 0,-0.03 0,-0.03 0,-0.03 0,-0.03 0,-0.03 -0.01,-0.02 0,-0.02 -0.01,-0.03 0,-0.02 -0.01,-0.02 -0.01,-0.02 -0.01,-0.01 -0.02,-0.02 -0.01,-0.01 -0.02,-0.02 -0.02,-0.01 -0.02,-0.01 -0.02,-0.01 -0.01,0 -0.01,-0.01 -0.02,0 -0.01,-0.01 -0.02,0 -0.01,-0.01 -0.02,0 -0.02,0 -0.02,-0.01 -0.02,0 -0.02,0 -0.02,-0.01 -0.02,0 -0.02,0 -0.02,0 -0.03,-0.01 -0.02,0 -0.03,0 -0.03,0 -0.03,0 -0.03,0 -0.03,0 -0.03,-0.01 -0.03,0 -0.03,0 -0.04,0 -0.03,0 h -0.24 v -0.3 h 5.74 l 0.42,2.56 h -0.25 c -0.25,-1.53 -0.48,-2.26 -2.19,-2.26 h -1.32 c -0.47,0 -0.49,0.07 -0.49,0.4 v 2.65 h 0.89 c 0.97,0 1.08,-0.32 1.08,-1.16 h 0.25 v 2.63 h -0.25 c 0,-0.85 -0.11,-1.16 -1.08,-1.16 h -0.89 v 2.38 c 0,0.33 0.02,0.4 0.49,0.4 h 1.28 c 1.52,0 1.79,-0.54 1.95,-1.92 h 0.25 l -0.28,2.23 h -5.6 v -0.31 h 0.24 c 0.77,0 0.78,-0.11 0.78,-0.47 z"
   id="path8304" />
<path
   style="fill:#000000;stroke-width:0"
   d="m 398.98,713.78 -0.01,0.01 -0.01,0.01 0,0.01 -0.01,0.01 -0.01,0.01 0,0.01 -0.01,0 -0.01,0.01 0,0.01 -0.01,0 0,0.01 -0.01,0 -0.01,0.01 0,0 -0.01,0.01 -0.01,0 0,0 -0.01,0.01 -0.01,0 -0.01,0 -0.01,0 -0.01,0 -0.01,0.01 -0.01,0 -0.01,0 -0.01,0 -0.01,0 -0.02,0 -0.01,0 -0.01,0 0,0 -0.01,0 -0.01,0 -0.01,0 -0.01,0 H 397 v -0.31 h 0.29 c 0.15,0 0.35,-0.01 0.5,-0.02 0.23,-0.03 0.23,-0.04 0.23,-0.23 v -5.18 c 0,-0.27 0,-0.74 -1.02,-0.74 v -0.3 c 0.35,0.01 0.84,0.03 1.16,0.03 0.33,0 0.82,-0.02 1.17,-0.03 v 0.3 c -1.03,0 -1.03,0.47 -1.03,0.74 v 5.16 c 0.05,-0.05 0.06,-0.06 0.1,-0.12 l 4.06,-5.96 c 0.09,-0.11 0.1,-0.12 0.17,-0.12 0.14,0 0.14,0.06 0.14,0.25 v 5.49 c 0,0.27 0,0.73 1.03,0.73 v 0.31 c -0.35,-0.01 -0.84,-0.03 -1.17,-0.03 -0.33,0 -0.81,0.02 -1.16,0.03 v -0.31 c 1.02,0 1.02,-0.46 1.02,-0.73 v -4.24 z"
   id="path8306" />
<path
   style="fill:#000000;stroke-width:0"
   d="m 404.7,710.52 0.01,-0.19 0.01,-0.19 0.02,-0.18 0.03,-0.18 0.04,-0.18 0.05,-0.18 0.06,-0.16 0.06,-0.17 0.07,-0.16 0.08,-0.16 0.09,-0.15 0.09,-0.15 0.1,-0.14 0.1,-0.13 0.11,-0.13 0.12,-0.13 0.12,-0.12 0.13,-0.11 0.13,-0.1 0.13,-0.1 0.15,-0.09 0.14,-0.09 0.15,-0.08 0.15,-0.07 0.16,-0.06 0.16,-0.06 0.16,-0.04 0.16,-0.04 0.17,-0.03 0.17,-0.03 0.17,-0.01 0.17,0 c 1.63,0 2.6,1.38 2.6,2.53 0,0.1 0,0.17 -0.13,0.17 -0.11,0 -0.11,-0.06 -0.12,-0.16 -0.08,-1.42 -1.14,-2.24 -2.23,-2.24 -0.6,0 -2.55,0.34 -2.55,3.3 0,2.97 1.94,3.31 2.54,3.31 1.09,0 1.97,-0.9 2.17,-2.35 0.02,-0.14 0.02,-0.17 0.16,-0.17 0.16,0 0.16,0.03 0.16,0.24 v 2.35 c 0,0.17 0,0.24 -0.11,0.24 -0.04,0 -0.08,0 -0.16,-0.12 l -0.5,-0.74 c -0.36,0.36 -0.87,0.86 -1.83,0.86 -1.86,0 -3.46,-1.58 -3.46,-3.61 z"
   id="path8308" />
<path
   style="fill:#000000;stroke-width:0"
   d="m 413.58,713.14 0,0.03 0,0.03 0,0.03 0,0.03 0,0.03 0,0.02 0.01,0.03 0,0.02 0.01,0.02 0.01,0.02 0.01,0.02 0.01,0.02 0.01,0.02 0.02,0.01 0.01,0.02 0.02,0.01 0.02,0.02 0.02,0.01 0.02,0 0.01,0.01 0.01,0 0.02,0.01 0.01,0 0.02,0.01 0.02,0 0.02,0.01 0.01,0 0.02,0 0.02,0.01 0.02,0 0.03,0 0.02,0 0.02,0.01 0.03,0 0.02,0 0.03,0 0.02,0.01 0.03,0 0.03,0 0.03,0 0.03,0 0.03,0 0.04,0 0.03,0 0.04,0 0.03,0 h 0.26 v 0.31 c -0.35,-0.03 -1.13,-0.03 -1.51,-0.03 -0.39,0 -1.17,0 -1.52,0.03 v -0.31 h 0.26 c 0.78,0 0.81,-0.11 0.81,-0.46 v -5.24 c 0,-0.36 -0.03,-0.47 -0.81,-0.47 h -0.26 v -0.3 c 0.35,0.03 1.13,0.03 1.51,0.03 0.39,0 1.17,0 1.52,-0.03 v 0.3 h -0.26 c -0.78,0 -0.81,0.11 -0.81,0.47 z"
   id="path8310" />
<path
   style="fill:#000000;stroke-width:0"
   d="m 418.9,714.04 -0.01,0.01 0,0.01 -0.01,0.01 0,0.01 -0.01,0.02 0,0.01 0,0.01 -0.01,0 0,0.01 -0.01,0.01 0,0.01 -0.01,0.01 0,0.01 -0.01,0 0,0.01 -0.01,0.01 0,0 -0.01,0.01 -0.01,0 0,0.01 -0.01,0 -0.01,0.01 -0.01,0 -0.01,0.01 -0.01,0 -0.01,0 -0.01,0 -0.01,0 -0.01,0.01 -0.01,0 -0.02,0 -0.01,0 0,0 c -0.16,0 -0.19,-0.06 -0.24,-0.2 l -2.06,-5.94 c -0.18,-0.51 -0.58,-0.66 -1.11,-0.67 v -0.3 c 0.22,0.01 0.65,0.03 1.01,0.03 0.31,0 0.83,-0.02 1.14,-0.03 v 0.3 c -0.49,0 -0.74,0.25 -0.74,0.51 0,0.03 0.01,0.13 0.02,0.15 l 0.45,1.3 h 2.46 l -0.11,0.31 h -2.24 l 1.12,3.23 1.12,-3.23 0.11,-0.31 0.53,-1.52 c 0.01,-0.04 0.03,-0.1 0.03,-0.14 0,-0.3 -0.56,-0.3 -0.83,-0.3 v -0.3 c 0.36,0.03 1.06,0.03 1.44,0.03 0.42,0 0.88,-0.01 1.3,-0.03 v 0.3 h -0.18 c -0.6,0 -0.74,0.07 -0.84,0.4 z"
   id="path8312" />
<path
   style="fill:#000000;stroke-width:0"
   d="m 369.11,698.55 0.08,0.02 0.09,0.03 0.09,0.02 0.09,0.03 0.08,0.04 0.08,0.03 0.09,0.03 0.07,0.04 0.08,0.04 0.08,0.04 0.07,0.05 0.07,0.04 0.07,0.05 0.06,0.04 0.07,0.05 0.06,0.06 0.05,0.05 0.06,0.05 0.05,0.06 0.05,0.06 0.04,0.06 0.05,0.06 0.03,0.06 0.04,0.06 0.03,0.06 0.03,0.07 0.02,0.07 0.02,0.06 0.02,0.07 0.01,0.07 0,0.07 0.01,0.08 c 0,0.95 -1.14,1.79 -2.6,1.79 h -3.12 v -0.31 h 0.23 c 0.77,0 0.79,-0.11 0.79,-0.47 v -5.23 c 0,-0.36 -0.02,-0.47 -0.79,-0.47 h -0.23 v -0.31 c 0.35,0.03 1.06,0.03 1.45,0.03 0.39,0 1.09,0 1.45,-0.03 v 0.31 h -0.24 c -0.77,0 -0.78,0.11 -0.78,0.47 v 2.51 0.22 2.57 c 0,0.23 0,0.35 0.21,0.38 0.1,0.02 0.39,0.02 0.59,0.02 0.9,0 2.01,-0.04 2.01,-1.48 0,-0.69 -0.24,-1.49 -1.71,-1.49 h -1.1 v -0.22 h 1.14 c 0.16,0 0.58,0 0.93,-0.34 0.37,-0.36 0.37,-0.66 0.37,-1.33 0,-0.65 0,-1.04 0.41,-1.42 0.41,-0.36 0.96,-0.42 1.25,-0.42 0.78,0 0.95,0.82 0.95,1.09 0,0.06 0,0.17 -0.13,0.17 -0.11,0 -0.11,-0.09 -0.12,-0.16 -0.06,-0.7 -0.41,-0.88 -0.66,-0.88 -0.48,0 -0.56,0.51 -0.7,1.43 l -0.13,0.8 c -0.18,0.63 -0.67,0.96 -1.21,1.15 z"
   id="path8314" />
<path
   style="fill:#000000;stroke-width:0"
   d="m 373.46,695.95 0,-0.04 0,-0.03 0,-0.03 0,-0.03 0,-0.03 0,-0.02 -0.01,-0.03 0,-0.02 -0.01,-0.02 0,-0.02 -0.01,-0.02 -0.01,-0.02 -0.02,-0.02 -0.01,-0.01 -0.01,-0.02 -0.02,-0.01 -0.02,-0.02 -0.02,-0.01 -0.02,0 -0.01,-0.01 -0.01,0 -0.02,-0.01 -0.01,0 -0.02,-0.01 -0.01,0 -0.02,-0.01 -0.02,0 -0.02,0 -0.02,-0.01 -0.02,0 -0.02,0 -0.02,0 -0.02,-0.01 -0.03,0 -0.02,0 -0.03,0 -0.02,-0.01 -0.03,0 -0.03,0 -0.03,0 -0.03,0 -0.03,0 -0.03,0 -0.03,0 -0.04,0 -0.03,0 h -0.24 v -0.31 h 5.74 l 0.42,2.56 h -0.25 c -0.25,-1.53 -0.48,-2.25 -2.19,-2.25 h -1.32 c -0.47,0 -0.49,0.07 -0.49,0.4 v 2.65 h 0.89 c 0.97,0 1.08,-0.32 1.08,-1.17 h 0.25 V 700 h -0.25 c 0,-0.86 -0.11,-1.16 -1.08,-1.16 h -0.89 v 2.38 c 0,0.33 0.02,0.4 0.49,0.4 h 1.28 c 1.52,0 1.79,-0.55 1.95,-1.93 h 0.25 l -0.28,2.23 h -5.6 v -0.3 h 0.24 c 0.76,0 0.78,-0.11 0.78,-0.47 z"
   id="path8316" />
<path
   style="fill:#000000;stroke-width:0"
   d="m 384.68,701.92 h -5.46 v -0.3 h 0.24 c 0.76,0 0.78,-0.11 0.78,-0.47 v -5.2 c 0,-0.36 -0.02,-0.47 -0.78,-0.47 h -0.24 v -0.31 c 0.35,0.03 1.12,0.03 1.51,0.03 0.41,0 1.32,0 1.67,-0.03 v 0.31 h -0.32 c -0.95,0 -0.95,0.13 -0.95,0.48 v 2.44 h 0.85 c 0.96,0 1.06,-0.32 1.06,-1.16 h 0.25 v 2.63 h -0.25 c 0,-0.84 -0.1,-1.16 -1.06,-1.16 h -0.85 v 2.51 c 0,0.33 0.02,0.4 0.49,0.4 h 1.19 c 1.49,0 1.74,-0.56 1.9,-1.93 h 0.25 z"
   id="path8318" />
<path
   style="fill:#000000;stroke-width:0"
   d="m 391.18,697.73 h -0.24 c -0.11,-1.01 -0.25,-2.25 -2,-2.25 h -0.82 c -0.47,0 -0.49,0.07 -0.49,0.4 v 5.29 c 0,0.34 0,0.48 0.95,0.48 h 0.33 v 0.31 c -0.36,-0.04 -1.27,-0.04 -1.68,-0.04 -0.38,0 -1.16,0 -1.51,0.04 v -0.31 h 0.24 c 0.77,0 0.79,-0.11 0.79,-0.47 v -5.23 c 0,-0.36 -0.02,-0.47 -0.79,-0.47 h -0.24 v -0.31 h 5.19 z"
   id="path8320" />
<path
   style="fill:#000000;stroke-width:0"
   d="m 392.97,695.95 0,-0.04 0,-0.03 0,-0.03 0,-0.03 0,-0.03 0,-0.02 -0.01,-0.03 0,-0.02 -0.01,-0.02 0,-0.02 -0.01,-0.02 -0.01,-0.02 -0.01,-0.02 -0.02,-0.01 -0.01,-0.02 -0.02,-0.01 -0.02,-0.02 -0.02,-0.01 -0.02,0 -0.01,-0.01 -0.01,0 -0.02,-0.01 -0.01,0 -0.02,-0.01 -0.01,0 -0.02,-0.01 -0.02,0 -0.02,0 -0.02,-0.01 -0.02,0 -0.02,0 -0.02,0 -0.02,-0.01 -0.03,0 -0.02,0 -0.02,0 -0.03,-0.01 -0.03,0 -0.03,0 -0.03,0 -0.03,0 -0.03,0 -0.03,0 -0.03,0 -0.04,0 -0.03,0 h -0.24 v -0.31 h 5.74 l 0.42,2.56 h -0.25 c -0.25,-1.53 -0.48,-2.25 -2.19,-2.25 h -1.32 c -0.47,0 -0.49,0.07 -0.49,0.4 v 2.65 h 0.9 c 0.96,0 1.07,-0.32 1.07,-1.17 h 0.25 V 700 h -0.25 c 0,-0.86 -0.11,-1.16 -1.07,-1.16 h -0.9 v 2.38 c 0,0.33 0.02,0.4 0.49,0.4 h 1.28 c 1.52,0 1.79,-0.55 1.95,-1.93 h 0.25 l -0.28,2.23 h -5.6 v -0.3 h 0.24 c 0.76,0 0.78,-0.11 0.78,-0.47 z"
   id="path8322" />
<path
   style="fill:#000000;stroke-width:0"
   d="m 401.41,696.64 -0.01,-0.08 0,-0.09 -0.01,-0.08 -0.01,-0.08 -0.01,-0.07 -0.01,-0.08 -0.02,-0.07 -0.02,-0.07 -0.02,-0.06 -0.03,-0.07 -0.02,-0.06 -0.03,-0.06 -0.03,-0.05 -0.03,-0.06 -0.03,-0.05 -0.04,-0.05 -0.03,-0.04 -0.04,-0.05 -0.04,-0.04 -0.04,-0.04 -0.04,-0.03 -0.05,-0.03 -0.04,-0.03 -0.05,-0.03 -0.04,-0.02 -0.05,-0.02 -0.04,-0.02 -0.05,-0.01 -0.05,-0.02 -0.05,0 -0.05,-0.01 -0.05,0 c -0.06,0 -0.74,0 -1.09,0.58 0.51,0 0.63,0.29 0.63,0.55 0,0.36 -0.28,0.56 -0.55,0.56 -0.22,0 -0.56,-0.14 -0.56,-0.58 0,-0.73 0.71,-1.33 1.59,-1.33 1.02,0 1.74,0.7 1.85,1.44 0.01,0.08 0.01,0.1 0.01,0.44 v 4.41 c 0,0.41 0.14,0.41 0.77,0.41 v 0.31 c -0.44,-0.03 -0.82,-0.04 -1.29,-0.04 -0.41,0 -1.29,0 -1.67,0.04 v -0.31 h 0.36 c 0.98,0 0.98,-0.13 0.98,-0.48 z"
   id="path8324" />
<path
   style="fill:#000000;stroke-width:0"
   d="m 407.48,702.08 0,0.02 -0.01,0.01 0,0.01 -0.01,0.01 0,0.01 0,0.01 -0.01,0.01 0,0.01 -0.01,0.01 0,0.01 -0.01,0.01 0,0 -0.01,0.01 0,0.01 -0.01,0.01 0,0 -0.01,0.01 0,0 -0.01,0.01 -0.01,0 -0.01,0.01 0,0 -0.01,0.01 -0.01,0 -0.01,0 -0.01,0.01 -0.01,0 -0.01,0 -0.02,0 -0.01,0 -0.01,0 -0.01,0 -0.01,0 c -0.16,0 -0.19,-0.06 -0.24,-0.2 l -2.06,-5.94 c -0.18,-0.5 -0.57,-0.65 -1.11,-0.66 v -0.31 c 0.23,0.01 0.66,0.03 1.02,0.03 0.3,0 0.82,-0.02 1.14,-0.03 v 0.31 c -0.5,0 -0.75,0.25 -0.75,0.5 0,0.03 0.01,0.13 0.02,0.15 l 0.46,1.3 0.11,0.31 1.11,3.23 1.13,-3.23 h -2.24 l -0.11,-0.31 h 2.46 l 0.52,-1.52 c 0.02,-0.03 0.03,-0.09 0.03,-0.13 0,-0.3 -0.55,-0.3 -0.82,-0.3 v -0.31 c 0.36,0.03 1.05,0.03 1.43,0.03 0.43,0 0.89,-0.01 1.3,-0.03 v 0.31 h -0.17 c -0.6,0 -0.74,0.07 -0.85,0.4 z"
   id="path8326" />
<path
   style="fill:#000000;stroke-width:0"
   d="m 411.34,701.96 v -0.31 h 0.24 c 0.77,0 0.79,-0.11 0.79,-0.47 v -5.23 c 0,-0.36 -0.02,-0.47 -0.79,-0.47 h -0.24 v -0.31 h 3.64 l -0.27,0.31 h -1 c -0.47,0 -0.49,0.07 -0.49,0.4 v 5.37 c 0,0.33 0.02,0.4 0.49,0.4 h 0.99 c 0.62,0 1.31,-0.22 1.82,-0.93 0.42,-0.58 0.51,-1.44 0.51,-2.21 0,-1.1 -0.19,-1.7 -0.55,-2.19 -0.19,-0.27 -0.76,-0.84 -1.77,-0.84 l 0.27,-0.31 c 1.67,0 3.05,1.47 3.05,3.34 0,1.89 -1.35,3.45 -3.05,3.45 z"
   id="path8328" />
<path
   style="fill:#000000;stroke-width:0"
   d="m 422.29,702.08 -0.01,0.02 0,0.01 -0.01,0.01 0,0.01 -0.01,0.01 0,0.01 -0.01,0.01 0,0.01 0,0.01 -0.01,0.01 0,0.01 -0.01,0 0,0.01 -0.01,0.01 0,0.01 -0.01,0 0,0.01 -0.01,0 -0.01,0.01 0,0 -0.01,0.01 -0.01,0 -0.01,0.01 -0.01,0 -0.01,0 -0.01,0.01 -0.01,0 -0.01,0 -0.01,0 -0.02,0 -0.01,0 -0.01,0 0,0 c -0.16,0 -0.19,-0.06 -0.24,-0.2 l -2.06,-5.94 c -0.18,-0.5 -0.58,-0.65 -1.12,-0.66 v -0.31 c 0.23,0.01 0.66,0.03 1.02,0.03 0.31,0 0.82,-0.02 1.14,-0.03 v 0.31 c -0.5,0 -0.74,0.25 -0.74,0.5 0,0.03 0.01,0.13 0.02,0.15 l 0.45,1.3 0.11,0.31 1.12,3.23 1.12,-3.23 h -2.24 l -0.11,-0.31 h 2.46 l 0.53,-1.52 c 0.01,-0.03 0.03,-0.09 0.03,-0.13 0,-0.3 -0.56,-0.3 -0.83,-0.3 v -0.31 c 0.36,0.03 1.06,0.03 1.43,0.03 0.43,0 0.89,-0.01 1.31,-0.03 v 0.31 h -0.18 c -0.6,0 -0.74,0.07 -0.85,0.4 z"
   id="path8330" />
</g>      <path
         sodipodi:nodetypes="cccc"
         id="path8481"
         d="m 514.60046,817.76847 c 0,-2.59823 0,-6.07588 0,-6.07588 l 12.15177,3.03795 -12.15177,3.03793 z"
         style="fill:#000000;fill-opacity:1;stroke:#000000;stroke-width:0.85737497px;stroke-linecap:butt;stroke-linejoin:miter;stroke-opacity:1" />
      <path
         style="fill:#000000;fill-opacity:1;stroke:#000000;stroke-width:0.85737497px;stroke-linecap:butt;stroke-linejoin:miter;stroke-opacity:1"
         d="m 605.73876,817.76847 c 0,-2.59823 0,-6.07588 0,-6.07588 l 12.15177,3.03795 -12.15177,3.03793 z"
         id="path8483"
         sodipodi:nodetypes="cccc" />
      <path
         sodipodi:nodetypes="cccc"
         id="path8485"
         d="m 696.87704,817.76847 c 0,-2.59823 0,-6.07588 0,-6.07588 l 12.15177,3.03795 -12.15177,3.03793 z"
         style="fill:#000000;fill-opacity:1;stroke:#000000;stroke-width:0.85737497px;stroke-linecap:butt;stroke-linejoin:miter;stroke-opacity:1" />
      <path
         style="fill:#000000;fill-opacity:1;stroke:#000000;stroke-width:0.85737497px;stroke-linecap:butt;stroke-linejoin:miter;stroke-opacity:1"
         d="m 709.02881,908.90675 c 0,-2.59823 0,-6.07587 0,-6.07587 l -12.15177,3.03793 12.15177,3.03794 z"
         id="path8487"
         sodipodi:nodetypes="cccc" />
      <path
         sodipodi:nodetypes="cccc"
         id="path8491"
         d="m 563.20755,854.22378 c 2.59824,0 6.07589,0 6.07589,0 l -3.03794,12.15179 -3.03795,-12.15179 z"
         style="fill:#000000;fill-opacity:1;stroke:#000000;stroke-width:0.85737497px;stroke-linecap:butt;stroke-linejoin:miter;stroke-opacity:1" />
      <path
         style="fill:#000000;fill-opacity:1;stroke:#000000;stroke-width:0.85737497px;stroke-linecap:butt;stroke-linejoin:miter;stroke-opacity:1"
         d="m 526.75224,908.90675 c 0,-2.59823 0,-6.07587 0,-6.07587 l -12.15177,3.03793 12.15177,3.03794 z"
         id="path8493"
         sodipodi:nodetypes="cccc" />
      <path
         style="fill:#000000;fill-opacity:1;stroke:#000000;stroke-width:0.85737497px;stroke-linecap:butt;stroke-linejoin:miter;stroke-opacity:1"
         d="m 654.34584,866.37557 c 2.59824,0 6.07589,0 6.07589,0 l -3.03794,-12.15179 -3.03795,12.15179 z"
         id="path8495"
         sodipodi:nodetypes="cccc" />
      <path
         sodipodi:nodetypes="cccc"
         id="path8497"
         d="m 617.89053,908.90675 c 0,-2.59823 0,-6.07587 0,-6.07587 l -12.15177,3.03793 12.15177,3.03794 z"
         style="fill:#000000;fill-opacity:1;stroke:#000000;stroke-width:0.85737497px;stroke-linecap:butt;stroke-linejoin:miter;stroke-opacity:1" />
      <g
         ns0:preamble=""
         ns0:text="DUT"
         word-spacing="normal"
         letter-spacing="normal"
         font-size-adjust="none"
         font-stretch="normal"
         font-weight="normal"
         font-variant="normal"
         font-style="normal"
         stroke-miterlimit="10.433"
         xml:space="preserve"
         transform="matrix(1.35,0,0,-1.35,432.55035,1874.4647)"
         id="g8499"
         style="font-style:normal;font-variant:normal;font-weight:normal;font-stretch:normal;letter-spacing:normal;word-spacing:normal;text-anchor:start;fill:none;stroke:#000000;stroke-linecap:butt;stroke-linejoin:miter;stroke-miterlimit:10.43299961;stroke-opacity:1;stroke-dasharray:none;stroke-dashoffset:0">
<path
   id="path8501"
   d="m 223.78,713.91 v -0.31 h 0.24 c 0.77,0 0.78,-0.11 0.78,-0.46 v -5.24 c 0,-0.36 -0.01,-0.47 -0.78,-0.47 h -0.24 v -0.3 h 3.64 l -0.27,0.3 h -1 c -0.47,0 -0.49,0.07 -0.49,0.4 v 5.38 c 0,0.32 0.02,0.39 0.49,0.39 h 0.99 c 0.62,0 1.31,-0.22 1.81,-0.92 0.43,-0.59 0.52,-1.44 0.52,-2.22 0,-1.1 -0.19,-1.7 -0.55,-2.18 -0.19,-0.27 -0.76,-0.85 -1.77,-0.85 l 0.27,-0.3 c 1.67,0 3.05,1.46 3.05,3.33 0,1.89 -1.35,3.45 -3.05,3.45 z"
   style="fill:#000000;stroke-width:0" />
<path
   id="path8503"
   d="m 236.83,709.42 0,-0.13 -0.01,-0.13 -0.01,-0.12 -0.02,-0.12 -0.02,-0.12 -0.03,-0.11 -0.04,-0.11 -0.03,-0.1 -0.04,-0.1 -0.05,-0.1 -0.05,-0.09 -0.05,-0.09 -0.06,-0.08 -0.06,-0.08 -0.06,-0.08 -0.07,-0.07 -0.07,-0.07 -0.07,-0.06 -0.07,-0.06 -0.08,-0.06 -0.08,-0.05 -0.08,-0.05 -0.08,-0.04 -0.08,-0.04 -0.08,-0.03 -0.09,-0.03 -0.09,-0.03 -0.08,-0.02 -0.09,-0.02 -0.09,-0.01 -0.09,0 -0.09,-0.01 c -0.46,0 -1.64,0.25 -1.64,2.14 v 3.79 c 0,0.35 0.02,0.46 0.79,0.46 h 0.24 v 0.31 c -0.35,-0.03 -1.09,-0.03 -1.47,-0.03 -0.38,0 -1.12,0 -1.47,0.03 v -0.31 h 0.24 c 0.77,0 0.79,-0.11 0.79,-0.46 v -3.75 c 0,-1.4 1.15,-2.48 2.5,-2.48 1.15,0 2.04,0.92 2.21,2.05 0.03,0.2 0.03,0.29 0.03,0.69 v 3.18 c 0,0.33 0,0.77 1.03,0.77 v 0.31 c -0.36,-0.01 -0.84,-0.03 -1.18,-0.03 -0.35,0 -0.82,0.02 -1.18,0.03 v -0.31 c 1.02,0 1.02,-0.46 1.02,-0.73 z"
   style="fill:#000000;stroke-width:0" />
<path
   id="path8505"
   d="m 245.14,713.85 h -6.08 l -0.19,-2.24 h 0.25 c 0.14,1.6 0.29,1.93 1.79,1.93 0.18,0 0.44,0 0.54,-0.02 0.21,-0.04 0.21,-0.15 0.21,-0.37 v -5.24 c 0,-0.34 0,-0.48 -1.05,-0.48 h -0.39 v -0.3 c 0.4,0.03 1.42,0.03 1.88,0.03 0.45,0 1.48,0 1.89,-0.03 v 0.3 h -0.4 c -1.05,0 -1.05,0.14 -1.05,0.48 v 5.24 c 0,0.19 0,0.33 0.18,0.37 0.11,0.02 0.38,0.02 0.57,0.02 1.5,0 1.65,-0.33 1.79,-1.93 h 0.25 z"
   style="fill:#000000;stroke-width:0" />
</g>    </g>
  </g>
</svg>
