<?xml version="1.0" encoding="UTF-8" standalone="no"?>
<!-- Created with Inkscape (http://www.inkscape.org/) -->

<svg
   xmlns:ns0="http://www.iki.fi/pav/software/textext/"
   xmlns:dc="http://purl.org/dc/elements/1.1/"
   xmlns:cc="http://creativecommons.org/ns#"
   xmlns:rdf="http://www.w3.org/1999/02/22-rdf-syntax-ns#"
   xmlns:svg="http://www.w3.org/2000/svg"
   xmlns="http://www.w3.org/2000/svg"
   xmlns:sodipodi="http://sodipodi.sourceforge.net/DTD/sodipodi-0.dtd"
   xmlns:inkscape="http://www.inkscape.org/namespaces/inkscape"
   id="svg2816"
   version="1.1"
   inkscape:version="0.47 r22583"
   width="228.54332"
   height="308.81281"
   xml:space="preserve"
   sodipodi:docname="intro_3.svg"><sodipodi:namedview
     pagecolor="#ffffff"
     bordercolor="#666666"
     borderopacity="1"
     objecttolerance="10"
     gridtolerance="10"
     guidetolerance="10"
     inkscape:pageopacity="0"
     inkscape:pageshadow="2"
     inkscape:window-width="1366"
     inkscape:window-height="708"
     id="namedview2818"
     showgrid="false"
     inkscape:zoom="5.6568542"
     inkscape:cx="138.26367"
     inkscape:cy="2.1705016"
     inkscape:window-x="-4"
     inkscape:window-y="-4"
     inkscape:window-maximized="1"
     inkscape:current-layer="g2826"
     inkscape:snap-to-guides="false"
     inkscape:snap-grids="false"
     inkscape:snap-bbox="false"
     inkscape:bbox-paths="false"
     inkscape:bbox-nodes="false"
     inkscape:snap-bbox-midpoints="true"
     inkscape:object-paths="false"
     inkscape:snap-intersection-paths="false"
     inkscape:snap-smooth-nodes="false"
     inkscape:snap-midpoints="false"
     inkscape:snap-object-midpoints="false"
     inkscape:snap-nodes="false"
     inkscape:snap-page="false" /><metadata
     id="metadata2822"><rdf:RDF><cc:Work
         rdf:about=""><dc:format>image/svg+xml</dc:format><dc:type
           rdf:resource="http://purl.org/dc/dcmitype/StillImage" /><dc:title /></cc:Work></rdf:RDF></metadata><defs
     id="defs2820"><marker
       style="overflow:visible"
       id="Arrow2Mstart"
       refX="0"
       refY="0"
       orient="auto"
       inkscape:stockid="Arrow2Mstart"><path
         transform="scale(0.6,0.6)"
         d="M 8.7185878,4.0337352 -2.2072895,0.01601326 8.7185884,-4.0017078 c -1.7454984,2.3720609 -1.7354408,5.6174519 -6e-7,8.035443 z"
         style="font-size:12px;fill-rule:evenodd;stroke-width:0.625;stroke-linejoin:round"
         id="path3741" /></marker><marker
       style="overflow:visible"
       id="Arrow2Mend"
       refX="0"
       refY="0"
       orient="auto"
       inkscape:stockid="Arrow2Mend"><path
         transform="scale(-0.6,-0.6)"
         d="M 8.7185878,4.0337352 -2.2072895,0.01601326 8.7185884,-4.0017078 c -1.7454984,2.3720609 -1.7354408,5.6174519 -6e-7,8.035443 z"
         style="font-size:12px;fill-rule:evenodd;stroke-width:0.625;stroke-linejoin:round"
         id="path3744" /></marker><inkscape:perspective
       id="perspective2824"
       inkscape:persp3d-origin="0.5 : 0.33333333 : 1"
       inkscape:vp_z="1 : 0.5 : 1"
       inkscape:vp_y="0 : 1000 : 0"
       inkscape:vp_x="0 : 0.5 : 1"
       sodipodi:type="inkscape:persp3d" /><clipPath
       id="clipPath2834"
       clipPathUnits="userSpaceOnUse"><path
         id="path2836"
         d="m 0,1722.5 5950,0 0,4967.5 -5950,0 0,-4967.5 z" /></clipPath><clipPath
       id="clipPath2844"
       clipPathUnits="userSpaceOnUse"><path
         id="path2846"
         d="m 599.168,6317.5 5134.162,0 0,-4049.17 -5134.162,0 0,4049.17 z" /></clipPath><clipPath
       id="clipPath2854"
       clipPathUnits="userSpaceOnUse"><path
         id="path2856"
         d="m 0,1722 0,4968 5950,0 0,-4968 -5950,0 z" /></clipPath><clipPath
       id="clipPath2868"
       clipPathUnits="userSpaceOnUse"><path
         id="path2870"
         d="m 599.168,6317.5 5134.162,0 0,-4049.17 -5134.162,0 0,4049.17 z" /></clipPath><clipPath
       id="clipPath2878"
       clipPathUnits="userSpaceOnUse"><path
         id="path2880"
         d="m 0,1722 0,4968 5950,0 0,-4968 -5950,0 z" /></clipPath><clipPath
       id="clipPath2892"
       clipPathUnits="userSpaceOnUse"><path
         id="path2894"
         d="m 599.168,6317.5 5134.162,0 0,-4049.17 -5134.162,0 0,4049.17 z" /></clipPath><clipPath
       id="clipPath2902"
       clipPathUnits="userSpaceOnUse"><path
         id="path2904"
         d="m 0,1722 0,4968 5950,0 0,-4968 -5950,0 z" /></clipPath><clipPath
       id="clipPath2916"
       clipPathUnits="userSpaceOnUse"><path
         id="path2918"
         d="m 599.168,6317.5 5134.162,0 0,-4049.17 -5134.162,0 0,4049.17 z" /></clipPath><clipPath
       id="clipPath2926"
       clipPathUnits="userSpaceOnUse"><path
         id="path2928"
         d="m 0,1722 0,4968 5950,0 0,-4968 -5950,0 z" /></clipPath><clipPath
       id="clipPath2940"
       clipPathUnits="userSpaceOnUse"><path
         id="path2942"
         d="m 599.168,6317.5 5134.162,0 0,-4049.17 -5134.162,0 0,4049.17 z" /></clipPath><clipPath
       id="clipPath3110"
       clipPathUnits="userSpaceOnUse"><path
         id="path3112"
         d="m 0,1722 0,4968 5950,0 0,-4968 -5950,0 z" /></clipPath><clipPath
       id="clipPath3146"
       clipPathUnits="userSpaceOnUse"><path
         id="path3148"
         d="m 599.168,6317.5 5134.162,0 0,-4049.17 -5134.162,0 0,4049.17 z" /></clipPath><inkscape:perspective
       sodipodi:type="inkscape:persp3d"
       inkscape:vp_x="0 : 0.5 : 1"
       inkscape:vp_y="0 : 1000 : 0"
       inkscape:vp_z="1 : 0.5 : 1"
       inkscape:persp3d-origin="0.5 : 0.33333333 : 1"
       id="perspective4099" /><inkscape:perspective
       sodipodi:type="inkscape:persp3d"
       inkscape:vp_x="0 : 0.5 : 1"
       inkscape:vp_y="0 : 1000 : 0"
       inkscape:vp_z="1 : 0.5 : 1"
       inkscape:persp3d-origin="0.5 : 0.33333333 : 1"
       id="perspective4183" /></defs><g
     transform="matrix(1.25,0,0,-1.25,-281.45693,777.26497)"
     inkscape:label="ink_ext_XXXXXX"
     inkscape:groupmode="layer"
     id="g2826">











<g
   id="g20761"><g
     id="g2840"
     transform="matrix(0.086,0,0,0.086,44.321648,69.16581)"><g
       clip-path="url(#clipPath2844)"
       id="g2842" /></g><g
     id="g2864"
     transform="matrix(0.086,0,0,0.086,44.321648,69.16581)"><g
       clip-path="url(#clipPath2868)"
       id="g2866"><path
         id="path2872"
         style="fill:none;stroke:#000000;stroke-width:7.28437996;stroke-linecap:butt;stroke-linejoin:round;stroke-miterlimit:10;stroke-opacity:1;stroke-dasharray:none;stroke-dashoffset:0;marker-start:url(#Arrow2Mstart);marker-end:url(#Arrow2Mend)"
         d="m 3451.8468,5264.9021 -34.3468,9.2679 -30.83,7.5 -30.84,5.83 -31.66,5.83 -31.67,4.17 -31.67,4.17 -31.66,2.5 -31.67,0.83 -31.67,0.83 -31.66,-0.83 -31.67,-0.83 -31.67,-2.5 -31.66,-4.17 -31.67,-4.17 -31.67,-5.83 -30.83,-5.83 -30.83,-7.5 -34.3604,-9.2679"
         sodipodi:nodetypes="ccccccccccccccccccc" /></g></g><g
     id="g2898"
     transform="matrix(0.086,0,0,0.086,44.321648,69.16581)"><g
       clip-path="url(#clipPath2902)"
       id="g2900"><g
         transform="scale(10,10)"
         id="g2906" /></g></g><g
     id="g2936"
     transform="matrix(0.086,0,0,0.086,44.321648,69.16581)"><g
       clip-path="url(#clipPath2940)"
       id="g2938"><path
         id="path2944"
         style="fill:none;stroke:#000000;stroke-width:4.94414949;stroke-linecap:butt;stroke-linejoin:round;stroke-miterlimit:10;stroke-opacity:1;stroke-dasharray:14.83244828, 14.83244828;stroke-dashoffset:0"
         d="m 4059.5795,5919.462 -51.326,27.5 -52.25,25.663 -53.174,23.837 -54.076,22.913 -54.087,20.163 -55,19.25 -55.913,16.5 -56.837,15.587 -55.913,13.75 -57.75,11.913 -56.837,10.087 -57.75,8.25 -58.663,6.413 -57.75,4.587 -57.75,2.75 -58.674,0.913 -58.663,-0.913 -57.75,-2.75 -57.75,-4.587 -58.663,-6.413 -57.75,-8.25 -56.837,-10.087 -57.75,-11.913 -55.913,-13.75 -56.837,-15.587 -55.913,-16.5 -55,-19.25 -54.087,-20.163 -54.087,-22.913 -53.163,-23.837 -52.25,-25.663 -51.337,-27.5"
         sodipodi:nodetypes="ccccccccccccccccccccccccccccccccc" /><path
         id="path2950"
         style="fill:none;stroke:#000000;stroke-width:4.94414949;stroke-linecap:butt;stroke-linejoin:round;stroke-miterlimit:10;stroke-opacity:1;stroke-dasharray:14.83244828, 14.83244828;stroke-dashoffset:0"
         d="m 3165.83,4293.328 0,2024.172"
         sodipodi:nodetypes="cc" /></g></g><path
     id="path2920"
     style="fill:none;stroke:#000000;stroke-width:0.42519683;stroke-linecap:butt;stroke-linejoin:round;stroke-miterlimit:10;stroke-opacity:1;stroke-dasharray:1.27559055, 1.27559055;stroke-dashoffset:0"
     d="m 400.43303,590.97081 -4.80138,2.58 -4.945,2.365 -4.945,2.29362 -5.08862,2.07776 -5.08776,1.935 -5.16,1.79224 -5.23224,1.57638 -5.30276,1.43362 -5.30362,1.29 -5.375,1.075 -5.375,1.00276 -5.44638,0.71724 -5.375,0.645 -5.44724,0.43 -5.51776,0.215 -5.44724,0.0714 -5.44638,-0.0714 -5.51862,-0.215 -5.44638,-0.43 -5.375,-0.645 -5.44638,-0.71724 -5.375,-1.00276 -5.375,-1.075 -5.30362,-1.29 -5.30362,-1.43362 -5.23138,-1.57638 -5.16,-1.79224 -5.08862,-1.935 -5.08776,-2.07776 -4.945,-2.29362 -4.945,-2.365 -4.80224,-2.58"
     sodipodi:nodetypes="ccccccccccccccccccccccccccccccccc" /><path
     id="path3170"
     style="fill:none;stroke:#000000;stroke-width:1.70080000000000010;stroke-linecap:butt;stroke-linejoin:round;stroke-miterlimit:10;stroke-opacity:1;stroke-dasharray:none"
     d="m 316.53354,612.47081 2.77311,0 0.28638,-0.0714 1.21862,0 0.35862,-0.0722 0.57276,0 0.28724,-0.0714 0.28638,0 0.35862,-0.0714 0.57276,0 0.28724,-0.0722 0.35776,0 0.28724,-0.0714 0.28638,0 0.28638,-0.0714 0.28724,0 0.35776,-0.0722 0.28724,-0.0714 0.28638,0 0.28638,-0.0714 0.28724,-0.0722 0.35776,0 0.28724,-0.0714 0.28638,-0.0714 0.28638,0 0.28724,-0.0722 0.35776,-0.0714 0.28724,-0.0714 0.28638,-0.0722 0.28638,0 0.28724,-0.0714 0.28638,-0.0714 0.35862,-0.0722 0.28638,-0.0714 0.28638,-0.0714 0.28724,-0.0722 0.28638,-0.0714 0.28638,-0.0714 0.28724,-0.0722 0.35776,-0.0714 0.28724,-0.0714 0.28638,-0.0722 0.28638,-0.0714 0.28724,-0.0714 0.28638,-0.0722 0.28638,-0.14276 0.28724,-0.0722 0.28638,-0.0714 0.35862,-0.0714 0.28638,-0.14362 0.28638,-0.0714 0.28724,-0.0722 0.28638,-0.0714 0.28638,-0.14362 0.28724,-0.0714 0.28638,-0.0714 0.28638,-0.14362 0.28724,-0.0714 0.28638,-0.14362 0.28638,-0.0714 0.28724,-0.14362 0.28638,-0.0714 0.28638,-0.14362 0.28724,-0.0714 0.28638,-0.14362 0.28638,-0.0714 0.28724,-0.14362 0.28638,-0.0714 0.28638,-0.14362 0.28724,-0.14362 0.28638,-0.0714 0.28638,-0.14362 0.28724,-0.14276 0.28638,-0.14362 0.28638,-0.0714 0.28724,-0.14362 0.28638,-0.14362 0.28638,-0.14276 0.28724,-0.0722 0.28638,-0.14276 0.215,-0.14362 0.28638,-0.14362 0.28724,-0.14276 0.28638,-0.14362 0.28638,-0.14362 0.28724,-0.14276 0.28638,-0.14362 0.215,-0.14362 0.28638,-0.14276 0.28724,-0.14362 0.28638,-0.14362 0.28638,-0.14276 0.215,-0.14362 0.28724,-0.14362 0.28638,-0.215 0.28638,-0.14276 0.28724,-0.14362 0.215,-0.14362 0.28638,-0.14276 0.28638,-0.215 0.28724,-0.14362 0.215,-0.14362 0.28638,-0.215 0.28638,-0.14276 0.215,-0.14362 0.28724,-0.215 0.28638,-0.14362 0.215,-0.14276 0.28638,-0.215 0.28724,-0.14362 0.215,-0.215 0.28638,-0.14362 0.215,-0.215 0.28638,-0.14276 0.28724,-0.215 0.215,-0.14362 0.28638,-0.215 0.215,-0.215 0.28638,-0.14362 0.215,-0.215 0.28724,-0.215 0.215,-0.14276 0.28638,-0.215 0.215,-0.215 0.28638,-0.215 0.215,-0.14362 0.28724,-0.215 0.215,-0.215 0.28638,-0.215 0.215,-0.215 0.215,-0.215 0.28638,-0.14362 0.215,-0.215 0.215,-0.215 0.28724,-0.215 0.215,-0.215 0.215,-0.215 0.28638,-0.215 0.215,-0.215 0.215,-0.215 0.28638,-0.28638 0.215,-0.215 0.215,-0.215 0.215,-0.215 0.28724,-0.215 0.215,-0.215 0.215,-0.215 0.215,-0.28638 0.215,-0.215 0.215,-0.215 0.28638,-0.215 0.215,-0.28724 0.215,-0.215 0.215,-0.215 0.215,-0.28638 0.215,-0.215 0.215,-0.28638 0.215,-0.215 0.215,-0.28724 0.215,-0.215 0.215,-0.28638 0.215,-0.215 0.215,-0.28638 0.215,-0.215 0.215,-0.28724 0.215,-0.215 0.215,-0.28638 0.215,-0.28638 0.14362,-0.215 0.215,-0.28724 0.215,-0.28638 0.215,-0.215 0.215,-0.28638 0.215,-0.28724 0.14276,-0.28638 0.215,-0.215 0.215,-0.28638 0.14362,-0.28724 0.215,-0.28638 0.215,-0.28638 0.14362,-0.28724 0.215,-0.28638 0.215,-0.28638 0.14276,-0.28724 0.215,-0.28638 0.14362,-0.28638 0.215,-0.28724 0.215,-0.28638 0.14362,-0.28638 0.215,-0.28724 0.14276,-0.28638 0.14362,-0.28638 0.215,-0.35862 0.14362,-0.28638 0.215,-0.28724 0.14276,-0.28638 0.14362,-0.35862 0.215,-0.28638 0.14362,-0.28638 0.14276,-0.28724 0.215,-0.35776 0.14362,-0.28724 0.14362,-0.35776 0.14276,-0.28724 0.14362,-0.28638 0.215,-0.35862 0.14362,-0.28638 0.14276,-0.35862 0.14362,-0.35776 0.14362,-0.28724 0.14276,-0.35776 0.14362,-0.28724 0.14362,-0.35776 0.14276,-0.35862 0.14362,-0.28638 0.14362,-0.35862 0.14276,-0.35862 0.14362,-0.35776 0.14362,-0.28724 0.0714,-0.35776 0.14362,-0.35862 0.14276,-0.35862 0.14362,-0.35776 0.0714,-0.35862 0.14362,-0.35862 0.14362,-0.28638 0.0714,-0.35862 0.14362,-0.43 0.14276,-0.35776 0.0722,-0.35862 0.14276,-0.35862 0.0722,-0.35776 0.14276,-0.35862 0.0722,-0.35862 0.14276,-0.35776 0.0722,-0.43 0.14276,-0.35862 0.0722,-0.35862 0.0714,-0.35776 0.0714,-0.43 0.14362,-0.35862 0.0714,-0.43 0.0722,-0.35862 0.0714,-0.35776 0.0714,-0.43 0.14362,-0.35862 0.0714,-0.43 0.0722,-0.43 0.0714,-0.35862 0.0714,-0.43 0.0722,-0.35776 0,-0.43 0.0714,-0.43 0.0714,-0.43 0.0722,-0.43 0.0714,-0.35862 0,-0.43 0.0714,-0.43"
     sodipodi:nodetypes="cccccccccccccccccccccccccccccccccccccccccccccccccccccccccccccccccccccccccccccccccccccccccccccccccccccccccccccccccccccccccccccccccccccccccccccccccccccccccccccccccccccccccccccccccccccccccccccccccccccccccccccccccccccccccccccccccccccccccccccccccccccccccccccccccc" /><path
     id="path3152"
     style="fill:none;stroke:#000000;stroke-width:1.70078743000000010;stroke-linecap:butt;stroke-linejoin:round;stroke-miterlimit:10;stroke-opacity:1;stroke-dasharray:none"
     d="m 240.05316,477.19831 -0.16615,0.32388 -0.0766,0.19732 -0.12508,0.23268 -0.0722,0.215 -0.14276,0.215 -0.0722,0.215 -0.14276,0.215 -0.0722,0.215 -0.0714,0.28724 -0.14362,0.215 -0.0714,0.215 -0.0714,0.215 -0.14362,0.215 -0.0714,0.215 -0.0722,0.215 -0.0714,0.28638 -0.14362,0.215 -0.0714,0.215 -0.0714,0.215 -0.0722,0.215 -0.0714,0.215 -0.0714,0.215 -0.14362,0.215 -0.0714,0.28638 -0.0722,0.215 -0.0714,0.215 -0.0714,0.215 -0.0722,0.215 -0.0714,0.215 -0.0714,0.215 -0.0722,0.215 -0.0714,0.28724 0,0.215 -0.0714,0.215 -0.0722,0.215 -0.0714,0.215 -0.0714,0.215 -0.0722,0.215 0,0.215 -0.0714,0.215 -0.0714,0.215 -0.0722,0.215 0,0.28638 -0.0714,0.215 -0.0714,0.215 0,0.215 -0.0722,0.215 0,0.215 -0.0714,0.215 -0.0714,0.215 0,0.215 -0.0722,0.215 0,0.215 -0.0714,0.215 0,0.43 -0.0714,0.215 0,0.215 -0.0722,0.215 0,0.43 -0.0714,0.215 0,0.645 -0.0714,0.215 0,1.075 -0.0722,0.215 0,1.64862 0.0722,0.215 0,1.00276 0.0714,0.215 0,0.57362 0.0714,0.215 0,0.43 0.0722,0.14362 0,0.215 0.0714,0.215 0,0.35776 0.0714,0.215 0,0.215 0.0722,0.14362 0.0714,0.215 0,0.215 0.0714,0.14362 0,0.215 0.0722,0.14276 0.0714,0.215 0,0.215 0.0714,0.14362 0.0722,0.215 0.0714,0.14362 0,0.215 0.0714,0.14276 0.0722,0.215 0.0714,0.14362 0.0714,0.215 0.0722,0.14362 0.0714,0.215 0.0714,0.14276 0,0.14362 0.0722,0.215 0.14276,0.14362 0.0722,0.14276 0.0714,0.215 0.0714,0.14362 0.0722,0.14362 0.0714,0.215 0.0714,0.14276 0.0722,0.14362 0.14276,0.14362 0.0722,0.215 0.0714,0.14276 0.0714,0.14362 0.14362,0.14362 0.0714,0.14276 0.0722,0.14362 0.14276,0.14362 0.0722,0.14276 0.14276,0.14362 0.0722,0.215 0.14276,0.14362 0.0722,0.0714 0.14276,0.14362 0.14362,0.14276 0.0714,0.14362 0.14362,0.14362 0.0714,0.14276 0.14362,0.14362 0.14362,0.14362 0.14276,0.0714 0.14362,0.14362 0.0714,0.14276 0.14362,0.0722 0.14362,0.14276 0.14276,0.14362 0.14362,0.0714 0.14362,0.14362 0.14276,0.0714 0.14362,0.14362 0.14362,0.0714 0.14276,0.14362 0.14362,0.0714 0.215,0.14362 0.14362,0.0714 0.14276,0.0722 0.14362,0.14276 0.215,0.0722 0.14362,0.0714 0.14276,0.0714 0.215,0.0722 0.14362,0.0714 0.215,0.0714 0.14362,0.0722 0.215,0.0714 0.14276,0.0714 0.215,0.0722 0.215,0.0714 0.215,0.0714 0.14362,0 0.215,0.0722 0.215,0 0.215,0.0714 0.215,0.0714 0.43,0 0.215,0.0722 0.93138,0 0.215,0.0714 0.28724,-0.0714 1.00276,0 0.215,-0.0722 0.28724,0 0.28638,-0.0714 0.28638,0 0.28724,-0.0714 0.28638,-0.0722 0.28638,-0.0714 0.28724,-0.0714 0.28638,-0.0722 0.28638,-0.0714 0.35862,-0.14362 0.28638,-0.0714 0.35862,-0.14362 0.28638,-0.0714 0.35862,-0.14362 0.35862,-0.14276 0.35776,-0.14362 0.35862,-0.14362 0.35862,-0.215 0.35776,-0.14276 0.43,-0.215 0.35862,-0.14362 0.43,-0.215 0.35862,-0.28638 0.43,-0.215 0.43,-0.215 0.43,-0.28724 0.50138,-0.28638 0.43,-0.28638 0.50138,-0.35862 0.50224,-0.28638 0.50138,-0.35862 0.50138,-0.43 0.50224,-0.35862 0.57276,-0.43 0.57362,-0.43 0.57362,-0.50138 0.57276,-0.50138 0.645,-0.57362 0.645,-0.50138 0.71724,-0.645 0.71638,-0.645 0.71638,-0.645 0.78862,-0.78862 0.78862,-0.78862 0.86,-0.78776 0.86,-0.93224 1.00276,-1.00276 1.00362,-1.075 1.075,-1.14724 1.14638,-1.21776 1.21862,-1.36224 1.36138,-1.57638 1.43362,-1.64862 1.64862,-1.935 1.79138,-2.15 2.00638,-2.43638 2.365,-2.86638 2.795,-3.51224 3.36862,-4.3 4.37138,-5.59 6.16362,-7.955 10.535,-13.83138 2.86638,-3.79862 -3.225,4.3 -10.535,14.04724 -6.16276,8.31276 -4.37224,5.94862 -3.36776,4.73 -2.795,3.87 -2.29362,3.29638 -2.00638,2.86724 -1.79224,2.58 -1.57638,2.365 -1.43362,2.15 -1.21776,1.935 -1.21862,1.86276 -1.075,1.72 -1.00362,1.57724 -0.93138,1.505 -0.86,1.505 -0.78862,1.36138 -0.78776,1.29 -0.645,1.29 -0.71724,1.21862 -0.645,1.14638 -0.57276,1.14638 -0.57362,1.075 -0.57362,1.075 -0.50138,1.00362 -0.50138,1.00362 -0.43,1.00276 -0.43,0.93224 -0.43,0.93138 -0.43,0.86 -0.35862,0.93138 -0.43,0.86 -0.28638,0.78862 -0.35862,0.86 -0.35862,0.78862 -0.28638,0.78776 -0.28638,0.78862 -0.28724,0.78862 -0.28638,0.71638 -0.28638,0.71638 -0.215,0.78862 -0.28724,0.71638 -0.215,0.645 -0.215,0.71724 -0.215,0.71638 -0.215,0.645 -0.215,0.645 -0.14276,0.71638 -0.215,0.645 -0.14362,0.645 -0.14362,0.57362 -0.215,0.645 -0.14276,0.645 -0.14362,0.57362 -0.14362,0.645 -0.0714,0.57276 -0.14362,0.57362 -0.14276,0.57362 -0.0722,0.645 -0.14276,0.57276 -0.1097,0.53974"
     sodipodi:nodetypes="ccccccccccccccccccccccccccccccccccccccccccccccccccccccccccccccccccccccccccccccccccccccccccccccccccccccccccccccccccccccccccccccccccccccccccccccccccccccccccccccccccccccccccccccccccccccccccccccccccccccccccccccccccccccccccccccccccccccccccccccccccccccccccccccccccccccccccccccccccccccccccccccccccccc" /><path
     id="path3154"
     style="fill:none;stroke:#000000;stroke-width:1.70078743000000010;stroke-linecap:butt;stroke-linejoin:round;stroke-miterlimit:10;stroke-opacity:1;stroke-dasharray:none"
     d="m 299.6979,436.23373 0.40237,0.0807 0.35776,0.0714 0.35862,0.0714 0.35862,0.14362 0.35776,0.0714 0.43,0 0.35862,0.0722 0.35862,0.0714 0.35776,0.0714 0.43,0.0722 0.35862,0.0714 0.35862,0.0714 0.43,0.0722 0.35776,0.0714 0.35862,0.0714 0.35862,0 0.43,0.0722 0.35776,0.0714 0.35862,0.0714 0.43,0 0.35862,0.0722 0.35776,0.0714 0.35862,0 0.43,0.0714 0.35862,0.0722 0.35776,0 0.35862,0.0714 0.35862,0.0714 0.35776,0 0.35862,0.0722 0.35862,0 0.35776,0.0714 0.71724,0 0.35776,0.0714 0.35862,0 0.28638,0.0722 0.71724,0 0.28638,0.0714 0.645,0 0.28638,0.0714 1.29,0 -0.14276,0.0722 -1.29,0 -0.28724,0.0714 -1.075,0 -0.35776,0.0714 -0.78862,0 -0.35862,0.0722 -0.43,0 -0.35776,0.0714 -0.43,0 -0.43,0.0714 -0.43,0 -0.43,0.0722 -0.43,0 -0.43,0.0714 -0.43,0 -0.43,0.0714 -0.43,0.0722 -0.43,0 -0.50224,0.0714 -0.43,0.0714 -0.43,0.0722 -0.50138,0 -0.43,0.0714 -0.43,0.0714 -0.50138,0.0722 -0.43,0.0714 -0.50224,0.0714 -0.43,0.0722 -0.50138,0.0714 -0.43,0.0714 -0.50138,0.0722 -0.43,0.0714 -0.50224,0.0714 -0.43,0.0722 -0.50138,0.0714 -0.43,0.0714 -0.50138,0.0722 -0.43,0.0714 -0.50224,0.0714 -0.43,0.14362 -0.50138,0.0714 -0.43,0.0722 -0.50138,0.0714 -0.43,0.14362 -0.43,0.0714 -0.50224,0.0714 -0.43,0.14362 -0.50138,0.0714 -0.43,0.0722 -0.43,0.14276 -0.50138,0.0722 -0.43,0.14276 -0.43,0.0722 -0.43,0.14276 -0.50224,0.0722 -0.43,0.14276 -0.43,0.0722 -0.43,0.14276 -0.43,0.14362 -0.43,0.0714 -0.43,0.14362 -0.43,0.0714 -0.43,0.14362 -0.43,0.14362 -0.43,0.0714 -0.43,0.14362 -0.43,0.14276 -0.43,0.14362 -0.43,0.0714 -0.35776,0.14362 -0.43,0.14362 -0.43,0.14276 -0.43,0.14362 -0.35862,0.14362 -0.43,0.0714 -0.43,0.14362 -0.35862,0.14276 -0.43,0.14362 -0.35776,0.14362 -0.43,0.14276 -0.35862,0.14362 -0.43,0.14362 -0.35862,0.14276 -0.43,0.14362 -0.35776,0.14362 -0.35862,0.14276 -0.43,0.14362 -0.35862,0.14362 -0.35776,0.14276 -0.35862,0.14362 -0.43,0.14362 -0.35862,0.14276 -0.35776,0.14362 -0.35862,0.215 -0.35862,0.14362 -0.35776,0.14276 -0.35862,0.14362 -0.35862,0.14362 -0.35776,0.14276 -0.35862,0.215 -0.35862,0.14362 -0.35776,0.14362 -0.28724,0.14276 -0.35776,0.215 -0.35862,0.14362 -0.35862,0.14362 -0.28638,0.215 -0.35862,0.14276 -0.35776,0.14362 -0.28724,0.14362 -0.35776,0.215 -0.35862,0.14276 -0.28638,0.215 -0.35862,0.14362 -0.28638,0.14362 -0.35862,0.215 -0.28638,0.14276 -0.28724,0.215 -0.35776,0.14362 -0.28724,0.14362 -0.35776,0.215 -0.28724,0.14276 -0.28638,0.215 -0.28638,0.14362 -0.35862,0.215 -0.28638,0.14362 -0.28724,0.215 -0.28638,0.14276 -0.28638,0.215 -0.28724,0.14362 -0.28638,0.215 -0.28638,0.215 -0.28724,0.14362 -0.28638,0.215 -0.28638,0.14276 -0.28724,0.215 -0.28638,0.14362 -0.28638,0.215 -0.28724,0.215 -0.28638,0.14362 -0.28638,0.215 -0.215,0.215 -0.28724,0.14276 -0.28638,0.215 -0.28638,0.215 -0.215,0.14362 -0.28724,0.215 -0.28638,0.215 -0.215,0.14362 -0.28638,0.215 -0.215,0.215 -0.28724,0.215 -0.28638,0.14276 -0.215,0.215 -0.215,0.215 -0.28638,0.215 -0.215,0.14362 -0.28724,0.215 -0.215,0.215 -0.215,0.215 -0.28638,0.215 -0.215,0.14362 -0.215,0.215 -0.28638,0.215 -0.215,0.215 -0.215,0.215 -0.215,0.14276 -0.215,0.215 -0.28724,0.215 -0.215,0.215 -0.215,0.215 -0.215,0.215 -0.215,0.215 -0.215,0.215 -0.215,0.14362 -0.215,0.215 -0.215,0.215 -0.215,0.215 -0.215,0.215 -0.215,0.215 -0.215,0.215 -0.14276,0.215 -0.215,0.215 -0.215,0.215 -0.215,0.215 -0.215,0.215 -0.14362,0.215 -0.215,0.215 -0.215,0.215 -0.215,0.215 -0.14362,0.14362 -0.215,0.215 -0.14276,0.215 -0.215,0.215 -0.215,0.215 -0.14362,0.215 -0.215,0.215 -0.14362,0.215 -0.215,0.215 -0.14276,0.28638 -0.215,0.215 -0.14362,0.215 -0.14362,0.215 -0.215,0.215 -0.14276,0.215 -0.215,0.215 -0.14362,0.215 -0.14362,0.215 -0.14276,0.215 -0.215,0.215 -0.14362,0.215 -0.14362,0.215 -0.14276,0.215 -0.215,0.215 -0.14362,0.215 -0.14362,0.215 -0.14276,0.215 -0.14362,0.215 -0.14362,0.28638 -0.14276,0.215 -0.14362,0.215 -0.14362,0.215 -0.14276,0.215 -0.14362,0.215 -0.14362,0.215 -0.14276,0.215 -0.14362,0.215 -0.14362,0.215 -0.14276,0.28724 -0.0722,0.215 -0.14276,0.215 -0.14362,0.215 -0.14362,0.215 -0.14276,0.215 -0.0722,0.215 -0.14276,0.215 -0.14362,0.28638 -0.14362,0.215 -0.0714,0.215 -0.14362,0.215 -0.0714,0.215 -0.14362,0.215 -0.12066,0.22384 -0.16711,0.3299"
     sodipodi:nodetypes="ccccccccccccccccccccccccccccccccccccccccccccccccccccccccccccccccccccccccccccccccccccccccccccccccccccccccccccccccccccccccccccccccccccccccccccccccccccccccccccccccccccccccccccccccccccccccccccccccccccccccccccccccccccccccccccccccccccccccccccccccccccccccccccccccccccccccccccccccccccccccccccccc" /><path
     id="path3156"
     style="fill:none;stroke:#000000;stroke-width:1.70078743000000010;stroke-linecap:butt;stroke-linejoin:round;stroke-miterlimit:10;stroke-opacity:1;stroke-dasharray:none"
     d="m 267.95481,397.27416 -0.31954,0.053 -0.14362,0.0722 -0.14362,0 -0.14276,0.0714 -0.14362,0 -0.0714,0.0714 -0.14362,0 -0.14362,0.0722 -0.14276,0.0714 -0.0722,0 -0.14276,0.0714 -0.14362,0.0722 -0.0714,0 -0.14362,0.0714 -0.0714,0.0714 -0.14362,0.0722 -0.14362,0 -0.0714,0.0714 -0.14362,0.0714 -0.0714,0.0722 -0.14362,0.0714 -0.0714,0.0714 -0.0714,0 -0.14362,0.0722 -0.0714,0.0714 -0.14362,0.0714 -0.0714,0.0722 -0.0722,0.0714 -0.14276,0.0714 -0.0722,0.0722 -0.0714,0.0714 -0.0714,0.0714 -0.14362,0.0722 -0.0714,0.14276 -0.0722,0.0722 -0.0714,0.0714 -0.0714,0.0714 -0.0722,0.0722 -0.14276,0.0714 -0.0722,0.0714 -0.0714,0.14362 -0.0714,0.0714 -0.0722,0.0722 -0.0714,0.0714 -0.0714,0.14362 -0.0722,0.0714 -0.0714,0.0714 -0.0714,0.0722 -0.0722,0.14276 0,0.0722 -0.0714,0.0714 -0.0714,0.14362 -0.0722,0.0714 -0.0714,0.0714 -0.0714,0.14362 0,0.0714 -0.0722,0.14362 -0.0714,0.0714 -0.0714,0.14362 0,0.0714 -0.0722,0.0722 -0.0714,0.14276 0,0.0722 -0.0714,0.14276 -0.0722,0.0722 0,0.14276 -0.0714,0.0722 0,0.14276 -0.0714,0.14362 -0.0722,0.0714 0,0.14362 -0.0714,0.0714 0,0.14362 -0.0714,0.0714 0,0.28724 -0.0722,0.0714 0,0.14362 -0.0714,0.14276 0,0.215 -0.0714,0.14362 0,0.35862 -0.0722,0.0714 0,0.50138 -0.0714,0.14362 0,2.07862 0.0714,0.14276 0,0.50224 0.0722,0.14276 0,0.28724 0.0714,0.14276 0,0.28724 0.0714,0.0714 0,0.28638 0.0722,0.14362 0,0.14362 0.0714,0.14276 0,0.28724 0.0714,0.14276 0,0.14362 0.0722,0.14362 0.0714,0.14276 0,0.14362 0.0714,0.14362 0,0.14276 0.0722,0.14362 0.0714,0.14362 0,0.14276 0.0714,0.14362 0.0722,0.14362 0,0.14276 0.0714,0.14362 0.0714,0.14362 0.0722,0.14276 0,0.14362 0.0714,0.14362 0.0714,0.14276 0.0722,0.14362 0.0714,0.14362 0.0714,0.14276 0,0.14362 0.0722,0.14362 0.0714,0.14276 0.0714,0.14362 0.0722,0.14362 0.0714,0.14276 0.0714,0.14362 0.0722,0.14362 0.0714,0.14276 0.0714,0.14362 0.0722,0.14362 0.14276,0.14276 0.0722,0.14362 0.0714,0.14362 0.0714,0.14276 0.0722,0.14362 0.0714,0.14362 0.14362,0.14276 0.0714,0.215 0.0714,0.14362 0.0722,0.14362 0.14276,0.14276 0.0722,0.14362 0.0714,0.14362 0.14362,0.14276 0.0714,0.14362 0.0714,0.14362 0.14362,0.14276 0.0714,0.14362 0.14362,0.14362 0.0714,0.14276 0.14362,0.14362 0.0714,0.14362 0.14362,0.14276 0.0714,0.14362 0.14362,0.14362 0.0714,0.215 0.14362,0.14276 0.14362,0.14362 0.0714,0.14362 0.14362,0.14276 0.14276,0.14362 0.0722,0.14362 0.14276,0.14276 0.14362,0.14362 0.14362,0.14362 0.0714,0.14276 0.14362,0.14362 0.14276,0.14362 0.14362,0.14276 0.14362,0.14362 0.14276,0.14362 0.0722,0.14276 0.14276,0.14362 0.14362,0.14362 0.14362,0.14276 0.14276,0.14362 0.14362,0.14362 0.14362,0.14276 0.14276,0.14362 0.215,0.14362 0.14362,0.215 0.14362,0.14276 0.14276,0.14362 0.14362,0.14362 0.14362,0.14276 0.14276,0.14362 0.215,0.14362 0.14362,0.14276 0.14362,0.14362 0.215,0.14362 0.14276,0.14276 0.14362,0.14362 0.215,0.14362 0.14362,0.14276 0.14276,0.14362 0.215,0.0714 0.14362,0.14362 0.215,0.14362 0.14362,0.14276 0.215,0.14362 0.14276,0.14362 0.215,0.14276 0.14362,0.14362 0.215,0.14362 0.215,0.14276 0.14362,0.14362 0.215,0.14362 0.215,0.14276 0.215,0.14362 0.14276,0.14362 0.215,0.14276 0.215,0.14362 0.215,0.0714 0.215,0.14362 0.14362,0.14362 0.215,0.14276 0.215,0.14362 0.215,0.14362 0.215,0.14276 0.215,0.14362 0.215,0.14362 0.215,0.0714 0.215,0.14362 0.215,0.14276 0.28638,0.14362 0.215,0.14362 0.215,0.14276 0.215,0.0722 0.215,0.14276 0.28724,0.14362 0.215,0.14362 0.215,0.14276 0.28638,0.0722 0.215,0.14276 0.215,0.14362 0.28638,0.14362 0.215,0.14276 0.28724,0.0722 0.215,0.14276 0.28638,0.14362 0.215,0.14362 0.28638,0.0714 0.215,0.14362 0.28724,0.14276 0.28638,0.0722 0.215,0.14276 0.28638,0.14362 0.28724,0.0714 0.28638,0.14362 0.28638,0.14362 0.215,0.0714 0.28724,0.14362 0.28638,0.14276 0.28638,0.0722 0.28724,0.14276 0.28638,0.14362 0.28638,0.0714 0.28724,0.14362 0.28638,0.0714 0.28638,0.14362 0.28724,0.14362 0.28638,0.0714 0.35862,0.14362 0.28638,0.0714 0.28638,0.14362 0.28724,0.0714 0.35776,0.14362 0.28724,0.0714 0.28638,0.14362 0.35862,0.0714 0.28638,0.14362 0.28638,0.0714 0.35862,0.0714 0.28638,0.14362 0.35862,0.0714 0.35862,0.14362 0.28638,0.0714 0.35862,0.0722 0.28638,0.14276 0.35862,0.0722 0.35776,0.14276 0.28724,0.0722 0.35776,0.0714 0.35862,0.0714 0.35862,0.14362 0.35776,0.0714 0.28724,0.0722 0.35776,0.14276 0.35862,0.0722 0.35862,0.0714 0.35776,0.0714 0.35862,0.0722 0.35862,0.14276 0.35776,0.0722 0.35862,0.0714 0.35862,0.0714 0.35776,0.0722 0.35862,0.0714 0.53625,0.0901"
     sodipodi:nodetypes="cccccccccccccccccccccccccccccccccccccccccccccccccccccccccccccccccccccccccccccccccccccccccccccccccccccccccccccccccccccccccccccccccccccccccccccccccccccccccccccccccccccccccccccccccccccccccccccccccccccccccccccccccccccccccccccccccccccccccccccccccccccccccccccccccccccccccccccccccccccccccccccccccccccccccccc" /><path
     id="path3158"
     style="fill:none;stroke:#000000;stroke-width:1.70078743000000010;stroke-linecap:butt;stroke-linejoin:round;stroke-miterlimit:10;stroke-opacity:1;stroke-dasharray:none"
     d="m 297.73374,376.86617 -0.21347,-0.10676 -0.14362,-0.0722 -0.14362,-0.0714 -0.14276,-0.0714 -0.14362,-0.0722 -0.14362,-0.0714 -0.14276,-0.0714 -0.14362,-0.0722 -0.14362,-0.0714 -0.14276,-0.0714 -0.14362,0 -0.14362,-0.0722 -0.14276,-0.0714 -0.14362,-0.0714 -0.14362,0 -0.14276,-0.0722 -0.0722,0 -0.14276,-0.0714 -0.28724,0 -0.14276,-0.0714 -0.215,0 -0.14362,-0.0722 -1.36138,0 -0.14362,0.0722 -0.35862,0 -0.0714,0.0714 -0.14362,0 -0.14276,0.0714 -0.0722,0 -0.14276,0.0722 -0.0722,0 -0.14276,0.0714 -0.0722,0.0714 -0.14276,0 -0.0722,0.0722 -0.14276,0.0714 -0.0722,0.0714 -0.14276,0 -0.0722,0.0722 -0.0714,0.0714 -0.14362,0.0714 -0.0714,0.0722 -0.0714,0.0714 -0.14362,0.0714 -0.0714,0.0722 -0.0722,0.0714 -0.14276,0.14362 -0.0722,0.0714 -0.0714,0.0714 -0.0714,0.0722 -0.14362,0.14276 -0.0714,0.0722 -0.0722,0.0714 -0.0714,0.14362 -0.0714,0.0714 -0.0722,0.14362 -0.0714,0.0714 -0.0714,0.14362 -0.0722,0.14276 -0.0714,0.0722 -0.0714,0.14276 -0.0722,0.14362 -0.0714,0.14362 -0.0714,0.0714 -0.0722,0.14362 -0.0714,0.14276 -0.0714,0.14362 -0.0722,0.14362 0,0.14276 -0.0714,0.14362 -0.0714,0.14362 -0.0722,0.14276 0,0.215 -0.0714,0.14362 -0.0714,0.14362 0,0.14276 -0.0722,0.215 -0.0714,0.14362 0,0.215 -0.0714,0.14362 0,0.35776 -0.0722,0.215 0,0.14362 -0.0714,0.215 0,0.645 -0.0714,0.14362 0,2.795 0.0714,0.215 0,0.57276 0.0714,0.215 0,0.28724 0.0722,0.28638 0,0.28638 0.0714,0.28724 0,0.28638 0.0714,0.28638 0.0722,0.28724 0.0714,0.28638 0.0714,0.28638 0,0.35862 0.0722,0.28638 0.0714,0.28724 0.0714,0.35776 0.14362,0.28724 0.0714,0.35776 0.0722,0.35862 0.0714,0.35862 0.14362,0.35776 0.0714,0.35862 0.14362,0.35862 0.0714,0.35776 0.14362,0.35862 0.14276,0.35862 0.14362,0.43 0.14362,0.35776 0.14276,0.43 0.14362,0.43 0.14362,0.43 0.14276,0.35862 0.14362,0.43 0.215,0.50138 0.14362,0.43 0.215,0.43 0.215,0.50224 0.215,0.50138 0.215,0.43 0.215,0.50138 0.215,0.50224 0.28638,0.57276 0.215,0.50224 0.28638,0.57276 0.28724,0.57362 0.28638,0.57362 0.28638,0.57276 0.28724,0.57362 0.35776,0.645 0.35862,0.645 0.35862,0.645 0.35776,0.645 0.35862,0.71638 0.43,0.71724 0.43,0.71638 0.43,0.71638 0.43,0.78862 0.50138,0.86 0.50224,0.78862 0.57276,0.86 0.57362,0.93138 0.57362,0.93138 0.645,1.00362 0.645,1.00362 0.71638,1.14638 0.71638,1.075 0.86,1.21862 0.86,1.29 0.86,1.36138 1.00362,1.43362 1.075,1.505 1.14638,1.64776 1.29,1.79224 1.43362,1.935 1.57638,2.15 1.72,2.43638 1.505,2.00638 -1.36138,-1.72 -1.86362,-2.365 -1.57638,-2.00638 -1.505,-1.86362 -1.36138,-1.72 -1.21862,-1.505 -1.21862,-1.43276 -1.075,-1.36224 -1.00276,-1.21776 -1.00362,-1.14724 -0.86,-1.075 -0.86,-1.00276 -0.86,-0.93224 -0.78862,-0.93138 -0.78776,-0.86 -0.71724,-0.78862 -0.645,-0.78776 -0.71638,-0.71724 -0.645,-0.71638 -0.645,-0.645 -0.57362,-0.645 -0.57276,-0.57362 -0.57362,-0.57276 -0.57362,-0.57362 -0.50138,-0.57362 -0.57362,-0.50138 -0.50138,-0.50138 -0.50138,-0.50224 -0.50224,-0.43 -0.43,-0.43 -0.50138,-0.43 -0.43,-0.43 -0.43,-0.35776 -0.43,-0.43 -0.43,-0.35862 -0.43,-0.35862 -0.35862,-0.35776 -0.43,-0.28724 -0.35776,-0.35776 -0.43,-0.28724 -0.35862,-0.28638 -0.35862,-0.35862 -0.35776,-0.215 -0.35862,-0.28638 -0.35862,-0.28638 -0.35776,-0.28724 -0.35862,-0.215 -0.28638,-0.215 -0.35862,-0.28638 -0.35862,-0.215 -0.28638,-0.215 -0.28638,-0.215 -0.35862,-0.14362 -0.28638,-0.215 -0.28724,-0.215 -0.28638,-0.14276 -0.28638,-0.215 -0.28724,-0.14362 -0.28638,-0.215 -0.28638,-0.14362 -0.28724,-0.14276 -0.28638,-0.14362 -0.28638,-0.14362 -0.28724,-0.14276 -0.215,-0.14362 -0.28638,-0.14362 -0.215,-0.0714 -0.28638,-0.14362 -0.215,-0.14276 -0.28724,-0.0722 -0.215,-0.14276 -0.28638,-0.0722 -0.215,-0.14276 -0.215,-0.0722 -0.28638,-0.0714 -0.215,-0.0714 -0.215,-0.14362 -0.215,-0.0714 -0.215,-0.0722 -0.215,-0.0714 -0.215,-0.0714 -0.215,-0.0722 -0.215,0 -0.215,-0.0714 -0.215,-0.0714 -0.215,-0.0722 -0.215,-0.0714 -0.215,0 -0.14362,-0.0714 -0.215,0 -0.215,-0.0722 -0.14362,0 -0.215,-0.0714 -0.215,0 -0.14276,-0.0714 -0.35862,0 -0.215,-0.0722 -1.00362,0 -0.215,-0.0714 -0.14276,0 -0.14362,0.0714 -0.93138,0 -0.14362,0.0722 -0.43,0 -0.14362,0.0714 -0.28638,0 -0.30272,0.0891"
     sodipodi:nodetypes="cccccccccccccccccccccccccccccccccccccccccccccccccccccccccccccccccccccccccccccccccccccccccccccccccccccccccccccccccccccccccccccccccccccccccccccccccccccccccccccccccccccccccccccccccccccccccccccccccccccccccccccccccccccccccccccccccccccccccccccccccccccccccccccccccccccccccccccccc" /><path
     id="path3160"
     style="fill:none;stroke:#000000;stroke-width:1.70078743000000010;stroke-linecap:butt;stroke-linejoin:round;stroke-miterlimit:10;stroke-opacity:1;stroke-dasharray:none"
     d="m 339.46954,375.61219 -0.66927,0 -0.14362,0.0722 -0.215,0 -0.14362,0.0714 -0.28638,0 -0.14362,0.0714 -0.0714,0 -0.14362,0.0722 -0.14276,0 -0.14362,0.0714 -0.14362,0.0714 -0.14276,0.0722 -0.14362,0 -0.14362,0.0714 -0.14276,0.0714 -0.14362,0.0722 -0.14362,0.0714 -0.14276,0.0714 -0.14362,0.0722 -0.14362,0.0714 -0.14276,0.0714 -0.14362,0.0722 -0.14362,0.0714 -0.14276,0.0714 -0.14362,0.14362 -0.14362,0.0714 -0.14276,0.0722 -0.14362,0.14276 -0.14362,0.0722 -0.14276,0.14276 -0.14362,0.0722 -0.14362,0.14276 -0.14276,0.14362 -0.14362,0.0714 -0.14362,0.14362 -0.14276,0.14362 -0.14362,0.14276 -0.215,0.0722 -0.14362,0.14276 -0.14276,0.14362 -0.14362,0.14362 -0.14362,0.14276 -0.14276,0.215 -0.14362,0.14362 -0.14362,0.14362 -0.215,0.14276 -0.14276,0.14362 -0.14362,0.215 -0.14362,0.14362 -0.14276,0.215 -0.14362,0.14276 -0.14362,0.215 -0.215,0.14362 -0.14276,0.215 -0.14362,0.215 -0.14362,0.215 -0.14276,0.215 -0.14362,0.14362 -0.215,0.215 -0.14362,0.215 -0.14276,0.28638 -0.14362,0.215 -0.14362,0.215 -0.14276,0.215 -0.215,0.215 -0.14362,0.28638 -0.14362,0.215 -0.14276,0.28724 -0.14362,0.215 -0.14362,0.28638 -0.215,0.28638 -0.14276,0.215 -0.14362,0.28724 -0.14362,0.28638 -0.14276,0.28638 -0.14362,0.28724 -0.215,0.28638 -0.14362,0.28638 -0.14276,0.35862 -0.14362,0.28638 -0.14362,0.28724 -0.14276,0.35776 -0.215,0.28724 -0.14362,0.35776 -0.14362,0.35862 -0.14276,0.28638 -0.14362,0.35862 -0.14362,0.35862 -0.14276,0.35776 -0.215,0.35862 -0.14362,0.35862 -0.14362,0.35776 -0.14276,0.43 -0.14362,0.35862 -0.14362,0.43 -0.14276,0.35862 -0.14362,0.43 -0.215,0.43 -0.14362,0.43 -0.14276,0.43 -0.14362,0.43 -0.14362,0.43 -0.14276,0.43 -0.14362,0.43 -0.14362,0.50138 -0.14276,0.43 -0.14362,0.50138 -0.14362,0.50224 -0.14276,0.50138 -0.14362,0.50138 -0.14362,0.50224 -0.14276,0.50138 -0.14362,0.57362 -0.14362,0.50138 -0.14276,0.57362 -0.14362,0.57276 -0.14362,0.50224 -0.14276,0.57276 -0.14362,0.645 -0.14362,0.57362 -0.14276,0.57362 -0.14362,0.645 -0.0714,0.645 -0.14362,0.645 -0.14362,0.645 -0.14276,0.645 -0.14362,0.645 -0.14362,0.71638 -0.14276,0.71638 -0.0722,0.71724 -0.14276,0.71638 -0.14362,0.71638 -0.14362,0.78862 -0.0714,0.71638 -0.14362,0.78862 -0.14276,0.86 -0.0722,0.78862 -0.14276,0.86 -0.14362,0.78776 -0.0714,0.93224 -0.14362,0.86 -0.14362,0.93138 -0.0714,0.86 -0.14362,1.00362 -0.0714,0.93138 -0.14362,1.00362 -0.0714,1.00276 -0.14362,1.075 -0.0714,1.00362 -0.0714,1.14638 -0.14362,1.075 -0.0714,1.14724 -0.14362,1.14638 -0.0714,1.21862 -0.0722,1.21776 -0.0714,1.29 -0.14362,1.29 0,0.43 0,-0.43 -0.14276,-1.29 -0.0722,-1.29 -0.0714,-1.21776 -0.0714,-1.21862 -0.14362,-1.14638 -0.0714,-1.14724 -0.14362,-1.075 -0.0714,-1.14638 -0.0722,-1.00362 -0.14276,-1.075 -0.0722,-1.00276 -0.14276,-1.00362 -0.0722,-0.93138 -0.14276,-1.00362 -0.0722,-0.86 -0.14276,-0.93138 -0.14362,-0.86 -0.0714,-0.93224 -0.14362,-0.78776 -0.14362,-0.86 -0.0714,-0.78862 -0.14362,-0.86 -0.14276,-0.78862 -0.0722,-0.71638 -0.14276,-0.78862 -0.14362,-0.71638 -0.14362,-0.71638 -0.0714,-0.71724 -0.14362,-0.71638 -0.14276,-0.71638 -0.14362,-0.645 -0.14362,-0.645 -0.14276,-0.645 -0.14362,-0.645 -0.0714,-0.645 -0.14362,-0.645 -0.14362,-0.57362 -0.14276,-0.57362 -0.14362,-0.645 -0.14362,-0.57276 -0.14276,-0.50224 -0.14362,-0.57276 -0.14362,-0.57362 -0.14276,-0.50138 -0.14362,-0.57362 -0.14362,-0.50138 -0.14276,-0.50224 -0.14362,-0.50138 -0.14362,-0.50138 -0.14276,-0.50224 -0.14362,-0.50138 -0.14362,-0.43 -0.14276,-0.50138 -0.14362,-0.43 -0.14362,-0.43 -0.14276,-0.43 -0.14362,-0.43 -0.14362,-0.43 -0.14276,-0.43 -0.215,-0.43 -0.14362,-0.43 -0.14362,-0.35862 -0.14276,-0.43 -0.14362,-0.35862 -0.14362,-0.43 -0.14276,-0.35776 -0.14362,-0.35862 -0.215,-0.35862 -0.14362,-0.35776 -0.14276,-0.35862 -0.14362,-0.35862 -0.14362,-0.28638 -0.14276,-0.35862 -0.14362,-0.35776 -0.215,-0.28724 -0.14362,-0.35776 -0.14276,-0.28724 -0.14362,-0.28638 -0.14362,-0.35862 -0.14276,-0.28638 -0.215,-0.28638 -0.14362,-0.28724 -0.14362,-0.28638 -0.14276,-0.28638 -0.14362,-0.28724 -0.14362,-0.215 -0.215,-0.28638 -0.14276,-0.28638 -0.14362,-0.215 -0.14362,-0.28724 -0.14276,-0.215 -0.14362,-0.28638 -0.215,-0.215 -0.14362,-0.215 -0.14276,-0.215 -0.14362,-0.215 -0.14362,-0.28638 -0.14276,-0.215 -0.215,-0.215 -0.14362,-0.14362 -0.14362,-0.215 -0.14276,-0.215 -0.14362,-0.215 -0.14362,-0.215 -0.215,-0.14362 -0.14276,-0.215 -0.14362,-0.14276 -0.14362,-0.215 -0.14276,-0.14362 -0.14362,-0.215 -0.14362,-0.14362 -0.215,-0.14276 -0.14276,-0.14362 -0.14362,-0.14362 -0.14362,-0.215 -0.14276,-0.14276 -0.14362,-0.14362 -0.14362,-0.14362 -0.14276,-0.14276 -0.215,-0.0722 -0.14362,-0.14276 -0.14362,-0.14362 -0.14276,-0.14362 -0.14362,-0.0714 -0.14362,-0.14362 -0.14276,-0.14276 -0.14362,-0.0722 -0.14362,-0.14276 -0.14276,-0.0722 -0.14362,-0.14276 -0.14362,-0.0722 -0.14276,-0.0714 -0.14362,-0.14362 -0.14362,-0.0714"
     sodipodi:nodetypes="cccccccccccccccccccccccccccccccccccccccccccccccccccccccccccccccccccccccccccccccccccccccccccccccccccccccccccccccccccccccccccccccccccccccccccccccccccccccccccccccccccccccccccccccccccccccccccccccccccccccccccccccccccccccccccccccccccccccccccccccccccccccccccccccccccccccccccccccccccccccccccccccccccccc" /><path
     id="path3162"
     style="fill:none;stroke:#000000;stroke-width:1.70078743000000010;stroke-linecap:butt;stroke-linejoin:round;stroke-miterlimit:10;stroke-opacity:1;stroke-dasharray:none"
     d="m 368.98165,399.04469 -0.29362,-0.2839 -0.1464,-0.0714 -0.0714,-0.0722 -0.14362,-0.0714 -0.0714,-0.0714 -0.14362,-0.0722 -0.0714,0 -0.0722,-0.0714 -0.14276,-0.0714 -0.0722,-0.0722 -0.14276,-0.0714 -0.0722,-0.0714 -0.14276,0 -0.14362,-0.0722 -0.0714,-0.0714 -0.14362,-0.0714 -0.0714,0 -0.14362,-0.0722 -0.14362,-0.0714 -0.0714,0 -0.14362,-0.0714 -0.14276,-0.0722 -0.14362,0 -0.0714,-0.0714 -0.14362,0 -0.14362,-0.0714 -0.14276,0 -0.14362,-0.0722 -0.14362,0 -0.14276,-0.0714 -0.28724,0 -0.14276,-0.0714 -0.43,0 -0.14362,-0.0722 -0.93138,0 -0.14362,-0.0714 -0.14362,0 -0.215,0.0714 -1.00276,0 -0.215,0.0722 -0.35862,0 -0.14362,0.0714 -0.215,0 -0.215,0.0714 -0.14276,0 -0.215,0.0722 -0.215,0 -0.14362,0.0714 -0.215,0 -0.215,0.0714 -0.215,0.0722 -0.215,0.0714 -0.215,0.0714 -0.215,0 -0.215,0.0722 -0.215,0.0714 -0.215,0.0714 -0.215,0.0722 -0.215,0.0714 -0.215,0.14362 -0.215,0.0714 -0.28638,0.0714 -0.215,0.0722 -0.215,0.14276 -0.28724,0.0722 -0.215,0.14276 -0.28638,0.0722 -0.215,0.14276 -0.28638,0.14362 -0.215,0.0714 -0.28724,0.14362 -0.215,0.14362 -0.28638,0.14276 -0.28638,0.14362 -0.28724,0.14362 -0.28638,0.14276 -0.28638,0.14362 -0.28724,0.215 -0.28638,0.14362 -0.28638,0.215 -0.28724,0.14276 -0.28638,0.215 -0.28638,0.215 -0.35862,0.14362 -0.28638,0.215 -0.28724,0.215 -0.35776,0.215 -0.35862,0.28638 -0.28638,0.215 -0.35862,0.215 -0.35862,0.28724 -0.35776,0.28638 -0.35862,0.28638 -0.35862,0.215 -0.35776,0.35862 -0.35862,0.28638 -0.43,0.28724 -0.35862,0.35776 -0.43,0.28724 -0.35776,0.35776 -0.43,0.35862 -0.43,0.35862 -0.43,0.43 -0.43,0.35776 -0.43,0.43 -0.50224,0.43 -0.43,0.43 -0.50138,0.43 -0.50138,0.50224 -0.50224,0.50138 -0.57276,0.50138 -0.50224,0.57362 -0.57276,0.57362 -0.57362,0.57276 -0.57362,0.57362 -0.57276,0.645 -0.645,0.645 -0.645,0.71638 -0.71724,0.71724 -0.645,0.78776 -0.71638,0.78862 -0.78862,0.86 -0.78776,0.93138 -0.86,0.93224 -0.86,1.00276 -0.86,1.075 -1.00362,1.14724 -1.00362,1.21776 -1.075,1.36224 -1.21776,1.43276 -1.21862,1.505 -1.36138,1.72 -1.505,1.86362 -1.57724,2.00638 -1.86276,2.365 -1.36224,1.72 1.505,-2.00638 1.72,-2.43638 1.57724,-2.15 1.43276,-1.935 1.29,-1.79224 1.14724,-1.64776 1.075,-1.505 1.00276,-1.43362 0.86,-1.36138 0.86,-1.29 0.86,-1.21862 0.71724,-1.075 0.71638,-1.14638 0.645,-1.00362 0.645,-1.00362 0.57362,-0.93138 0.57276,-0.93138 0.57362,-0.86 0.50138,-0.78862 0.50224,-0.86 0.43,-0.78862 0.43,-0.71638 0.43,-0.71638 0.43,-0.71724 0.35776,-0.71638 0.35862,-0.645 0.35862,-0.645 0.35776,-0.645 0.35862,-0.645 0.28638,-0.57362 0.28724,-0.57276 0.28638,-0.57362 0.28638,-0.57362 0.28724,-0.57276 0.215,-0.50224 0.28638,-0.57276 0.215,-0.50224 0.215,-0.50138 0.215,-0.43 0.215,-0.50138 0.215,-0.50224 0.215,-0.43 0.14362,-0.43 0.215,-0.50138 0.14276,-0.43 0.14362,-0.35862 0.14362,-0.43 0.14276,-0.43 0.14362,-0.43 0.14362,-0.35776 0.14276,-0.43 0.14362,-0.35862 0.14362,-0.35862 0.0714,-0.35776 0.14362,-0.35862 0.0714,-0.35862 0.14362,-0.35776 0.0714,-0.35862 0.0714,-0.35862 0.0722,-0.35776 0.14276,-0.28724 0.0722,-0.35776 0.0714,-0.28724 0.0714,-0.28638 0,-0.35862 0.0722,-0.28638 0.0714,-0.28638 0.0714,-0.28724 0.0722,-0.28638 0,-0.28638 0.0714,-0.28724 0,-0.28638 0.0714,-0.28638 0,-0.28724 0.0722,-0.215 0,-0.57276 0.0714,-0.215 0,-2.795 -0.0714,-0.14362 0,-0.645 -0.0722,-0.215 0,-0.14362 -0.0714,-0.215 0,-0.35776 -0.0714,-0.14362 0,-0.215 -0.0722,-0.14362 -0.0714,-0.215 0,-0.14276 -0.0714,-0.14362 -0.0722,-0.14362 0,-0.215 -0.0714,-0.14276 -0.0714,-0.14362 -0.0722,-0.14362 0,-0.14276 -0.0714,-0.14362 -0.0714,-0.14362 -0.0722,-0.14276 -0.0714,-0.14362 -0.0714,-0.0714 -0.0722,-0.14362 -0.0714,-0.14362 -0.0714,-0.14276 -0.0722,-0.0722 -0.0714,-0.14276 -0.0714,-0.14362 -0.0722,-0.0714 -0.0714,-0.14362 -0.0714,-0.0714 -0.0722,-0.14362 -0.0714,-0.0714 -0.0714,-0.0722 -0.14362,-0.14276 -0.0714,-0.0722 -0.0722,-0.0714 -0.0714,-0.0714 -0.14362,-0.14362 -0.0714,-0.0714 -0.0714,-0.0722 -0.14362,-0.0714 -0.0714,-0.0714 -0.0722,-0.0722 -0.14276,-0.0714 -0.0722,-0.0714 -0.0714,-0.0722 -0.14362,0 -0.0714,-0.0714 -0.14362,-0.0714 -0.0714,-0.0722 -0.14362,0 -0.0714,-0.0714 -0.14362,-0.0714 -0.0714,0 -0.14362,-0.0722 -0.0714,0 -0.14362,-0.0714 -0.14276,0 -0.0722,-0.0714 -0.35776,0 -0.14362,-0.0722 -0.74001,0"
     sodipodi:nodetypes="ccccccccccccccccccccccccccccccccccccccccccccccccccccccccccccccccccccccccccccccccccccccccccccccccccccccccccccccccccccccccccccccccccccccccccccccccccccccccccccccccccccccccccccccccccccccccccccccccccccccccccccccccccccccccccccccccccccccccccccccccccccccccccccccccccccccccccccccccccccccc" /><path
     id="path3164"
     style="fill:none;stroke:#000000;stroke-width:1.70078743000000010;stroke-linecap:butt;stroke-linejoin:round;stroke-miterlimit:10;stroke-opacity:1;stroke-dasharray:none"
     d="m 322.43713,438.01219 0.52452,-0.05 0.35862,-0.0714 0.35776,-0.0714 0.35862,0 0.35862,-0.0722 0.43,-0.0714 0.35776,0 0.35862,-0.0714 0.35862,-0.0722 0.43,0 0.35776,-0.0714 0.35862,-0.0714 0.43,-0.0722 0.35862,0 0.35776,-0.0714 0.35862,-0.0714 0.43,-0.0722 0.35862,-0.0714 0.35776,-0.0714 0.43,-0.0722 0.35862,-0.0714 0.35862,-0.0714 0.35776,-0.0722 0.43,0 0.35862,-0.0714 0.35862,-0.14362 0.35776,-0.0714 0.35862,-0.0714 0.35862,-0.0722 0.43,-0.0714 0.35776,-0.0714 0.35862,-0.0722 0.35862,-0.0714 0.35776,-0.0714 0.35862,-0.0722 0.35862,-0.14276 0.35776,-0.0722 0.35862,-0.0714 0.35862,-0.0714 0.35776,-0.0722 0.35862,-0.14276 0.28638,-0.0722 0.35862,-0.0714 0.35862,-0.14362 0.35776,-0.0714 0.35862,-0.0714 0.28638,-0.0722 0.35862,-0.14276 0.35862,-0.0722 0.28638,-0.14276 0.35862,-0.0722 0.28638,-0.0714 0.35862,-0.14362 0.35776,-0.0714 0.28724,-0.14362 0.35776,-0.0714 0.28724,-0.0714 0.28638,-0.14362 0.35862,-0.0714 0.28638,-0.14362 0.28638,-0.0714 0.35862,-0.14362 0.28638,-0.0714 0.28724,-0.14362 0.28638,-0.0714 0.35862,-0.14362 0.28638,-0.0714 0.28638,-0.14362 0.28724,-0.14362 0.28638,-0.0714 0.28638,-0.14362 0.28724,-0.0714 0.28638,-0.14362 0.28638,-0.14276 0.28724,-0.0722 0.28638,-0.14276 0.28638,-0.14362 0.215,-0.0714 0.28724,-0.14362 0.28638,-0.14362 0.28638,-0.0714 0.28724,-0.14362 0.215,-0.14276 0.28638,-0.0722 0.28638,-0.14276 0.215,-0.14362 0.28724,-0.0714 0.215,-0.14362 0.28638,-0.14362 0.215,-0.14276 0.28638,-0.0722 0.215,-0.14276 0.28724,-0.14362 0.215,-0.14362 0.215,-0.14276 0.28638,-0.0722 0.215,-0.14276 0.215,-0.14362 0.28638,-0.14362 0.215,-0.14276 0.215,-0.0722 0.215,-0.14276 0.215,-0.14362 0.28724,-0.14362 0.215,-0.14276 0.215,-0.14362 0.215,-0.0714 0.215,-0.14362 0.215,-0.14362 0.215,-0.14276 0.215,-0.14362 0.215,-0.14362 0.215,-0.14276 0.14276,-0.14362 0.215,-0.14362 0.215,-0.0714 0.215,-0.14362 0.215,-0.14276 0.14362,-0.14362 0.215,-0.14362 0.215,-0.14276 0.215,-0.14362 0.14362,-0.14362 0.215,-0.14276 0.215,-0.14362 0.14276,-0.14362 0.215,-0.14276 0.14362,-0.14362 0.215,-0.14362 0.14362,-0.14276 0.215,-0.14362 0.14276,-0.14362 0.215,-0.0714 0.14362,-0.14362 0.14362,-0.14276 0.215,-0.14362 0.14276,-0.14362 0.14362,-0.14276 0.215,-0.14362 0.14362,-0.14362 0.14276,-0.14276 0.215,-0.14362 0.14362,-0.14362 0.14362,-0.14276 0.14276,-0.14362 0.14362,-0.14362 0.14362,-0.14276 0.14276,-0.215 0.215,-0.14362 0.14362,-0.14362 0.14362,-0.14276 0.14276,-0.14362 0.14362,-0.14362 0.14362,-0.14276 0.14276,-0.14362 0.14362,-0.14362 0.0714,-0.14276 0.14362,-0.14362 0.14362,-0.14362 0.14276,-0.14276 0.14362,-0.14362 0.14362,-0.14362 0.0714,-0.14276 0.14362,-0.14362 0.14276,-0.14362 0.14362,-0.14276 0.0714,-0.14362 0.14362,-0.14362 0.14362,-0.14276 0.0714,-0.14362 0.14362,-0.14362 0.14276,-0.14276 0.0722,-0.215 0.14276,-0.14362 0.0722,-0.14362 0.14276,-0.14276 0.0722,-0.14362 0.14276,-0.14362 0.0722,-0.14276 0.14276,-0.14362 0.0722,-0.14362 0.14276,-0.14276 0.0722,-0.14362 0.0714,-0.14362 0.14362,-0.14276 0.0714,-0.14362 0.0714,-0.14362 0.14362,-0.14276 0.0714,-0.14362 0.0722,-0.14362 0.0714,-0.215 0.14362,-0.14276 0.0714,-0.14362 0.0714,-0.14362 0.0722,-0.14276 0.0714,-0.14362 0.0714,-0.14362 0.14362,-0.14276 0.0714,-0.14362 0.0722,-0.14362 0.0714,-0.14276 0.0714,-0.14362 0.0722,-0.14362 0.0714,-0.14276 0.0714,-0.14362 0.0722,-0.14362 0.0714,-0.14276 0.0714,-0.14362 0,-0.14362 0.0722,-0.14276 0.0714,-0.14362 0.0714,-0.14362 0.0722,-0.14276 0.0714,-0.14362 0,-0.14362 0.0714,-0.14276 0.0722,-0.14362 0.0714,-0.14362 0,-0.14276 0.0714,-0.14362 0.0722,-0.14362 0,-0.14276 0.0714,-0.14362 0.0714,-0.14362 0,-0.14276 0.0722,-0.14362 0,-0.14362 0.0714,-0.14276 0.0714,-0.14362 0,-0.14362 0.0722,-0.14276 0,-0.28724 0.0714,-0.14276 0,-0.14362 0.0714,-0.14362 0,-0.28638 0.0722,-0.0714 0,-0.28724 0.0714,-0.14276 0,-0.28724 0.0714,-0.14276 0,-0.50224 0.0722,-0.14276 0,-2.07862 -0.0722,-0.14362 0,-0.50138 -0.0714,-0.0714 0,-0.35862 -0.0714,-0.14362 0,-0.215 -0.0722,-0.14276 0,-0.14362 -0.0714,-0.0714 0,-0.28724 -0.0714,-0.0714 0,-0.14362 -0.0722,-0.0714 0,-0.14362 -0.0714,-0.0714 -0.0714,-0.14362 0,-0.14276 -0.0722,-0.0722 0,-0.14276 -0.0714,-0.0722 -0.0714,-0.14276 0,-0.0722 -0.0722,-0.14276 -0.0714,-0.0722 0,-0.0714 -0.0714,-0.14362 -0.0722,-0.0714 -0.0714,-0.14362 0,-0.0714 -0.0714,-0.14362 -0.0722,-0.0714 -0.0714,-0.0714 -0.0714,-0.14362 -0.0722,-0.0714 0,-0.0722 -0.0714,-0.14276 -0.0714,-0.0722 -0.0722,-0.0714 -0.0714,-0.0714 -0.0714,-0.14362 -0.0722,-0.0714 -0.0714,-0.0722 -0.0714,-0.0714 -0.0722,-0.14362 -0.0714,-0.0714 -0.14362,-0.0714 -0.0714,-0.0722 -0.0714,-0.0714 -0.0722,-0.0714 -0.0714,-0.0722 -0.0714,-0.14276 -0.14362,-0.0722 -0.0714,-0.0714 -0.0722,-0.0714 -0.0714,-0.0722"
     sodipodi:nodetypes="cccccccccccccccccccccccccccccccccccccccccccccccccccccccccccccccccccccccccccccccccccccccccccccccccccccccccccccccccccccccccccccccccccccccccccccccccccccccccccccccccccccccccccccccccccccccccccccccccccccccccccccccccccccccccccccccccccccccccccccccccccccccccccccccccccccccccccccccccccccccccccccccccccccccccccc" /><path
     id="path3166"
     style="fill:none;stroke:#000000;stroke-width:1.70078743000000010;stroke-linecap:butt;stroke-linejoin:round;stroke-miterlimit:10;stroke-opacity:1;stroke-dasharray:none"
     d="m 395.81063,483.87209 -0.10756,-0.3299 -0.0714,-0.215 -0.0714,-0.215 -0.0722,-0.215 -0.0714,-0.215 -0.0714,-0.28638 -0.14362,-0.215 -0.0714,-0.215 -0.0722,-0.215 -0.0714,-0.215 -0.0714,-0.215 -0.0722,-0.215 -0.14276,-0.215 -0.0722,-0.28638 -0.0714,-0.215 -0.0714,-0.215 -0.14362,-0.215 -0.0714,-0.215 -0.0722,-0.215 -0.14276,-0.215 -0.0722,-0.28724 -0.0714,-0.215 -0.14362,-0.215 -0.0714,-0.215 -0.14362,-0.215 -0.0714,-0.215 -0.14362,-0.215 -0.0714,-0.215 -0.14362,-0.28638 -0.0714,-0.215 -0.14362,-0.215 -0.14276,-0.215 -0.0722,-0.215 -0.14276,-0.215 -0.0722,-0.215 -0.14276,-0.215 -0.14362,-0.28638 -0.14362,-0.215 -0.0714,-0.215 -0.14362,-0.215 -0.14276,-0.215 -0.14362,-0.215 -0.14362,-0.215 -0.0714,-0.215 -0.14362,-0.28724 -0.14276,-0.215 -0.14362,-0.215 -0.14362,-0.215 -0.14276,-0.215 -0.14362,-0.215 -0.14362,-0.215 -0.14276,-0.215 -0.14362,-0.215 -0.14362,-0.215 -0.14276,-0.28638 -0.14362,-0.215 -0.14362,-0.215 -0.14276,-0.215 -0.14362,-0.215 -0.215,-0.215 -0.14362,-0.215 -0.14276,-0.215 -0.14362,-0.215 -0.215,-0.215 -0.14362,-0.215 -0.14276,-0.215 -0.14362,-0.215 -0.215,-0.215 -0.14362,-0.215 -0.215,-0.215 -0.14276,-0.215 -0.14362,-0.215 -0.215,-0.215 -0.14362,-0.28638 -0.215,-0.215 -0.14276,-0.215 -0.215,-0.215 -0.14362,-0.215 -0.215,-0.215 -0.215,-0.215 -0.14362,-0.215 -0.215,-0.215 -0.14276,-0.14362 -0.215,-0.215 -0.215,-0.215 -0.215,-0.215 -0.14362,-0.215 -0.215,-0.215 -0.215,-0.215 -0.215,-0.215 -0.215,-0.215 -0.14362,-0.215 -0.215,-0.215 -0.215,-0.215 -0.215,-0.215 -0.215,-0.215 -0.215,-0.215 -0.215,-0.215 -0.215,-0.14362 -0.215,-0.215 -0.215,-0.215 -0.215,-0.215 -0.215,-0.215 -0.215,-0.215 -0.28638,-0.215 -0.215,-0.215 -0.215,-0.14276 -0.215,-0.215 -0.215,-0.215 -0.28638,-0.215 -0.215,-0.215 -0.215,-0.14362 -0.28724,-0.215 -0.215,-0.215 -0.215,-0.215 -0.28638,-0.215 -0.215,-0.14362 -0.28638,-0.215 -0.215,-0.215 -0.215,-0.215 -0.28724,-0.14276 -0.28638,-0.215 -0.215,-0.215 -0.28638,-0.215 -0.215,-0.14362 -0.28724,-0.215 -0.28638,-0.215 -0.215,-0.14362 -0.28638,-0.215 -0.28724,-0.215 -0.28638,-0.14276 -0.215,-0.215 -0.28638,-0.215 -0.28724,-0.14362 -0.28638,-0.215 -0.28638,-0.215 -0.28724,-0.14362 -0.28638,-0.215 -0.28638,-0.14276 -0.28724,-0.215 -0.28638,-0.14362 -0.28638,-0.215 -0.28724,-0.215 -0.28638,-0.14362 -0.28638,-0.215 -0.28724,-0.14276 -0.28638,-0.215 -0.28638,-0.14362 -0.35862,-0.215 -0.28638,-0.14362 -0.28724,-0.215 -0.28638,-0.14276 -0.35862,-0.215 -0.28638,-0.14362 -0.35862,-0.14362 -0.28638,-0.215 -0.28638,-0.14276 -0.35862,-0.215 -0.28638,-0.14362 -0.35862,-0.14362 -0.28638,-0.215 -0.35862,-0.14276 -0.35862,-0.215 -0.28638,-0.14362 -0.35862,-0.14362 -0.35776,-0.14276 -0.28724,-0.215 -0.35776,-0.14362 -0.35862,-0.14362 -0.35862,-0.215 -0.28638,-0.14276 -0.35862,-0.14362 -0.35776,-0.14362 -0.35862,-0.215 -0.35862,-0.14276 -0.35776,-0.14362 -0.35862,-0.14362 -0.35862,-0.14276 -0.35776,-0.14362 -0.35862,-0.215 -0.35862,-0.14362 -0.35776,-0.14276 -0.43,-0.14362 -0.35862,-0.14362 -0.35862,-0.14276 -0.35776,-0.14362 -0.43,-0.14362 -0.35862,-0.14276 -0.35862,-0.14362 -0.43,-0.14362 -0.35776,-0.14276 -0.43,-0.14362 -0.35862,-0.14362 -0.43,-0.14276 -0.35862,-0.14362 -0.43,-0.14362 -0.35776,-0.14276 -0.43,-0.14362 -0.43,-0.0714 -0.35862,-0.14362 -0.43,-0.14362 -0.43,-0.14276 -0.43,-0.14362 -0.35862,-0.14362 -0.43,-0.0714 -0.43,-0.14362 -0.43,-0.14276 -0.43,-0.14362 -0.43,-0.0714 -0.43,-0.14362 -0.43,-0.14362 -0.43,-0.0714 -0.43,-0.14362 -0.43,-0.0714 -0.43,-0.14362 -0.43,-0.14276 -0.43,-0.0722 -0.43,-0.14276 -0.50138,-0.0722 -0.43,-0.14276 -0.43,-0.0722 -0.43,-0.14276 -0.50138,-0.0722 -0.43,-0.14276 -0.43,-0.0722 -0.50224,-0.0714 -0.43,-0.14362 -0.50138,-0.0714 -0.43,-0.0714 -0.43,-0.14362 -0.50138,-0.0714 -0.43,-0.0722 -0.50224,-0.0714 -0.43,-0.14362 -0.50138,-0.0714 -0.43,-0.0714 -0.50138,-0.0722 -0.43,-0.0714 -0.50224,-0.0714 -0.43,-0.0722 -0.50138,-0.0714 -0.43,-0.0714 -0.50138,-0.0722 -0.43,-0.0714 -0.50224,-0.0714 -0.43,-0.0722 -0.50138,-0.0714 -0.43,-0.0714 -0.50138,-0.0722 -0.43,-0.0714 -0.43,-0.0714 -0.50224,0 -0.43,-0.0722 -0.43,-0.0714 -0.50138,-0.0714 -0.43,0 -0.43,-0.0722 -0.43,-0.0714 -0.43,0 -0.43,-0.0714 -0.43,0 -0.43,-0.0722 -0.43,0 -0.43,-0.0714 -0.43,0 -0.35862,-0.0714 -0.43,0 -0.35776,-0.0722 -0.78862,0 -0.35862,-0.0714 -1.075,0 -0.28638,-0.0714 -1.29,0 -0.14362,-0.0722 1.29,0 0.28724,-0.0714 0.645,0 0.28638,-0.0714 0.71638,0 0.28724,-0.0722 0.35776,0 0.35862,-0.0714 0.71638,0 0.35862,-0.0714 0.35862,0 0.49918,-0.0545"
     sodipodi:nodetypes="ccccccccccccccccccccccccccccccccccccccccccccccccccccccccccccccccccccccccccccccccccccccccccccccccccccccccccccccccccccccccccccccccccccccccccccccccccccccccccccccccccccccccccccccccccccccccccccccccccccccccccccccccccccccccccccccccccccccccccccccccccccccccccccccccccccccccccccccccccccccccccccccc" /><path
     id="path3168"
     style="fill:none;stroke:#000000;stroke-width:1.70078743000000010;stroke-linecap:butt;stroke-linejoin:round;stroke-miterlimit:10;stroke-opacity:1;stroke-dasharray:none"
     d="m 377.84234,558.82081 0.0879,-0.53 0,-0.43 0.0714,-0.43 0.0714,-0.43 0,-0.86 0.0722,-0.50138 0,-0.43 0.0714,-0.43 0,-1.36224 0.0714,-0.43 0,-2.86638 -0.0714,-0.43 0,-1.505 -0.0714,-0.50138 0,-0.50224 -0.0722,-0.50138 0,-0.50138 -0.0714,-0.50224 -0.0714,-0.50138 0,-0.50138 -0.0722,-0.57362 -0.0714,-0.50138 -0.0714,-0.57362 -0.0722,-0.50138 -0.0714,-0.57362 -0.0714,-0.50138 -0.0722,-0.57362 -0.0714,-0.57362 -0.14362,-0.57276 -0.0714,-0.50224 -0.14362,-0.57276 -0.0714,-0.645 -0.14362,-0.57362 -0.14276,-0.57362 -0.0722,-0.57276 -0.14276,-0.645 -0.14362,-0.57362 -0.14362,-0.645 -0.215,-0.645 -0.14276,-0.57362 -0.14362,-0.645 -0.215,-0.645 -0.14362,-0.71638 -0.215,-0.645 -0.215,-0.645 -0.215,-0.71638 -0.215,-0.71724 -0.215,-0.645 -0.28638,-0.71638 -0.215,-0.78862 -0.28638,-0.71638 -0.28724,-0.71638 -0.28638,-0.78862 -0.28638,-0.78862 -0.28724,-0.78776 -0.35776,-0.78862 -0.35862,-0.86 -0.28638,-0.78862 -0.43,-0.86 -0.35862,-0.93138 -0.43,-0.86 -0.43,-0.93138 -0.43,-0.93224 -0.43,-1.00276 -0.50138,-1.00362 -0.50224,-1.00362 -0.57276,-1.075 -0.57362,-1.075 -0.57362,-1.14638 -0.645,-1.14638 -0.71638,-1.21862 -0.645,-1.29 -0.78862,-1.29 -0.78776,-1.36138 -0.86,-1.505 -0.93224,-1.505 -1.00276,-1.57724 -1.075,-1.72 -1.21862,-1.86276 -1.21862,-1.935 -1.43276,-2.15 -1.57724,-2.365 -1.79138,-2.58 -2.00638,-2.86724 -2.29362,-3.29638 -2.795,-3.87 -3.36862,-4.73 -4.37138,-5.94862 -6.16362,-8.31276 -10.535,-14.04724 -3.225,-4.3 2.86724,3.79862 10.535,13.83138 6.16276,7.955 4.37224,5.59 3.36776,4.3 2.795,3.51224 2.365,2.86638 2.00724,2.43638 1.79138,2.15 1.64862,1.935 1.43276,1.64862 1.36224,1.57638 1.21776,1.36224 1.14724,1.21776 1.075,1.14724 1.00276,1.075 1.00362,1.00276 0.86,0.93224 0.86,0.78776 0.78862,0.78862 0.78776,0.78862 0.71724,0.645 0.71638,0.645 0.71638,0.645 0.645,0.50138 0.645,0.57362 0.57362,0.50138 0.57362,0.50138 0.57276,0.43 0.57362,0.43 0.50138,0.35862 0.50224,0.43 0.50138,0.35862 0.50138,0.28638 0.50224,0.35862 0.43,0.28638 0.50138,0.28638 0.43,0.28724 0.43,0.215 0.43,0.215 0.35862,0.28638 0.43,0.215 0.35776,0.14362 0.43,0.215 0.35862,0.14276 0.35862,0.215 0.35776,0.14362 0.35862,0.14362 0.35862,0.14276 0.35776,0.14362 0.28724,0.0714 0.35776,0.14362 0.28724,0.0714 0.35776,0.14362 0.28724,0.0714 0.28638,0.0722 0.28638,0.0714 0.28724,0.0714 0.28638,0.0722 0.28638,0.0714 0.28724,0 0.28638,0.0714 0.28638,0 0.215,0.0722 1.00362,0 0.28638,0.0714 0.215,-0.0714 0.93224,0 0.215,-0.0722 0.43,0 0.215,-0.0714 0.215,-0.0714 0.215,0 0.215,-0.0722 0.14276,0 0.215,-0.0714 0.215,-0.0714 0.215,-0.0722 0.14362,-0.0714 0.215,-0.0714 0.14362,-0.0722 0.215,-0.0714 0.14276,-0.0714 0.215,-0.0722 0.14362,-0.0714 0.14362,-0.0714 0.215,-0.0722 0.14276,-0.14276 0.14362,-0.0722 0.14362,-0.0714 0.215,-0.14362 0.14276,-0.0714 0.14362,-0.14362 0.14362,-0.0714 0.14276,-0.14362 0.14362,-0.0714 0.14362,-0.14362 0.14276,-0.0714 0.14362,-0.14362 0.14362,-0.14276 0.14276,-0.0722 0.0722,-0.14276 0.14276,-0.14362 0.14362,-0.0714 0.14362,-0.14362 0.14276,-0.14362 0.0722,-0.14276 0.14276,-0.14362 0.0722,-0.14362 0.14276,-0.14276 0.14362,-0.14362 0.0714,-0.0714 0.14362,-0.14362 0.0714,-0.215 0.14362,-0.14362 0.0714,-0.14276 0.14362,-0.14362 0.0714,-0.14362 0.0722,-0.14276 0.14276,-0.14362 0.0722,-0.14362 0.0714,-0.14276 0.0714,-0.215 0.14362,-0.14362 0.0714,-0.14362 0.0722,-0.14276 0.0714,-0.215 0.0714,-0.14362 0.0722,-0.14362 0.0714,-0.215 0.0714,-0.14276 0.14362,-0.14362 0.0714,-0.215 0,-0.14362 0.0722,-0.14276 0.0714,-0.215 0.0714,-0.14362 0.0722,-0.215 0.0714,-0.14362 0.0714,-0.215 0.0722,-0.14276 0,-0.215 0.0714,-0.14362 0.0714,-0.215 0.0722,-0.14362 0,-0.215 0.0714,-0.215 0.0714,-0.14276 0,-0.215 0.0722,-0.14362 0,-0.215 0.0714,-0.215 0.0714,-0.14362 0,-0.215 0.0722,-0.215 0,-0.35776 0.0714,-0.215 0,-0.215 0.0714,-0.14362 0,-0.43 0.0722,-0.215 0,-0.57362 0.0714,-0.215 0,-1.00276 0.0714,-0.215 0,-1.64862 -0.0714,-0.215 0,-1.075 -0.0714,-0.215 0,-0.645 -0.0722,-0.215 0,-0.43 -0.0714,-0.215 0,-0.215 -0.0714,-0.215 0,-0.43 -0.0722,-0.215 0,-0.215 -0.0714,-0.215 0,-0.215 -0.0714,-0.215 -0.0722,-0.215 0,-0.215 -0.0714,-0.215 0,-0.215 -0.0714,-0.215 -0.0722,-0.215 0,-0.28638 -0.0714,-0.215 -0.0714,-0.215 -0.0722,-0.215 0,-0.215 -0.0714,-0.215 -0.0714,-0.215 -0.0722,-0.215 -0.0714,-0.215 -0.0714,-0.215 0,-0.215 -0.0722,-0.28724 -0.0714,-0.215 -0.0714,-0.215"
     sodipodi:nodetypes="ccccccccccccccccccccccccccccccccccccccccccccccccccccccccccccccccccccccccccccccccccccccccccccccccccccccccccccccccccccccccccccccccccccccccccccccccccccccccccccccccccccccccccccccccccccccccccccccccccccccccccccccccccccccccccccccccccccccccccccccccccccccccccccccccccccccccccccccccccccccccccccccccccccc" /><path
     style="fill:none;stroke:#000000;stroke-width:1.13385832;stroke-linecap:round;stroke-linejoin:miter;stroke-miterlimit:4;stroke-opacity:1;stroke-dasharray:none"
     d="M 316.58287,438.39219 225.73247,558.1757"
     id="path8131"
     sodipodi:nodetypes="cc" /><path
     id="path2952-4"
     style="fill:#000000;fill-opacity:1;stroke:#000000;stroke-width:1.1338582;stroke-linecap:round;stroke-linejoin:round;stroke-miterlimit:10;stroke-opacity:1;stroke-dasharray:none;stroke-dashoffset:0"
     d="M 316.58354,438.39236 368.39166,604.5666"
     sodipodi:nodetypes="cc" /><path
     sodipodi:nodetypes="cc"
     id="path8133"
     d="m 316.58287,438.39219 90.8504,119.78351"
     style="fill:none;stroke:#000000;stroke-width:1.13385832;stroke-linecap:round;stroke-linejoin:miter;stroke-miterlimit:4;stroke-opacity:1;stroke-dasharray:none" /><path
     id="path3150"
     style="fill:none;stroke:#000000;stroke-width:1.70078743000000010;stroke-linecap:butt;stroke-linejoin:round;stroke-miterlimit:10;stroke-opacity:1;stroke-dasharray:none"
     d="m 255.92803,539.69193 -0.11776,0.61026 -0.0722,0.57362 -0.0714,0.57362 -0.0714,0.50138 -0.0722,0.57362 -0.0714,0.50138 -0.0714,0.57362 -0.0722,0.50138 -0.0714,0.57362 0,0.50138 -0.0714,0.50138 -0.0722,0.50224 0,0.50138 -0.0714,0.50138 0,0.50224 -0.0714,0.50138 0,1.505 -0.0722,0.43 0,2.86638 0.0722,0.43 0,1.36224 0.0714,0.43 0,0.43 0.0714,0.50138 0,0.86 0.0722,0.43 0.0714,0.43 0,0.43 0.0714,0.43 0.0722,0.43 0,0.43 0.0714,0.35862 0.0714,0.43 0.0722,0.43 0.0714,0.43 0,0.43 0.0714,0.35776 0.0722,0.43 0.0714,0.35862 0.0714,0.43 0.0722,0.43 0.14276,0.35862 0.0722,0.43 0.0714,0.35776 0.0714,0.35862 0.0722,0.43 0.14276,0.35862 0.0722,0.43 0.0714,0.35776 0.0714,0.35862 0.14362,0.35862 0.0714,0.43 0.14362,0.35776 0.0714,0.35862 0.14362,0.35862 0.0714,0.35776 0.14362,0.35862 0.0714,0.35862 0.14362,0.35776 0.14362,0.43 0.0714,0.35862 0.14362,0.28638 0.14276,0.35862 0.0722,0.35862 0.14276,0.35776 0.14362,0.35862 0.14362,0.35862 0.0714,0.35776 0.14362,0.28724 0.14276,0.35776 0.14362,0.35862 0.14362,0.35862 0.14276,0.28638 0.14362,0.35862 0.14362,0.35776 0.14276,0.28724 0.14362,0.35776 0.14362,0.28724 0.14276,0.35776 0.14362,0.35862 0.14362,0.28638 0.215,0.35862 0.14276,0.28638 0.14362,0.28724 0.14362,0.35776 0.14276,0.28724 0.215,0.35776 0.14362,0.28724 0.14362,0.28638 0.215,0.28638 0.14276,0.35862 0.14362,0.28638 0.215,0.28724 0.14362,0.28638 0.215,0.35862 0.14276,0.28638 0.14362,0.28638 0.215,0.28724 0.14362,0.28638 0.215,0.28638 0.215,0.28724 0.14276,0.28638 0.215,0.28638 0.14362,0.28724 0.215,0.28638 0.215,0.28638 0.14362,0.28724 0.215,0.28638 0.215,0.28638 0.14276,0.28724 0.215,0.28638 0.215,0.215 0.14362,0.28638 0.215,0.28724 0.215,0.28638 0.215,0.215 0.215,0.28638 0.215,0.28724 0.14362,0.215 0.215,0.28638 0.215,0.28638 0.215,0.215 0.215,0.28724 0.215,0.215 0.215,0.28638 0.215,0.215 0.215,0.28638 0.215,0.215 0.215,0.28724 0.215,0.215 0.215,0.28638 0.215,0.215 0.215,0.28638 0.215,0.215 0.215,0.215 0.215,0.28724 0.28638,0.215 0.215,0.215 0.215,0.215 0.215,0.28638 0.215,0.215 0.215,0.215 0.28638,0.215 0.215,0.215 0.215,0.215 0.215,0.215 0.28724,0.28638 0.215,0.215 0.215,0.215 0.28638,0.215 0.215,0.215 0.215,0.215 0.28638,0.215 0.215,0.215 0.215,0.215 0.28724,0.14362 0.215,0.215 0.215,0.215 0.28638,0.215 0.215,0.215 0.28638,0.215 0.215,0.14362 0.28724,0.215 0.215,0.215 0.28638,0.215 0.215,0.14276 0.28638,0.215 0.215,0.215 0.28724,0.14362 0.215,0.215 0.28638,0.215 0.215,0.14362 0.28638,0.215 0.28724,0.14276 0.215,0.215 0.28638,0.14362 0.215,0.215 0.28638,0.14362 0.28724,0.215 0.215,0.14276 0.28638,0.14362 0.28638,0.215 0.215,0.14362 0.28724,0.14276 0.28638,0.215 0.215,0.14362 0.28638,0.14362 0.28724,0.215 0.28638,0.14276 0.215,0.14362 0.28638,0.14362 0.28724,0.14276 0.28638,0.215 0.28638,0.14362 0.215,0.14362 0.28724,0.14276 0.28638,0.14362 0.28638,0.14362 0.28724,0.14276 0.215,0.14362 0.28638,0.14362 0.28638,0.14276 0.28724,0.14362 0.28638,0.14362 0.28638,0.14276 0.28724,0.14362 0.215,0.14362 0.28638,0.14276 0.28638,0.0722 0.28724,0.14276 0.28638,0.14362 0.28638,0.14362 0.28724,0.0714 0.28638,0.14362 0.28638,0.14276 0.28724,0.14362 0.28638,0.0714 0.28638,0.14362 0.28724,0.14362 0.28638,0.0714 0.28638,0.14362 0.28724,0.0714 0.28638,0.14362 0.28638,0.0714 0.28724,0.14362 0.28638,0.0714 0.28638,0.14362 0.28724,0.0714 0.28638,0.14362 0.28638,0.0714 0.28724,0.14362 0.28638,0.0714 0.28638,0.0714 0.28724,0.14362 0.28638,0.0714 0.28638,0.0722 0.28724,0.0714 0.28638,0.14362 0.35862,0.0714 0.28638,0.0714 0.28638,0.0722 0.28724,0.14276 0.28638,0.0722 0.28638,0.0714 0.28724,0.0714 0.28638,0.0722 0.28638,0.0714 0.35862,0.0714 0.28638,0.0722 0.28724,0.0714 0.28638,0.0714 0.28638,0.0722 0.28724,0.0714 0.28638,0.0714 0.35862,0.0722 0.28638,0.0714 0.28638,0.0714 0.28724,0 0.28638,0.0722 0.28638,0.0714 0.35862,0.0714 0.28638,0.0722 0.28724,0 0.28638,0.0714 0.28638,0.0714 0.35862,0 0.28638,0.0722 0.28724,0.0714 0.28638,0 0.28638,0.0714 0.35862,0.0722 0.28638,0 0.28724,0.0714 0.28638,0 0.28638,0.0714 0.35862,0 0.28638,0.0722 0.57362,0 0.35862,0.0714 0.28638,0 0.28638,0.0714 0.57362,0 0.35862,0.0722 1.21776,0 0.28724,0.0714 2.76123,0"
     sodipodi:nodetypes="ccccccccccccccccccccccccccccccccccccccccccccccccccccccccccccccccccccccccccccccccccccccccccccccccccccccccccccccccccccccccccccccccccccccccccccccccccccccccccccccccccccccccccccccccccccccccccccccccccccccccccccccccccccccccccccccccccccccccccccccccccccccccccccccccccccccccccccccccccccccccccccccc" /><g
     id="g2888"
     transform="matrix(0.086,0,0,0.086,44.321648,69.16581)"><g
       clip-path="url(#clipPath2892)"
       id="g2890"><path
         id="path2896"
         style="fill:none;stroke:#000000;stroke-width:7.28437996;stroke-linecap:butt;stroke-linejoin:round;stroke-miterlimit:10;stroke-opacity:1;stroke-dasharray:none;stroke-dashoffset:0;marker-start:url(#Arrow2Mstart);marker-end:url(#Arrow2Mend)"
         d="m 4071.5398,5514.2324 -52.3698,34.9376 -40,26.66 -40.84,25 -40.83,23.34 -42.5,22.5 -42.5,20.83 -43.33,19.17 -44.17,18.33 -45,17.5 -45,15 -45.83,14.17 -45.84,12.5 -46.66,10.83 -46.67,10 -46.67,8.33 -47.5,6.67 -47.5,5 -47.5,4.17 -47.5,1.66 -47.5,0.84 -47.5,-0.84 -47.5,-1.66 -47.5,-4.17 -47.5,-5 -47.5,-6.67 -46.66,-8.33 -46.67,-10 -46.67,-10.83 -45.83,-12.5 -45.83,-14.17 -45,-15 -45,-17.5 -44.17,-18.33 -43.33,-19.17 -42.5,-20.83 -42.5,-22.5 -40.84,-23.34 -40.83,-25 -40,-26.66 -52.3834,-34.9376"
         sodipodi:nodetypes="ccccccccccccccccccccccccccccccccccccccccc" /></g></g><path
     sodipodi:nodetypes="cc"
     d="M 316.5832,438.39236 264.77508,604.5666"
     style="fill:#000000;fill-opacity:1;stroke:#000000;stroke-width:1.1338582;stroke-linecap:round;stroke-linejoin:round;stroke-miterlimit:10;stroke-opacity:1;stroke-dasharray:none;stroke-dashoffset:0"
     id="path4197" /><g
     ns0:preamble="E:\\preamble.tex"
     ns0:text="0 dB"
     word-spacing="normal"
     letter-spacing="normal"
     font-size-adjust="none"
     font-stretch="normal"
     font-weight="normal"
     font-variant="normal"
     font-style="normal"
     stroke-miterlimit="10.433"
     xml:space="preserve"
     transform="matrix(1.09,0,0,1.09,61.753744,94.099374)"
     id="g20031"
     style="font-style:normal;font-variant:normal;font-weight:normal;font-stretch:normal;letter-spacing:normal;word-spacing:normal;text-anchor:start;fill:none;stroke:#000000;stroke-linecap:butt;stroke-linejoin:miter;stroke-miterlimit:10.43299961;stroke-opacity:1;stroke-dasharray:none;stroke-dashoffset:0">
<path
   id="path20033"
   d="m 228.02,480.42 0,0.15 -0.01,0.15 0,0.15 -0.01,0.15 -0.01,0.14 -0.01,0.15 -0.01,0.15 -0.02,0.15 -0.02,0.14 -0.03,0.15 -0.03,0.14 -0.04,0.15 -0.04,0.14 -0.05,0.14 -0.06,0.14 -0.03,0.07 -0.03,0.07 c -0.46,0.95 -1.28,1.11 -1.7,1.11 -0.59,0 -1.32,-0.25 -1.73,-1.18 -0.32,-0.69 -0.37,-1.46 -0.37,-2.26 0,-0.75 0.04,-1.64 0.45,-2.4 0.43,-0.81 1.16,-1 1.64,-1 v 0.21 c -0.39,0 -0.97,0.25 -1.15,1.21 -0.11,0.6 -0.11,1.51 -0.11,2.1 0,0.64 0,1.29 0.08,1.83 0.19,1.18 0.93,1.27 1.18,1.27 0.33,0 0.99,-0.18 1.18,-1.16 0.1,-0.56 0.1,-1.31 0.1,-1.94 0,-0.75 0,-1.42 -0.11,-2.06 -0.15,-0.95 -0.72,-1.25 -1.17,-1.25 h 0 v -0.21 c 0.54,0 1.3,0.21 1.74,1.15 0.32,0.69 0.37,1.46 0.37,2.25 z"
   style="fill:#000000;stroke-width:0" />
<path
   id="path20035"
   d="m 235.52,477.78 v -0.65 l 1.46,0.1 v 0.31 c -0.69,0 -0.77,0.07 -0.77,0.56 v 6.04 l -1.44,-0.11 v -0.31 c 0.7,0 0.78,-0.07 0.78,-0.55 v -2.15 c -0.29,0.36 -0.72,0.61 -1.26,0.61 l 0.04,-0.21 c 0.35,0 0.77,-0.15 1.08,-0.6 0.11,-0.17 0.11,-0.19 0.11,-0.37 h 0 v -2.04 c 0,-0.18 0,-0.2 -0.11,-0.37 -0.3,-0.48 -0.75,-0.7 -1.18,-0.7 -0.45,0 -0.8,0.26 -1.04,0.64 -0.26,0.41 -0.29,0.98 -0.29,1.38 0,0.37 0.02,0.97 0.31,1.42 0.21,0.31 0.58,0.64 1.12,0.64 l -0.04,0.21 c -1.17,0 -2.22,-0.97 -2.22,-2.25 0,-1.27 0.98,-2.25 2.11,-2.25 0.64,0 1.09,0.33 1.34,0.65 z"
   style="fill:#000000;stroke-width:0" />
<path
   id="path20037"
   d="m 241.83,480.79 0.09,0.02 0.09,0.02 0.09,0.02 0.08,0.03 0.08,0.03 0.08,0.03 0.08,0.03 0.08,0.04 0.07,0.04 0.07,0.04 0.07,0.04 0.07,0.04 0.06,0.05 0.07,0.04 0.05,0.05 0.06,0.05 0.05,0.06 0.06,0.05 0.04,0.06 0.05,0.05 0.04,0.06 0.04,0.06 0.03,0.06 0.03,0.06 0.03,0.07 0.03,0.06 0.02,0.06 0.01,0.07 0.02,0.07 0.01,0.06 0,0.07 0.01,0.07 c 0,0.87 -0.92,1.68 -2.22,1.68 l -0.07,-0.31 c 0.97,0 1.32,-0.84 1.32,-1.37 0,-0.64 -0.49,-1.47 -1.6,-1.47 h -1.44 v -0.22 h 1.87 c 0.99,0 1.41,-0.93 1.41,-1.59 0,-0.71 -0.52,-1.53 -1.55,-1.53 h 0 -1.24 c -0.47,0 -0.49,0.07 -0.49,0.4 v 2.72 0.22 2.45 c 0,0.32 0.02,0.39 0.49,0.39 h 1.23 l 0.07,0.31 h -3.64 v -0.31 h 0.23 c 0.77,0 0.79,-0.11 0.79,-0.46 v -5.25 c 0,-0.36 -0.02,-0.47 -0.79,-0.47 h -0.23 v -0.31 h 3.9 c 1.33,0 2.23,0.89 2.23,1.83 0,0.86 -0.82,1.61 -1.93,1.73 z"
   style="fill:#000000;stroke-width:0" />
</g><g
     style="font-style:normal;font-variant:normal;font-weight:normal;font-stretch:normal;letter-spacing:normal;word-spacing:normal;text-anchor:start;fill:none;stroke:#000000;stroke-linecap:butt;stroke-linejoin:miter;stroke-miterlimit:10.43299961;stroke-opacity:1;stroke-dasharray:none;stroke-dashoffset:0"
     id="g20245"
     transform="matrix(1.09,0,0,1.09,57.294144,79.138114)"
     xml:space="preserve"
     stroke-miterlimit="10.433"
     font-style="normal"
     font-variant="normal"
     font-weight="normal"
     font-stretch="normal"
     font-size-adjust="none"
     letter-spacing="normal"
     word-spacing="normal"
     ns0:text="$-$3 dB"
     ns0:preamble="E:\\preamble.tex">
<path
   style="fill:#000000;stroke-width:0"
   d="m 230,479.52 0.03,0 0.03,0 0.04,0.01 0.01,0 0.02,0 0.01,0 0.02,0 0.01,0 0.02,0 0.01,0.01 0.01,0 0.02,0 0.01,0.01 0.01,0 0.01,0.01 0.01,0.01 0.01,0 0.01,0.01 0.01,0.01 0.01,0.01 0.01,0.01 0,0 0.01,0.01 0,0 0,0.01 0.01,0.01 0,0 0,0.01 0,0.01 0,0 0.01,0.01 0,0.01 0,0.01 0,0.01 0,0 0,0.01 0,0.01 c 0,0.2 -0.18,0.2 -0.35,0.2 h -5.39 c -0.17,0 -0.35,0 -0.35,-0.2 0,-0.2 0.18,-0.2 0.35,-0.2 z"
   id="path20247" />
<path
   style="fill:#000000;stroke-width:0"
   d="m 234.07,480.74 0.08,0.02 0.07,0.03 0.08,0.03 0.07,0.04 0.07,0.03 0.06,0.04 0.07,0.04 0.06,0.04 0.07,0.05 0.06,0.05 0.06,0.04 0.05,0.05 0.06,0.06 0.05,0.05 0.05,0.05 0.05,0.06 0.04,0.06 0.04,0.06 0.04,0.06 0.04,0.06 0.04,0.06 0.03,0.07 0.03,0.07 0.02,0.06 0.03,0.07 0.02,0.07 0.02,0.07 0.01,0.07 0.01,0.07 0.01,0.07 0.01,0.08 0,0.07 c 0,0.82 -0.88,1.37 -1.84,1.37 -1,0 -1.76,-0.59 -1.76,-1.35 0,-0.33 0.22,-0.52 0.51,-0.52 0.31,0 0.51,0.22 0.51,0.51 0,0.5 -0.47,0.5 -0.62,0.5 0.31,0.48 0.96,0.61 1.32,0.61 0.41,0 0.96,-0.21 0.96,-1.11 0,-0.12 -0.02,-0.7 -0.28,-1.14 -0.3,-0.47 -0.64,-0.5 -0.89,-0.51 -0.08,-0.01 -0.31,-0.03 -0.39,-0.03 -0.08,-0.01 -0.14,-0.02 -0.14,-0.12 0,-0.11 0.06,-0.11 0.24,-0.11 h 0.43 c 0.82,0 1.19,-0.68 1.19,-1.65 0,-1.36 -0.69,-1.64 -1.13,-1.64 -0.43,0 -1.17,0.16 -1.52,0.75 0.35,-0.05 0.66,0.17 0.66,0.55 0,0.36 -0.27,0.56 -0.56,0.56 -0.24,0 -0.56,-0.14 -0.56,-0.58 0,-0.91 0.93,-1.56 2.01,-1.56 1.22,0 2.13,0.9 2.13,1.92 0,0.81 -0.63,1.59 -1.67,1.8 z"
   id="path20249" />
<path
   style="fill:#000000;stroke-width:0"
   d="m 243.27,477.78 v -0.65 l 1.46,0.1 v 0.31 c -0.69,0 -0.77,0.07 -0.77,0.56 v 6.04 l -1.44,-0.11 v -0.31 c 0.7,0 0.78,-0.07 0.78,-0.55 v -2.15 c -0.29,0.36 -0.72,0.61 -1.26,0.61 l 0.04,-0.21 c 0.35,0 0.77,-0.15 1.08,-0.6 0.11,-0.17 0.11,-0.19 0.11,-0.37 h 0 v -2.04 c 0,-0.18 0,-0.2 -0.11,-0.37 -0.3,-0.48 -0.75,-0.7 -1.18,-0.7 -0.45,0 -0.81,0.26 -1.05,0.64 -0.25,0.41 -0.28,0.98 -0.28,1.38 0,0.37 0.02,0.97 0.31,1.42 0.2,0.31 0.58,0.64 1.12,0.64 l -0.04,0.21 c -1.17,0 -2.22,-0.97 -2.22,-2.25 0,-1.27 0.98,-2.25 2.11,-2.25 0.64,0 1.09,0.33 1.34,0.65 z"
   id="path20251" />
<path
   style="fill:#000000;stroke-width:0"
   d="m 249.58,480.79 0.09,0.02 0.09,0.02 0.09,0.02 0.08,0.03 0.08,0.03 0.08,0.03 0.08,0.03 0.08,0.04 0.07,0.04 0.07,0.04 0.07,0.04 0.07,0.04 0.06,0.05 0.06,0.04 0.06,0.05 0.06,0.05 0.05,0.06 0.05,0.05 0.05,0.06 0.05,0.05 0.04,0.06 0.04,0.06 0.03,0.06 0.03,0.06 0.03,0.07 0.03,0.06 0.02,0.06 0.01,0.07 0.02,0.07 0.01,0.06 0,0.07 0.01,0.07 c 0,0.87 -0.92,1.68 -2.22,1.68 l -0.07,-0.31 c 0.97,0 1.32,-0.84 1.32,-1.37 0,-0.64 -0.49,-1.47 -1.6,-1.47 h -1.44 v -0.22 h 1.87 c 0.99,0 1.41,-0.93 1.41,-1.59 0,-0.71 -0.52,-1.53 -1.55,-1.53 h 0 -1.24 c -0.47,0 -0.49,0.07 -0.49,0.4 v 2.72 0.22 2.45 c 0,0.32 0.02,0.39 0.49,0.39 h 1.23 l 0.07,0.31 h -3.65 v -0.31 h 0.24 c 0.77,0 0.79,-0.11 0.79,-0.46 v -5.25 c 0,-0.36 -0.02,-0.47 -0.79,-0.47 h -0.24 v -0.31 h 3.91 c 1.33,0 2.22,0.89 2.22,1.83 0,0.86 -0.81,1.61 -1.92,1.73 z"
   id="path20253" />
</g><g
     ns0:preamble="E:\\preamble.tex"
     ns0:text="FNBW"
     word-spacing="normal"
     letter-spacing="normal"
     font-size-adjust="none"
     font-stretch="normal"
     font-weight="normal"
     font-variant="normal"
     font-style="normal"
     stroke-miterlimit="10.433"
     xml:space="preserve"
     transform="matrix(1.09,0,0,1.09,55.923144,51.931185)"
     id="content"
     style="font-style:normal;font-variant:normal;font-weight:normal;font-stretch:normal;letter-spacing:normal;word-spacing:normal;text-anchor:start;fill:none;stroke:#000000;stroke-linecap:butt;stroke-linejoin:miter;stroke-miterlimit:10.43299961;stroke-opacity:1;stroke-dasharray:none;stroke-dashoffset:0">
<path
   id="path20454"
   d="m 229.23,484 h -5.47 v -0.31 H 224 c 0.77,0 0.79,-0.11 0.79,-0.46 v -5.22 c 0,-0.36 -0.02,-0.47 -0.79,-0.47 h -0.24 v -0.31 c 0.35,0.04 1.13,0.04 1.52,0.04 0.4,0 1.31,0 1.67,-0.04 v 0.31 h -0.33 c -0.94,0 -0.94,0.13 -0.94,0.48 v 2.45 h 0.85 c 0.96,0 1.06,-0.32 1.06,-1.17 h 0.25 v 2.64 h -0.25 c 0,-0.83 -0.1,-1.16 -1.06,-1.16 h -0.85 v 2.52 c 0,0.33 0.02,0.39 0.48,0.39 h 1.2 c 1.49,0 1.74,-0.55 1.9,-1.93 h 0.25 z"
   style="fill:#000000;stroke-width:0" />
<path
   id="path20456"
   d="m 232.25,483.9 -0.01,0.01 -0.01,0.01 -0.01,0.01 0,0.01 -0.01,0.01 -0.01,0.01 0,0.01 -0.01,0 0,0.01 -0.01,0.01 -0.01,0 0,0.01 -0.01,0 -0.01,0.01 0,0 -0.01,0 -0.01,0.01 0,0 -0.01,0 -0.01,0 -0.01,0.01 -0.01,0 -0.01,0 -0.01,0 -0.01,0 -0.01,0 -0.01,0 -0.02,0 -0.01,0 -0.01,0 -0.01,0 -0.01,0 0,0 -0.01,0 -0.01,0 h -1.7 v -0.31 h 0.29 c 0.15,0 0.35,-0.01 0.5,-0.02 0.23,-0.03 0.24,-0.04 0.24,-0.22 v -5.2 c 0,-0.27 0,-0.74 -1.03,-0.74 v -0.31 c 0.35,0.01 0.84,0.04 1.17,0.04 0.33,0 0.82,-0.03 1.17,-0.04 v 0.31 c -1.03,0 -1.03,0.47 -1.03,0.74 v 5.17 c 0.05,-0.05 0.06,-0.05 0.1,-0.11 l 4.07,-5.98 c 0.09,-0.12 0.1,-0.13 0.17,-0.13 0.14,0 0.14,0.07 0.14,0.26 v 5.5 c 0,0.27 0,0.73 1.02,0.73 v 0.31 c -0.35,-0.01 -0.83,-0.03 -1.16,-0.03 -0.33,0 -0.82,0.02 -1.17,0.03 v -0.31 c 1.03,0 1.03,-0.46 1.03,-0.73 v -4.25 z"
   style="fill:#000000;stroke-width:0" />
<path
   id="path20458"
   d="m 241.97,480.79 0.09,0.02 0.09,0.02 0.09,0.02 0.08,0.03 0.08,0.03 0.08,0.03 0.08,0.03 0.08,0.04 0.07,0.04 0.08,0.04 0.06,0.04 0.07,0.04 0.07,0.05 0.06,0.04 0.06,0.05 0.05,0.05 0.06,0.06 0.05,0.05 0.04,0.06 0.05,0.05 0.04,0.06 0.04,0.06 0.03,0.06 0.04,0.06 0.02,0.07 0.03,0.06 0.02,0.06 0.02,0.07 0.01,0.07 0.01,0.06 0.01,0.07 0,0.07 c 0,0.87 -0.92,1.68 -2.22,1.68 l -0.06,-0.31 c 0.96,0 1.31,-0.84 1.31,-1.37 0,-0.64 -0.49,-1.47 -1.59,-1.47 h -1.45 v -0.22 h 1.87 c 0.99,0 1.41,-0.93 1.41,-1.59 0,-0.71 -0.52,-1.53 -1.55,-1.53 h 0 -1.24 c -0.47,0 -0.49,0.07 -0.49,0.4 v 2.72 0.22 2.45 c 0,0.32 0.02,0.39 0.49,0.39 h 1.24 l 0.06,0.31 h -3.64 v -0.31 h 0.24 c 0.76,0 0.78,-0.11 0.78,-0.46 v -5.25 c 0,-0.36 -0.02,-0.47 -0.78,-0.47 h -0.24 v -0.31 h 3.9 c 1.33,0 2.23,0.89 2.23,1.83 0,0.86 -0.82,1.61 -1.93,1.73 z"
   style="fill:#000000;stroke-width:0" />
<path
   id="path20460"
   d="m 253.52,483.06 0.02,0.05 0.02,0.05 0.02,0.04 0.02,0.05 0.03,0.04 0.02,0.04 0.03,0.04 0.02,0.03 0.03,0.03 0.03,0.03 0.03,0.03 0.03,0.03 0.03,0.02 0.03,0.02 0.03,0.02 0.04,0.02 0.03,0.02 0.03,0.02 0.04,0.01 0.03,0.01 0.04,0.01 0.03,0.01 0.04,0.01 0.04,0.01 0.03,0.01 0.04,0 0.04,0.01 0.03,0 0.08,0 0.07,0 v 0.31 c -0.3,-0.02 -0.61,-0.03 -0.9,-0.03 -0.29,0 -0.93,0.02 -1.19,0.03 v -0.31 c 0.67,-0.01 0.87,-0.33 0.87,-0.52 0,-0.06 -0.03,-0.14 -0.05,-0.2 l -1.5,-4.6 -1.59,4.88 c -0.01,0.04 -0.03,0.1 -0.03,0.14 0,0.3 0.57,0.3 0.83,0.3 v 0.31 C 250.6,484 249.93,484 249.55,484 c -0.38,0 -0.81,0.02 -1.22,0.03 v -0.31 c 0.57,0 0.78,0 0.9,-0.35 l 0.22,-0.7 -1.39,-4.27 -1.6,4.9 c -0.01,0.03 -0.02,0.1 -0.02,0.12 0,0.3 0.58,0.3 0.83,0.3 v 0.31 C 246.92,484 246.24,484 245.86,484 c -0.38,0 -0.81,0.02 -1.22,0.03 v -0.31 c 0.75,0 0.79,-0.05 0.91,-0.41 l 1.99,-6.11 c 0.03,-0.08 0.06,-0.18 0.19,-0.18 0.14,0 0.16,0.07 0.2,0.19 l 1.65,5.06 1.65,-5.07 c 0.03,-0.08 0.06,-0.18 0.19,-0.18 0.14,0 0.16,0.07 0.2,0.19 z"
   style="fill:#000000;stroke-width:0" />
</g><g
     style="font-style:normal;font-variant:normal;font-weight:normal;font-stretch:normal;letter-spacing:normal;word-spacing:normal;text-anchor:start;fill:none;stroke:#000000;stroke-linecap:butt;stroke-linejoin:miter;stroke-miterlimit:10.43299961;stroke-opacity:1;stroke-dasharray:none;stroke-dashoffset:0"
     id="g20652"
     transform="matrix(1.09,0,0,1.09,55.771144,8.4193737)"
     xml:space="preserve"
     stroke-miterlimit="10.433"
     font-style="normal"
     font-variant="normal"
     font-weight="normal"
     font-stretch="normal"
     font-size-adjust="none"
     letter-spacing="normal"
     word-spacing="normal"
     ns0:text="HPBW"
     ns0:preamble="E:\\preamble.tex">
<path
   style="fill:#000000;stroke-width:0"
   d="m 229.54,483.26 0,0.03 0,0.03 0,0.03 0.01,0.03 0,0.03 0,0.02 0,0.03 0.01,0.02 0,0.02 0.01,0.02 0.01,0.02 0.01,0.02 0.01,0.02 0.02,0.02 0.01,0.01 0.02,0.01 0.02,0.02 0.02,0.01 0.01,0.01 0.02,0 0.01,0.01 0.01,0 0.02,0.01 0.01,0 0.02,0 0.02,0.01 0.02,0 0.01,0 0.02,0.01 0.02,0 0.02,0 0.03,0.01 0.02,0 0.02,0 0.03,0 0.02,0.01 0.03,0 0.03,0 0.02,0 0.03,0 0.03,0 0.03,0 0.04,0 0.03,0 0.03,0 0.04,0 h 0.24 v 0.31 C 230.22,484 229.48,484 229.1,484 c -0.37,0 -1.12,0 -1.47,0.03 v -0.31 h 0.24 c 0.76,0 0.78,-0.11 0.78,-0.46 v -2.33 h -2.97 v 2.33 c 0,0.35 0.02,0.46 0.78,0.46 h 0.24 v 0.31 C 226.35,484 225.62,484 225.24,484 c -0.38,0 -1.13,0 -1.48,0.03 v -0.31 H 224 c 0.77,0 0.79,-0.11 0.79,-0.46 v -5.25 c 0,-0.36 -0.02,-0.47 -0.79,-0.47 h -0.24 v -0.31 c 0.35,0.04 1.09,0.04 1.47,0.04 0.37,0 1.12,0 1.47,-0.04 v 0.31 h -0.24 c -0.76,0 -0.78,0.11 -0.78,0.47 v 2.61 h 2.97 v -2.61 c 0,-0.36 -0.02,-0.47 -0.78,-0.47 h -0.24 v -0.31 c 0.35,0.04 1.08,0.04 1.46,0.04 0.38,0 1.13,0 1.48,-0.04 v 0.31 h -0.24 c -0.77,0 -0.79,0.11 -0.79,0.47 z"
   id="path20654" />
<path
   style="fill:#000000;stroke-width:0"
   d="m 233.17,480.38 -0.03,0.26 v 2.69 c 0,0.32 0.02,0.39 0.49,0.39 h 0.88 c 1.59,0 1.59,-1.05 1.59,-1.54 0,-0.47 0,-1.54 -1.59,-1.54 h -1.37 l 0.03,-0.26 h 1.68 c 1.2,0 2.27,0.81 2.27,1.8 0,0.98 -0.98,1.85 -2.35,1.85 h -3.52 v -0.31 h 0.24 c 0.77,0 0.79,-0.11 0.79,-0.46 v -5.25 c 0,-0.36 -0.02,-0.47 -0.79,-0.47 h -0.24 v -0.31 c 0.35,0.04 1.09,0.04 1.47,0.04 0.38,0 1.13,0 1.47,-0.04 v 0.31 h -0.24 c -0.76,0 -0.78,0.11 -0.78,0.47 z"
   id="path20656" />
<path
   style="fill:#000000;stroke-width:0"
   d="m 242.25,480.79 0.09,0.02 0.09,0.02 0.08,0.02 0.09,0.03 0.08,0.03 0.08,0.03 0.08,0.03 0.08,0.04 0.07,0.04 0.07,0.04 0.07,0.04 0.07,0.04 0.06,0.05 0.06,0.04 0.06,0.05 0.06,0.05 0.05,0.06 0.05,0.05 0.05,0.06 0.05,0.05 0.04,0.06 0.04,0.06 0.03,0.06 0.03,0.06 0.03,0.07 0.03,0.06 0.02,0.06 0.01,0.07 0.02,0.07 0.01,0.06 0,0.07 0,0.07 c 0,0.87 -0.91,1.68 -2.21,1.68 l -0.07,-0.31 c 0.97,0 1.32,-0.84 1.32,-1.37 0,-0.64 -0.49,-1.47 -1.6,-1.47 h -1.44 v -0.22 h 1.87 c 0.99,0 1.41,-0.93 1.41,-1.59 0,-0.71 -0.52,-1.53 -1.55,-1.53 h 0 -1.24 c -0.47,0 -0.49,0.07 -0.49,0.4 v 2.72 0.22 2.45 c 0,0.32 0.02,0.39 0.49,0.39 h 1.23 l 0.07,0.31 h -3.65 v -0.31 h 0.24 c 0.77,0 0.79,-0.11 0.79,-0.46 v -5.25 c 0,-0.36 -0.02,-0.47 -0.79,-0.47 h -0.24 v -0.31 h 3.91 c 1.33,0 2.22,0.89 2.22,1.83 0,0.86 -0.81,1.61 -1.92,1.73 z"
   id="path20658" />
<path
   style="fill:#000000;stroke-width:0"
   d="m 253.8,483.06 0.02,0.05 0.02,0.05 0.02,0.04 0.02,0.05 0.02,0.04 0.03,0.04 0.02,0.04 0.03,0.03 0.03,0.03 0.02,0.03 0.03,0.03 0.03,0.03 0.03,0.02 0.04,0.02 0.03,0.02 0.03,0.02 0.04,0.02 0.03,0.02 0.03,0.01 0.04,0.01 0.04,0.01 0.03,0.01 0.04,0.01 0.03,0.01 0.04,0.01 0.04,0 0.03,0.01 0.04,0 0.08,0 0.07,0 v 0.31 c -0.3,-0.02 -0.61,-0.03 -0.91,-0.03 -0.29,0 -0.93,0.02 -1.18,0.03 v -0.31 c 0.66,-0.01 0.86,-0.33 0.86,-0.52 0,-0.06 -0.03,-0.14 -0.05,-0.2 l -1.49,-4.6 -1.6,4.88 c -0.01,0.04 -0.03,0.1 -0.03,0.14 0,0.3 0.58,0.3 0.84,0.3 v 0.31 C 250.88,484 250.2,484 249.82,484 c -0.37,0 -0.8,0.02 -1.21,0.03 v -0.31 c 0.57,0 0.78,0 0.9,-0.35 l 0.22,-0.7 -1.39,-4.27 -1.6,4.9 c -0.01,0.03 -0.03,0.1 -0.03,0.12 0,0.3 0.58,0.3 0.84,0.3 v 0.31 C 247.19,484 246.51,484 246.14,484 c -0.38,0 -0.81,0.02 -1.22,0.03 v -0.31 c 0.75,0 0.79,-0.05 0.91,-0.41 l 1.99,-6.11 c 0.03,-0.08 0.06,-0.18 0.19,-0.18 0.14,0 0.16,0.07 0.2,0.19 l 1.64,5.06 1.66,-5.07 c 0.03,-0.08 0.06,-0.18 0.19,-0.18 0.14,0 0.16,0.07 0.2,0.19 z"
   id="path20660" />
</g></g>
</g></svg>