<?xml version="1.0" encoding="UTF-8" standalone="no"?>
<!-- Created with Inkscape (http://www.inkscape.org/) -->

<svg
   xmlns:ns0="http://www.iki.fi/pav/software/textext/"
   xmlns:dc="http://purl.org/dc/elements/1.1/"
   xmlns:cc="http://creativecommons.org/ns#"
   xmlns:rdf="http://www.w3.org/1999/02/22-rdf-syntax-ns#"
   xmlns:svg="http://www.w3.org/2000/svg"
   xmlns="http://www.w3.org/2000/svg"
   xmlns:sodipodi="http://sodipodi.sourceforge.net/DTD/sodipodi-0.dtd"
   xmlns:inkscape="http://www.inkscape.org/namespaces/inkscape"
   width="506.91299"
   height="225.315"
   id="svg2"
   version="1.1"
   inkscape:version="0.47 r22583"
   sodipodi:docname="mediciones_10.svg">
  <sodipodi:namedview
     id="base"
     pagecolor="#ffffff"
     bordercolor="#666666"
     borderopacity="1.0"
     inkscape:pageopacity="0.0"
     inkscape:pageshadow="2"
     inkscape:zoom="1"
     inkscape:cx="304.52926"
     inkscape:cy="97.551341"
     inkscape:document-units="px"
     inkscape:current-layer="layer1"
     showgrid="false"
     inkscape:window-width="1280"
     inkscape:window-height="898"
     inkscape:window-x="-8"
     inkscape:window-y="-8"
     inkscape:window-maximized="1"
     inkscape:object-paths="false"
     inkscape:object-nodes="true"
     inkscape:snap-smooth-nodes="false"
     inkscape:snap-intersection-paths="false"
     inkscape:snap-page="true"
     inkscape:snap-global="true"
     inkscape:snap-bbox="true"
     inkscape:snap-midpoints="false"
     inkscape:snap-bbox-edge-midpoints="true"
     inkscape:snap-nodes="true"
     inkscape:snap-bbox-midpoints="false"
     inkscape:snap-object-midpoints="false"
     inkscape:snap-center="false"
     inkscape:bbox-nodes="false"
     inkscape:bbox-paths="false" />
  <defs
     id="defs4">
    <marker
       inkscape:stockid="Arrow2Mend"
       orient="auto"
       refY="0"
       refX="0"
       id="Arrow2Mend"
       style="overflow:visible">
      <path
         id="path4159"
         style="font-size:12px;fill-rule:evenodd;stroke-width:0.625;stroke-linejoin:round"
         d="M 8.7185878,4.0337352 -2.2072895,0.01601326 8.7185884,-4.0017078 c -1.7454984,2.3720609 -1.7354408,5.6174519 -6e-7,8.035443 z"
         transform="scale(-0.6,-0.6)" />
    </marker>
    <marker
       inkscape:stockid="Arrow2Mstart"
       orient="auto"
       refY="0"
       refX="0"
       id="Arrow2Mstart"
       style="overflow:visible">
      <path
         id="path4156"
         style="font-size:12px;fill-rule:evenodd;stroke-width:0.625;stroke-linejoin:round"
         d="M 8.7185878,4.0337352 -2.2072895,0.01601326 8.7185884,-4.0017078 c -1.7454984,2.3720609 -1.7354408,5.6174519 -6e-7,8.035443 z"
         transform="scale(0.6,0.6)" />
    </marker>
    <inkscape:perspective
       sodipodi:type="inkscape:persp3d"
       inkscape:vp_x="0 : 526.18109 : 1"
       inkscape:vp_y="0 : 1000 : 0"
       inkscape:vp_z="744.09448 : 526.18109 : 1"
       inkscape:persp3d-origin="372.04724 : 350.78739 : 1"
       id="perspective10" />
    <inkscape:perspective
       id="perspective2824"
       inkscape:persp3d-origin="0.5 : 0.33333333 : 1"
       inkscape:vp_z="1 : 0.5 : 1"
       inkscape:vp_y="0 : 1000 : 0"
       inkscape:vp_x="0 : 0.5 : 1"
       sodipodi:type="inkscape:persp3d" />
    <inkscape:perspective
       id="perspective7747"
       inkscape:persp3d-origin="0.5 : 0.33333333 : 1"
       inkscape:vp_z="1 : 0.5 : 1"
       inkscape:vp_y="0 : 1000 : 0"
       inkscape:vp_x="0 : 0.5 : 1"
       sodipodi:type="inkscape:persp3d" />
    <inkscape:perspective
       id="perspective8355"
       inkscape:persp3d-origin="0.5 : 0.33333333 : 1"
       inkscape:vp_z="1 : 0.5 : 1"
       inkscape:vp_y="0 : 1000 : 0"
       inkscape:vp_x="0 : 0.5 : 1"
       sodipodi:type="inkscape:persp3d" />
    <inkscape:perspective
       id="perspective3779"
       inkscape:persp3d-origin="0.5 : 0.33333333 : 1"
       inkscape:vp_z="1 : 0.5 : 1"
       inkscape:vp_y="0 : 1000 : 0"
       inkscape:vp_x="0 : 0.5 : 1"
       sodipodi:type="inkscape:persp3d" />
    <inkscape:perspective
       id="perspective3115"
       inkscape:persp3d-origin="0.5 : 0.33333333 : 1"
       inkscape:vp_z="1 : 0.5 : 1"
       inkscape:vp_y="0 : 1000 : 0"
       inkscape:vp_x="0 : 0.5 : 1"
       sodipodi:type="inkscape:persp3d" />
    <marker
       inkscape:stockid="Arrow2Mstart"
       orient="auto"
       refY="0"
       refX="0"
       id="Arrow2Mstart-1"
       style="overflow:visible">
      <path
         id="path4156-7"
         style="font-size:12px;fill-rule:evenodd;stroke-width:0.625;stroke-linejoin:round"
         d="M 8.7185878,4.0337352 -2.2072895,0.01601326 8.7185884,-4.0017078 c -1.7454984,2.3720609 -1.7354408,5.6174519 -6e-7,8.035443 z"
         transform="scale(0.6,0.6)" />
    </marker>
    <marker
       inkscape:stockid="Arrow2Mend"
       orient="auto"
       refY="0"
       refX="0"
       id="Arrow2Mend-4"
       style="overflow:visible">
      <path
         id="path4159-0"
         style="font-size:12px;fill-rule:evenodd;stroke-width:0.625;stroke-linejoin:round"
         d="M 8.7185878,4.0337352 -2.2072895,0.01601326 8.7185884,-4.0017078 c -1.7454984,2.3720609 -1.7354408,5.6174519 -6e-7,8.035443 z"
         transform="scale(-0.6,-0.6)" />
    </marker>
    <inkscape:perspective
       id="perspective3741"
       inkscape:persp3d-origin="0.5 : 0.33333333 : 1"
       inkscape:vp_z="1 : 0.5 : 1"
       inkscape:vp_y="0 : 1000 : 0"
       inkscape:vp_x="0 : 0.5 : 1"
       sodipodi:type="inkscape:persp3d" />
    <inkscape:perspective
       id="perspective3764"
       inkscape:persp3d-origin="0.5 : 0.33333333 : 1"
       inkscape:vp_z="1 : 0.5 : 1"
       inkscape:vp_y="0 : 1000 : 0"
       inkscape:vp_x="0 : 0.5 : 1"
       sodipodi:type="inkscape:persp3d" />
    <inkscape:perspective
       id="perspective3764-4"
       inkscape:persp3d-origin="0.5 : 0.33333333 : 1"
       inkscape:vp_z="1 : 0.5 : 1"
       inkscape:vp_y="0 : 1000 : 0"
       inkscape:vp_x="0 : 0.5 : 1"
       sodipodi:type="inkscape:persp3d" />
    <inkscape:perspective
       id="perspective3812"
       inkscape:persp3d-origin="0.5 : 0.33333333 : 1"
       inkscape:vp_z="1 : 0.5 : 1"
       inkscape:vp_y="0 : 1000 : 0"
       inkscape:vp_x="0 : 0.5 : 1"
       sodipodi:type="inkscape:persp3d" />
    <inkscape:perspective
       id="perspective3837"
       inkscape:persp3d-origin="0.5 : 0.33333333 : 1"
       inkscape:vp_z="1 : 0.5 : 1"
       inkscape:vp_y="0 : 1000 : 0"
       inkscape:vp_x="0 : 0.5 : 1"
       sodipodi:type="inkscape:persp3d" />
    <inkscape:perspective
       id="perspective5608"
       inkscape:persp3d-origin="0.5 : 0.33333333 : 1"
       inkscape:vp_z="1 : 0.5 : 1"
       inkscape:vp_y="0 : 1000 : 0"
       inkscape:vp_x="0 : 0.5 : 1"
       sodipodi:type="inkscape:persp3d" />
    <inkscape:perspective
       id="perspective5942"
       inkscape:persp3d-origin="0.5 : 0.33333333 : 1"
       inkscape:vp_z="1 : 0.5 : 1"
       inkscape:vp_y="0 : 1000 : 0"
       inkscape:vp_x="0 : 0.5 : 1"
       sodipodi:type="inkscape:persp3d" />
    <inkscape:perspective
       id="perspective6216"
       inkscape:persp3d-origin="0.5 : 0.33333333 : 1"
       inkscape:vp_z="1 : 0.5 : 1"
       inkscape:vp_y="0 : 1000 : 0"
       inkscape:vp_x="0 : 0.5 : 1"
       sodipodi:type="inkscape:persp3d" />
    <inkscape:perspective
       id="perspective6238"
       inkscape:persp3d-origin="0.5 : 0.33333333 : 1"
       inkscape:vp_z="1 : 0.5 : 1"
       inkscape:vp_y="0 : 1000 : 0"
       inkscape:vp_x="0 : 0.5 : 1"
       sodipodi:type="inkscape:persp3d" />
    <inkscape:perspective
       id="perspective8479"
       inkscape:persp3d-origin="0.5 : 0.33333333 : 1"
       inkscape:vp_z="1 : 0.5 : 1"
       inkscape:vp_y="0 : 1000 : 0"
       inkscape:vp_x="0 : 0.5 : 1"
       sodipodi:type="inkscape:persp3d" />
    <inkscape:perspective
       id="perspective8501"
       inkscape:persp3d-origin="0.5 : 0.33333333 : 1"
       inkscape:vp_z="1 : 0.5 : 1"
       inkscape:vp_y="0 : 1000 : 0"
       inkscape:vp_x="0 : 0.5 : 1"
       sodipodi:type="inkscape:persp3d" />
    <inkscape:perspective
       id="perspective8523"
       inkscape:persp3d-origin="0.5 : 0.33333333 : 1"
       inkscape:vp_z="1 : 0.5 : 1"
       inkscape:vp_y="0 : 1000 : 0"
       inkscape:vp_x="0 : 0.5 : 1"
       sodipodi:type="inkscape:persp3d" />
    <inkscape:perspective
       id="perspective8523-9"
       inkscape:persp3d-origin="0.5 : 0.33333333 : 1"
       inkscape:vp_z="1 : 0.5 : 1"
       inkscape:vp_y="0 : 1000 : 0"
       inkscape:vp_x="0 : 0.5 : 1"
       sodipodi:type="inkscape:persp3d" />
    <inkscape:perspective
       id="perspective3788"
       inkscape:persp3d-origin="0.5 : 0.33333333 : 1"
       inkscape:vp_z="1 : 0.5 : 1"
       inkscape:vp_y="0 : 1000 : 0"
       inkscape:vp_x="0 : 0.5 : 1"
       sodipodi:type="inkscape:persp3d" />
    <inkscape:perspective
       id="perspective3810"
       inkscape:persp3d-origin="0.5 : 0.33333333 : 1"
       inkscape:vp_z="1 : 0.5 : 1"
       inkscape:vp_y="0 : 1000 : 0"
       inkscape:vp_x="0 : 0.5 : 1"
       sodipodi:type="inkscape:persp3d" />
    <marker
       inkscape:stockid="Arrow2Mstart"
       orient="auto"
       refY="0"
       refX="0"
       id="Arrow2Mstart-1-7"
       style="overflow:visible">
      <path
         id="path4156-7-4"
         style="font-size:12px;fill-rule:evenodd;stroke-width:0.625;stroke-linejoin:round"
         d="M 8.7185878,4.0337352 -2.2072895,0.01601326 8.7185884,-4.0017078 c -1.7454984,2.3720609 -1.7354408,5.6174519 -6e-7,8.035443 z"
         transform="scale(0.6,0.6)" />
    </marker>
    <marker
       inkscape:stockid="Arrow2Mend"
       orient="auto"
       refY="0"
       refX="0"
       id="Arrow2Mend-4-0"
       style="overflow:visible">
      <path
         id="path4159-0-9"
         style="font-size:12px;fill-rule:evenodd;stroke-width:0.625;stroke-linejoin:round"
         d="M 8.7185878,4.0337352 -2.2072895,0.01601326 8.7185884,-4.0017078 c -1.7454984,2.3720609 -1.7354408,5.6174519 -6e-7,8.035443 z"
         transform="scale(-0.6,-0.6)" />
    </marker>
    <inkscape:perspective
       id="perspective3844"
       inkscape:persp3d-origin="0.5 : 0.33333333 : 1"
       inkscape:vp_z="1 : 0.5 : 1"
       inkscape:vp_y="0 : 1000 : 0"
       inkscape:vp_x="0 : 0.5 : 1"
       sodipodi:type="inkscape:persp3d" />
    <inkscape:perspective
       id="perspective3879"
       inkscape:persp3d-origin="0.5 : 0.33333333 : 1"
       inkscape:vp_z="1 : 0.5 : 1"
       inkscape:vp_y="0 : 1000 : 0"
       inkscape:vp_x="0 : 0.5 : 1"
       sodipodi:type="inkscape:persp3d" />
    <inkscape:perspective
       id="perspective3901"
       inkscape:persp3d-origin="0.5 : 0.33333333 : 1"
       inkscape:vp_z="1 : 0.5 : 1"
       inkscape:vp_y="0 : 1000 : 0"
       inkscape:vp_x="0 : 0.5 : 1"
       sodipodi:type="inkscape:persp3d" />
    <marker
       inkscape:stockid="Arrow2Mstart"
       orient="auto"
       refY="0"
       refX="0"
       id="Arrow2Mstart-1-2"
       style="overflow:visible">
      <path
         id="path4156-7-45"
         style="font-size:12px;fill-rule:evenodd;stroke-width:0.625;stroke-linejoin:round"
         d="M 8.7185878,4.0337352 -2.2072895,0.01601326 8.7185884,-4.0017078 c -1.7454984,2.3720609 -1.7354408,5.6174519 -6e-7,8.035443 z"
         transform="scale(0.6,0.6)" />
    </marker>
    <marker
       inkscape:stockid="Arrow2Mend"
       orient="auto"
       refY="0"
       refX="0"
       id="Arrow2Mend-4-5"
       style="overflow:visible">
      <path
         id="path4159-0-1"
         style="font-size:12px;fill-rule:evenodd;stroke-width:0.625;stroke-linejoin:round"
         d="M 8.7185878,4.0337352 -2.2072895,0.01601326 8.7185884,-4.0017078 c -1.7454984,2.3720609 -1.7354408,5.6174519 -6e-7,8.035443 z"
         transform="scale(-0.6,-0.6)" />
    </marker>
    <inkscape:perspective
       id="perspective4633"
       inkscape:persp3d-origin="0.5 : 0.33333333 : 1"
       inkscape:vp_z="1 : 0.5 : 1"
       inkscape:vp_y="0 : 1000 : 0"
       inkscape:vp_x="0 : 0.5 : 1"
       sodipodi:type="inkscape:persp3d" />
    <inkscape:perspective
       id="perspective4633-1"
       inkscape:persp3d-origin="0.5 : 0.33333333 : 1"
       inkscape:vp_z="1 : 0.5 : 1"
       inkscape:vp_y="0 : 1000 : 0"
       inkscape:vp_x="0 : 0.5 : 1"
       sodipodi:type="inkscape:persp3d" />
    <inkscape:perspective
       id="perspective5379"
       inkscape:persp3d-origin="0.5 : 0.33333333 : 1"
       inkscape:vp_z="1 : 0.5 : 1"
       inkscape:vp_y="0 : 1000 : 0"
       inkscape:vp_x="0 : 0.5 : 1"
       sodipodi:type="inkscape:persp3d" />
    <inkscape:perspective
       id="perspective5448"
       inkscape:persp3d-origin="0.5 : 0.33333333 : 1"
       inkscape:vp_z="1 : 0.5 : 1"
       inkscape:vp_y="0 : 1000 : 0"
       inkscape:vp_x="0 : 0.5 : 1"
       sodipodi:type="inkscape:persp3d" />
    <inkscape:perspective
       id="perspective5650"
       inkscape:persp3d-origin="0.5 : 0.33333333 : 1"
       inkscape:vp_z="1 : 0.5 : 1"
       inkscape:vp_y="0 : 1000 : 0"
       inkscape:vp_x="0 : 0.5 : 1"
       sodipodi:type="inkscape:persp3d" />
    <inkscape:perspective
       id="perspective5484"
       inkscape:persp3d-origin="0.5 : 0.33333333 : 1"
       inkscape:vp_z="1 : 0.5 : 1"
       inkscape:vp_y="0 : 1000 : 0"
       inkscape:vp_x="0 : 0.5 : 1"
       sodipodi:type="inkscape:persp3d" />
    <inkscape:perspective
       id="perspective5584"
       inkscape:persp3d-origin="0.5 : 0.33333333 : 1"
       inkscape:vp_z="1 : 0.5 : 1"
       inkscape:vp_y="0 : 1000 : 0"
       inkscape:vp_x="0 : 0.5 : 1"
       sodipodi:type="inkscape:persp3d" />
    <inkscape:perspective
       id="perspective5648"
       inkscape:persp3d-origin="0.5 : 0.33333333 : 1"
       inkscape:vp_z="1 : 0.5 : 1"
       inkscape:vp_y="0 : 1000 : 0"
       inkscape:vp_x="0 : 0.5 : 1"
       sodipodi:type="inkscape:persp3d" />
    <inkscape:perspective
       id="perspective5670"
       inkscape:persp3d-origin="0.5 : 0.33333333 : 1"
       inkscape:vp_z="1 : 0.5 : 1"
       inkscape:vp_y="0 : 1000 : 0"
       inkscape:vp_x="0 : 0.5 : 1"
       sodipodi:type="inkscape:persp3d" />
    <inkscape:perspective
       id="perspective5694"
       inkscape:persp3d-origin="0.5 : 0.33333333 : 1"
       inkscape:vp_z="1 : 0.5 : 1"
       inkscape:vp_y="0 : 1000 : 0"
       inkscape:vp_x="0 : 0.5 : 1"
       sodipodi:type="inkscape:persp3d" />
    <inkscape:perspective
       id="perspective5716"
       inkscape:persp3d-origin="0.5 : 0.33333333 : 1"
       inkscape:vp_z="1 : 0.5 : 1"
       inkscape:vp_y="0 : 1000 : 0"
       inkscape:vp_x="0 : 0.5 : 1"
       sodipodi:type="inkscape:persp3d" />
    <inkscape:perspective
       id="perspective5816"
       inkscape:persp3d-origin="0.5 : 0.33333333 : 1"
       inkscape:vp_z="1 : 0.5 : 1"
       inkscape:vp_y="0 : 1000 : 0"
       inkscape:vp_x="0 : 0.5 : 1"
       sodipodi:type="inkscape:persp3d" />
  </defs>
  <metadata
     id="metadata7">
    <rdf:RDF>
      <cc:Work
         rdf:about="">
        <dc:format>image/svg+xml</dc:format>
        <dc:type
           rdf:resource="http://purl.org/dc/dcmitype/StillImage" />
        <dc:title />
      </cc:Work>
    </rdf:RDF>
  </metadata>
  <g
     inkscape:label="Capa 1"
     inkscape:groupmode="layer"
     id="layer1"
     transform="translate(-68.04501,-268.63482)">
    <flowRoot
       xml:space="preserve"
       id="flowRoot6755"
       style="font-size:16px;font-style:normal;font-weight:normal;fill:#000000;fill-opacity:1;stroke:none;font-family:Times New Roman;-inkscape-font-specification:Times New Roman"
       transform="translate(25.40251,288.96107)"><flowRegion
         id="flowRegion6757"><rect
           id="rect6759"
           width="55.154327"
           height="55.861435"
           x="53.033009"
           y="-136.87836" /></flowRegion><flowPara
         id="flowPara6761" /></flowRoot>    <flowRoot
       xml:space="preserve"
       id="flowRoot6763"
       style="font-size:16px;font-style:normal;font-weight:normal;fill:#000000;fill-opacity:1;stroke:none;font-family:Times New Roman;-inkscape-font-specification:Times New Roman"
       transform="translate(25.40251,288.96107)"><flowRegion
         id="flowRegion6765"><rect
           id="rect6767"
           width="59.396969"
           height="40.305088"
           x="46.669048"
           y="-126.97887" /></flowRegion><flowPara
         id="flowPara6769" /></flowRoot>    <g
       id="g4436">
      <g
         ns0:preamble="C:\\preamble.tex"
         ns0:text="\\centering\nANALIZADOR\\\\\nVECTORIAL\\\\\nDE REDES"
         word-spacing="normal"
         letter-spacing="normal"
         font-size-adjust="none"
         font-stretch="normal"
         font-weight="normal"
         font-variant="normal"
         font-style="normal"
         stroke-miterlimit="10.433"
         xml:space="preserve"
         transform="matrix(1.15,0,0,-1.15,49.97001,825.63732)"
         id="g5209"
         style="font-style:normal;font-variant:normal;font-weight:normal;font-stretch:normal;letter-spacing:normal;word-spacing:normal;text-anchor:start;fill:none;stroke:#000000;stroke-linecap:butt;stroke-linejoin:miter;stroke-miterlimit:10.43299961;stroke-opacity:1;stroke-dasharray:none;stroke-dashoffset:0">
<path
   id="path5211"
   d="m 365,484.15 0,0.01 -0.01,0.01 0,0.01 -0.01,0.01 0,0.02 -0.01,0.01 0,0.01 0,0 -0.01,0.01 0,0.01 -0.01,0.01 0,0.01 -0.01,0.01 0,0 -0.01,0.01 0,0.01 -0.01,0 0,0.01 -0.01,0 -0.01,0.01 -0.01,0 0,0.01 -0.01,0 -0.01,0.01 -0.01,0 -0.01,0 -0.01,0 -0.01,0 -0.02,0.01 -0.01,0 -0.01,0 -0.01,0 -0.01,0 c -0.16,0 -0.19,-0.06 -0.24,-0.2 l -2.06,-5.94 c -0.17,-0.51 -0.57,-0.66 -1.11,-0.67 v -0.31 c 0.23,0.01 0.66,0.04 1.01,0.04 0.31,0 0.83,-0.03 1.15,-0.04 v 0.31 c -0.5,0 -0.75,0.25 -0.75,0.51 0,0.03 0.01,0.13 0.02,0.15 l 0.46,1.3 0.11,0.31 1.11,3.23 1.13,-3.23 h -2.24 l -0.11,-0.31 h 2.46 l 0.52,-1.52 c 0.01,-0.04 0.03,-0.1 0.03,-0.14 0,-0.3 -0.55,-0.3 -0.82,-0.3 v -0.31 c 0.36,0.04 1.05,0.04 1.43,0.04 0.43,0 0.89,-0.01 1.3,-0.04 v 0.31 h -0.18 c -0.59,0 -0.73,0.07 -0.84,0.4 z"
   style="fill:#000000;stroke-width:0" />
<path
   id="path5213"
   d="m 370.82,483.89 -0.01,0.01 0,0.01 -0.01,0.01 -0.01,0.01 -0.01,0.01 0,0.01 -0.01,0 0,0.01 -0.01,0.01 -0.01,0 0,0.01 -0.01,0 -0.01,0.01 0,0 -0.01,0.01 -0.01,0 0,0 -0.01,0.01 -0.01,0 -0.01,0 -0.01,0 0,0 -0.01,0.01 -0.01,0 -0.02,0 -0.01,0 -0.01,0 -0.01,0 -0.02,0 -0.01,0 0,0 -0.01,0 -0.01,0 -0.01,0 -0.01,0 h -1.69 v -0.31 h 0.29 c 0.15,0 0.35,-0.01 0.5,-0.02 0.23,-0.03 0.24,-0.04 0.24,-0.23 v -5.18 c 0,-0.27 0,-0.74 -1.03,-0.74 v -0.31 c 0.35,0.01 0.84,0.04 1.17,0.04 0.32,0 0.81,-0.03 1.16,-0.04 v 0.31 c -1.03,0 -1.03,0.47 -1.03,0.74 v 5.16 c 0.05,-0.05 0.06,-0.06 0.1,-0.12 l 4.06,-5.96 c 0.09,-0.12 0.1,-0.13 0.17,-0.13 0.14,0 0.14,0.07 0.14,0.26 v 5.49 c 0,0.26 0,0.73 1.03,0.73 v 0.31 c -0.35,-0.01 -0.84,-0.03 -1.17,-0.03 -0.33,0 -0.81,0.02 -1.16,0.03 v -0.31 c 1.02,0 1.02,-0.47 1.02,-0.73 v -4.25 z"
   style="fill:#000000;stroke-width:0" />
<path
   id="path5215"
   d="m 379.95,484.15 -0.01,0.01 0,0.01 -0.01,0.01 0,0.01 -0.01,0.02 0,0.01 -0.01,0.01 0,0 0,0.01 -0.01,0.01 0,0.01 -0.01,0.01 0,0.01 -0.01,0 0,0.01 -0.01,0.01 0,0 -0.01,0.01 -0.01,0 0,0.01 -0.01,0 -0.01,0.01 -0.01,0 -0.01,0.01 -0.01,0 -0.01,0 -0.01,0 -0.01,0 -0.01,0.01 -0.02,0 -0.01,0 -0.01,0 0,0 c -0.16,0 -0.19,-0.06 -0.24,-0.2 l -2.06,-5.94 c -0.18,-0.51 -0.58,-0.66 -1.12,-0.67 v -0.31 c 0.23,0.01 0.66,0.04 1.02,0.04 0.31,0 0.82,-0.03 1.14,-0.04 v 0.31 c -0.5,0 -0.74,0.25 -0.74,0.51 0,0.03 0.01,0.13 0.02,0.15 l 0.45,1.3 0.11,0.31 1.12,3.23 1.12,-3.23 h -2.24 l -0.11,-0.31 h 2.46 l 0.53,-1.52 c 0.01,-0.04 0.03,-0.1 0.03,-0.14 0,-0.3 -0.56,-0.3 -0.83,-0.3 v -0.31 c 0.36,0.04 1.06,0.04 1.44,0.04 0.42,0 0.88,-0.01 1.3,-0.04 v 0.31 h -0.18 c -0.6,0 -0.74,0.07 -0.85,0.4 z"
   style="fill:#000000;stroke-width:0" />
<path
   id="path5217"
   d="M 389.25,479.8 H 389 c -0.11,-1.01 -0.25,-2.26 -2,-2.26 h -0.82 c -0.47,0 -0.48,0.07 -0.48,0.4 v 5.29 c 0,0.34 0,0.48 0.94,0.48 h 0.33 v 0.31 c -0.36,-0.03 -1.27,-0.03 -1.67,-0.03 -0.39,0 -1.17,0 -1.51,0.03 v -0.31 h 0.23 c 0.77,0 0.79,-0.11 0.79,-0.47 v -5.23 c 0,-0.36 -0.02,-0.47 -0.79,-0.47 h -0.23 v -0.31 h 5.18 z"
   style="fill:#000000;stroke-width:0" />
<path
   id="path5219"
   d="m 391.92,483.24 0,0.04 0,0.03 0,0.03 0,0.03 0.01,0.03 0,0.02 0,0.03 0.01,0.02 0.01,0.02 0,0.02 0.01,0.02 0.01,0.02 0.02,0.02 0.01,0.01 0.02,0.02 0.02,0.01 0.02,0.02 0.02,0.01 0.01,0 0.02,0.01 0.01,0 0.01,0.01 0.02,0 0.02,0.01 0.01,0 0.02,0.01 0.02,0 0.02,0 0.02,0.01 0.02,0 0.02,0 0.02,0 0.03,0.01 0.02,0 0.03,0 0.02,0 0.03,0.01 0.03,0 0.03,0 0.03,0 0.03,0 0.03,0 0.03,0 0.04,0 0.03,0 0.04,0 H 393 v 0.31 c -0.35,-0.03 -1.14,-0.03 -1.52,-0.03 -0.38,0 -1.17,0 -1.52,0.03 v -0.31 h 0.26 c 0.79,0 0.82,-0.11 0.82,-0.47 v -5.23 c 0,-0.36 -0.03,-0.47 -0.82,-0.47 h -0.26 v -0.31 c 0.35,0.04 1.14,0.04 1.51,0.04 0.39,0 1.18,0 1.53,-0.04 v 0.31 h -0.26 c -0.79,0 -0.82,0.11 -0.82,0.47 z"
   style="fill:#000000;stroke-width:0" />
<path
   id="path5221"
   d="m 398.72,483.67 0.01,0.01 0,0 0,0.01 0.01,0 0,0.01 0,0 0,0 0.01,0.01 0,0.01 0.01,0 0,0.01 0,0.01 0.01,0 0,0.01 0,0.01 0.01,0 0,0.01 0,0 0,0.01 0,0 0.01,0.01 0,0 0,0 0,0.01 0,0 0,0.01 0,0 0,0.01 0,0 0,0.01 0,0 0,0.01 0,0 0,0.01 0,0 0,0.01 c 0,0.16 -0.06,0.16 -0.26,0.16 h -4.45 l -0.11,-2.23 h 0.25 c 0.07,1.12 0.36,1.92 2,1.92 h 1.56 l -3.87,-6.11 c -0.07,-0.11 -0.07,-0.12 -0.07,-0.2 0,-0.17 0.05,-0.17 0.26,-0.17 h 4.58 l 0.17,2.66 h -0.25 c -0.08,-1.38 -0.27,-2.32 -2.11,-2.32 h -1.63 z"
   style="fill:#000000;stroke-width:0" />
<path
   id="path5223"
   d="m 403.33,484.15 -0.01,0.01 0,0.01 0,0.01 -0.01,0.01 0,0.02 -0.01,0.01 0,0.01 -0.01,0 0,0.01 0,0.01 -0.01,0.01 0,0.01 -0.01,0.01 0,0 -0.01,0.01 0,0.01 -0.01,0 -0.01,0.01 0,0 -0.01,0.01 -0.01,0 -0.01,0.01 -0.01,0 0,0.01 -0.01,0 -0.01,0 -0.02,0 -0.01,0 -0.01,0.01 -0.01,0 -0.02,0 0,0 -0.01,0 c -0.16,0 -0.19,-0.06 -0.24,-0.2 l -2.06,-5.94 c -0.18,-0.51 -0.57,-0.66 -1.11,-0.67 v -0.31 c 0.23,0.01 0.65,0.04 1.01,0.04 0.31,0 0.83,-0.03 1.15,-0.04 v 0.31 c -0.5,0 -0.75,0.25 -0.75,0.51 0,0.03 0.01,0.13 0.02,0.15 l 0.46,1.3 0.11,0.31 1.11,3.23 1.13,-3.23 h -2.24 l -0.11,-0.31 h 2.46 l 0.52,-1.52 c 0.01,-0.04 0.03,-0.1 0.03,-0.14 0,-0.3 -0.55,-0.3 -0.82,-0.3 v -0.31 c 0.36,0.04 1.05,0.04 1.43,0.04 0.43,0 0.88,-0.01 1.3,-0.04 v 0.31 h -0.18 c -0.59,0 -0.73,0.07 -0.84,0.4 z"
   style="fill:#000000;stroke-width:0" />
<path
   id="path5225"
   d="m 407.19,484.02 v -0.31 h 0.24 c 0.76,0 0.78,-0.11 0.78,-0.47 v -5.23 c 0,-0.36 -0.02,-0.47 -0.78,-0.47 h -0.24 v -0.31 h 3.64 l -0.27,0.31 h -1 c -0.47,0 -0.49,0.07 -0.49,0.4 v 5.38 c 0,0.32 0.02,0.39 0.49,0.39 h 0.99 c 0.62,0 1.31,-0.22 1.81,-0.92 0.43,-0.59 0.52,-1.44 0.52,-2.22 0,-1.1 -0.19,-1.7 -0.55,-2.18 -0.2,-0.27 -0.76,-0.85 -1.77,-0.85 l 0.27,-0.31 c 1.67,0 3.05,1.47 3.05,3.34 0,1.89 -1.35,3.45 -3.05,3.45 z"
   style="fill:#000000;stroke-width:0" />
<path
   id="path5227"
   d="m 421.63,480.6 -0.01,0.19 -0.01,0.19 -0.02,0.18 -0.03,0.18 -0.04,0.18 -0.05,0.17 -0.05,0.17 -0.06,0.17 -0.07,0.16 -0.07,0.15 -0.08,0.16 -0.09,0.14 -0.09,0.15 -0.1,0.13 -0.1,0.13 -0.11,0.13 -0.12,0.12 -0.12,0.11 -0.12,0.11 -0.13,0.1 -0.14,0.1 -0.14,0.08 -0.14,0.08 -0.15,0.07 -0.15,0.07 -0.15,0.06 -0.16,0.04 -0.16,0.04 -0.16,0.04 -0.16,0.02 -0.17,0.01 -0.17,0.01 v -0.25 c 0.87,0 2.29,-0.7 2.29,-3.25 0,-2.63 -1.36,-3.47 -2.28,-3.47 h 0 c -0.95,0 -2.29,0.88 -2.29,3.47 0,2.58 1.46,3.25 2.28,3.25 v 0.25 c -1.78,0 -3.3,-1.59 -3.3,-3.64 0,-2.03 1.53,-3.58 3.3,-3.58 1.81,0 3.32,1.58 3.32,3.58 z"
   style="fill:#000000;stroke-width:0" />
<path
   id="path5229"
   d="m 426.53,480.61 0.09,0.03 0.09,0.02 0.08,0.03 0.09,0.03 0.08,0.03 0.09,0.03 0.08,0.04 0.08,0.04 0.07,0.04 0.08,0.04 0.07,0.04 0.07,0.05 0.07,0.04 0.07,0.05 0.06,0.05 0.06,0.05 0.06,0.05 0.05,0.06 0.05,0.05 0.05,0.06 0.05,0.06 0.04,0.06 0.04,0.06 0.03,0.07 0.03,0.06 0.03,0.07 0.02,0.06 0.02,0.07 0.02,0.07 0.01,0.07 0.01,0.07 0,0.07 c 0,0.95 -1.13,1.79 -2.6,1.79 h -3.12 v -0.31 h 0.24 c 0.76,0 0.78,-0.11 0.78,-0.47 v -5.23 c 0,-0.36 -0.02,-0.47 -0.78,-0.47 h -0.24 v -0.31 c 0.36,0.04 1.06,0.04 1.45,0.04 0.39,0 1.1,0 1.45,-0.04 v 0.31 h -0.24 c -0.76,0 -0.78,0.11 -0.78,0.47 v 2.51 0.22 2.58 c 0,0.22 0,0.34 0.22,0.37 0.1,0.02 0.39,0.02 0.58,0.02 0.9,0 2.01,-0.04 2.01,-1.48 0,-0.68 -0.23,-1.49 -1.71,-1.49 h -1.1 v -0.22 h 1.14 c 0.16,0 0.58,0 0.93,-0.34 0.38,-0.35 0.38,-0.66 0.38,-1.33 0,-0.64 0,-1.04 0.4,-1.42 0.41,-0.35 0.96,-0.41 1.26,-0.41 0.77,0 0.94,0.81 0.94,1.09 0,0.06 0,0.17 -0.13,0.17 -0.11,0 -0.11,-0.09 -0.12,-0.16 -0.06,-0.71 -0.4,-0.89 -0.65,-0.89 -0.49,0 -0.57,0.51 -0.71,1.44 l -0.13,0.79 c -0.18,0.64 -0.66,0.96 -1.21,1.15 z"
   style="fill:#000000;stroke-width:0" />
<path
   id="path5231"
   d="m 370.95,471.09 0.02,0.04 0.01,0.03 0.02,0.03 0.01,0.03 0.02,0.04 0.02,0.03 0.02,0.03 0.02,0.03 0.02,0.03 0.02,0.03 0.03,0.02 0.02,0.03 0.03,0.03 0.03,0.02 0.03,0.03 0.03,0.02 0.03,0.02 0.03,0.02 0.04,0.02 0.04,0.02 0.04,0.02 0.04,0.01 0.04,0.02 0.04,0.01 0.05,0.01 0.05,0.01 0.05,0.01 0.05,0.01 0.06,0.01 0.06,0 0.06,0.01 0.06,0 v 0.31 c -0.31,-0.02 -0.71,-0.03 -0.96,-0.03 -0.3,0 -0.88,0.01 -1.14,0.03 v -0.31 c 0.52,-0.01 0.73,-0.27 0.73,-0.5 0,-0.08 -0.03,-0.14 -0.05,-0.2 l -1.82,-4.79 -1.9,5.02 c -0.06,0.14 -0.06,0.16 -0.06,0.18 0,0.29 0.56,0.29 0.81,0.29 v 0.31 c -0.36,-0.03 -1.04,-0.03 -1.42,-0.03 -0.48,0 -0.91,0.01 -1.26,0.03 v -0.31 c 0.64,0 0.83,0 0.97,-0.38 l 2.31,-6.1 c 0.07,-0.19 0.12,-0.22 0.25,-0.22 0.17,0 0.19,0.05 0.24,0.19 z"
   style="fill:#000000;stroke-width:0" />
<path
   id="path5233"
   d="m 373.6,466.05 0,-0.03 0,-0.03 0,-0.03 0,-0.03 0,-0.03 0,-0.02 -0.01,-0.03 0,-0.02 -0.01,-0.02 -0.01,-0.02 0,-0.02 -0.01,-0.02 -0.02,-0.02 -0.01,-0.01 -0.02,-0.02 -0.01,-0.01 -0.02,-0.02 -0.03,-0.01 -0.01,0 -0.01,-0.01 -0.01,0 -0.02,-0.01 -0.01,0 -0.02,-0.01 -0.02,0 -0.01,-0.01 -0.02,0 -0.02,0 -0.02,-0.01 -0.02,0 -0.02,0 -0.02,0 -0.02,-0.01 -0.03,0 -0.02,0 -0.03,0 -0.02,-0.01 -0.03,0 -0.03,0 -0.03,0 -0.03,0 -0.03,0 -0.03,0 -0.03,0 -0.04,0 -0.03,0 h -0.24 v -0.31 h 5.74 l 0.42,2.56 h -0.25 c -0.25,-1.53 -0.48,-2.25 -2.19,-2.25 h -1.32 c -0.47,0 -0.49,0.07 -0.49,0.39 v 2.66 h 0.89 c 0.97,0 1.08,-0.32 1.08,-1.16 h 0.25 v 2.63 h -0.25 c 0,-0.86 -0.11,-1.16 -1.08,-1.16 h -0.89 v 2.38 c 0,0.33 0.02,0.4 0.49,0.4 h 1.28 c 1.52,0 1.79,-0.55 1.95,-1.93 h 0.25 l -0.28,2.24 h -5.6 v -0.31 h 0.24 c 0.76,0 0.78,-0.11 0.78,-0.47 z"
   style="fill:#000000;stroke-width:0" />
<path
   id="path5235"
   d="m 379.59,468.68 0,-0.19 0.02,-0.19 0.02,-0.19 0.03,-0.18 0.04,-0.18 0.05,-0.17 0.05,-0.17 0.07,-0.17 0.07,-0.16 0.08,-0.15 0.08,-0.15 0.09,-0.15 0.1,-0.14 0.11,-0.14 0.11,-0.13 0.11,-0.12 0.13,-0.12 0.12,-0.11 0.13,-0.11 0.14,-0.1 0.14,-0.09 0.15,-0.08 0.14,-0.08 0.16,-0.07 0.15,-0.07 0.16,-0.05 0.16,-0.05 0.17,-0.04 0.17,-0.03 0.17,-0.02 0.17,-0.01 0.17,-0.01 c 1.62,0 2.6,1.38 2.6,2.54 0,0.09 0,0.16 -0.13,0.16 -0.11,0 -0.11,-0.06 -0.12,-0.15 -0.08,-1.43 -1.15,-2.24 -2.23,-2.24 -0.61,0 -2.56,0.34 -2.56,3.3 0,2.97 1.94,3.31 2.55,3.31 1.08,0 1.97,-0.91 2.17,-2.36 0.02,-0.14 0.02,-0.17 0.16,-0.17 0.16,0 0.16,0.03 0.16,0.24 v 2.36 c 0,0.16 0,0.23 -0.11,0.23 -0.04,0 -0.08,0 -0.16,-0.12 l -0.5,-0.73 c -0.37,0.36 -0.88,0.85 -1.83,0.85 -1.86,0 -3.46,-1.58 -3.46,-3.6 z"
   style="fill:#000000;stroke-width:0" />
<path
   id="path5237"
   d="m 392.85,472.01 h -6.08 l -0.19,-2.24 h 0.25 c 0.14,1.6 0.29,1.93 1.79,1.93 0.18,0 0.44,0 0.54,-0.02 0.21,-0.04 0.21,-0.15 0.21,-0.38 v -5.23 c 0,-0.34 0,-0.48 -1.05,-0.48 h -0.39 v -0.31 c 0.4,0.03 1.42,0.03 1.88,0.03 0.45,0 1.48,0 1.89,-0.03 v 0.31 h -0.4 c -1.05,0 -1.05,0.14 -1.05,0.48 v 5.23 c 0,0.2 0,0.34 0.18,0.38 0.11,0.02 0.38,0.02 0.57,0.02 1.5,0 1.65,-0.33 1.79,-1.93 h 0.25 z"
   style="fill:#000000;stroke-width:0" />
<path
   id="path5239"
   d="m 400.59,468.65 0,0.19 -0.01,0.18 -0.03,0.19 -0.03,0.18 -0.03,0.17 -0.05,0.18 -0.05,0.17 -0.06,0.16 -0.07,0.16 -0.07,0.16 -0.08,0.15 -0.09,0.15 -0.09,0.14 -0.1,0.14 -0.1,0.13 -0.11,0.13 -0.12,0.12 -0.12,0.11 -0.13,0.11 -0.13,0.1 -0.13,0.09 -0.14,0.09 -0.14,0.08 -0.15,0.07 -0.15,0.06 -0.15,0.06 -0.16,0.05 -0.16,0.04 -0.16,0.03 -0.16,0.02 -0.17,0.02 -0.17,0 v -0.24 c 0.86,0 2.29,-0.71 2.29,-3.25 0,-2.64 -1.37,-3.47 -2.28,-3.47 h 0 c -0.96,0 -2.29,0.87 -2.29,3.47 0,2.57 1.45,3.25 2.28,3.25 v 0.24 c -1.78,0 -3.3,-1.59 -3.3,-3.63 0,-2.04 1.53,-3.59 3.3,-3.59 1.81,0 3.31,1.58 3.31,3.59 z"
   style="fill:#000000;stroke-width:0" />
<path
   id="path5241"
   d="m 405.5,468.66 0.09,0.02 0.08,0.03 0.09,0.02 0.09,0.03 0.08,0.04 0.09,0.03 0.08,0.03 0.08,0.04 0.07,0.04 0.08,0.04 0.07,0.05 0.07,0.04 0.07,0.05 0.06,0.04 0.07,0.05 0.06,0.06 0.06,0.05 0.05,0.05 0.05,0.06 0.05,0.06 0.05,0.06 0.04,0.06 0.04,0.06 0.03,0.06 0.03,0.06 0.03,0.07 0.02,0.07 0.02,0.06 0.02,0.07 0.01,0.07 0,0.07 0.01,0.08 c 0,0.95 -1.14,1.79 -2.6,1.79 h -3.12 v -0.31 h 0.24 c 0.76,0 0.78,-0.11 0.78,-0.47 v -5.24 c 0,-0.35 -0.02,-0.46 -0.78,-0.46 h -0.24 v -0.31 c 0.36,0.03 1.06,0.03 1.45,0.03 0.39,0 1.09,0 1.45,-0.03 v 0.31 h -0.24 c -0.76,0 -0.78,0.11 -0.78,0.46 v 2.52 0.22 2.57 c 0,0.23 0,0.35 0.22,0.38 0.09,0.02 0.38,0.02 0.58,0.02 0.9,0 2.01,-0.04 2.01,-1.48 0,-0.69 -0.24,-1.49 -1.71,-1.49 h -1.1 v -0.22 h 1.14 c 0.16,0 0.58,0 0.93,-0.34 0.37,-0.36 0.37,-0.66 0.37,-1.33 0,-0.65 0,-1.04 0.41,-1.42 0.41,-0.36 0.96,-0.42 1.26,-0.42 0.77,0 0.94,0.82 0.94,1.09 0,0.06 0,0.17 -0.13,0.17 -0.11,0 -0.11,-0.09 -0.12,-0.16 -0.06,-0.7 -0.41,-0.88 -0.65,-0.88 -0.49,0 -0.57,0.51 -0.71,1.43 l -0.13,0.8 c -0.18,0.63 -0.67,0.96 -1.21,1.15 z"
   style="fill:#000000;stroke-width:0" />
<path
   id="path5243"
   d="m 410.74,471.29 0,0.03 0,0.03 0,0.03 0,0.03 0,0.03 0.01,0.03 0,0.02 0.01,0.02 0,0.03 0.01,0.02 0.01,0.02 0.01,0.02 0.01,0.01 0.02,0.02 0.01,0.01 0.02,0.02 0.02,0.01 0.03,0.01 0.01,0.01 0.01,0 0.02,0.01 0.01,0 0.02,0.01 0.01,0 0.02,0.01 0.02,0 0.02,0 0.02,0.01 0.02,0 0.02,0 0.02,0.01 0.02,0 0.02,0 0.03,0 0.02,0.01 0.03,0 0.03,0 0.03,0 0.02,0 0.03,0 0.04,0 0.03,0.01 0.03,0 0.03,0 0.04,0 0.04,0 h 0.26 v 0.31 c -0.35,-0.03 -1.14,-0.03 -1.52,-0.03 -0.38,0 -1.17,0 -1.52,0.03 v -0.31 h 0.26 c 0.79,0 0.82,-0.11 0.82,-0.47 v -5.24 c 0,-0.35 -0.03,-0.46 -0.82,-0.46 h -0.26 v -0.31 c 0.35,0.03 1.14,0.03 1.51,0.03 0.39,0 1.18,0 1.53,-0.03 v 0.31 h -0.26 c -0.79,0 -0.82,0.11 -0.82,0.46 z"
   style="fill:#000000;stroke-width:0" />
<path
   id="path5245"
   d="m 416.06,472.19 -0.01,0.02 0,0.01 0,0.01 -0.01,0.01 0,0.01 -0.01,0.01 0,0.01 -0.01,0.01 0,0.01 0,0.01 -0.01,0.01 0,0 -0.01,0.01 0,0.01 -0.01,0.01 0,0 -0.01,0.01 -0.01,0 0,0.01 -0.01,0 -0.01,0.01 -0.01,0 -0.01,0.01 0,0 -0.01,0 -0.01,0.01 -0.02,0 -0.01,0 -0.01,0 -0.01,0 -0.02,0 0,0 -0.01,0 c -0.16,0 -0.19,-0.06 -0.24,-0.2 l -2.06,-5.94 c -0.18,-0.5 -0.58,-0.65 -1.11,-0.66 v -0.31 c 0.23,0.01 0.65,0.03 1.01,0.03 0.31,0 0.83,-0.02 1.15,-0.03 v 0.31 c -0.5,0 -0.75,0.25 -0.75,0.51 0,0.02 0.01,0.12 0.02,0.14 l 0.46,1.31 0.11,0.3 1.11,3.23 1.13,-3.23 h -2.24 l -0.11,-0.3 h 2.46 l 0.52,-1.53 c 0.01,-0.04 0.03,-0.09 0.03,-0.13 0,-0.3 -0.55,-0.3 -0.82,-0.3 v -0.31 c 0.36,0.03 1.05,0.03 1.43,0.03 0.43,0 0.89,-0.01 1.3,-0.03 v 0.31 h -0.18 c -0.59,0 -0.73,0.07 -0.84,0.39 z"
   style="fill:#000000;stroke-width:0" />
<path
   id="path5247"
   d="m 425.36,467.84 h -0.25 c -0.11,-1.01 -0.25,-2.25 -2,-2.25 h -0.81 c -0.47,0 -0.49,0.07 -0.49,0.39 v 5.3 c 0,0.34 0,0.48 0.95,0.48 h 0.32 v 0.31 c -0.35,-0.03 -1.26,-0.03 -1.67,-0.03 -0.39,0 -1.16,0 -1.51,0.03 v -0.31 h 0.24 c 0.76,0 0.78,-0.11 0.78,-0.47 v -5.24 c 0,-0.35 -0.02,-0.46 -0.78,-0.46 h -0.24 v -0.31 h 5.18 z"
   style="fill:#000000;stroke-width:0" />
<path
   id="path5249"
   d="M 369.76,460.11 V 459.8 H 370 c 0.77,0 0.79,-0.11 0.79,-0.47 v -5.23 c 0,-0.36 -0.02,-0.47 -0.79,-0.47 h -0.24 v -0.3 h 3.64 l -0.27,0.3 h -1 c -0.47,0 -0.49,0.07 -0.49,0.4 v 5.37 c 0,0.33 0.02,0.4 0.49,0.4 h 0.99 c 0.62,0 1.31,-0.22 1.81,-0.92 0.43,-0.59 0.52,-1.44 0.52,-2.22 0,-1.1 -0.19,-1.7 -0.55,-2.18 -0.2,-0.27 -0.76,-0.85 -1.77,-0.85 l 0.27,-0.3 c 1.67,0 3.05,1.47 3.05,3.33 0,1.89 -1.35,3.45 -3.05,3.45 z"
   style="fill:#000000;stroke-width:0" />
<path
   id="path5251"
   d="m 378.38,454.1 -0.01,-0.03 0,-0.03 0,-0.03 0,-0.03 0,-0.03 0,-0.03 -0.01,-0.02 0,-0.02 -0.01,-0.03 0,-0.02 -0.01,-0.02 -0.01,-0.02 -0.01,-0.01 -0.02,-0.02 -0.01,-0.01 -0.02,-0.02 -0.02,-0.01 -0.02,-0.01 -0.01,-0.01 -0.02,0 -0.01,-0.01 -0.02,0 -0.01,-0.01 -0.02,0 -0.01,-0.01 -0.02,0 -0.02,0 -0.02,-0.01 -0.01,0 -0.02,0 -0.03,-0.01 -0.02,0 -0.02,0 -0.02,0 -0.03,-0.01 -0.02,0 -0.03,0 -0.03,0 -0.03,0 -0.02,0 -0.03,0 -0.04,-0.01 -0.03,0 -0.03,0 -0.04,0 -0.03,0 h -0.24 v -0.3 h 5.74 l 0.42,2.56 h -0.25 c -0.25,-1.53 -0.48,-2.26 -2.19,-2.26 h -1.32 c -0.47,0 -0.49,0.07 -0.49,0.4 v 2.65 h 0.9 c 0.96,0 1.07,-0.32 1.07,-1.16 h 0.25 v 2.63 h -0.25 c 0,-0.85 -0.11,-1.16 -1.07,-1.16 h -0.9 v 2.39 c 0,0.32 0.02,0.39 0.49,0.39 h 1.28 c 1.52,0 1.79,-0.54 1.95,-1.92 h 0.25 l -0.28,2.23 h -5.6 v -0.31 h 0.24 c 0.77,0 0.79,-0.11 0.79,-0.47 z"
   style="fill:#000000;stroke-width:0" />
<path
   id="path5253"
   d="m 391.45,456.7 0.09,0.03 0.09,0.02 0.08,0.03 0.09,0.03 0.08,0.03 0.09,0.03 0.08,0.04 0.08,0.04 0.07,0.04 0.08,0.04 0.07,0.04 0.07,0.05 0.07,0.04 0.07,0.05 0.06,0.05 0.06,0.05 0.06,0.05 0.05,0.06 0.05,0.05 0.05,0.06 0.05,0.06 0.04,0.06 0.04,0.06 0.03,0.07 0.03,0.06 0.03,0.07 0.03,0.06 0.01,0.07 0.02,0.07 0.01,0.07 0.01,0.07 0,0.07 c 0,0.95 -1.14,1.79 -2.6,1.79 h -3.12 v -0.31 h 0.24 c 0.76,0 0.78,-0.11 0.78,-0.47 v -5.23 c 0,-0.36 -0.02,-0.47 -0.78,-0.47 h -0.24 v -0.3 c 0.36,0.03 1.06,0.03 1.45,0.03 0.39,0 1.1,0 1.45,-0.03 v 0.3 h -0.23 c -0.77,0 -0.79,0.11 -0.79,0.47 v 2.51 0.22 2.57 c 0,0.23 0,0.35 0.22,0.38 0.1,0.02 0.39,0.02 0.58,0.02 0.9,0 2.02,-0.04 2.02,-1.48 0,-0.68 -0.24,-1.49 -1.72,-1.49 h -1.1 v -0.22 h 1.14 c 0.16,0 0.58,0 0.93,-0.34 0.38,-0.35 0.38,-0.66 0.38,-1.33 0,-0.64 0,-1.04 0.4,-1.42 0.41,-0.35 0.96,-0.41 1.26,-0.41 0.77,0 0.94,0.81 0.94,1.09 0,0.06 0,0.17 -0.13,0.17 -0.1,0 -0.1,-0.09 -0.12,-0.16 -0.05,-0.71 -0.4,-0.88 -0.65,-0.88 -0.49,0 -0.57,0.5 -0.71,1.43 l -0.13,0.79 c -0.18,0.64 -0.66,0.96 -1.21,1.15 z"
   style="fill:#000000;stroke-width:0" />
<path
   id="path5255"
   d="m 395.81,454.1 0,-0.03 0,-0.03 0,-0.03 -0.01,-0.03 0,-0.03 0,-0.03 0,-0.02 -0.01,-0.02 0,-0.03 -0.01,-0.02 -0.01,-0.02 -0.01,-0.02 -0.01,-0.01 -0.02,-0.02 -0.01,-0.01 -0.02,-0.02 -0.02,-0.01 -0.02,-0.01 -0.01,-0.01 -0.02,0 -0.01,-0.01 -0.01,0 -0.02,-0.01 -0.01,0 -0.02,-0.01 -0.02,0 -0.02,0 -0.01,-0.01 -0.02,0 -0.02,0 -0.02,-0.01 -0.03,0 -0.02,0 -0.02,0 -0.03,-0.01 -0.02,0 -0.03,0 -0.03,0 -0.02,0 -0.03,0 -0.03,0 -0.03,-0.01 -0.04,0 -0.03,0 -0.03,0 -0.04,0 h -0.24 v -0.3 h 5.74 l 0.42,2.56 h -0.25 c -0.25,-1.53 -0.48,-2.26 -2.19,-2.26 h -1.32 c -0.47,0 -0.49,0.07 -0.49,0.4 v 2.65 h 0.9 c 0.96,0 1.07,-0.32 1.07,-1.16 h 0.25 v 2.63 h -0.25 c 0,-0.85 -0.11,-1.16 -1.07,-1.16 h -0.9 v 2.39 c 0,0.32 0.02,0.39 0.49,0.39 h 1.28 c 1.53,0 1.79,-0.54 1.95,-1.92 h 0.25 l -0.28,2.23 h -5.6 v -0.31 h 0.24 c 0.77,0 0.79,-0.11 0.79,-0.47 z"
   style="fill:#000000;stroke-width:0" />
<path
   id="path5257"
   d="m 401.58,460.11 v -0.31 h 0.24 c 0.77,0 0.79,-0.11 0.79,-0.47 v -5.23 c 0,-0.36 -0.02,-0.47 -0.79,-0.47 h -0.24 v -0.3 h 3.64 l -0.26,0.3 h -1.01 c -0.47,0 -0.49,0.07 -0.49,0.4 v 5.37 c 0,0.33 0.02,0.4 0.49,0.4 h 1 c 0.61,0 1.3,-0.22 1.81,-0.92 0.42,-0.59 0.51,-1.44 0.51,-2.22 0,-1.1 -0.19,-1.7 -0.54,-2.18 -0.2,-0.27 -0.77,-0.85 -1.77,-0.85 l 0.26,-0.3 c 1.68,0 3.05,1.47 3.05,3.33 0,1.89 -1.35,3.45 -3.05,3.45 z"
   style="fill:#000000;stroke-width:0" />
<path
   id="path5259"
   d="m 410.2,454.1 0,-0.03 0,-0.03 0,-0.03 0,-0.03 -0.01,-0.03 0,-0.03 0,-0.02 -0.01,-0.02 0,-0.03 -0.01,-0.02 -0.01,-0.02 -0.01,-0.02 -0.01,-0.01 -0.01,-0.02 -0.02,-0.01 -0.02,-0.02 -0.02,-0.01 -0.02,-0.01 -0.01,-0.01 -0.02,0 -0.01,-0.01 -0.01,0 -0.02,-0.01 -0.01,0 -0.02,-0.01 -0.02,0 -0.01,0 -0.02,-0.01 -0.02,0 -0.02,0 -0.02,-0.01 -0.02,0 -0.03,0 -0.02,0 -0.03,-0.01 -0.02,0 -0.03,0 -0.02,0 -0.03,0 -0.03,0 -0.03,0 -0.03,-0.01 -0.04,0 -0.03,0 -0.03,0 -0.04,0 h -0.24 v -0.3 h 5.74 l 0.42,2.56 h -0.25 c -0.25,-1.53 -0.47,-2.26 -2.19,-2.26 h -1.32 c -0.47,0 -0.49,0.07 -0.49,0.4 v 2.65 h 0.9 c 0.96,0 1.07,-0.32 1.07,-1.16 h 0.25 v 2.63 h -0.25 c 0,-0.85 -0.11,-1.16 -1.07,-1.16 h -0.9 v 2.39 c 0,0.32 0.02,0.39 0.49,0.39 h 1.28 c 1.53,0 1.79,-0.54 1.95,-1.92 h 0.25 l -0.28,2.23 h -5.6 v -0.31 h 0.24 c 0.77,0 0.79,-0.11 0.79,-0.47 z"
   style="fill:#000000;stroke-width:0" />
<path
   id="path5261"
   d="m 419.1,457.18 -1.28,0.31 c -0.61,0.15 -1,0.68 -1,1.26 0,0.69 0.54,1.3 1.31,1.3 1.66,0 1.88,-1.63 1.94,-2.08 0.01,-0.06 0.01,-0.11 0.12,-0.11 0.13,0 0.13,0.04 0.13,0.23 v 2 c 0,0.17 0,0.24 -0.11,0.24 -0.07,0 -0.08,-0.01 -0.15,-0.13 l -0.35,-0.57 c -0.29,0.29 -0.7,0.7 -1.59,0.7 -1.1,0 -1.94,-0.88 -1.94,-1.93 0,-0.82 0.53,-1.55 1.31,-1.82 0.11,-0.04 0.61,-0.16 1.31,-0.32 0.27,-0.07 0.57,-0.14 0.84,-0.51 0.21,-0.26 0.31,-0.59 0.31,-0.92 0,-0.7 -0.49,-1.42 -1.33,-1.42 -0.29,0 -1.04,0.05 -1.57,0.54 -0.58,0.54 -0.61,1.17 -0.62,1.53 -0.01,0.1 -0.09,0.1 -0.12,0.1 -0.13,0 -0.13,-0.07 -0.13,-0.25 v -1.98 c 0,-0.17 0,-0.24 0.11,-0.24 0.07,0 0.08,0.02 0.15,0.13 0,0.01 0.03,0.03 0.36,0.56 0.31,-0.34 0.94,-0.69 1.83,-0.69 1.16,0 1.96,0.97 1.96,2.06 0,1 -0.66,1.81 -1.49,2.01 z"
   style="fill:#000000;stroke-width:0" />
</g>      <g
         ns0:preamble="C:\\preamble.tex"
         ns0:text="ALIMENTADOR"
         word-spacing="normal"
         letter-spacing="normal"
         font-size-adjust="none"
         font-stretch="normal"
         font-weight="normal"
         font-variant="normal"
         font-style="normal"
         stroke-miterlimit="10.433"
         xml:space="preserve"
         transform="matrix(1.15,0,0,-1.15,-102.41074,885.87382)"
         id="g3228"
         style="font-style:normal;font-variant:normal;font-weight:normal;font-stretch:normal;letter-spacing:normal;word-spacing:normal;text-anchor:start;fill:none;stroke:#000000;stroke-linecap:butt;stroke-linejoin:miter;stroke-miterlimit:10.43299961;stroke-opacity:1;stroke-dasharray:none;stroke-dashoffset:0">
<path
   id="path3230"
   d="m 227.39,484.15 0,0.01 -0.01,0.01 0,0.01 -0.01,0.01 0,0.02 0,0.01 -0.01,0.01 0,0 -0.01,0.01 0,0.01 -0.01,0.01 0,0.01 -0.01,0.01 0,0 -0.01,0.01 0,0.01 -0.01,0 0,0.01 -0.01,0 -0.01,0.01 -0.01,0 0,0.01 -0.01,0 -0.01,0.01 -0.01,0 -0.01,0 -0.01,0 -0.01,0 -0.02,0.01 -0.01,0 -0.01,0 -0.01,0 -0.01,0 c -0.16,0 -0.19,-0.06 -0.24,-0.2 l -2.05,-5.94 c -0.18,-0.51 -0.58,-0.66 -1.12,-0.67 v -0.31 c 0.23,0.01 0.66,0.04 1.01,0.04 0.31,0 0.83,-0.03 1.15,-0.04 v 0.31 c -0.5,0 -0.75,0.25 -0.75,0.51 0,0.03 0.01,0.13 0.02,0.15 l 0.46,1.3 0.11,0.31 1.11,3.23 1.13,-3.23 h -2.24 l -0.11,-0.31 h 2.46 l 0.53,-1.52 c 0,-0.04 0.02,-0.1 0.02,-0.14 0,-0.3 -0.55,-0.3 -0.82,-0.3 v -0.31 c 0.36,0.04 1.05,0.04 1.43,0.04 0.43,0 0.89,-0.01 1.31,-0.04 v 0.31 h -0.18 c -0.6,0 -0.74,0.07 -0.85,0.4 z"
   style="fill:#000000;stroke-width:0" />
<path
   id="path3232"
   d="m 236.69,479.8 h -0.24 c -0.11,-1.01 -0.25,-2.26 -2,-2.26 h -0.82 c -0.47,0 -0.49,0.07 -0.49,0.4 v 5.29 c 0,0.34 0,0.48 0.95,0.48 h 0.33 v 0.31 c -0.36,-0.03 -1.27,-0.03 -1.68,-0.03 -0.38,0 -1.16,0 -1.51,0.03 v -0.31 h 0.24 c 0.77,0 0.79,-0.11 0.79,-0.47 v -5.23 c 0,-0.36 -0.02,-0.47 -0.79,-0.47 h -0.24 v -0.31 h 5.19 z"
   style="fill:#000000;stroke-width:0" />
<path
   id="path3234"
   d="m 239.37,483.24 0,0.04 0,0.03 0,0.03 0,0.03 0,0.03 0.01,0.02 0,0.03 0.01,0.02 0,0.02 0.01,0.02 0.01,0.02 0.01,0.02 0.01,0.02 0.02,0.01 0.01,0.02 0.02,0.01 0.02,0.02 0.03,0.01 0.01,0 0.01,0.01 0.02,0 0.01,0.01 0.02,0 0.01,0.01 0.02,0 0.02,0.01 0.02,0 0.02,0 0.02,0.01 0.02,0 0.02,0 0.02,0 0.02,0.01 0.03,0 0.02,0 0.03,0 0.03,0.01 0.02,0 0.03,0 0.03,0 0.03,0 0.04,0 0.03,0 0.03,0 0.04,0 0.03,0 h 0.26 v 0.31 c -0.34,-0.03 -1.13,-0.03 -1.51,-0.03 -0.39,0 -1.17,0 -1.52,0.03 v -0.31 h 0.26 c 0.78,0 0.81,-0.11 0.81,-0.47 v -5.23 c 0,-0.36 -0.03,-0.47 -0.81,-0.47 h -0.26 v -0.31 c 0.35,0.04 1.13,0.04 1.51,0.04 0.39,0 1.18,0 1.52,-0.04 v 0.31 h -0.26 c -0.78,0 -0.81,0.11 -0.81,0.47 z"
   style="fill:#000000;stroke-width:0" />
<path
   id="path3236"
   d="m 243.13,483.8 -0.01,0.01 0,0.01 -0.01,0.01 0,0.01 -0.01,0.02 -0.01,0.01 0,0.02 -0.01,0.01 -0.01,0.02 0,0.01 -0.01,0.01 -0.01,0.01 -0.01,0.01 0,0.01 -0.01,0 -0.01,0.01 -0.01,0.01 -0.01,0 -0.01,0.01 0,0 -0.01,0.01 -0.02,0 -0.01,0 -0.01,0 -0.01,0.01 -0.01,0 -0.02,0 -0.01,0 -0.02,0 -0.02,0 -0.01,0 -0.02,0 -0.02,0 -0.02,0 h -1.68 v -0.31 h 0.24 c 0.76,0 0.78,-0.11 0.78,-0.47 v -4.96 c 0,-0.27 0,-0.74 -1.02,-0.74 v -0.31 c 0.34,0.01 0.83,0.04 1.16,0.04 0.33,0 0.82,-0.03 1.16,-0.04 v 0.31 c -1.02,0 -1.02,0.47 -1.02,0.74 v 5.35 h 0.01 l 2.4,-6.18 c 0.05,-0.13 0.1,-0.22 0.2,-0.22 0.11,0 0.14,0.08 0.17,0.19 l 2.45,6.29 h 0.01 v -5.7 c 0,-0.36 -0.02,-0.47 -0.78,-0.47 h -0.24 v -0.31 c 0.37,0.04 1.04,0.04 1.43,0.04 0.39,0 1.05,0 1.42,-0.04 v 0.31 h -0.23 c -0.77,0 -0.79,0.11 -0.79,0.47 v 5.23 c 0,0.36 0.02,0.47 0.79,0.47 h 0.23 v 0.31 h -1.68 c -0.26,0 -0.26,-0.01 -0.33,-0.19 l -2.17,-5.59 z"
   style="fill:#000000;stroke-width:0" />
<path
   id="path3238"
   d="m 251.21,478.01 0,-0.03 0,-0.03 0,-0.03 0,-0.03 0,-0.03 0,-0.03 -0.01,-0.02 0,-0.02 -0.01,-0.03 0,-0.02 -0.01,-0.02 -0.01,-0.02 -0.01,-0.01 -0.02,-0.02 -0.01,-0.01 -0.02,-0.02 -0.02,-0.01 -0.02,-0.01 -0.02,-0.01 -0.01,0 -0.01,-0.01 -0.02,0 -0.01,-0.01 -0.02,0 -0.01,-0.01 -0.02,0 -0.02,0 -0.02,-0.01 -0.02,0 -0.02,0 -0.02,-0.01 -0.02,0 -0.02,0 -0.03,0 -0.02,-0.01 -0.02,0 -0.03,0 -0.03,0 -0.03,0 -0.03,0 -0.03,0 -0.03,-0.01 -0.03,0 -0.03,0 -0.04,0 -0.03,0 h -0.24 v -0.31 h 5.74 l 0.42,2.57 h -0.25 c -0.25,-1.53 -0.48,-2.26 -2.19,-2.26 h -1.32 c -0.47,0 -0.49,0.07 -0.49,0.4 v 2.65 h 0.89 c 0.97,0 1.08,-0.32 1.08,-1.16 h 0.25 v 2.63 h -0.25 c 0,-0.85 -0.11,-1.16 -1.08,-1.16 h -0.89 v 2.39 c 0,0.32 0.02,0.39 0.49,0.39 h 1.28 c 1.52,0 1.79,-0.54 1.95,-1.92 h 0.25 l -0.28,2.23 h -5.6 v -0.31 h 0.24 c 0.76,0 0.78,-0.11 0.78,-0.47 z"
   style="fill:#000000;stroke-width:0" />
<path
   id="path3240"
   d="m 258.95,483.89 -0.01,0.01 -0.01,0.01 0,0.01 -0.01,0.01 -0.01,0.01 0,0.01 -0.01,0 -0.01,0.01 0,0.01 -0.01,0 0,0.01 -0.01,0 -0.01,0.01 0,0 -0.01,0.01 -0.01,0 0,0 -0.01,0.01 -0.01,0 -0.01,0 -0.01,0 -0.01,0 -0.01,0.01 -0.01,0 -0.01,0 -0.01,0 -0.01,0 -0.02,0 -0.01,0 -0.01,0 -0.01,0 0,0 -0.01,0 -0.01,0 -0.01,0 h -1.69 v -0.31 h 0.29 c 0.15,0 0.35,-0.01 0.5,-0.02 0.22,-0.03 0.23,-0.04 0.23,-0.23 v -5.18 c 0,-0.27 0,-0.74 -1.02,-0.74 v -0.31 c 0.35,0.01 0.83,0.04 1.16,0.04 0.33,0 0.82,-0.03 1.17,-0.04 v 0.31 c -1.03,0 -1.03,0.47 -1.03,0.74 v 5.16 c 0.05,-0.05 0.06,-0.06 0.1,-0.12 l 4.06,-5.96 c 0.09,-0.12 0.1,-0.13 0.17,-0.13 0.14,0 0.14,0.07 0.14,0.26 v 5.49 c 0,0.26 0,0.73 1.03,0.73 v 0.31 c -0.35,-0.01 -0.84,-0.03 -1.17,-0.03 -0.33,0 -0.81,0.02 -1.16,0.03 v -0.31 c 1.02,0 1.02,-0.47 1.02,-0.73 v -4.25 z"
   style="fill:#000000;stroke-width:0" />
<path
   id="path3242"
   d="m 270.74,483.96 h -6.08 l -0.19,-2.23 h 0.25 c 0.14,1.59 0.29,1.92 1.79,1.92 0.18,0 0.44,0 0.54,-0.02 0.21,-0.04 0.21,-0.15 0.21,-0.37 v -5.24 c 0,-0.34 0,-0.48 -1.05,-0.48 h -0.39 v -0.31 c 0.4,0.04 1.42,0.04 1.88,0.04 0.45,0 1.48,0 1.88,-0.04 v 0.31 h -0.39 c -1.05,0 -1.05,0.14 -1.05,0.48 v 5.24 c 0,0.19 0,0.33 0.18,0.37 0.11,0.02 0.38,0.02 0.57,0.02 1.5,0 1.65,-0.33 1.79,-1.92 h 0.25 z"
   style="fill:#000000;stroke-width:0" />
<path
   id="path3244"
   d="m 274.44,484.15 0,0.01 -0.01,0.01 0,0.01 -0.01,0.01 0,0.02 -0.01,0.01 0,0.01 0,0 -0.01,0.01 0,0.01 -0.01,0.01 0,0.01 -0.01,0.01 0,0 -0.01,0.01 0,0.01 -0.01,0 0,0.01 -0.01,0 -0.01,0.01 -0.01,0 0,0.01 -0.01,0 -0.01,0.01 -0.01,0 -0.01,0 -0.01,0 -0.01,0 -0.02,0.01 -0.01,0 -0.01,0 -0.01,0 -0.01,0 c -0.16,0 -0.19,-0.06 -0.24,-0.2 l -2.06,-5.94 c -0.18,-0.51 -0.57,-0.66 -1.11,-0.67 v -0.31 c 0.23,0.01 0.66,0.04 1.02,0.04 0.3,0 0.82,-0.03 1.14,-0.04 v 0.31 c -0.5,0 -0.75,0.25 -0.75,0.51 0,0.03 0.01,0.13 0.02,0.15 l 0.46,1.3 0.11,0.31 1.11,3.23 1.13,-3.23 h -2.24 l -0.11,-0.31 h 2.46 l 0.52,-1.52 c 0.01,-0.04 0.03,-0.1 0.03,-0.14 0,-0.3 -0.55,-0.3 -0.82,-0.3 v -0.31 c 0.36,0.04 1.05,0.04 1.43,0.04 0.43,0 0.89,-0.01 1.3,-0.04 v 0.31 h -0.17 c -0.6,0 -0.74,0.07 -0.85,0.4 z"
   style="fill:#000000;stroke-width:0" />
<path
   id="path3246"
   d="m 278.3,484.02 v -0.31 h 0.24 c 0.77,0 0.79,-0.11 0.79,-0.47 v -5.23 c 0,-0.36 -0.02,-0.47 -0.79,-0.47 h -0.24 v -0.31 h 3.64 l -0.27,0.31 h -1 c -0.47,0 -0.49,0.07 -0.49,0.4 v 5.38 c 0,0.32 0.02,0.39 0.49,0.39 h 0.99 c 0.62,0 1.31,-0.22 1.82,-0.92 0.42,-0.59 0.51,-1.44 0.51,-2.22 0,-1.1 -0.19,-1.7 -0.54,-2.18 -0.2,-0.27 -0.77,-0.85 -1.78,-0.85 l 0.27,-0.31 c 1.67,0 3.05,1.47 3.05,3.34 0,1.89 -1.35,3.45 -3.05,3.45 z"
   style="fill:#000000;stroke-width:0" />
<path
   id="path3248"
   d="m 292.74,480.6 -0.01,0.19 -0.01,0.19 -0.02,0.18 -0.03,0.18 -0.04,0.18 -0.04,0.17 -0.06,0.17 -0.06,0.17 -0.06,0.16 -0.08,0.15 -0.08,0.16 -0.08,0.14 -0.1,0.15 -0.1,0.13 -0.1,0.13 -0.11,0.13 -0.12,0.12 -0.12,0.11 -0.12,0.11 -0.13,0.1 -0.14,0.1 -0.14,0.08 -0.14,0.08 -0.14,0.07 -0.15,0.07 -0.16,0.06 -0.15,0.04 -0.16,0.04 -0.17,0.04 -0.16,0.02 -0.17,0.01 -0.17,0.01 v -0.25 c 0.87,0 2.29,-0.7 2.29,-3.25 0,-2.63 -1.36,-3.47 -2.28,-3.47 h 0 c -0.95,0 -2.28,0.88 -2.28,3.47 0,2.58 1.45,3.25 2.27,3.25 v 0.25 c -1.78,0 -3.3,-1.59 -3.3,-3.64 0,-2.03 1.53,-3.58 3.3,-3.58 1.81,0 3.32,1.58 3.32,3.58 z"
   style="fill:#000000;stroke-width:0" />
<path
   id="path3250"
   d="m 297.64,480.61 0.09,0.03 0.09,0.02 0.09,0.03 0.08,0.03 0.09,0.03 0.08,0.03 0.08,0.04 0.08,0.04 0.08,0.04 0.07,0.04 0.08,0.04 0.07,0.05 0.06,0.04 0.07,0.05 0.06,0.05 0.06,0.05 0.06,0.05 0.06,0.06 0.05,0.05 0.05,0.06 0.04,0.06 0.04,0.06 0.04,0.06 0.04,0.07 0.03,0.06 0.02,0.07 0.03,0.06 0.02,0.07 0.01,0.07 0.01,0.07 0.01,0.07 0,0.07 c 0,0.95 -1.13,1.79 -2.59,1.79 h -3.13 v -0.31 h 0.24 c 0.77,0 0.78,-0.11 0.78,-0.47 v -5.23 c 0,-0.36 -0.01,-0.47 -0.78,-0.47 h -0.24 v -0.31 c 0.36,0.04 1.07,0.04 1.45,0.04 0.39,0 1.1,0 1.46,-0.04 v 0.31 h -0.24 c -0.77,0 -0.79,0.11 -0.79,0.47 v 2.51 0.22 2.58 c 0,0.22 0,0.34 0.22,0.37 0.1,0.02 0.39,0.02 0.59,0.02 0.89,0 2.01,-0.04 2.01,-1.48 0,-0.68 -0.24,-1.49 -1.72,-1.49 h -1.1 v -0.22 h 1.14 c 0.16,0 0.58,0 0.93,-0.34 0.38,-0.35 0.38,-0.66 0.38,-1.33 0,-0.64 0,-1.04 0.41,-1.42 0.4,-0.35 0.95,-0.41 1.25,-0.41 0.78,0 0.95,0.81 0.95,1.09 0,0.06 0,0.17 -0.13,0.17 -0.11,0 -0.11,-0.09 -0.12,-0.16 -0.06,-0.71 -0.41,-0.89 -0.66,-0.89 -0.49,0 -0.57,0.51 -0.71,1.44 l -0.13,0.79 c -0.18,0.64 -0.66,0.96 -1.21,1.15 z"
   style="fill:#000000;stroke-width:0" />
</g>      <g
         transform="matrix(0.7695,0,0,0.7695,48.728279,93.372339)"
         id="g7594">
        <path
           style="fill:#ffdc00;fill-opacity:0;stroke:#000000;stroke-width:2.59909034;stroke-linecap:butt;stroke-linejoin:miter;stroke-miterlimit:4;stroke-opacity:1;stroke-dasharray:none"
           d="m 364.40251,450.58579 -338,0 0,-91 338,0 m 0,91"
           id="path2848"
           sodipodi:nodetypes="ccccc" />
        <path
           style="fill:none;stroke:#000000;stroke-width:2.59909034;stroke-linecap:butt;stroke-linejoin:miter;stroke-miterlimit:4;stroke-opacity:1;stroke-dasharray:none"
           d="m 162.90251,359.58579 0,-25.99972 -71.5,0"
           id="path3646"
           sodipodi:nodetypes="ccc" />
        <path
           style="fill:none;stroke:#000000;stroke-width:2.59909034;stroke-linecap:butt;stroke-linejoin:miter;stroke-miterlimit:4;stroke-opacity:1;stroke-dasharray:none"
           d="m 162.90251,450.58579 0,26.00028 -71.5,0"
           id="path3648"
           sodipodi:nodetypes="ccc" />
        <path
           style="fill:none;stroke:#000000;stroke-width:6.49772596;stroke-linecap:butt;stroke-linejoin:miter;stroke-miterlimit:4;stroke-opacity:1;stroke-dasharray:none"
           d="m 251.73541,450.58606 0,-33.007"
           id="path2980"
           sodipodi:nodetypes="cc" />
        <g
           id="g4092"
           transform="translate(-27,0)">
          <path
             sodipodi:nodetypes="cc"
             transform="translate(25.402509,332.58607)"
             id="path3266"
             d="m 370,116.6998 0,-88.40026"
             style="fill:none;stroke:#000000;stroke-width:4.54840803;stroke-linecap:butt;stroke-linejoin:miter;stroke-miterlimit:4;stroke-opacity:1;stroke-dasharray:none" />
          <path
             sodipodi:nodetypes="cc"
             transform="translate(25.402509,332.58607)"
             id="path3268"
             d="m 397,72.499739 -27,0"
             style="fill:none;stroke:#000000;stroke-width:4.54840803;stroke-linecap:butt;stroke-linejoin:miter;stroke-miterlimit:4;stroke-opacity:1;stroke-dasharray:none" />
        </g>
        <path
           style="fill:none;stroke:#000000;stroke-width:2.59909034;stroke-linecap:butt;stroke-linejoin:miter;stroke-miterlimit:4;stroke-opacity:1;stroke-dasharray:none"
           d="m 352.99001,411.85456 -36.1,0 0,13.5375 -27.075,-20.30625 27.075,-20.30625 0,13.5375 36.1,0 0,13.5375 z"
           id="path3270"
           sodipodi:nodetypes="cccccccc" />
        <path
           style="fill:none;stroke:#000000;stroke-width:2.59909034;stroke-linecap:butt;stroke-linejoin:miter;stroke-miterlimit:4;stroke-opacity:1;stroke-dasharray:none"
           d="m 233.73551,450.58581 0,6 36,0 0,-6"
           id="path5750"
           sodipodi:nodetypes="cccc" />
        <path
           style="fill:none;stroke:#000000;stroke-width:2.59909034;stroke-linecap:butt;stroke-linejoin:miter;stroke-miterlimit:4;stroke-opacity:1;stroke-dasharray:none"
           d="m 241.73551,456.58581 0,20 20,0 0,-20"
           id="path5752"
           sodipodi:nodetypes="cccc" />
        <path
           style="fill:none;stroke:#000000;stroke-width:1.29954517;stroke-linecap:butt;stroke-linejoin:miter;stroke-miterlimit:4;stroke-opacity:1;stroke-dasharray:none"
           d="m 241.73551,466.58581 20,0"
           id="path5830"
           sodipodi:nodetypes="cc" />
        <path
           style="fill:none;stroke:#000000;stroke-width:1.29954517;stroke-linecap:butt;stroke-linejoin:miter;stroke-miterlimit:4;stroke-opacity:1;stroke-dasharray:none"
           d="m 241.73551,463.25281 20,0"
           id="path5832"
           sodipodi:nodetypes="cc" />
        <path
           style="fill:none;stroke:#000000;stroke-width:1.29954517;stroke-linecap:butt;stroke-linejoin:miter;stroke-miterlimit:4;stroke-opacity:1;stroke-dasharray:none"
           d="m 241.73551,459.91881 20,0"
           id="path5834"
           sodipodi:nodetypes="cc" />
        <path
           style="fill:none;stroke:#000000;stroke-width:1.29954517;stroke-linecap:butt;stroke-linejoin:miter;stroke-miterlimit:4;stroke-opacity:1;stroke-dasharray:none"
           d="m 241.73551,469.91881 20,0"
           id="path5836"
           sodipodi:nodetypes="cc" />
        <path
           style="fill:none;stroke:#000000;stroke-width:1.29954517;stroke-linecap:butt;stroke-linejoin:miter;stroke-miterlimit:4;stroke-opacity:1;stroke-dasharray:none"
           d="m 241.73551,473.25281 20,0"
           id="path5838"
           sodipodi:nodetypes="cc" />
      </g>
      <path
         sodipodi:nodetypes="cccc"
         id="path5840"
         d="m 242.43851,460.46482 0,31.485 215.325,0 0,-33.129"
         style="fill:none;stroke:#000000;stroke-width:4;stroke-linecap:butt;stroke-linejoin:miter;stroke-miterlimit:4;stroke-opacity:1;stroke-dasharray:none" />
      <g
         transform="matrix(0.7695,0,0,0.7695,54.235779,91.038526)"
         id="g7565">
        <path
           style="fill:#000000;fill-opacity:0.21568627;stroke:#000000;stroke-width:2.59909034;stroke-linecap:butt;stroke-linejoin:miter;stroke-miterlimit:4;stroke-opacity:1;stroke-dasharray:none"
           d="m 495.40251,289.96107 0,210 180,0 0,-210 -180,0 z m 30,30 120,0 0,80 -120,0 0,-80 z m 60,100.09375 c 18.81679,0 29.5,13.94736 29.5,29.5 0,15.55265 -10.68321,29.5 -29.5,29.5 -18.81678,0 -29.5,-13.94735 -29.5,-29.5 0,-15.55264 10.68322,-29.5 29.5,-29.5 z m -61,46.90625 c 7.01646,0 11,5.2007 11,11 0,5.79933 -3.98354,11 -11,11 -7.01646,0 -11,-5.20067 -11,-11 0,-5.7993 3.98354,-11 11,-11 z m 122,0 c 7.01646,0 11,5.2007 11,11 0,5.79933 -3.98354,11 -11,11 -7.01646,0 -11,-5.20067 -11,-11 0,-5.7993 3.98354,-11 11,-11 z"
           id="path5631" />
        <path
           style="fill:#000000;fill-opacity:1;stroke:#000000;stroke-width:0.99993074;stroke-miterlimit:4;stroke-opacity:1;stroke-dasharray:none;stroke-dashoffset:0"
           d="m 651.90254,477.94981 c 0,2.89966 -1.99185,5.50005 -5.50009,5.50005 -3.50823,0 -5.49998,-2.60038 -5.49998,-5.50005 0,-2.89965 1.99175,-5.50004 5.49998,-5.50004 3.50824,0 5.50009,2.60038 5.50009,5.50004 z"
           id="path5635-1-4"
           sodipodi:nodetypes="czzzz" />
        <path
           style="fill:#000000;fill-opacity:1;stroke:#000000;stroke-width:0.99993074;stroke-miterlimit:4;stroke-opacity:1;stroke-dasharray:none;stroke-dashoffset:0"
           d="m 529.90254,477.94982 c 0,2.89966 -1.99185,5.50003 -5.50009,5.50003 -3.50823,0 -5.49998,-2.60037 -5.49998,-5.50003 0,-2.89966 1.99175,-5.50004 5.49998,-5.50004 3.50824,0 5.50009,2.60038 5.50009,5.50004 z"
           id="path5635-1-4-0"
           sodipodi:nodetypes="czzzz" />
        <path
           style="fill:none;stroke:#000000;stroke-width:1.29954517;stroke-linecap:butt;stroke-linejoin:miter;stroke-miterlimit:4;stroke-opacity:1;stroke-dasharray:2.59909032, 2.59909032;stroke-dashoffset:0"
           d="m 525.40251,359.96081 c 5.65685,0 120,0 120,0"
           id="path5754"
           sodipodi:nodetypes="cc" />
        <path
           style="fill:none;stroke:#000000;stroke-width:1.29954517;stroke-linecap:butt;stroke-linejoin:miter;stroke-miterlimit:4;stroke-opacity:1;stroke-dasharray:2.59909032, 2.59909032;stroke-dashoffset:0"
           d="m 525.40251,339.96081 120,0"
           id="path5756"
           sodipodi:nodetypes="cc" />
        <path
           style="fill:none;stroke:#000000;stroke-width:1.29954517;stroke-linecap:butt;stroke-linejoin:miter;stroke-miterlimit:4;stroke-opacity:1;stroke-dasharray:2.59909032, 2.59909032;stroke-dashoffset:0"
           d="m 525.40251,379.96081 c 3.53553,-0.70711 120,0 120,0"
           id="path5758"
           sodipodi:nodetypes="cc" />
        <path
           style="fill:none;stroke:#000000;stroke-width:1.29954517;stroke-linecap:butt;stroke-linejoin:miter;stroke-miterlimit:4;stroke-opacity:1;stroke-dasharray:2.59909032, 2.59909032;stroke-dashoffset:0"
           d="m 525.40251,349.96081 120,0"
           id="path5760"
           sodipodi:nodetypes="cc" />
        <path
           style="fill:none;stroke:#000000;stroke-width:1.29954517;stroke-linecap:butt;stroke-linejoin:miter;stroke-miterlimit:4;stroke-opacity:1;stroke-dasharray:2.59909032, 2.59909032;stroke-dashoffset:0"
           d="m 525.40251,329.96081 120,0"
           id="path5762"
           sodipodi:nodetypes="cc" />
        <path
           style="fill:none;stroke:#000000;stroke-width:1.29954517;stroke-linecap:butt;stroke-linejoin:miter;stroke-miterlimit:4;stroke-opacity:1;stroke-dasharray:2.59909032, 2.59909032;stroke-dashoffset:0"
           d="m 525.40251,369.96081 120,0"
           id="path5764"
           sodipodi:nodetypes="cc" />
        <path
           style="fill:none;stroke:#000000;stroke-width:1.29954517;stroke-linecap:butt;stroke-linejoin:miter;stroke-miterlimit:4;stroke-opacity:1;stroke-dasharray:2.59909032, 2.59909032;stroke-dashoffset:0"
           d="m 525.40251,389.96081 120,0"
           id="path5766"
           sodipodi:nodetypes="cc" />
        <path
           style="fill:none;stroke:#000000;stroke-width:1.29954517;stroke-linecap:butt;stroke-linejoin:miter;stroke-miterlimit:4;stroke-opacity:1;stroke-dasharray:2.59909032, 2.59909032;stroke-dashoffset:0"
           d="m 585.40251,399.96081 0,-80"
           id="path5768"
           sodipodi:nodetypes="cc" />
        <path
           style="fill:none;stroke:#000000;stroke-width:1.29954517;stroke-linecap:butt;stroke-linejoin:miter;stroke-miterlimit:4;stroke-opacity:1;stroke-dasharray:2.59909032, 2.59909032;stroke-dashoffset:0"
           d="m 597.40251,399.96081 0,-80"
           id="path5770"
           sodipodi:nodetypes="cc" />
        <path
           style="fill:none;stroke:#000000;stroke-width:1.29954517;stroke-linecap:butt;stroke-linejoin:miter;stroke-miterlimit:4;stroke-opacity:1;stroke-dasharray:2.59909032, 2.59909032;stroke-dashoffset:0"
           d="m 609.40251,399.96081 0,-80"
           id="path5772"
           sodipodi:nodetypes="cc" />
        <path
           style="fill:none;stroke:#000000;stroke-width:1.29954517;stroke-linecap:butt;stroke-linejoin:miter;stroke-miterlimit:4;stroke-opacity:1;stroke-dasharray:2.59909032, 2.59909032;stroke-dashoffset:0"
           d="m 621.40251,399.96081 0,-80"
           id="path5774"
           sodipodi:nodetypes="cc" />
        <path
           style="fill:none;stroke:#000000;stroke-width:1.29954517;stroke-linecap:butt;stroke-linejoin:miter;stroke-miterlimit:4;stroke-opacity:1;stroke-dasharray:2.59909032, 2.59909032;stroke-dashoffset:0"
           d="m 573.40251,399.96081 0,-80"
           id="path5776"
           sodipodi:nodetypes="cc" />
        <path
           style="fill:none;stroke:#000000;stroke-width:1.29954517;stroke-linecap:butt;stroke-linejoin:miter;stroke-miterlimit:4;stroke-opacity:1;stroke-dasharray:2.59909032, 2.59909032;stroke-dashoffset:0"
           d="m 561.40251,319.96081 0,80"
           id="path5778"
           sodipodi:nodetypes="cc" />
        <path
           style="fill:none;stroke:#000000;stroke-width:1.29954517;stroke-linecap:butt;stroke-linejoin:miter;stroke-miterlimit:4;stroke-opacity:1;stroke-dasharray:2.59909032, 2.59909032;stroke-dashoffset:0"
           d="m 549.40251,399.96081 0,-80"
           id="path5780"
           sodipodi:nodetypes="cc" />
        <path
           style="fill:none;stroke:#000000;stroke-width:1.29954517;stroke-linecap:butt;stroke-linejoin:miter;stroke-miterlimit:4;stroke-opacity:1;stroke-dasharray:2.59909032, 2.59909032;stroke-dashoffset:0"
           d="m 537.40251,319.96081 0,80"
           id="path5782"
           sodipodi:nodetypes="cc" />
        <path
           style="fill:none;stroke:#000000;stroke-width:1.29954517;stroke-linecap:butt;stroke-linejoin:miter;stroke-miterlimit:4;stroke-opacity:1;stroke-dasharray:2.59909032, 2.59909032;stroke-dashoffset:0"
           d="m 633.40251,399.96081 0,-80"
           id="path5774-1"
           sodipodi:nodetypes="cc" />
        <path
           style="fill:none;stroke:#000000;stroke-width:1.29954517;stroke-linecap:butt;stroke-linejoin:miter;stroke-miterlimit:4;stroke-opacity:1;stroke-dasharray:none"
           d="m 606.90251,449.55481 5,-5e-5 m -53,5e-5 5,0"
           id="path5842"
           sodipodi:nodetypes="cccc" />
        <path
           sodipodi:nodetypes="cccc"
           id="path6110"
           d="m 585.40248,471.05478 5e-5,5 m -5e-5,-53 0,5"
           style="fill:none;stroke:#000000;stroke-width:1.29954517;stroke-linecap:butt;stroke-linejoin:miter;stroke-miterlimit:4;stroke-opacity:1;stroke-dasharray:none" />
        <path
           sodipodi:nodetypes="cccc"
           id="path6112"
           d="m 600.60532,434.35201 3.5355,-3.53557 m -37.47662,37.47669 3.53553,-3.53553"
           style="fill:none;stroke:#000000;stroke-width:1.29954517;stroke-linecap:butt;stroke-linejoin:miter;stroke-miterlimit:4;stroke-opacity:1;stroke-dasharray:none" />
        <path
           style="fill:none;stroke:#000000;stroke-width:1.29954517;stroke-linecap:butt;stroke-linejoin:miter;stroke-miterlimit:4;stroke-opacity:1;stroke-dasharray:none"
           d="m 600.60528,464.7576 3.53557,3.5355 m -37.47669,-37.47662 3.53553,3.53553"
           id="path6114"
           sodipodi:nodetypes="cccc" />
        <path
           sodipodi:nodetypes="cccc"
           id="path6116"
           d="m 605.26593,441.32711 4.61938,-1.91346 m -48.9656,20.28227 4.6194,-1.91342"
           style="fill:none;stroke:#000000;stroke-width:1.29954517;stroke-linecap:butt;stroke-linejoin:miter;stroke-miterlimit:4;stroke-opacity:1;stroke-dasharray:none" />
        <path
           style="fill:none;stroke:#000000;stroke-width:1.29954517;stroke-linecap:butt;stroke-linejoin:miter;stroke-miterlimit:4;stroke-opacity:1;stroke-dasharray:none"
           d="m 593.63018,469.4182 1.91346,4.61938 m -20.28227,-48.9656 1.91342,4.61941"
           id="path6118"
           sodipodi:nodetypes="cccc" />
        <path
           style="fill:none;stroke:#000000;stroke-width:1.29954517;stroke-linecap:butt;stroke-linejoin:miter;stroke-miterlimit:4;stroke-opacity:1;stroke-dasharray:none"
           d="m 593.63022,429.69138 1.91338,-4.61941 m -20.28218,48.96563 1.91342,-4.6194"
           id="path6120"
           sodipodi:nodetypes="cccc" />
        <path
           sodipodi:nodetypes="cccc"
           id="path6122"
           d="m 605.26591,457.7825 4.61941,1.91338 m -48.96562,-20.28218 4.61939,1.91341"
           style="fill:none;stroke:#000000;stroke-width:1.29954517;stroke-linecap:butt;stroke-linejoin:miter;stroke-miterlimit:4;stroke-opacity:1;stroke-dasharray:none" />
      </g>
      <g
         style="font-style:normal;font-variant:normal;font-weight:normal;font-stretch:normal;letter-spacing:normal;word-spacing:normal;text-anchor:start;fill:none;stroke:#000000;stroke-linecap:butt;stroke-linejoin:miter;stroke-miterlimit:10.43299961;stroke-opacity:1;stroke-dasharray:none;stroke-dashoffset:0"
         id="content"
         transform="matrix(1.15,0,0,-1.15,-64.91349,1194.6874)"
         xml:space="preserve"
         stroke-miterlimit="10.433"
         font-style="normal"
         font-variant="normal"
         font-weight="normal"
         font-stretch="normal"
         font-size-adjust="none"
         letter-spacing="normal"
         word-spacing="normal"
         ns0:text="\\centering\nCORTO\\\\\nCIRCUITO\\\\\nVARIABLE\\\\\nDE LA GU\\\'IA\\\\\nDE ONDA"
         ns0:preamble="">
<path
   style="fill:#000000;stroke-width:0"
   d="m 377.65,710.52 0,-0.19 0.02,-0.19 0.02,-0.18 0.03,-0.18 0.04,-0.18 0.05,-0.18 0.06,-0.16 0.06,-0.17 0.07,-0.16 0.08,-0.16 0.08,-0.15 0.1,-0.15 0.1,-0.14 0.1,-0.13 0.11,-0.13 0.12,-0.13 0.12,-0.12 0.12,-0.11 0.14,-0.1 0.13,-0.1 0.14,-0.09 0.15,-0.09 0.15,-0.08 0.15,-0.07 0.16,-0.06 0.16,-0.06 0.16,-0.04 0.16,-0.04 0.17,-0.03 0.17,-0.03 0.17,-0.01 0.17,0 c 1.62,0 2.6,1.38 2.6,2.53 0,0.1 0,0.17 -0.13,0.17 -0.11,0 -0.11,-0.06 -0.12,-0.16 -0.08,-1.42 -1.14,-2.24 -2.23,-2.24 -0.61,0 -2.56,0.34 -2.56,3.3 0,2.97 1.94,3.31 2.55,3.31 1.08,0 1.97,-0.9 2.17,-2.35 0.02,-0.14 0.02,-0.17 0.16,-0.17 0.16,0 0.16,0.03 0.16,0.24 v 2.35 c 0,0.17 0,0.24 -0.11,0.24 -0.04,0 -0.08,0 -0.16,-0.12 l -0.5,-0.74 c -0.37,0.36 -0.87,0.86 -1.83,0.86 -1.86,0 -3.46,-1.58 -3.46,-3.61 z"
   id="path4049" />
<path
   style="fill:#000000;stroke-width:0"
   d="m 391.46,710.49 0,0.19 -0.02,0.19 -0.02,0.18 -0.03,0.18 -0.04,0.18 -0.04,0.17 -0.05,0.17 -0.06,0.17 -0.07,0.16 -0.07,0.15 -0.08,0.16 -0.09,0.14 -0.09,0.15 -0.1,0.13 -0.11,0.13 -0.11,0.13 -0.11,0.12 -0.12,0.11 -0.13,0.11 -0.13,0.1 -0.13,0.1 -0.14,0.08 -0.14,0.08 -0.15,0.07 -0.15,0.07 -0.15,0.06 -0.16,0.04 -0.16,0.04 -0.16,0.04 -0.17,0.02 -0.16,0.01 -0.17,0.01 v -0.25 c 0.86,0 2.29,-0.71 2.29,-3.25 0,-2.63 -1.37,-3.47 -2.28,-3.47 h 0 c -0.96,0 -2.29,0.88 -2.29,3.47 0,2.58 1.45,3.25 2.28,3.25 v 0.25 c -1.78,0 -3.31,-1.59 -3.31,-3.64 0,-2.03 1.54,-3.58 3.31,-3.58 1.81,0 3.31,1.58 3.31,3.58 z"
   id="path4051" />
<path
   style="fill:#000000;stroke-width:0"
   d="m 396.36,710.5 0.09,0.03 0.09,0.02 0.09,0.03 0.09,0.03 0.08,0.03 0.08,0.03 0.08,0.04 0.08,0.04 0.08,0.04 0.08,0.04 0.07,0.04 0.07,0.05 0.07,0.04 0.06,0.05 0.07,0.05 0.06,0.05 0.05,0.05 0.06,0.06 0.05,0.05 0.05,0.06 0.04,0.06 0.05,0.06 0.03,0.06 0.04,0.07 0.03,0.06 0.03,0.07 0.02,0.06 0.02,0.07 0.02,0.07 0.01,0.07 0,0.07 0.01,0.07 c 0,0.96 -1.14,1.79 -2.6,1.79 h -3.13 v -0.31 h 0.24 c 0.77,0 0.79,-0.11 0.79,-0.46 v -5.24 c 0,-0.36 -0.02,-0.47 -0.79,-0.47 h -0.24 v -0.3 c 0.36,0.03 1.07,0.03 1.46,0.03 0.39,0 1.09,0 1.45,-0.03 v 0.3 h -0.24 c -0.77,0 -0.78,0.11 -0.78,0.47 v 2.51 0.22 2.58 c 0,0.22 0,0.34 0.21,0.37 0.1,0.02 0.39,0.02 0.59,0.02 0.9,0 2.01,-0.04 2.01,-1.48 0,-0.68 -0.24,-1.49 -1.71,-1.49 h -1.1 v -0.22 h 1.14 c 0.16,0 0.58,0 0.92,-0.33 0.38,-0.36 0.38,-0.67 0.38,-1.34 0,-0.64 0,-1.04 0.41,-1.42 0.41,-0.35 0.96,-0.41 1.25,-0.41 0.78,0 0.95,0.81 0.95,1.09 0,0.06 0,0.17 -0.13,0.17 -0.11,0 -0.11,-0.09 -0.12,-0.16 -0.06,-0.71 -0.41,-0.88 -0.66,-0.88 -0.48,0 -0.56,0.5 -0.7,1.42 l -0.13,0.8 c -0.18,0.64 -0.67,0.96 -1.22,1.15 z"
   id="path4053" />
<path
   style="fill:#000000;stroke-width:0"
   d="m 405.17,713.85 h -6.08 l -0.19,-2.24 h 0.25 c 0.14,1.6 0.29,1.93 1.79,1.93 0.18,0 0.44,0 0.54,-0.02 0.21,-0.04 0.21,-0.15 0.21,-0.37 v -5.24 c 0,-0.34 0,-0.48 -1.05,-0.48 h -0.4 v -0.3 c 0.41,0.03 1.43,0.03 1.88,0.03 0.46,0 1.49,0 1.89,-0.03 v 0.3 h -0.39 c -1.05,0 -1.05,0.14 -1.05,0.48 v 5.24 c 0,0.19 0,0.33 0.18,0.37 0.11,0.02 0.38,0.02 0.57,0.02 1.5,0 1.65,-0.33 1.79,-1.93 h 0.25 z"
   id="path4055" />
<path
   style="fill:#000000;stroke-width:0"
   d="m 412.91,710.49 0,0.19 -0.02,0.19 -0.02,0.18 -0.03,0.18 -0.03,0.18 -0.05,0.17 -0.05,0.17 -0.06,0.17 -0.07,0.16 -0.07,0.15 -0.08,0.16 -0.09,0.14 -0.09,0.15 -0.1,0.13 -0.11,0.13 -0.11,0.13 -0.11,0.12 -0.12,0.11 -0.13,0.11 -0.13,0.1 -0.13,0.1 -0.14,0.08 -0.14,0.08 -0.15,0.07 -0.15,0.07 -0.15,0.06 -0.16,0.04 -0.16,0.04 -0.16,0.04 -0.17,0.02 -0.16,0.01 -0.17,0.01 v -0.25 c 0.86,0 2.29,-0.71 2.29,-3.25 0,-2.63 -1.37,-3.47 -2.28,-3.47 h 0 c -0.96,0 -2.29,0.88 -2.29,3.47 0,2.58 1.45,3.25 2.28,3.25 v 0.25 c -1.78,0 -3.31,-1.59 -3.31,-3.64 0,-2.03 1.54,-3.58 3.31,-3.58 1.81,0 3.31,1.58 3.31,3.58 z"
   id="path4057" />
<path
   style="fill:#000000;stroke-width:0"
   d="m 370.32,698.57 0,-0.19 0.01,-0.19 0.03,-0.19 0.03,-0.18 0.04,-0.18 0.05,-0.17 0.05,-0.17 0.07,-0.17 0.07,-0.16 0.08,-0.15 0.08,-0.15 0.09,-0.15 0.1,-0.14 0.11,-0.14 0.11,-0.13 0.11,-0.12 0.12,-0.12 0.13,-0.11 0.13,-0.11 0.14,-0.1 0.14,-0.09 0.14,-0.08 0.15,-0.08 0.16,-0.07 0.15,-0.07 0.16,-0.05 0.16,-0.05 0.17,-0.04 0.16,-0.03 0.17,-0.02 0.18,-0.01 0.17,-0.01 c 1.62,0 2.59,1.38 2.59,2.53 0,0.1 0,0.17 -0.13,0.17 -0.1,0 -0.1,-0.06 -0.11,-0.16 -0.08,-1.42 -1.15,-2.23 -2.23,-2.23 -0.61,0 -2.56,0.34 -2.56,3.3 0,2.97 1.94,3.3 2.55,3.3 1.08,0 1.97,-0.9 2.17,-2.35 0.02,-0.14 0.02,-0.17 0.15,-0.17 0.16,0 0.16,0.03 0.16,0.24 v 2.35 c 0,0.17 0,0.24 -0.1,0.24 -0.04,0 -0.09,0 -0.16,-0.12 l -0.5,-0.73 c -0.37,0.36 -0.88,0.85 -1.83,0.85 -1.86,0 -3.46,-1.58 -3.46,-3.6 z"
   id="path4059" />
<path
   style="fill:#000000;stroke-width:0"
   d="m 379.19,701.18 0,0.03 0,0.03 0,0.03 0,0.03 0.01,0.03 0,0.03 0,0.02 0.01,0.02 0,0.03 0.01,0.02 0.01,0.02 0.01,0.02 0.01,0.01 0.02,0.02 0.02,0.01 0.01,0.02 0.03,0.01 0.02,0.01 0.01,0.01 0.01,0 0.02,0.01 0.01,0 0.02,0.01 0.01,0 0.02,0.01 0.02,0 0.02,0 0.02,0.01 0.02,0 0.02,0 0.02,0.01 0.02,0 0.03,0 0.02,0 0.03,0.01 0.02,0 0.03,0 0.03,0 0.03,0 0.03,0 0.03,0 0.03,0.01 0.03,0 0.04,0 0.03,0 0.04,0 h 0.26 v 0.31 c -0.35,-0.04 -1.14,-0.04 -1.52,-0.04 -0.38,0 -1.17,0 -1.52,0.04 v -0.31 h 0.26 c 0.79,0 0.82,-0.11 0.82,-0.47 v -5.23 c 0,-0.36 -0.03,-0.47 -0.82,-0.47 h -0.26 v -0.31 c 0.35,0.03 1.14,0.03 1.51,0.03 0.39,0 1.18,0 1.53,-0.03 v 0.31 h -0.26 c -0.79,0 -0.82,0.11 -0.82,0.47 z"
   id="path4061" />
<path
   style="fill:#000000;stroke-width:0"
   d="m 384.88,698.55 0.09,0.02 0.09,0.03 0.08,0.02 0.09,0.03 0.08,0.04 0.09,0.03 0.08,0.03 0.08,0.04 0.07,0.04 0.08,0.04 0.07,0.05 0.07,0.04 0.07,0.05 0.07,0.04 0.06,0.05 0.06,0.06 0.06,0.05 0.05,0.05 0.05,0.06 0.05,0.06 0.05,0.06 0.04,0.06 0.04,0.06 0.03,0.06 0.03,0.06 0.03,0.07 0.02,0.07 0.02,0.06 0.02,0.07 0.01,0.07 0.01,0.07 0,0.08 c 0,0.95 -1.14,1.79 -2.6,1.79 h -3.12 v -0.31 h 0.24 c 0.76,0 0.78,-0.11 0.78,-0.47 v -5.23 c 0,-0.36 -0.02,-0.47 -0.78,-0.47 h -0.24 v -0.31 c 0.36,0.03 1.06,0.03 1.45,0.03 0.39,0 1.1,0 1.45,-0.03 v 0.31 h -0.23 c -0.77,0 -0.79,0.11 -0.79,0.47 v 2.51 0.22 2.57 c 0,0.23 0,0.35 0.22,0.38 0.1,0.02 0.39,0.02 0.58,0.02 0.9,0 2.02,-0.04 2.02,-1.48 0,-0.69 -0.24,-1.49 -1.72,-1.49 h -1.1 v -0.22 h 1.14 c 0.16,0 0.58,0 0.93,-0.34 0.38,-0.36 0.38,-0.66 0.38,-1.33 0,-0.65 0,-1.04 0.4,-1.42 0.41,-0.36 0.96,-0.42 1.26,-0.42 0.77,0 0.94,0.82 0.94,1.09 0,0.06 0,0.17 -0.13,0.17 -0.11,0 -0.11,-0.09 -0.12,-0.16 -0.06,-0.7 -0.4,-0.88 -0.65,-0.88 -0.49,0 -0.57,0.51 -0.71,1.43 l -0.13,0.8 c -0.18,0.63 -0.66,0.96 -1.21,1.15 z"
   id="path4063" />
<path
   style="fill:#000000;stroke-width:0"
   d="m 388.16,698.57 0.01,-0.19 0.01,-0.19 0.02,-0.19 0.03,-0.18 0.04,-0.18 0.05,-0.17 0.06,-0.17 0.06,-0.17 0.07,-0.16 0.08,-0.15 0.09,-0.15 0.09,-0.15 0.1,-0.14 0.1,-0.14 0.11,-0.13 0.12,-0.12 0.12,-0.12 0.13,-0.11 0.13,-0.11 0.14,-0.1 0.14,-0.09 0.14,-0.08 0.15,-0.08 0.15,-0.07 0.16,-0.07 0.16,-0.05 0.16,-0.05 0.16,-0.04 0.17,-0.03 0.17,-0.02 0.17,-0.01 0.17,-0.01 c 1.63,0 2.6,1.38 2.6,2.53 0,0.1 0,0.17 -0.13,0.17 -0.11,0 -0.11,-0.06 -0.12,-0.16 -0.08,-1.42 -1.14,-2.23 -2.23,-2.23 -0.6,0 -2.55,0.34 -2.55,3.3 0,2.97 1.94,3.3 2.54,3.3 1.09,0 1.97,-0.9 2.17,-2.35 0.02,-0.14 0.02,-0.17 0.16,-0.17 0.16,0 0.16,0.03 0.16,0.24 v 2.35 c 0,0.17 0,0.24 -0.11,0.24 -0.04,0 -0.08,0 -0.16,-0.12 l -0.5,-0.73 c -0.36,0.36 -0.87,0.85 -1.83,0.85 -1.86,0 -3.46,-1.58 -3.46,-3.6 z"
   id="path4065" />
<path
   style="fill:#000000;stroke-width:0"
   d="m 400.59,697.47 0,-0.14 -0.01,-0.12 -0.01,-0.13 -0.02,-0.11 -0.03,-0.12 -0.03,-0.11 -0.03,-0.11 -0.04,-0.1 -0.04,-0.11 -0.04,-0.09 -0.05,-0.09 -0.06,-0.09 -0.05,-0.09 -0.06,-0.08 -0.06,-0.07 -0.07,-0.08 -0.07,-0.07 -0.07,-0.06 -0.07,-0.06 -0.08,-0.06 -0.08,-0.05 -0.08,-0.04 -0.08,-0.05 -0.08,-0.03 -0.09,-0.04 -0.08,-0.03 -0.09,-0.02 -0.09,-0.02 -0.08,-0.02 -0.09,-0.01 -0.09,-0.01 -0.09,0 c -0.47,0 -1.64,0.25 -1.64,2.14 v 3.78 c 0,0.36 0.02,0.47 0.78,0.47 h 0.24 v 0.31 c -0.35,-0.04 -1.08,-0.04 -1.46,-0.04 -0.38,0 -1.12,0 -1.47,0.04 v -0.31 h 0.24 c 0.76,0 0.78,-0.11 0.78,-0.47 v -3.75 c 0,-1.4 1.16,-2.48 2.51,-2.48 1.14,0 2.04,0.93 2.21,2.06 0.03,0.2 0.03,0.29 0.03,0.68 v 3.18 c 0,0.33 0,0.78 1.02,0.78 v 0.31 c -0.35,-0.01 -0.83,-0.04 -1.17,-0.04 -0.35,0 -0.83,0.03 -1.18,0.04 v -0.31 c 1.02,0 1.02,-0.47 1.02,-0.74 z"
   id="path4067" />
<path
   style="fill:#000000;stroke-width:0"
   d="m 404.51,701.18 0,0.03 0,0.03 0,0.03 0,0.03 0,0.03 0.01,0.03 0,0.02 0.01,0.02 0,0.03 0.01,0.02 0.01,0.02 0.01,0.02 0.01,0.01 0.02,0.02 0.01,0.01 0.02,0.02 0.02,0.01 0.03,0.01 0.01,0.01 0.01,0 0.02,0.01 0.01,0 0.02,0.01 0.01,0 0.02,0.01 0.02,0 0.02,0 0.02,0.01 0.02,0 0.02,0 0.02,0.01 0.02,0 0.02,0 0.03,0 0.02,0.01 0.03,0 0.03,0 0.03,0 0.02,0 0.03,0 0.04,0 0.03,0.01 0.03,0 0.03,0 0.04,0 0.04,0 h 0.25 v 0.31 c -0.34,-0.04 -1.13,-0.04 -1.51,-0.04 -0.39,0 -1.17,0 -1.52,0.04 v -0.31 h 0.26 c 0.79,0 0.82,-0.11 0.82,-0.47 v -5.23 c 0,-0.36 -0.03,-0.47 -0.82,-0.47 h -0.26 v -0.31 c 0.35,0.03 1.13,0.03 1.51,0.03 0.39,0 1.18,0 1.52,-0.03 v 0.31 h -0.25 c -0.79,0 -0.82,0.11 -0.82,0.47 z"
   id="path4069" />
<path
   style="fill:#000000;stroke-width:0"
   d="m 412.49,701.9 h -6.07 l -0.19,-2.24 h 0.25 c 0.13,1.6 0.29,1.93 1.79,1.93 0.18,0 0.43,0 0.53,-0.02 0.21,-0.04 0.21,-0.15 0.21,-0.38 v -5.23 c 0,-0.34 0,-0.48 -1.04,-0.48 h -0.4 v -0.31 c 0.41,0.03 1.42,0.03 1.88,0.03 0.46,0 1.48,0 1.89,-0.03 v 0.31 h -0.4 c -1.04,0 -1.04,0.14 -1.04,0.48 v 5.23 c 0,0.2 0,0.34 0.18,0.38 0.11,0.02 0.38,0.02 0.56,0.02 1.51,0 1.66,-0.33 1.8,-1.93 h 0.24 z"
   id="path4071" />
<path
   style="fill:#000000;stroke-width:0"
   d="m 420.24,698.54 -0.01,0.19 -0.01,0.18 -0.02,0.19 -0.03,0.18 -0.04,0.17 -0.04,0.18 -0.06,0.17 -0.06,0.16 -0.06,0.16 -0.08,0.16 -0.08,0.15 -0.08,0.15 -0.1,0.14 -0.09,0.14 -0.11,0.13 -0.11,0.13 -0.12,0.12 -0.12,0.11 -0.12,0.11 -0.13,0.1 -0.14,0.09 -0.13,0.09 -0.15,0.08 -0.14,0.07 -0.15,0.06 -0.16,0.06 -0.15,0.05 -0.16,0.04 -0.17,0.03 -0.16,0.02 -0.17,0.02 -0.17,0 v -0.25 c 0.87,0 2.29,-0.7 2.29,-3.24 0,-2.64 -1.36,-3.47 -2.28,-3.47 h 0 c -0.95,0 -2.28,0.87 -2.28,3.47 0,2.57 1.45,3.24 2.27,3.24 v 0.25 c -1.78,0 -3.3,-1.59 -3.3,-3.63 0,-2.04 1.53,-3.59 3.3,-3.59 1.81,0 3.32,1.58 3.32,3.59 z"
   id="path4073" />
<path
   style="fill:#000000;stroke-width:0"
   d="m 375.31,689.03 0.02,0.03 0.01,0.03 0.02,0.04 0.01,0.03 0.02,0.03 0.02,0.03 0.02,0.03 0.02,0.03 0.02,0.03 0.02,0.03 0.03,0.03 0.02,0.03 0.03,0.02 0.02,0.03 0.03,0.02 0.04,0.02 0.03,0.03 0.03,0.02 0.04,0.02 0.04,0.01 0.03,0.02 0.05,0.02 0.04,0.01 0.04,0.02 0.05,0.01 0.05,0.01 0.05,0.01 0.05,0.01 0.06,0 0.06,0.01 0.06,0 0.06,0 V 690 c -0.31,-0.02 -0.71,-0.03 -0.97,-0.03 -0.29,0 -0.87,0.02 -1.13,0.03 v -0.31 c 0.52,-0.01 0.73,-0.27 0.73,-0.49 0,-0.08 -0.03,-0.14 -0.05,-0.2 l -1.82,-4.79 -1.9,5.01 c -0.06,0.14 -0.06,0.16 -0.06,0.18 0,0.29 0.56,0.29 0.81,0.29 V 690 c -0.36,-0.03 -1.04,-0.03 -1.42,-0.03 -0.48,0 -0.91,0.02 -1.26,0.03 v -0.31 c 0.64,0 0.83,0 0.97,-0.38 l 2.31,-6.09 c 0.07,-0.19 0.12,-0.22 0.25,-0.22 0.17,0 0.19,0.05 0.24,0.18 z"
   id="path4075" />
<path
   style="fill:#000000;stroke-width:0"
   d="m 379.46,690.13 0,0.01 -0.01,0.01 0,0.01 -0.01,0.01 0,0.02 0,0.01 -0.01,0.01 0,0 -0.01,0.01 0,0.01 -0.01,0.01 0,0.01 -0.01,0.01 0,0 -0.01,0.01 0,0.01 -0.01,0 0,0.01 -0.01,0 -0.01,0.01 -0.01,0 0,0.01 -0.01,0 -0.01,0.01 -0.01,0 -0.01,0 -0.01,0 -0.01,0 -0.02,0.01 -0.01,0 -0.01,0 -0.01,0 -0.01,0 c -0.16,0 -0.19,-0.06 -0.24,-0.2 l -2.06,-5.94 c -0.17,-0.51 -0.57,-0.66 -1.11,-0.67 v -0.3 c 0.23,0 0.66,0.02 1.01,0.02 0.31,0 0.83,-0.02 1.15,-0.02 v 0.3 c -0.5,0 -0.75,0.25 -0.75,0.51 0,0.03 0.01,0.13 0.02,0.15 l 0.46,1.3 0.11,0.31 1.11,3.23 1.13,-3.23 h -2.24 l -0.11,-0.31 h 2.46 l 0.53,-1.52 c 0.01,-0.04 0.03,-0.1 0.03,-0.14 0,-0.3 -0.56,-0.3 -0.83,-0.3 v -0.3 c 0.36,0.02 1.05,0.02 1.43,0.02 0.43,0 0.89,-0.01 1.31,-0.02 v 0.3 h -0.18 c -0.6,0 -0.74,0.07 -0.85,0.4 z"
   id="path4077" />
<path
   style="fill:#000000;stroke-width:0"
   d="m 387.3,686.59 0.09,0.03 0.09,0.02 0.09,0.03 0.08,0.03 0.09,0.03 0.08,0.03 0.08,0.04 0.08,0.04 0.08,0.04 0.07,0.04 0.08,0.04 0.07,0.05 0.07,0.04 0.06,0.05 0.06,0.05 0.06,0.05 0.06,0.05 0.06,0.06 0.05,0.05 0.05,0.06 0.04,0.06 0.04,0.06 0.04,0.06 0.04,0.07 0.03,0.06 0.03,0.07 0.02,0.06 0.02,0.07 0.01,0.07 0.01,0.07 0.01,0.07 0,0.07 c 0,0.95 -1.13,1.79 -2.59,1.79 h -3.13 v -0.31 h 0.24 c 0.77,0 0.79,-0.11 0.79,-0.47 v -5.23 c 0,-0.36 -0.02,-0.47 -0.79,-0.47 h -0.24 v -0.3 c 0.36,0.02 1.07,0.02 1.45,0.02 0.39,0 1.1,0 1.46,-0.02 v 0.3 h -0.24 c -0.77,0 -0.79,0.11 -0.79,0.47 v 2.51 0.22 2.57 c 0,0.23 0,0.35 0.22,0.38 0.1,0.02 0.39,0.02 0.59,0.02 0.89,0 2.01,-0.04 2.01,-1.48 0,-0.68 -0.24,-1.49 -1.71,-1.49 h -1.11 v -0.22 h 1.15 c 0.16,0 0.57,0 0.92,-0.34 0.38,-0.35 0.38,-0.66 0.38,-1.33 0,-0.64 0,-1.04 0.41,-1.42 0.41,-0.35 0.95,-0.41 1.25,-0.41 0.78,0 0.95,0.81 0.95,1.09 0,0.06 0,0.17 -0.13,0.17 -0.11,0 -0.11,-0.09 -0.12,-0.16 -0.06,-0.71 -0.41,-0.88 -0.66,-0.88 -0.49,0 -0.57,0.5 -0.71,1.43 l -0.12,0.79 c -0.18,0.64 -0.67,0.96 -1.22,1.15 z"
   id="path4079" />
<path
   style="fill:#000000;stroke-width:0"
   d="m 392.55,689.22 0,0.04 0,0.03 0,0.03 0,0.03 0,0.03 0,0.02 0.01,0.03 0,0.02 0.01,0.02 0.01,0.02 0.01,0.02 0.01,0.02 0.01,0.02 0.01,0.01 0.02,0.02 0.02,0.01 0.02,0.02 0.02,0.01 0.02,0 0.01,0.01 0.01,0 0.02,0.01 0.01,0 0.02,0.01 0.02,0 0.01,0.01 0.02,0 0.02,0 0.02,0.01 0.02,0 0.02,0 0.03,0 0.02,0.01 0.02,0 0.03,0 0.03,0 0.02,0.01 0.03,0 0.03,0 0.03,0 0.03,0 0.03,0 0.04,0 0.03,0 0.04,0 0.03,0 h 0.26 V 690 c -0.35,-0.03 -1.13,-0.03 -1.51,-0.03 -0.39,0 -1.18,0 -1.52,0.03 v -0.31 h 0.26 c 0.78,0 0.81,-0.11 0.81,-0.47 v -5.23 c 0,-0.36 -0.03,-0.47 -0.81,-0.47 h -0.26 v -0.3 c 0.34,0.02 1.13,0.02 1.51,0.02 0.39,0 1.17,0 1.52,-0.02 v 0.3 h -0.26 c -0.78,0 -0.81,0.11 -0.81,0.47 z"
   id="path4081" />
<path
   style="fill:#000000;stroke-width:0"
   d="m 397.86,690.13 0,0.01 0,0.01 -0.01,0.01 0,0.01 -0.01,0.02 0,0.01 -0.01,0.01 0,0 0,0.01 -0.01,0.01 0,0.01 -0.01,0.01 0,0.01 -0.01,0 0,0.01 -0.01,0.01 0,0 -0.01,0.01 -0.01,0 0,0.01 -0.01,0 -0.01,0.01 -0.01,0 -0.01,0.01 -0.01,0 -0.01,0 -0.01,0 -0.01,0 -0.01,0.01 -0.02,0 -0.01,0 -0.01,0 0,0 c -0.16,0 -0.19,-0.06 -0.24,-0.2 l -2.06,-5.94 c -0.18,-0.51 -0.58,-0.66 -1.12,-0.67 v -0.3 c 0.23,0 0.66,0.02 1.02,0.02 0.31,0 0.82,-0.02 1.14,-0.02 v 0.3 c -0.49,0 -0.74,0.25 -0.74,0.51 0,0.03 0.01,0.13 0.02,0.15 l 0.45,1.3 0.11,0.31 1.12,3.23 1.12,-3.23 h -2.24 l -0.11,-0.31 h 2.46 l 0.53,-1.52 c 0.01,-0.04 0.03,-0.1 0.03,-0.14 0,-0.3 -0.56,-0.3 -0.83,-0.3 v -0.3 c 0.36,0.02 1.06,0.02 1.43,0.02 0.43,0 0.89,-0.01 1.31,-0.02 v 0.3 h -0.18 c -0.6,0 -0.74,0.07 -0.85,0.4 z"
   id="path4083" />
<path
   style="fill:#000000;stroke-width:0"
   d="m 405.93,686.76 0.09,0.02 0.09,0.02 0.09,0.03 0.08,0.02 0.08,0.03 0.08,0.03 0.08,0.04 0.08,0.03 0.07,0.04 0.07,0.04 0.07,0.04 0.07,0.04 0.06,0.05 0.07,0.05 0.06,0.05 0.05,0.05 0.05,0.05 0.06,0.05 0.04,0.06 0.05,0.05 0.04,0.06 0.04,0.06 0.03,0.06 0.03,0.06 0.03,0.07 0.03,0.06 0.02,0.07 0.01,0.06 0.02,0.07 0.01,0.06 0,0.07 0,0.07 c 0,0.86 -0.91,1.68 -2.2,1.68 l -0.07,-0.31 c 0.96,0 1.31,-0.84 1.31,-1.37 0,-0.64 -0.49,-1.47 -1.59,-1.47 h -1.44 v -0.22 h 1.87 c 0.98,0 1.4,-0.92 1.4,-1.59 0,-0.7 -0.52,-1.52 -1.54,-1.52 h 0 -1.25 c -0.46,0 -0.48,0.07 -0.48,0.4 v 2.71 0.22 2.44 c 0,0.33 0.02,0.4 0.48,0.4 h 1.24 l 0.07,0.31 h -3.65 v -0.31 h 0.24 c 0.77,0 0.79,-0.11 0.79,-0.47 v -5.23 c 0,-0.36 -0.02,-0.47 -0.79,-0.47 h -0.24 v -0.3 h 3.91 c 1.32,0 2.21,0.88 2.21,1.81 0,0.87 -0.81,1.61 -1.92,1.73 z"
   id="path4085" />
<path
   style="fill:#000000;stroke-width:0"
   d="m 414.22,685.78 h -0.24 c -0.11,-1.01 -0.25,-2.26 -2,-2.26 h -0.82 c -0.47,0 -0.49,0.07 -0.49,0.4 v 5.3 c 0,0.33 0,0.47 0.95,0.47 h 0.33 V 690 c -0.36,-0.03 -1.27,-0.03 -1.68,-0.03 -0.38,0 -1.16,0 -1.51,0.03 v -0.31 H 409 c 0.77,0 0.79,-0.11 0.79,-0.47 v -5.23 c 0,-0.36 -0.02,-0.47 -0.79,-0.47 h -0.24 v -0.3 h 5.19 z"
   id="path4087" />
<path
   style="fill:#000000;stroke-width:0"
   d="m 416.01,683.99 0,-0.03 0,-0.03 0,-0.03 0,-0.03 0,-0.03 0,-0.03 -0.01,-0.02 0,-0.02 -0.01,-0.03 -0.01,-0.02 0,-0.02 -0.01,-0.02 -0.02,-0.01 -0.01,-0.02 -0.01,-0.01 -0.02,-0.02 -0.02,-0.01 -0.03,-0.01 -0.01,-0.01 -0.01,0 -0.01,-0.01 -0.02,0 -0.01,-0.01 -0.02,0 -0.01,-0.01 -0.02,0 -0.02,0 -0.02,-0.01 -0.02,0 -0.02,0 -0.02,-0.01 -0.02,0 -0.02,0 -0.03,0 -0.02,-0.01 -0.03,0 -0.02,0 -0.03,0 -0.03,0 -0.03,0 -0.03,0 -0.03,-0.01 -0.03,0 -0.03,0 -0.04,0 -0.03,0 h -0.24 v -0.3 h 5.74 l 0.42,2.56 h -0.25 c -0.25,-1.53 -0.48,-2.26 -2.19,-2.26 h -1.32 c -0.47,0 -0.49,0.07 -0.49,0.4 v 2.65 h 0.89 c 0.97,0 1.08,-0.31 1.08,-1.16 h 0.25 v 2.63 h -0.25 c 0,-0.85 -0.11,-1.16 -1.08,-1.16 h -0.89 v 2.39 c 0,0.32 0.02,0.39 0.49,0.39 h 1.28 c 1.52,0 1.79,-0.54 1.95,-1.93 h 0.25 l -0.28,2.24 h -5.6 v -0.31 h 0.24 c 0.76,0 0.78,-0.11 0.78,-0.46 z"
   id="path4089" />
<path
   style="fill:#000000;stroke-width:0"
   d="m 365.09,678.04 v -0.3 h 0.24 c 0.77,0 0.78,-0.11 0.78,-0.47 v -5.24 c 0,-0.35 -0.01,-0.46 -0.78,-0.46 h -0.24 v -0.31 h 3.64 l -0.27,0.31 h -1 c -0.47,0 -0.49,0.07 -0.49,0.4 v 5.37 c 0,0.33 0.02,0.4 0.49,0.4 h 0.99 c 0.62,0 1.31,-0.22 1.81,-0.93 0.43,-0.58 0.52,-1.44 0.52,-2.21 0,-1.11 -0.19,-1.7 -0.55,-2.19 -0.19,-0.27 -0.76,-0.84 -1.77,-0.84 l 0.27,-0.31 c 1.67,0 3.05,1.47 3.05,3.34 0,1.88 -1.35,3.44 -3.05,3.44 z"
   id="path4091" />
<path
   style="fill:#000000;stroke-width:0"
   d="m 373.7,672.03 0,-0.03 0,-0.03 0,-0.03 0,-0.03 0,-0.03 0,-0.02 -0.01,-0.03 0,-0.02 -0.01,-0.02 0,-0.02 -0.01,-0.02 -0.01,-0.02 -0.01,-0.02 -0.02,-0.01 -0.01,-0.02 -0.02,-0.01 -0.02,-0.02 -0.02,-0.01 -0.01,0 -0.02,-0.01 -0.01,0 -0.02,-0.01 -0.01,0 -0.02,-0.01 -0.01,0 -0.02,-0.01 -0.02,0 -0.02,0 -0.01,-0.01 -0.02,0 -0.03,0 -0.02,0 -0.02,-0.01 -0.02,0 -0.03,0 -0.02,0 -0.03,-0.01 -0.03,0 -0.03,0 -0.02,0 -0.03,0 -0.04,0 -0.03,0 -0.03,0 -0.04,0 -0.03,0 h -0.24 v -0.31 h 5.74 l 0.42,2.56 h -0.25 c -0.25,-1.53 -0.48,-2.25 -2.19,-2.25 h -1.32 c -0.47,0 -0.49,0.07 -0.49,0.4 v 2.65 h 0.9 c 0.96,0 1.07,-0.32 1.07,-1.16 h 0.25 v 2.63 h -0.25 c 0,-0.86 -0.11,-1.16 -1.07,-1.16 h -0.9 v 2.38 c 0,0.33 0.02,0.4 0.49,0.4 h 1.28 c 1.52,0 1.79,-0.55 1.95,-1.93 h 0.25 l -0.28,2.24 h -5.6 v -0.31 h 0.24 c 0.77,0 0.78,-0.11 0.78,-0.47 z"
   id="path4093" />
<path
   style="fill:#000000;stroke-width:0"
   d="m 388.24,673.82 h -0.25 c -0.11,-1.01 -0.25,-2.25 -2,-2.25 h -0.81 c -0.47,0 -0.49,0.07 -0.49,0.4 v 5.29 c 0,0.34 0,0.48 0.94,0.48 h 0.33 v 0.3 c -0.36,-0.02 -1.26,-0.02 -1.67,-0.02 -0.39,0 -1.16,0 -1.51,0.02 v -0.3 h 0.24 c 0.76,0 0.78,-0.11 0.78,-0.47 v -5.24 c 0,-0.35 -0.02,-0.46 -0.78,-0.46 h -0.24 v -0.31 h 5.18 z"
   id="path4095" />
<path
   style="fill:#000000;stroke-width:0"
   d="m 392.64,678.17 -0.01,0.02 0,0.01 -0.01,0.01 0,0.01 0,0.01 -0.01,0.01 0,0.01 -0.01,0.01 0,0.01 -0.01,0.01 0,0.01 -0.01,0 0,0.01 -0.01,0.01 0,0.01 -0.01,0 0,0.01 -0.01,0 -0.01,0.01 0,0 -0.01,0.01 -0.01,0 -0.01,0.01 -0.01,0 -0.01,0 -0.01,0.01 -0.01,0 -0.01,0 -0.01,0 -0.01,0 -0.02,0 0,0 -0.01,0 c -0.16,0 -0.19,-0.06 -0.24,-0.2 l -2.06,-5.94 c -0.18,-0.5 -0.58,-0.65 -1.12,-0.66 v -0.31 c 0.23,0.01 0.66,0.03 1.02,0.03 0.31,0 0.83,-0.02 1.14,-0.03 v 0.31 c -0.49,0 -0.74,0.25 -0.74,0.51 0,0.02 0.01,0.12 0.02,0.14 l 0.46,1.31 h 2.45 l -0.11,0.3 h -2.24 l 1.12,3.23 1.12,-3.23 0.11,-0.3 0.53,-1.52 c 0.01,-0.04 0.03,-0.1 0.03,-0.14 0,-0.3 -0.56,-0.3 -0.82,-0.3 v -0.31 c 0.35,0.03 1.05,0.03 1.43,0.03 0.42,0 0.88,-0.01 1.3,-0.03 v 0.31 h -0.18 c -0.59,0 -0.74,0.07 -0.84,0.4 z"
   id="path4097" />
<path
   style="fill:#000000;stroke-width:0"
   d="m 405.38,671.89 0.01,-0.03 0.01,-0.02 0.02,-0.02 0.02,-0.02 0.01,-0.03 0.02,-0.02 0.02,-0.03 0.03,-0.02 0.02,-0.03 0.02,-0.02 0.05,-0.06 0.04,-0.05 0.05,-0.04 0.03,-0.03 0.02,-0.02 0.02,-0.02 0.03,-0.02 0.02,-0.02 0.02,-0.02 0.02,-0.02 0.03,-0.01 0.02,-0.02 0.01,-0.01 0.02,-0.01 0.02,-0.01 0.02,-0.01 0.01,-0.01 0.01,0 0,0 0.01,0 0,0 c 0.09,0 0.09,0.08 0.09,0.23 v 1.73 c 0,0.38 0.04,0.43 0.69,0.43 v 0.31 c -0.37,-0.01 -0.92,-0.03 -1.21,-0.03 -0.4,0 -1.25,0 -1.61,0.03 v -0.31 h 0.32 c 0.9,0 0.93,-0.11 0.93,-0.47 v -0.64 c 0,-1.11 -1.27,-1.2 -1.55,-1.2 -0.64,0 -2.61,0.35 -2.61,3.31 0,2.97 1.96,3.3 2.55,3.3 1.07,0 1.97,-0.9 2.17,-2.36 0.02,-0.14 0.02,-0.17 0.16,-0.17 0.16,0 0.16,0.03 0.16,0.24 v 2.36 c 0,0.16 0,0.23 -0.11,0.23 -0.04,0 -0.08,0 -0.16,-0.12 l -0.49,-0.73 c -0.32,0.32 -0.86,0.85 -1.84,0.85 -1.86,0 -3.47,-1.57 -3.47,-3.6 0,-2.04 1.6,-3.62 3.49,-3.62 0.72,0 1.52,0.26 1.86,0.85 z"
   id="path4099" />
<path
   style="fill:#000000;stroke-width:0"
   d="m 413.08,673.55 0,-0.13 -0.01,-0.12 -0.01,-0.13 -0.02,-0.11 -0.02,-0.12 -0.03,-0.11 -0.03,-0.11 -0.04,-0.1 -0.04,-0.11 -0.05,-0.09 -0.05,-0.09 -0.05,-0.09 -0.06,-0.09 -0.06,-0.08 -0.06,-0.07 -0.07,-0.08 -0.06,-0.07 -0.08,-0.06 -0.07,-0.06 -0.08,-0.06 -0.07,-0.05 -0.08,-0.04 -0.09,-0.05 -0.08,-0.03 -0.08,-0.04 -0.09,-0.03 -0.09,-0.02 -0.08,-0.02 -0.09,-0.02 -0.09,-0.01 -0.09,-0.01 -0.09,0 c -0.46,0 -1.64,0.25 -1.64,2.13 v 3.79 c 0,0.36 0.02,0.47 0.79,0.47 h 0.24 v 0.3 c -0.35,-0.02 -1.09,-0.02 -1.46,-0.02 -0.38,0 -1.13,0 -1.48,0.02 v -0.3 h 0.24 c 0.77,0 0.79,-0.11 0.79,-0.47 v -3.74 c 0,-1.41 1.15,-2.49 2.5,-2.49 1.15,0 2.04,0.93 2.21,2.06 0.03,0.2 0.03,0.29 0.03,0.68 v 3.18 c 0,0.33 0,0.78 1.03,0.78 v 0.3 c -0.36,-0.01 -0.84,-0.02 -1.18,-0.02 -0.34,0 -0.82,0.01 -1.18,0.02 v -0.3 c 1.02,0 1.02,-0.47 1.02,-0.74 z"
   id="path4101" />
<path
   style="fill:#000000;stroke-width:0"
   d="m 417.8,680.06 0.02,0.01 0.02,0.01 0.01,0.02 0.02,0.02 0,0 0.01,0.01 0.01,0.01 0.01,0.01 0,0.01 0.01,0.01 0,0.01 0.01,0.01 0.01,0.01 0,0.01 0.01,0.01 0,0.01 0.01,0.01 0,0.01 0,0.01 0.01,0.01 0,0.01 0,0.01 0.01,0.01 0,0.01 0,0.01 0,0.01 0,0.01 0,0.01 c 0,0.18 -0.18,0.36 -0.36,0.36 -0.15,0 -0.26,-0.11 -0.3,-0.17 l -1.19,-1.52 0.17,-0.18 z"
   id="path4103" />
<path
   style="fill:#000000;stroke-width:0"
   d="m 417,677.27 0,0.03 0,0.03 0,0.03 0,0.03 0.01,0.03 0,0.03 0,0.02 0.01,0.02 0,0.03 0.01,0.02 0.01,0.02 0.01,0.02 0.01,0.01 0.02,0.02 0.02,0.01 0.01,0.02 0.03,0.01 0.02,0.01 0.01,0.01 0.01,0 0.02,0.01 0.01,0 0.02,0.01 0.01,0 0.02,0.01 0.02,0 0.02,0 0.02,0.01 0.02,0 0.02,0 0.02,0.01 0.02,0 0.03,0 0.02,0 0.03,0.01 0.02,0 0.03,0 0.03,0 0.03,0 0.03,0 0.03,0 0.03,0.01 0.03,0 0.04,0 0.03,0 0.04,0 h 0.26 v 0.3 c -0.35,-0.02 -1.14,-0.02 -1.52,-0.02 -0.38,0 -1.17,0 -1.52,0.02 v -0.3 h 0.26 c 0.79,0 0.82,-0.11 0.82,-0.47 v -5.24 c 0,-0.35 -0.03,-0.46 -0.82,-0.46 h -0.26 v -0.31 c 0.35,0.03 1.14,0.03 1.51,0.03 0.39,0 1.18,0 1.53,-0.03 v 0.31 h -0.26 c -0.79,0 -0.82,0.11 -0.82,0.46 z"
   id="path4105" />
<path
   style="fill:#000000;stroke-width:0"
   d="m 422.32,678.17 0,0.02 -0.01,0.01 0,0.01 -0.01,0.01 0,0.01 -0.01,0.01 0,0.01 0,0.01 -0.01,0.01 0,0.01 -0.01,0.01 0,0 -0.01,0.01 0,0.01 -0.01,0.01 0,0 -0.01,0.01 -0.01,0 0,0.01 -0.01,0 -0.01,0.01 0,0 -0.01,0.01 -0.01,0 -0.01,0 -0.01,0.01 -0.01,0 -0.02,0 -0.01,0 -0.01,0 -0.01,0 -0.01,0 -0.01,0 c -0.16,0 -0.19,-0.06 -0.24,-0.2 l -2.06,-5.94 c -0.18,-0.5 -0.57,-0.65 -1.11,-0.66 v -0.31 c 0.23,0.01 0.65,0.03 1.01,0.03 0.31,0 0.83,-0.02 1.15,-0.03 v 0.31 c -0.5,0 -0.75,0.25 -0.75,0.51 0,0.02 0.01,0.12 0.02,0.14 l 0.46,1.31 0.11,0.3 1.11,3.23 1.13,-3.23 h -2.24 l -0.11,-0.3 h 2.46 l 0.52,-1.52 c 0.01,-0.04 0.03,-0.1 0.03,-0.14 0,-0.3 -0.55,-0.3 -0.82,-0.3 v -0.31 c 0.36,0.03 1.05,0.03 1.43,0.03 0.43,0 0.89,-0.01 1.3,-0.03 v 0.31 h -0.17 c -0.6,0 -0.74,0.07 -0.85,0.4 z"
   id="path4107" />
<path
   style="fill:#000000;stroke-width:0"
   d="m 371.77,666.09 v -0.31 h 0.24 c 0.76,0 0.78,-0.11 0.78,-0.47 v -5.23 c 0,-0.36 -0.02,-0.47 -0.78,-0.47 h -0.24 v -0.31 h 3.64 l -0.27,0.31 h -1 c -0.47,0 -0.49,0.07 -0.49,0.4 v 5.37 c 0,0.33 0.02,0.4 0.49,0.4 h 0.99 c 0.62,0 1.3,-0.22 1.81,-0.92 0.43,-0.59 0.52,-1.44 0.52,-2.22 0,-1.1 -0.19,-1.7 -0.55,-2.18 -0.2,-0.27 -0.77,-0.85 -1.77,-0.85 l 0.27,-0.31 c 1.67,0 3.04,1.47 3.04,3.34 0,1.89 -1.34,3.45 -3.04,3.45 z"
   id="path4109" />
<path
   style="fill:#000000;stroke-width:0"
   d="m 380.38,660.08 0,-0.03 0,-0.04 0,-0.03 0,-0.02 0,-0.03 0,-0.03 -0.01,-0.02 0,-0.03 -0.01,-0.02 -0.01,-0.02 0,-0.02 -0.01,-0.02 -0.02,-0.01 -0.01,-0.02 -0.02,-0.01 -0.01,-0.02 -0.02,-0.01 -0.03,-0.01 -0.01,-0.01 -0.01,0 -0.01,-0.01 -0.02,0 -0.01,-0.01 -0.02,0 -0.01,-0.01 -0.02,0 -0.02,-0.01 -0.02,0 -0.02,0 -0.02,-0.01 -0.02,0 -0.02,0 -0.02,0 -0.03,-0.01 -0.02,0 -0.03,0 -0.02,0 -0.03,0 -0.03,0 -0.03,-0.01 -0.03,0 -0.03,0 -0.03,0 -0.03,0 -0.04,0 -0.03,0 h -0.24 v -0.31 h 5.74 l 0.42,2.57 h -0.25 c -0.25,-1.53 -0.48,-2.26 -2.19,-2.26 h -1.32 c -0.47,0 -0.49,0.07 -0.49,0.4 v 2.65 h 0.89 c 0.97,0 1.08,-0.32 1.08,-1.16 h 0.25 v 2.63 h -0.25 c 0,-0.85 -0.11,-1.16 -1.08,-1.16 h -0.89 v 2.38 c 0,0.33 0.02,0.4 0.49,0.4 h 1.28 c 1.52,0 1.79,-0.54 1.95,-1.93 h 0.25 l -0.28,2.24 h -5.6 v -0.31 h 0.24 c 0.76,0 0.78,-0.11 0.78,-0.47 z"
   id="path4111" />
<path
   style="fill:#000000;stroke-width:0"
   d="m 396.3,662.67 0,0.19 -0.02,0.19 -0.02,0.18 -0.03,0.18 -0.03,0.18 -0.05,0.17 -0.05,0.17 -0.06,0.16 -0.07,0.17 -0.07,0.15 -0.08,0.16 -0.09,0.14 -0.09,0.14 -0.1,0.14 -0.11,0.13 -0.11,0.13 -0.11,0.12 -0.12,0.11 -0.13,0.11 -0.13,0.1 -0.13,0.1 -0.14,0.08 -0.14,0.08 -0.15,0.07 -0.15,0.07 -0.15,0.06 -0.16,0.04 -0.16,0.04 -0.16,0.04 -0.17,0.02 -0.16,0.01 -0.17,0.01 v -0.25 c 0.86,0 2.29,-0.71 2.29,-3.25 0,-2.63 -1.37,-3.47 -2.28,-3.47 h 0 c -0.96,0 -2.29,0.88 -2.29,3.47 0,2.57 1.45,3.25 2.28,3.25 v 0.25 c -1.78,0 -3.31,-1.59 -3.31,-3.64 0,-2.03 1.54,-3.58 3.31,-3.58 1.81,0 3.31,1.57 3.31,3.58 z"
   id="path4113" />
<path
   style="fill:#000000;stroke-width:0"
   d="m 399.18,665.96 0,0.01 -0.01,0.01 -0.01,0.01 -0.01,0.01 0,0.01 -0.01,0.01 -0.01,0 0,0.01 -0.01,0.01 0,0 -0.01,0.01 -0.01,0 0,0.01 -0.01,0 -0.01,0.01 0,0 -0.01,0 -0.01,0 0,0.01 -0.01,0 -0.01,0 -0.01,0 -0.01,0 -0.01,0.01 -0.01,0 -0.01,0 -0.02,0 -0.01,0 -0.02,0 0,0 -0.01,0 -0.01,0 -0.01,0 -0.01,0 0,0 h -1.7 v -0.31 h 0.29 c 0.15,0 0.35,-0.01 0.5,-0.02 0.23,-0.03 0.24,-0.04 0.24,-0.23 v -5.18 c 0,-0.27 0,-0.74 -1.03,-0.74 v -0.31 c 0.35,0.01 0.84,0.03 1.17,0.03 0.33,0 0.81,-0.02 1.16,-0.03 v 0.31 c -1.02,0 -1.02,0.47 -1.02,0.74 v 5.16 c 0.05,-0.05 0.06,-0.06 0.1,-0.12 l 4.06,-5.96 c 0.09,-0.12 0.1,-0.13 0.17,-0.13 0.14,0 0.14,0.07 0.14,0.26 v 5.49 c 0,0.26 0,0.73 1.02,0.73 v 0.31 c -0.35,-0.01 -0.84,-0.03 -1.16,-0.03 -0.33,0 -0.82,0.02 -1.17,0.03 v -0.31 c 1.03,0 1.03,-0.47 1.03,-0.73 v -4.25 z"
   id="path4115" />
<path
   style="fill:#000000;stroke-width:0"
   d="m 404.7,666.09 v -0.31 h 0.23 c 0.77,0 0.79,-0.11 0.79,-0.47 v -5.23 c 0,-0.36 -0.02,-0.47 -0.79,-0.47 h -0.23 v -0.31 h 3.64 l -0.27,0.31 h -1.01 c -0.46,0 -0.48,0.07 -0.48,0.4 v 5.37 c 0,0.33 0.02,0.4 0.48,0.4 h 1 c 0.62,0 1.3,-0.22 1.81,-0.92 0.43,-0.59 0.52,-1.44 0.52,-2.22 0,-1.1 -0.19,-1.7 -0.55,-2.18 -0.2,-0.27 -0.77,-0.85 -1.77,-0.85 l 0.27,-0.31 c 1.67,0 3.04,1.47 3.04,3.34 0,1.89 -1.34,3.45 -3.04,3.45 z"
   id="path4117" />
<path
   style="fill:#000000;stroke-width:0"
   d="m 415.64,666.22 0,0.01 -0.01,0.01 0,0.01 -0.01,0.01 0,0.01 -0.01,0.01 0,0.01 0,0.01 -0.01,0.01 0,0.01 -0.01,0.01 0,0.01 -0.01,0.01 0,0 -0.01,0.01 0,0.01 -0.01,0 -0.01,0.01 0,0 -0.01,0.01 -0.01,0 -0.01,0.01 0,0 -0.01,0 -0.01,0.01 -0.01,0 -0.01,0 -0.02,0 -0.01,0.01 -0.01,0 -0.01,0 -0.01,0 -0.01,0 c -0.16,0 -0.19,-0.06 -0.24,-0.2 l -2.06,-5.94 c -0.18,-0.51 -0.57,-0.66 -1.11,-0.67 v -0.31 c 0.23,0.01 0.65,0.03 1.01,0.03 0.31,0 0.83,-0.02 1.15,-0.03 v 0.31 c -0.5,0 -0.75,0.25 -0.75,0.51 0,0.03 0.01,0.13 0.02,0.15 l 0.46,1.3 0.11,0.31 1.11,3.22 1.13,-3.22 H 414 l -0.11,-0.31 h 2.46 l 0.52,-1.52 c 0.01,-0.04 0.03,-0.1 0.03,-0.14 0,-0.3 -0.55,-0.3 -0.82,-0.3 v -0.31 c 0.35,0.03 1.05,0.03 1.43,0.03 0.43,0 0.88,-0.01 1.3,-0.03 v 0.31 h -0.18 c -0.59,0 -0.73,0.07 -0.84,0.4 z"
   id="path4119" />
</g>    </g>
  </g>
</svg>
