<?xml version="1.0" encoding="UTF-8" standalone="no"?>
<svg xmlns:svg="http://www.w3.org/2000/svg" xmlns="http://www.w3.org/2000/svg" xmlns:xlink="http://www.w3.org/1999/xlink" version="1.1" width="139" height="160">
	<rect width="139" height="160" x="0" y="0" id="background_rect" style="fill:#000000" />

	<circle cx="14" cy="16" r="13" id="main_circle" style="fill:#ffffff" />
	<use xlink:href="#main_circle" transform="translate(0,128)" />
	<use xlink:href="#main_circle" transform="translate(0,32)" />
	<use xlink:href="#main_circle" transform="translate(0,64)" />
	<use xlink:href="#main_circle" transform="translate(0,96)" />
	<use xlink:href="#main_circle" transform="translate(111,0)" />
	<use xlink:href="#main_circle" transform="translate(111,128)" />
	<use xlink:href="#main_circle" transform="translate(111,32)" />
	<use xlink:href="#main_circle" transform="translate(111,64)" />
	<use xlink:href="#main_circle" transform="translate(111,96)" />
	<use xlink:href="#main_circle" transform="translate(28,112)" />
	<use xlink:href="#main_circle" transform="translate(28,144)" />
	<use xlink:href="#main_circle" transform="translate(28,-16)" />
	<use xlink:href="#main_circle" transform="translate(28,16)" />
	<use xlink:href="#main_circle" transform="translate(28,48)" />
	<use xlink:href="#main_circle" transform="translate(28,80)" />
	<use xlink:href="#main_circle" transform="translate(56,0)" />
	<use xlink:href="#main_circle" transform="translate(56,128)" />
	<use xlink:href="#main_circle" transform="translate(56,32)" />
	<use xlink:href="#main_circle" transform="translate(56,64)" />
	<use xlink:href="#main_circle" transform="translate(56,96)" />
	<use xlink:href="#main_circle" transform="translate(84,112)" />
	<use xlink:href="#main_circle" transform="translate(84,144)" />
	<use xlink:href="#main_circle" transform="translate(84,-16)" />
	<use xlink:href="#main_circle" transform="translate(84,16)" />
	<use xlink:href="#main_circle" transform="translate(84,48)" />
	<use xlink:href="#main_circle" transform="translate(84,80)" />
</svg>
