<?xml version="1.0" encoding="UTF-8" standalone="no"?>
<!-- Created with Inkscape (http://www.inkscape.org/) -->

<svg
   xmlns:ns0="http://www.iki.fi/pav/software/textext/"
   xmlns:dc="http://purl.org/dc/elements/1.1/"
   xmlns:cc="http://creativecommons.org/ns#"
   xmlns:rdf="http://www.w3.org/1999/02/22-rdf-syntax-ns#"
   xmlns:svg="http://www.w3.org/2000/svg"
   xmlns="http://www.w3.org/2000/svg"
   xmlns:sodipodi="http://sodipodi.sourceforge.net/DTD/sodipodi-0.dtd"
   xmlns:inkscape="http://www.inkscape.org/namespaces/inkscape"
   width="329.74451"
   height="144.48149"
   id="svg2"
   version="1.1"
   inkscape:version="0.47 r22583"
   sodipodi:docname="estudio_18.svg">
  <sodipodi:namedview
     id="base"
     pagecolor="#ffffff"
     bordercolor="#666666"
     borderopacity="1.0"
     inkscape:pageopacity="0.0"
     inkscape:pageshadow="2"
     inkscape:zoom="1.4"
     inkscape:cx="320.46039"
     inkscape:cy="73.998232"
     inkscape:document-units="px"
     inkscape:current-layer="layer1"
     showgrid="false"
     inkscape:window-width="1366"
     inkscape:window-height="705"
     inkscape:window-x="-8"
     inkscape:window-y="-8"
     inkscape:window-maximized="1"
     inkscape:object-paths="false"
     inkscape:object-nodes="true"
     inkscape:snap-smooth-nodes="false"
     inkscape:snap-nodes="true" />
  <defs
     id="defs4">
    <marker
       style="overflow:visible"
       id="Arrow2Mend"
       refX="0"
       refY="0"
       orient="auto"
       inkscape:stockid="Arrow2Mend">
      <path
         transform="scale(-0.6,-0.6)"
         d="M 8.7185878,4.0337352 -2.2072895,0.01601326 8.7185884,-4.0017078 c -1.7454984,2.3720609 -1.7354408,5.6174519 -6e-7,8.035443 z"
         style="font-size:12px;fill-rule:evenodd;stroke-width:0.625;stroke-linejoin:round"
         id="path4159" />
    </marker>
    <marker
       style="overflow:visible"
       id="Arrow2Mstart"
       refX="0"
       refY="0"
       orient="auto"
       inkscape:stockid="Arrow2Mstart">
      <path
         transform="scale(0.6,0.6)"
         d="M 8.7185878,4.0337352 -2.2072895,0.01601326 8.7185884,-4.0017078 c -1.7454984,2.3720609 -1.7354408,5.6174519 -6e-7,8.035443 z"
         style="font-size:12px;fill-rule:evenodd;stroke-width:0.625;stroke-linejoin:round"
         id="path4156" />
    </marker>
    <inkscape:perspective
       id="perspective10"
       inkscape:persp3d-origin="372.04724 : 350.78739 : 1"
       inkscape:vp_z="744.09448 : 526.18109 : 1"
       inkscape:vp_y="0 : 1000 : 0"
       inkscape:vp_x="0 : 526.18109 : 1"
       sodipodi:type="inkscape:persp3d" />
    <inkscape:perspective
       sodipodi:type="inkscape:persp3d"
       inkscape:vp_x="0 : 0.5 : 1"
       inkscape:vp_y="0 : 1000 : 0"
       inkscape:vp_z="1 : 0.5 : 1"
       inkscape:persp3d-origin="0.5 : 0.33333333 : 1"
       id="perspective2824" />
    <inkscape:perspective
       sodipodi:type="inkscape:persp3d"
       inkscape:vp_x="0 : 0.5 : 1"
       inkscape:vp_y="0 : 1000 : 0"
       inkscape:vp_z="1 : 0.5 : 1"
       inkscape:persp3d-origin="0.5 : 0.33333333 : 1"
       id="perspective7747" />
    <inkscape:perspective
       sodipodi:type="inkscape:persp3d"
       inkscape:vp_x="0 : 0.5 : 1"
       inkscape:vp_y="0 : 1000 : 0"
       inkscape:vp_z="1 : 0.5 : 1"
       inkscape:persp3d-origin="0.5 : 0.33333333 : 1"
       id="perspective8355" />
  </defs>
  <metadata
     id="metadata7">
    <rdf:RDF>
      <cc:Work
         rdf:about="">
        <dc:format>image/svg+xml</dc:format>
        <dc:type
           rdf:resource="http://purl.org/dc/dcmitype/StillImage" />
        <dc:title />
      </cc:Work>
    </rdf:RDF>
  </metadata>
  <g
     transform="translate(11.44328,-334.49031)"
     id="layer1"
     inkscape:groupmode="layer"
     inkscape:label="Capa 1">
    <g
       id="g5938">
      <path
         style="fill:none;stroke:#000000;stroke-width:2;stroke-linecap:butt;stroke-linejoin:round;stroke-miterlimit:4;stroke-opacity:1;stroke-dasharray:none"
         d="m 197.60572,413.55931 -172.229999,0 0,37.82 172.229999,0"
         id="path3676"
         sodipodi:nodetypes="cccc" />
      <path
         style="fill:none;stroke:#000000;stroke-width:2;stroke-linecap:butt;stroke-linejoin:round;stroke-miterlimit:4;stroke-opacity:1;stroke-dasharray:none;stroke-dashoffset:0"
         d="m 25.375721,413.55931 70.460124,-29.34 90.648205,0"
         id="path3678"
         sodipodi:nodetypes="ccc" />
      <path
         style="fill:none;stroke:#000000;stroke-width:2;stroke-linecap:round;stroke-linejoin:round;stroke-miterlimit:4;stroke-opacity:1;stroke-dasharray:none;stroke-dashoffset:0"
         d="m 197.60572,451.37931 70.46,-28.34 0,-38.82 -81.58167,0"
         id="path3680"
         sodipodi:nodetypes="cccc" />
      <path
         style="fill:none;stroke:#000000;stroke-width:2;stroke-linecap:butt;stroke-linejoin:miter;stroke-miterlimit:4;stroke-opacity:1;stroke-dasharray:none;stroke-dashoffset:0"
         d="m 197.60572,413.55931 70.46,-29.34"
         id="path3682"
         sodipodi:nodetypes="cc" />
      <path
         id="path7027"
         d="m -2.039609,414.75931 0,35.42"
         style="fill:none;stroke:#000000;stroke-width:0.78100002;stroke-linecap:butt;stroke-linejoin:miter;stroke-miterlimit:4;stroke-opacity:1;stroke-dasharray:none;marker-start:url(#Arrow2Mstart);marker-end:url(#Arrow2Mend)"
         sodipodi:nodetypes="cc" />
      <g
         style="font-style:normal;font-variant:normal;font-weight:normal;font-stretch:normal;letter-spacing:normal;word-spacing:normal;text-anchor:start;fill:none;stroke:#000000;stroke-linecap:butt;stroke-linejoin:miter;stroke-miterlimit:10.43299961;stroke-opacity:1;stroke-dasharray:none;stroke-dashoffset:0"
         id="g7806"
         transform="matrix(1.35,0,0,-1.35,-313.70828,1391.6665)"
         xml:space="preserve"
         stroke-miterlimit="10.433"
         font-style="normal"
         font-variant="normal"
         font-weight="normal"
         font-stretch="normal"
         font-size-adjust="none"
         letter-spacing="normal"
         word-spacing="normal"
         ns0:text="$b$"
         ns0:preamble="">
<path
   style="fill:#000000;stroke-width:0"
   d="m 225.81,713.91 0,0 0,0 0,0 0,0 0,0.01 0,0 0,0 0,0.01 0,0 0,0.01 0,0 -0.01,0 0,0.01 0,0 0,0.01 0,0 -0.01,0.01 0,0 0,0.01 -0.01,0 0,0.01 0,0 -0.01,0 0,0 0,0.01 -0.01,0 0,0 0,0 0,0 -0.01,0.01 0,0 -0.01,0 0,0 0,0 -0.01,0 0,0 -0.01,0 0,0.01 -0.01,0 0,0 -0.01,0 0,0 -0.01,0 0,0 -0.01,0 c -0.23,0 -0.95,-0.08 -1.21,-0.1 -0.08,-0.01 -0.19,-0.02 -0.19,-0.2 0,-0.12 0.09,-0.12 0.24,-0.12 0.47,0 0.49,-0.07 0.49,-0.17 0,-0.07 -0.09,-0.4 -0.13,-0.61 l -0.82,-3.24 c -0.12,-0.5 -0.16,-0.66 -0.16,-1 0,-0.95 0.53,-1.56 1.26,-1.56 v 0.21 c -0.34,0 -0.66,0.27 -0.66,1.01 0,0.19 0,0.37 0.16,1 l 0.22,0.92 c 0.05,0.21 0.05,0.23 0.14,0.34 0.49,0.65 0.94,0.8 1.2,0.8 0.36,0 0.63,-0.3 0.63,-0.94 0,-0.58 -0.33,-1.72 -0.51,-2.1 -0.33,-0.67 -0.79,-1.03 -1.18,-1.03 v -0.21 c 1.18,0 2.4,1.48 2.4,2.91 0,0.9 -0.53,1.59 -1.32,1.59 -0.46,0 -0.87,-0.29 -1.17,-0.6 z"
   id="path7808" />
</g>      <path
         style="fill:none;stroke:#000000;stroke-width:1;stroke-linecap:butt;stroke-linejoin:miter;stroke-miterlimit:4;stroke-opacity:1;stroke-dasharray:none;marker-start:url(#Arrow2Mstart);marker-end:url(#Arrow2Mend)"
         d="m 232.83535,352.71931 0,65.07995 71.05037,0"
         id="path4127"
         sodipodi:nodetypes="ccc" />
      <path
         style="stroke-width:1;stroke-linejoin:round;stroke-miterlimit:4;stroke-dashoffset:0"
         d="m 235.33535,417.79926 c 0,1.38071 -1.11929,2.5 -2.5,2.5 -1.38071,0 -2.5,-1.11929 -2.5,-2.5 0,-1.38071 1.11929,-2.5 2.5,-2.5 1.38071,0 2.5,1.11929 2.5,2.5 z"
         id="path5143" />
      <g
         transform="translate(-27.11463,1.1925511)"
         id="g4171">
        <path
           id="path8098"
           d="m 332.00335,386.79275 0,-0.027 0.0135,-0.0405 0.0135,-0.0405 0.0135,-0.054 0.0135,-0.054 0.0135,-0.054 0.0135,-0.054 0.027,-0.0675 0.0135,-0.054 0.027,-0.0675 0.027,-0.0675 0.027,-0.0675 0.027,-0.0675 0.0405,-0.0675 0.027,-0.0675 0.0405,-0.0675 0.0405,-0.0675 0.0405,-0.054 0.0405,-0.0675 0.054,-0.054 0.054,-0.0675 0.054,-0.054 0.054,-0.054 0.054,-0.0405 0.0675,-0.0405 0.0675,-0.0405 0.027,-0.0135 0.0405,-0.027 0.027,-0.0135 0.0405,-0.0135 0.0405,-0.0135 0.0405,0 0.0405,-0.0135 0.027,-0.0135 0.054,0 0.0405,0 0.0405,-0.0135 0.0405,0 c 0.0675,0 0.3915,0 0.675,0.1755 -0.378,0.0675 -0.648,0.405 -0.648,0.729 0,0.216 0.1485,0.4725 0.513,0.4725 0.297,0 0.729,-0.243 0.729,-0.783 0,-0.702 -0.7965,-0.891 -1.2555,-0.891 -0.783,0 -1.2555,0.7155 -1.404,1.026 -0.3375,-0.891 -1.0665,-1.026 -1.458,-1.026 -1.3905,0 -2.16,1.7415 -2.16,2.0655 0,0.135 0.135,0.135 0.162,0.135 0.108,0 0.1485,-0.027 0.1755,-0.1485 0.459,-1.4175 1.3365,-1.755 1.7955,-1.755 0.2565,0 0.729,0.1215 0.729,0.9045 0,0.4185 -0.2295,1.3095 -0.729,3.186 -0.216,0.837 -0.6885,1.404 -1.269,1.404 -0.081,0 -0.3915,0 -0.675,-0.1755 0.3375,-0.0675 0.6345,-0.351 0.6345,-0.729 0,-0.3645 -0.297,-0.4725 -0.4995,-0.4725 -0.405,0 -0.7425,0.351 -0.7425,0.783 0,0.621 0.675,0.8775 1.269,0.8775 0.8775,0 1.3635,-0.9315 1.404,-1.0125 0.162,0.4995 0.648,1.0125 1.4445,1.0125 1.3905,0 2.16,-1.728 2.16,-2.0655 0,-0.135 -0.1215,-0.135 -0.162,-0.135 -0.1215,0 -0.1485,0.0675 -0.1755,0.1485 -0.4455,1.4445 -1.3635,1.7685 -1.7955,1.7685 -0.513,0 -0.729,-0.432 -0.729,-0.891 0,-0.297 0.081,-0.594 0.2295,-1.1745 z"
           style="font-style:normal;font-variant:normal;font-weight:normal;font-stretch:normal;letter-spacing:normal;word-spacing:normal;text-anchor:start;fill:#000000;stroke:#000000;stroke-width:0;stroke-linecap:butt;stroke-linejoin:miter;stroke-miterlimit:10.43299961;stroke-opacity:1;stroke-dasharray:none;stroke-dashoffset:0" />
        <path
           id="path8100"
           d="m 337.92985,381.54125 0,-0.0135 0.0135,-0.0135 0,-0.0135 0,-0.0135 0.0135,-0.0135 0,-0.0135 0.0135,-0.0135 0,-0.0135 0,-0.0135 0,-0.0135 0.0135,0 0,-0.0135 0,-0.0135 0,-0.0135 0.0135,0 0,-0.0135 0,-0.0135 0,0 0,-0.0135 0,0 0,-0.0135 0,-0.0135 0.0135,0 0,-0.0135 0,-0.0135 0,-0.0135 0,-0.0135 0,0 c 0,-0.297 -0.27,-0.5265 -0.5535,-0.5265 -0.3645,0 -0.4725,0.297 -0.5265,0.4455 l -1.242,4.0635 c 0,0.0135 -0.0405,0.1485 -0.0405,0.1485 0,0.1215 0.297,0.2025 0.3645,0.2025 0.0675,0 0.081,-0.0135 0.1485,-0.1485 z"
           style="font-style:normal;font-variant:normal;font-weight:normal;font-stretch:normal;letter-spacing:normal;word-spacing:normal;text-anchor:start;fill:#000000;stroke:#000000;stroke-width:0;stroke-linecap:butt;stroke-linejoin:miter;stroke-miterlimit:10.43299961;stroke-opacity:1;stroke-dasharray:none;stroke-dashoffset:0" />
      </g>
      <g
         transform="translate(0,70.000065)"
         id="g4175">
        <path
           style="font-style:normal;font-variant:normal;font-weight:normal;font-stretch:normal;letter-spacing:normal;word-spacing:normal;text-anchor:start;fill:#000000;stroke:#000000;stroke-width:0;stroke-linecap:butt;stroke-linejoin:miter;stroke-miterlimit:10.43299961;stroke-opacity:1;stroke-dasharray:none;stroke-dashoffset:0"
           d="m 235.84785,269.51225 0,-0.0135 0,0 0,-0.0135 0,0 0.0135,-0.027 0,-0.0135 0,-0.0135 0.0135,-0.0135 0,-0.0135 0,0 0,-0.0135 0,-0.0135 0.0135,-0.0135 0,-0.0135 0,0 0,-0.0135 0,0 0,-0.0135 0,-0.0135 0,0 0,-0.0135 0,0 0.0135,-0.0135 0,-0.0135 0,-0.0135 0,-0.0135 0,-0.0135 0,-0.0135 0,0 0,-0.0135 c 0,-0.243 -0.189,-0.3645 -0.3915,-0.3645 -0.135,0 -0.351,0.081 -0.4725,0.2835 -0.027,0.0675 -0.135,0.486 -0.189,0.729 -0.0945,0.351 -0.189,0.702 -0.27,1.0665 l -0.6075,2.4165 c -0.0405,0.2025 -0.621,1.1475 -1.512,1.1475 -0.6885,0 -0.837,-0.594 -0.837,-1.0935 0,-0.621 0.2295,-1.4445 0.6885,-2.6325 0.216,-0.54 0.27,-0.6885 0.27,-0.9585 0,-0.6075 -0.432,-1.107 -1.107,-1.107 -1.269,0 -1.7685,1.944 -1.7685,2.0655 0,0.135 0.135,0.135 0.162,0.135 0.135,0 0.1485,-0.027 0.216,-0.243 0.3645,-1.2555 0.9045,-1.6605 1.35,-1.6605 0.108,0 0.3375,0 0.3375,0.432 0,0.3375 -0.135,0.6885 -0.2295,0.945 -0.5265,1.4175 -0.7695,2.187 -0.7695,2.808 0,1.2015 0.837,1.593 1.6335,1.593 0.5265,0 0.9855,-0.216 1.3635,-0.594 -0.1755,0.6885 -0.3375,1.35 -0.8775,2.0655 -0.351,0.459 -0.864,0.837 -1.485,0.837 -0.1755,0 -0.783,-0.0405 -1.0125,-0.5535 0.216,0 0.3915,0 0.5805,-0.162 0.135,-0.1215 0.2565,-0.297 0.2565,-0.5535 0,-0.4185 -0.351,-0.4725 -0.486,-0.4725 -0.3105,0 -0.756,0.216 -0.756,0.8775 0,0.6615 0.594,1.161 1.4175,1.161 1.3905,0 2.7675,-1.215 3.1455,-2.727 z"
           id="path8197" />
        <path
           style="font-style:normal;font-variant:normal;font-weight:normal;font-stretch:normal;letter-spacing:normal;word-spacing:normal;text-anchor:start;fill:#000000;stroke:#000000;stroke-width:0;stroke-linecap:butt;stroke-linejoin:miter;stroke-miterlimit:10.43299961;stroke-opacity:1;stroke-dasharray:none;stroke-dashoffset:0"
           d="m 239.11485,265.31375 0.0135,-0.0135 0,-0.0135 0.0135,-0.0135 0,-0.0135 0.0135,-0.0135 0,-0.0135 0,-0.0135 0.0135,-0.0135 0,-0.0135 0,-0.0135 0.0135,0 0,-0.0135 0,-0.0135 0,-0.0135 0,0 0.0135,-0.0135 0,-0.0135 0,0 0,-0.0135 0,0 0,-0.0135 0,-0.0135 0,0 0,-0.0135 0,-0.0135 0.0135,-0.0135 0,-0.0135 0,0 c 0,-0.297 -0.27,-0.5265 -0.5535,-0.5265 -0.3645,0 -0.4725,0.297 -0.5265,0.4455 l -1.242,4.0635 c 0,0.0135 -0.0405,0.1485 -0.0405,0.1485 0,0.1215 0.2835,0.2025 0.3645,0.2025 0.0675,0 0.081,-0.0135 0.135,-0.1485 z"
           id="path8199" />
      </g>
      <path
         style="font-style:normal;font-variant:normal;font-weight:normal;font-stretch:normal;letter-spacing:normal;word-spacing:normal;text-anchor:start;fill:#000000;stroke:#000000;stroke-width:0;stroke-linecap:butt;stroke-linejoin:miter;stroke-miterlimit:10.43299961;stroke-opacity:1;stroke-dasharray:none;stroke-dashoffset:0"
         d="m 310.43072,419.55375 0.054,-0.0675 0.0675,-0.0675 0.0675,-0.0675 0.0675,-0.0675 0.054,-0.0675 0.054,-0.054 0.0675,-0.054 0.054,-0.0675 0.054,-0.054 0.054,-0.054 0.0405,-0.0405 0.054,-0.054 0.054,-0.054 0.0405,-0.0405 0.0945,-0.0945 0.0945,-0.081 0.0945,-0.081 0.081,-0.081 0.0945,-0.081 0.1755,-0.1485 0.081,-0.0675 0.0945,-0.081 c 0,-0.0135 0.837,-0.729 1.3095,-1.215 1.2825,-1.242 1.5795,-1.89 1.5795,-1.944 0,-0.135 -0.1215,-0.135 -0.1485,-0.135 -0.0945,0 -0.135,0.027 -0.2025,0.1485 -0.405,0.648 -0.6885,0.864 -1.0125,0.864 -0.3105,0 -0.486,-0.2025 -0.675,-0.432 -0.2565,-0.3105 -0.486,-0.5805 -0.9315,-0.5805 -1.0125,0 -1.62,1.2555 -1.62,1.539 0,0.0675 0.0405,0.1485 0.1485,0.1485 0.1215,0 0.1485,-0.0675 0.1755,-0.1485 0.2565,-0.621 1.0395,-0.6345 1.1475,-0.6345 0.2835,0 0.54,0.0945 0.8505,0.2025 0.5265,0.2025 0.675,0.2025 1.026,0.2025 -0.486,0.567 -1.6065,1.539 -1.863,1.755 l -1.215,1.1205 c -0.9045,0.9045 -1.377,1.674 -1.377,1.7685 0,0.1215 0.135,0.1215 0.162,0.1215 0.108,0 0.135,-0.027 0.216,-0.1755 0.3105,-0.459 0.7155,-0.8235 1.134,-0.8235 0.3105,0 0.4455,0.1215 0.783,0.513 0.2295,0.2835 0.4725,0.486 0.864,0.486 1.323,0 2.106,-1.701 2.106,-2.0655 0,-0.054 -0.054,-0.135 -0.162,-0.135 -0.1215,0 -0.1485,0.081 -0.189,0.1755 -0.3105,0.8775 -1.161,1.134 -1.6065,1.134 -0.27,0 -0.513,-0.081 -0.7965,-0.1755 -0.459,-0.1755 -0.6615,-0.2295 -0.945,-0.2295 -0.027,0 -0.2295,0 -0.351,0.0405 z"
         id="path8296" />
      <path
         style="font-style:normal;font-variant:normal;font-weight:normal;font-stretch:normal;letter-spacing:normal;word-spacing:normal;text-anchor:start;fill:#000000;stroke:#000000;stroke-width:0;stroke-linecap:butt;stroke-linejoin:miter;stroke-miterlimit:10.43299961;stroke-opacity:1;stroke-dasharray:none;stroke-dashoffset:0"
         d="m 318.20672,411.35925 0.0135,-0.0135 0,-0.0135 0.0135,-0.0135 0,-0.0135 0.0135,-0.0135 0,-0.0135 0,-0.0135 0.0135,-0.0135 0,-0.0135 0,-0.0135 0,0 0.0135,-0.0135 0,-0.0135 0,-0.0135 0,0 0,-0.0135 0.0135,-0.0135 0,0 0,-0.0135 0,0 0,-0.0135 0,-0.0135 0,0 0,-0.0135 0,-0.0135 0,-0.0135 0,-0.0135 0.0135,0 c 0,-0.297 -0.27,-0.5265 -0.567,-0.5265 -0.351,0 -0.459,0.297 -0.513,0.4455 l -1.242,4.0635 c 0,0.0135 -0.0405,0.1485 -0.0405,0.1485 0,0.1215 0.2835,0.2025 0.3645,0.2025 0.0675,0 0.0675,-0.0135 0.135,-0.1485 z"
         id="path8298" />
      <path
         id="path8371"
         d="m -2.039609,413.55931 c -9e-4,0 27.41533,0 27.41533,0"
         style="fill:none;stroke:#000000;stroke-width:0.35433072;stroke-linecap:butt;stroke-linejoin:miter;stroke-miterlimit:4;stroke-opacity:1;stroke-dasharray:none;stroke-dashoffset:0;marker-end:none"
         sodipodi:nodetypes="cc" />
      <path
         sodipodi:nodetypes="cc"
         style="fill:none;stroke:#000000;stroke-width:0.35433072;stroke-linecap:butt;stroke-linejoin:miter;stroke-miterlimit:4;stroke-opacity:1;stroke-dasharray:none;stroke-dashoffset:0;marker-end:none"
         d="m -2.039609,451.37931 c -9e-4,0 27.41533,0 27.41533,0"
         id="path8373" />
      <g
         style="font-style:normal;font-variant:normal;font-weight:normal;font-stretch:normal;letter-spacing:normal;word-spacing:normal;text-anchor:start;fill:none;stroke:#000000;stroke-linecap:butt;stroke-linejoin:miter;stroke-miterlimit:10.43299961;stroke-opacity:1;stroke-dasharray:none;stroke-dashoffset:0"
         id="g7951"
         transform="matrix(1.35,0,0,-1.35,-72.3813,1413.3703)"
         xml:space="preserve"
         stroke-miterlimit="10.433"
         font-style="normal"
         font-variant="normal"
         font-weight="normal"
         font-stretch="normal"
         font-size-adjust="none"
         letter-spacing="normal"
         word-spacing="normal"
         ns0:text="$a$"
         ns0:preamble="">
<path
   style="fill:#000000;stroke-width:0"
   d="m 227.14,710.88 -0.01,0.03 -0.02,0.04 -0.02,0.03 -0.02,0.03 -0.02,0.03 -0.02,0.03 -0.02,0.03 -0.02,0.03 -0.03,0.03 -0.02,0.03 -0.02,0.03 -0.03,0.02 -0.02,0.03 -0.03,0.02 -0.03,0.02 -0.02,0.03 -0.03,0.02 -0.03,0.02 -0.03,0.01 -0.03,0.02 -0.04,0.02 -0.03,0.01 -0.03,0.02 -0.04,0.01 -0.03,0.01 -0.04,0.01 -0.03,0.01 -0.04,0 -0.04,0.01 -0.04,0 -0.04,0.01 -0.04,0 c -1.17,0 -2.4,-1.47 -2.4,-2.92 0,-0.93 0.55,-1.58 1.32,-1.58 l 0.02,0.21 c -0.49,0 -0.63,0.55 -0.63,0.94 0,0.49 0.31,1.72 0.54,2.17 0.31,0.59 0.76,0.96 1.16,0.96 0.64,0 0.78,-0.82 0.78,-0.88 0,-0.06 -0.02,-0.12 -0.03,-0.17 l -0.49,-1.94 c -0.05,-0.18 -0.05,-0.2 -0.2,-0.37 -0.44,-0.55 -0.85,-0.71 -1.13,-0.71 l -0.02,-0.21 c 0.2,0 0.7,0.03 1.3,0.74 0.08,-0.42 0.42,-0.74 0.9,-0.74 0.35,0 0.58,0.22 0.74,0.54 0.17,0.36 0.3,0.97 0.3,0.99 0,0.1 -0.09,0.1 -0.12,0.1 -0.1,0 -0.11,-0.05 -0.14,-0.18 -0.17,-0.65 -0.35,-1.24 -0.76,-1.24 -0.27,0 -0.3,0.26 -0.3,0.46 0,0.22 0.02,0.3 0.13,0.74 0.11,0.41 0.13,0.51 0.22,0.89 l 0.36,1.39 c 0.07,0.28 0.07,0.3 0.07,0.34 0,0.17 -0.12,0.27 -0.29,0.27 -0.24,0 -0.39,-0.22 -0.42,-0.44 z"
   id="path7953" />
</g>      <path
         id="path8379"
         d="m 197.60572,451.37931 c 0,-9e-4 0,27.41533 0,27.41533"
         style="fill:none;stroke:#000000;stroke-width:0.35433072;stroke-linecap:butt;stroke-linejoin:miter;stroke-miterlimit:4;stroke-opacity:1;stroke-dasharray:none;stroke-dashoffset:0;marker-end:none"
         sodipodi:nodetypes="cc" />
      <path
         sodipodi:nodetypes="cc"
         style="fill:none;stroke:#000000;stroke-width:0.35433072;stroke-linecap:butt;stroke-linejoin:miter;stroke-miterlimit:4;stroke-opacity:1;stroke-dasharray:none;stroke-dashoffset:0;marker-end:none"
         d="m 268.07947,422.04131 c 0,-9e-4 0,27.416 0,27.416"
         id="path8381" />
      <path
         style="fill:none;stroke:#000000;stroke-width:0.78100002;stroke-linecap:butt;stroke-linejoin:round;stroke-miterlimit:4;stroke-opacity:1;stroke-dasharray:none;stroke-dashoffset:0;marker-start:url(#Arrow2Mstart);marker-end:url(#Arrow2Mend)"
         d="m 198.68723,478.44699 68.36041,-28.70368"
         id="path8943"
         sodipodi:nodetypes="cc" />
      <path
         sodipodi:nodetypes="cc"
         id="path3964"
         d="m 197.60572,451.37931 0,-37.82"
         style="fill:none;stroke:#000000;stroke-width:2;stroke-linecap:butt;stroke-linejoin:round;stroke-miterlimit:4;stroke-opacity:1;stroke-dasharray:none" />
      <path
         sodipodi:nodetypes="cc"
         id="path3966"
         d="m 268.06572,423.03931 -70.46,0"
         style="fill:none;stroke:#000000;stroke-width:2;stroke-linecap:butt;stroke-linejoin:round;stroke-miterlimit:4;stroke-opacity:1;stroke-dasharray:none" />
      <path
         sodipodi:nodetypes="cc"
         id="path3974"
         d="M 232.83535,417.79926 294.92597,391.9443"
         style="fill:none;stroke:#000000;stroke-width:1;stroke-linecap:butt;stroke-linejoin:miter;stroke-miterlimit:4;stroke-opacity:1;stroke-dasharray:none;stroke-dashoffset:0;marker-end:url(#Arrow2Mend)" />
    </g>
  </g>
</svg>
