<?xml version="1.0" encoding="UTF-8" standalone="no"?>
<!-- Created with Inkscape (http://www.inkscape.org/) -->

<svg
   xmlns:ns0="http://www.iki.fi/pav/software/textext/"
   xmlns:dc="http://purl.org/dc/elements/1.1/"
   xmlns:cc="http://creativecommons.org/ns#"
   xmlns:rdf="http://www.w3.org/1999/02/22-rdf-syntax-ns#"
   xmlns:svg="http://www.w3.org/2000/svg"
   xmlns="http://www.w3.org/2000/svg"
   xmlns:sodipodi="http://sodipodi.sourceforge.net/DTD/sodipodi-0.dtd"
   xmlns:inkscape="http://www.inkscape.org/namespaces/inkscape"
   id="svg2816"
   version="1.1"
   inkscape:version="0.47 r22583"
   width="341.8429"
   height="332.11951"
   xml:space="preserve"
   sodipodi:docname="estudio_1.svg"><sodipodi:namedview
     pagecolor="#ffffff"
     bordercolor="#666666"
     borderopacity="1"
     objecttolerance="10"
     gridtolerance="10"
     guidetolerance="10"
     inkscape:pageopacity="0"
     inkscape:pageshadow="2"
     inkscape:window-width="1366"
     inkscape:window-height="708"
     id="namedview2818"
     showgrid="false"
     inkscape:zoom="1.48934"
     inkscape:cx="65.221009"
     inkscape:cy="162.40382"
     inkscape:window-x="-4"
     inkscape:window-y="-4"
     inkscape:window-maximized="1"
     inkscape:current-layer="g2826" /><metadata
     id="metadata2822"><rdf:RDF><cc:Work
         rdf:about=""><dc:format>image/svg+xml</dc:format><dc:type
           rdf:resource="http://purl.org/dc/dcmitype/StillImage" /><dc:title /></cc:Work></rdf:RDF></metadata><defs
     id="defs2820"><inkscape:perspective
   sodipodi:type="inkscape:persp3d"
   inkscape:vp_x="0 : 0.5 : 1"
   inkscape:vp_y="0 : 1000 : 0"
   inkscape:vp_z="1 : 0.5 : 1"
   inkscape:persp3d-origin="0.5 : 0.33333333 : 1"
   id="perspective2824" /><clipPath
   clipPathUnits="userSpaceOnUse"
   id="clipPath2834"><path
     d="m 0,1722.5 5950,0 0,4967.5 -5950,0 0,-4967.5 z"
     id="path2836" /></clipPath><clipPath
   clipPathUnits="userSpaceOnUse"
   id="clipPath2844"><path
     d="m 599.168,6317.5 5134.162,0 0,-4049.17 -5134.162,0 0,4049.17 z"
     id="path2846" /></clipPath><clipPath
   clipPathUnits="userSpaceOnUse"
   id="clipPath2854"><path
     d="m 0,1722 0,4968 5950,0 0,-4968 -5950,0 z"
     id="path2856" /></clipPath><clipPath
   clipPathUnits="userSpaceOnUse"
   id="clipPath2868"><path
     d="m 599.168,6317.5 5134.162,0 0,-4049.17 -5134.162,0 0,4049.17 z"
     id="path2870" /></clipPath><clipPath
   clipPathUnits="userSpaceOnUse"
   id="clipPath2878"><path
     d="m 0,1722 0,4968 5950,0 0,-4968 -5950,0 z"
     id="path2880" /></clipPath><clipPath
   clipPathUnits="userSpaceOnUse"
   id="clipPath2892"><path
     d="m 599.168,6317.5 5134.162,0 0,-4049.17 -5134.162,0 0,4049.17 z"
     id="path2894" /></clipPath><clipPath
   clipPathUnits="userSpaceOnUse"
   id="clipPath2902"><path
     d="m 0,1722 0,4968 5950,0 0,-4968 -5950,0 z"
     id="path2904" /></clipPath><clipPath
   clipPathUnits="userSpaceOnUse"
   id="clipPath2916"><path
     d="m 599.168,6317.5 5134.162,0 0,-4049.17 -5134.162,0 0,4049.17 z"
     id="path2918" /></clipPath><clipPath
   clipPathUnits="userSpaceOnUse"
   id="clipPath2926"><path
     d="m 0,1722 0,4968 5950,0 0,-4968 -5950,0 z"
     id="path2928" /></clipPath><clipPath
   clipPathUnits="userSpaceOnUse"
   id="clipPath2940"><path
     d="m 599.168,6317.5 5134.162,0 0,-4049.17 -5134.162,0 0,4049.17 z"
     id="path2942" /></clipPath><clipPath
   clipPathUnits="userSpaceOnUse"
   id="clipPath3108"><path
     d="m 0,1722 0,4968 5950,0 0,-4968 -5950,0 z"
     id="path3110" /></clipPath><clipPath
   clipPathUnits="userSpaceOnUse"
   id="clipPath3144"><path
     d="m 599.168,6317.5 5134.162,0 0,-4049.17 -5134.162,0 0,4049.17 z"
     id="path3146" /></clipPath><inkscape:perspective
   id="perspective6147"
   inkscape:persp3d-origin="0.5 : 0.33333333 : 1"
   inkscape:vp_z="1 : 0.5 : 1"
   inkscape:vp_y="0 : 1000 : 0"
   inkscape:vp_x="0 : 0.5 : 1"
   sodipodi:type="inkscape:persp3d" /><inkscape:perspective
   id="perspective6232"
   inkscape:persp3d-origin="0.5 : 0.33333333 : 1"
   inkscape:vp_z="1 : 0.5 : 1"
   inkscape:vp_y="0 : 1000 : 0"
   inkscape:vp_x="0 : 0.5 : 1"
   sodipodi:type="inkscape:persp3d" /><inkscape:perspective
   sodipodi:type="inkscape:persp3d"
   inkscape:vp_x="0 : 0.5 : 1"
   inkscape:vp_y="0 : 1000 : 0"
   inkscape:vp_z="1 : 0.5 : 1"
   inkscape:persp3d-origin="0.5 : 0.33333333 : 1"
   id="perspective5302" /><inkscape:perspective
   sodipodi:type="inkscape:persp3d"
   inkscape:vp_x="0 : 0.5 : 1"
   inkscape:vp_y="0 : 1000 : 0"
   inkscape:vp_z="1 : 0.5 : 1"
   inkscape:persp3d-origin="0.5 : 0.33333333 : 1"
   id="perspective5336" /><inkscape:perspective
   sodipodi:type="inkscape:persp3d"
   inkscape:vp_x="0 : 0.5 : 1"
   inkscape:vp_y="0 : 1000 : 0"
   inkscape:vp_z="1 : 0.5 : 1"
   inkscape:persp3d-origin="0.5 : 0.33333333 : 1"
   id="perspective5407" /><inkscape:perspective
   sodipodi:type="inkscape:persp3d"
   inkscape:vp_x="0 : 0.5 : 1"
   inkscape:vp_y="0 : 1000 : 0"
   inkscape:vp_z="1 : 0.5 : 1"
   inkscape:persp3d-origin="0.5 : 0.33333333 : 1"
   id="perspective5489" /><inkscape:perspective
   sodipodi:type="inkscape:persp3d"
   inkscape:vp_x="0 : 0.5 : 1"
   inkscape:vp_y="0 : 1000 : 0"
   inkscape:vp_z="1 : 0.5 : 1"
   inkscape:persp3d-origin="0.5 : 0.33333333 : 1"
   id="perspective12467" /><inkscape:perspective
   sodipodi:type="inkscape:persp3d"
   inkscape:vp_x="0 : 0.5 : 1"
   inkscape:vp_y="0 : 1000 : 0"
   inkscape:vp_z="1 : 0.5 : 1"
   inkscape:persp3d-origin="0.5 : 0.33333333 : 1"
   id="perspective12498" /><inkscape:perspective
   sodipodi:type="inkscape:persp3d"
   inkscape:vp_x="0 : 0.5 : 1"
   inkscape:vp_y="0 : 1000 : 0"
   inkscape:vp_z="1 : 0.5 : 1"
   inkscape:persp3d-origin="0.5 : 0.33333333 : 1"
   id="perspective12529" /><inkscape:perspective
   sodipodi:type="inkscape:persp3d"
   inkscape:vp_x="0 : 0.5 : 1"
   inkscape:vp_y="0 : 1000 : 0"
   inkscape:vp_z="1 : 0.5 : 1"
   inkscape:persp3d-origin="0.5 : 0.33333333 : 1"
   id="perspective12557" /><inkscape:perspective
   sodipodi:type="inkscape:persp3d"
   inkscape:vp_x="0 : 0.5 : 1"
   inkscape:vp_y="0 : 1000 : 0"
   inkscape:vp_z="1 : 0.5 : 1"
   inkscape:persp3d-origin="0.5 : 0.33333333 : 1"
   id="perspective12585" />

























<inkscape:perspective
   id="perspective8220"
   inkscape:persp3d-origin="0.5 : 0.33333333 : 1"
   inkscape:vp_z="1 : 0.5 : 1"
   inkscape:vp_y="0 : 1000 : 0"
   inkscape:vp_x="0 : 0.5 : 1"
   sodipodi:type="inkscape:persp3d" /><inkscape:perspective
   id="perspective5830"
   inkscape:persp3d-origin="0.5 : 0.33333333 : 1"
   inkscape:vp_z="1 : 0.5 : 1"
   inkscape:vp_y="0 : 1000 : 0"
   inkscape:vp_x="0 : 0.5 : 1"
   sodipodi:type="inkscape:persp3d" /><inkscape:perspective
   id="perspective6120"
   inkscape:persp3d-origin="0.5 : 0.33333333 : 1"
   inkscape:vp_z="1 : 0.5 : 1"
   inkscape:vp_y="0 : 1000 : 0"
   inkscape:vp_x="0 : 0.5 : 1"
   sodipodi:type="inkscape:persp3d" /><inkscape:perspective
   id="perspective6413"
   inkscape:persp3d-origin="0.5 : 0.33333333 : 1"
   inkscape:vp_z="1 : 0.5 : 1"
   inkscape:vp_y="0 : 1000 : 0"
   inkscape:vp_x="0 : 0.5 : 1"
   sodipodi:type="inkscape:persp3d" /><inkscape:perspective
   id="perspective6706"
   inkscape:persp3d-origin="0.5 : 0.33333333 : 1"
   inkscape:vp_z="1 : 0.5 : 1"
   inkscape:vp_y="0 : 1000 : 0"
   inkscape:vp_x="0 : 0.5 : 1"
   sodipodi:type="inkscape:persp3d" /><inkscape:perspective
   id="perspective6993"
   inkscape:persp3d-origin="0.5 : 0.33333333 : 1"
   inkscape:vp_z="1 : 0.5 : 1"
   inkscape:vp_y="0 : 1000 : 0"
   inkscape:vp_x="0 : 0.5 : 1"
   sodipodi:type="inkscape:persp3d" /><inkscape:perspective
   id="perspective7274"
   inkscape:persp3d-origin="0.5 : 0.33333333 : 1"
   inkscape:vp_z="1 : 0.5 : 1"
   inkscape:vp_y="0 : 1000 : 0"
   inkscape:vp_x="0 : 0.5 : 1"
   sodipodi:type="inkscape:persp3d" /><inkscape:perspective
   id="perspective7555"
   inkscape:persp3d-origin="0.5 : 0.33333333 : 1"
   inkscape:vp_z="1 : 0.5 : 1"
   inkscape:vp_y="0 : 1000 : 0"
   inkscape:vp_x="0 : 0.5 : 1"
   sodipodi:type="inkscape:persp3d" /><inkscape:perspective
   id="perspective7836"
   inkscape:persp3d-origin="0.5 : 0.33333333 : 1"
   inkscape:vp_z="1 : 0.5 : 1"
   inkscape:vp_y="0 : 1000 : 0"
   inkscape:vp_x="0 : 0.5 : 1"
   sodipodi:type="inkscape:persp3d" /><inkscape:perspective
   id="perspective8117"
   inkscape:persp3d-origin="0.5 : 0.33333333 : 1"
   inkscape:vp_z="1 : 0.5 : 1"
   inkscape:vp_y="0 : 1000 : 0"
   inkscape:vp_x="0 : 0.5 : 1"
   sodipodi:type="inkscape:persp3d" /></defs><g
     id="g2826"
     inkscape:groupmode="layer"
     inkscape:label="ink_ext_XXXXXX"
     transform="matrix(1.25,0,0,-1.25,-221.59886,702.53477)">

































<g
   id="g8187"><g
     transform="matrix(0.058,0,0,0.058,132.9782,180.25875)"
     id="g2830"><g
       id="g2832"
       clip-path="url(#clipPath2834)" /></g><g
     transform="matrix(0.058,0,0,0.058,132.9782,180.25875)"
     id="g2840"><g
       id="g2842"
       clip-path="url(#clipPath2844)"><path
         d="m 3671.67,4293.33 0,16.67 -0.84,15.83 -0.83,15.84 -2.5,15.83 -1.67,15 -3.33,15.83 -2.5,15.84 -4.17,15.83 -4.16,15 -4.17,15 -5.83,15 -5,15 -6.67,15 -6.67,14.17 -6.66,14.16 -7.5,14.17 -7.5,14.17 -8.34,13.33 -9.16,13.33 -9.17,12.5 -9.17,13.34 -10,12.5 -10,11.66 -10.83,11.67 -11.67,11.67 -10.83,10.83 -11.67,10.83 -12.5,10 -12.5,10 -12.5,10 -13.33,9.17 -13.33,8.33 -13.34,8.34 -13.33,8.33 -14.17,7.5 -14.16,6.67 -15,6.66 -14.17,5.84 -15,5.83 -15,5 -15.83,5 -15,4.17 -15.84,3.33 -15,3.33 -15.83,2.5 -15.83,2.5 -15.84,1.67 -15.83,1.67 -15.83,0 -15.84,0.83 -15.83,-0.83 -15.83,0 -15.84,-1.67 -15.83,-1.67 -15.83,-2.5 -15.84,-2.5 -15,-3.33 -15.83,-3.33 -15,-4.17 -15.83,-5 -15,-5 -15,-5.83 -14.17,-5.84 -15,-6.66 -14.17,-6.67 -14.16,-7.5 -13.34,-8.33 -13.33,-8.34 -13.33,-8.33 -13.34,-9.17 -12.5,-10 -12.5,-10 -12.5,-10 -11.66,-10.83 -10.84,-10.83 -11.66,-11.67 -10.84,-11.67 -10,-11.66 -10,-12.5 -9.16,-13.34 -9.17,-12.5 -9.17,-13.33 -8.33,-13.33 -7.5,-14.17 -7.5,-14.17 -6.67,-14.16 -6.66,-14.17 -6.67,-15 -5,-15 -5.83,-15 -4.17,-15 -4.17,-15 -4.16,-15.83 -2.5,-15.84 -3.34,-15.83 -1.66,-15 -2.5,-15.83 -0.84,-15.84 -0.83,-15.83 0,-32.5 0.83,-15.83 0.84,-15.84 2.5,-15.83 1.66,-15 3.34,-15.83 2.5,-15.84 4.16,-15.83 4.17,-15 4.17,-15 5.83,-15 5,-15 6.67,-15 6.66,-14.17 6.67,-14.16 7.5,-14.17 7.5,-14.17 8.33,-13.33 9.17,-13.33 9.17,-12.5 9.16,-13.34 10,-12.5 10,-11.66 10.84,-11.67 11.66,-11.67 10.84,-10.83 11.66,-10.83 12.5,-10 12.5,-10 12.5,-10 13.34,-9.17 13.33,-8.33 13.33,-8.34 13.34,-8.33 14.16,-7.5 14.17,-6.67 15,-6.66 14.17,-5.84 15,-5.83 15,-5 15.83,-5 15,-4.17 15.83,-3.33 15,-3.33 15.84,-2.5 15.83,-2.5 15.83,-1.67 15.84,-1.67 15.83,0 15.83,-0.83 15.84,0.83 15.83,0 15.83,1.67 15.84,1.67 15.83,2.5 15.83,2.5 15,3.33 15.84,3.33 15,4.17 15.83,5 15,5 15,5.83 14.17,5.84 15,6.66 14.16,6.67 14.17,7.5 13.33,8.33 13.34,8.34 13.33,8.33 13.33,9.17 12.5,10 12.5,10 12.5,10 11.67,10.83 10.83,10.83 11.67,11.67 10.83,11.67 10,11.66 10,12.5 9.17,13.34 9.17,12.5 9.16,13.33 8.34,13.33 7.5,14.17 7.5,14.17 6.66,14.16 6.67,14.17 6.67,15 5,15 5.83,15 4.17,15 4.16,15 4.17,15.83 2.5,15.84 3.33,15.83 1.67,15 2.5,15.83 0.83,15.84 0.84,15.83 0,15.83"
         style="fill:none;stroke:#000000;stroke-width:7.3309803;stroke-linecap:butt;stroke-linejoin:round;stroke-miterlimit:10;stroke-opacity:1;stroke-dasharray:21.99294055, 21.99294055;stroke-dashoffset:0"
         id="path2848" /></g></g><g
     transform="matrix(0.058,0,0,0.058,132.9782,180.25875)"
     id="g2864"><g
       id="g2866"
       clip-path="url(#clipPath2868)"><path
         d="m 4178.33,4293.33 -0.83,32.5 -1.67,31.67 -2.5,31.67 -3.33,31.66 -4.17,30.84 -5.83,31.66 -6.67,30.84 -7.5,31.66 -8.33,30 -9.17,30.84 -10,30 -11.66,30 -11.67,29.16 -13.33,29.17 -14.17,28.33 -15,28.34 -15.83,27.5 -16.67,26.66 -17.5,26.67 -17.5,25.83 -19.17,25.84 -20,25 -20.83,24.16 -21.67,23.34 -21.66,22.5 -23.34,22.5 -23.33,21.66 -24.17,20 -25,20 -25,19.17 -25.83,18.33 -26.67,17.5 -27.5,16.67 -27.5,15.83 -28.33,15 -28.33,13.34 -29.17,13.33 -29.17,12.5 -30,10.83 -30,10.84 -30,9.16 -30.83,8.34 -30.83,7.5 -30.84,5.83 -31.66,5.83 -31.67,4.17 -31.67,4.17 -31.66,2.5 -31.67,0.83 -31.67,0.83 -31.66,-0.83 -31.67,-0.83 -31.67,-2.5 -31.66,-4.17 -31.67,-4.17 -31.67,-5.83 -30.83,-5.83 -30.83,-7.5 -30.84,-8.34 -30,-9.16 -30,-10.84 -30,-10.83 -29.16,-12.5 -29.17,-13.33 -28.33,-13.34 -28.34,-15 -27.5,-15.83 -27.5,-16.67 -26.66,-17.5 -25.84,-18.33 -25,-19.17 -25,-20 -24.16,-20 -23.34,-21.66 -23.33,-22.5 -21.67,-22.5 -21.66,-23.34 -20.84,-24.16 -20,-25 -19.16,-25.84 -17.5,-25.83 -17.5,-26.67 -16.67,-26.66 -15.83,-27.5 -15,-28.34 -14.17,-28.33 -13.33,-29.17 -11.67,-29.16 -11.67,-30 -10,-30 -9.16,-30.84 -8.34,-30 -7.5,-31.66 -6.66,-30.84 -5.84,-31.66 -4.16,-30.84 -3.34,-31.66 -2.5,-31.67 -1.66,-31.67 0,-64.16 1.66,-31.67 2.5,-31.67 3.34,-31.66 4.16,-30.84 5.84,-31.66 6.66,-30.84 7.5,-31.66 8.34,-30 9.16,-30.84 10,-30 11.67,-30 11.67,-29.16 13.33,-29.17 14.17,-28.33 15,-28.34 15.83,-27.5 16.67,-26.66 17.5,-26.67 17.5,-25.83 19.16,-25.84 20,-25 20.84,-24.16 21.66,-23.34 21.67,-22.5 23.33,-22.5 23.34,-21.66 24.16,-20 25,-20 25,-19.17 25.84,-18.33 26.66,-17.5 27.5,-16.67 27.5,-15.83 28.34,-15 28.33,-13.34 29.17,-13.33 29.16,-12.5 30,-10.83 30,-10.84 30,-9.16 30.84,-8.34 30.83,-7.5 30.83,-5.83 31.67,-5.83 31.67,-4.17 31.66,-4.17 31.67,-2.5 31.67,-0.83 31.66,-0.83 31.67,0.83 31.67,0.83 31.66,2.5 31.67,4.17 31.67,4.17 31.66,5.83 30.84,5.83 30.83,7.5 30.83,8.34 30,9.16 30,10.84 30,10.83 29.17,12.5 29.17,13.33 28.33,13.34 28.33,15 27.5,15.83 27.5,16.67 26.67,17.5 25.83,18.33 25,19.17 25,20 24.17,20 23.33,21.66 23.34,22.5 21.66,22.5 21.67,23.34 20.83,24.16 20,25 19.17,25.84 17.5,25.83 17.5,26.67 16.67,26.66 15.83,27.5 15,28.34 14.17,28.33 13.33,29.17 11.67,29.16 11.66,30 10,30 9.17,30.84 8.33,30 7.5,31.66 6.67,30.84 5.83,31.66 4.17,30.84 3.33,31.66 2.5,31.67 1.67,31.67 0.83,31.66"
         style="fill:none;stroke:#000000;stroke-width:7.3309803;stroke-linecap:butt;stroke-linejoin:round;stroke-miterlimit:10;stroke-opacity:1;stroke-dasharray:21.99294055, 21.99294055;stroke-dashoffset:0"
         id="path2872" /></g></g><g
     transform="matrix(0.058,0,0,0.058,132.9782,180.25875)"
     id="g2888"
     style="stroke:#ff0000;stroke-width:0.99310344;stroke-miterlimit:4;stroke-opacity:1;stroke-dasharray:none"><g
       id="g2890"
       clip-path="url(#clipPath2892)"
       style="stroke:#ff0000;stroke-width:0.99310344;stroke-miterlimit:4;stroke-opacity:1;stroke-dasharray:none"><path
         d="m 4684.17,4293.33 -0.84,48.34 -2.5,47.5 -3.33,47.5 -5.83,47.5 -6.67,46.66 -8.33,47.5 -9.17,46.67 -10.83,46.67 -13.34,45.83 -13.33,45 -15.83,45.83 -16.67,44.17 -18.33,44.17 -20,43.33 -20.84,43.33 -22.5,41.67 -23.33,41.67 -25,40.83 -25.83,39.17 -27.5,39.16 -29.17,38.34 -29.17,37.5 -30.83,35.83 -32.5,35.83 -33.33,34.17 -34.17,32.5 -35,32.5 -36.67,30.83 -36.66,30 -38.34,28.34 -39.16,27.5 -40,26.66 -40.84,25 -40.83,23.34 -42.5,22.5 -42.5,20.83 -43.33,19.17 -44.17,18.33 -45,17.5 -45,15 -45.83,14.17 -45.84,12.5 -46.66,10.83 -46.67,10 -46.67,8.33 -47.5,6.67 -47.5,5 -47.5,4.17 -47.5,1.66 -47.5,0.84 -47.5,-0.84 -47.5,-1.66 -47.5,-4.17 -47.5,-5 -47.5,-6.67 -46.66,-8.33 -46.67,-10 -46.67,-10.83 -45.83,-12.5 -45.83,-14.17 -45,-15 -45,-17.5 -44.17,-18.33 -43.33,-19.17 -42.5,-20.83 -42.5,-22.5 -40.84,-23.34 -40.83,-25 -40,-26.66 -39.17,-27.5 -38.33,-28.34 -36.67,-30 -36.66,-30.83 -35,-32.5 -34.17,-32.5 -33.33,-34.17 -32.5,-35.83 -30.84,-35.83 -29.16,-37.5 -29.17,-38.34 -27.5,-39.16 -25.83,-39.17 -25,-40.83 -23.34,-41.67 -22.5,-41.67 -20.83,-43.33 -20,-43.33 -18.33,-44.17 -16.67,-44.17 -15.83,-45.83 -13.34,-45 -13.33,-45.83 -10.83,-46.67 -9.17,-46.67 -8.33,-47.5 -6.67,-46.66 -5.83,-47.5 -3.34,-47.5 -2.5,-47.5 -0.83,-47.5 0.83,-48.34 2.5,-47.5 3.34,-47.5 5.83,-47.5 6.67,-46.66 8.33,-47.5 9.17,-46.67 10.83,-46.67 13.33,-45.83 13.34,-45 15.83,-45.83 16.67,-44.17 18.33,-44.17 20,-43.33 20.83,-43.33 22.5,-41.67 23.34,-41.67 25,-40.83 25.83,-39.17 27.5,-39.16 29.17,-38.34 29.16,-37.5 30.84,-35.83 32.5,-35.83 33.33,-34.17 34.17,-32.5 35,-32.5 36.66,-30.83 36.67,-30 38.33,-28.34 39.17,-27.5 40,-26.66 40.83,-25 40.84,-23.34 42.5,-22.5 42.5,-20.83 43.33,-19.17 44.17,-18.33 45,-17.5 45,-15 45.83,-14.17 45.83,-12.5 46.67,-10.83 46.67,-10 46.66,-8.33 47.5,-6.67 47.5,-5 47.5,-4.17 47.5,-1.66 47.5,-0.84 47.5,0.84 47.5,1.66 47.5,4.17 47.5,5 47.5,6.67 46.67,8.33 46.67,10 46.66,10.83 45.84,12.5 45.83,14.17 45,15 45,17.5 44.17,18.33 43.33,19.17 42.5,20.83 42.5,22.5 40.83,23.34 40.84,25 40,26.66 39.16,27.5 38.34,28.34 36.66,30 36.67,30.83 35,32.5 34.17,32.5 33.33,34.17 32.5,35.83 30.83,35.83 29.17,37.5 29.17,38.34 27.5,39.16 25.83,39.17 25,40.83 23.33,41.67 22.5,41.67 20.84,43.33 20,43.33 18.33,44.17 16.67,44.17 15.83,45.83 13.33,45 13.34,45.83 10.83,46.67 9.17,46.67 8.33,47.5 6.67,46.66 5.83,47.5 3.33,47.5 2.5,47.5 0.84,47.5"
         style="fill:none;stroke:#ff0000;stroke-width:29.32413864;stroke-linecap:butt;stroke-linejoin:round;stroke-miterlimit:4;stroke-opacity:1;stroke-dasharray:none;stroke-dashoffset:0"
         id="path2896" /></g></g><g
     transform="matrix(0.058,0,0,0.058,132.9782,180.25875)"
     id="g2936"><g
       id="g2938"
       clip-path="url(#clipPath2940)"><path
         d="M 1412.5,3281.67 4919.17,5305.83"
         style="fill:none;stroke:#000000;stroke-width:7.3309803;stroke-linecap:butt;stroke-linejoin:round;stroke-miterlimit:10;stroke-opacity:1;stroke-dasharray:21.99294055, 21.99294055;stroke-dashoffset:0"
         id="path2944" /><path
         d="M 2154.17,2540.83 4178.33,6046.67"
         style="fill:none;stroke:#000000;stroke-width:7.3309803;stroke-linecap:butt;stroke-linejoin:round;stroke-miterlimit:10;stroke-opacity:1;stroke-dasharray:21.99294055, 21.99294055;stroke-dashoffset:0"
         id="path2946" /><path
         d="m 3165.83,2269.1769 0,4048.3231"
         style="fill:none;stroke:#000000;stroke-width:7.3309803;stroke-linecap:butt;stroke-linejoin:round;stroke-miterlimit:10;stroke-opacity:1;stroke-dasharray:21.99294055, 21.99294055;stroke-dashoffset:0"
         id="path2948"
         sodipodi:nodetypes="cc" /><path
         d="M 4178.33,2540.83 2154.17,6046.67"
         style="fill:none;stroke:#000000;stroke-width:7.3309803;stroke-linecap:butt;stroke-linejoin:round;stroke-miterlimit:10;stroke-opacity:1;stroke-dasharray:21.99294055, 21.99294055;stroke-dashoffset:0"
         id="path2950" /><path
         d="M 4919.17,3281.67 1412.5,5305.83"
         style="fill:none;stroke:#000000;stroke-width:7.3309803;stroke-linecap:butt;stroke-linejoin:round;stroke-miterlimit:10;stroke-opacity:1;stroke-dasharray:21.99294055, 21.99294055;stroke-dashoffset:0"
         id="path2952" /><path
         d="m 5190,4293.33 -4048.33,0.84"
         style="fill:none;stroke:#000000;stroke-width:7.3309803;stroke-linecap:butt;stroke-linejoin:round;stroke-miterlimit:10;stroke-opacity:1;stroke-dasharray:21.99294055, 21.99294055;stroke-dashoffset:0"
         id="path2954" /><path
         d="m 5122.5,4293.33 67.5,0"
         style="fill:none;stroke:#000000;stroke-width:10;stroke-linecap:butt;stroke-linejoin:round;stroke-miterlimit:10;stroke-opacity:1;stroke-dasharray:none"
         id="path2956" /><path
         d="m 5115,4464.17 67.5,5.83"
         style="fill:none;stroke:#000000;stroke-width:10;stroke-linecap:butt;stroke-linejoin:round;stroke-miterlimit:10;stroke-opacity:1;stroke-dasharray:none"
         id="path2958" /><path
         d="m 5092.5,4633.33 66.67,11.67"
         style="fill:none;stroke:#000000;stroke-width:10;stroke-linecap:butt;stroke-linejoin:round;stroke-miterlimit:10;stroke-opacity:1;stroke-dasharray:none"
         id="path2960" /><path
         d="m 5055.83,4800 65,17.5"
         style="fill:none;stroke:#000000;stroke-width:10;stroke-linecap:butt;stroke-linejoin:round;stroke-miterlimit:10;stroke-opacity:1;stroke-dasharray:none"
         id="path2962" /><path
         d="m 5004.17,4963.33 64.16,22.5"
         style="fill:none;stroke:#000000;stroke-width:10;stroke-linecap:butt;stroke-linejoin:round;stroke-miterlimit:10;stroke-opacity:1;stroke-dasharray:none"
         id="path2964" /><path
         d="m 4939.17,5120.83 60.83,28.34"
         style="fill:none;stroke:#000000;stroke-width:10;stroke-linecap:butt;stroke-linejoin:round;stroke-miterlimit:10;stroke-opacity:1;stroke-dasharray:none"
         id="path2966" /><path
         d="m 4860,5272.5 59.17,33.33"
         style="fill:none;stroke:#000000;stroke-width:10;stroke-linecap:butt;stroke-linejoin:round;stroke-miterlimit:10;stroke-opacity:1;stroke-dasharray:none"
         id="path2968" /><path
         d="m 4768.33,5415.83 55.84,39.17"
         style="fill:none;stroke:#000000;stroke-width:10;stroke-linecap:butt;stroke-linejoin:round;stroke-miterlimit:10;stroke-opacity:1;stroke-dasharray:none"
         id="path2970" /><path
         d="m 4665,5551.67 51.67,43.33"
         style="fill:none;stroke:#000000;stroke-width:10;stroke-linecap:butt;stroke-linejoin:round;stroke-miterlimit:10;stroke-opacity:1;stroke-dasharray:none"
         id="path2972" /><path
         d="m 4549.17,5677.5 48.33,47.5"
         style="fill:none;stroke:#000000;stroke-width:10;stroke-linecap:butt;stroke-linejoin:round;stroke-miterlimit:10;stroke-opacity:1;stroke-dasharray:none"
         id="path2974" /><path
         d="m 4423.33,5792.5 43.34,51.67"
         style="fill:none;stroke:#000000;stroke-width:10;stroke-linecap:butt;stroke-linejoin:round;stroke-miterlimit:10;stroke-opacity:1;stroke-dasharray:none"
         id="path2976" /><path
         d="m 4288.33,5896.67 38.34,55"
         style="fill:none;stroke:#000000;stroke-width:10;stroke-linecap:butt;stroke-linejoin:round;stroke-miterlimit:10;stroke-opacity:1;stroke-dasharray:none"
         id="path2978" /><path
         d="m 4144.17,5988.33 34.16,58.34"
         style="fill:none;stroke:#000000;stroke-width:10;stroke-linecap:butt;stroke-linejoin:round;stroke-miterlimit:10;stroke-opacity:1;stroke-dasharray:none"
         id="path2980" /><path
         d="m 3992.5,6067.5 29.17,60.83"
         style="fill:none;stroke:#000000;stroke-width:10;stroke-linecap:butt;stroke-linejoin:round;stroke-miterlimit:10;stroke-opacity:1;stroke-dasharray:none"
         id="path2982" /><path
         d="m 3835,6132.5 23.33,63.33"
         style="fill:none;stroke:#000000;stroke-width:10;stroke-linecap:butt;stroke-linejoin:round;stroke-miterlimit:10;stroke-opacity:1;stroke-dasharray:none"
         id="path2984" /><path
         d="m 3672.5,6184.17 17.5,65"
         style="fill:none;stroke:#000000;stroke-width:10;stroke-linecap:butt;stroke-linejoin:round;stroke-miterlimit:10;stroke-opacity:1;stroke-dasharray:none"
         id="path2986" /><path
         d="m 3505.83,6220.83 11.67,66.67"
         style="fill:none;stroke:#000000;stroke-width:10;stroke-linecap:butt;stroke-linejoin:round;stroke-miterlimit:10;stroke-opacity:1;stroke-dasharray:none"
         id="path2988" /><path
         d="m 3336.67,6243.33 5.83,66.67"
         style="fill:none;stroke:#000000;stroke-width:10;stroke-linecap:butt;stroke-linejoin:round;stroke-miterlimit:10;stroke-opacity:1;stroke-dasharray:none"
         id="path2990" /><path
         d="m 3165.83,6250.83 0,66.67"
         style="fill:none;stroke:#000000;stroke-width:10;stroke-linecap:butt;stroke-linejoin:round;stroke-miterlimit:10;stroke-opacity:1;stroke-dasharray:none"
         id="path2992" /><path
         d="m 2995,6243.33 -5.83,66.67"
         style="fill:none;stroke:#000000;stroke-width:10;stroke-linecap:butt;stroke-linejoin:round;stroke-miterlimit:10;stroke-opacity:1;stroke-dasharray:none"
         id="path2994" /><path
         d="m 2825.83,6220.83 -11.66,66.67"
         style="fill:none;stroke:#000000;stroke-width:10;stroke-linecap:butt;stroke-linejoin:round;stroke-miterlimit:10;stroke-opacity:1;stroke-dasharray:none"
         id="path2996" /><path
         d="m 2659.17,6184.17 -17.5,65"
         style="fill:none;stroke:#000000;stroke-width:10;stroke-linecap:butt;stroke-linejoin:round;stroke-miterlimit:10;stroke-opacity:1;stroke-dasharray:none"
         id="path2998" /><path
         d="m 2496.67,6132.5 -23.34,63.33"
         style="fill:none;stroke:#000000;stroke-width:10;stroke-linecap:butt;stroke-linejoin:round;stroke-miterlimit:10;stroke-opacity:1;stroke-dasharray:none"
         id="path3000" /><path
         d="M 2339.17,6067.5 2310,6128.33"
         style="fill:none;stroke:#000000;stroke-width:10;stroke-linecap:butt;stroke-linejoin:round;stroke-miterlimit:10;stroke-opacity:1;stroke-dasharray:none"
         id="path3002" /><path
         d="m 2187.5,5988.33 -33.33,58.34"
         style="fill:none;stroke:#000000;stroke-width:10;stroke-linecap:butt;stroke-linejoin:round;stroke-miterlimit:10;stroke-opacity:1;stroke-dasharray:none"
         id="path3004" /><path
         d="m 2043.33,5896.67 -38.33,55"
         style="fill:none;stroke:#000000;stroke-width:10;stroke-linecap:butt;stroke-linejoin:round;stroke-miterlimit:10;stroke-opacity:1;stroke-dasharray:none"
         id="path3006" /><path
         d="M 1908.33,5792.5 1865,5844.17"
         style="fill:none;stroke:#000000;stroke-width:10;stroke-linecap:butt;stroke-linejoin:round;stroke-miterlimit:10;stroke-opacity:1;stroke-dasharray:none"
         id="path3008" /><path
         d="m 1782.5,5677.5 -48.33,47.5"
         style="fill:none;stroke:#000000;stroke-width:10;stroke-linecap:butt;stroke-linejoin:round;stroke-miterlimit:10;stroke-opacity:1;stroke-dasharray:none"
         id="path3010" /><path
         d="M 1666.67,5551.67 1615,5595"
         style="fill:none;stroke:#000000;stroke-width:10;stroke-linecap:butt;stroke-linejoin:round;stroke-miterlimit:10;stroke-opacity:1;stroke-dasharray:none"
         id="path3012" /><path
         d="M 1563.33,5415.83 1507.5,5455"
         style="fill:none;stroke:#000000;stroke-width:10;stroke-linecap:butt;stroke-linejoin:round;stroke-miterlimit:10;stroke-opacity:1;stroke-dasharray:none"
         id="path3014" /><path
         d="m 1471.67,5272.5 -59.17,33.33"
         style="fill:none;stroke:#000000;stroke-width:10;stroke-linecap:butt;stroke-linejoin:round;stroke-miterlimit:10;stroke-opacity:1;stroke-dasharray:none"
         id="path3016" /><path
         d="m 1392.5,5120.83 -60.83,28.34"
         style="fill:none;stroke:#000000;stroke-width:10;stroke-linecap:butt;stroke-linejoin:round;stroke-miterlimit:10;stroke-opacity:1;stroke-dasharray:none"
         id="path3018" /><path
         d="m 1327.5,4963.33 -64.17,22.5"
         style="fill:none;stroke:#000000;stroke-width:10;stroke-linecap:butt;stroke-linejoin:round;stroke-miterlimit:10;stroke-opacity:1;stroke-dasharray:none"
         id="path3020" /><path
         d="m 1275.83,4800 -65,17.5"
         style="fill:none;stroke:#000000;stroke-width:10;stroke-linecap:butt;stroke-linejoin:round;stroke-miterlimit:10;stroke-opacity:1;stroke-dasharray:none"
         id="path3022" /><path
         d="M 1239.17,4633.33 1172.5,4645"
         style="fill:none;stroke:#000000;stroke-width:10;stroke-linecap:butt;stroke-linejoin:round;stroke-miterlimit:10;stroke-opacity:1;stroke-dasharray:none"
         id="path3024" /><path
         d="m 1216.67,4464.17 -67.5,5.83"
         style="fill:none;stroke:#000000;stroke-width:10;stroke-linecap:butt;stroke-linejoin:round;stroke-miterlimit:10;stroke-opacity:1;stroke-dasharray:none"
         id="path3026" /><path
         d="m 1209.17,4294.17 -67.5,0"
         style="fill:none;stroke:#000000;stroke-width:10;stroke-linecap:butt;stroke-linejoin:round;stroke-miterlimit:10;stroke-opacity:1;stroke-dasharray:none"
         id="path3028" /><path
         d="m 1209.17,4293.33 -67.5,0"
         style="fill:none;stroke:#000000;stroke-width:10;stroke-linecap:butt;stroke-linejoin:round;stroke-miterlimit:10;stroke-opacity:1;stroke-dasharray:none"
         id="path3030" /><path
         d="m 1216.67,4123.33 -67.5,-5.83"
         style="fill:none;stroke:#000000;stroke-width:10;stroke-linecap:butt;stroke-linejoin:round;stroke-miterlimit:10;stroke-opacity:1;stroke-dasharray:none"
         id="path3032" /><path
         d="M 1239.17,3954.17 1172.5,3942.5"
         style="fill:none;stroke:#000000;stroke-width:10;stroke-linecap:butt;stroke-linejoin:round;stroke-miterlimit:10;stroke-opacity:1;stroke-dasharray:none"
         id="path3034" /><path
         d="m 1275.83,3787.5 -65,-17.5"
         style="fill:none;stroke:#000000;stroke-width:10;stroke-linecap:butt;stroke-linejoin:round;stroke-miterlimit:10;stroke-opacity:1;stroke-dasharray:none"
         id="path3036" /><path
         d="m 1327.5,3624.17 -64.17,-22.5"
         style="fill:none;stroke:#000000;stroke-width:10;stroke-linecap:butt;stroke-linejoin:round;stroke-miterlimit:10;stroke-opacity:1;stroke-dasharray:none"
         id="path3038" /><path
         d="m 1392.5,3466.67 -60.83,-28.34"
         style="fill:none;stroke:#000000;stroke-width:10;stroke-linecap:butt;stroke-linejoin:round;stroke-miterlimit:10;stroke-opacity:1;stroke-dasharray:none"
         id="path3040" /><path
         d="m 1471.67,3315 -59.17,-33.33"
         style="fill:none;stroke:#000000;stroke-width:10;stroke-linecap:butt;stroke-linejoin:round;stroke-miterlimit:10;stroke-opacity:1;stroke-dasharray:none"
         id="path3042" /><path
         d="M 1563.33,3171.67 1507.5,3132.5"
         style="fill:none;stroke:#000000;stroke-width:10;stroke-linecap:butt;stroke-linejoin:round;stroke-miterlimit:10;stroke-opacity:1;stroke-dasharray:none"
         id="path3044" /><path
         d="M 1666.67,3035.83 1615,2992.5"
         style="fill:none;stroke:#000000;stroke-width:10;stroke-linecap:butt;stroke-linejoin:round;stroke-miterlimit:10;stroke-opacity:1;stroke-dasharray:none"
         id="path3046" /><path
         d="m 1782.5,2910 -48.33,-47.5"
         style="fill:none;stroke:#000000;stroke-width:10;stroke-linecap:butt;stroke-linejoin:round;stroke-miterlimit:10;stroke-opacity:1;stroke-dasharray:none"
         id="path3048" /><path
         d="M 1908.33,2795 1865,2743.33"
         style="fill:none;stroke:#000000;stroke-width:10;stroke-linecap:butt;stroke-linejoin:round;stroke-miterlimit:10;stroke-opacity:1;stroke-dasharray:none"
         id="path3050" /><path
         d="m 2043.33,2690.83 -38.33,-55"
         style="fill:none;stroke:#000000;stroke-width:10;stroke-linecap:butt;stroke-linejoin:round;stroke-miterlimit:10;stroke-opacity:1;stroke-dasharray:none"
         id="path3052" /><path
         d="m 2187.5,2599.17 -33.33,-58.34"
         style="fill:none;stroke:#000000;stroke-width:10;stroke-linecap:butt;stroke-linejoin:round;stroke-miterlimit:10;stroke-opacity:1;stroke-dasharray:none"
         id="path3054" /><path
         d="M 2339.17,2520 2310,2459.17"
         style="fill:none;stroke:#000000;stroke-width:10;stroke-linecap:butt;stroke-linejoin:round;stroke-miterlimit:10;stroke-opacity:1;stroke-dasharray:none"
         id="path3056" /><path
         d="m 2496.67,2455 -23.34,-63.33"
         style="fill:none;stroke:#000000;stroke-width:10;stroke-linecap:butt;stroke-linejoin:round;stroke-miterlimit:10;stroke-opacity:1;stroke-dasharray:none"
         id="path3058" /><path
         d="m 2659.17,2403.33 -17.5,-65"
         style="fill:none;stroke:#000000;stroke-width:10;stroke-linecap:butt;stroke-linejoin:round;stroke-miterlimit:10;stroke-opacity:1;stroke-dasharray:none"
         id="path3060" /><path
         d="M 2825.83,2366.67 2814.17,2300"
         style="fill:none;stroke:#000000;stroke-width:10;stroke-linecap:butt;stroke-linejoin:round;stroke-miterlimit:10;stroke-opacity:1;stroke-dasharray:none"
         id="path3062" /><path
         d="m 2995,2344.17 -5.83,-66.67"
         style="fill:none;stroke:#000000;stroke-width:10;stroke-linecap:butt;stroke-linejoin:round;stroke-miterlimit:10;stroke-opacity:1;stroke-dasharray:none"
         id="path3064" /><path
         d="m 3165.83,2336.67 0,-67.5"
         style="fill:none;stroke:#000000;stroke-width:10;stroke-linecap:butt;stroke-linejoin:round;stroke-miterlimit:10;stroke-opacity:1;stroke-dasharray:none"
         id="path3066" /><path
         d="m 3336.67,2344.17 5.83,-66.67"
         style="fill:none;stroke:#000000;stroke-width:10;stroke-linecap:butt;stroke-linejoin:round;stroke-miterlimit:10;stroke-opacity:1;stroke-dasharray:none"
         id="path3068" /><path
         d="M 3505.83,2366.67 3517.5,2300"
         style="fill:none;stroke:#000000;stroke-width:10;stroke-linecap:butt;stroke-linejoin:round;stroke-miterlimit:10;stroke-opacity:1;stroke-dasharray:none"
         id="path3070" /><path
         d="m 3672.5,2403.33 17.5,-65"
         style="fill:none;stroke:#000000;stroke-width:10;stroke-linecap:butt;stroke-linejoin:round;stroke-miterlimit:10;stroke-opacity:1;stroke-dasharray:none"
         id="path3072" /><path
         d="m 3835,2455 23.33,-63.33"
         style="fill:none;stroke:#000000;stroke-width:10;stroke-linecap:butt;stroke-linejoin:round;stroke-miterlimit:10;stroke-opacity:1;stroke-dasharray:none"
         id="path3074" /><path
         d="m 3992.5,2520 29.17,-60.83"
         style="fill:none;stroke:#000000;stroke-width:10;stroke-linecap:butt;stroke-linejoin:round;stroke-miterlimit:10;stroke-opacity:1;stroke-dasharray:none"
         id="path3076" /><path
         d="m 4144.17,2599.17 34.16,-58.34"
         style="fill:none;stroke:#000000;stroke-width:10;stroke-linecap:butt;stroke-linejoin:round;stroke-miterlimit:10;stroke-opacity:1;stroke-dasharray:none"
         id="path3078" /><path
         d="m 4288.33,2690.83 38.34,-55"
         style="fill:none;stroke:#000000;stroke-width:10;stroke-linecap:butt;stroke-linejoin:round;stroke-miterlimit:10;stroke-opacity:1;stroke-dasharray:none"
         id="path3080" /><path
         d="m 4423.33,2795 43.34,-51.67"
         style="fill:none;stroke:#000000;stroke-width:10;stroke-linecap:butt;stroke-linejoin:round;stroke-miterlimit:10;stroke-opacity:1;stroke-dasharray:none"
         id="path3082" /><path
         d="m 4549.17,2910 48.33,-47.5"
         style="fill:none;stroke:#000000;stroke-width:10;stroke-linecap:butt;stroke-linejoin:round;stroke-miterlimit:10;stroke-opacity:1;stroke-dasharray:none"
         id="path3084" /><path
         d="m 4665,3035.83 51.67,-43.33"
         style="fill:none;stroke:#000000;stroke-width:10;stroke-linecap:butt;stroke-linejoin:round;stroke-miterlimit:10;stroke-opacity:1;stroke-dasharray:none"
         id="path3086" /><path
         d="m 4768.33,3171.67 55.84,-39.17"
         style="fill:none;stroke:#000000;stroke-width:10;stroke-linecap:butt;stroke-linejoin:round;stroke-miterlimit:10;stroke-opacity:1;stroke-dasharray:none"
         id="path3088" /><path
         d="m 4860,3315 59.17,-33.33"
         style="fill:none;stroke:#000000;stroke-width:10;stroke-linecap:butt;stroke-linejoin:round;stroke-miterlimit:10;stroke-opacity:1;stroke-dasharray:none"
         id="path3090" /><path
         d="M 4939.17,3466.67 5000,3438.33"
         style="fill:none;stroke:#000000;stroke-width:10;stroke-linecap:butt;stroke-linejoin:round;stroke-miterlimit:10;stroke-opacity:1;stroke-dasharray:none"
         id="path3092" /><path
         d="m 5004.17,3624.17 64.16,-22.5"
         style="fill:none;stroke:#000000;stroke-width:10;stroke-linecap:butt;stroke-linejoin:round;stroke-miterlimit:10;stroke-opacity:1;stroke-dasharray:none"
         id="path3094" /><path
         d="m 5055.83,3787.5 65,-17.5"
         style="fill:none;stroke:#000000;stroke-width:10;stroke-linecap:butt;stroke-linejoin:round;stroke-miterlimit:10;stroke-opacity:1;stroke-dasharray:none"
         id="path3096" /><path
         d="m 5092.5,3954.17 66.67,-11.67"
         style="fill:none;stroke:#000000;stroke-width:10;stroke-linecap:butt;stroke-linejoin:round;stroke-miterlimit:10;stroke-opacity:1;stroke-dasharray:none"
         id="path3098" /><path
         d="m 5115,4123.33 67.5,-5.83"
         style="fill:none;stroke:#000000;stroke-width:10;stroke-linecap:butt;stroke-linejoin:round;stroke-miterlimit:10;stroke-opacity:1;stroke-dasharray:none"
         id="path3100" /><path
         d="m 5122.5,4293.33 67.5,0"
         style="fill:none;stroke:#000000;stroke-width:10;stroke-linecap:butt;stroke-linejoin:round;stroke-miterlimit:10;stroke-opacity:1;stroke-dasharray:none"
         id="path3102" /></g></g><path
     d="m 433.9982,429.27189 -0.0481,3.72186 -0.19372,3.67314 -0.29,3.67372 -0.38628,3.67314 -0.53186,3.625 -0.62814,3.67314 -0.725,3.57686 -0.87,3.625 -0.96686,3.52814 -1.11186,3.52872 -1.20814,3.48 -1.305,3.48 -1.40186,3.38314 -1.49814,3.38314 -1.64314,3.28686 -1.69186,3.28686 -1.83686,3.19 -1.93314,3.14128 -2.03,3.09372 -2.12686,2.99628 -2.22314,2.94872 -2.27186,2.9 -2.41628,2.80314 -2.465,2.70686 -2.56186,2.65814 -2.65814,2.56186 -2.755,2.51314 -2.80372,2.36814 -2.85128,2.32 -2.94872,2.22372 -3.045,2.07814 -3.045,2.03 -3.19,1.93314 -3.19,1.83686 -3.23814,1.74 -3.335,1.595 -3.335,1.54686 -3.43186,1.40128 -3.43128,1.305 -3.48,1.20872 -3.52872,1.06314 -3.57628,0.96686 -3.57686,0.87 -3.625,0.725 -3.625,0.67628 -3.67314,0.48372 -3.625,0.435 -3.67372,0.29 -3.72128,0.145 -3.67372,0.0481 -3.67314,-0.0481 -3.72186,-0.145 -3.67314,-0.29 -3.625,-0.435 -3.67314,-0.48372 -3.625,-0.67628 -3.625,-0.725 -3.57686,-0.87 -3.57686,-0.96686 -3.52814,-1.06314 -3.48,-1.20872 -3.43186,-1.305 -3.43128,-1.40128 -3.335,-1.54686 -3.335,-1.595 -3.23872,-1.74 -3.19,-1.83686 -3.19,-1.93314 -3.045,-2.03 -3.045,-2.07814 -2.94814,-2.22372 -2.85186,-2.32 -2.80314,-2.36814 -2.755,-2.51314 -2.65814,-2.56186 -2.56186,-2.65814 -2.465,-2.70686 -2.41686,-2.80314 -2.27128,-2.9 -2.22372,-2.94872 -2.12628,-2.99628 -2.03,-3.09372 -1.93372,-3.14128 -1.83628,-3.19 -1.69186,-3.28686 -1.64314,-3.28686 -1.49872,-3.38314 -1.40128,-3.38314 -1.305,-3.48 -1.20872,-3.48 -1.11128,-3.52872 -0.96686,-3.52814 -0.87,-3.625 -0.725,-3.57686 -0.62814,-3.67314 -0.53186,-3.625 -0.38686,-3.67314 -0.29,-3.67372 -0.19314,-3.67314 -0.0481,-3.67314 0.0481,-3.72186 0.19314,-3.67314 0.29,-3.67372 0.38686,-3.67314 0.53186,-3.625 0.62814,-3.67314 0.725,-3.57686 0.87,-3.625 0.96686,-3.52814 1.11128,-3.52872 1.20872,-3.48 1.305,-3.48 1.40128,-3.38314 1.49872,-3.38314 1.64314,-3.28686 1.69186,-3.28686 1.83628,-3.19 1.93372,-3.14128 2.03,-3.09372 2.12628,-2.99628 2.22372,-2.94872 2.27128,-2.9 2.41686,-2.80314 2.465,-2.70686 2.56186,-2.65814 2.65814,-2.56186 2.755,-2.51314 2.80314,-2.36814 2.85186,-2.32 2.94814,-2.22372 3.045,-2.07814 3.045,-2.03 3.19,-1.93314 3.19,-1.83686 3.23872,-1.74 3.335,-1.595 3.335,-1.54686 3.43128,-1.40128 3.43186,-1.305 3.48,-1.20872 3.52814,-1.06314 3.57686,-0.96686 3.57686,-0.87 3.625,-0.725 3.625,-0.67628 3.67314,-0.48372 3.625,-0.435 3.67314,-0.29 3.72186,-0.145 3.67314,-0.0963 3.67372,0.0963 3.72128,0.145 3.67372,0.29 3.625,0.435 3.67314,0.48372 3.625,0.67628 3.625,0.725 3.57686,0.87 3.57628,0.96686 3.52872,1.06314 3.48,1.20872 3.43128,1.305 3.43186,1.40128 3.335,1.54686 3.335,1.595 3.23814,1.74 3.19,1.83686 3.19,1.93314 3.045,2.03 3.045,2.07814 2.94872,2.22372 2.85128,2.32 2.80372,2.36814 2.755,2.51314 2.65814,2.56186 2.56186,2.65814 2.465,2.70686 2.41628,2.80314 2.27186,2.9 2.22314,2.94872 2.12686,2.99628 2.03,3.09372 1.93314,3.14128 1.83686,3.19 1.69186,3.28686 1.64314,3.28686 1.49814,3.38314 1.40186,3.38314 1.305,3.48 1.20814,3.48 1.11186,3.52872 0.96686,3.52814 0.87,3.625 0.725,3.57686 0.62814,3.67314 0.53186,3.625 0.38628,3.67314 0.29,3.67372 0.19372,3.67314 0.0481,3.67314"
     style="fill:none;stroke:#000000;stroke-width:0.85039371;stroke-linecap:butt;stroke-linejoin:round;stroke-miterlimit:10;stroke-opacity:1;stroke-dasharray:none"
     id="path2920" /><g
     ns0:preamble="E:\\preamble.tex"
     ns0:text="180"
     word-spacing="normal"
     letter-spacing="normal"
     font-size-adjust="none"
     font-stretch="normal"
     font-weight="normal"
     font-variant="normal"
     font-style="normal"
     stroke-miterlimit="10.433"
     xml:space="preserve"
     transform="matrix(1.0900015,0,0,1.0900015,65.043048,-223.62031)"
     id="g9033"
     style="font-style:normal;font-variant:normal;font-weight:normal;font-stretch:normal;letter-spacing:normal;word-spacing:normal;text-anchor:start;fill:#000000;fill-opacity:1;stroke:#000000;stroke-linecap:butt;stroke-linejoin:miter;stroke-miterlimit:10.43299961;stroke-opacity:1;stroke-dasharray:none;stroke-dashoffset:0">
<path
   id="path9035"
   d="m 226.36,483.61 0,0.01 0,0.01 0,0.01 0,0.01 0,0.01 0,0.01 0,0.01 0,0 0,0.01 0,0.01 0,0.01 0,0.01 0,0 0,0.01 0,0.01 0,0.01 0,0 0,0.01 0,0.01 -0.01,0.01 0,0.01 0,0.01 -0.01,0.01 0,0.01 -0.01,0 0,0.01 -0.01,0 -0.01,0.01 0,0 -0.01,0.01 -0.01,0 0,0 -0.01,0 0,0 -0.01,0.01 0,0 -0.01,0 -0.01,0 0,0 -0.01,0 -0.01,0 -0.01,0 0,0 -0.01,0 -0.01,0 -0.01,0 -0.01,0 -0.01,0 -0.01,0 -0.01,0 -0.01,0 -0.01,0 c -0.62,-0.63 -1.49,-0.63 -1.81,-0.63 v -0.31 c 0.2,0 0.79,0 1.31,0.26 v -5.16 c 0,-0.36 -0.03,-0.48 -0.93,-0.48 h -0.32 v -0.31 c 0.35,0.04 1.22,0.04 1.61,0.04 0.4,0 1.27,0 1.62,-0.04 v 0.31 h -0.32 c -0.9,0 -0.93,0.11 -0.93,0.48 z"
   style="fill:#000000;fill-opacity:1;stroke:#000000;stroke-width:0;stroke-opacity:1" />
<path
   id="path9037"
   d="m 231.49,480.84 0.07,0.03 0.07,0.04 0.06,0.04 0.06,0.03 0.06,0.04 0.06,0.04 0.06,0.04 0.05,0.04 0.06,0.04 0.05,0.05 0.05,0.04 0.05,0.04 0.05,0.05 0.04,0.05 0.05,0.04 0.04,0.05 0.03,0.05 0.04,0.05 0.04,0.05 0.03,0.05 0.03,0.05 0.02,0.06 0.03,0.05 0.02,0.05 0.02,0.06 0.02,0.06 0.02,0.05 0.01,0.06 0.01,0.06 0,0.06 0.01,0.06 0,0.06 c 0,0.92 -0.89,1.48 -1.8,1.48 l 0,-0.25 c 0.72,0 1.36,-0.51 1.36,-1.23 0,-0.57 -0.39,-1.05 -0.99,-1.39 l -1.23,0.79 c -0.46,0.3 -0.5,0.64 -0.5,0.81 0,0.61 0.65,1.02 1.36,1.02 l 0,0.25 c -0.99,0 -1.8,-0.73 -1.8,-1.66 0,-0.18 0.02,-0.63 0.44,-1.09 0.11,-0.12 0.48,-0.37 0.73,-0.54 l 0.23,-0.15 1.22,-0.78 c 0.28,-0.19 0.75,-0.48 0.75,-1.09 0,-0.74 -0.75,-1.25 -1.57,-1.25 -0.85,0 -1.57,0.61 -1.57,1.44 0,0.58 0.32,1.21 1.17,1.68 h 0 l -0.23,0.15 c -0.58,-0.29 -1.44,-0.85 -1.44,-1.83 0,-1.06 1.02,-1.72 2.07,-1.72 1.12,0 2.07,0.82 2.07,1.89 0,0.36 -0.11,0.8 -0.49,1.22 -0.19,0.21 -0.35,0.31 -0.99,0.71 z"
   style="fill:#000000;fill-opacity:1;stroke:#000000;stroke-width:0;stroke-opacity:1" />
<path
   id="path9039"
   d="m 237.98,480.42 0,0.15 0,0.15 -0.01,0.15 0,0.15 -0.01,0.14 -0.01,0.15 -0.02,0.15 -0.02,0.15 -0.02,0.14 -0.03,0.15 -0.03,0.14 -0.04,0.15 -0.04,0.14 -0.05,0.14 -0.06,0.14 -0.03,0.07 -0.03,0.07 c -0.46,0.95 -1.28,1.11 -1.69,1.11 -0.6,0 -1.33,-0.25 -1.74,-1.18 -0.32,-0.69 -0.37,-1.46 -0.37,-2.26 0,-0.75 0.04,-1.64 0.45,-2.4 0.43,-0.81 1.16,-1 1.65,-1 v 0.21 c -0.39,0 -0.98,0.25 -1.16,1.21 -0.11,0.6 -0.11,1.51 -0.11,2.1 0,0.64 0,1.29 0.08,1.83 0.19,1.18 0.94,1.27 1.19,1.27 0.33,0 0.98,-0.18 1.17,-1.16 0.1,-0.56 0.1,-1.31 0.1,-1.94 0,-0.75 0,-1.42 -0.11,-2.06 -0.15,-0.95 -0.72,-1.25 -1.16,-1.25 h 0 v -0.21 c 0.53,0 1.29,0.21 1.73,1.15 0.32,0.69 0.37,1.46 0.37,2.25 z"
   style="fill:#000000;fill-opacity:1;stroke:#000000;stroke-width:0;stroke-opacity:1" />
</g><g
     style="font-style:normal;font-variant:normal;font-weight:normal;font-stretch:normal;letter-spacing:normal;word-spacing:normal;text-anchor:start;fill:#000000;fill-opacity:1;stroke:#000000;stroke-linecap:butt;stroke-linejoin:miter;stroke-miterlimit:10.43299961;stroke-opacity:1;stroke-dasharray:none;stroke-dashoffset:0"
     id="g9545"
     transform="matrix(1.0900015,0,0,1.0900015,129.61265,-206.37231)"
     xml:space="preserve"
     stroke-miterlimit="10.433"
     font-style="normal"
     font-variant="normal"
     font-weight="normal"
     font-stretch="normal"
     font-size-adjust="none"
     letter-spacing="normal"
     word-spacing="normal"
     ns0:text="150"
     ns0:preamble="E:\\preamble.tex">
<path
   style="fill:#000000;fill-opacity:1;stroke-width:0"
   d="m 226.36,483.61 0,0.01 0,0.01 0,0.01 0,0.01 0,0.01 0,0.01 0,0.01 0,0 0,0.01 0,0.01 0,0.01 0,0.01 0,0 0,0.01 0,0.01 0,0.01 0,0 0,0.01 0,0.01 -0.01,0.01 0,0.01 0,0.01 -0.01,0.01 0,0.01 -0.01,0 0,0.01 -0.01,0 -0.01,0.01 0,0 -0.01,0.01 -0.01,0 0,0 -0.01,0 0,0 -0.01,0.01 0,0 -0.01,0 -0.01,0 0,0 -0.01,0 -0.01,0 -0.01,0 0,0 -0.01,0 -0.01,0 -0.01,0 -0.01,0 -0.01,0 -0.01,0 -0.01,0 -0.01,0 -0.01,0 c -0.62,-0.63 -1.49,-0.63 -1.81,-0.63 v -0.31 c 0.2,0 0.79,0 1.31,0.26 v -5.16 c 0,-0.36 -0.03,-0.48 -0.93,-0.48 h -0.32 v -0.31 c 0.35,0.04 1.22,0.04 1.61,0.04 0.4,0 1.27,0 1.62,-0.04 v 0.31 h -0.32 c -0.9,0 -0.93,0.11 -0.93,0.48 z"
   id="path9547" />
<path
   style="fill:#000000;fill-opacity:1;stroke-width:0"
   d="m 232.89,479.23 0,0.12 -0.01,0.1 -0.01,0.11 -0.02,0.11 -0.02,0.1 -0.02,0.11 -0.03,0.1 -0.04,0.1 -0.03,0.09 -0.04,0.1 -0.05,0.09 -0.05,0.09 -0.05,0.08 -0.05,0.08 -0.06,0.08 -0.06,0.08 -0.07,0.07 -0.07,0.07 -0.07,0.07 -0.07,0.06 -0.08,0.05 -0.08,0.06 -0.08,0.05 -0.08,0.04 -0.09,0.04 -0.09,0.04 -0.09,0.03 -0.09,0.02 -0.1,0.02 -0.1,0.01 -0.09,0.01 -0.11,0.01 c -0.47,0 -0.9,-0.16 -1.26,-0.51 v 1.94 c 0.2,-0.06 0.53,-0.13 0.85,-0.13 1.22,0 1.92,0.91 1.92,1.03 0,0.06 -0.03,0.11 -0.1,0.11 -0.01,0 -0.03,0 -0.08,-0.03 -0.2,-0.09 -0.69,-0.28 -1.36,-0.28 -0.39,0 -0.85,0.06 -1.32,0.27 -0.08,0.03 -0.1,0.03 -0.12,0.03 -0.1,0 -0.1,-0.08 -0.1,-0.24 v -2.94 c 0,-0.18 0,-0.26 0.14,-0.26 0.07,0 0.09,0.03 0.13,0.09 0.11,0.16 0.48,0.7 1.29,0.7 0.51,0 0.76,-0.46 0.84,-0.64 0.16,-0.37 0.18,-0.76 0.18,-1.26 0,-0.34 0,-0.94 -0.24,-1.36 -0.24,-0.39 -0.61,-0.64 -1.06,-0.64 -0.73,0 -1.3,0.52 -1.47,1.11 0.03,-0.01 0.06,-0.02 0.17,-0.02 0.33,0 0.5,0.25 0.5,0.49 0,0.24 -0.17,0.48 -0.5,0.48 -0.14,0 -0.49,-0.06 -0.49,-0.52 0,-0.86 0.69,-1.82 1.81,-1.82 1.15,0 2.17,0.95 2.17,2.21 z"
   id="path9549" />
<path
   style="fill:#000000;fill-opacity:1;stroke-width:0"
   d="m 237.98,480.42 0,0.15 0,0.15 -0.01,0.15 0,0.15 -0.01,0.14 -0.01,0.15 -0.02,0.15 -0.02,0.15 -0.02,0.14 -0.03,0.15 -0.03,0.14 -0.04,0.15 -0.04,0.14 -0.05,0.14 -0.06,0.14 -0.03,0.07 -0.03,0.07 c -0.46,0.95 -1.28,1.11 -1.69,1.11 -0.6,0 -1.33,-0.25 -1.74,-1.18 -0.32,-0.69 -0.37,-1.46 -0.37,-2.26 0,-0.75 0.04,-1.64 0.45,-2.4 0.43,-0.81 1.16,-1 1.65,-1 v 0.21 c -0.39,0 -0.98,0.25 -1.16,1.21 -0.11,0.6 -0.11,1.51 -0.11,2.1 0,0.64 0,1.29 0.08,1.83 0.19,1.18 0.94,1.27 1.19,1.27 0.33,0 0.98,-0.18 1.17,-1.16 0.1,-0.56 0.1,-1.31 0.1,-1.94 0,-0.75 0,-1.42 -0.11,-2.06 -0.15,-0.95 -0.72,-1.25 -1.16,-1.25 h 0 v -0.21 c 0.53,0 1.29,0.21 1.73,1.15 0.32,0.69 0.37,1.46 0.37,2.25 z"
   id="path9551" />
</g><g
     ns0:preamble="E:\\preamble.tex"
     ns0:text="120"
     word-spacing="normal"
     letter-spacing="normal"
     font-size-adjust="none"
     font-stretch="normal"
     font-weight="normal"
     font-variant="normal"
     font-style="normal"
     stroke-miterlimit="10.433"
     xml:space="preserve"
     transform="matrix(1.0900015,0,0,1.0900015,176.88305,-159.07631)"
     id="g10061"
     style="font-style:normal;font-variant:normal;font-weight:normal;font-stretch:normal;letter-spacing:normal;word-spacing:normal;text-anchor:start;fill:#000000;fill-opacity:1;stroke:#000000;stroke-linecap:butt;stroke-linejoin:miter;stroke-miterlimit:10.43299961;stroke-opacity:1;stroke-dasharray:none;stroke-dashoffset:0">
<path
   id="path10063"
   d="m 226.36,483.61 0,0.01 0,0.01 0,0.01 0,0.01 0,0.01 0,0.01 0,0.01 0,0 0,0.01 0,0.01 0,0.01 0,0.01 0,0 0,0.01 0,0.01 0,0.01 0,0 0,0.01 0,0.01 -0.01,0.01 0,0.01 0,0.01 -0.01,0.01 0,0.01 -0.01,0 0,0.01 -0.01,0 -0.01,0.01 0,0 -0.01,0.01 -0.01,0 0,0 -0.01,0 0,0 -0.01,0.01 0,0 -0.01,0 -0.01,0 0,0 -0.01,0 -0.01,0 -0.01,0 0,0 -0.01,0 -0.01,0 -0.01,0 -0.01,0 -0.01,0 -0.01,0 -0.01,0 -0.01,0 -0.01,0 c -0.62,-0.63 -1.49,-0.63 -1.81,-0.63 v -0.31 c 0.2,0 0.79,0 1.31,0.26 v -5.16 c 0,-0.36 -0.03,-0.48 -0.93,-0.48 h -0.32 v -0.31 c 0.35,0.04 1.22,0.04 1.61,0.04 0.4,0 1.27,0 1.62,-0.04 v 0.31 h -0.32 c -0.9,0 -0.93,0.11 -0.93,0.48 z"
   style="fill:#000000;fill-opacity:1;stroke-width:0" />
<path
   id="path10065"
   d="m 229.68,478 1.06,1.03 c 1.55,1.37 2.15,1.91 2.15,2.9 0,1.14 -0.9,1.93 -2.11,1.93 -1.13,0 -1.87,-0.91 -1.87,-1.8 0,-0.55 0.5,-0.55 0.53,-0.55 0.17,0 0.52,0.11 0.52,0.52 0,0.26 -0.18,0.52 -0.53,0.52 -0.08,0 -0.1,0 -0.13,-0.01 0.23,0.65 0.77,1.01 1.35,1.01 0.9,0 1.33,-0.8 1.33,-1.62 0,-0.79 -0.5,-1.58 -1.05,-2.2 l -1.91,-2.13 c -0.11,-0.11 -0.11,-0.13 -0.11,-0.37 h 3.7 l 0.28,1.74 h -0.25 c -0.05,-0.3 -0.12,-0.74 -0.22,-0.89 C 232.35,478 231.69,478 231.47,478 z"
   style="fill:#000000;fill-opacity:1;stroke-width:0" />
<path
   id="path10067"
   d="m 237.98,480.42 0,0.15 0,0.15 -0.01,0.15 0,0.15 -0.01,0.14 -0.01,0.15 -0.02,0.15 -0.02,0.15 -0.02,0.14 -0.03,0.15 -0.03,0.14 -0.04,0.15 -0.04,0.14 -0.05,0.14 -0.06,0.14 -0.03,0.07 -0.03,0.07 c -0.46,0.95 -1.28,1.11 -1.69,1.11 -0.6,0 -1.33,-0.25 -1.74,-1.18 -0.32,-0.69 -0.37,-1.46 -0.37,-2.26 0,-0.75 0.04,-1.64 0.45,-2.4 0.43,-0.81 1.16,-1 1.65,-1 v 0.21 c -0.39,0 -0.98,0.25 -1.16,1.21 -0.11,0.6 -0.11,1.51 -0.11,2.1 0,0.64 0,1.29 0.08,1.83 0.19,1.18 0.94,1.27 1.19,1.27 0.33,0 0.98,-0.18 1.17,-1.16 0.1,-0.56 0.1,-1.31 0.1,-1.94 0,-0.75 0,-1.42 -0.11,-2.06 -0.15,-0.95 -0.72,-1.25 -1.16,-1.25 h 0 v -0.21 c 0.53,0 1.29,0.21 1.73,1.15 0.32,0.69 0.37,1.46 0.37,2.25 z"
   style="fill:#000000;fill-opacity:1;stroke-width:0" />
</g><g
     style="font-style:normal;font-variant:normal;font-weight:normal;font-stretch:normal;letter-spacing:normal;word-spacing:normal;text-anchor:start;fill:#000000;fill-opacity:1;stroke:#000000;stroke-linecap:butt;stroke-linejoin:miter;stroke-miterlimit:10.43299961;stroke-opacity:1;stroke-dasharray:none;stroke-dashoffset:0"
     id="g10585"
     transform="matrix(1.0900015,0,0,1.0900015,196.78306,-94.515513)"
     xml:space="preserve"
     stroke-miterlimit="10.433"
     font-style="normal"
     font-variant="normal"
     font-weight="normal"
     font-stretch="normal"
     font-size-adjust="none"
     letter-spacing="normal"
     word-spacing="normal"
     ns0:text="90"
     ns0:preamble="E:\\preamble.tex">
<path
   style="fill:#000000;fill-opacity:1;stroke-width:0"
   d="m 227.09,480.4 v -0.32 c 0,-2.33 -1.04,-2.78 -1.61,-2.78 -0.17,0 -0.71,0.02 -0.98,0.35 0.44,0 0.52,0.29 0.52,0.46 0,0.31 -0.24,0.46 -0.46,0.46 -0.16,0 -0.46,-0.09 -0.46,-0.48 0,-0.67 0.54,-1.07 1.39,-1.07 1.28,0 2.5,1.35 2.5,3.49 0,2.68 -1.15,3.35 -2.04,3.35 -0.54,0 -1.03,-0.18 -1.46,-0.62 -0.41,-0.45 -0.64,-0.87 -0.64,-1.62 0,-1.24 0.88,-2.22 1.99,-2.22 l 0.01,0.23 c -0.15,0 -0.61,0 -0.92,0.63 -0.18,0.37 -0.18,0.87 -0.18,1.35 0,0.54 0,1.01 0.21,1.38 0.27,0.49 0.64,0.62 0.99,0.62 0.46,0 0.79,-0.33 0.96,-0.78 0.12,-0.32 0.16,-0.95 0.16,-1.41 0,-0.82 -0.34,-1.79 -1.22,-1.79 h 0 l -0.01,-0.23 c 0.61,0 1.02,0.42 1.25,1 z"
   id="path10587" />
<path
   style="fill:#000000;fill-opacity:1;stroke-width:0"
   d="m 233,480.42 0,0.15 0,0.15 -0.01,0.15 0,0.15 -0.01,0.14 -0.02,0.15 -0.01,0.15 -0.02,0.15 -0.02,0.14 -0.03,0.15 -0.03,0.14 -0.04,0.15 -0.04,0.14 -0.05,0.14 -0.06,0.14 -0.03,0.07 -0.03,0.07 c -0.46,0.95 -1.28,1.11 -1.7,1.11 -0.59,0 -1.32,-0.25 -1.73,-1.18 -0.32,-0.69 -0.37,-1.46 -0.37,-2.26 0,-0.75 0.04,-1.64 0.45,-2.4 0.43,-0.81 1.16,-1 1.65,-1 v 0.21 c -0.39,0 -0.98,0.25 -1.16,1.21 -0.11,0.6 -0.11,1.51 -0.11,2.1 0,0.64 0,1.29 0.08,1.83 0.19,1.18 0.94,1.27 1.19,1.27 0.32,0 0.98,-0.18 1.17,-1.16 0.1,-0.56 0.1,-1.31 0.1,-1.94 0,-0.75 0,-1.42 -0.11,-2.06 -0.15,-0.95 -0.72,-1.25 -1.16,-1.25 h 0 v -0.21 c 0.53,0 1.29,0.21 1.73,1.15 0.32,0.69 0.37,1.46 0.37,2.25 z"
   id="path10589" />
</g><g
     ns0:preamble="E:\\preamble.tex"
     ns0:text="60"
     word-spacing="normal"
     letter-spacing="normal"
     font-size-adjust="none"
     font-stretch="normal"
     font-weight="normal"
     font-variant="normal"
     font-style="normal"
     stroke-miterlimit="10.433"
     xml:space="preserve"
     transform="matrix(1.0900015,0,0,1.0900015,179.48706,-30.01687)"
     id="g11113"
     style="font-style:normal;font-variant:normal;font-weight:normal;font-stretch:normal;letter-spacing:normal;word-spacing:normal;text-anchor:start;fill:#000000;fill-opacity:1;stroke:#000000;stroke-linecap:butt;stroke-linejoin:miter;stroke-miterlimit:10.43299961;stroke-opacity:1;stroke-dasharray:none;stroke-dashoffset:0">
<path
   id="path11115"
   d="m 224.75,480.5 v 0.24 c 0,2.52 1.23,2.87 1.74,2.87 0.24,0 0.66,-0.06 0.88,-0.39 -0.15,0 -0.55,0 -0.55,-0.45 0,-0.31 0.24,-0.46 0.46,-0.46 0.16,0 0.46,0.09 0.46,0.48 0,0.6 -0.44,1.07 -1.27,1.07 -1.27,0 -2.62,-1.28 -2.62,-3.48 0,-2.66 1.16,-3.36 2.08,-3.36 1.11,0 2.06,0.93 2.06,2.25 0,1.26 -0.89,2.21 -2,2.21 l -0.01,-0.22 c 0.16,0 0.62,0 0.93,-0.62 0.18,-0.37 0.18,-0.88 0.18,-1.37 0,-0.47 0,-0.97 -0.17,-1.33 -0.3,-0.6 -0.76,-0.64 -0.99,-0.64 h 0 c -0.62,0 -0.92,0.59 -0.98,0.74 -0.18,0.47 -0.18,1.26 -0.18,1.44 0,0.78 0.32,1.78 1.21,1.78 l 0.01,0.22 c -0.67,0 -1.04,-0.5 -1.24,-0.98 z"
   style="fill:#000000;fill-opacity:1;stroke-width:0" />
<path
   id="path11117"
   d="m 233,480.42 0,0.15 0,0.15 -0.01,0.15 0,0.15 -0.01,0.14 -0.02,0.15 -0.01,0.15 -0.02,0.15 -0.02,0.14 -0.03,0.15 -0.03,0.14 -0.04,0.15 -0.04,0.14 -0.05,0.14 -0.06,0.14 -0.03,0.07 -0.03,0.07 c -0.46,0.95 -1.28,1.11 -1.7,1.11 -0.59,0 -1.32,-0.25 -1.73,-1.18 -0.32,-0.69 -0.37,-1.46 -0.37,-2.26 0,-0.75 0.04,-1.64 0.45,-2.4 0.43,-0.81 1.16,-1 1.65,-1 v 0.21 c -0.39,0 -0.98,0.25 -1.16,1.21 -0.11,0.6 -0.11,1.51 -0.11,2.1 0,0.64 0,1.29 0.08,1.83 0.19,1.18 0.94,1.27 1.19,1.27 0.32,0 0.98,-0.18 1.17,-1.16 0.1,-0.56 0.1,-1.31 0.1,-1.94 0,-0.75 0,-1.42 -0.11,-2.06 -0.15,-0.95 -0.72,-1.25 -1.16,-1.25 h 0 v -0.21 c 0.53,0 1.29,0.21 1.73,1.15 0.32,0.69 0.37,1.46 0.37,2.25 z"
   style="fill:#000000;fill-opacity:1;stroke-width:0" />
</g><g
     style="font-style:normal;font-variant:normal;font-weight:normal;font-stretch:normal;letter-spacing:normal;word-spacing:normal;text-anchor:start;fill:#000000;fill-opacity:1;stroke:#000000;stroke-linecap:butt;stroke-linejoin:miter;stroke-miterlimit:10.43299961;stroke-opacity:1;stroke-dasharray:none;stroke-dashoffset:0"
     id="g11647"
     transform="matrix(1.0900015,0,0,1.0900015,132.21506,17.331687)"
     xml:space="preserve"
     stroke-miterlimit="10.433"
     font-style="normal"
     font-variant="normal"
     font-weight="normal"
     font-stretch="normal"
     font-size-adjust="none"
     letter-spacing="normal"
     word-spacing="normal"
     ns0:text="30"
     ns0:preamble="E:\\preamble.tex">
<path
   style="fill:#000000;fill-opacity:1;stroke-width:0"
   d="m 226.32,480.74 0.08,0.02 0.07,0.03 0.08,0.03 0.07,0.04 0.07,0.03 0.07,0.04 0.06,0.04 0.07,0.04 0.06,0.05 0.06,0.05 0.06,0.04 0.05,0.05 0.06,0.06 0.05,0.05 0.05,0.05 0.05,0.06 0.04,0.06 0.04,0.06 0.04,0.06 0.04,0.06 0.04,0.06 0.03,0.07 0.03,0.07 0.02,0.06 0.03,0.07 0.02,0.07 0.02,0.07 0.01,0.07 0.01,0.07 0.01,0.07 0.01,0.08 0,0.07 c 0,0.82 -0.88,1.37 -1.84,1.37 -1,0 -1.76,-0.59 -1.76,-1.35 0,-0.33 0.22,-0.52 0.51,-0.52 0.31,0 0.51,0.22 0.51,0.51 0,0.5 -0.47,0.5 -0.62,0.5 0.31,0.48 0.97,0.61 1.32,0.61 0.41,0 0.96,-0.21 0.96,-1.11 0,-0.12 -0.02,-0.7 -0.28,-1.14 -0.3,-0.47 -0.64,-0.5 -0.89,-0.51 -0.08,-0.01 -0.31,-0.03 -0.38,-0.03 -0.08,-0.01 -0.15,-0.02 -0.15,-0.12 0,-0.11 0.07,-0.11 0.24,-0.11 h 0.43 c 0.82,0 1.19,-0.68 1.19,-1.65 0,-1.36 -0.69,-1.64 -1.13,-1.64 -0.42,0 -1.17,0.16 -1.52,0.75 0.35,-0.05 0.66,0.17 0.66,0.55 0,0.36 -0.27,0.56 -0.56,0.56 -0.24,0 -0.56,-0.14 -0.56,-0.58 0,-0.91 0.93,-1.56 2.01,-1.56 1.22,0 2.13,0.9 2.13,1.92 0,0.81 -0.63,1.59 -1.67,1.8 z"
   id="path11649" />
<path
   style="fill:#000000;fill-opacity:1;stroke-width:0"
   d="m 233,480.42 0,0.15 0,0.15 -0.01,0.15 0,0.15 -0.01,0.14 -0.02,0.15 -0.01,0.15 -0.02,0.15 -0.02,0.14 -0.03,0.15 -0.03,0.14 -0.04,0.15 -0.04,0.14 -0.05,0.14 -0.06,0.14 -0.03,0.07 -0.03,0.07 c -0.46,0.95 -1.28,1.11 -1.7,1.11 -0.59,0 -1.32,-0.25 -1.73,-1.18 -0.32,-0.69 -0.37,-1.46 -0.37,-2.26 0,-0.75 0.04,-1.64 0.45,-2.4 0.43,-0.81 1.16,-1 1.65,-1 v 0.21 c -0.39,0 -0.98,0.25 -1.16,1.21 -0.11,0.6 -0.11,1.51 -0.11,2.1 0,0.64 0,1.29 0.08,1.83 0.19,1.18 0.94,1.27 1.19,1.27 0.32,0 0.98,-0.18 1.17,-1.16 0.1,-0.56 0.1,-1.31 0.1,-1.94 0,-0.75 0,-1.42 -0.11,-2.06 -0.15,-0.95 -0.72,-1.25 -1.16,-1.25 h 0 v -0.21 c 0.53,0 1.29,0.21 1.73,1.15 0.32,0.69 0.37,1.46 0.37,2.25 z"
   id="path11651" />
</g><g
     ns0:preamble="E:\\preamble.tex"
     ns0:text="0"
     word-spacing="normal"
     letter-spacing="normal"
     font-size-adjust="none"
     font-stretch="normal"
     font-weight="normal"
     font-variant="normal"
     font-style="normal"
     stroke-miterlimit="10.433"
     xml:space="preserve"
     transform="matrix(1.0900015,0,0,1.0900015,70.356661,34.619689)"
     id="g12187"
     style="font-style:normal;font-variant:normal;font-weight:normal;font-stretch:normal;letter-spacing:normal;word-spacing:normal;text-anchor:start;fill:#000000;fill-opacity:1;stroke:#000000;stroke-linecap:butt;stroke-linejoin:miter;stroke-miterlimit:10.43299961;stroke-opacity:1;stroke-dasharray:none;stroke-dashoffset:0">
<path
   id="path12189"
   d="m 228.02,480.42 0,0.15 -0.01,0.15 0,0.15 -0.01,0.15 -0.01,0.14 -0.01,0.15 -0.01,0.15 -0.02,0.15 -0.02,0.14 -0.03,0.15 -0.03,0.14 -0.04,0.15 -0.04,0.14 -0.05,0.14 -0.06,0.14 -0.03,0.07 -0.03,0.07 c -0.46,0.95 -1.28,1.11 -1.7,1.11 -0.59,0 -1.32,-0.25 -1.73,-1.18 -0.32,-0.69 -0.37,-1.46 -0.37,-2.26 0,-0.75 0.04,-1.64 0.45,-2.4 0.43,-0.81 1.16,-1 1.64,-1 v 0.21 c -0.39,0 -0.97,0.25 -1.15,1.21 -0.11,0.6 -0.11,1.51 -0.11,2.1 0,0.64 0,1.29 0.08,1.83 0.19,1.18 0.93,1.27 1.18,1.27 0.33,0 0.99,-0.18 1.18,-1.16 0.1,-0.56 0.1,-1.31 0.1,-1.94 0,-0.75 0,-1.42 -0.11,-2.06 -0.15,-0.95 -0.72,-1.25 -1.17,-1.25 h 0 v -0.21 c 0.54,0 1.3,0.21 1.74,1.15 0.32,0.69 0.37,1.46 0.37,2.25 z"
   style="fill:#000000;fill-opacity:1;stroke-width:0" />
</g><g
     ns0:preamble="E:\\preamble.tex"
     ns0:text="0,0"
     word-spacing="normal"
     letter-spacing="normal"
     font-size-adjust="none"
     font-stretch="normal"
     font-weight="normal"
     font-variant="normal"
     font-style="normal"
     stroke-miterlimit="10.433"
     xml:space="preserve"
     transform="matrix(1.0900015,0,0,1.0900015,77.556552,29.657998)"
     id="g13363"
     style="font-style:normal;font-variant:normal;font-weight:normal;font-stretch:normal;letter-spacing:normal;word-spacing:normal;text-anchor:start;fill:#000000;fill-opacity:1;stroke:#000000;stroke-linecap:butt;stroke-linejoin:miter;stroke-miterlimit:10.43299961;stroke-opacity:1;stroke-dasharray:none;stroke-dashoffset:0">
<path
   id="path13365"
   d="m 228.02,480.42 0,0.15 -0.01,0.15 0,0.15 -0.01,0.15 -0.01,0.14 -0.01,0.15 -0.01,0.15 -0.02,0.15 -0.02,0.14 -0.03,0.15 -0.03,0.14 -0.04,0.15 -0.04,0.14 -0.05,0.14 -0.06,0.14 -0.03,0.07 -0.03,0.07 c -0.46,0.95 -1.28,1.11 -1.7,1.11 -0.59,0 -1.32,-0.25 -1.73,-1.18 -0.32,-0.69 -0.37,-1.46 -0.37,-2.26 0,-0.75 0.04,-1.64 0.45,-2.4 0.43,-0.81 1.16,-1 1.64,-1 v 0.21 c -0.39,0 -0.97,0.25 -1.15,1.21 -0.11,0.6 -0.11,1.51 -0.11,2.1 0,0.64 0,1.29 0.08,1.83 0.19,1.18 0.93,1.27 1.18,1.27 0.33,0 0.99,-0.18 1.18,-1.16 0.1,-0.56 0.1,-1.31 0.1,-1.94 0,-0.75 0,-1.42 -0.11,-2.06 -0.15,-0.95 -0.72,-1.25 -1.17,-1.25 h 0 v -0.21 c 0.54,0 1.3,0.21 1.74,1.15 0.32,0.69 0.37,1.46 0.37,2.25 z"
   style="fill:#000000;fill-opacity:1;stroke-width:0" />
<path
   id="path13367"
   d="m 230.44,477.24 0,0.06 -0.01,0.06 0,0.06 0,0.05 -0.01,0.06 -0.01,0.05 -0.01,0.05 -0.01,0.05 -0.01,0.04 -0.01,0.05 -0.01,0.04 -0.02,0.05 -0.02,0.04 -0.01,0.03 -0.02,0.04 -0.02,0.04 -0.02,0.03 -0.03,0.03 -0.02,0.03 -0.02,0.03 -0.03,0.02 -0.03,0.03 -0.02,0.02 -0.03,0.02 -0.03,0.01 -0.03,0.02 -0.04,0.01 -0.03,0.01 -0.03,0.01 -0.04,0.01 -0.03,0 -0.04,0 c -0.35,0 -0.53,-0.27 -0.53,-0.53 0,-0.26 0.17,-0.53 0.53,-0.53 0.16,0 0.28,0.07 0.38,0.14 l 0.02,0.02 c 0.01,0 0.02,-0.01 0.02,-0.15 0,-0.63 -0.28,-1.24 -0.72,-1.71 -0.06,-0.06 -0.07,-0.07 -0.07,-0.11 0,-0.07 0.05,-0.11 0.1,-0.11 0.12,0 0.91,0.79 0.91,1.93 z"
   style="fill:#000000;fill-opacity:1;stroke-width:0" />
<path
   id="path13369"
   d="m 235.77,480.42 0,0.15 -0.01,0.15 0,0.15 -0.01,0.15 -0.01,0.14 -0.01,0.15 -0.01,0.15 -0.02,0.15 -0.03,0.14 -0.02,0.15 -0.04,0.14 -0.03,0.15 -0.05,0.14 -0.04,0.14 -0.06,0.14 -0.03,0.07 -0.03,0.07 c -0.46,0.95 -1.28,1.11 -1.7,1.11 -0.6,0 -1.32,-0.25 -1.73,-1.18 -0.32,-0.69 -0.37,-1.46 -0.37,-2.26 0,-0.75 0.04,-1.64 0.45,-2.4 0.43,-0.81 1.16,-1 1.64,-1 v 0.21 c -0.39,0 -0.97,0.25 -1.15,1.21 -0.11,0.6 -0.11,1.51 -0.11,2.1 0,0.64 0,1.29 0.08,1.83 0.19,1.18 0.93,1.27 1.18,1.27 0.33,0 0.99,-0.18 1.18,-1.16 0.1,-0.56 0.1,-1.31 0.1,-1.94 0,-0.75 0,-1.42 -0.11,-2.06 -0.15,-0.95 -0.72,-1.25 -1.17,-1.25 h 0 v -0.21 c 0.54,0 1.3,0.21 1.74,1.15 0.32,0.69 0.37,1.46 0.37,2.25 z"
   style="fill:#000000;fill-opacity:1;stroke-width:0" />
</g><g
     id="g5689"
     transform="matrix(1.08,0,0,1.08,79.319888,5.0854105)"
     xml:space="preserve"
     stroke-miterlimit="10.433"
     font-style="normal"
     font-variant="normal"
     font-weight="normal"
     font-stretch="normal"
     font-size-adjust="none"
     letter-spacing="normal"
     word-spacing="normal"
     ns0:text="$-7,5$"
     ns0:preamble="E:\\preamble.tex"
     style="font-style:normal;font-variant:normal;font-weight:normal;font-stretch:normal;letter-spacing:normal;word-spacing:normal;text-anchor:start;fill:none;stroke:#000000;stroke-linecap:butt;stroke-linejoin:miter;stroke-miterlimit:10.43299961;stroke-opacity:1;stroke-dasharray:none;stroke-dashoffset:0">
<path
   d="m 230,479.52 0.03,0 0.03,0 0.04,0.01 0.01,0 0.02,0 0.01,0 0.02,0 0.01,0 0.02,0 0.01,0.01 0.01,0 0.02,0 0.01,0.01 0.01,0 0.01,0.01 0.01,0.01 0.01,0 0.01,0.01 0.01,0.01 0.01,0.01 0.01,0.01 0,0 0.01,0.01 0,0 0,0.01 0.01,0.01 0,0 0,0.01 0,0.01 0,0 0.01,0.01 0,0.01 0,0.01 0,0.01 0,0 0,0.01 0,0.01 c 0,0.2 -0.18,0.2 -0.35,0.2 h -5.39 c -0.17,0 -0.35,0 -0.35,-0.2 0,-0.2 0.18,-0.2 0.35,-0.2 z"
   id="path5691"
   style="fill:#000000;stroke-width:0" />
<path
   d="m 235.93,483.3 0,0.01 0.01,0.01 0.01,0.01 0.01,0.01 0,0.01 0.01,0 0,0.01 0.01,0.01 0,0.01 0.01,0.01 0,0.01 0,0 0.01,0.01 0,0.01 0,0.01 0,0.01 0.01,0.01 0,0 0,0.01 0,0.01 0,0.01 0,0.01 0,0.02 0,0.01 0.01,0.01 0,0.01 0,0.02 0,0.01 0,0.02 0,0.02 0,0.01 0,0.01 0,0.01 h -2.43 c -1.21,0 -1.23,0.13 -1.27,0.32 h -0.25 l -0.33,-2.05 h 0.25 c 0.03,0.16 0.12,0.79 0.25,0.91 0.07,0.06 0.85,0.06 0.97,0.06 h 2.07 c -0.11,-0.16 -0.9,-1.25 -1.12,-1.57 -0.9,-1.35 -1.23,-2.73 -1.23,-3.75 0,-0.1 0,-0.54 0.46,-0.54 0.46,0 0.46,0.44 0.46,0.54 v 0.51 c 0,0.55 0.03,1.1 0.11,1.63 0.04,0.23 0.18,1.09 0.62,1.7 z"
   id="path5693"
   style="fill:#000000;stroke-width:0" />
<path
   d="m 238.19,477.24 0,0.07 -0.01,0.06 0,0.05 -0.01,0.06 0,0.05 -0.01,0.06 -0.01,0.05 -0.01,0.05 -0.01,0.04 -0.01,0.05 -0.02,0.04 -0.01,0.04 -0.02,0.04 -0.02,0.04 -0.02,0.04 -0.02,0.03 -0.02,0.04 -0.02,0.03 -0.02,0.03 -0.03,0.02 -0.03,0.03 -0.02,0.02 -0.03,0.02 -0.03,0.02 -0.03,0.02 -0.03,0.01 -0.03,0.01 -0.03,0.01 -0.04,0.01 -0.03,0.01 -0.04,0 -0.03,0 c -0.33,0 -0.53,-0.25 -0.53,-0.53 0,-0.27 0.2,-0.53 0.53,-0.53 0.12,0 0.25,0.04 0.35,0.13 0.03,0.02 0.04,0.03 0.05,0.03 0.01,0 0.02,-0.01 0.02,-0.15 0,-0.73 -0.35,-1.33 -0.68,-1.66 -0.11,-0.11 -0.11,-0.13 -0.11,-0.16 0,-0.07 0.05,-0.11 0.1,-0.11 0.11,0 0.91,0.77 0.91,1.93 z"
   id="path5695"
   style="fill:#000000;stroke-width:0" />
<path
   d="m 245.07,479.23 -0.01,0.12 0,0.1 -0.02,0.11 -0.01,0.11 -0.02,0.1 -0.03,0.11 -0.03,0.1 -0.03,0.1 -0.04,0.09 -0.04,0.1 -0.04,0.09 -0.05,0.09 -0.05,0.08 -0.06,0.08 -0.06,0.08 -0.06,0.08 -0.06,0.07 -0.07,0.07 -0.07,0.07 -0.08,0.06 -0.07,0.05 -0.08,0.06 -0.08,0.05 -0.09,0.04 -0.08,0.04 -0.09,0.04 -0.09,0.03 -0.1,0.02 -0.09,0.02 -0.1,0.01 -0.1,0.01 -0.1,0.01 c -0.48,0 -0.91,-0.16 -1.26,-0.51 v 1.94 c 0.19,-0.06 0.52,-0.13 0.84,-0.13 1.23,0 1.93,0.91 1.93,1.03 0,0.06 -0.03,0.11 -0.1,0.11 -0.01,0 -0.03,0 -0.08,-0.03 -0.2,-0.09 -0.69,-0.28 -1.36,-0.28 -0.4,0 -0.85,0.06 -1.32,0.27 -0.08,0.03 -0.1,0.03 -0.12,0.03 -0.1,0 -0.1,-0.08 -0.1,-0.24 v -2.94 c 0,-0.18 0,-0.26 0.14,-0.26 0.07,0 0.09,0.03 0.13,0.09 0.11,0.16 0.47,0.7 1.28,0.7 0.52,0 0.77,-0.46 0.85,-0.64 0.16,-0.37 0.18,-0.76 0.18,-1.26 0,-0.34 0,-0.94 -0.24,-1.36 -0.24,-0.39 -0.61,-0.64 -1.07,-0.64 -0.72,0 -1.29,0.52 -1.46,1.11 0.03,-0.01 0.06,-0.02 0.17,-0.02 0.33,0 0.49,0.25 0.49,0.49 0,0.24 -0.16,0.48 -0.49,0.48 -0.14,0 -0.49,-0.06 -0.49,-0.52 0,-0.86 0.69,-1.82 1.8,-1.82 1.16,0 2.18,0.95 2.18,2.21 z"
   id="path5697"
   style="fill:#000000;stroke-width:0" />
</g><g
     id="g5976"
     transform="matrix(1.08,0,0,1.08,79.319888,-24.306589)"
     xml:space="preserve"
     stroke-miterlimit="10.433"
     font-style="normal"
     font-variant="normal"
     font-weight="normal"
     font-stretch="normal"
     font-size-adjust="none"
     letter-spacing="normal"
     word-spacing="normal"
     ns0:text="$-15,0$"
     ns0:preamble="E:\\preamble.tex"
     style="font-style:normal;font-variant:normal;font-weight:normal;font-stretch:normal;letter-spacing:normal;word-spacing:normal;text-anchor:start;fill:none;stroke:#000000;stroke-linecap:butt;stroke-linejoin:miter;stroke-miterlimit:10.43299961;stroke-opacity:1;stroke-dasharray:none;stroke-dashoffset:0">
<path
   d="m 230,479.52 0.03,0 0.03,0 0.04,0.01 0.01,0 0.02,0 0.01,0 0.02,0 0.01,0 0.02,0 0.01,0.01 0.01,0 0.02,0 0.01,0.01 0.01,0 0.01,0.01 0.01,0.01 0.01,0 0.01,0.01 0.01,0.01 0.01,0.01 0.01,0.01 0,0 0.01,0.01 0,0 0,0.01 0.01,0.01 0,0 0,0.01 0,0.01 0,0 0.01,0.01 0,0.01 0,0.01 0,0.01 0,0 0,0.01 0,0.01 c 0,0.2 -0.18,0.2 -0.35,0.2 h -5.39 c -0.17,0 -0.35,0 -0.35,-0.2 0,-0.2 0.18,-0.2 0.35,-0.2 z"
   id="path5978"
   style="fill:#000000;stroke-width:0" />
<path
   d="m 234.11,483.61 0,0.01 0,0.01 0,0.01 0,0.01 0,0.01 0,0.01 0,0.01 0,0 0,0.01 0,0.01 0,0.01 0,0.01 0,0 0,0.01 0,0.01 0,0.01 0,0 0,0.01 -0.01,0.01 0,0.01 0,0.01 0,0.01 -0.01,0.01 0,0.01 -0.01,0 0,0.01 -0.01,0 -0.01,0.01 0,0 -0.01,0.01 -0.01,0 0,0 -0.01,0 0,0 -0.01,0.01 -0.01,0 0,0 -0.01,0 0,0 -0.01,0 -0.01,0 -0.01,0 0,0 -0.01,0 -0.01,0 -0.01,0 -0.01,0 -0.01,0 -0.01,0 -0.01,0 -0.01,0 -0.01,0 c -0.62,-0.63 -1.49,-0.63 -1.81,-0.63 v -0.31 c 0.2,0 0.79,0 1.3,0.26 v -5.16 c 0,-0.36 -0.03,-0.48 -0.92,-0.48 h -0.32 v -0.31 c 0.35,0.04 1.21,0.04 1.61,0.04 0.4,0 1.27,0 1.62,-0.04 v 0.31 h -0.32 c -0.9,0 -0.93,0.11 -0.93,0.48 z"
   id="path5980"
   style="fill:#000000;stroke-width:0" />
<path
   d="m 240.64,479.23 0,0.12 -0.01,0.1 -0.01,0.11 -0.02,0.11 -0.02,0.1 -0.02,0.11 -0.03,0.1 -0.04,0.1 -0.03,0.09 -0.04,0.1 -0.05,0.09 -0.05,0.09 -0.05,0.08 -0.05,0.08 -0.06,0.08 -0.07,0.08 -0.06,0.07 -0.07,0.07 -0.07,0.07 -0.07,0.06 -0.08,0.05 -0.08,0.06 -0.08,0.05 -0.09,0.04 -0.08,0.04 -0.09,0.04 -0.09,0.03 -0.1,0.02 -0.09,0.02 -0.1,0.01 -0.1,0.01 -0.1,0.01 c -0.47,0 -0.9,-0.16 -1.26,-0.51 v 1.94 c 0.2,-0.06 0.53,-0.13 0.84,-0.13 1.23,0 1.93,0.91 1.93,1.03 0,0.06 -0.03,0.11 -0.1,0.11 -0.01,0 -0.03,0 -0.08,-0.03 -0.2,-0.09 -0.69,-0.28 -1.36,-0.28 -0.39,0 -0.85,0.06 -1.32,0.27 -0.08,0.03 -0.1,0.03 -0.12,0.03 -0.1,0 -0.1,-0.08 -0.1,-0.24 v -2.94 c 0,-0.18 0,-0.26 0.14,-0.26 0.07,0 0.09,0.03 0.13,0.09 0.11,0.16 0.48,0.7 1.28,0.7 0.52,0 0.77,-0.46 0.85,-0.64 0.16,-0.37 0.18,-0.76 0.18,-1.26 0,-0.34 0,-0.94 -0.24,-1.36 -0.24,-0.39 -0.61,-0.64 -1.06,-0.64 -0.73,0 -1.3,0.52 -1.47,1.11 0.03,-0.01 0.06,-0.02 0.17,-0.02 0.33,0 0.5,0.25 0.5,0.49 0,0.24 -0.17,0.48 -0.5,0.48 -0.14,0 -0.49,-0.06 -0.49,-0.52 0,-0.86 0.69,-1.82 1.8,-1.82 1.16,0 2.18,0.95 2.18,2.21 z"
   id="path5982"
   style="fill:#000000;stroke-width:0" />
<path
   d="m 243.17,477.24 0,0.07 0,0.06 -0.01,0.05 0,0.06 -0.01,0.05 -0.01,0.06 -0.01,0.05 -0.01,0.05 -0.01,0.04 -0.01,0.05 -0.02,0.04 -0.01,0.04 -0.02,0.04 -0.02,0.04 -0.02,0.04 -0.02,0.03 -0.02,0.04 -0.02,0.03 -0.02,0.03 -0.03,0.02 -0.02,0.03 -0.03,0.02 -0.03,0.02 -0.03,0.02 -0.03,0.02 -0.03,0.01 -0.03,0.01 -0.03,0.01 -0.03,0.01 -0.04,0.01 -0.03,0 -0.04,0 c -0.33,0 -0.53,-0.25 -0.53,-0.53 0,-0.27 0.2,-0.53 0.53,-0.53 0.12,0 0.25,0.04 0.35,0.13 0.03,0.02 0.04,0.03 0.05,0.03 0.01,0 0.02,-0.01 0.02,-0.15 0,-0.73 -0.35,-1.33 -0.68,-1.66 -0.11,-0.11 -0.11,-0.13 -0.11,-0.16 0,-0.07 0.05,-0.11 0.1,-0.11 0.11,0 0.91,0.77 0.91,1.93 z"
   id="path5984"
   style="fill:#000000;stroke-width:0" />
<path
   d="m 250.16,480.42 0,0.15 -0.01,0.15 0,0.15 -0.01,0.15 -0.01,0.14 -0.01,0.15 -0.01,0.15 -0.02,0.15 -0.03,0.14 -0.02,0.15 -0.04,0.14 -0.03,0.15 -0.05,0.14 -0.04,0.14 -0.06,0.14 -0.03,0.07 -0.03,0.07 c -0.46,0.95 -1.28,1.11 -1.7,1.11 -0.6,0 -1.32,-0.25 -1.73,-1.18 -0.32,-0.69 -0.37,-1.46 -0.37,-2.26 0,-0.75 0.04,-1.64 0.45,-2.4 0.43,-0.81 1.16,-1 1.64,-1 v 0.21 c -0.39,0 -0.97,0.25 -1.15,1.21 -0.11,0.6 -0.11,1.51 -0.11,2.1 0,0.64 0,1.29 0.08,1.83 0.19,1.18 0.93,1.27 1.18,1.27 0.33,0 0.99,-0.18 1.18,-1.16 0.1,-0.56 0.1,-1.31 0.1,-1.94 0,-0.75 0,-1.42 -0.11,-2.06 -0.15,-0.95 -0.72,-1.25 -1.17,-1.25 h 0 v -0.21 c 0.54,0 1.3,0.21 1.74,1.15 0.32,0.69 0.37,1.46 0.37,2.25 z"
   id="path5986"
   style="fill:#000000;stroke-width:0" />
</g><g
     id="g6269"
     transform="matrix(1.08,0,0,1.08,79.319888,-53.653789)"
     xml:space="preserve"
     stroke-miterlimit="10.433"
     font-style="normal"
     font-variant="normal"
     font-weight="normal"
     font-stretch="normal"
     font-size-adjust="none"
     letter-spacing="normal"
     word-spacing="normal"
     ns0:text="$-22,5$"
     ns0:preamble="E:\\preamble.tex"
     style="font-style:normal;font-variant:normal;font-weight:normal;font-stretch:normal;letter-spacing:normal;word-spacing:normal;text-anchor:start;fill:none;stroke:#000000;stroke-linecap:butt;stroke-linejoin:miter;stroke-miterlimit:10.43299961;stroke-opacity:1;stroke-dasharray:none;stroke-dashoffset:0">
<path
   d="m 230,479.52 0.03,0 0.03,0 0.04,0.01 0.01,0 0.02,0 0.01,0 0.02,0 0.01,0 0.02,0 0.01,0.01 0.01,0 0.02,0 0.01,0.01 0.01,0 0.01,0.01 0.01,0.01 0.01,0 0.01,0.01 0.01,0.01 0.01,0.01 0.01,0.01 0,0 0.01,0.01 0,0 0,0.01 0.01,0.01 0,0 0,0.01 0,0.01 0,0 0.01,0.01 0,0.01 0,0.01 0,0.01 0,0 0,0.01 0,0.01 c 0,0.2 -0.18,0.2 -0.35,0.2 h -5.39 c -0.17,0 -0.35,0 -0.35,-0.2 0,-0.2 0.18,-0.2 0.35,-0.2 z"
   id="path6271"
   style="fill:#000000;stroke-width:0" />
<path
   d="m 232.45,478 1.05,1.03 c 1.56,1.37 2.16,1.91 2.16,2.9 0,1.14 -0.9,1.93 -2.12,1.93 -1.12,0 -1.86,-0.91 -1.86,-1.8 0,-0.55 0.5,-0.55 0.53,-0.55 0.17,0 0.52,0.11 0.52,0.52 0,0.26 -0.18,0.52 -0.53,0.52 -0.08,0 -0.1,0 -0.13,-0.01 0.23,0.65 0.77,1.01 1.34,1.01 0.91,0 1.34,-0.8 1.34,-1.62 0,-0.79 -0.5,-1.58 -1.05,-2.2 l -1.91,-2.13 c -0.11,-0.11 -0.11,-0.13 -0.11,-0.37 h 3.7 l 0.28,1.74 h -0.25 c -0.05,-0.3 -0.12,-0.74 -0.22,-0.89 C 235.12,478 234.46,478 234.24,478 z"
   id="path6273"
   style="fill:#000000;stroke-width:0" />
<path
   d="m 237.43,478 1.06,1.03 c 1.55,1.37 2.15,1.91 2.15,2.9 0,1.14 -0.9,1.93 -2.12,1.93 -1.12,0 -1.86,-0.91 -1.86,-1.8 0,-0.55 0.5,-0.55 0.53,-0.55 0.17,0 0.52,0.11 0.52,0.52 0,0.26 -0.18,0.52 -0.53,0.52 -0.08,0 -0.1,0 -0.13,-0.01 0.23,0.65 0.77,1.01 1.35,1.01 0.9,0 1.33,-0.8 1.33,-1.62 0,-0.79 -0.5,-1.58 -1.05,-2.2 l -1.91,-2.13 c -0.11,-0.11 -0.11,-0.13 -0.11,-0.37 h 3.7 l 0.28,1.74 h -0.25 c -0.05,-0.3 -0.12,-0.74 -0.22,-0.89 C 240.1,478 239.44,478 239.22,478 z"
   id="path6275"
   style="fill:#000000;stroke-width:0" />
<path
   d="m 243.17,477.24 0,0.07 0,0.06 -0.01,0.05 0,0.06 -0.01,0.05 -0.01,0.06 -0.01,0.05 -0.01,0.05 -0.01,0.04 -0.01,0.05 -0.02,0.04 -0.01,0.04 -0.02,0.04 -0.02,0.04 -0.02,0.04 -0.02,0.03 -0.02,0.04 -0.02,0.03 -0.02,0.03 -0.03,0.02 -0.02,0.03 -0.03,0.02 -0.03,0.02 -0.03,0.02 -0.03,0.02 -0.03,0.01 -0.03,0.01 -0.03,0.01 -0.03,0.01 -0.04,0.01 -0.03,0 -0.04,0 c -0.33,0 -0.53,-0.25 -0.53,-0.53 0,-0.27 0.2,-0.53 0.53,-0.53 0.12,0 0.25,0.04 0.35,0.13 0.03,0.02 0.04,0.03 0.05,0.03 0.01,0 0.02,-0.01 0.02,-0.15 0,-0.73 -0.35,-1.33 -0.68,-1.66 -0.11,-0.11 -0.11,-0.13 -0.11,-0.16 0,-0.07 0.05,-0.11 0.1,-0.11 0.11,0 0.91,0.77 0.91,1.93 z"
   id="path6277"
   style="fill:#000000;stroke-width:0" />
<path
   d="m 250.05,479.23 -0.01,0.12 0,0.1 -0.01,0.11 -0.02,0.11 -0.02,0.1 -0.03,0.11 -0.02,0.1 -0.04,0.1 -0.03,0.09 -0.05,0.1 -0.04,0.09 -0.05,0.09 -0.05,0.08 -0.06,0.08 -0.05,0.08 -0.07,0.08 -0.06,0.07 -0.07,0.07 -0.07,0.07 -0.07,0.06 -0.08,0.05 -0.08,0.06 -0.08,0.05 -0.09,0.04 -0.08,0.04 -0.09,0.04 -0.09,0.03 -0.1,0.02 -0.09,0.02 -0.1,0.01 -0.1,0.01 -0.1,0.01 c -0.48,0 -0.9,-0.16 -1.26,-0.51 v 1.94 c 0.2,-0.06 0.52,-0.13 0.84,-0.13 1.23,0 1.93,0.91 1.93,1.03 0,0.06 -0.03,0.11 -0.1,0.11 -0.01,0 -0.03,0 -0.08,-0.03 -0.2,-0.09 -0.69,-0.28 -1.36,-0.28 -0.4,0 -0.85,0.06 -1.32,0.27 -0.08,0.03 -0.1,0.03 -0.12,0.03 -0.1,0 -0.1,-0.08 -0.1,-0.24 v -2.94 c 0,-0.18 0,-0.26 0.14,-0.26 0.07,0 0.09,0.03 0.13,0.09 0.11,0.16 0.47,0.7 1.28,0.7 0.52,0 0.77,-0.46 0.85,-0.64 0.16,-0.37 0.18,-0.76 0.18,-1.26 0,-0.34 0,-0.94 -0.24,-1.36 -0.24,-0.39 -0.61,-0.64 -1.07,-0.64 -0.72,0 -1.29,0.52 -1.46,1.11 0.03,-0.01 0.06,-0.02 0.17,-0.02 0.33,0 0.5,0.25 0.5,0.49 0,0.24 -0.17,0.48 -0.5,0.48 -0.14,0 -0.49,-0.06 -0.49,-0.52 0,-0.86 0.69,-1.82 1.8,-1.82 1.16,0 2.18,0.95 2.18,2.21 z"
   id="path6279"
   style="fill:#000000;stroke-width:0" />
</g><g
     id="g6562"
     transform="matrix(1.08,0,0,1.08,79.319888,-83.000989)"
     xml:space="preserve"
     stroke-miterlimit="10.433"
     font-style="normal"
     font-variant="normal"
     font-weight="normal"
     font-stretch="normal"
     font-size-adjust="none"
     letter-spacing="normal"
     word-spacing="normal"
     ns0:text="$-30,0$"
     ns0:preamble="E:\\preamble.tex"
     style="font-style:normal;font-variant:normal;font-weight:normal;font-stretch:normal;letter-spacing:normal;word-spacing:normal;text-anchor:start;fill:none;stroke:#000000;stroke-linecap:butt;stroke-linejoin:miter;stroke-miterlimit:10.43299961;stroke-opacity:1;stroke-dasharray:none;stroke-dashoffset:0">
<path
   d="m 230,479.52 0.03,0 0.03,0 0.04,0.01 0.01,0 0.02,0 0.01,0 0.02,0 0.01,0 0.02,0 0.01,0.01 0.01,0 0.02,0 0.01,0.01 0.01,0 0.01,0.01 0.01,0.01 0.01,0 0.01,0.01 0.01,0.01 0.01,0.01 0.01,0.01 0,0 0.01,0.01 0,0 0,0.01 0.01,0.01 0,0 0,0.01 0,0.01 0,0 0.01,0.01 0,0.01 0,0.01 0,0.01 0,0 0,0.01 0,0.01 c 0,0.2 -0.18,0.2 -0.35,0.2 h -5.39 c -0.17,0 -0.35,0 -0.35,-0.2 0,-0.2 0.18,-0.2 0.35,-0.2 z"
   id="path6564"
   style="fill:#000000;stroke-width:0" />
<path
   d="m 234.07,480.74 0.08,0.02 0.07,0.03 0.08,0.03 0.07,0.04 0.07,0.03 0.06,0.04 0.07,0.04 0.06,0.04 0.07,0.05 0.06,0.05 0.06,0.04 0.05,0.05 0.06,0.06 0.05,0.05 0.05,0.05 0.05,0.06 0.04,0.06 0.04,0.06 0.04,0.06 0.04,0.06 0.04,0.06 0.03,0.07 0.03,0.07 0.02,0.06 0.03,0.07 0.02,0.07 0.02,0.07 0.01,0.07 0.01,0.07 0.01,0.07 0.01,0.08 0,0.07 c 0,0.82 -0.88,1.37 -1.84,1.37 -1,0 -1.76,-0.59 -1.76,-1.35 0,-0.33 0.22,-0.52 0.51,-0.52 0.31,0 0.51,0.22 0.51,0.51 0,0.5 -0.47,0.5 -0.62,0.5 0.31,0.48 0.96,0.61 1.32,0.61 0.41,0 0.96,-0.21 0.96,-1.11 0,-0.12 -0.02,-0.7 -0.28,-1.14 -0.3,-0.47 -0.64,-0.5 -0.89,-0.51 -0.08,-0.01 -0.31,-0.03 -0.39,-0.03 -0.08,-0.01 -0.14,-0.02 -0.14,-0.12 0,-0.11 0.06,-0.11 0.24,-0.11 h 0.43 c 0.82,0 1.19,-0.68 1.19,-1.65 0,-1.36 -0.69,-1.64 -1.13,-1.64 -0.43,0 -1.17,0.16 -1.52,0.75 0.35,-0.05 0.66,0.17 0.66,0.55 0,0.36 -0.27,0.56 -0.56,0.56 -0.24,0 -0.56,-0.14 -0.56,-0.58 0,-0.91 0.93,-1.56 2.01,-1.56 1.22,0 2.13,0.9 2.13,1.92 0,0.81 -0.63,1.59 -1.67,1.8 z"
   id="path6566"
   style="fill:#000000;stroke-width:0" />
<path
   d="m 240.75,480.42 0,0.15 0,0.15 -0.01,0.15 -0.01,0.15 0,0.14 -0.02,0.15 -0.01,0.15 -0.02,0.15 -0.02,0.14 -0.03,0.15 -0.03,0.14 -0.04,0.15 -0.04,0.14 -0.05,0.14 -0.06,0.14 -0.03,0.07 -0.03,0.07 c -0.46,0.95 -1.28,1.11 -1.7,1.11 -0.59,0 -1.32,-0.25 -1.73,-1.18 -0.32,-0.69 -0.37,-1.46 -0.37,-2.26 0,-0.75 0.04,-1.64 0.45,-2.4 0.43,-0.81 1.16,-1 1.64,-1 v 0.21 c -0.38,0 -0.97,0.25 -1.15,1.21 -0.11,0.6 -0.11,1.51 -0.11,2.1 0,0.64 0,1.29 0.08,1.83 0.19,1.18 0.94,1.27 1.18,1.27 0.33,0 0.99,-0.18 1.18,-1.16 0.1,-0.56 0.1,-1.31 0.1,-1.94 0,-0.75 0,-1.42 -0.11,-2.06 -0.15,-0.95 -0.72,-1.25 -1.17,-1.25 h 0 v -0.21 c 0.54,0 1.3,0.21 1.74,1.15 0.32,0.69 0.37,1.46 0.37,2.25 z"
   id="path6568"
   style="fill:#000000;stroke-width:0" />
<path
   d="m 243.17,477.24 0,0.07 0,0.06 -0.01,0.05 0,0.06 -0.01,0.05 -0.01,0.06 -0.01,0.05 -0.01,0.05 -0.01,0.04 -0.01,0.05 -0.02,0.04 -0.01,0.04 -0.02,0.04 -0.02,0.04 -0.02,0.04 -0.02,0.03 -0.02,0.04 -0.02,0.03 -0.02,0.03 -0.03,0.02 -0.02,0.03 -0.03,0.02 -0.03,0.02 -0.03,0.02 -0.03,0.02 -0.03,0.01 -0.03,0.01 -0.03,0.01 -0.03,0.01 -0.04,0.01 -0.03,0 -0.04,0 c -0.33,0 -0.53,-0.25 -0.53,-0.53 0,-0.27 0.2,-0.53 0.53,-0.53 0.12,0 0.25,0.04 0.35,0.13 0.03,0.02 0.04,0.03 0.05,0.03 0.01,0 0.02,-0.01 0.02,-0.15 0,-0.73 -0.35,-1.33 -0.68,-1.66 -0.11,-0.11 -0.11,-0.13 -0.11,-0.16 0,-0.07 0.05,-0.11 0.1,-0.11 0.11,0 0.91,0.77 0.91,1.93 z"
   id="path6570"
   style="fill:#000000;stroke-width:0" />
<path
   d="m 250.16,480.42 0,0.15 -0.01,0.15 0,0.15 -0.01,0.15 -0.01,0.14 -0.01,0.15 -0.01,0.15 -0.02,0.15 -0.03,0.14 -0.02,0.15 -0.04,0.14 -0.03,0.15 -0.05,0.14 -0.04,0.14 -0.06,0.14 -0.03,0.07 -0.03,0.07 c -0.46,0.95 -1.28,1.11 -1.7,1.11 -0.6,0 -1.32,-0.25 -1.73,-1.18 -0.32,-0.69 -0.37,-1.46 -0.37,-2.26 0,-0.75 0.04,-1.64 0.45,-2.4 0.43,-0.81 1.16,-1 1.64,-1 v 0.21 c -0.39,0 -0.97,0.25 -1.15,1.21 -0.11,0.6 -0.11,1.51 -0.11,2.1 0,0.64 0,1.29 0.08,1.83 0.19,1.18 0.93,1.27 1.18,1.27 0.33,0 0.99,-0.18 1.18,-1.16 0.1,-0.56 0.1,-1.31 0.1,-1.94 0,-0.75 0,-1.42 -0.11,-2.06 -0.15,-0.95 -0.72,-1.25 -1.17,-1.25 h 0 v -0.21 c 0.54,0 1.3,0.21 1.74,1.15 0.32,0.69 0.37,1.46 0.37,2.25 z"
   id="path6572"
   style="fill:#000000;stroke-width:0" />
</g><g
     id="g6855"
     transform="matrix(1.08,0,0,1.08,2.989275,-201.60139)"
     xml:space="preserve"
     stroke-miterlimit="10.433"
     font-style="normal"
     font-variant="normal"
     font-weight="normal"
     font-stretch="normal"
     font-size-adjust="none"
     letter-spacing="normal"
     word-spacing="normal"
     ns0:text="$210$"
     ns0:preamble="E:\\preamble.tex"
     style="font-style:normal;font-variant:normal;font-weight:normal;font-stretch:normal;letter-spacing:normal;word-spacing:normal;text-anchor:start;fill:none;stroke:#000000;stroke-linecap:butt;stroke-linejoin:miter;stroke-miterlimit:10.43299961;stroke-opacity:1;stroke-dasharray:none;stroke-dashoffset:0">
<path
   d="m 224.7,478 1.06,1.03 c 1.55,1.37 2.15,1.91 2.15,2.9 0,1.14 -0.9,1.93 -2.12,1.93 -1.12,0 -1.86,-0.91 -1.86,-1.8 0,-0.55 0.5,-0.55 0.53,-0.55 0.17,0 0.52,0.11 0.52,0.52 0,0.26 -0.18,0.52 -0.53,0.52 -0.08,0 -0.1,0 -0.13,-0.01 0.23,0.65 0.77,1.01 1.34,1.01 0.91,0 1.34,-0.8 1.34,-1.62 0,-0.79 -0.5,-1.58 -1.05,-2.2 l -1.91,-2.13 c -0.11,-0.11 -0.11,-0.13 -0.11,-0.37 h 3.7 l 0.28,1.74 h -0.25 c -0.05,-0.3 -0.12,-0.74 -0.22,-0.89 C 227.37,478 226.71,478 226.49,478 z"
   id="path6857"
   style="fill:#000000;stroke-width:0" />
<path
   d="m 231.34,483.61 0,0.01 0,0.01 0,0.01 0,0.01 0,0.01 0,0.01 0,0.01 0,0 0,0.01 0,0.01 0,0.01 0,0.01 0,0 0,0.01 0,0.01 0,0.01 0,0 0,0.01 0,0.01 -0.01,0.01 0,0.01 0,0.01 -0.01,0.01 0,0.01 0,0 -0.01,0.01 -0.01,0 0,0.01 -0.01,0 -0.01,0.01 -0.01,0 0,0 -0.01,0 0,0 -0.01,0.01 0,0 -0.01,0 -0.01,0 0,0 -0.01,0 -0.01,0 0,0 -0.01,0 -0.01,0 -0.01,0 -0.01,0 -0.01,0 0,0 -0.01,0 -0.01,0 -0.01,0 -0.01,0 c -0.62,-0.63 -1.5,-0.63 -1.82,-0.63 v -0.31 c 0.2,0 0.79,0 1.31,0.26 v -5.16 c 0,-0.36 -0.03,-0.48 -0.93,-0.48 h -0.32 v -0.31 c 0.35,0.04 1.22,0.04 1.62,0.04 0.39,0 1.26,0 1.61,-0.04 v 0.31 h -0.32 c -0.9,0 -0.93,0.11 -0.93,0.48 z"
   id="path6859"
   style="fill:#000000;stroke-width:0" />
<path
   d="m 237.98,480.42 0,0.15 0,0.15 -0.01,0.15 0,0.15 -0.01,0.14 -0.01,0.15 -0.02,0.15 -0.02,0.15 -0.02,0.14 -0.03,0.15 -0.03,0.14 -0.04,0.15 -0.04,0.14 -0.05,0.14 -0.06,0.14 -0.03,0.07 -0.03,0.07 c -0.46,0.95 -1.28,1.11 -1.69,1.11 -0.6,0 -1.33,-0.25 -1.74,-1.18 -0.32,-0.69 -0.37,-1.46 -0.37,-2.26 0,-0.75 0.04,-1.64 0.45,-2.4 0.43,-0.81 1.16,-1 1.65,-1 v 0.21 c -0.39,0 -0.98,0.25 -1.16,1.21 -0.11,0.6 -0.11,1.51 -0.11,2.1 0,0.64 0,1.29 0.08,1.83 0.19,1.18 0.94,1.27 1.19,1.27 0.33,0 0.98,-0.18 1.17,-1.16 0.1,-0.56 0.1,-1.31 0.1,-1.94 0,-0.75 0,-1.42 -0.11,-2.06 -0.15,-0.95 -0.72,-1.25 -1.16,-1.25 h 0 v -0.21 c 0.53,0 1.29,0.21 1.73,1.15 0.32,0.69 0.37,1.46 0.37,2.25 z"
   id="path6861"
   style="fill:#000000;stroke-width:0" />
</g><g
     id="g7136"
     transform="matrix(1.08,0,0,1.08,-44.266912,-154.30539)"
     xml:space="preserve"
     stroke-miterlimit="10.433"
     font-style="normal"
     font-variant="normal"
     font-weight="normal"
     font-stretch="normal"
     font-size-adjust="none"
     letter-spacing="normal"
     word-spacing="normal"
     ns0:text="$240$"
     ns0:preamble="E:\\preamble.tex"
     style="font-style:normal;font-variant:normal;font-weight:normal;font-stretch:normal;letter-spacing:normal;word-spacing:normal;text-anchor:start;fill:none;stroke:#000000;stroke-linecap:butt;stroke-linejoin:miter;stroke-miterlimit:10.43299961;stroke-opacity:1;stroke-dasharray:none;stroke-dashoffset:0">
<path
   d="m 224.7,478 1.06,1.03 c 1.55,1.37 2.15,1.91 2.15,2.9 0,1.14 -0.9,1.93 -2.12,1.93 -1.12,0 -1.86,-0.91 -1.86,-1.8 0,-0.55 0.5,-0.55 0.53,-0.55 0.17,0 0.52,0.11 0.52,0.52 0,0.26 -0.18,0.52 -0.53,0.52 -0.08,0 -0.1,0 -0.13,-0.01 0.23,0.65 0.77,1.01 1.34,1.01 0.91,0 1.34,-0.8 1.34,-1.62 0,-0.79 -0.5,-1.58 -1.05,-2.2 l -1.91,-2.13 c -0.11,-0.11 -0.11,-0.13 -0.11,-0.37 h 3.7 l 0.28,1.74 h -0.25 c -0.05,-0.3 -0.12,-0.74 -0.22,-0.89 C 227.37,478 226.71,478 226.49,478 z"
   id="path7138"
   style="fill:#000000;stroke-width:0" />
<path
   d="m 231.34,478.88 v -0.87 c 0,-0.36 -0.02,-0.47 -0.75,-0.47 h -0.21 v -0.31 c 0.41,0.04 0.92,0.04 1.34,0.04 0.42,0 0.95,0 1.36,-0.04 v 0.31 h -0.21 c -0.74,0 -0.76,0.11 -0.76,0.47 v 0.87 h 1 v 0.31 h -1 v 4.52 c 0,0.2 0,0.26 -0.16,0.26 -0.09,0 -0.12,0 -0.2,-0.12 l -3.06,-4.66 h 0.28 l 2.43,3.71 v -3.71 h -2.43 -0.28 v -0.31 z"
   id="path7140"
   style="fill:#000000;stroke-width:0" />
<path
   d="m 237.98,480.42 0,0.15 0,0.15 -0.01,0.15 0,0.15 -0.01,0.14 -0.01,0.15 -0.02,0.15 -0.02,0.15 -0.02,0.14 -0.03,0.15 -0.03,0.14 -0.04,0.15 -0.04,0.14 -0.05,0.14 -0.06,0.14 -0.03,0.07 -0.03,0.07 c -0.46,0.95 -1.28,1.11 -1.69,1.11 -0.6,0 -1.33,-0.25 -1.74,-1.18 -0.32,-0.69 -0.37,-1.46 -0.37,-2.26 0,-0.75 0.04,-1.64 0.45,-2.4 0.43,-0.81 1.16,-1 1.65,-1 v 0.21 c -0.39,0 -0.98,0.25 -1.16,1.21 -0.11,0.6 -0.11,1.51 -0.11,2.1 0,0.64 0,1.29 0.08,1.83 0.19,1.18 0.94,1.27 1.19,1.27 0.33,0 0.98,-0.18 1.17,-1.16 0.1,-0.56 0.1,-1.31 0.1,-1.94 0,-0.75 0,-1.42 -0.11,-2.06 -0.15,-0.95 -0.72,-1.25 -1.16,-1.25 h 0 v -0.21 c 0.53,0 1.29,0.21 1.73,1.15 0.32,0.69 0.37,1.46 0.37,2.25 z"
   id="path7142"
   style="fill:#000000;stroke-width:0" />
</g><g
     id="g7417"
     transform="matrix(1.08,0,0,1.08,-64.56531,-89.76379)"
     xml:space="preserve"
     stroke-miterlimit="10.433"
     font-style="normal"
     font-variant="normal"
     font-weight="normal"
     font-stretch="normal"
     font-size-adjust="none"
     letter-spacing="normal"
     word-spacing="normal"
     ns0:text="$270$"
     ns0:preamble="E:\\preamble.tex"
     style="font-style:normal;font-variant:normal;font-weight:normal;font-stretch:normal;letter-spacing:normal;word-spacing:normal;text-anchor:start;fill:none;stroke:#000000;stroke-linecap:butt;stroke-linejoin:miter;stroke-miterlimit:10.43299961;stroke-opacity:1;stroke-dasharray:none;stroke-dashoffset:0">
<path
   d="m 224.7,478 1.06,1.03 c 1.55,1.37 2.15,1.91 2.15,2.9 0,1.14 -0.9,1.93 -2.12,1.93 -1.12,0 -1.86,-0.91 -1.86,-1.8 0,-0.55 0.5,-0.55 0.53,-0.55 0.17,0 0.52,0.11 0.52,0.52 0,0.26 -0.18,0.52 -0.53,0.52 -0.08,0 -0.1,0 -0.13,-0.01 0.23,0.65 0.77,1.01 1.34,1.01 0.91,0 1.34,-0.8 1.34,-1.62 0,-0.79 -0.5,-1.58 -1.05,-2.2 l -1.91,-2.13 c -0.11,-0.11 -0.11,-0.13 -0.11,-0.37 h 3.7 l 0.28,1.74 h -0.25 c -0.05,-0.3 -0.12,-0.74 -0.22,-0.89 C 227.37,478 226.71,478 226.49,478 z"
   id="path7419"
   style="fill:#000000;stroke-width:0" />
<path
   d="m 233.16,483.3 0.01,0.01 0,0.01 0.01,0.01 0.01,0.01 0,0.01 0.01,0 0.01,0.01 0,0.01 0,0.01 0.01,0.01 0,0.01 0.01,0 0,0.01 0,0.01 0,0.01 0.01,0.01 0,0.01 0,0 0,0.01 0,0.01 0,0.01 0.01,0.01 0,0.02 0,0.01 0,0.01 0,0.01 0,0.02 0,0.01 0,0.02 0,0.02 0,0.01 0,0.01 0,0.01 h -2.42 c -1.22,0 -1.24,0.13 -1.28,0.32 h -0.25 l -0.33,-2.05 h 0.25 c 0.03,0.16 0.12,0.79 0.25,0.91 0.07,0.06 0.85,0.06 0.98,0.06 h 2.06 c -0.11,-0.16 -0.9,-1.25 -1.12,-1.57 -0.89,-1.35 -1.22,-2.73 -1.22,-3.75 0,-0.1 0,-0.54 0.46,-0.54 0.46,0 0.46,0.44 0.46,0.54 v 0.51 c 0,0.55 0.03,1.1 0.11,1.63 0.03,0.23 0.17,1.09 0.61,1.7 z"
   id="path7421"
   style="fill:#000000;stroke-width:0" />
<path
   d="m 237.98,480.42 0,0.15 0,0.15 -0.01,0.15 0,0.15 -0.01,0.14 -0.01,0.15 -0.02,0.15 -0.02,0.15 -0.02,0.14 -0.03,0.15 -0.03,0.14 -0.04,0.15 -0.04,0.14 -0.05,0.14 -0.06,0.14 -0.03,0.07 -0.03,0.07 c -0.46,0.95 -1.28,1.11 -1.69,1.11 -0.6,0 -1.33,-0.25 -1.74,-1.18 -0.32,-0.69 -0.37,-1.46 -0.37,-2.26 0,-0.75 0.04,-1.64 0.45,-2.4 0.43,-0.81 1.16,-1 1.65,-1 v 0.21 c -0.39,0 -0.98,0.25 -1.16,1.21 -0.11,0.6 -0.11,1.51 -0.11,2.1 0,0.64 0,1.29 0.08,1.83 0.19,1.18 0.94,1.27 1.19,1.27 0.33,0 0.98,-0.18 1.17,-1.16 0.1,-0.56 0.1,-1.31 0.1,-1.94 0,-0.75 0,-1.42 -0.11,-2.06 -0.15,-0.95 -0.72,-1.25 -1.16,-1.25 h 0 v -0.21 c 0.53,0 1.29,0.21 1.73,1.15 0.32,0.69 0.37,1.46 0.37,2.25 z"
   id="path7423"
   style="fill:#000000;stroke-width:0" />
</g><g
     id="g7698"
     transform="matrix(1.08,0,0,1.08,-44.605312,-25.246189)"
     xml:space="preserve"
     stroke-miterlimit="10.433"
     font-style="normal"
     font-variant="normal"
     font-weight="normal"
     font-stretch="normal"
     font-size-adjust="none"
     letter-spacing="normal"
     word-spacing="normal"
     ns0:text="$300$"
     ns0:preamble="E:\\preamble.tex"
     style="font-style:normal;font-variant:normal;font-weight:normal;font-stretch:normal;letter-spacing:normal;word-spacing:normal;text-anchor:start;fill:none;stroke:#000000;stroke-linecap:butt;stroke-linejoin:miter;stroke-miterlimit:10.43299961;stroke-opacity:1;stroke-dasharray:none;stroke-dashoffset:0">
<path
   d="m 226.32,480.74 0.08,0.02 0.07,0.03 0.08,0.03 0.07,0.04 0.07,0.03 0.07,0.04 0.06,0.04 0.07,0.04 0.06,0.05 0.06,0.05 0.06,0.04 0.05,0.05 0.06,0.06 0.05,0.05 0.05,0.05 0.05,0.06 0.04,0.06 0.04,0.06 0.04,0.06 0.04,0.06 0.04,0.06 0.03,0.07 0.03,0.07 0.02,0.06 0.03,0.07 0.02,0.07 0.02,0.07 0.01,0.07 0.01,0.07 0.01,0.07 0.01,0.08 0,0.07 c 0,0.82 -0.88,1.37 -1.84,1.37 -1,0 -1.76,-0.59 -1.76,-1.35 0,-0.33 0.22,-0.52 0.51,-0.52 0.31,0 0.51,0.22 0.51,0.51 0,0.5 -0.47,0.5 -0.62,0.5 0.31,0.48 0.97,0.61 1.32,0.61 0.41,0 0.96,-0.21 0.96,-1.11 0,-0.12 -0.02,-0.7 -0.28,-1.14 -0.3,-0.47 -0.64,-0.5 -0.89,-0.51 -0.08,-0.01 -0.31,-0.03 -0.38,-0.03 -0.08,-0.01 -0.15,-0.02 -0.15,-0.12 0,-0.11 0.07,-0.11 0.24,-0.11 h 0.43 c 0.82,0 1.19,-0.68 1.19,-1.65 0,-1.36 -0.69,-1.64 -1.13,-1.64 -0.42,0 -1.17,0.16 -1.52,0.75 0.35,-0.05 0.66,0.17 0.66,0.55 0,0.36 -0.27,0.56 -0.56,0.56 -0.24,0 -0.56,-0.14 -0.56,-0.58 0,-0.91 0.93,-1.56 2.01,-1.56 1.22,0 2.13,0.9 2.13,1.92 0,0.81 -0.63,1.59 -1.67,1.8 z"
   id="path7700"
   style="fill:#000000;stroke-width:0" />
<path
   d="m 233,480.42 0,0.15 0,0.15 -0.01,0.15 0,0.15 -0.01,0.14 -0.02,0.15 -0.01,0.15 -0.02,0.15 -0.02,0.14 -0.03,0.15 -0.03,0.14 -0.04,0.15 -0.04,0.14 -0.05,0.14 -0.06,0.14 -0.03,0.07 -0.03,0.07 c -0.46,0.95 -1.28,1.11 -1.7,1.11 -0.59,0 -1.32,-0.25 -1.73,-1.18 -0.32,-0.69 -0.37,-1.46 -0.37,-2.26 0,-0.75 0.04,-1.64 0.45,-2.4 0.43,-0.81 1.16,-1 1.65,-1 v 0.21 c -0.39,0 -0.98,0.25 -1.16,1.21 -0.11,0.6 -0.11,1.51 -0.11,2.1 0,0.64 0,1.29 0.08,1.83 0.19,1.18 0.94,1.27 1.19,1.27 0.32,0 0.98,-0.18 1.17,-1.16 0.1,-0.56 0.1,-1.31 0.1,-1.94 0,-0.75 0,-1.42 -0.11,-2.06 -0.15,-0.95 -0.72,-1.25 -1.16,-1.25 h 0 v -0.21 c 0.53,0 1.29,0.21 1.73,1.15 0.32,0.69 0.37,1.46 0.37,2.25 z"
   id="path7702"
   style="fill:#000000;stroke-width:0" />
<path
   d="m 237.98,480.42 0,0.15 0,0.15 -0.01,0.15 0,0.15 -0.01,0.14 -0.01,0.15 -0.02,0.15 -0.02,0.15 -0.02,0.14 -0.03,0.15 -0.03,0.14 -0.04,0.15 -0.04,0.14 -0.05,0.14 -0.06,0.14 -0.03,0.07 -0.03,0.07 c -0.46,0.95 -1.28,1.11 -1.69,1.11 -0.6,0 -1.33,-0.25 -1.74,-1.18 -0.32,-0.69 -0.37,-1.46 -0.37,-2.26 0,-0.75 0.04,-1.64 0.45,-2.4 0.43,-0.81 1.16,-1 1.65,-1 v 0.21 c -0.39,0 -0.98,0.25 -1.16,1.21 -0.11,0.6 -0.11,1.51 -0.11,2.1 0,0.64 0,1.29 0.08,1.83 0.19,1.18 0.94,1.27 1.19,1.27 0.33,0 0.98,-0.18 1.17,-1.16 0.1,-0.56 0.1,-1.31 0.1,-1.94 0,-0.75 0,-1.42 -0.11,-2.06 -0.15,-0.95 -0.72,-1.25 -1.16,-1.25 h 0 v -0.21 c 0.53,0 1.29,0.21 1.73,1.15 0.32,0.69 0.37,1.46 0.37,2.25 z"
   id="path7704"
   style="fill:#000000;stroke-width:0" />
</g><g
     id="g7979"
     transform="matrix(1.08,0,0,1.08,2.65937,22.102611)"
     xml:space="preserve"
     stroke-miterlimit="10.433"
     font-style="normal"
     font-variant="normal"
     font-weight="normal"
     font-stretch="normal"
     font-size-adjust="none"
     letter-spacing="normal"
     word-spacing="normal"
     ns0:text="$330$"
     ns0:preamble="E:\\preamble.tex"
     style="font-style:normal;font-variant:normal;font-weight:normal;font-stretch:normal;letter-spacing:normal;word-spacing:normal;text-anchor:start;fill:none;stroke:#000000;stroke-linecap:butt;stroke-linejoin:miter;stroke-miterlimit:10.43299961;stroke-opacity:1;stroke-dasharray:none;stroke-dashoffset:0">
<path
   d="m 226.32,480.74 0.08,0.02 0.07,0.03 0.08,0.03 0.07,0.04 0.07,0.03 0.07,0.04 0.06,0.04 0.07,0.04 0.06,0.05 0.06,0.05 0.06,0.04 0.05,0.05 0.06,0.06 0.05,0.05 0.05,0.05 0.05,0.06 0.04,0.06 0.04,0.06 0.04,0.06 0.04,0.06 0.04,0.06 0.03,0.07 0.03,0.07 0.02,0.06 0.03,0.07 0.02,0.07 0.02,0.07 0.01,0.07 0.01,0.07 0.01,0.07 0.01,0.08 0,0.07 c 0,0.82 -0.88,1.37 -1.84,1.37 -1,0 -1.76,-0.59 -1.76,-1.35 0,-0.33 0.22,-0.52 0.51,-0.52 0.31,0 0.51,0.22 0.51,0.51 0,0.5 -0.47,0.5 -0.62,0.5 0.31,0.48 0.97,0.61 1.32,0.61 0.41,0 0.96,-0.21 0.96,-1.11 0,-0.12 -0.02,-0.7 -0.28,-1.14 -0.3,-0.47 -0.64,-0.5 -0.89,-0.51 -0.08,-0.01 -0.31,-0.03 -0.38,-0.03 -0.08,-0.01 -0.15,-0.02 -0.15,-0.12 0,-0.11 0.07,-0.11 0.24,-0.11 h 0.43 c 0.82,0 1.19,-0.68 1.19,-1.65 0,-1.36 -0.69,-1.64 -1.13,-1.64 -0.42,0 -1.17,0.16 -1.52,0.75 0.35,-0.05 0.66,0.17 0.66,0.55 0,0.36 -0.27,0.56 -0.56,0.56 -0.24,0 -0.56,-0.14 -0.56,-0.58 0,-0.91 0.93,-1.56 2.01,-1.56 1.22,0 2.13,0.9 2.13,1.92 0,0.81 -0.63,1.59 -1.67,1.8 z"
   id="path7981"
   style="fill:#000000;stroke-width:0" />
<path
   d="m 231.3,480.74 0.08,0.02 0.07,0.03 0.08,0.03 0.07,0.04 0.07,0.03 0.07,0.04 0.06,0.04 0.07,0.04 0.06,0.05 0.06,0.05 0.06,0.04 0.05,0.05 0.06,0.06 0.05,0.05 0.05,0.05 0.05,0.06 0.04,0.06 0.05,0.06 0.04,0.06 0.03,0.06 0.04,0.06 0.03,0.07 0.03,0.07 0.03,0.06 0.02,0.07 0.02,0.07 0.02,0.07 0.01,0.07 0.02,0.07 0,0.07 0.01,0.08 0,0.07 c 0,0.82 -0.88,1.37 -1.83,1.37 -1.01,0 -1.77,-0.59 -1.77,-1.35 0,-0.33 0.22,-0.52 0.51,-0.52 0.31,0 0.51,0.22 0.51,0.51 0,0.5 -0.47,0.5 -0.62,0.5 0.31,0.48 0.97,0.61 1.33,0.61 0.4,0 0.95,-0.21 0.95,-1.11 0,-0.12 -0.02,-0.7 -0.28,-1.14 -0.3,-0.47 -0.63,-0.5 -0.88,-0.51 -0.08,-0.01 -0.32,-0.03 -0.39,-0.03 -0.08,-0.01 -0.15,-0.02 -0.15,-0.12 0,-0.11 0.07,-0.11 0.24,-0.11 h 0.44 c 0.81,0 1.18,-0.68 1.18,-1.65 0,-1.36 -0.69,-1.64 -1.12,-1.64 -0.43,0 -1.18,0.16 -1.53,0.75 0.35,-0.05 0.66,0.17 0.66,0.55 0,0.36 -0.27,0.56 -0.56,0.56 -0.24,0 -0.56,-0.14 -0.56,-0.58 0,-0.91 0.93,-1.56 2.02,-1.56 1.21,0 2.12,0.9 2.12,1.92 0,0.81 -0.63,1.59 -1.67,1.8 z"
   id="path7983"
   style="fill:#000000;stroke-width:0" />
<path
   d="m 237.98,480.42 0,0.15 0,0.15 -0.01,0.15 0,0.15 -0.01,0.14 -0.01,0.15 -0.02,0.15 -0.02,0.15 -0.02,0.14 -0.03,0.15 -0.03,0.14 -0.04,0.15 -0.04,0.14 -0.05,0.14 -0.06,0.14 -0.03,0.07 -0.03,0.07 c -0.46,0.95 -1.28,1.11 -1.69,1.11 -0.6,0 -1.33,-0.25 -1.74,-1.18 -0.32,-0.69 -0.37,-1.46 -0.37,-2.26 0,-0.75 0.04,-1.64 0.45,-2.4 0.43,-0.81 1.16,-1 1.65,-1 v 0.21 c -0.39,0 -0.98,0.25 -1.16,1.21 -0.11,0.6 -0.11,1.51 -0.11,2.1 0,0.64 0,1.29 0.08,1.83 0.19,1.18 0.94,1.27 1.19,1.27 0.33,0 0.98,-0.18 1.17,-1.16 0.1,-0.56 0.1,-1.31 0.1,-1.94 0,-0.75 0,-1.42 -0.11,-2.06 -0.15,-0.95 -0.72,-1.25 -1.16,-1.25 h 0 v -0.21 c 0.53,0 1.29,0.21 1.73,1.15 0.32,0.69 0.37,1.46 0.37,2.25 z"
   id="path7985"
   style="fill:#000000;stroke-width:0" />
</g></g></g></svg>