<?xml version="1.0" encoding="UTF-8" standalone="no"?>
<!-- Created with Inkscape (http://www.inkscape.org/) -->

<svg
   xmlns:ns0="http://www.iki.fi/pav/software/textext/"
   xmlns:dc="http://purl.org/dc/elements/1.1/"
   xmlns:cc="http://creativecommons.org/ns#"
   xmlns:rdf="http://www.w3.org/1999/02/22-rdf-syntax-ns#"
   xmlns:svg="http://www.w3.org/2000/svg"
   xmlns="http://www.w3.org/2000/svg"
   xmlns:sodipodi="http://sodipodi.sourceforge.net/DTD/sodipodi-0.dtd"
   xmlns:inkscape="http://www.inkscape.org/namespaces/inkscape"
   id="svg2816"
   version="1.1"
   inkscape:version="0.47 r22583"
   width="410.35431"
   height="314.86414"
   xml:space="preserve"
   sodipodi:docname="estudio_102.svg"><sodipodi:namedview
     pagecolor="#ffffff"
     bordercolor="#666666"
     borderopacity="1"
     objecttolerance="10"
     gridtolerance="10"
     guidetolerance="10"
     inkscape:pageopacity="0"
     inkscape:pageshadow="2"
     inkscape:window-width="1280"
     inkscape:window-height="898"
     id="namedview2818"
     showgrid="false"
     inkscape:zoom="1.3485026"
     inkscape:cx="220.00995"
     inkscape:cy="93.026331"
     inkscape:window-x="-8"
     inkscape:window-y="-8"
     inkscape:window-maximized="1"
     inkscape:current-layer="g2826"
     inkscape:snap-bbox="true"
     inkscape:snap-bbox-midpoints="false"
     inkscape:object-nodes="false"
     inkscape:snap-object-midpoints="true"
     inkscape:bbox-nodes="false"
     inkscape:bbox-paths="true"
     inkscape:object-paths="false"
     inkscape:snap-intersection-paths="false"
     inkscape:snap-nodes="false" /><metadata
     id="metadata2822"><rdf:RDF><cc:Work
         rdf:about=""><dc:format>image/svg+xml</dc:format><dc:type
           rdf:resource="http://purl.org/dc/dcmitype/StillImage" /></cc:Work></rdf:RDF></metadata><defs
     id="defs2820"><inkscape:perspective
   sodipodi:type="inkscape:persp3d"
   inkscape:vp_x="0 : 0.5 : 1"
   inkscape:vp_y="0 : 1000 : 0"
   inkscape:vp_z="1 : 0.5 : 1"
   inkscape:persp3d-origin="0.5 : 0.33333333 : 1"
   id="perspective2824" /><clipPath
   clipPathUnits="userSpaceOnUse"
   id="clipPath2834"><path
     d="m 0,1011.67 6120,0 0,6378.33 -6120,0 0,-6378.33 z"
     id="path2836" /></clipPath><clipPath
   clipPathUnits="userSpaceOnUse"
   id="clipPath3098"><path
     d="m 552.5,6912.5 5199.17,0 0,-5200 -5199.17,0 0,5200 z"
     id="path3100" /></clipPath><clipPath
   clipPathUnits="userSpaceOnUse"
   id="clipPath3120"><path
     d="m 0,1011 0,6379 6120,0 0,-6379 -6120,0 z"
     id="path3122" /></clipPath><inkscape:perspective
   id="perspective3360"
   inkscape:persp3d-origin="0.5 : 0.33333333 : 1"
   inkscape:vp_z="1 : 0.5 : 1"
   inkscape:vp_y="0 : 1000 : 0"
   inkscape:vp_x="0 : 0.5 : 1"
   sodipodi:type="inkscape:persp3d" />



















































































































































<inkscape:perspective
   id="perspective5088"
   inkscape:persp3d-origin="0.5 : 0.33333333 : 1"
   inkscape:vp_z="1 : 0.5 : 1"
   inkscape:vp_y="0 : 1000 : 0"
   inkscape:vp_x="0 : 0.5 : 1"
   sodipodi:type="inkscape:persp3d" /><clipPath
   clipPathUnits="userSpaceOnUse"
   id="clipPath5056"><path
     d="m 0,1012 0,6376 5950,0 0,-6376 -5950,0 z"
     id="path5058" /></clipPath><clipPath
   clipPathUnits="userSpaceOnUse"
   id="clipPath5034"><path
     d="m 547,1702 0,5214 5206,0 0,-5214 -5206,0 z"
     id="path5036" /></clipPath><clipPath
   clipPathUnits="userSpaceOnUse"
   id="clipPath4774"><path
     d="m 0,1012 0,6376 5950,0 0,-6376 -5950,0 z"
     id="path4776" /></clipPath></defs><g
     id="g2826"
     inkscape:groupmode="layer"
     inkscape:label="untitled"
     transform="matrix(1.25,0,0,-1.25,-159.77889,676.63846)">
































<g
   id="g8606"><path
     d="m 164.54115,318.03434 285.90815,0 0,220.04187 -285.90815,0 0,-220.04187 z"
     style="fill:#ffffff;fill-opacity:1;fill-rule:evenodd;stroke:none"
     id="path2840" /><path
     d="m 164.54115,318.03434 0,220.04187 285.90815,0 0,-220.04187 -285.90815,0"
     style="fill:none;stroke:#ffffff;stroke-width:0.24123316;stroke-linecap:butt;stroke-linejoin:round;stroke-miterlimit:10;stroke-opacity:1;stroke-dasharray:none"
     id="path2842" /><path
     d="m 164.54115,538.07621 0,0"
     style="fill:none;stroke:#000000;stroke-width:0.16082194;stroke-linecap:butt;stroke-linejoin:round;stroke-miterlimit:10;stroke-opacity:1;stroke-dasharray:0.24123316, 1.92986528;stroke-dashoffset:0"
     id="path2846" /><path
     d="m 200.29115,318.03434 0,220.04187"
     style="fill:none;stroke:#000000;stroke-width:0.47999999;stroke-linecap:butt;stroke-linejoin:round;stroke-miterlimit:10;stroke-opacity:1;stroke-dasharray:1.44, 1.44;stroke-dashoffset:0"
     id="path2848" /><path
     d="m 200.29115,538.07621 0,0"
     style="fill:none;stroke:#000000;stroke-width:0.16082194;stroke-linecap:butt;stroke-linejoin:round;stroke-miterlimit:10;stroke-opacity:1;stroke-dasharray:0.24123316, 1.92986528;stroke-dashoffset:0"
     id="path2850" /><path
     d="m 236.04115,318.03434 0,220.04187"
     style="fill:none;stroke:#000000;stroke-width:0.47999999;stroke-linecap:butt;stroke-linejoin:round;stroke-miterlimit:10;stroke-opacity:1;stroke-dasharray:1.44, 1.44;stroke-dashoffset:0"
     id="path2852" /><path
     d="m 236.04115,538.07621 0,0"
     style="fill:none;stroke:#000000;stroke-width:0.16082194;stroke-linecap:butt;stroke-linejoin:round;stroke-miterlimit:10;stroke-opacity:1;stroke-dasharray:0.24123316, 1.92986528;stroke-dashoffset:0"
     id="path2854" /><path
     d="m 271.7455,318.03434 0,220.04187"
     style="fill:none;stroke:#000000;stroke-width:0.47999999;stroke-linecap:butt;stroke-linejoin:round;stroke-miterlimit:10;stroke-opacity:1;stroke-dasharray:1.44, 1.44;stroke-dashoffset:0"
     id="path2856" /><path
     d="m 271.7455,538.07621 0,0"
     style="fill:none;stroke:#000000;stroke-width:0.16082194;stroke-linecap:butt;stroke-linejoin:round;stroke-miterlimit:10;stroke-opacity:1;stroke-dasharray:0.24123316, 1.92986528;stroke-dashoffset:0"
     id="path2858" /><path
     d="m 307.4955,318.03434 0,220.04187"
     style="fill:none;stroke:#000000;stroke-width:0.47999999;stroke-linecap:butt;stroke-linejoin:round;stroke-miterlimit:10;stroke-opacity:1;stroke-dasharray:1.44, 1.44;stroke-dashoffset:0"
     id="path2860" /><path
     d="m 307.4955,538.07621 0,0"
     style="fill:none;stroke:#000000;stroke-width:0.16082194;stroke-linecap:butt;stroke-linejoin:round;stroke-miterlimit:10;stroke-opacity:1;stroke-dasharray:0.24123316, 1.92986528;stroke-dashoffset:0"
     id="path2862" /><path
     d="m 343.2455,318.03434 0,220.04187"
     style="fill:none;stroke:#000000;stroke-width:0.47999999;stroke-linecap:butt;stroke-linejoin:round;stroke-miterlimit:10;stroke-opacity:1;stroke-dasharray:1.44, 1.44;stroke-dashoffset:0"
     id="path2864" /><path
     d="m 343.2455,538.07621 0,0"
     style="fill:none;stroke:#000000;stroke-width:0.16082194;stroke-linecap:butt;stroke-linejoin:round;stroke-miterlimit:10;stroke-opacity:1;stroke-dasharray:0.24123316, 1.92986528;stroke-dashoffset:0"
     id="path2866" /><path
     d="m 378.9955,318.03434 0,220.04187"
     style="fill:none;stroke:#000000;stroke-width:0.47999999;stroke-linecap:butt;stroke-linejoin:round;stroke-miterlimit:10;stroke-opacity:1;stroke-dasharray:1.44, 1.44;stroke-dashoffset:0"
     id="path2868" /><path
     d="m 378.9955,538.07621 0,0"
     style="fill:none;stroke:#000000;stroke-width:0.16082194;stroke-linecap:butt;stroke-linejoin:round;stroke-miterlimit:10;stroke-opacity:1;stroke-dasharray:0.24123316, 1.92986528;stroke-dashoffset:0"
     id="path2870" /><path
     d="m 414.6993,318.03434 0,220.04187"
     style="fill:none;stroke:#000000;stroke-width:0.47999999;stroke-linecap:butt;stroke-linejoin:round;stroke-miterlimit:10;stroke-opacity:1;stroke-dasharray:1.44, 1.44;stroke-dashoffset:0"
     id="path2872" /><path
     d="m 414.6993,538.07621 0,0"
     style="fill:none;stroke:#000000;stroke-width:0.16082194;stroke-linecap:butt;stroke-linejoin:round;stroke-miterlimit:10;stroke-opacity:1;stroke-dasharray:0.24123316, 1.92986528;stroke-dashoffset:0"
     id="path2874" /><path
     d="m 450.4493,538.07621 0,0"
     style="fill:none;stroke:#000000;stroke-width:0.16082194;stroke-linecap:butt;stroke-linejoin:round;stroke-miterlimit:10;stroke-opacity:1;stroke-dasharray:0.24123316, 1.92986528;stroke-dashoffset:0"
     id="path2878" /><path
     d="m 450.4493,318.03434 0,0"
     style="fill:none;stroke:#000000;stroke-width:0.16082194;stroke-linecap:butt;stroke-linejoin:round;stroke-miterlimit:10;stroke-opacity:1;stroke-dasharray:0.24123316, 1.92986528;stroke-dashoffset:0"
     id="path2882" /><path
     d="m 164.54115,354.71398 285.90815,0"
     style="fill:none;stroke:#000000;stroke-width:0.47999999;stroke-linecap:butt;stroke-linejoin:round;stroke-miterlimit:10;stroke-opacity:1;stroke-dasharray:1.44, 1.44;stroke-dashoffset:0"
     id="path2884" /><path
     d="m 450.4493,354.71398 0,0"
     style="fill:none;stroke:#000000;stroke-width:0.16082194;stroke-linecap:butt;stroke-linejoin:round;stroke-miterlimit:10;stroke-opacity:1;stroke-dasharray:0.24123316, 1.92986528;stroke-dashoffset:0"
     id="path2886" /><path
     d="m 164.54115,391.39362 285.90815,0"
     style="fill:none;stroke:#000000;stroke-width:0.47999999;stroke-linecap:butt;stroke-linejoin:round;stroke-miterlimit:10;stroke-opacity:1;stroke-dasharray:1.44, 1.44;stroke-dashoffset:0"
     id="path2888" /><path
     d="m 450.4493,391.39362 0,0"
     style="fill:none;stroke:#000000;stroke-width:0.16082194;stroke-linecap:butt;stroke-linejoin:round;stroke-miterlimit:10;stroke-opacity:1;stroke-dasharray:0.24123316, 1.92986528;stroke-dashoffset:0"
     id="path2890" /><path
     d="m 164.54115,428.07326 285.90815,0"
     style="fill:none;stroke:#000000;stroke-width:0.47999999;stroke-linecap:butt;stroke-linejoin:round;stroke-miterlimit:10;stroke-opacity:1;stroke-dasharray:1.44, 1.44;stroke-dashoffset:0"
     id="path2892" /><path
     d="m 450.4493,428.07326 0,0"
     style="fill:none;stroke:#000000;stroke-width:0.16082194;stroke-linecap:butt;stroke-linejoin:round;stroke-miterlimit:10;stroke-opacity:1;stroke-dasharray:0.24123316, 1.92986528;stroke-dashoffset:0"
     id="path2894" /><path
     d="m 164.54115,464.71735 285.90815,0"
     style="fill:none;stroke:#000000;stroke-width:0.47999999;stroke-linecap:butt;stroke-linejoin:round;stroke-miterlimit:10;stroke-opacity:1;stroke-dasharray:1.44, 1.44;stroke-dashoffset:0"
     id="path2896" /><path
     d="m 450.4493,464.71735 0,0"
     style="fill:none;stroke:#000000;stroke-width:0.16082194;stroke-linecap:butt;stroke-linejoin:round;stroke-miterlimit:10;stroke-opacity:1;stroke-dasharray:0.24123316, 1.92986528;stroke-dashoffset:0"
     id="path2898" /><path
     d="m 164.54115,501.39699 285.90815,0"
     style="fill:none;stroke:#000000;stroke-width:0.47999999;stroke-linecap:butt;stroke-linejoin:round;stroke-miterlimit:10;stroke-opacity:1;stroke-dasharray:1.44, 1.44;stroke-dashoffset:0"
     id="path2900" /><path
     d="m 450.4493,501.39699 0,0"
     style="fill:none;stroke:#000000;stroke-width:0.16082194;stroke-linecap:butt;stroke-linejoin:round;stroke-miterlimit:10;stroke-opacity:1;stroke-dasharray:0.24123316, 1.92986528;stroke-dashoffset:0"
     id="path2902" /><path
     d="m 450.4493,538.07621 0,0"
     style="fill:none;stroke:#000000;stroke-width:0.16082194;stroke-linecap:butt;stroke-linejoin:round;stroke-miterlimit:10;stroke-opacity:1;stroke-dasharray:0.24123316, 1.92986528;stroke-dashoffset:0"
     id="path2906" /><path
     sodipodi:nodetypes="cc"
     d="m 200.29115,318.03434 0,2.93988"
     style="fill:none;stroke:#000000;stroke-width:0.80000001;stroke-linecap:butt;stroke-linejoin:round;stroke-miterlimit:10;stroke-opacity:1;stroke-dasharray:none"
     id="path2930" /><path
     sodipodi:nodetypes="cc"
     d="m 236.04115,318.03434 0,2.93988"
     style="fill:none;stroke:#000000;stroke-width:0.80000001;stroke-linecap:butt;stroke-linejoin:round;stroke-miterlimit:10;stroke-opacity:1;stroke-dasharray:none"
     id="path2940" /><path
     sodipodi:nodetypes="cc"
     d="m 271.7455,318.03434 0,2.93988"
     style="fill:none;stroke:#000000;stroke-width:0.80000001;stroke-linecap:butt;stroke-linejoin:round;stroke-miterlimit:10;stroke-opacity:1;stroke-dasharray:none"
     id="path2950" /><path
     sodipodi:nodetypes="cc"
     d="m 307.4955,318.03434 0,2.93988"
     style="fill:none;stroke:#000000;stroke-width:0.80000001;stroke-linecap:butt;stroke-linejoin:round;stroke-miterlimit:10;stroke-opacity:1;stroke-dasharray:none"
     id="path2960" /><path
     sodipodi:nodetypes="cc"
     d="m 343.2455,318.03434 0,2.93988"
     style="fill:none;stroke:#000000;stroke-width:0.80000001;stroke-linecap:butt;stroke-linejoin:round;stroke-miterlimit:10;stroke-opacity:1;stroke-dasharray:none"
     id="path2970" /><path
     sodipodi:nodetypes="cc"
     d="m 378.9955,318.03434 0,2.93988"
     style="fill:none;stroke:#000000;stroke-width:0.80000001;stroke-linecap:butt;stroke-linejoin:round;stroke-miterlimit:10;stroke-opacity:1;stroke-dasharray:none"
     id="path2980" /><path
     sodipodi:nodetypes="cc"
     d="m 414.6993,318.03434 0,2.93988"
     style="fill:none;stroke:#000000;stroke-width:0.80000001;stroke-linecap:butt;stroke-linejoin:round;stroke-miterlimit:10;stroke-opacity:1;stroke-dasharray:none"
     id="path2990" /><path
     sodipodi:nodetypes="cc"
     d="m 164.54115,354.71398 2.93971,0"
     style="fill:none;stroke:#000000;stroke-width:0.80000001;stroke-linecap:butt;stroke-linejoin:round;stroke-miterlimit:10;stroke-opacity:1;stroke-dasharray:none"
     id="path3026" /><path
     sodipodi:nodetypes="cc"
     d="m 164.54115,391.39362 2.93971,0"
     style="fill:none;stroke:#000000;stroke-width:0.80000001;stroke-linecap:butt;stroke-linejoin:round;stroke-miterlimit:10;stroke-opacity:1;stroke-dasharray:none"
     id="path3036" /><path
     sodipodi:nodetypes="cc"
     d="m 164.54115,428.07326 2.93971,0"
     style="fill:none;stroke:#000000;stroke-width:0.80000001;stroke-linecap:butt;stroke-linejoin:round;stroke-miterlimit:10;stroke-opacity:1;stroke-dasharray:none"
     id="path3046" /><path
     sodipodi:nodetypes="cc"
     d="m 164.54115,464.71735 2.93971,0"
     style="fill:none;stroke:#000000;stroke-width:0.80000001;stroke-linecap:butt;stroke-linejoin:round;stroke-miterlimit:10;stroke-opacity:1;stroke-dasharray:none"
     id="path3056" /><path
     sodipodi:nodetypes="cc"
     d="m 164.54115,501.39699 2.93971,0"
     style="fill:none;stroke:#000000;stroke-width:0.80000001;stroke-linecap:butt;stroke-linejoin:round;stroke-miterlimit:10;stroke-opacity:1;stroke-dasharray:none"
     id="path3066" /><g
     transform="matrix(0.055,0,0,0.0423225,134.15365,245.52193)"
     id="g3094"><g
       id="g3096"
       clip-path="url(#clipPath3098)"><path
         d="m 5006.67,1867.5 134.16,0 2.5,-0.83 194.17,0 2.5,-0.84 239.17,0 2.5,-0.83 169.16,0"
         style="fill:none;stroke:#ff0000;stroke-width:17.62610054;stroke-linecap:butt;stroke-linejoin:round;stroke-miterlimit:10;stroke-opacity:1;stroke-dasharray:none"
         id="path3102" /><path
         d="m 4262.5,1873.33 39.17,0 2.5,-0.83 87.5,0 2.5,-0.83 94.16,0 2.5,-0.84 102.5,0 2.5,-0.83 111.67,0 2.5,-0.83 125,0 2.5,-0.84 139.17,0 2.5,-0.83 27.5,0"
         style="fill:none;stroke:#ff0000;stroke-width:17.62610054;stroke-linecap:butt;stroke-linejoin:round;stroke-miterlimit:10;stroke-opacity:1;stroke-dasharray:none"
         id="path3104" /><path
         d="m 3517.5,1883.33 37.5,0 2.5,-0.83 45,0 2.5,-0.83 47.5,0 2.5,-0.84 46.67,0 2.5,-0.83 52.5,0 2.5,-0.83 55,0 2.5,-0.84 54.16,0 2.5,-0.83 60,0 2.5,-0.83 62.5,0 2.5,-0.84 66.67,0 2.5,-0.83 70,0 2.5,-0.83 77.5,0 2.5,-0.84 40,0"
         style="fill:none;stroke:#ff0000;stroke-width:17.62610054;stroke-linecap:butt;stroke-linejoin:round;stroke-miterlimit:10;stroke-opacity:1;stroke-dasharray:none"
         id="path3106" /><path
         d="m 2773.33,1903.33 2.5,0 2.5,-0.83 22.5,0 2.5,-0.83 20,0 2.5,-0.84 22.5,0 2.5,-0.83 22.5,0 1.67,-0.83 25,0 2.5,-0.84 22.5,0 2.5,-0.83 25,0 2.5,-0.83 25,0 2.5,-0.84 27.5,0 2.5,-0.83 25,0 2.5,-0.83 30,0 1.67,-0.84 27.5,0 2.5,-0.83 30,0 2.5,-0.83 30,0 2.5,-0.84 30,0 2.5,-0.83 32.5,0 2.5,-0.83 35,0 1.66,-0.84 32.5,0 2.5,-0.83 37.5,0 2.5,-0.83 37.5,0 2.5,-0.84 37.5,0 2.5,-0.83 40,0 2.5,-0.83 41.67,0 2.5,-0.84 5,0"
         style="fill:none;stroke:#ff0000;stroke-width:17.62610054;stroke-linecap:butt;stroke-linejoin:round;stroke-miterlimit:10;stroke-opacity:1;stroke-dasharray:none"
         id="path3108" /><path
         d="m 2029.17,1944.17 7.5,0 2.5,-0.84 7.5,0 2.5,-0.83 7.5,0 2.5,-0.83 7.5,0 2.5,-0.84 7.5,0 2.5,-0.83 9.16,0 2.5,-0.83 7.5,0 2.5,-0.84 7.5,0 2.5,-0.83 10,0 2.5,-0.83 7.5,0 2.5,-0.84 10,0 2.5,-0.83 10,0 2.5,-0.83 7.5,0 2.5,-0.84 10,0 2.5,-0.83 10,0 2.5,-0.83 10,0 2.5,-0.84 10,0 2.5,-0.83 10,0 2.5,-0.83 10,0 2.5,-0.84 12.5,0 2.5,-0.83 10,0 2.5,-0.83 9.17,0 2.5,-0.84 12.5,0 2.5,-0.83 10,0 2.5,-0.83 12.5,0 2.5,-0.84 12.5,0 2.5,-0.83 12.5,0 2.5,-0.83 12.5,0 2.5,-0.84 12.5,0 2.5,-0.83 12.5,0 2.5,-0.83 12.5,0 2.5,-0.84 15,0 2.5,-0.83 12.5,0 2.5,-0.83 15,0 2.5,-0.84 14.17,0 2.5,-0.83 15,0 2.5,-0.83 15,0 2.5,-0.84 15,0 2.5,-0.83 15,0 2.5,-0.83 17.5,0 2.5,-0.84 15,0 2.5,-0.83 17.5,0 2.5,-0.83 17.5,0 2.5,-0.84 17.5,0 2.5,-0.83 17.5,0 2.5,-0.83 19.16,0 2.5,-0.84 17.5,0 2.5,-0.83 20,0 2.5,-0.83 20,0 2.5,-0.84 17.5,0"
         style="fill:none;stroke:#ff0000;stroke-width:17.62610054;stroke-linecap:butt;stroke-linejoin:round;stroke-miterlimit:10;stroke-opacity:1;stroke-dasharray:none"
         id="path3110" /><path
         d="m 1285,2071.67 1.67,-0.84 2.5,-0.83 2.5,-0.83 2.5,-0.84 2.5,-0.83 2.5,-0.83 2.5,-0.84 2.5,-0.83 2.5,-0.83 2.5,-0.84 2.5,-0.83 2.5,-0.83 2.5,-0.84 2.5,-0.83 2.5,-0.83 2.5,-0.84 2.5,-0.83 2.5,-0.83 2.5,-0.84 2.5,-0.83 2.5,0 2.5,-0.83 2.5,-0.84 2.5,-0.83 2.5,-0.83 2.5,-0.84 2.5,-0.83 2.5,-0.83 2.5,-0.84 2.5,0 2.5,-0.83 2.5,-0.83 2.5,-0.84 2.5,-0.83 2.5,-0.83 2.5,0 2.5,-0.84 2.5,-0.83 2.5,-0.83 2.5,-0.84 2.5,-0.83 2.5,0 2.5,-0.83 2.5,-0.84 2.5,-0.83 2.5,0 2.5,-0.83 2.5,-0.84 2.5,-0.83 2.5,-0.83 2.5,0 2.5,-0.84 2.5,-0.83 2.5,-0.83 2.5,0 2.5,-0.84 2.5,-0.83 2.5,0 2.5,-0.83 2.5,-0.84 2.5,-0.83 2.5,0 2.5,-0.83 2.5,-0.84 2.5,0 2.5,-0.83 2.5,-0.83 2.5,0 2.5,-0.84 2.5,-0.83 2.5,0 2.5,-0.83 2.5,-0.84 2.5,0 2.5,-0.83 2.5,-0.83 2.5,0 2.5,-0.84 2.5,-0.83 2.5,0 1.66,-0.83 2.5,-0.84 2.5,0 2.5,-0.83 2.5,0 2.5,-0.83 2.5,-0.84 2.5,0 2.5,-0.83 2.5,0 2.5,-0.83 2.5,-0.84 2.5,0 2.5,-0.83 2.5,0 2.5,-0.83 2.5,-0.84 2.5,0 2.5,-0.83 2.5,0 2.5,-0.83 2.5,0 2.5,-0.84 2.5,-0.83 2.5,0 2.5,-0.83 2.5,0 2.5,-0.84 2.5,0 2.5,-0.83 2.5,0 2.5,-0.83 2.5,-0.84 2.5,0 2.5,-0.83 2.5,0 2.5,-0.83 2.5,0 2.5,-0.84 2.5,0 2.5,-0.83 2.5,0 2.5,-0.83 2.5,0 2.5,-0.84 2.5,0 2.5,-0.83 2.5,0 2.5,-0.83 2.5,0 2.5,-0.84 2.5,0 2.5,-0.83 2.5,0 2.5,-0.83 2.5,0 2.5,-0.84 2.5,0 2.5,-0.83 2.5,0 2.5,-0.83 5,0 2.5,-0.84 2.5,0 2.5,-0.83 2.5,0 2.5,-0.83 2.5,0 2.5,-0.84 2.5,0 2.5,-0.83 5,0 2.5,-0.83 2.5,0 2.5,-0.84 2.5,0 2.5,-0.83 4.17,0 2.5,-0.83 2.5,0 2.5,-0.84 2.5,0 2.5,-0.83 5,0 2.5,-0.83 2.5,0 2.5,-0.84 5,0 2.5,-0.83 2.5,0 2.5,-0.83 5,0 2.5,-0.84 2.5,0 2.5,-0.83 5,0 2.5,-0.83 2.5,0 2.5,-0.84 5,0 2.5,-0.83 5,0 2.5,-0.83 2.5,0 2.5,-0.84 5,0 2.5,-0.83 5,0 2.5,-0.83 2.5,0 2.5,-0.84 5,0 2.5,-0.83 5,0 2.5,-0.83 5,0 2.5,-0.84 5,0 2.5,-0.83 5,0 2.5,-0.83 5,0 2.5,-0.84 5,0 2.5,-0.83 5,0 2.5,-0.83 5,0 2.5,-0.84 5,0 2.5,-0.83 5,0 2.5,-0.83 5,0 2.5,-0.84 6.67,0 2.5,-0.83 5,0 2.5,-0.83 5,0 2.5,-0.84 5,0 2.5,-0.83 7.5,0 2.5,-0.83 5,0 2.5,-0.84 7.5,0 2.5,-0.83 5,0 2.5,-0.83 7.5,0 2.5,-0.84 5,0 2.5,-0.83 7.5,0 2.5,-0.83 7.5,0 2.5,-0.84 5,0 2.5,-0.83 7.5,0 2.5,-0.83 7.5,0 2.5,-0.84 7.5,0 2.5,-0.83 7.5,0 2.5,-0.83"
         style="fill:none;stroke:#ff0000;stroke-width:17.62610054;stroke-linecap:butt;stroke-linejoin:round;stroke-miterlimit:10;stroke-opacity:1;stroke-dasharray:none"
         id="path3112" /><path
         d="m 776.668,6912.5 2.5,-1515 2.5,-676.67 2.5,-403.33 2.5,-275 2.5,-203.33 2.5,-157.5 2.5,-127.5 2.5,-105.84 2.5,-89.16 2.5,-76.67 2.5,-66.67 2.5,-59.16 2.5,-52.5 2.5,-47.5 2.5,-43.34 2.5,-38.33 2.5,-35.83 2.5,-33.34 2.5,-30 2.5,-28.33 2.5,-25.83 2.5,-25 2.5,-22.5 2.5,-21.67 2.5,-20 2.5,-19.17 2.5,-18.33 2.5,-17.5 2.5,-15.83 2.5,-15.84 2.5,-15 2.5,-14.16 2.5,-13.34 2.5,-12.5 2.5,-12.5 2.5,-11.66 2.5,-11.67 2.5,-10.83 2.5,-10.84 2.5,-10 2.5,-10 2.5,-9.16 2.5,-9.17 2.5,-9.17 2.5,-8.33 1.664,-8.33 2.5,-7.5 2.5,-8.34 2.5,-7.5 2.5,-6.66 2.5,-7.5 2.5,-6.67 2.5,-6.67 2.5,-6.66 2.5,-6.67 2.5,-5.83 2.5,-5.84 2.5,-5.83 2.5,-5.83 2.5,-5.84 2.5,-5 2.5,-5.83 2.5,-5 2.5,-5 2.5,-5 2.5,-5 2.5,-4.17 2.5,-5 2.5,-4.16 2.5,-5 2.5,-4.17 2.5,-4.17 2.5,-4.16 2.5,-4.17 2.5,-4.17 2.5,-3.33 2.5,-4.17 2.5,-3.33 2.5,-4.17 2.5,-3.33 2.5,-3.33 2.5,-4.17 2.5,-3.33 2.5,-3.34 2.5,-3.33 2.5,-3.33 2.5,-2.5 2.5,-3.34 2.5,-3.33 2.498,-3.33 2.5,-2.5 2.5,-3.34 2.5,-2.5 2.5,-3.33 2.5,-2.5 2.5,-2.5 2.5,-3.33 2.5,-2.5 2.5,-2.5 2.5,-2.5 2.5,-2.5 2.5,-2.5 2.5,-2.5 2.5,-2.5 2.5,-2.5 2.5,-2.5 2.5,-2.5 2.5,-1.67 2.5,-2.5 2.5,-2.5 2.5,-2.5 2.5,-1.67 2.5,-2.5 2.5,-1.66 2.5,-2.5 2.5,-1.67 2.5,-2.5 2.5,-1.67 2.5,-2.5 2.5,-1.66 2.5,-1.67 2.5,-2.5 2.5,-1.67 2.5,-1.66 1.67,-1.67 2.5,-2.5 2.5,-1.67 2.5,-1.66 2.5,-1.67 2.5,-1.67 2.5,-1.66 2.5,-1.67 2.5,-1.67 2.5,-1.66 2.5,-1.67 2.5,-1.67 2.5,-1.66 2.5,-1.67 2.5,-1.67 2.5,-1.66 2.5,-1.67 2.5,-1.67 2.5,-1.66 2.5,-0.84 2.5,-1.66 2.5,-1.67 2.5,-1.67 2.5,-0.83 2.5,-1.67 2.5,-1.66 2.5,-0.84 2.5,-1.66 2.5,-1.67 2.5,-0.83 2.5,-1.67 2.5,-1.67 2.5,-0.83 2.5,-1.67 2.5,-0.83 2.5,-1.67 2.5,-0.83 2.5,-1.67 2.5,-0.83 2.5,-1.67 2.5,-0.83 2.5,-1.67 2.5,-0.83 2.5,-1.67 2.5,-0.83 2.5,-1.67 2.5,-0.83 2.5,-0.83 2.5,-1.67 2.5,-0.83 2.5,-0.84 2.5,-1.66 2.5,-0.84 2.5,-0.83 2.5,-1.67 2.5,-0.83 2.5,-0.83 2.5,-0.84 2.5,-1.66 2.5,-0.84 2.5,-0.83 2.5,-0.83 2.5,-1.67 2.5,-0.83 2.5,-0.84 2.5,-0.83 2.5,-0.83 2.5,-1.67 2.5,-0.83 2.5,-0.84 2.5,-0.83 2.5,-0.83 2.5,-0.84 2.5,-0.83 2.5,-0.83 2.5,-1.67 2.5,-0.83 2.5,-0.84 2.5,-0.83 2.5,-0.83"
         style="fill:none;stroke:#ff0000;stroke-width:17.62610054;stroke-linecap:butt;stroke-linejoin:round;stroke-miterlimit:10;stroke-opacity:1;stroke-dasharray:none"
         id="path3114" /></g></g><path
     sodipodi:nodetypes="ccccc"
     id="path3566"
     d="m 164.54086,318.03422 0,220.0416 285.90879,0 0,-220.0416 -285.90879,0 z"
     style="fill:none;stroke:#000000;stroke-width:0.85039997;stroke-linecap:butt;stroke-linejoin:miter;stroke-miterlimit:4;stroke-opacity:1;stroke-dasharray:none" /><g
     style="font-style:normal;font-variant:normal;font-weight:normal;font-stretch:normal;letter-spacing:normal;word-spacing:normal;text-anchor:start;fill:none;stroke:#000000;stroke-linecap:butt;stroke-linejoin:miter;stroke-miterlimit:10.43299961;stroke-opacity:1;stroke-dasharray:none;stroke-dashoffset:0"
     id="content"
     transform="matrix(0.95,0,0,0.95,59.03317,-379.98854)"
     xml:space="preserve"
     stroke-miterlimit="10.433"
     font-style="normal"
     font-variant="normal"
     font-weight="normal"
     font-stretch="normal"
     font-size-adjust="none"
     letter-spacing="normal"
     word-spacing="normal"
     ns0:text="Frecuencia (GHz)"
     ns0:preamble="">
<path
   style="fill:#000000;stroke-width:0"
   d="m 229.22,713.88 h -5.46 v -0.31 H 224 c 0.76,0 0.79,-0.11 0.79,-0.47 v -5.2 c 0,-0.36 -0.03,-0.47 -0.79,-0.47 h -0.24 v -0.3 c 0.35,0.03 1.12,0.03 1.51,0.03 0.41,0 1.32,0 1.67,-0.03 v 0.3 h -0.32 c -0.95,0 -0.95,0.13 -0.95,0.48 v 2.44 h 0.86 c 0.95,0 1.05,-0.31 1.05,-1.16 h 0.25 v 2.63 h -0.25 c 0,-0.83 -0.1,-1.16 -1.05,-1.16 h -0.86 v 2.51 c 0,0.33 0.02,0.4 0.49,0.4 h 1.19 c 1.49,0 1.74,-0.55 1.9,-1.92 h 0.25 z"
   id="path4815" />
<path
   style="fill:#000000;stroke-width:0"
   d="m 230.77,710.42 v 1.1 l -1.38,-0.11 v -0.31 c 0.69,0 0.77,-0.07 0.77,-0.56 v -2.66 c 0,-0.45 -0.11,-0.45 -0.77,-0.45 v -0.3 c 0.38,0.01 0.85,0.03 1.13,0.03 0.4,0 0.87,0 1.27,-0.03 v 0.3 h -0.21 c -0.74,0 -0.76,0.11 -0.76,0.47 v 1.53 c 0,0.98 0.42,1.87 1.17,1.87 0.07,0 0.09,0 0.11,-0.01 -0.03,-0.01 -0.22,-0.13 -0.22,-0.39 0,-0.28 0.2,-0.43 0.42,-0.43 0.18,0 0.43,0.12 0.43,0.44 0,0.32 -0.31,0.61 -0.74,0.61 -0.72,0 -1.08,-0.67 -1.22,-1.1 z"
   id="path4817" />
<path
   style="fill:#000000;stroke-width:0"
   d="m 234.12,709.42 0.01,0.21 c 0.05,1.48 0.89,1.73 1.23,1.73 1.02,0 1.12,-1.34 1.12,-1.73 h -2.35 l -0.01,-0.21 h 2.77 c 0.22,0 0.25,0 0.25,0.21 0,0.98 -0.54,1.95 -1.78,1.95 -1.15,0 -2.07,-1.03 -2.07,-2.27 0,-1.33 1.04,-2.29 2.19,-2.29 1.21,0 1.66,1.1 1.66,1.29 0,0.1 -0.08,0.12 -0.13,0.12 -0.09,0 -0.11,-0.06 -0.13,-0.14 -0.35,-1.03 -1.24,-1.03 -1.34,-1.03 -0.5,0 -0.9,0.3 -1.13,0.67 -0.29,0.48 -0.29,1.13 -0.29,1.49 z"
   id="path4819" />
<path
   style="fill:#000000;stroke-width:0"
   d="m 238.6,709.29 0,0.08 0,0.07 0.01,0.07 0,0.07 0.01,0.07 0,0.07 0.01,0.06 0.01,0.06 0.01,0.06 0.01,0.06 0.01,0.06 0.01,0.06 0.03,0.11 0.03,0.1 0.03,0.1 0.04,0.09 0.04,0.09 0.04,0.08 0.04,0.07 0.05,0.07 0.05,0.07 0.05,0.06 0.05,0.05 0.05,0.05 0.05,0.05 0.06,0.04 0.05,0.04 0.06,0.03 0.06,0.03 0.05,0.03 0.06,0.02 0.06,0.02 0.05,0.01 0.06,0.02 0.05,0.01 0.05,0 0.06,0.01 0.05,0 c 0.09,0 0.71,-0.01 1.06,-0.37 -0.41,-0.03 -0.47,-0.33 -0.47,-0.46 0,-0.26 0.18,-0.45 0.46,-0.45 0.26,0 0.46,0.16 0.46,0.46 0,0.68 -0.76,1.07 -1.52,1.07 -1.25,0 -2.16,-1.08 -2.16,-2.31 0,-1.27 0.98,-2.25 2.14,-2.25 1.33,0 1.65,1.19 1.65,1.29 0,0.1 -0.1,0.1 -0.13,0.1 -0.09,0 -0.11,-0.04 -0.13,-0.1 -0.29,-0.93 -0.94,-1.05 -1.3,-1.05 -0.53,0 -1.41,0.43 -1.41,2.03 z"
   id="path4821" />
<path
   style="fill:#000000;stroke-width:0"
   d="m 245.76,707.91 v -0.89 l 1.43,0.11 v 0.3 c -0.7,0 -0.78,0.07 -0.78,0.56 v 3.53 l -1.46,-0.11 v -0.31 c 0.7,0 0.78,-0.07 0.78,-0.56 v -1.77 c 0,-0.86 -0.48,-1.54 -1.21,-1.54 -0.83,0 -0.87,0.47 -0.87,0.99 v 3.3 l -1.47,-0.11 v -0.31 c 0.78,0 0.78,-0.03 0.78,-0.92 v -1.49 c 0,-0.77 0,-1.67 1.51,-1.67 0.56,0 1,0.27 1.29,0.89 z"
   id="path4823" />
<path
   style="fill:#000000;stroke-width:0"
   d="m 248.51,709.42 0,0.21 c 0.06,1.48 0.9,1.73 1.24,1.73 1.02,0 1.12,-1.34 1.12,-1.73 h -2.36 l 0,-0.21 h 2.77 c 0.22,0 0.25,0 0.25,0.21 0,0.98 -0.54,1.95 -1.78,1.95 -1.15,0 -2.07,-1.03 -2.07,-2.27 0,-1.33 1.04,-2.29 2.19,-2.29 1.21,0 1.66,1.1 1.66,1.29 0,0.1 -0.08,0.12 -0.13,0.12 -0.09,0 -0.11,-0.06 -0.13,-0.14 -0.35,-1.03 -1.24,-1.03 -1.34,-1.03 -0.5,0 -0.9,0.3 -1.13,0.67 -0.29,0.48 -0.29,1.13 -0.29,1.49 z"
   id="path4825" />
<path
   style="fill:#000000;stroke-width:0"
   d="m 252.92,710.54 v -2.66 c 0,-0.45 -0.11,-0.45 -0.77,-0.45 v -0.3 c 0.34,0.01 0.85,0.03 1.12,0.03 0.26,0 0.78,-0.02 1.11,-0.03 v 0.3 c -0.66,0 -0.77,0 -0.77,0.45 v 1.83 c 0,1.03 0.71,1.59 1.34,1.59 0.63,0 0.74,-0.54 0.74,-1.1 v -2.32 c 0,-0.45 -0.11,-0.45 -0.78,-0.45 v -0.3 c 0.35,0.01 0.86,0.03 1.13,0.03 0.26,0 0.77,-0.02 1.11,-0.03 v 0.3 c -0.52,0 -0.76,0 -0.77,0.3 v 1.9 c 0,0.85 0,1.16 -0.31,1.52 -0.14,0.17 -0.47,0.37 -1.05,0.37 -0.72,0 -1.19,-0.43 -1.47,-1.05 v 1.05 l -1.4,-0.11 v -0.31 c 0.69,0 0.77,-0.07 0.77,-0.56 z"
   id="path4827" />
<path
   style="fill:#000000;stroke-width:0"
   d="m 258.53,709.29 0,0.08 0,0.07 0,0.07 0.01,0.07 0,0.07 0.01,0.07 0.01,0.06 0,0.06 0.01,0.06 0.01,0.06 0.01,0.06 0.02,0.06 0.02,0.11 0.03,0.1 0.04,0.1 0.03,0.09 0.04,0.09 0.04,0.08 0.05,0.07 0.04,0.07 0.05,0.07 0.05,0.06 0.05,0.05 0.06,0.05 0.05,0.05 0.05,0.04 0.06,0.04 0.06,0.03 0.05,0.03 0.06,0.03 0.05,0.02 0.06,0.02 0.06,0.01 0.05,0.02 0.06,0.01 0.05,0 0.05,0.01 0.05,0 c 0.09,0 0.72,-0.01 1.06,-0.37 -0.4,-0.03 -0.46,-0.33 -0.46,-0.46 0,-0.26 0.18,-0.45 0.45,-0.45 0.26,0 0.46,0.16 0.46,0.46 0,0.68 -0.75,1.07 -1.52,1.07 -1.24,0 -2.16,-1.08 -2.16,-2.31 0,-1.27 0.99,-2.25 2.14,-2.25 1.33,0 1.65,1.19 1.65,1.29 0,0.1 -0.1,0.1 -0.13,0.1 -0.09,0 -0.11,-0.04 -0.13,-0.1 -0.28,-0.93 -0.93,-1.05 -1.3,-1.05 -0.53,0 -1.4,0.43 -1.4,2.03 z"
   id="path4829" />
<path
   style="fill:#000000;stroke-width:0"
   d="m 263.55,711.52 -1.39,-0.11 v -0.31 c 0.65,0 0.73,-0.06 0.73,-0.55 v -2.67 c 0,-0.45 -0.1,-0.45 -0.77,-0.45 v -0.3 c 0.32,0.01 0.86,0.03 1.09,0.03 0.35,0 0.7,-0.02 1.04,-0.03 v 0.3 c -0.66,0 -0.7,0.05 -0.7,0.44 z"
   id="path4831" />
<path
   style="fill:#000000;stroke-width:0"
   d="m 263.59,713.24 0,0.03 0,0.03 0,0.03 -0.01,0.03 -0.01,0.02 0,0.03 -0.01,0.03 -0.01,0.02 -0.01,0.02 -0.01,0.03 -0.02,0.02 -0.01,0.02 -0.02,0.02 -0.01,0.02 -0.02,0.02 -0.02,0.02 -0.02,0.01 -0.02,0.02 -0.02,0.01 -0.02,0.02 -0.02,0.01 -0.02,0.01 -0.02,0.01 -0.03,0.01 -0.02,0.01 -0.02,0.01 -0.03,0.01 -0.02,0 -0.03,0.01 -0.02,0 -0.03,0 -0.03,0 c -0.3,0 -0.52,-0.27 -0.52,-0.53 0,-0.26 0.22,-0.52 0.52,-0.52 0.28,0 0.53,0.21 0.53,0.52 z"
   id="path4833" />
<path
   style="fill:#000000;stroke-width:0"
   d="m 267.87,707.88 0.01,-0.04 0,-0.03 0.01,-0.04 0.01,-0.04 0.01,-0.04 0.01,-0.03 0.01,-0.04 0.01,-0.03 0.02,-0.04 0.02,-0.03 0.01,-0.04 0.02,-0.03 0.02,-0.03 0.02,-0.04 0.03,-0.03 0.02,-0.03 0.02,-0.02 0.03,-0.03 0.03,-0.03 0.03,-0.02 0.03,-0.02 0.03,-0.03 0.03,-0.02 0.03,-0.01 0.04,-0.02 0.04,-0.01 0.03,-0.02 0.04,-0.01 0.04,0 0.04,-0.01 0.04,0 0.05,0 c 0.21,0 0.81,0.13 0.81,0.94 v 0.56 h -0.25 v -0.56 c 0,-0.58 -0.24,-0.64 -0.35,-0.64 -0.33,0 -0.37,0.45 -0.37,0.5 v 1.99 c 0,0.41 0,0.8 -0.36,1.17 -0.39,0.39 -0.89,0.55 -1.36,0.55 -0.82,0 -1.5,-0.47 -1.5,-1.13 0,-0.29 0.19,-0.46 0.45,-0.46 0.28,0 0.46,0.19 0.46,0.45 0,0.12 -0.05,0.45 -0.51,0.46 0.27,0.35 0.76,0.46 1.08,0.46 0.48,0 1.05,-0.39 1.05,-1.27 v -0.37 -0.21 -0.99 c 0,-0.95 -0.71,-1.29 -1.16,-1.29 -0.49,0 -0.9,0.35 -0.9,0.85 0,0.55 0.42,1.37 2.06,1.43 h 0 v 0.21 c -0.5,-0.03 -1.2,-0.06 -1.83,-0.36 -0.74,-0.34 -0.99,-0.85 -0.99,-1.29 0,-0.81 0.96,-1.05 1.59,-1.05 0.66,0 1.11,0.39 1.3,0.86 z"
   id="path4835" />
<path
   style="fill:#000000;stroke-width:0"
   d="m 276.15,704.74 0,0.01 0,0 0,0 0,0.01 0,0 0,0 0,0.01 0,0 -0.01,0 0,0.01 0,0 0,0.01 -0.01,0 0,0.01 0,0 -0.01,0.01 0,0.01 -0.01,0 0,0.01 -0.01,0 0,0.01 0,0 -0.01,0 0,0.01 -0.01,0 0,0.01 -0.01,0 0,0.01 -0.01,0 0,0.01 -0.01,0 0,0.01 -0.01,0.01 0,0 -0.01,0.01 -0.01,0.01 0,0 -0.01,0.01 -0.01,0.01 0,0 -0.01,0.01 -0.01,0.01 c -1.24,1.25 -1.56,3.13 -1.56,4.65 0,1.73 0.38,3.46 1.6,4.7 0.13,0.12 0.13,0.14 0.13,0.17 0,0.07 -0.04,0.1 -0.1,0.1 -0.1,0 -0.99,-0.68 -1.58,-1.94 -0.51,-1.09 -0.63,-2.2 -0.63,-3.03 0,-0.78 0.11,-1.98 0.66,-3.1 0.6,-1.22 1.45,-1.87 1.55,-1.87 0.06,0 0.1,0.03 0.1,0.1 z"
   id="path4837" />
<path
   style="fill:#000000;stroke-width:0"
   d="m 282.63,707.75 0.01,-0.02 0.02,-0.02 0.01,-0.02 0.02,-0.03 0.02,-0.02 0.02,-0.03 0.02,-0.02 0.02,-0.03 0.02,-0.02 0.02,-0.03 0.05,-0.05 0.05,-0.05 0.05,-0.05 0.02,-0.02 0.03,-0.03 0.02,-0.02 0.02,-0.02 0.03,-0.02 0.02,-0.02 0.02,-0.01 0.02,-0.02 0.02,-0.01 0.02,-0.02 0.02,-0.01 0.01,-0.01 0.02,0 0.01,-0.01 0.01,0 0.01,0 0,0 0.01,0 c 0.09,0 0.09,0.07 0.09,0.22 v 1.73 c 0,0.39 0.04,0.44 0.68,0.44 v 0.31 c -0.36,-0.01 -0.91,-0.03 -1.21,-0.03 -0.4,0 -1.24,0 -1.6,0.03 v -0.31 h 0.32 c 0.89,0 0.92,-0.11 0.92,-0.48 v -0.63 c 0,-1.12 -1.26,-1.21 -1.54,-1.21 -0.65,0 -2.62,0.35 -2.62,3.31 0,2.97 1.96,3.3 2.56,3.3 1.06,0 1.97,-0.89 2.17,-2.35 0.02,-0.14 0.02,-0.17 0.16,-0.17 0.16,0 0.16,0.03 0.16,0.24 v 2.35 c 0,0.17 0,0.24 -0.11,0.24 -0.04,0 -0.08,0 -0.16,-0.12 l -0.5,-0.74 c -0.32,0.32 -0.85,0.86 -1.84,0.86 -1.85,0 -3.46,-1.57 -3.46,-3.61 0,-2.03 1.59,-3.61 3.48,-3.61 0.73,0 1.52,0.25 1.86,0.84 z"
   id="path4839" />
<path
   style="fill:#000000;stroke-width:0"
   d="m 290.65,713.14 0,0.03 0,0.03 0,0.03 0,0.03 0,0.03 0,0.02 0.01,0.03 0,0.02 0.01,0.02 0.01,0.02 0,0.02 0.01,0.02 0.02,0.02 0.01,0.01 0.02,0.02 0.01,0.01 0.02,0.02 0.03,0.01 0.01,0 0.01,0.01 0.01,0 0.02,0.01 0.01,0 0.02,0.01 0.02,0 0.01,0.01 0.02,0 0.02,0 0.02,0.01 0.02,0 0.02,0 0.02,0 0.02,0.01 0.03,0 0.02,0 0.03,0 0.02,0.01 0.03,0 0.03,0 0.03,0 0.03,0 0.03,0 0.03,0 0.03,0 0.04,0 0.03,0 h 0.24 v 0.31 c -0.34,-0.03 -1.08,-0.03 -1.46,-0.03 -0.38,0 -1.12,0 -1.47,0.03 v -0.31 h 0.24 c 0.76,0 0.78,-0.11 0.78,-0.46 v -2.33 h -2.97 v 2.33 c 0,0.35 0.02,0.46 0.78,0.46 h 0.24 v 0.31 c -0.35,-0.03 -1.08,-0.03 -1.46,-0.03 -0.38,0 -1.12,0 -1.47,0.03 v -0.31 h 0.24 c 0.76,0 0.78,-0.11 0.78,-0.46 v -5.24 c 0,-0.36 -0.02,-0.47 -0.78,-0.47 h -0.24 v -0.3 c 0.35,0.03 1.08,0.03 1.46,0.03 0.38,0 1.12,0 1.47,-0.03 v 0.3 h -0.24 c -0.76,0 -0.78,0.11 -0.78,0.47 v 2.6 h 2.97 v -2.6 c 0,-0.36 -0.02,-0.47 -0.78,-0.47 h -0.24 v -0.3 c 0.35,0.03 1.08,0.03 1.46,0.03 0.38,0 1.13,0 1.47,-0.03 v 0.3 h -0.24 c -0.76,0 -0.78,0.11 -0.78,0.47 z"
   id="path4841" />
<path
   style="fill:#000000;stroke-width:0"
   d="m 295.9,711.11 0.01,0 0,0.01 0,0 0.01,0.01 0,0 0,0.01 0.01,0 0,0.01 0,0 0.01,0 0,0.01 0,0 0.01,0 0,0.01 0,0.01 0.01,0 0,0.01 0.01,0 0,0.01 0,0 0.01,0.01 0,0 0,0.01 0,0 0,0.01 0.01,0 0,0.01 0,0 0,0 0,0.01 0,0 0,0.01 0,0 0,0.01 0,0.01 c 0,0.13 -0.08,0.13 -0.26,0.13 h -3.18 l -0.11,-1.6 h 0.25 c 0.06,1.01 0.25,1.38 1.34,1.38 h 1.14 l -2.78,-3.75 c -0.09,-0.11 -0.09,-0.13 -0.09,-0.18 0,-0.13 0.07,-0.13 0.26,-0.13 h 3.28 l 0.17,1.85 h -0.25 c -0.09,-1.17 -0.3,-1.61 -1.45,-1.61 h -1.17 z"
   id="path4843" />
<path
   style="fill:#000000;stroke-width:0"
   d="m 299.32,709.61 0,0.07 0,0.08 0,0.08 0,0.08 -0.01,0.17 -0.01,0.17 -0.02,0.18 -0.02,0.19 -0.03,0.2 -0.03,0.2 -0.04,0.2 -0.04,0.21 -0.06,0.21 -0.06,0.21 -0.07,0.21 -0.08,0.21 -0.04,0.11 -0.05,0.11 -0.04,0.1 -0.05,0.11 c -0.6,1.22 -1.46,1.87 -1.56,1.87 -0.05,0 -0.09,-0.04 -0.09,-0.1 0,-0.03 0,-0.05 0.18,-0.23 0.98,-0.99 1.55,-2.57 1.55,-4.64 0,-1.7 -0.37,-3.45 -1.61,-4.7 -0.12,-0.12 -0.12,-0.14 -0.12,-0.17 0,-0.06 0.04,-0.1 0.09,-0.1 0.1,0 1,0.68 1.59,1.94 0.5,1.09 0.62,2.19 0.62,3.03 z"
   id="path4845" />
</g><g
     ns0:preamble=""
     ns0:text="Atenuaci\\\'on (dB/m)"
     word-spacing="normal"
     letter-spacing="normal"
     font-size-adjust="none"
     font-stretch="normal"
     font-weight="normal"
     font-variant="normal"
     font-style="normal"
     stroke-miterlimit="10.433"
     xml:space="preserve"
     transform="matrix(0,0.95,-0.95,0,806.67411,175.30243)"
     id="g5842"
     style="font-style:normal;font-variant:normal;font-weight:normal;font-stretch:normal;letter-spacing:normal;word-spacing:normal;text-anchor:start;fill:none;stroke:#000000;stroke-linecap:butt;stroke-linejoin:miter;stroke-miterlimit:10.43299961;stroke-opacity:1;stroke-dasharray:none;stroke-dashoffset:0">
<path
   id="path5844"
   d="m 227.39,714.04 0,0.01 -0.01,0.01 0,0.01 -0.01,0.01 0,0.02 0,0.01 -0.01,0.01 0,0 -0.01,0.01 0,0.01 -0.01,0.01 0,0.01 -0.01,0.01 0,0 -0.01,0.01 0,0.01 -0.01,0 0,0.01 -0.01,0 -0.01,0.01 -0.01,0 0,0.01 -0.01,0 -0.01,0.01 -0.01,0 -0.01,0 -0.01,0 -0.01,0 -0.02,0.01 -0.01,0 -0.01,0 -0.01,0 -0.01,0 c -0.16,0 -0.19,-0.06 -0.24,-0.2 l -2.05,-5.94 c -0.18,-0.51 -0.58,-0.66 -1.12,-0.67 v -0.3 c 0.23,0.01 0.66,0.03 1.01,0.03 0.31,0 0.83,-0.02 1.15,-0.03 v 0.3 c -0.5,0 -0.75,0.25 -0.75,0.51 0,0.03 0.01,0.13 0.02,0.15 l 0.46,1.3 0.11,0.31 1.11,3.23 1.13,-3.23 h -2.24 l -0.11,-0.31 h 2.46 l 0.53,-1.52 c 0,-0.04 0.02,-0.1 0.02,-0.14 0,-0.3 -0.55,-0.3 -0.82,-0.3 v -0.3 c 0.36,0.03 1.05,0.03 1.43,0.03 0.43,0 0.89,-0.01 1.31,-0.03 v 0.3 h -0.18 c -0.6,0 -0.74,0.07 -0.85,0.4 z"
   style="fill:#000000;stroke-width:0" />
<path
   id="path5846"
   d="m 232.35,711.1 h 1.42 v 0.31 h -1.42 v 1.82 h -0.25 c -0.01,-0.81 -0.31,-1.87 -1.29,-1.91 v -0.22 h 0.85 v -2.74 c 0,-1.22 0.93,-1.34 1.28,-1.34 0.71,0 0.99,0.7 0.99,1.34 v 0.56 h -0.25 v -0.54 c 0,-0.74 -0.3,-1.12 -0.67,-1.12 -0.66,0 -0.66,0.91 -0.66,1.08 z"
   style="fill:#000000;stroke-width:0" />
<path
   id="path5848"
   d="m 235.6,709.42 0.01,0.21 c 0.06,1.48 0.9,1.73 1.24,1.73 1.02,0 1.12,-1.34 1.12,-1.73 h -2.36 l -0.01,-0.21 h 2.78 c 0.22,0 0.25,0 0.25,0.21 0,0.98 -0.54,1.95 -1.78,1.95 -1.16,0 -2.07,-1.03 -2.07,-2.27 0,-1.33 1.04,-2.29 2.19,-2.29 1.21,0 1.66,1.1 1.66,1.29 0,0.1 -0.08,0.12 -0.13,0.12 -0.09,0 -0.11,-0.06 -0.13,-0.14 -0.35,-1.03 -1.24,-1.03 -1.34,-1.03 -0.5,0 -0.9,0.3 -1.13,0.67 -0.3,0.48 -0.3,1.13 -0.3,1.49 z"
   style="fill:#000000;stroke-width:0" />
<path
   id="path5850"
   d="m 240.02,710.54 v -2.66 c 0,-0.45 -0.11,-0.45 -0.78,-0.45 v -0.3 c 0.35,0.01 0.86,0.03 1.13,0.03 0.26,0 0.78,-0.02 1.11,-0.03 v 0.3 c -0.66,0 -0.77,0 -0.77,0.45 v 1.83 c 0,1.03 0.7,1.59 1.34,1.59 0.63,0 0.74,-0.54 0.74,-1.1 v -2.32 c 0,-0.45 -0.11,-0.45 -0.78,-0.45 v -0.3 c 0.35,0.01 0.86,0.03 1.12,0.03 0.26,0 0.78,-0.02 1.12,-0.03 v 0.3 c -0.52,0 -0.77,0 -0.78,0.3 v 1.9 c 0,0.85 0,1.16 -0.31,1.52 -0.13,0.17 -0.46,0.37 -1.04,0.37 -0.73,0 -1.19,-0.43 -1.47,-1.05 v 1.05 l -1.41,-0.11 v -0.31 c 0.7,0 0.78,-0.07 0.78,-0.56 z"
   style="fill:#000000;stroke-width:0" />
<path
   id="path5852"
   d="m 248.07,707.91 v -0.89 l 1.44,0.11 v 0.3 c -0.7,0 -0.78,0.07 -0.78,0.56 v 3.53 l -1.46,-0.11 v -0.31 c 0.69,0 0.77,-0.07 0.77,-0.56 v -1.77 c 0,-0.86 -0.47,-1.54 -1.2,-1.54 -0.84,0 -0.88,0.47 -0.88,0.99 v 3.3 l -1.46,-0.11 v -0.31 c 0.78,0 0.78,-0.03 0.78,-0.92 v -1.49 c 0,-0.77 0,-1.67 1.51,-1.67 0.56,0 1,0.27 1.28,0.89 z"
   style="fill:#000000;stroke-width:0" />
<path
   id="path5854"
   d="m 253.03,707.88 0.01,-0.04 0,-0.03 0.01,-0.04 0.01,-0.04 0.01,-0.04 0.01,-0.03 0.01,-0.04 0.01,-0.03 0.02,-0.04 0.01,-0.03 0.02,-0.04 0.02,-0.03 0.02,-0.03 0.02,-0.04 0.03,-0.03 0.02,-0.03 0.02,-0.02 0.03,-0.03 0.03,-0.03 0.03,-0.02 0.03,-0.02 0.03,-0.03 0.03,-0.02 0.03,-0.01 0.04,-0.02 0.04,-0.01 0.03,-0.02 0.04,-0.01 0.04,0 0.04,-0.01 0.04,0 0.05,0 c 0.21,0 0.81,0.13 0.81,0.94 v 0.56 h -0.25 v -0.56 c 0,-0.58 -0.24,-0.64 -0.35,-0.64 -0.33,0 -0.37,0.45 -0.37,0.5 v 1.99 c 0,0.41 0,0.8 -0.36,1.17 -0.39,0.39 -0.89,0.55 -1.36,0.55 -0.82,0 -1.5,-0.47 -1.5,-1.13 0,-0.29 0.19,-0.46 0.45,-0.46 0.28,0 0.46,0.19 0.46,0.45 0,0.12 -0.05,0.45 -0.51,0.46 0.27,0.35 0.76,0.46 1.08,0.46 0.49,0 1.05,-0.39 1.05,-1.27 v -0.37 -0.21 -0.99 c 0,-0.95 -0.72,-1.29 -1.16,-1.29 -0.49,0 -0.9,0.35 -0.9,0.85 0,0.55 0.42,1.37 2.06,1.43 h 0 v 0.21 c -0.51,-0.03 -1.2,-0.06 -1.83,-0.36 -0.75,-0.34 -0.99,-0.85 -0.99,-1.29 0,-0.81 0.96,-1.05 1.59,-1.05 0.65,0 1.11,0.39 1.3,0.86 z"
   style="fill:#000000;stroke-width:0" />
<path
   id="path5856"
   d="m 255.86,709.29 0,0.08 0.01,0.07 0,0.07 0,0.07 0.01,0.07 0,0.07 0.01,0.06 0.01,0.06 0.01,0.06 0.01,0.06 0.01,0.06 0.01,0.06 0.03,0.11 0.03,0.1 0.03,0.1 0.04,0.09 0.04,0.09 0.04,0.08 0.04,0.07 0.05,0.07 0.05,0.07 0.05,0.06 0.05,0.05 0.05,0.05 0.06,0.05 0.05,0.04 0.06,0.04 0.05,0.03 0.06,0.03 0.05,0.03 0.06,0.02 0.06,0.02 0.05,0.01 0.06,0.02 0.05,0.01 0.05,0 0.06,0.01 0.05,0 c 0.09,0 0.71,-0.01 1.06,-0.37 -0.41,-0.03 -0.47,-0.33 -0.47,-0.46 0,-0.26 0.18,-0.45 0.46,-0.45 0.26,0 0.46,0.16 0.46,0.46 0,0.68 -0.76,1.07 -1.52,1.07 -1.25,0 -2.16,-1.08 -2.16,-2.31 0,-1.27 0.98,-2.25 2.14,-2.25 1.33,0 1.65,1.19 1.65,1.29 0,0.1 -0.1,0.1 -0.13,0.1 -0.09,0 -0.11,-0.04 -0.13,-0.1 -0.29,-0.93 -0.93,-1.05 -1.3,-1.05 -0.53,0 -1.41,0.43 -1.41,2.03 z"
   style="fill:#000000;stroke-width:0" />
<path
   id="path5858"
   d="m 260.89,711.52 -1.4,-0.11 v -0.31 c 0.65,0 0.74,-0.06 0.74,-0.55 v -2.67 c 0,-0.45 -0.11,-0.45 -0.78,-0.45 v -0.3 c 0.32,0.01 0.86,0.03 1.1,0.03 0.35,0 0.7,-0.02 1.03,-0.03 v 0.3 c -0.65,0 -0.69,0.05 -0.69,0.44 z"
   style="fill:#000000;stroke-width:0" />
<path
   id="path5860"
   d="m 260.93,713.24 0,0.03 0,0.03 -0.01,0.03 0,0.03 -0.01,0.02 -0.01,0.03 -0.01,0.03 -0.01,0.02 -0.01,0.02 -0.01,0.03 -0.01,0.02 -0.02,0.02 -0.01,0.02 -0.02,0.02 -0.01,0.02 -0.02,0.02 -0.02,0.01 -0.02,0.02 -0.02,0.01 -0.02,0.02 -0.02,0.01 -0.02,0.01 -0.03,0.01 -0.02,0.01 -0.02,0.01 -0.03,0.01 -0.02,0.01 -0.03,0 -0.02,0.01 -0.03,0 -0.02,0 -0.03,0 c -0.31,0 -0.53,-0.27 -0.53,-0.53 0,-0.26 0.22,-0.52 0.53,-0.52 0.28,0 0.53,0.21 0.53,0.52 z"
   style="fill:#000000;stroke-width:0" />
<path
   id="path5862"
   d="m 265.63,713.4 0.01,0.02 0.02,0.01 0.01,0.02 0.02,0.01 0.01,0.02 0.01,0.01 0.01,0.01 0.01,0.01 0,0 0.01,0.01 0,0.01 0.01,0.01 0,0.01 0.01,0.01 0,0.01 0.01,0.01 0,0.01 0.01,0.01 0,0.01 0,0.01 0.01,0.02 0,0.01 0,0.01 0,0.01 0,0.01 0,0.01 0.01,0.01 c 0,0.18 -0.18,0.36 -0.36,0.36 -0.15,0 -0.26,-0.11 -0.3,-0.17 l -1.2,-1.52 0.17,-0.18 z"
   style="fill:#000000;stroke-width:0" />
<path
   id="path5864"
   d="m 266.58,709.25 0,0.12 -0.01,0.12 -0.01,0.11 -0.02,0.12 -0.03,0.11 -0.03,0.11 -0.03,0.11 -0.04,0.1 -0.05,0.1 -0.05,0.1 -0.05,0.1 -0.06,0.09 -0.06,0.1 -0.06,0.08 -0.07,0.09 -0.08,0.08 -0.07,0.08 -0.08,0.07 -0.09,0.07 -0.08,0.06 -0.09,0.07 -0.09,0.05 -0.1,0.05 -0.1,0.05 -0.1,0.04 -0.1,0.04 -0.1,0.03 -0.11,0.03 -0.11,0.02 -0.1,0.01 -0.12,0.01 -0.11,0.01 -0.01,-0.22 c 0.44,0 0.87,-0.22 1.13,-0.65 0.26,-0.43 0.26,-1 0.26,-1.38 0,-0.36 0,-0.89 -0.22,-1.33 -0.22,-0.45 -0.66,-0.74 -1.16,-0.74 h 0 c -0.43,0 -0.86,0.21 -1.13,0.67 -0.25,0.44 -0.25,1.04 -0.25,1.4 0,0.39 0,0.92 0.24,1.36 0.27,0.46 0.73,0.67 1.13,0.67 l 0.01,0.22 c -1.24,0 -2.21,-1.09 -2.21,-2.33 0,-1.28 1.04,-2.23 2.2,-2.23 1.21,0 2.21,0.97 2.21,2.23 z"
   style="fill:#000000;stroke-width:0" />
<path
   id="path5866"
   d="m 267.97,710.54 v -2.66 c 0,-0.45 -0.11,-0.45 -0.78,-0.45 v -0.3 c 0.35,0.01 0.86,0.03 1.13,0.03 0.26,0 0.78,-0.02 1.11,-0.03 v 0.3 c -0.66,0 -0.77,0 -0.77,0.45 v 1.83 c 0,1.03 0.7,1.59 1.34,1.59 0.63,0 0.74,-0.54 0.74,-1.1 v -2.32 c 0,-0.45 -0.11,-0.45 -0.78,-0.45 v -0.3 c 0.35,0.01 0.86,0.03 1.12,0.03 0.26,0 0.78,-0.02 1.12,-0.03 v 0.3 c -0.52,0 -0.77,0 -0.78,0.3 v 1.9 c 0,0.85 0,1.16 -0.31,1.52 -0.13,0.17 -0.46,0.37 -1.04,0.37 -0.73,0 -1.19,-0.43 -1.47,-1.05 v 1.05 l -1.41,-0.11 v -0.31 c 0.7,0 0.78,-0.07 0.78,-0.56 z"
   style="fill:#000000;stroke-width:0" />
<path
   id="path5868"
   d="m 279.03,704.74 0,0.01 0,0 0,0 0,0.01 0,0 0,0 0,0.01 0,0 0,0 -0.01,0.01 0,0 0,0.01 -0.01,0 0,0.01 0,0 -0.01,0.01 0,0.01 -0.01,0 0,0.01 -0.01,0 0,0.01 0,0 -0.01,0 0,0.01 0,0 -0.01,0.01 0,0 -0.01,0.01 0,0 -0.01,0.01 0,0 -0.01,0.01 -0.01,0.01 0,0 -0.01,0.01 0,0.01 -0.01,0 -0.01,0.01 0,0.01 -0.01,0 -0.01,0.01 -0.01,0.01 c -1.24,1.25 -1.56,3.13 -1.56,4.65 0,1.73 0.38,3.46 1.6,4.7 0.13,0.12 0.13,0.14 0.13,0.17 0,0.07 -0.04,0.1 -0.1,0.1 -0.1,0 -0.99,-0.68 -1.58,-1.94 -0.51,-1.09 -0.63,-2.2 -0.63,-3.03 0,-0.78 0.11,-1.98 0.66,-3.1 0.6,-1.22 1.45,-1.87 1.55,-1.87 0.06,0 0.1,0.03 0.1,0.1 z"
   style="fill:#000000;stroke-width:0" />
<path
   id="path5870"
   d="m 283.39,707.67 v -0.65 l 1.47,0.11 v 0.3 c -0.7,0 -0.78,0.07 -0.78,0.56 v 6.03 l -1.43,-0.11 v -0.31 c 0.69,0 0.77,-0.07 0.77,-0.55 v -2.15 c -0.28,0.36 -0.71,0.62 -1.25,0.62 l 0.04,-0.22 c 0.35,0 0.77,-0.15 1.07,-0.6 0.11,-0.17 0.11,-0.19 0.11,-0.37 h 0 v -2.03 c 0,-0.18 0,-0.2 -0.11,-0.37 -0.29,-0.48 -0.74,-0.7 -1.17,-0.7 -0.45,0 -0.81,0.26 -1.04,0.64 -0.26,0.41 -0.29,0.97 -0.29,1.38 0,0.37 0.02,0.96 0.3,1.41 0.21,0.31 0.59,0.64 1.13,0.64 l -0.04,0.22 c -1.17,0 -2.22,-0.98 -2.22,-2.26 0,-1.26 0.98,-2.24 2.11,-2.24 0.64,0 1.08,0.33 1.33,0.65 z"
   style="fill:#000000;stroke-width:0" />
<path
   id="path5872"
   d="m 289.7,710.67 0.09,0.02 0.09,0.02 0.09,0.03 0.08,0.02 0.09,0.03 0.08,0.03 0.07,0.04 0.08,0.03 0.07,0.04 0.08,0.04 0.06,0.04 0.07,0.04 0.07,0.05 0.06,0.05 0.06,0.05 0.05,0.05 0.06,0.05 0.05,0.05 0.04,0.06 0.05,0.05 0.04,0.06 0.04,0.06 0.03,0.06 0.03,0.06 0.03,0.07 0.03,0.06 0.02,0.07 0.02,0.06 0.01,0.07 0.01,0.06 0,0.07 0.01,0.07 c 0,0.86 -0.92,1.68 -2.21,1.68 l -0.07,-0.31 c 0.96,0 1.31,-0.84 1.31,-1.37 0,-0.64 -0.49,-1.47 -1.59,-1.47 h -1.44 v -0.22 h 1.87 c 0.98,0 1.4,-0.92 1.4,-1.59 0,-0.7 -0.52,-1.52 -1.54,-1.52 h 0 -1.25 c -0.46,0 -0.48,0.07 -0.48,0.4 v 2.71 0.22 2.45 c 0,0.32 0.02,0.39 0.48,0.39 h 1.24 l 0.07,0.31 h -3.64 v -0.31 h 0.23 c 0.77,0 0.79,-0.11 0.79,-0.46 v -5.24 c 0,-0.36 -0.02,-0.47 -0.79,-0.47 h -0.23 v -0.3 h 3.9 c 1.32,0 2.22,0.88 2.22,1.81 0,0.87 -0.82,1.61 -1.93,1.73 z"
   style="fill:#000000;stroke-width:0" />
<path
   id="path5874"
   d="m 296.56,714.2 0,0 0.01,0.01 0,0.01 0,0 0,0.01 0,0 0.01,0.01 0,0 0,0.01 0,0 0.01,0.01 0,0.01 0,0.01 0,0.01 0.01,0 0,0.01 0,0.01 0,0 0,0.01 0,0 0.01,0.01 0,0 0,0.01 0,0 0,0.01 0,0 0,0 0,0.01 0,0 0,0 0,0 0,0.01 0,0 0,0 0,0.01 c 0,0.11 -0.09,0.2 -0.2,0.2 -0.14,0 -0.18,-0.1 -0.21,-0.2 l -3.39,-9.36 c -0.05,-0.13 -0.05,-0.16 -0.05,-0.18 0,-0.11 0.09,-0.2 0.2,-0.2 0.14,0 0.18,0.1 0.21,0.2 z"
   style="fill:#000000;stroke-width:0" />
<path
   id="path5876"
   d="m 298.28,710.54 v -2.66 c 0,-0.45 -0.11,-0.45 -0.78,-0.45 v -0.3 c 0.35,0.01 0.86,0.03 1.13,0.03 0.26,0 0.77,-0.02 1.11,-0.03 v 0.3 c -0.66,0 -0.77,0 -0.77,0.45 v 1.83 c 0,1.03 0.7,1.59 1.34,1.59 0.63,0 0.74,-0.54 0.74,-1.1 v -2.32 c 0,-0.45 -0.11,-0.45 -0.78,-0.45 v -0.3 c 0.35,0.01 0.86,0.03 1.12,0.03 0.26,0 0.78,-0.02 1.12,-0.03 v 0.3 c -0.67,0 -0.78,0 -0.78,0.45 v 1.83 c 0,1.03 0.71,1.59 1.35,1.59 0.62,0 0.73,-0.54 0.73,-1.1 v -2.32 c 0,-0.45 -0.11,-0.45 -0.77,-0.45 v -0.3 c 0.34,0.01 0.85,0.03 1.12,0.03 0.26,0 0.78,-0.02 1.11,-0.03 v 0.3 c -0.51,0 -0.76,0 -0.77,0.3 v 1.9 c 0,0.85 0,1.16 -0.31,1.52 -0.14,0.17 -0.47,0.37 -1.04,0.37 -0.84,0 -1.28,-0.6 -1.45,-0.98 -0.14,0.87 -0.87,0.98 -1.32,0.98 -0.73,0 -1.19,-0.43 -1.47,-1.05 v 1.05 l -1.41,-0.11 v -0.31 c 0.7,0 0.78,-0.07 0.78,-0.56 z"
   style="fill:#000000;stroke-width:0" />
<path
   id="path5878"
   d="m 308.36,709.61 0,0.07 0,0.08 0,0.08 0,0.08 -0.01,0.17 -0.01,0.17 -0.02,0.18 -0.02,0.19 -0.03,0.2 -0.03,0.2 -0.04,0.2 -0.05,0.21 -0.05,0.21 -0.06,0.21 -0.07,0.21 -0.08,0.21 -0.04,0.11 -0.05,0.11 -0.04,0.1 -0.05,0.11 c -0.6,1.22 -1.46,1.87 -1.56,1.87 -0.05,0 -0.1,-0.04 -0.1,-0.1 0,-0.03 0,-0.05 0.19,-0.23 0.98,-0.99 1.55,-2.57 1.55,-4.64 0,-1.7 -0.37,-3.45 -1.61,-4.7 -0.13,-0.12 -0.13,-0.14 -0.13,-0.17 0,-0.06 0.05,-0.1 0.1,-0.1 0.1,0 1,0.68 1.59,1.94 0.5,1.09 0.62,2.19 0.62,3.03 z"
   style="fill:#000000;stroke-width:0" />
</g><g
     id="g6007"><g
       id="g6565"
       transform="matrix(0.95,0,0,0.95,-18.00935,-365.48648)"
       xml:space="preserve"
       stroke-miterlimit="10.433"
       font-style="normal"
       font-variant="normal"
       font-weight="normal"
       font-stretch="normal"
       font-size-adjust="none"
       letter-spacing="normal"
       word-spacing="normal"
       ns0:text="2,5"
       ns0:preamble=""
       style="font-style:normal;font-variant:normal;font-weight:normal;font-stretch:normal;letter-spacing:normal;word-spacing:normal;text-anchor:start;fill:none;stroke:#000000;stroke-linecap:butt;stroke-linejoin:miter;stroke-miterlimit:10.43299961;stroke-opacity:1;stroke-dasharray:none;stroke-dashoffset:0">
<path
   d="m 224.7,707.89 1.05,1.02 c 1.55,1.37 2.15,1.91 2.15,2.9 0,1.14 -0.9,1.93 -2.11,1.93 -1.12,0 -1.86,-0.91 -1.86,-1.8 0,-0.55 0.5,-0.55 0.53,-0.55 0.17,0 0.51,0.12 0.51,0.52 0,0.26 -0.18,0.52 -0.52,0.52 -0.08,0 -0.1,0 -0.13,-0.01 0.23,0.65 0.76,1.01 1.34,1.01 0.91,0 1.33,-0.8 1.33,-1.62 0,-0.79 -0.49,-1.58 -1.04,-2.19 l -1.91,-2.13 c -0.11,-0.11 -0.11,-0.13 -0.11,-0.36 h 3.69 l 0.28,1.72 h -0.25 c -0.05,-0.3 -0.12,-0.73 -0.22,-0.88 -0.07,-0.08 -0.72,-0.08 -0.94,-0.08 z"
   id="path6567"
   style="fill:#000000;stroke-width:0" />
<path
   d="m 230.43,707.14 0,0.05 0,0.06 0,0.06 -0.01,0.05 0,0.06 -0.01,0.05 -0.01,0.05 -0.01,0.05 -0.01,0.04 -0.01,0.05 -0.02,0.04 -0.01,0.04 -0.02,0.04 -0.02,0.04 -0.02,0.04 -0.02,0.03 -0.02,0.04 -0.02,0.03 -0.02,0.03 -0.03,0.03 -0.02,0.02 -0.03,0.02 -0.03,0.03 -0.03,0.01 -0.03,0.02 -0.03,0.02 -0.03,0.01 -0.03,0.01 -0.04,0.01 -0.03,0 -0.04,0.01 -0.03,0 c -0.35,0 -0.53,-0.27 -0.53,-0.53 0,-0.26 0.17,-0.52 0.53,-0.52 0.16,0 0.27,0.05 0.37,0.13 l 0.02,0.02 c 0.01,0 0.02,-0.01 0.02,-0.14 0,-0.64 -0.27,-1.25 -0.71,-1.71 -0.06,-0.06 -0.07,-0.07 -0.07,-0.11 0,-0.07 0.05,-0.11 0.1,-0.11 0.12,0 0.9,0.78 0.9,1.93 z"
   id="path6569"
   style="fill:#000000;stroke-width:0" />
<path
   d="m 235.65,709.12 0,0.11 -0.01,0.11 -0.01,0.11 -0.02,0.1 -0.02,0.11 -0.02,0.1 -0.03,0.1 -0.04,0.1 -0.03,0.1 -0.04,0.09 -0.05,0.09 -0.05,0.09 -0.05,0.09 -0.05,0.08 -0.06,0.08 -0.06,0.07 -0.07,0.08 -0.07,0.06 -0.07,0.07 -0.07,0.06 -0.08,0.06 -0.08,0.05 -0.08,0.05 -0.08,0.04 -0.09,0.04 -0.09,0.04 -0.09,0.03 -0.09,0.02 -0.1,0.02 -0.09,0.02 -0.1,0 -0.1,0.01 c -0.48,0 -0.91,-0.16 -1.27,-0.51 v 1.94 c 0.2,-0.06 0.53,-0.13 0.85,-0.13 1.22,0 1.92,0.9 1.92,1.03 0,0.06 -0.03,0.11 -0.1,0.11 -0.01,0 -0.03,0 -0.08,-0.03 -0.2,-0.09 -0.68,-0.29 -1.35,-0.29 -0.4,0 -0.86,0.07 -1.33,0.28 -0.08,0.03 -0.1,0.03 -0.11,0.03 -0.1,0 -0.1,-0.08 -0.1,-0.24 v -2.94 c 0,-0.18 0,-0.26 0.13,-0.26 0.08,0 0.09,0.03 0.13,0.09 0.11,0.16 0.48,0.7 1.29,0.7 0.52,0 0.76,-0.46 0.84,-0.64 0.16,-0.36 0.18,-0.75 0.18,-1.25 0,-0.35 0,-0.94 -0.24,-1.36 -0.23,-0.39 -0.6,-0.65 -1.06,-0.65 -0.73,0 -1.29,0.53 -1.46,1.12 0.03,-0.01 0.06,-0.02 0.17,-0.02 0.32,0 0.49,0.25 0.49,0.48 0,0.24 -0.17,0.49 -0.49,0.49 -0.14,0 -0.49,-0.07 -0.49,-0.53 0,-0.85 0.69,-1.81 1.8,-1.81 1.15,0 2.17,0.95 2.17,2.21 z"
   id="path6571"
   style="fill:#000000;stroke-width:0" />
</g><g
       id="g7265"
       transform="matrix(0.95,0,0,0.95,53.483,-365.48648)"
       xml:space="preserve"
       stroke-miterlimit="10.433"
       font-style="normal"
       font-variant="normal"
       font-weight="normal"
       font-stretch="normal"
       font-size-adjust="none"
       letter-spacing="normal"
       word-spacing="normal"
       ns0:text="3,5"
       ns0:preamble=""
       style="font-style:normal;font-variant:normal;font-weight:normal;font-stretch:normal;letter-spacing:normal;word-spacing:normal;text-anchor:start;fill:none;stroke:#000000;stroke-linecap:butt;stroke-linejoin:miter;stroke-miterlimit:10.43299961;stroke-opacity:1;stroke-dasharray:none;stroke-dashoffset:0">
<path
   d="m 226.32,710.62 0.07,0.03 0.08,0.03 0.07,0.03 0.07,0.03 0.07,0.04 0.07,0.04 0.06,0.04 0.07,0.04 0.06,0.04 0.06,0.05 0.06,0.05 0.06,0.05 0.05,0.05 0.05,0.05 0.05,0.06 0.05,0.05 0.04,0.06 0.05,0.06 0.04,0.06 0.03,0.06 0.04,0.07 0.03,0.06 0.03,0.07 0.03,0.06 0.02,0.07 0.02,0.07 0.02,0.07 0.01,0.07 0.02,0.07 0,0.07 0.01,0.08 0,0.07 c 0,0.81 -0.87,1.37 -1.83,1.37 -1,0 -1.76,-0.59 -1.76,-1.35 0,-0.33 0.22,-0.52 0.51,-0.52 0.3,0 0.5,0.22 0.5,0.51 0,0.5 -0.46,0.5 -0.61,0.5 0.3,0.48 0.96,0.61 1.32,0.61 0.41,0 0.95,-0.22 0.95,-1.11 0,-0.12 -0.02,-0.7 -0.27,-1.13 -0.3,-0.48 -0.64,-0.51 -0.89,-0.52 -0.08,-0.01 -0.32,-0.03 -0.39,-0.03 -0.08,-0.01 -0.15,-0.02 -0.15,-0.12 0,-0.11 0.07,-0.11 0.24,-0.11 h 0.44 c 0.82,0 1.18,-0.67 1.18,-1.65 0,-1.35 -0.68,-1.64 -1.12,-1.64 -0.43,0 -1.17,0.17 -1.52,0.76 0.35,-0.05 0.65,0.17 0.65,0.55 0,0.35 -0.26,0.55 -0.55,0.55 -0.24,0 -0.56,-0.14 -0.56,-0.57 0,-0.91 0.92,-1.56 2.01,-1.56 1.21,0 2.12,0.9 2.12,1.91 0,0.82 -0.63,1.59 -1.66,1.8 z"
   id="path7267"
   style="fill:#000000;stroke-width:0" />
<path
   d="m 230.43,707.14 0,0.05 0,0.06 0,0.06 -0.01,0.05 0,0.06 -0.01,0.05 -0.01,0.05 -0.01,0.05 -0.01,0.04 -0.01,0.05 -0.02,0.04 -0.01,0.04 -0.02,0.04 -0.02,0.04 -0.02,0.04 -0.02,0.03 -0.02,0.04 -0.02,0.03 -0.02,0.03 -0.03,0.03 -0.02,0.02 -0.03,0.02 -0.03,0.03 -0.03,0.01 -0.03,0.02 -0.03,0.02 -0.03,0.01 -0.03,0.01 -0.04,0.01 -0.03,0 -0.04,0.01 -0.03,0 c -0.35,0 -0.53,-0.27 -0.53,-0.53 0,-0.26 0.17,-0.52 0.53,-0.52 0.16,0 0.27,0.05 0.37,0.13 l 0.02,0.02 c 0.01,0 0.02,-0.01 0.02,-0.14 0,-0.64 -0.27,-1.25 -0.71,-1.71 -0.06,-0.06 -0.07,-0.07 -0.07,-0.11 0,-0.07 0.05,-0.11 0.1,-0.11 0.12,0 0.9,0.78 0.9,1.93 z"
   id="path7269"
   style="fill:#000000;stroke-width:0" />
<path
   d="m 235.65,709.12 0,0.11 -0.01,0.11 -0.01,0.11 -0.02,0.1 -0.02,0.11 -0.02,0.1 -0.03,0.1 -0.04,0.1 -0.03,0.1 -0.04,0.09 -0.05,0.09 -0.05,0.09 -0.05,0.09 -0.05,0.08 -0.06,0.08 -0.06,0.07 -0.07,0.08 -0.07,0.06 -0.07,0.07 -0.07,0.06 -0.08,0.06 -0.08,0.05 -0.08,0.05 -0.08,0.04 -0.09,0.04 -0.09,0.04 -0.09,0.03 -0.09,0.02 -0.1,0.02 -0.09,0.02 -0.1,0 -0.1,0.01 c -0.48,0 -0.91,-0.16 -1.27,-0.51 v 1.94 c 0.2,-0.06 0.53,-0.13 0.85,-0.13 1.22,0 1.92,0.9 1.92,1.03 0,0.06 -0.03,0.11 -0.1,0.11 -0.01,0 -0.03,0 -0.08,-0.03 -0.2,-0.09 -0.68,-0.29 -1.35,-0.29 -0.4,0 -0.86,0.07 -1.33,0.28 -0.08,0.03 -0.1,0.03 -0.11,0.03 -0.1,0 -0.1,-0.08 -0.1,-0.24 v -2.94 c 0,-0.18 0,-0.26 0.13,-0.26 0.08,0 0.09,0.03 0.13,0.09 0.11,0.16 0.48,0.7 1.29,0.7 0.52,0 0.76,-0.46 0.84,-0.64 0.16,-0.36 0.18,-0.75 0.18,-1.25 0,-0.35 0,-0.94 -0.24,-1.36 -0.23,-0.39 -0.6,-0.65 -1.06,-0.65 -0.73,0 -1.29,0.53 -1.46,1.12 0.03,-0.01 0.06,-0.02 0.17,-0.02 0.32,0 0.49,0.25 0.49,0.48 0,0.24 -0.17,0.49 -0.49,0.49 -0.14,0 -0.49,-0.07 -0.49,-0.53 0,-0.85 0.69,-1.81 1.8,-1.81 1.15,0 2.17,0.95 2.17,2.21 z"
   id="path7271"
   style="fill:#000000;stroke-width:0" />
</g><g
       id="g7989"
       transform="matrix(0.95,0,0,0.95,125.0495,-365.48648)"
       xml:space="preserve"
       stroke-miterlimit="10.433"
       font-style="normal"
       font-variant="normal"
       font-weight="normal"
       font-stretch="normal"
       font-size-adjust="none"
       letter-spacing="normal"
       word-spacing="normal"
       ns0:text="4,5"
       ns0:preamble=""
       style="font-style:normal;font-variant:normal;font-weight:normal;font-stretch:normal;letter-spacing:normal;word-spacing:normal;text-anchor:start;fill:none;stroke:#000000;stroke-linecap:butt;stroke-linejoin:miter;stroke-miterlimit:10.43299961;stroke-opacity:1;stroke-dasharray:none;stroke-dashoffset:0">
<path
   d="m 226.36,708.76 v -0.86 c 0,-0.36 -0.02,-0.47 -0.76,-0.47 h -0.21 v -0.3 c 0.41,0.03 0.93,0.03 1.35,0.03 0.41,0 0.94,0 1.35,-0.03 v 0.3 h -0.21 c -0.74,0 -0.76,0.11 -0.76,0.47 v 0.86 h 1 v 0.31 h -1 v 4.52 c 0,0.2 0,0.26 -0.16,0.26 -0.09,0 -0.11,0 -0.2,-0.12 l -3.05,-4.66 h 0.28 l 2.43,3.71 v -3.71 h -2.43 -0.28 v -0.31 z"
   id="path7991"
   style="fill:#000000;stroke-width:0" />
<path
   d="m 230.43,707.14 0,0.05 0,0.06 0,0.06 -0.01,0.05 0,0.06 -0.01,0.05 -0.01,0.05 -0.01,0.05 -0.01,0.04 -0.01,0.05 -0.02,0.04 -0.01,0.04 -0.02,0.04 -0.02,0.04 -0.02,0.04 -0.02,0.03 -0.02,0.04 -0.02,0.03 -0.02,0.03 -0.03,0.03 -0.02,0.02 -0.03,0.02 -0.03,0.03 -0.03,0.01 -0.03,0.02 -0.03,0.02 -0.03,0.01 -0.03,0.01 -0.04,0.01 -0.03,0 -0.04,0.01 -0.03,0 c -0.35,0 -0.53,-0.27 -0.53,-0.53 0,-0.26 0.17,-0.52 0.53,-0.52 0.16,0 0.27,0.05 0.37,0.13 l 0.02,0.02 c 0.01,0 0.02,-0.01 0.02,-0.14 0,-0.64 -0.27,-1.25 -0.71,-1.71 -0.06,-0.06 -0.07,-0.07 -0.07,-0.11 0,-0.07 0.05,-0.11 0.1,-0.11 0.12,0 0.9,0.78 0.9,1.93 z"
   id="path7993"
   style="fill:#000000;stroke-width:0" />
<path
   d="m 235.65,709.12 0,0.11 -0.01,0.11 -0.01,0.11 -0.02,0.1 -0.02,0.11 -0.02,0.1 -0.03,0.1 -0.04,0.1 -0.03,0.1 -0.04,0.09 -0.05,0.09 -0.05,0.09 -0.05,0.09 -0.05,0.08 -0.06,0.08 -0.06,0.07 -0.07,0.08 -0.07,0.06 -0.07,0.07 -0.07,0.06 -0.08,0.06 -0.08,0.05 -0.08,0.05 -0.08,0.04 -0.09,0.04 -0.09,0.04 -0.09,0.03 -0.09,0.02 -0.1,0.02 -0.09,0.02 -0.1,0 -0.1,0.01 c -0.48,0 -0.91,-0.16 -1.27,-0.51 v 1.94 c 0.2,-0.06 0.53,-0.13 0.85,-0.13 1.22,0 1.92,0.9 1.92,1.03 0,0.06 -0.03,0.11 -0.1,0.11 -0.01,0 -0.03,0 -0.08,-0.03 -0.2,-0.09 -0.68,-0.29 -1.35,-0.29 -0.4,0 -0.86,0.07 -1.33,0.28 -0.08,0.03 -0.1,0.03 -0.11,0.03 -0.1,0 -0.1,-0.08 -0.1,-0.24 v -2.94 c 0,-0.18 0,-0.26 0.13,-0.26 0.08,0 0.09,0.03 0.13,0.09 0.11,0.16 0.48,0.7 1.29,0.7 0.52,0 0.76,-0.46 0.84,-0.64 0.16,-0.36 0.18,-0.75 0.18,-1.25 0,-0.35 0,-0.94 -0.24,-1.36 -0.23,-0.39 -0.6,-0.65 -1.06,-0.65 -0.73,0 -1.29,0.53 -1.46,1.12 0.03,-0.01 0.06,-0.02 0.17,-0.02 0.32,0 0.49,0.25 0.49,0.48 0,0.24 -0.17,0.49 -0.49,0.49 -0.14,0 -0.49,-0.07 -0.49,-0.53 0,-0.85 0.69,-1.81 1.8,-1.81 1.15,0 2.17,0.95 2.17,2.21 z"
   id="path7995"
   style="fill:#000000;stroke-width:0" />
</g><g
       id="g8737"
       transform="matrix(0.95,0,0,0.95,196.3988,-365.48648)"
       xml:space="preserve"
       stroke-miterlimit="10.433"
       font-style="normal"
       font-variant="normal"
       font-weight="normal"
       font-stretch="normal"
       font-size-adjust="none"
       letter-spacing="normal"
       word-spacing="normal"
       ns0:text="5,5"
       ns0:preamble=""
       style="font-style:normal;font-variant:normal;font-weight:normal;font-stretch:normal;letter-spacing:normal;word-spacing:normal;text-anchor:start;fill:none;stroke:#000000;stroke-linecap:butt;stroke-linejoin:miter;stroke-miterlimit:10.43299961;stroke-opacity:1;stroke-dasharray:none;stroke-dashoffset:0">
<path
   d="m 227.9,709.12 0,0.11 -0.01,0.11 -0.01,0.11 -0.02,0.1 -0.02,0.11 -0.02,0.1 -0.03,0.1 -0.04,0.1 -0.03,0.1 -0.04,0.09 -0.05,0.09 -0.05,0.09 -0.05,0.09 -0.05,0.08 -0.06,0.08 -0.06,0.07 -0.07,0.08 -0.07,0.06 -0.07,0.07 -0.07,0.06 -0.08,0.06 -0.08,0.05 -0.08,0.05 -0.08,0.04 -0.09,0.04 -0.09,0.04 -0.09,0.03 -0.09,0.02 -0.1,0.02 -0.09,0.02 -0.1,0 -0.1,0.01 c -0.48,0 -0.91,-0.16 -1.27,-0.51 v 1.94 c 0.2,-0.06 0.53,-0.13 0.85,-0.13 1.23,0 1.92,0.9 1.92,1.03 0,0.06 -0.03,0.11 -0.1,0.11 -0.01,0 -0.03,0 -0.08,-0.03 -0.2,-0.09 -0.68,-0.29 -1.35,-0.29 -0.4,0 -0.86,0.07 -1.32,0.28 -0.08,0.03 -0.1,0.03 -0.12,0.03 -0.1,0 -0.1,-0.08 -0.1,-0.24 v -2.94 c 0,-0.18 0,-0.26 0.14,-0.26 0.07,0 0.09,0.03 0.13,0.09 0.11,0.16 0.47,0.7 1.28,0.7 0.52,0 0.77,-0.46 0.85,-0.64 0.15,-0.36 0.17,-0.75 0.17,-1.25 0,-0.35 0,-0.94 -0.24,-1.36 -0.23,-0.39 -0.6,-0.65 -1.06,-0.65 -0.73,0 -1.29,0.53 -1.46,1.12 0.03,-0.01 0.06,-0.02 0.17,-0.02 0.32,0 0.49,0.25 0.49,0.48 0,0.24 -0.17,0.49 -0.49,0.49 -0.14,0 -0.49,-0.07 -0.49,-0.53 0,-0.85 0.69,-1.81 1.8,-1.81 1.15,0 2.17,0.95 2.17,2.21 z"
   id="path8739"
   style="fill:#000000;stroke-width:0" />
<path
   d="m 230.43,707.14 0,0.05 0,0.06 0,0.06 -0.01,0.05 0,0.06 -0.01,0.05 -0.01,0.05 -0.01,0.05 -0.01,0.04 -0.01,0.05 -0.02,0.04 -0.01,0.04 -0.02,0.04 -0.02,0.04 -0.02,0.04 -0.02,0.03 -0.02,0.04 -0.02,0.03 -0.02,0.03 -0.03,0.03 -0.02,0.02 -0.03,0.02 -0.03,0.03 -0.03,0.01 -0.03,0.02 -0.03,0.02 -0.03,0.01 -0.03,0.01 -0.04,0.01 -0.03,0 -0.04,0.01 -0.03,0 c -0.35,0 -0.53,-0.27 -0.53,-0.53 0,-0.26 0.17,-0.52 0.53,-0.52 0.16,0 0.27,0.05 0.37,0.13 l 0.02,0.02 c 0.01,0 0.02,-0.01 0.02,-0.14 0,-0.64 -0.27,-1.25 -0.71,-1.71 -0.06,-0.06 -0.07,-0.07 -0.07,-0.11 0,-0.07 0.05,-0.11 0.1,-0.11 0.12,0 0.9,0.78 0.9,1.93 z"
   id="path8741"
   style="fill:#000000;stroke-width:0" />
<path
   d="m 235.65,709.12 0,0.11 -0.01,0.11 -0.01,0.11 -0.02,0.1 -0.02,0.11 -0.02,0.1 -0.03,0.1 -0.04,0.1 -0.03,0.1 -0.04,0.09 -0.05,0.09 -0.05,0.09 -0.05,0.09 -0.05,0.08 -0.06,0.08 -0.06,0.07 -0.07,0.08 -0.07,0.06 -0.07,0.07 -0.07,0.06 -0.08,0.06 -0.08,0.05 -0.08,0.05 -0.08,0.04 -0.09,0.04 -0.09,0.04 -0.09,0.03 -0.09,0.02 -0.1,0.02 -0.09,0.02 -0.1,0 -0.1,0.01 c -0.48,0 -0.91,-0.16 -1.27,-0.51 v 1.94 c 0.2,-0.06 0.53,-0.13 0.85,-0.13 1.22,0 1.92,0.9 1.92,1.03 0,0.06 -0.03,0.11 -0.1,0.11 -0.01,0 -0.03,0 -0.08,-0.03 -0.2,-0.09 -0.68,-0.29 -1.35,-0.29 -0.4,0 -0.86,0.07 -1.33,0.28 -0.08,0.03 -0.1,0.03 -0.11,0.03 -0.1,0 -0.1,-0.08 -0.1,-0.24 v -2.94 c 0,-0.18 0,-0.26 0.13,-0.26 0.08,0 0.09,0.03 0.13,0.09 0.11,0.16 0.48,0.7 1.29,0.7 0.52,0 0.76,-0.46 0.84,-0.64 0.16,-0.36 0.18,-0.75 0.18,-1.25 0,-0.35 0,-0.94 -0.24,-1.36 -0.23,-0.39 -0.6,-0.65 -1.06,-0.65 -0.73,0 -1.29,0.53 -1.46,1.12 0.03,-0.01 0.06,-0.02 0.17,-0.02 0.32,0 0.49,0.25 0.49,0.48 0,0.24 -0.17,0.49 -0.49,0.49 -0.14,0 -0.49,-0.07 -0.49,-0.53 0,-0.85 0.69,-1.81 1.8,-1.81 1.15,0 2.17,0.95 2.17,2.21 z"
   id="path8743"
   style="fill:#000000;stroke-width:0" />
</g><g
       ns0:preamble=""
       ns0:text="2,0"
       word-spacing="normal"
       letter-spacing="normal"
       font-size-adjust="none"
       font-stretch="normal"
       font-weight="normal"
       font-variant="normal"
       font-style="normal"
       stroke-miterlimit="10.433"
       xml:space="preserve"
       transform="matrix(0.95,0,0,0.95,-53.932217,-365.48648)"
       id="g11551"
       style="font-style:normal;font-variant:normal;font-weight:normal;font-stretch:normal;letter-spacing:normal;word-spacing:normal;text-anchor:start;fill:none;stroke:#000000;stroke-linecap:butt;stroke-linejoin:miter;stroke-miterlimit:10.43299961;stroke-opacity:1;stroke-dasharray:none;stroke-dashoffset:0">
<path
   id="path11553"
   d="m 224.7,707.89 1.05,1.02 c 1.55,1.37 2.15,1.91 2.15,2.9 0,1.14 -0.9,1.93 -2.11,1.93 -1.12,0 -1.86,-0.91 -1.86,-1.8 0,-0.55 0.5,-0.55 0.53,-0.55 0.17,0 0.51,0.12 0.51,0.52 0,0.26 -0.18,0.52 -0.52,0.52 -0.08,0 -0.1,0 -0.13,-0.01 0.23,0.65 0.76,1.01 1.34,1.01 0.91,0 1.33,-0.8 1.33,-1.62 0,-0.79 -0.49,-1.58 -1.04,-2.19 l -1.91,-2.13 c -0.11,-0.11 -0.11,-0.13 -0.11,-0.36 h 3.69 l 0.28,1.72 h -0.25 c -0.05,-0.3 -0.12,-0.73 -0.22,-0.88 -0.07,-0.08 -0.72,-0.08 -0.94,-0.08 z"
   style="fill:#000000;stroke-width:0" />
<path
   id="path11555"
   d="m 230.43,707.14 0,0.05 0,0.06 0,0.06 -0.01,0.05 0,0.06 -0.01,0.05 -0.01,0.05 -0.01,0.05 -0.01,0.04 -0.01,0.05 -0.02,0.04 -0.01,0.04 -0.02,0.04 -0.02,0.04 -0.02,0.04 -0.02,0.03 -0.02,0.04 -0.02,0.03 -0.02,0.03 -0.03,0.03 -0.02,0.02 -0.03,0.02 -0.03,0.03 -0.03,0.01 -0.03,0.02 -0.03,0.02 -0.03,0.01 -0.03,0.01 -0.04,0.01 -0.03,0 -0.04,0.01 -0.03,0 c -0.35,0 -0.53,-0.27 -0.53,-0.53 0,-0.26 0.17,-0.52 0.53,-0.52 0.16,0 0.27,0.05 0.37,0.13 l 0.02,0.02 c 0.01,0 0.02,-0.01 0.02,-0.14 0,-0.64 -0.27,-1.25 -0.71,-1.71 -0.06,-0.06 -0.07,-0.07 -0.07,-0.11 0,-0.07 0.05,-0.11 0.1,-0.11 0.12,0 0.9,0.78 0.9,1.93 z"
   style="fill:#000000;stroke-width:0" />
<path
   id="path11557"
   d="m 235.76,710.3 0,0.15 0,0.15 -0.01,0.15 -0.01,0.15 0,0.15 -0.02,0.14 -0.01,0.15 -0.02,0.15 -0.02,0.14 -0.03,0.15 -0.03,0.14 -0.04,0.15 -0.04,0.14 -0.05,0.14 -0.06,0.14 -0.03,0.07 -0.03,0.07 c -0.46,0.95 -1.27,1.11 -1.69,1.11 -0.6,0 -1.32,-0.26 -1.73,-1.18 -0.32,-0.69 -0.37,-1.46 -0.37,-2.26 0,-0.74 0.04,-1.64 0.45,-2.39 0.42,-0.81 1.15,-1 1.64,-1 v 0.22 c -0.39,0 -0.98,0.24 -1.16,1.2 -0.1,0.59 -0.1,1.51 -0.1,2.09 0,0.64 0,1.29 0.07,1.83 0.19,1.18 0.94,1.27 1.19,1.27 0.33,0 0.98,-0.18 1.17,-1.16 0.1,-0.56 0.1,-1.31 0.1,-1.94 0,-0.74 0,-1.42 -0.11,-2.05 -0.15,-0.95 -0.71,-1.24 -1.16,-1.24 h 0 v -0.22 c 0.54,0 1.29,0.2 1.73,1.15 0.32,0.68 0.37,1.46 0.37,2.24 z"
   style="fill:#000000;stroke-width:0" />
</g><g
       style="font-style:normal;font-variant:normal;font-weight:normal;font-stretch:normal;letter-spacing:normal;word-spacing:normal;text-anchor:start;fill:none;stroke:#000000;stroke-linecap:butt;stroke-linejoin:miter;stroke-miterlimit:10.43299961;stroke-opacity:1;stroke-dasharray:none;stroke-dashoffset:0"
       id="g11949"
       transform="matrix(0.95,0,0,0.95,17.7264,-365.48648)"
       xml:space="preserve"
       stroke-miterlimit="10.433"
       font-style="normal"
       font-variant="normal"
       font-weight="normal"
       font-stretch="normal"
       font-size-adjust="none"
       letter-spacing="normal"
       word-spacing="normal"
       ns0:text="3,0"
       ns0:preamble="">
<path
   style="fill:#000000;stroke-width:0"
   d="m 226.32,710.62 0.07,0.03 0.08,0.03 0.07,0.03 0.07,0.03 0.07,0.04 0.07,0.04 0.06,0.04 0.07,0.04 0.06,0.04 0.06,0.05 0.06,0.05 0.06,0.05 0.05,0.05 0.05,0.05 0.05,0.06 0.05,0.05 0.04,0.06 0.05,0.06 0.04,0.06 0.03,0.06 0.04,0.07 0.03,0.06 0.03,0.07 0.03,0.06 0.02,0.07 0.02,0.07 0.02,0.07 0.01,0.07 0.02,0.07 0,0.07 0.01,0.08 0,0.07 c 0,0.81 -0.87,1.37 -1.83,1.37 -1,0 -1.76,-0.59 -1.76,-1.35 0,-0.33 0.22,-0.52 0.51,-0.52 0.3,0 0.5,0.22 0.5,0.51 0,0.5 -0.46,0.5 -0.61,0.5 0.3,0.48 0.96,0.61 1.32,0.61 0.41,0 0.95,-0.22 0.95,-1.11 0,-0.12 -0.02,-0.7 -0.27,-1.13 -0.3,-0.48 -0.64,-0.51 -0.89,-0.52 -0.08,-0.01 -0.32,-0.03 -0.39,-0.03 -0.08,-0.01 -0.15,-0.02 -0.15,-0.12 0,-0.11 0.07,-0.11 0.24,-0.11 h 0.44 c 0.82,0 1.18,-0.67 1.18,-1.65 0,-1.35 -0.68,-1.64 -1.12,-1.64 -0.43,0 -1.17,0.17 -1.52,0.76 0.35,-0.05 0.65,0.17 0.65,0.55 0,0.35 -0.26,0.55 -0.55,0.55 -0.24,0 -0.56,-0.14 -0.56,-0.57 0,-0.91 0.92,-1.56 2.01,-1.56 1.21,0 2.12,0.9 2.12,1.91 0,0.82 -0.63,1.59 -1.66,1.8 z"
   id="path11951" />
<path
   style="fill:#000000;stroke-width:0"
   d="m 230.43,707.14 0,0.05 0,0.06 0,0.06 -0.01,0.05 0,0.06 -0.01,0.05 -0.01,0.05 -0.01,0.05 -0.01,0.04 -0.01,0.05 -0.02,0.04 -0.01,0.04 -0.02,0.04 -0.02,0.04 -0.02,0.04 -0.02,0.03 -0.02,0.04 -0.02,0.03 -0.02,0.03 -0.03,0.03 -0.02,0.02 -0.03,0.02 -0.03,0.03 -0.03,0.01 -0.03,0.02 -0.03,0.02 -0.03,0.01 -0.03,0.01 -0.04,0.01 -0.03,0 -0.04,0.01 -0.03,0 c -0.35,0 -0.53,-0.27 -0.53,-0.53 0,-0.26 0.17,-0.52 0.53,-0.52 0.16,0 0.27,0.05 0.37,0.13 l 0.02,0.02 c 0.01,0 0.02,-0.01 0.02,-0.14 0,-0.64 -0.27,-1.25 -0.71,-1.71 -0.06,-0.06 -0.07,-0.07 -0.07,-0.11 0,-0.07 0.05,-0.11 0.1,-0.11 0.12,0 0.9,0.78 0.9,1.93 z"
   id="path11953" />
<path
   style="fill:#000000;stroke-width:0"
   d="m 235.76,710.3 0,0.15 0,0.15 -0.01,0.15 -0.01,0.15 0,0.15 -0.02,0.14 -0.01,0.15 -0.02,0.15 -0.02,0.14 -0.03,0.15 -0.03,0.14 -0.04,0.15 -0.04,0.14 -0.05,0.14 -0.06,0.14 -0.03,0.07 -0.03,0.07 c -0.46,0.95 -1.27,1.11 -1.69,1.11 -0.6,0 -1.32,-0.26 -1.73,-1.18 -0.32,-0.69 -0.37,-1.46 -0.37,-2.26 0,-0.74 0.04,-1.64 0.45,-2.39 0.42,-0.81 1.15,-1 1.64,-1 v 0.22 c -0.39,0 -0.98,0.24 -1.16,1.2 -0.1,0.59 -0.1,1.51 -0.1,2.09 0,0.64 0,1.29 0.07,1.83 0.19,1.18 0.94,1.27 1.19,1.27 0.33,0 0.98,-0.18 1.17,-1.16 0.1,-0.56 0.1,-1.31 0.1,-1.94 0,-0.74 0,-1.42 -0.11,-2.05 -0.15,-0.95 -0.71,-1.24 -1.16,-1.24 h 0 v -0.22 c 0.54,0 1.29,0.2 1.73,1.15 0.32,0.68 0.37,1.46 0.37,2.24 z"
   id="path11955" />
</g><g
       ns0:preamble=""
       ns0:text="4,0"
       word-spacing="normal"
       letter-spacing="normal"
       font-size-adjust="none"
       font-stretch="normal"
       font-weight="normal"
       font-variant="normal"
       font-style="normal"
       stroke-miterlimit="10.433"
       xml:space="preserve"
       transform="matrix(0.95,0,0,0.95,89.157,-365.48648)"
       id="g12355"
       style="font-style:normal;font-variant:normal;font-weight:normal;font-stretch:normal;letter-spacing:normal;word-spacing:normal;text-anchor:start;fill:none;stroke:#000000;stroke-linecap:butt;stroke-linejoin:miter;stroke-miterlimit:10.43299961;stroke-opacity:1;stroke-dasharray:none;stroke-dashoffset:0">
<path
   id="path12357"
   d="m 226.36,708.76 v -0.86 c 0,-0.36 -0.02,-0.47 -0.76,-0.47 h -0.21 v -0.3 c 0.41,0.03 0.93,0.03 1.35,0.03 0.41,0 0.94,0 1.35,-0.03 v 0.3 h -0.21 c -0.74,0 -0.76,0.11 -0.76,0.47 v 0.86 h 1 v 0.31 h -1 v 4.52 c 0,0.2 0,0.26 -0.16,0.26 -0.09,0 -0.11,0 -0.2,-0.12 l -3.05,-4.66 h 0.28 l 2.43,3.71 v -3.71 h -2.43 -0.28 v -0.31 z"
   style="fill:#000000;stroke-width:0" />
<path
   id="path12359"
   d="m 230.43,707.14 0,0.05 0,0.06 0,0.06 -0.01,0.05 0,0.06 -0.01,0.05 -0.01,0.05 -0.01,0.05 -0.01,0.04 -0.01,0.05 -0.02,0.04 -0.01,0.04 -0.02,0.04 -0.02,0.04 -0.02,0.04 -0.02,0.03 -0.02,0.04 -0.02,0.03 -0.02,0.03 -0.03,0.03 -0.02,0.02 -0.03,0.02 -0.03,0.03 -0.03,0.01 -0.03,0.02 -0.03,0.02 -0.03,0.01 -0.03,0.01 -0.04,0.01 -0.03,0 -0.04,0.01 -0.03,0 c -0.35,0 -0.53,-0.27 -0.53,-0.53 0,-0.26 0.17,-0.52 0.53,-0.52 0.16,0 0.27,0.05 0.37,0.13 l 0.02,0.02 c 0.01,0 0.02,-0.01 0.02,-0.14 0,-0.64 -0.27,-1.25 -0.71,-1.71 -0.06,-0.06 -0.07,-0.07 -0.07,-0.11 0,-0.07 0.05,-0.11 0.1,-0.11 0.12,0 0.9,0.78 0.9,1.93 z"
   style="fill:#000000;stroke-width:0" />
<path
   id="path12361"
   d="m 235.76,710.3 0,0.15 0,0.15 -0.01,0.15 -0.01,0.15 0,0.15 -0.02,0.14 -0.01,0.15 -0.02,0.15 -0.02,0.14 -0.03,0.15 -0.03,0.14 -0.04,0.15 -0.04,0.14 -0.05,0.14 -0.06,0.14 -0.03,0.07 -0.03,0.07 c -0.46,0.95 -1.27,1.11 -1.69,1.11 -0.6,0 -1.32,-0.26 -1.73,-1.18 -0.32,-0.69 -0.37,-1.46 -0.37,-2.26 0,-0.74 0.04,-1.64 0.45,-2.39 0.42,-0.81 1.15,-1 1.64,-1 v 0.22 c -0.39,0 -0.98,0.24 -1.16,1.2 -0.1,0.59 -0.1,1.51 -0.1,2.09 0,0.64 0,1.29 0.07,1.83 0.19,1.18 0.94,1.27 1.19,1.27 0.33,0 0.98,-0.18 1.17,-1.16 0.1,-0.56 0.1,-1.31 0.1,-1.94 0,-0.74 0,-1.42 -0.11,-2.05 -0.15,-0.95 -0.71,-1.24 -1.16,-1.24 h 0 v -0.22 c 0.54,0 1.29,0.2 1.73,1.15 0.32,0.68 0.37,1.46 0.37,2.24 z"
   style="fill:#000000;stroke-width:0" />
</g><g
       style="font-style:normal;font-variant:normal;font-weight:normal;font-stretch:normal;letter-spacing:normal;word-spacing:normal;text-anchor:start;fill:none;stroke:#000000;stroke-linecap:butt;stroke-linejoin:miter;stroke-miterlimit:10.43299961;stroke-opacity:1;stroke-dasharray:none;stroke-dashoffset:0"
       id="g12769"
       transform="matrix(0.95,0,0,0.95,160.657,-365.48648)"
       xml:space="preserve"
       stroke-miterlimit="10.433"
       font-style="normal"
       font-variant="normal"
       font-weight="normal"
       font-stretch="normal"
       font-size-adjust="none"
       letter-spacing="normal"
       word-spacing="normal"
       ns0:text="5,0"
       ns0:preamble="">
<path
   style="fill:#000000;stroke-width:0"
   d="m 227.9,709.12 0,0.11 -0.01,0.11 -0.01,0.11 -0.02,0.1 -0.02,0.11 -0.02,0.1 -0.03,0.1 -0.04,0.1 -0.03,0.1 -0.04,0.09 -0.05,0.09 -0.05,0.09 -0.05,0.09 -0.05,0.08 -0.06,0.08 -0.06,0.07 -0.07,0.08 -0.07,0.06 -0.07,0.07 -0.07,0.06 -0.08,0.06 -0.08,0.05 -0.08,0.05 -0.08,0.04 -0.09,0.04 -0.09,0.04 -0.09,0.03 -0.09,0.02 -0.1,0.02 -0.09,0.02 -0.1,0 -0.1,0.01 c -0.48,0 -0.91,-0.16 -1.27,-0.51 v 1.94 c 0.2,-0.06 0.53,-0.13 0.85,-0.13 1.23,0 1.92,0.9 1.92,1.03 0,0.06 -0.03,0.11 -0.1,0.11 -0.01,0 -0.03,0 -0.08,-0.03 -0.2,-0.09 -0.68,-0.29 -1.35,-0.29 -0.4,0 -0.86,0.07 -1.32,0.28 -0.08,0.03 -0.1,0.03 -0.12,0.03 -0.1,0 -0.1,-0.08 -0.1,-0.24 v -2.94 c 0,-0.18 0,-0.26 0.14,-0.26 0.07,0 0.09,0.03 0.13,0.09 0.11,0.16 0.47,0.7 1.28,0.7 0.52,0 0.77,-0.46 0.85,-0.64 0.15,-0.36 0.17,-0.75 0.17,-1.25 0,-0.35 0,-0.94 -0.24,-1.36 -0.23,-0.39 -0.6,-0.65 -1.06,-0.65 -0.73,0 -1.29,0.53 -1.46,1.12 0.03,-0.01 0.06,-0.02 0.17,-0.02 0.32,0 0.49,0.25 0.49,0.48 0,0.24 -0.17,0.49 -0.49,0.49 -0.14,0 -0.49,-0.07 -0.49,-0.53 0,-0.85 0.69,-1.81 1.8,-1.81 1.15,0 2.17,0.95 2.17,2.21 z"
   id="path12771" />
<path
   style="fill:#000000;stroke-width:0"
   d="m 230.43,707.14 0,0.05 0,0.06 0,0.06 -0.01,0.05 0,0.06 -0.01,0.05 -0.01,0.05 -0.01,0.05 -0.01,0.04 -0.01,0.05 -0.02,0.04 -0.01,0.04 -0.02,0.04 -0.02,0.04 -0.02,0.04 -0.02,0.03 -0.02,0.04 -0.02,0.03 -0.02,0.03 -0.03,0.03 -0.02,0.02 -0.03,0.02 -0.03,0.03 -0.03,0.01 -0.03,0.02 -0.03,0.02 -0.03,0.01 -0.03,0.01 -0.04,0.01 -0.03,0 -0.04,0.01 -0.03,0 c -0.35,0 -0.53,-0.27 -0.53,-0.53 0,-0.26 0.17,-0.52 0.53,-0.52 0.16,0 0.27,0.05 0.37,0.13 l 0.02,0.02 c 0.01,0 0.02,-0.01 0.02,-0.14 0,-0.64 -0.27,-1.25 -0.71,-1.71 -0.06,-0.06 -0.07,-0.07 -0.07,-0.11 0,-0.07 0.05,-0.11 0.1,-0.11 0.12,0 0.9,0.78 0.9,1.93 z"
   id="path12773" />
<path
   style="fill:#000000;stroke-width:0"
   d="m 235.76,710.3 0,0.15 0,0.15 -0.01,0.15 -0.01,0.15 0,0.15 -0.02,0.14 -0.01,0.15 -0.02,0.15 -0.02,0.14 -0.03,0.15 -0.03,0.14 -0.04,0.15 -0.04,0.14 -0.05,0.14 -0.06,0.14 -0.03,0.07 -0.03,0.07 c -0.46,0.95 -1.27,1.11 -1.69,1.11 -0.6,0 -1.32,-0.26 -1.73,-1.18 -0.32,-0.69 -0.37,-1.46 -0.37,-2.26 0,-0.74 0.04,-1.64 0.45,-2.39 0.42,-0.81 1.15,-1 1.64,-1 v 0.22 c -0.39,0 -0.98,0.24 -1.16,1.2 -0.1,0.59 -0.1,1.51 -0.1,2.09 0,0.64 0,1.29 0.07,1.83 0.19,1.18 0.94,1.27 1.19,1.27 0.33,0 0.98,-0.18 1.17,-1.16 0.1,-0.56 0.1,-1.31 0.1,-1.94 0,-0.74 0,-1.42 -0.11,-2.05 -0.15,-0.95 -0.71,-1.24 -1.16,-1.24 h 0 v -0.22 c 0.54,0 1.29,0.2 1.73,1.15 0.32,0.68 0.37,1.46 0.37,2.24 z"
   id="path12775" />
</g><g
       ns0:preamble=""
       ns0:text="6,0"
       word-spacing="normal"
       letter-spacing="normal"
       font-size-adjust="none"
       font-stretch="normal"
       font-weight="normal"
       font-variant="normal"
       font-style="normal"
       stroke-miterlimit="10.433"
       xml:space="preserve"
       transform="matrix(0.95,0,0,0.95,232.13455,-365.48648)"
       id="g13191"
       style="font-style:normal;font-variant:normal;font-weight:normal;font-stretch:normal;letter-spacing:normal;word-spacing:normal;text-anchor:start;fill:none;stroke:#000000;stroke-linecap:butt;stroke-linejoin:miter;stroke-miterlimit:10.43299961;stroke-opacity:1;stroke-dasharray:none;stroke-dashoffset:0">
<path
   id="path13193"
   d="m 224.74,710.38 v 0.24 c 0,2.52 1.24,2.87 1.75,2.87 0.24,0 0.65,-0.06 0.87,-0.4 -0.15,0 -0.54,0 -0.54,-0.44 0,-0.31 0.23,-0.46 0.45,-0.46 0.16,0 0.46,0.09 0.46,0.48 0,0.59 -0.44,1.07 -1.26,1.07 -1.28,0 -2.62,-1.28 -2.62,-3.48 0,-2.65 1.15,-3.35 2.08,-3.35 1.1,0 2.05,0.93 2.05,2.24 0,1.26 -0.89,2.22 -1.99,2.22 l -0.01,-0.23 c 0.16,0 0.62,0 0.92,-0.62 0.18,-0.36 0.18,-0.87 0.18,-1.36 0,-0.48 0,-0.97 -0.17,-1.33 -0.29,-0.6 -0.75,-0.65 -0.98,-0.65 h 0 c -0.63,0 -0.93,0.6 -0.99,0.75 -0.18,0.47 -0.18,1.26 -0.18,1.44 0,0.78 0.32,1.77 1.22,1.77 l 0.01,0.23 c -0.68,0 -1.05,-0.51 -1.25,-0.99 z"
   style="fill:#000000;stroke-width:0" />
<path
   id="path13195"
   d="m 230.43,707.14 0,0.05 0,0.06 0,0.06 -0.01,0.05 0,0.06 -0.01,0.05 -0.01,0.05 -0.01,0.05 -0.01,0.04 -0.01,0.05 -0.02,0.04 -0.01,0.04 -0.02,0.04 -0.02,0.04 -0.02,0.04 -0.02,0.03 -0.02,0.04 -0.02,0.03 -0.02,0.03 -0.03,0.03 -0.02,0.02 -0.03,0.02 -0.03,0.03 -0.03,0.01 -0.03,0.02 -0.03,0.02 -0.03,0.01 -0.03,0.01 -0.04,0.01 -0.03,0 -0.04,0.01 -0.03,0 c -0.35,0 -0.53,-0.27 -0.53,-0.53 0,-0.26 0.17,-0.52 0.53,-0.52 0.16,0 0.27,0.05 0.37,0.13 l 0.02,0.02 c 0.01,0 0.02,-0.01 0.02,-0.14 0,-0.64 -0.27,-1.25 -0.71,-1.71 -0.06,-0.06 -0.07,-0.07 -0.07,-0.11 0,-0.07 0.05,-0.11 0.1,-0.11 0.12,0 0.9,0.78 0.9,1.93 z"
   style="fill:#000000;stroke-width:0" />
<path
   id="path13197"
   d="m 235.76,710.3 0,0.15 0,0.15 -0.01,0.15 -0.01,0.15 0,0.15 -0.02,0.14 -0.01,0.15 -0.02,0.15 -0.02,0.14 -0.03,0.15 -0.03,0.14 -0.04,0.15 -0.04,0.14 -0.05,0.14 -0.06,0.14 -0.03,0.07 -0.03,0.07 c -0.46,0.95 -1.27,1.11 -1.69,1.11 -0.6,0 -1.32,-0.26 -1.73,-1.18 -0.32,-0.69 -0.37,-1.46 -0.37,-2.26 0,-0.74 0.04,-1.64 0.45,-2.39 0.42,-0.81 1.15,-1 1.64,-1 v 0.22 c -0.39,0 -0.98,0.24 -1.16,1.2 -0.1,0.59 -0.1,1.51 -0.1,2.09 0,0.64 0,1.29 0.07,1.83 0.19,1.18 0.94,1.27 1.19,1.27 0.33,0 0.98,-0.18 1.17,-1.16 0.1,-0.56 0.1,-1.31 0.1,-1.94 0,-0.74 0,-1.42 -0.11,-2.05 -0.15,-0.95 -0.71,-1.24 -1.16,-1.24 h 0 v -0.22 c 0.54,0 1.29,0.2 1.73,1.15 0.32,0.68 0.37,1.46 0.37,2.24 z"
   style="fill:#000000;stroke-width:0" />
</g></g><g
     id="g5970"><g
       style="font-style:normal;font-variant:normal;font-weight:normal;font-stretch:normal;letter-spacing:normal;word-spacing:normal;text-anchor:start;fill:none;stroke:#000000;stroke-linecap:butt;stroke-linejoin:miter;stroke-miterlimit:10.43299961;stroke-opacity:1;stroke-dasharray:none;stroke-dashoffset:0"
       id="g15401"
       transform="matrix(0.95,0,0,0.95,-69.657945,-320.18487)"
       xml:space="preserve"
       stroke-miterlimit="10.433"
       font-style="normal"
       font-variant="normal"
       font-weight="normal"
       font-stretch="normal"
       font-size-adjust="none"
       letter-spacing="normal"
       word-spacing="normal"
       ns0:text="0,05"
       ns0:preamble="">
<path
   style="fill:#000000;stroke-width:0"
   d="m 228.01,710.3 0,0.15 0,0.15 -0.01,0.15 0,0.15 -0.01,0.15 -0.02,0.14 -0.01,0.15 -0.02,0.15 -0.02,0.14 -0.03,0.15 -0.03,0.14 -0.04,0.15 -0.04,0.14 -0.05,0.14 -0.06,0.14 -0.03,0.07 -0.03,0.07 c -0.46,0.95 -1.27,1.11 -1.69,1.11 -0.6,0 -1.32,-0.26 -1.73,-1.18 -0.32,-0.69 -0.37,-1.46 -0.37,-2.26 0,-0.74 0.04,-1.64 0.45,-2.39 0.43,-0.81 1.15,-1 1.64,-1 v 0.22 c -0.39,0 -0.98,0.24 -1.15,1.2 -0.11,0.59 -0.11,1.51 -0.11,2.09 0,0.64 0,1.29 0.08,1.83 0.18,1.18 0.93,1.27 1.18,1.27 0.33,0 0.98,-0.18 1.17,-1.16 0.1,-0.56 0.1,-1.31 0.1,-1.94 0,-0.74 0,-1.42 -0.11,-2.05 -0.15,-0.95 -0.71,-1.24 -1.16,-1.24 h 0 v -0.22 c 0.54,0 1.29,0.2 1.73,1.15 0.32,0.68 0.37,1.46 0.37,2.24 z"
   id="path15403" />
<path
   style="fill:#000000;stroke-width:0"
   d="m 230.43,707.14 0,0.05 0,0.06 0,0.06 -0.01,0.05 0,0.06 -0.01,0.05 -0.01,0.05 -0.01,0.05 -0.01,0.04 -0.01,0.05 -0.02,0.04 -0.01,0.04 -0.02,0.04 -0.02,0.04 -0.02,0.04 -0.02,0.03 -0.02,0.04 -0.02,0.03 -0.02,0.03 -0.03,0.03 -0.02,0.02 -0.03,0.02 -0.03,0.03 -0.03,0.01 -0.03,0.02 -0.03,0.02 -0.03,0.01 -0.03,0.01 -0.04,0.01 -0.03,0 -0.04,0.01 -0.03,0 c -0.35,0 -0.53,-0.27 -0.53,-0.53 0,-0.26 0.17,-0.52 0.53,-0.52 0.16,0 0.27,0.05 0.37,0.13 l 0.02,0.02 c 0.01,0 0.02,-0.01 0.02,-0.14 0,-0.64 -0.27,-1.25 -0.71,-1.71 -0.06,-0.06 -0.07,-0.07 -0.07,-0.11 0,-0.07 0.05,-0.11 0.1,-0.11 0.12,0 0.9,0.78 0.9,1.93 z"
   id="path15405" />
<path
   style="fill:#000000;stroke-width:0"
   d="m 235.76,710.3 0,0.15 0,0.15 -0.01,0.15 -0.01,0.15 0,0.15 -0.02,0.14 -0.01,0.15 -0.02,0.15 -0.02,0.14 -0.03,0.15 -0.03,0.14 -0.04,0.15 -0.04,0.14 -0.05,0.14 -0.06,0.14 -0.03,0.07 -0.03,0.07 c -0.46,0.95 -1.27,1.11 -1.69,1.11 -0.6,0 -1.32,-0.26 -1.73,-1.18 -0.32,-0.69 -0.37,-1.46 -0.37,-2.26 0,-0.74 0.04,-1.64 0.45,-2.39 0.42,-0.81 1.15,-1 1.64,-1 v 0.22 c -0.39,0 -0.98,0.24 -1.16,1.2 -0.1,0.59 -0.1,1.51 -0.1,2.09 0,0.64 0,1.29 0.07,1.83 0.19,1.18 0.94,1.27 1.19,1.27 0.33,0 0.98,-0.18 1.17,-1.16 0.1,-0.56 0.1,-1.31 0.1,-1.94 0,-0.74 0,-1.42 -0.11,-2.05 -0.15,-0.95 -0.71,-1.24 -1.16,-1.24 h 0 v -0.22 c 0.54,0 1.29,0.2 1.73,1.15 0.32,0.68 0.37,1.46 0.37,2.24 z"
   id="path15407" />
<path
   style="fill:#000000;stroke-width:0"
   d="m 240.63,709.12 0,0.11 -0.01,0.11 -0.01,0.11 -0.02,0.1 -0.02,0.11 -0.02,0.1 -0.03,0.1 -0.04,0.1 -0.03,0.1 -0.04,0.09 -0.05,0.09 -0.05,0.09 -0.05,0.09 -0.05,0.08 -0.06,0.08 -0.06,0.07 -0.07,0.08 -0.07,0.06 -0.07,0.07 -0.07,0.06 -0.08,0.06 -0.08,0.05 -0.08,0.05 -0.08,0.04 -0.09,0.04 -0.09,0.04 -0.09,0.03 -0.09,0.02 -0.1,0.02 -0.09,0.02 -0.1,0 -0.1,0.01 c -0.48,0 -0.91,-0.16 -1.26,-0.51 v 1.94 c 0.19,-0.06 0.52,-0.13 0.84,-0.13 1.22,0 1.92,0.9 1.92,1.03 0,0.06 -0.03,0.11 -0.1,0.11 -0.01,0 -0.03,0 -0.08,-0.03 -0.2,-0.09 -0.68,-0.29 -1.35,-0.29 -0.4,0 -0.86,0.07 -1.32,0.28 -0.08,0.03 -0.1,0.03 -0.12,0.03 -0.1,0 -0.1,-0.08 -0.1,-0.24 v -2.94 c 0,-0.18 0,-0.26 0.14,-0.26 0.07,0 0.09,0.03 0.13,0.09 0.1,0.16 0.47,0.7 1.28,0.7 0.52,0 0.77,-0.46 0.85,-0.64 0.15,-0.36 0.17,-0.75 0.17,-1.25 0,-0.35 0,-0.94 -0.23,-1.36 -0.24,-0.39 -0.61,-0.65 -1.07,-0.65 -0.73,0 -1.29,0.53 -1.46,1.12 0.03,-0.01 0.06,-0.02 0.17,-0.02 0.33,0 0.5,0.25 0.5,0.48 0,0.24 -0.17,0.49 -0.5,0.49 -0.14,0 -0.49,-0.07 -0.49,-0.53 0,-0.85 0.69,-1.81 1.8,-1.81 1.16,0 2.17,0.95 2.17,2.21 z"
   id="path15409" />
</g><g
       ns0:preamble=""
       ns0:text="0,15"
       word-spacing="normal"
       letter-spacing="normal"
       font-size-adjust="none"
       font-stretch="normal"
       font-weight="normal"
       font-variant="normal"
       font-style="normal"
       stroke-miterlimit="10.433"
       xml:space="preserve"
       transform="matrix(0.95,0,0,0.95,-69.657945,-246.82559)"
       id="g15871"
       style="font-style:normal;font-variant:normal;font-weight:normal;font-stretch:normal;letter-spacing:normal;word-spacing:normal;text-anchor:start;fill:none;stroke:#000000;stroke-linecap:butt;stroke-linejoin:miter;stroke-miterlimit:10.43299961;stroke-opacity:1;stroke-dasharray:none;stroke-dashoffset:0">
<path
   id="path15873"
   d="m 228.01,710.3 0,0.15 0,0.15 -0.01,0.15 0,0.15 -0.01,0.15 -0.02,0.14 -0.01,0.15 -0.02,0.15 -0.02,0.14 -0.03,0.15 -0.03,0.14 -0.04,0.15 -0.04,0.14 -0.05,0.14 -0.06,0.14 -0.03,0.07 -0.03,0.07 c -0.46,0.95 -1.27,1.11 -1.69,1.11 -0.6,0 -1.32,-0.26 -1.73,-1.18 -0.32,-0.69 -0.37,-1.46 -0.37,-2.26 0,-0.74 0.04,-1.64 0.45,-2.39 0.43,-0.81 1.15,-1 1.64,-1 v 0.22 c -0.39,0 -0.98,0.24 -1.15,1.2 -0.11,0.59 -0.11,1.51 -0.11,2.09 0,0.64 0,1.29 0.08,1.83 0.18,1.18 0.93,1.27 1.18,1.27 0.33,0 0.98,-0.18 1.17,-1.16 0.1,-0.56 0.1,-1.31 0.1,-1.94 0,-0.74 0,-1.42 -0.11,-2.05 -0.15,-0.95 -0.71,-1.24 -1.16,-1.24 h 0 v -0.22 c 0.54,0 1.29,0.2 1.73,1.15 0.32,0.68 0.37,1.46 0.37,2.24 z"
   style="fill:#000000;stroke-width:0" />
<path
   id="path15875"
   d="m 230.43,707.14 0,0.05 0,0.06 0,0.06 -0.01,0.05 0,0.06 -0.01,0.05 -0.01,0.05 -0.01,0.05 -0.01,0.04 -0.01,0.05 -0.02,0.04 -0.01,0.04 -0.02,0.04 -0.02,0.04 -0.02,0.04 -0.02,0.03 -0.02,0.04 -0.02,0.03 -0.02,0.03 -0.03,0.03 -0.02,0.02 -0.03,0.02 -0.03,0.03 -0.03,0.01 -0.03,0.02 -0.03,0.02 -0.03,0.01 -0.03,0.01 -0.04,0.01 -0.03,0 -0.04,0.01 -0.03,0 c -0.35,0 -0.53,-0.27 -0.53,-0.53 0,-0.26 0.17,-0.52 0.53,-0.52 0.16,0 0.27,0.05 0.37,0.13 l 0.02,0.02 c 0.01,0 0.02,-0.01 0.02,-0.14 0,-0.64 -0.27,-1.25 -0.71,-1.71 -0.06,-0.06 -0.07,-0.07 -0.07,-0.11 0,-0.07 0.05,-0.11 0.1,-0.11 0.12,0 0.9,0.78 0.9,1.93 z"
   style="fill:#000000;stroke-width:0" />
<path
   id="path15877"
   d="m 234.11,713.48 0,0.01 0,0.01 0,0.02 0,0.01 0,0 0,0.01 0,0.01 0,0.01 0,0.01 0,0.01 -0.01,0.01 0,0.01 0,0 0,0.01 0,0.01 0,0 0,0.01 0,0.01 0,0.01 0,0.01 -0.01,0.01 0,0.01 0,0.01 -0.01,0 0,0.01 -0.01,0.01 0,0 -0.01,0.01 -0.01,0 -0.01,0.01 0,0 -0.01,0 0,0 -0.01,0 0,0 -0.01,0 -0.01,0.01 0,0 -0.01,0 -0.01,0 0,0 -0.01,0 -0.01,0 -0.01,0 -0.01,0 0,0 -0.01,0 -0.01,0 -0.01,0 -0.01,0 -0.01,0 -0.01,0 c -0.62,-0.64 -1.5,-0.64 -1.81,-0.64 v -0.3 c 0.19,0 0.78,0 1.3,0.25 v -5.14 c 0,-0.36 -0.03,-0.48 -0.93,-0.48 h -0.31 v -0.3 c 0.34,0.03 1.21,0.03 1.61,0.03 0.4,0 1.26,0 1.61,-0.03 v 0.3 h -0.32 c -0.89,0 -0.92,0.11 -0.92,0.48 z"
   style="fill:#000000;stroke-width:0" />
<path
   id="path15879"
   d="m 240.63,709.12 0,0.11 -0.01,0.11 -0.01,0.11 -0.02,0.1 -0.02,0.11 -0.02,0.1 -0.03,0.1 -0.04,0.1 -0.03,0.1 -0.04,0.09 -0.05,0.09 -0.05,0.09 -0.05,0.09 -0.05,0.08 -0.06,0.08 -0.06,0.07 -0.07,0.08 -0.07,0.06 -0.07,0.07 -0.07,0.06 -0.08,0.06 -0.08,0.05 -0.08,0.05 -0.08,0.04 -0.09,0.04 -0.09,0.04 -0.09,0.03 -0.09,0.02 -0.1,0.02 -0.09,0.02 -0.1,0 -0.1,0.01 c -0.48,0 -0.91,-0.16 -1.26,-0.51 v 1.94 c 0.19,-0.06 0.52,-0.13 0.84,-0.13 1.22,0 1.92,0.9 1.92,1.03 0,0.06 -0.03,0.11 -0.1,0.11 -0.01,0 -0.03,0 -0.08,-0.03 -0.2,-0.09 -0.68,-0.29 -1.35,-0.29 -0.4,0 -0.86,0.07 -1.32,0.28 -0.08,0.03 -0.1,0.03 -0.12,0.03 -0.1,0 -0.1,-0.08 -0.1,-0.24 v -2.94 c 0,-0.18 0,-0.26 0.14,-0.26 0.07,0 0.09,0.03 0.13,0.09 0.1,0.16 0.47,0.7 1.28,0.7 0.52,0 0.77,-0.46 0.85,-0.64 0.15,-0.36 0.17,-0.75 0.17,-1.25 0,-0.35 0,-0.94 -0.23,-1.36 -0.24,-0.39 -0.61,-0.65 -1.07,-0.65 -0.73,0 -1.29,0.53 -1.46,1.12 0.03,-0.01 0.06,-0.02 0.17,-0.02 0.33,0 0.5,0.25 0.5,0.48 0,0.24 -0.17,0.49 -0.5,0.49 -0.14,0 -0.49,-0.07 -0.49,-0.53 0,-0.85 0.69,-1.81 1.8,-1.81 1.16,0 2.17,0.95 2.17,2.21 z"
   style="fill:#000000;stroke-width:0" />
</g><g
       style="font-style:normal;font-variant:normal;font-weight:normal;font-stretch:normal;letter-spacing:normal;word-spacing:normal;text-anchor:start;fill:none;stroke:#000000;stroke-linecap:butt;stroke-linejoin:miter;stroke-miterlimit:10.43299961;stroke-opacity:1;stroke-dasharray:none;stroke-dashoffset:0"
       id="g16351"
       transform="matrix(0.95,0,0,0.95,-69.657945,-173.50186)"
       xml:space="preserve"
       stroke-miterlimit="10.433"
       font-style="normal"
       font-variant="normal"
       font-weight="normal"
       font-stretch="normal"
       font-size-adjust="none"
       letter-spacing="normal"
       word-spacing="normal"
       ns0:text="0,25"
       ns0:preamble="">
<path
   style="fill:#000000;stroke-width:0"
   d="m 228.01,710.3 0,0.15 0,0.15 -0.01,0.15 0,0.15 -0.01,0.15 -0.02,0.14 -0.01,0.15 -0.02,0.15 -0.02,0.14 -0.03,0.15 -0.03,0.14 -0.04,0.15 -0.04,0.14 -0.05,0.14 -0.06,0.14 -0.03,0.07 -0.03,0.07 c -0.46,0.95 -1.27,1.11 -1.69,1.11 -0.6,0 -1.32,-0.26 -1.73,-1.18 -0.32,-0.69 -0.37,-1.46 -0.37,-2.26 0,-0.74 0.04,-1.64 0.45,-2.39 0.43,-0.81 1.15,-1 1.64,-1 v 0.22 c -0.39,0 -0.98,0.24 -1.15,1.2 -0.11,0.59 -0.11,1.51 -0.11,2.09 0,0.64 0,1.29 0.08,1.83 0.18,1.18 0.93,1.27 1.18,1.27 0.33,0 0.98,-0.18 1.17,-1.16 0.1,-0.56 0.1,-1.31 0.1,-1.94 0,-0.74 0,-1.42 -0.11,-2.05 -0.15,-0.95 -0.71,-1.24 -1.16,-1.24 h 0 v -0.22 c 0.54,0 1.29,0.2 1.73,1.15 0.32,0.68 0.37,1.46 0.37,2.24 z"
   id="path16353" />
<path
   style="fill:#000000;stroke-width:0"
   d="m 230.43,707.14 0,0.05 0,0.06 0,0.06 -0.01,0.05 0,0.06 -0.01,0.05 -0.01,0.05 -0.01,0.05 -0.01,0.04 -0.01,0.05 -0.02,0.04 -0.01,0.04 -0.02,0.04 -0.02,0.04 -0.02,0.04 -0.02,0.03 -0.02,0.04 -0.02,0.03 -0.02,0.03 -0.03,0.03 -0.02,0.02 -0.03,0.02 -0.03,0.03 -0.03,0.01 -0.03,0.02 -0.03,0.02 -0.03,0.01 -0.03,0.01 -0.04,0.01 -0.03,0 -0.04,0.01 -0.03,0 c -0.35,0 -0.53,-0.27 -0.53,-0.53 0,-0.26 0.17,-0.52 0.53,-0.52 0.16,0 0.27,0.05 0.37,0.13 l 0.02,0.02 c 0.01,0 0.02,-0.01 0.02,-0.14 0,-0.64 -0.27,-1.25 -0.71,-1.71 -0.06,-0.06 -0.07,-0.07 -0.07,-0.11 0,-0.07 0.05,-0.11 0.1,-0.11 0.12,0 0.9,0.78 0.9,1.93 z"
   id="path16355" />
<path
   style="fill:#000000;stroke-width:0"
   d="m 232.44,707.89 1.06,1.02 c 1.55,1.37 2.15,1.91 2.15,2.9 0,1.14 -0.9,1.93 -2.11,1.93 -1.13,0 -1.86,-0.91 -1.86,-1.8 0,-0.55 0.5,-0.55 0.53,-0.55 0.17,0 0.51,0.12 0.51,0.52 0,0.26 -0.18,0.52 -0.52,0.52 -0.08,0 -0.1,0 -0.13,-0.01 0.22,0.65 0.76,1.01 1.34,1.01 0.91,0 1.33,-0.8 1.33,-1.62 0,-0.79 -0.5,-1.58 -1.04,-2.19 l -1.91,-2.13 c -0.11,-0.11 -0.11,-0.13 -0.11,-0.36 h 3.69 l 0.28,1.72 h -0.25 c -0.05,-0.3 -0.12,-0.73 -0.22,-0.88 -0.07,-0.08 -0.73,-0.08 -0.94,-0.08 z"
   id="path16357" />
<path
   style="fill:#000000;stroke-width:0"
   d="m 240.63,709.12 0,0.11 -0.01,0.11 -0.01,0.11 -0.02,0.1 -0.02,0.11 -0.02,0.1 -0.03,0.1 -0.04,0.1 -0.03,0.1 -0.04,0.09 -0.05,0.09 -0.05,0.09 -0.05,0.09 -0.05,0.08 -0.06,0.08 -0.06,0.07 -0.07,0.08 -0.07,0.06 -0.07,0.07 -0.07,0.06 -0.08,0.06 -0.08,0.05 -0.08,0.05 -0.08,0.04 -0.09,0.04 -0.09,0.04 -0.09,0.03 -0.09,0.02 -0.1,0.02 -0.09,0.02 -0.1,0 -0.1,0.01 c -0.48,0 -0.91,-0.16 -1.26,-0.51 v 1.94 c 0.19,-0.06 0.52,-0.13 0.84,-0.13 1.22,0 1.92,0.9 1.92,1.03 0,0.06 -0.03,0.11 -0.1,0.11 -0.01,0 -0.03,0 -0.08,-0.03 -0.2,-0.09 -0.68,-0.29 -1.35,-0.29 -0.4,0 -0.86,0.07 -1.32,0.28 -0.08,0.03 -0.1,0.03 -0.12,0.03 -0.1,0 -0.1,-0.08 -0.1,-0.24 v -2.94 c 0,-0.18 0,-0.26 0.14,-0.26 0.07,0 0.09,0.03 0.13,0.09 0.1,0.16 0.47,0.7 1.28,0.7 0.52,0 0.77,-0.46 0.85,-0.64 0.15,-0.36 0.17,-0.75 0.17,-1.25 0,-0.35 0,-0.94 -0.23,-1.36 -0.24,-0.39 -0.61,-0.65 -1.07,-0.65 -0.73,0 -1.29,0.53 -1.46,1.12 0.03,-0.01 0.06,-0.02 0.17,-0.02 0.33,0 0.5,0.25 0.5,0.48 0,0.24 -0.17,0.49 -0.5,0.49 -0.14,0 -0.49,-0.07 -0.49,-0.53 0,-0.85 0.69,-1.81 1.8,-1.81 1.16,0 2.17,0.95 2.17,2.21 z"
   id="path16359" />
</g><g
       ns0:preamble=""
       ns0:text="0,00"
       word-spacing="normal"
       letter-spacing="normal"
       font-size-adjust="none"
       font-stretch="normal"
       font-weight="normal"
       font-variant="normal"
       font-style="normal"
       stroke-miterlimit="10.433"
       xml:space="preserve"
       transform="matrix(0.95,0,0,0.95,-69.762836,-356.86451)"
       id="g16841"
       style="font-style:normal;font-variant:normal;font-weight:normal;font-stretch:normal;letter-spacing:normal;word-spacing:normal;text-anchor:start;fill:none;stroke:#000000;stroke-linecap:butt;stroke-linejoin:miter;stroke-miterlimit:10.43299961;stroke-opacity:1;stroke-dasharray:none;stroke-dashoffset:0">
<path
   id="path16843"
   d="m 228.01,710.3 0,0.15 0,0.15 -0.01,0.15 0,0.15 -0.01,0.15 -0.02,0.14 -0.01,0.15 -0.02,0.15 -0.02,0.14 -0.03,0.15 -0.03,0.14 -0.04,0.15 -0.04,0.14 -0.05,0.14 -0.06,0.14 -0.03,0.07 -0.03,0.07 c -0.46,0.95 -1.27,1.11 -1.69,1.11 -0.6,0 -1.32,-0.26 -1.73,-1.18 -0.32,-0.69 -0.37,-1.46 -0.37,-2.26 0,-0.74 0.04,-1.64 0.45,-2.39 0.43,-0.81 1.15,-1 1.64,-1 v 0.22 c -0.39,0 -0.98,0.24 -1.15,1.2 -0.11,0.59 -0.11,1.51 -0.11,2.09 0,0.64 0,1.29 0.08,1.83 0.18,1.18 0.93,1.27 1.18,1.27 0.33,0 0.98,-0.18 1.17,-1.16 0.1,-0.56 0.1,-1.31 0.1,-1.94 0,-0.74 0,-1.42 -0.11,-2.05 -0.15,-0.95 -0.71,-1.24 -1.16,-1.24 h 0 v -0.22 c 0.54,0 1.29,0.2 1.73,1.15 0.32,0.68 0.37,1.46 0.37,2.24 z"
   style="fill:#000000;stroke-width:0" />
<path
   id="path16845"
   d="m 230.43,707.14 0,0.05 0,0.06 0,0.06 -0.01,0.05 0,0.06 -0.01,0.05 -0.01,0.05 -0.01,0.05 -0.01,0.04 -0.01,0.05 -0.02,0.04 -0.01,0.04 -0.02,0.04 -0.02,0.04 -0.02,0.04 -0.02,0.03 -0.02,0.04 -0.02,0.03 -0.02,0.03 -0.03,0.03 -0.02,0.02 -0.03,0.02 -0.03,0.03 -0.03,0.01 -0.03,0.02 -0.03,0.02 -0.03,0.01 -0.03,0.01 -0.04,0.01 -0.03,0 -0.04,0.01 -0.03,0 c -0.35,0 -0.53,-0.27 -0.53,-0.53 0,-0.26 0.17,-0.52 0.53,-0.52 0.16,0 0.27,0.05 0.37,0.13 l 0.02,0.02 c 0.01,0 0.02,-0.01 0.02,-0.14 0,-0.64 -0.27,-1.25 -0.71,-1.71 -0.06,-0.06 -0.07,-0.07 -0.07,-0.11 0,-0.07 0.05,-0.11 0.1,-0.11 0.12,0 0.9,0.78 0.9,1.93 z"
   style="fill:#000000;stroke-width:0" />
<path
   id="path16847"
   d="m 235.76,710.3 0,0.15 0,0.15 -0.01,0.15 -0.01,0.15 0,0.15 -0.02,0.14 -0.01,0.15 -0.02,0.15 -0.02,0.14 -0.03,0.15 -0.03,0.14 -0.04,0.15 -0.04,0.14 -0.05,0.14 -0.06,0.14 -0.03,0.07 -0.03,0.07 c -0.46,0.95 -1.27,1.11 -1.69,1.11 -0.6,0 -1.32,-0.26 -1.73,-1.18 -0.32,-0.69 -0.37,-1.46 -0.37,-2.26 0,-0.74 0.04,-1.64 0.45,-2.39 0.42,-0.81 1.15,-1 1.64,-1 v 0.22 c -0.39,0 -0.98,0.24 -1.16,1.2 -0.1,0.59 -0.1,1.51 -0.1,2.09 0,0.64 0,1.29 0.07,1.83 0.19,1.18 0.94,1.27 1.19,1.27 0.33,0 0.98,-0.18 1.17,-1.16 0.1,-0.56 0.1,-1.31 0.1,-1.94 0,-0.74 0,-1.42 -0.11,-2.05 -0.15,-0.95 -0.71,-1.24 -1.16,-1.24 h 0 v -0.22 c 0.54,0 1.29,0.2 1.73,1.15 0.32,0.68 0.37,1.46 0.37,2.24 z"
   style="fill:#000000;stroke-width:0" />
<path
   id="path16849"
   d="m 240.74,710.3 0,0.15 0,0.15 -0.01,0.15 0,0.15 -0.01,0.15 -0.02,0.14 -0.01,0.15 -0.02,0.15 -0.02,0.14 -0.03,0.15 -0.03,0.14 -0.04,0.15 -0.04,0.14 -0.05,0.14 -0.06,0.14 -0.03,0.07 -0.03,0.07 c -0.46,0.95 -1.27,1.11 -1.69,1.11 -0.6,0 -1.32,-0.26 -1.73,-1.18 -0.32,-0.69 -0.37,-1.46 -0.37,-2.26 0,-0.74 0.04,-1.64 0.45,-2.39 0.43,-0.81 1.15,-1 1.64,-1 v 0.22 c -0.39,0 -0.98,0.24 -1.15,1.2 -0.11,0.59 -0.11,1.51 -0.11,2.09 0,0.64 0,1.29 0.08,1.83 0.19,1.18 0.93,1.27 1.18,1.27 0.33,0 0.98,-0.18 1.17,-1.16 0.1,-0.56 0.1,-1.31 0.1,-1.94 0,-0.74 0,-1.42 -0.11,-2.05 -0.15,-0.95 -0.71,-1.24 -1.16,-1.24 h 0 v -0.22 c 0.54,0 1.29,0.2 1.73,1.15 0.32,0.68 0.37,1.46 0.37,2.24 z"
   style="fill:#000000;stroke-width:0" />
</g><g
       style="font-style:normal;font-variant:normal;font-weight:normal;font-stretch:normal;letter-spacing:normal;word-spacing:normal;text-anchor:start;fill:none;stroke:#000000;stroke-linecap:butt;stroke-linejoin:miter;stroke-miterlimit:10.43299961;stroke-opacity:1;stroke-dasharray:none;stroke-dashoffset:0"
       id="g17341"
       transform="matrix(0.95,0,0,0.95,-69.762195,-283.50523)"
       xml:space="preserve"
       stroke-miterlimit="10.433"
       font-style="normal"
       font-variant="normal"
       font-weight="normal"
       font-stretch="normal"
       font-size-adjust="none"
       letter-spacing="normal"
       word-spacing="normal"
       ns0:text="0,10"
       ns0:preamble="">
<path
   style="fill:#000000;stroke-width:0"
   d="m 228.01,710.3 0,0.15 0,0.15 -0.01,0.15 0,0.15 -0.01,0.15 -0.02,0.14 -0.01,0.15 -0.02,0.15 -0.02,0.14 -0.03,0.15 -0.03,0.14 -0.04,0.15 -0.04,0.14 -0.05,0.14 -0.06,0.14 -0.03,0.07 -0.03,0.07 c -0.46,0.95 -1.27,1.11 -1.69,1.11 -0.6,0 -1.32,-0.26 -1.73,-1.18 -0.32,-0.69 -0.37,-1.46 -0.37,-2.26 0,-0.74 0.04,-1.64 0.45,-2.39 0.43,-0.81 1.15,-1 1.64,-1 v 0.22 c -0.39,0 -0.98,0.24 -1.15,1.2 -0.11,0.59 -0.11,1.51 -0.11,2.09 0,0.64 0,1.29 0.08,1.83 0.18,1.18 0.93,1.27 1.18,1.27 0.33,0 0.98,-0.18 1.17,-1.16 0.1,-0.56 0.1,-1.31 0.1,-1.94 0,-0.74 0,-1.42 -0.11,-2.05 -0.15,-0.95 -0.71,-1.24 -1.16,-1.24 h 0 v -0.22 c 0.54,0 1.29,0.2 1.73,1.15 0.32,0.68 0.37,1.46 0.37,2.24 z"
   id="path17343" />
<path
   style="fill:#000000;stroke-width:0"
   d="m 230.43,707.14 0,0.05 0,0.06 0,0.06 -0.01,0.05 0,0.06 -0.01,0.05 -0.01,0.05 -0.01,0.05 -0.01,0.04 -0.01,0.05 -0.02,0.04 -0.01,0.04 -0.02,0.04 -0.02,0.04 -0.02,0.04 -0.02,0.03 -0.02,0.04 -0.02,0.03 -0.02,0.03 -0.03,0.03 -0.02,0.02 -0.03,0.02 -0.03,0.03 -0.03,0.01 -0.03,0.02 -0.03,0.02 -0.03,0.01 -0.03,0.01 -0.04,0.01 -0.03,0 -0.04,0.01 -0.03,0 c -0.35,0 -0.53,-0.27 -0.53,-0.53 0,-0.26 0.17,-0.52 0.53,-0.52 0.16,0 0.27,0.05 0.37,0.13 l 0.02,0.02 c 0.01,0 0.02,-0.01 0.02,-0.14 0,-0.64 -0.27,-1.25 -0.71,-1.71 -0.06,-0.06 -0.07,-0.07 -0.07,-0.11 0,-0.07 0.05,-0.11 0.1,-0.11 0.12,0 0.9,0.78 0.9,1.93 z"
   id="path17345" />
<path
   style="fill:#000000;stroke-width:0"
   d="m 234.11,713.48 0,0.01 0,0.01 0,0.02 0,0.01 0,0 0,0.01 0,0.01 0,0.01 0,0.01 0,0.01 -0.01,0.01 0,0.01 0,0 0,0.01 0,0.01 0,0 0,0.01 0,0.01 0,0.01 0,0.01 -0.01,0.01 0,0.01 0,0.01 -0.01,0 0,0.01 -0.01,0.01 0,0 -0.01,0.01 -0.01,0 -0.01,0.01 0,0 -0.01,0 0,0 -0.01,0 0,0 -0.01,0 -0.01,0.01 0,0 -0.01,0 -0.01,0 0,0 -0.01,0 -0.01,0 -0.01,0 -0.01,0 0,0 -0.01,0 -0.01,0 -0.01,0 -0.01,0 -0.01,0 -0.01,0 c -0.62,-0.64 -1.5,-0.64 -1.81,-0.64 v -0.3 c 0.19,0 0.78,0 1.3,0.25 v -5.14 c 0,-0.36 -0.03,-0.48 -0.93,-0.48 h -0.31 v -0.3 c 0.34,0.03 1.21,0.03 1.61,0.03 0.4,0 1.26,0 1.61,-0.03 v 0.3 h -0.32 c -0.89,0 -0.92,0.11 -0.92,0.48 z"
   id="path17347" />
<path
   style="fill:#000000;stroke-width:0"
   d="m 240.74,710.3 0,0.15 0,0.15 -0.01,0.15 0,0.15 -0.01,0.15 -0.02,0.14 -0.01,0.15 -0.02,0.15 -0.02,0.14 -0.03,0.15 -0.03,0.14 -0.04,0.15 -0.04,0.14 -0.05,0.14 -0.06,0.14 -0.03,0.07 -0.03,0.07 c -0.46,0.95 -1.27,1.11 -1.69,1.11 -0.6,0 -1.32,-0.26 -1.73,-1.18 -0.32,-0.69 -0.37,-1.46 -0.37,-2.26 0,-0.74 0.04,-1.64 0.45,-2.39 0.43,-0.81 1.15,-1 1.64,-1 v 0.22 c -0.39,0 -0.98,0.24 -1.15,1.2 -0.11,0.59 -0.11,1.51 -0.11,2.09 0,0.64 0,1.29 0.08,1.83 0.19,1.18 0.93,1.27 1.18,1.27 0.33,0 0.98,-0.18 1.17,-1.16 0.1,-0.56 0.1,-1.31 0.1,-1.94 0,-0.74 0,-1.42 -0.11,-2.05 -0.15,-0.95 -0.71,-1.24 -1.16,-1.24 h 0 v -0.22 c 0.54,0 1.29,0.2 1.73,1.15 0.32,0.68 0.37,1.46 0.37,2.24 z"
   id="path17349" />
</g><g
       ns0:preamble=""
       ns0:text="0,20"
       word-spacing="normal"
       letter-spacing="normal"
       font-size-adjust="none"
       font-stretch="normal"
       font-weight="normal"
       font-variant="normal"
       font-style="normal"
       stroke-miterlimit="10.433"
       xml:space="preserve"
       transform="matrix(0.95,0,0,0.95,-69.762195,-210.1815)"
       id="g17851"
       style="font-style:normal;font-variant:normal;font-weight:normal;font-stretch:normal;letter-spacing:normal;word-spacing:normal;text-anchor:start;fill:none;stroke:#000000;stroke-linecap:butt;stroke-linejoin:miter;stroke-miterlimit:10.43299961;stroke-opacity:1;stroke-dasharray:none;stroke-dashoffset:0">
<path
   id="path17853"
   d="m 228.01,710.3 0,0.15 0,0.15 -0.01,0.15 0,0.15 -0.01,0.15 -0.02,0.14 -0.01,0.15 -0.02,0.15 -0.02,0.14 -0.03,0.15 -0.03,0.14 -0.04,0.15 -0.04,0.14 -0.05,0.14 -0.06,0.14 -0.03,0.07 -0.03,0.07 c -0.46,0.95 -1.27,1.11 -1.69,1.11 -0.6,0 -1.32,-0.26 -1.73,-1.18 -0.32,-0.69 -0.37,-1.46 -0.37,-2.26 0,-0.74 0.04,-1.64 0.45,-2.39 0.43,-0.81 1.15,-1 1.64,-1 v 0.22 c -0.39,0 -0.98,0.24 -1.15,1.2 -0.11,0.59 -0.11,1.51 -0.11,2.09 0,0.64 0,1.29 0.08,1.83 0.18,1.18 0.93,1.27 1.18,1.27 0.33,0 0.98,-0.18 1.17,-1.16 0.1,-0.56 0.1,-1.31 0.1,-1.94 0,-0.74 0,-1.42 -0.11,-2.05 -0.15,-0.95 -0.71,-1.24 -1.16,-1.24 h 0 v -0.22 c 0.54,0 1.29,0.2 1.73,1.15 0.32,0.68 0.37,1.46 0.37,2.24 z"
   style="fill:#000000;stroke-width:0" />
<path
   id="path17855"
   d="m 230.43,707.14 0,0.05 0,0.06 0,0.06 -0.01,0.05 0,0.06 -0.01,0.05 -0.01,0.05 -0.01,0.05 -0.01,0.04 -0.01,0.05 -0.02,0.04 -0.01,0.04 -0.02,0.04 -0.02,0.04 -0.02,0.04 -0.02,0.03 -0.02,0.04 -0.02,0.03 -0.02,0.03 -0.03,0.03 -0.02,0.02 -0.03,0.02 -0.03,0.03 -0.03,0.01 -0.03,0.02 -0.03,0.02 -0.03,0.01 -0.03,0.01 -0.04,0.01 -0.03,0 -0.04,0.01 -0.03,0 c -0.35,0 -0.53,-0.27 -0.53,-0.53 0,-0.26 0.17,-0.52 0.53,-0.52 0.16,0 0.27,0.05 0.37,0.13 l 0.02,0.02 c 0.01,0 0.02,-0.01 0.02,-0.14 0,-0.64 -0.27,-1.25 -0.71,-1.71 -0.06,-0.06 -0.07,-0.07 -0.07,-0.11 0,-0.07 0.05,-0.11 0.1,-0.11 0.12,0 0.9,0.78 0.9,1.93 z"
   style="fill:#000000;stroke-width:0" />
<path
   id="path17857"
   d="m 232.44,707.89 1.06,1.02 c 1.55,1.37 2.15,1.91 2.15,2.9 0,1.14 -0.9,1.93 -2.11,1.93 -1.13,0 -1.86,-0.91 -1.86,-1.8 0,-0.55 0.5,-0.55 0.53,-0.55 0.17,0 0.51,0.12 0.51,0.52 0,0.26 -0.18,0.52 -0.52,0.52 -0.08,0 -0.1,0 -0.13,-0.01 0.22,0.65 0.76,1.01 1.34,1.01 0.91,0 1.33,-0.8 1.33,-1.62 0,-0.79 -0.5,-1.58 -1.04,-2.19 l -1.91,-2.13 c -0.11,-0.11 -0.11,-0.13 -0.11,-0.36 h 3.69 l 0.28,1.72 h -0.25 c -0.05,-0.3 -0.12,-0.73 -0.22,-0.88 -0.07,-0.08 -0.73,-0.08 -0.94,-0.08 z"
   style="fill:#000000;stroke-width:0" />
<path
   id="path17859"
   d="m 240.74,710.3 0,0.15 0,0.15 -0.01,0.15 0,0.15 -0.01,0.15 -0.02,0.14 -0.01,0.15 -0.02,0.15 -0.02,0.14 -0.03,0.15 -0.03,0.14 -0.04,0.15 -0.04,0.14 -0.05,0.14 -0.06,0.14 -0.03,0.07 -0.03,0.07 c -0.46,0.95 -1.27,1.11 -1.69,1.11 -0.6,0 -1.32,-0.26 -1.73,-1.18 -0.32,-0.69 -0.37,-1.46 -0.37,-2.26 0,-0.74 0.04,-1.64 0.45,-2.39 0.43,-0.81 1.15,-1 1.64,-1 v 0.22 c -0.39,0 -0.98,0.24 -1.15,1.2 -0.11,0.59 -0.11,1.51 -0.11,2.09 0,0.64 0,1.29 0.08,1.83 0.19,1.18 0.93,1.27 1.18,1.27 0.33,0 0.98,-0.18 1.17,-1.16 0.1,-0.56 0.1,-1.31 0.1,-1.94 0,-0.74 0,-1.42 -0.11,-2.05 -0.15,-0.95 -0.71,-1.24 -1.16,-1.24 h 0 v -0.22 c 0.54,0 1.29,0.2 1.73,1.15 0.32,0.68 0.37,1.46 0.37,2.24 z"
   style="fill:#000000;stroke-width:0" />
</g><g
       style="font-style:normal;font-variant:normal;font-weight:normal;font-stretch:normal;letter-spacing:normal;word-spacing:normal;text-anchor:start;fill:none;stroke:#000000;stroke-linecap:butt;stroke-linejoin:miter;stroke-miterlimit:10.43299961;stroke-opacity:1;stroke-dasharray:none;stroke-dashoffset:0"
       id="g18371"
       transform="matrix(0.95,0,0,0.95,-69.762839,-136.74223)"
       xml:space="preserve"
       stroke-miterlimit="10.433"
       font-style="normal"
       font-variant="normal"
       font-weight="normal"
       font-stretch="normal"
       font-size-adjust="none"
       letter-spacing="normal"
       word-spacing="normal"
       ns0:text="0,30"
       ns0:preamble="">
<path
   style="fill:#000000;stroke-width:0"
   d="m 228.01,710.3 0,0.15 0,0.15 -0.01,0.15 0,0.15 -0.01,0.15 -0.02,0.14 -0.01,0.15 -0.02,0.15 -0.02,0.14 -0.03,0.15 -0.03,0.14 -0.04,0.15 -0.04,0.14 -0.05,0.14 -0.06,0.14 -0.03,0.07 -0.03,0.07 c -0.46,0.95 -1.27,1.11 -1.69,1.11 -0.6,0 -1.32,-0.26 -1.73,-1.18 -0.32,-0.69 -0.37,-1.46 -0.37,-2.26 0,-0.74 0.04,-1.64 0.45,-2.39 0.43,-0.81 1.15,-1 1.64,-1 v 0.22 c -0.39,0 -0.98,0.24 -1.15,1.2 -0.11,0.59 -0.11,1.51 -0.11,2.09 0,0.64 0,1.29 0.08,1.83 0.18,1.18 0.93,1.27 1.18,1.27 0.33,0 0.98,-0.18 1.17,-1.16 0.1,-0.56 0.1,-1.31 0.1,-1.94 0,-0.74 0,-1.42 -0.11,-2.05 -0.15,-0.95 -0.71,-1.24 -1.16,-1.24 h 0 v -0.22 c 0.54,0 1.29,0.2 1.73,1.15 0.32,0.68 0.37,1.46 0.37,2.24 z"
   id="path18373" />
<path
   style="fill:#000000;stroke-width:0"
   d="m 230.43,707.14 0,0.05 0,0.06 0,0.06 -0.01,0.05 0,0.06 -0.01,0.05 -0.01,0.05 -0.01,0.05 -0.01,0.04 -0.01,0.05 -0.02,0.04 -0.01,0.04 -0.02,0.04 -0.02,0.04 -0.02,0.04 -0.02,0.03 -0.02,0.04 -0.02,0.03 -0.02,0.03 -0.03,0.03 -0.02,0.02 -0.03,0.02 -0.03,0.03 -0.03,0.01 -0.03,0.02 -0.03,0.02 -0.03,0.01 -0.03,0.01 -0.04,0.01 -0.03,0 -0.04,0.01 -0.03,0 c -0.35,0 -0.53,-0.27 -0.53,-0.53 0,-0.26 0.17,-0.52 0.53,-0.52 0.16,0 0.27,0.05 0.37,0.13 l 0.02,0.02 c 0.01,0 0.02,-0.01 0.02,-0.14 0,-0.64 -0.27,-1.25 -0.71,-1.71 -0.06,-0.06 -0.07,-0.07 -0.07,-0.11 0,-0.07 0.05,-0.11 0.1,-0.11 0.12,0 0.9,0.78 0.9,1.93 z"
   id="path18375" />
<path
   style="fill:#000000;stroke-width:0"
   d="m 234.07,710.62 0.07,0.03 0.08,0.03 0.07,0.03 0.07,0.03 0.07,0.04 0.07,0.04 0.06,0.04 0.07,0.04 0.06,0.04 0.06,0.05 0.06,0.05 0.06,0.05 0.05,0.05 0.05,0.05 0.05,0.06 0.05,0.05 0.04,0.06 0.05,0.06 0.04,0.06 0.03,0.06 0.04,0.07 0.03,0.06 0.03,0.07 0.03,0.06 0.02,0.07 0.02,0.07 0.02,0.07 0.01,0.07 0.01,0.07 0.01,0.07 0.01,0.08 0,0.07 c 0,0.81 -0.88,1.37 -1.83,1.37 -1.01,0 -1.76,-0.59 -1.76,-1.35 0,-0.33 0.22,-0.52 0.51,-0.52 0.3,0 0.5,0.22 0.5,0.51 0,0.5 -0.47,0.5 -0.62,0.5 0.31,0.48 0.97,0.61 1.33,0.61 0.41,0 0.95,-0.22 0.95,-1.11 0,-0.12 -0.02,-0.7 -0.28,-1.13 -0.29,-0.48 -0.63,-0.51 -0.88,-0.52 -0.08,-0.01 -0.32,-0.03 -0.39,-0.03 -0.08,-0.01 -0.15,-0.02 -0.15,-0.12 0,-0.11 0.07,-0.11 0.24,-0.11 h 0.44 c 0.82,0 1.18,-0.67 1.18,-1.65 0,-1.35 -0.68,-1.64 -1.12,-1.64 -0.43,0 -1.18,0.17 -1.52,0.76 0.34,-0.05 0.65,0.17 0.65,0.55 0,0.35 -0.27,0.55 -0.55,0.55 -0.24,0 -0.56,-0.14 -0.56,-0.57 0,-0.91 0.92,-1.56 2.01,-1.56 1.21,0 2.12,0.9 2.12,1.91 0,0.82 -0.63,1.59 -1.66,1.8 z"
   id="path18377" />
<path
   style="fill:#000000;stroke-width:0"
   d="m 240.74,710.3 0,0.15 0,0.15 -0.01,0.15 0,0.15 -0.01,0.15 -0.02,0.14 -0.01,0.15 -0.02,0.15 -0.02,0.14 -0.03,0.15 -0.03,0.14 -0.04,0.15 -0.04,0.14 -0.05,0.14 -0.06,0.14 -0.03,0.07 -0.03,0.07 c -0.46,0.95 -1.27,1.11 -1.69,1.11 -0.6,0 -1.32,-0.26 -1.73,-1.18 -0.32,-0.69 -0.37,-1.46 -0.37,-2.26 0,-0.74 0.04,-1.64 0.45,-2.39 0.43,-0.81 1.15,-1 1.64,-1 v 0.22 c -0.39,0 -0.98,0.24 -1.15,1.2 -0.11,0.59 -0.11,1.51 -0.11,2.09 0,0.64 0,1.29 0.08,1.83 0.19,1.18 0.93,1.27 1.18,1.27 0.33,0 0.98,-0.18 1.17,-1.16 0.1,-0.56 0.1,-1.31 0.1,-1.94 0,-0.74 0,-1.42 -0.11,-2.05 -0.15,-0.95 -0.71,-1.24 -1.16,-1.24 h 0 v -0.22 c 0.54,0 1.29,0.2 1.73,1.15 0.32,0.68 0.37,1.46 0.37,2.24 z"
   id="path18379" />
</g></g></g>



</g></svg>