<?xml version="1.0" encoding="UTF-8" standalone="no"?>
<!-- Created with Inkscape (http://www.inkscape.org/) -->

<svg
   xmlns:ns0="http://www.iki.fi/pav/software/textext/"
   xmlns:dc="http://purl.org/dc/elements/1.1/"
   xmlns:cc="http://creativecommons.org/ns#"
   xmlns:rdf="http://www.w3.org/1999/02/22-rdf-syntax-ns#"
   xmlns:svg="http://www.w3.org/2000/svg"
   xmlns="http://www.w3.org/2000/svg"
   xmlns:sodipodi="http://sodipodi.sourceforge.net/DTD/sodipodi-0.dtd"
   xmlns:inkscape="http://www.inkscape.org/namespaces/inkscape"
   width="259.59399"
   height="145.87041"
   id="svg2"
   version="1.1"
   inkscape:version="0.47 r22583"
   sodipodi:docname="estudio_2.svg">
  <sodipodi:namedview
     id="base"
     pagecolor="#ffffff"
     bordercolor="#666666"
     borderopacity="1.0"
     inkscape:pageopacity="0.0"
     inkscape:pageshadow="2"
     inkscape:zoom="2.8284272"
     inkscape:cx="106.50129"
     inkscape:cy="99.761328"
     inkscape:document-units="px"
     inkscape:current-layer="layer1"
     showgrid="false"
     inkscape:window-width="1280"
     inkscape:window-height="898"
     inkscape:window-x="-8"
     inkscape:window-y="-8"
     inkscape:window-maximized="1"
     showguides="true"
     inkscape:guide-bbox="true"
     inkscape:snap-bbox="true"
     inkscape:snap-bbox-edge-midpoints="true" />
  <defs
     id="defs4">
    <inkscape:perspective
       id="perspective10"
       inkscape:persp3d-origin="372.04724 : 350.78739 : 1"
       inkscape:vp_z="744.09448 : 526.18109 : 1"
       inkscape:vp_y="0 : 1000 : 0"
       inkscape:vp_x="0 : 526.18109 : 1"
       sodipodi:type="inkscape:persp3d" />
    <inkscape:perspective
       sodipodi:type="inkscape:persp3d"
       inkscape:vp_x="0 : 0.5 : 1"
       inkscape:vp_y="0 : 1000 : 0"
       inkscape:vp_z="1 : 0.5 : 1"
       inkscape:persp3d-origin="0.5 : 0.33333333 : 1"
       id="perspective2824" />
    <inkscape:perspective
       sodipodi:type="inkscape:persp3d"
       inkscape:vp_x="0 : 0.5 : 1"
       inkscape:vp_y="0 : 1000 : 0"
       inkscape:vp_z="1 : 0.5 : 1"
       inkscape:persp3d-origin="0.5 : 0.33333333 : 1"
       id="perspective14336" />
    <marker
       inkscape:stockid="Arrow2Mend"
       orient="auto"
       refY="0"
       refX="0"
       id="marker8113-171"
       style="overflow:visible">
      <path
         id="path8115-1"
         style="font-size:12px;fill-rule:evenodd;stroke-width:0.625;stroke-linejoin:round"
         d="M 8.7185878,4.0337352 -2.2072895,0.01601326 8.7185884,-4.0017078 c -1.7454984,2.3720609 -1.7354408,5.6174519 -6e-7,8.035443 z"
         transform="scale(-0.6,-0.6)" />
    </marker>
    <marker
       inkscape:stockid="Arrow2Mend"
       orient="auto"
       refY="0"
       refX="0"
       id="marker8113"
       style="overflow:visible">
      <path
         id="path8115"
         style="font-size:12px;fill-rule:evenodd;stroke-width:0.625;stroke-linejoin:round"
         d="M 8.7185878,4.0337352 -2.2072895,0.01601326 8.7185884,-4.0017078 c -1.7454984,2.3720609 -1.7354408,5.6174519 -6e-7,8.035443 z"
         transform="scale(-0.6,-0.6)" />
    </marker>
    <marker
       inkscape:stockid="Arrow2Mend"
       orient="auto"
       refY="0"
       refX="0"
       id="marker14344"
       style="overflow:visible">
      <path
         id="path14346"
         style="font-size:12px;fill-rule:evenodd;stroke-width:0.625;stroke-linejoin:round"
         d="M 8.7185878,4.0337352 -2.2072895,0.01601326 8.7185884,-4.0017078 c -1.7454984,2.3720609 -1.7354408,5.6174519 -6e-7,8.035443 z"
         transform="scale(-0.6,-0.6)" />
    </marker>
    <marker
       inkscape:stockid="Arrow2Mend"
       orient="auto"
       refY="0"
       refX="0"
       id="marker14348"
       style="overflow:visible">
      <path
         id="path14350"
         style="font-size:12px;fill-rule:evenodd;stroke-width:0.625;stroke-linejoin:round"
         d="M 8.7185878,4.0337352 -2.2072895,0.01601326 8.7185884,-4.0017078 c -1.7454984,2.3720609 -1.7354408,5.6174519 -6e-7,8.035443 z"
         transform="scale(-0.6,-0.6)" />
    </marker>
    <inkscape:perspective
       sodipodi:type="inkscape:persp3d"
       inkscape:vp_x="0 : 0.5 : 1"
       inkscape:vp_y="0 : 1000 : 0"
       inkscape:vp_z="1 : 0.5 : 1"
       inkscape:persp3d-origin="0.5 : 0.33333333 : 1"
       id="perspective15355" />
    <inkscape:perspective
       sodipodi:type="inkscape:persp3d"
       inkscape:vp_x="0 : 0.5 : 1"
       inkscape:vp_y="0 : 1000 : 0"
       inkscape:vp_z="1 : 0.5 : 1"
       inkscape:persp3d-origin="0.5 : 0.33333333 : 1"
       id="perspective15377" />
    <inkscape:perspective
       sodipodi:type="inkscape:persp3d"
       inkscape:vp_x="0 : 0.5 : 1"
       inkscape:vp_y="0 : 1000 : 0"
       inkscape:vp_z="1 : 0.5 : 1"
       inkscape:persp3d-origin="0.5 : 0.33333333 : 1"
       id="perspective15377-4" />
    <inkscape:perspective
       sodipodi:type="inkscape:persp3d"
       inkscape:vp_x="0 : 0.5 : 1"
       inkscape:vp_y="0 : 1000 : 0"
       inkscape:vp_z="1 : 0.5 : 1"
       inkscape:persp3d-origin="0.5 : 0.33333333 : 1"
       id="perspective15377-8" />
    <inkscape:perspective
       sodipodi:type="inkscape:persp3d"
       inkscape:vp_x="0 : 0.5 : 1"
       inkscape:vp_y="0 : 1000 : 0"
       inkscape:vp_z="1 : 0.5 : 1"
       inkscape:persp3d-origin="0.5 : 0.33333333 : 1"
       id="perspective15417" />
    <inkscape:perspective
       sodipodi:type="inkscape:persp3d"
       inkscape:vp_x="0 : 0.5 : 1"
       inkscape:vp_y="0 : 1000 : 0"
       inkscape:vp_z="1 : 0.5 : 1"
       inkscape:persp3d-origin="0.5 : 0.33333333 : 1"
       id="perspective15621" />
  </defs>
  <metadata
     id="metadata7">
    <rdf:RDF>
      <cc:Work
         rdf:about="">
        <dc:format>image/svg+xml</dc:format>
        <dc:type
           rdf:resource="http://purl.org/dc/dcmitype/StillImage" />
        <dc:title />
      </cc:Work>
    </rdf:RDF>
  </metadata>
  <g
     id="layer1"
     inkscape:groupmode="layer"
     inkscape:label="Capa 1"
     transform="translate(-208.12211,-354.33025)">
    <g
       id="g3740">
      <path
         sodipodi:nodetypes="cccccccccc"
         id="path2830"
         d="m 240.94484,354.33025 0,120.47244 226.77125,0 0,-120.47244 -226.77125,0 z m 42.51968,31.8902 141.73229,0 0,56.69293 -141.73229,0 0,-56.69293 z"
         style="fill:#000000;fill-opacity:0.17254902;stroke:none" />
      <path
         sodipodi:nodetypes="ccccc"
         id="path3695"
         d="m 283.46452,442.91336 -10e-6,-56.69291 141.7323,0 0,56.69291 -141.73229,0 z"
         style="fill:none;stroke:#000000;stroke-width:2.12598419;stroke-linecap:butt;stroke-linejoin:miter;stroke-miterlimit:4;stroke-opacity:1;stroke-dasharray:none" />
      <g
         id="g2963"
         transform="translate(33.744035,4.5710449e-4)">
        <path
           id="path3858"
           d="m 251.89843,370.6932 -0.054,-0.351 0,-3.6315 c 0,-0.432 0.027,-0.5265 0.6615,-0.5265 l 1.2015,0 c 2.1465,0 2.1465,1.4175 2.1465,2.079 0,0.6345 0,2.079 -2.1465,2.079 l -1.863,0 0.054,0.351 2.268,0 c 1.62,0 3.0645,-1.0935 3.0645,-2.43 0,-1.323 -1.3365,-2.4975 -3.1725,-2.4975 l -4.752,0 0,0.4185 0.324,0 c 1.0395,0 1.0665,0.1485 1.0665,0.621 l 0,7.0875 c 0,0.486 -0.027,0.6345 -1.0665,0.6345 l -0.324,0 0,0.4185 c 0.4725,-0.054 1.4715,-0.054 1.9845,-0.054 0.513,0 1.512,0 1.9845,0.054 l 0,-0.4185 -0.324,0 c -1.0395,0 -1.053,-0.1485 -1.053,-0.6345 z"
           style="font-style:normal;font-variant:normal;font-weight:normal;font-stretch:normal;letter-spacing:normal;word-spacing:normal;text-anchor:start;fill:#000000;stroke:#000000;stroke-width:0;stroke-linecap:butt;stroke-linejoin:miter;stroke-miterlimit:10.43299961;stroke-opacity:1;stroke-dasharray:none;stroke-dashoffset:0" />
        <path
           id="path3860"
           d="m 265.81693,371.4762 -0.3375,0 c -0.1485,1.3635 -0.324,3.051 -2.7,3.051 l -1.107,0 c -0.621,0 -0.648,-0.0945 -0.648,-0.54 l 0,-7.1685 c 0,-0.4455 0,-0.6345 1.269,-0.6345 l 0.4455,0 0,-0.4185 c -0.486,0.0405 -1.7145,0.0405 -2.2545,0.0405 -0.5265,0 -1.5795,0 -2.052,-0.0405 l 0,0.4185 0.324,0 c 1.0395,0 1.0665,0.1485 1.0665,0.621 l 0,7.0875 c 0,0.486 -0.027,0.6345 -1.0665,0.6345 l -0.324,0 0,0.4185 7.02,0 z"
           style="font-style:normal;font-variant:normal;font-weight:normal;font-stretch:normal;letter-spacing:normal;word-spacing:normal;text-anchor:start;fill:#000000;stroke:#000000;stroke-width:0;stroke-linecap:butt;stroke-linejoin:miter;stroke-miterlimit:10.43299961;stroke-opacity:1;stroke-dasharray:none;stroke-dashoffset:0" />
        <path
           id="path3862"
           d="m 271.75693,365.5902 -0.0135,-0.0135 0,-0.027 -0.0135,-0.0135 0,-0.0135 0,-0.0135 -0.0135,-0.0135 0,-0.0135 -0.0135,-0.0135 0,-0.0135 -0.0135,-0.0135 0,0 -0.0135,-0.0135 0,-0.0135 -0.0135,-0.0135 0,0 -0.0135,-0.0135 0,-0.0135 -0.0135,0 -0.0135,-0.0135 0,0 -0.0135,-0.0135 -0.0135,0 -0.0135,0 -0.0135,-0.0135 -0.0135,0 -0.0135,0 -0.0135,-0.0135 -0.0135,0 -0.0135,0 -0.0135,0 -0.027,0 -0.0135,0 0,0 c -0.216,0 -0.2565,0.081 -0.324,0.27 l -2.781,8.0325 c -0.243,0.6885 -0.783,0.891 -1.512,0.9045 l 0,0.4185 c 0.3105,-0.0135 0.891,-0.054 1.3635,-0.054 0.4185,0 1.1205,0.0405 1.5525,0.054 l 0,-0.4185 c -0.675,0 -1.0125,-0.3375 -1.0125,-0.6885 0,-0.0405 0.0135,-0.1755 0.027,-0.2025 l 0.621,-1.755 3.321,0 -0.135,-0.4185 -3.0375,0 1.512,-4.374 1.5255,4.374 0.135,0.4185 0.7155,2.052 c 0.0135,0.054 0.0405,0.135 0.0405,0.189 0,0.405 -0.756,0.405 -1.107,0.405 l 0,0.4185 c 0.4725,-0.054 1.4175,-0.054 1.9305,-0.054 0.5805,0 1.2015,0.0135 1.7685,0.054 l 0,-0.4185 -0.243,0 c -0.81,0 -0.999,-0.0945 -1.1475,-0.54 z"
           style="font-style:normal;font-variant:normal;font-weight:normal;font-stretch:normal;letter-spacing:normal;word-spacing:normal;text-anchor:start;fill:#000000;stroke:#000000;stroke-width:0;stroke-linecap:butt;stroke-linejoin:miter;stroke-miterlimit:10.43299961;stroke-opacity:1;stroke-dasharray:none;stroke-dashoffset:0" />
        <path
           id="path3864"
           d="m 279.60043,365.9412 0,-0.0135 -0.0135,-0.0135 -0.0135,-0.0135 -0.0135,-0.0135 0,-0.0135 -0.0135,-0.0135 -0.0135,-0.0135 0,0 -0.0135,-0.0135 0,-0.0135 -0.0135,0 -0.0135,-0.0135 0,0 -0.0135,-0.0135 -0.0135,0 0,0 -0.0135,-0.0135 -0.0135,0 -0.0135,0 0,0 -0.0135,-0.0135 -0.0135,0 -0.0135,0 -0.0135,0 -0.0135,0 -0.027,0 -0.0135,0 -0.0135,0 -0.027,0 0,0 -0.0135,0 -0.0135,0 -0.0135,0 -0.0135,0 -0.0135,0 -2.2815,0 0,0.4185 0.3915,0 c 0.2025,0 0.4725,0.0135 0.675,0.027 0.3105,0.0405 0.324,0.054 0.324,0.297 l 0,7.02 c 0,0.3645 0,0.999 -1.3905,0.999 l 0,0.4185 c 0.4725,-0.0135 1.134,-0.054 1.5795,-0.054 0.4455,0 1.0935,0.0405 1.566,0.054 l 0,-0.4185 c -1.377,0 -1.377,-0.6345 -1.377,-0.999 l 0,-6.9795 c 0.0675,0.0675 0.081,0.0675 0.135,0.1485 l 5.481,8.073 c 0.1215,0.162 0.135,0.1755 0.2295,0.1755 0.189,0 0.189,-0.0945 0.189,-0.351 l 0,-7.425 c 0,-0.3645 0,-0.9855 1.3905,-0.9855 l 0,-0.4185 c -0.4725,0.0135 -1.134,0.0405 -1.5795,0.0405 -0.4455,0 -1.0935,-0.027 -1.566,-0.0405 l 0,0.4185 c 1.377,0 1.377,0.621 1.377,0.9855 l 0,5.7375 z"
           style="font-style:normal;font-variant:normal;font-weight:normal;font-stretch:normal;letter-spacing:normal;word-spacing:normal;text-anchor:start;fill:#000000;stroke:#000000;stroke-width:0;stroke-linecap:butt;stroke-linejoin:miter;stroke-miterlimit:10.43299961;stroke-opacity:1;stroke-dasharray:none;stroke-dashoffset:0" />
        <path
           id="path3866"
           d="m 296.27293,370.3827 0,-0.2565 -0.027,-0.243 -0.027,-0.2565 -0.0405,-0.243 -0.054,-0.243 -0.054,-0.2295 -0.0675,-0.2295 -0.081,-0.216 -0.0945,-0.2295 -0.0945,-0.2025 -0.108,-0.216 -0.1215,-0.189 -0.1215,-0.2025 -0.135,-0.1755 -0.1485,-0.189 -0.1485,-0.162 -0.1485,-0.162 -0.1755,-0.162 -0.162,-0.135 -0.1755,-0.135 -0.189,-0.135 -0.189,-0.1215 -0.189,-0.108 -0.2025,-0.0945 -0.2025,-0.081 -0.2025,-0.081 -0.216,-0.0675 -0.216,-0.054 -0.216,-0.0405 -0.216,-0.027 -0.2295,-0.027 -0.2295,0 0,0.3375 c 1.1745,0 3.0915,0.945 3.0915,4.3875 0,3.564 -1.836,4.698 -3.078,4.698 l 0,0 c -1.296,0 -3.0915,-1.188 -3.0915,-4.698 0,-3.483 1.9575,-4.3875 3.078,-4.3875 l 0,-0.3375 c -2.403,0 -4.4685,2.1465 -4.4685,4.914 0,2.754 2.079,4.8465 4.4685,4.8465 2.457,0 4.482,-2.133 4.482,-4.8465 z"
           style="font-style:normal;font-variant:normal;font-weight:normal;font-stretch:normal;letter-spacing:normal;word-spacing:normal;text-anchor:start;fill:#000000;stroke:#000000;stroke-width:0;stroke-linecap:butt;stroke-linejoin:miter;stroke-miterlimit:10.43299961;stroke-opacity:1;stroke-dasharray:none;stroke-dashoffset:0" />
        <path
           id="path3868"
           d="m 302.26693,370.3422 0,0.2565 0.027,0.2565 0.027,0.2565 0.0405,0.243 0.054,0.243 0.0675,0.2295 0.081,0.2295 0.081,0.2295 0.0945,0.216 0.108,0.2025 0.108,0.216 0.135,0.189 0.135,0.189 0.135,0.189 0.1485,0.1755 0.162,0.162 0.162,0.162 0.1755,0.162 0.1755,0.135 0.1755,0.135 0.2025,0.1215 0.189,0.1215 0.2025,0.108 0.2025,0.0945 0.216,0.081 0.216,0.081 0.216,0.054 0.2295,0.054 0.216,0.0405 0.2295,0.0405 0.2295,0.0135 0.243,0 c 2.187,0 3.51,-1.863 3.51,-3.4155 0,-0.135 0,-0.2295 -0.1755,-0.2295 -0.1485,0 -0.1485,0.081 -0.162,0.216 -0.108,1.917 -1.5525,3.0105 -3.0105,3.0105 -0.8235,0 -3.4695,-0.4455 -3.4695,-4.455 0,-4.023 2.6325,-4.4685 3.456,-4.4685 1.458,0 2.6595,1.215 2.9295,3.186 0.027,0.1755 0.027,0.216 0.216,0.216 0.216,0 0.216,-0.0405 0.216,-0.3105 l 0,-3.186 c 0,-0.2295 0,-0.324 -0.1485,-0.324 -0.054,0 -0.108,0 -0.216,0.162 l -0.675,0.9855 c -0.4995,-0.4725 -1.188,-1.1475 -2.4705,-1.1475 -2.5245,0 -4.6845,2.133 -4.6845,4.8735 z"
           style="font-style:normal;font-variant:normal;font-weight:normal;font-stretch:normal;letter-spacing:normal;word-spacing:normal;text-anchor:start;fill:#000000;stroke:#000000;stroke-width:0;stroke-linecap:butt;stroke-linejoin:miter;stroke-miterlimit:10.43299961;stroke-opacity:1;stroke-dasharray:none;stroke-dashoffset:0" />
        <path
           id="path3870"
           d="m 320.92393,370.3827 0,-0.2565 -0.027,-0.243 -0.027,-0.2565 -0.0405,-0.243 -0.0405,-0.243 -0.0675,-0.2295 -0.0675,-0.2295 -0.081,-0.216 -0.0945,-0.2295 -0.0945,-0.2025 -0.108,-0.216 -0.1215,-0.189 -0.1215,-0.2025 -0.135,-0.1755 -0.1485,-0.189 -0.1485,-0.162 -0.1485,-0.162 -0.162,-0.162 -0.1755,-0.135 -0.1755,-0.135 -0.189,-0.135 -0.1755,-0.1215 -0.2025,-0.108 -0.189,-0.0945 -0.2025,-0.081 -0.216,-0.081 -0.2025,-0.0675 -0.216,-0.054 -0.2295,-0.0405 -0.216,-0.027 -0.2295,-0.027 -0.2295,0 0,0.3375 c 1.1745,0 3.0915,0.945 3.0915,4.3875 0,3.564 -1.836,4.698 -3.078,4.698 l 0,0 c -1.2825,0 -3.0915,-1.188 -3.0915,-4.698 0,-3.483 1.9575,-4.3875 3.078,-4.3875 l 0,-0.3375 c -2.403,0 -4.4685,2.1465 -4.4685,4.914 0,2.754 2.079,4.8465 4.4685,4.8465 2.457,0 4.482,-2.133 4.482,-4.8465 z"
           style="font-style:normal;font-variant:normal;font-weight:normal;font-stretch:normal;letter-spacing:normal;word-spacing:normal;text-anchor:start;fill:#000000;stroke:#000000;stroke-width:0;stroke-linecap:butt;stroke-linejoin:miter;stroke-miterlimit:10.43299961;stroke-opacity:1;stroke-dasharray:none;stroke-dashoffset:0" />
        <path
           id="path3872"
           d="m 324.81193,365.9412 -0.0135,-0.0135 -0.0135,-0.0135 -0.0135,-0.0135 0,-0.0135 -0.0135,-0.0135 -0.0135,-0.0135 0,-0.0135 -0.0135,0 -0.0135,-0.0135 0,-0.0135 -0.0135,0 -0.0135,-0.0135 0,0 -0.0135,-0.0135 0,0 -0.0135,0 -0.0135,-0.0135 -0.0135,0 0,0 -0.0135,0 -0.0135,-0.0135 -0.0135,0 -0.0135,0 -0.0135,0 -0.0135,0 -0.0135,0 -0.027,0 -0.0135,0 -0.0135,0 -0.0135,0 -0.0135,0 -0.0135,0 -0.0135,0 0,0 -0.0135,0 -2.295,0 0,0.4185 0.3915,0 c 0.2025,0 0.4725,0.0135 0.675,0.027 0.3105,0.0405 0.324,0.054 0.324,0.297 l 0,7.02 c 0,0.3645 0,0.999 -1.3905,0.999 l 0,0.4185 c 0.4725,-0.0135 1.134,-0.054 1.5795,-0.054 0.4455,0 1.107,0.0405 1.566,0.054 l 0,-0.4185 c -1.377,0 -1.377,-0.6345 -1.377,-0.999 l 0,-6.9795 c 0.0675,0.0675 0.081,0.0675 0.135,0.1485 l 5.4945,8.073 c 0.1215,0.162 0.135,0.1755 0.216,0.1755 0.189,0 0.189,-0.0945 0.189,-0.351 l 0,-7.425 c 0,-0.3645 0,-0.9855 1.3905,-0.9855 l 0,-0.4185 c -0.4725,0.0135 -1.134,0.0405 -1.5795,0.0405 -0.432,0 -1.0935,-0.027 -1.566,-0.0405 l 0,0.4185 c 1.3905,0 1.3905,0.621 1.3905,0.9855 l 0,5.7375 z"
           style="font-style:normal;font-variant:normal;font-weight:normal;font-stretch:normal;letter-spacing:normal;word-spacing:normal;text-anchor:start;fill:#000000;stroke:#000000;stroke-width:0;stroke-linecap:butt;stroke-linejoin:miter;stroke-miterlimit:10.43299961;stroke-opacity:1;stroke-dasharray:none;stroke-dashoffset:0" />
        <path
           id="path3874"
           d="m 332.23693,365.7657 0,0.4185 0.324,0 c 1.0395,0 1.0665,0.1485 1.0665,0.621 l 0,7.0875 c 0,0.486 -0.027,0.6345 -1.0665,0.6345 l -0.324,0 0,0.4185 4.9275,0 -0.3645,-0.4185 -1.35,0 c -0.6345,0 -0.6615,-0.0945 -0.6615,-0.54 l 0,-7.2765 c 0,-0.432 0.027,-0.5265 0.6615,-0.5265 l 1.3365,0 c 0.837,0 1.7685,0.2835 2.457,1.242 0.5805,0.7965 0.702,1.944 0.702,2.997 0,1.4985 -0.2565,2.295 -0.7425,2.9565 -0.27,0.3645 -1.0395,1.1475 -2.403,1.1475 l 0.3645,0.4185 c 2.268,0 4.1175,-1.998 4.1175,-4.5225 0,-2.5515 -1.809,-4.6575 -4.1175,-4.6575 z"
           style="font-style:normal;font-variant:normal;font-weight:normal;font-stretch:normal;letter-spacing:normal;word-spacing:normal;text-anchor:start;fill:#000000;stroke:#000000;stroke-width:0;stroke-linecap:butt;stroke-linejoin:miter;stroke-miterlimit:10.43299961;stroke-opacity:1;stroke-dasharray:none;stroke-dashoffset:0" />
        <path
           id="path3876"
           d="m 349.88143,371.8407 -0.0135,0.1755 0,0.162 -0.027,0.1755 -0.027,0.162 -0.027,0.1485 -0.0405,0.1485 -0.0405,0.1485 -0.054,0.1485 -0.054,0.135 -0.0675,0.1215 -0.0675,0.135 -0.0675,0.1215 -0.081,0.108 -0.081,0.108 -0.081,0.108 -0.081,0.0945 -0.0945,0.0945 -0.108,0.081 -0.0945,0.081 -0.108,0.081 -0.0945,0.0675 -0.108,0.0675 -0.1215,0.054 -0.108,0.054 -0.108,0.0405 -0.1215,0.0405 -0.1215,0.0405 -0.108,0.027 -0.1215,0.0135 -0.1215,0.027 -0.1215,0 -0.1215,0 c -0.6345,0 -2.214,-0.324 -2.214,-2.8755 l 0,-5.13 c 0,-0.4725 0.027,-0.621 1.0665,-0.621 l 0.3105,0 0,-0.4185 c -0.459,0.0405 -1.458,0.0405 -1.971,0.0405 -0.513,0 -1.5255,0 -1.998,-0.0405 l 0,0.4185 0.324,0 c 1.0395,0 1.0665,0.1485 1.0665,0.621 l 0,5.076 c 0,1.89 1.566,3.348 3.3885,3.348 1.5525,0 2.7675,-1.242 2.997,-2.781 0.0405,-0.2565 0.0405,-0.378 0.0405,-0.918 l 0,-4.3065 c 0,-0.4455 0,-1.0395 1.377,-1.0395 l 0,-0.4185 c -0.486,0.0135 -1.1205,0.0405 -1.5795,0.0405 -0.4725,0 -1.1205,-0.027 -1.6065,-0.0405 l 0,0.4185 c 1.3905,0 1.3905,0.621 1.3905,0.9855 z"
           style="font-style:normal;font-variant:normal;font-weight:normal;font-stretch:normal;letter-spacing:normal;word-spacing:normal;text-anchor:start;fill:#000000;stroke:#000000;stroke-width:0;stroke-linecap:butt;stroke-linejoin:miter;stroke-miterlimit:10.43299961;stroke-opacity:1;stroke-dasharray:none;stroke-dashoffset:0" />
        <path
           id="path3878"
           d="m 352.89193,370.3422 0,0.2565 0.0135,0.2565 0.0405,0.2565 0.0405,0.243 0.054,0.243 0.0675,0.2295 0.0675,0.2295 0.0945,0.2295 0.0945,0.216 0.108,0.2025 0.108,0.216 0.1215,0.189 0.135,0.189 0.1485,0.189 0.1485,0.1755 0.162,0.162 0.162,0.162 0.162,0.162 0.189,0.135 0.1755,0.135 0.189,0.1215 0.2025,0.1215 0.2025,0.108 0.2025,0.0945 0.216,0.081 0.216,0.081 0.216,0.054 0.216,0.054 0.2295,0.0405 0.2295,0.0405 0.2295,0.0135 0.243,0 c 2.187,0 3.51,-1.863 3.51,-3.4155 0,-0.135 0,-0.2295 -0.1755,-0.2295 -0.1485,0 -0.1485,0.081 -0.162,0.216 -0.108,1.917 -1.5525,3.0105 -3.024,3.0105 -0.81,0 -3.456,-0.4455 -3.456,-4.455 0,-4.023 2.6325,-4.4685 3.4425,-4.4685 1.4715,0 2.673,1.215 2.943,3.186 0.027,0.1755 0.027,0.216 0.216,0.216 0.216,0 0.216,-0.0405 0.216,-0.3105 l 0,-3.186 c 0,-0.2295 0,-0.324 -0.1485,-0.324 -0.054,0 -0.108,0 -0.216,0.162 l -0.675,0.9855 c -0.4995,-0.4725 -1.188,-1.1475 -2.4705,-1.1475 -2.5245,0 -4.6845,2.133 -4.6845,4.8735 z"
           style="font-style:normal;font-variant:normal;font-weight:normal;font-stretch:normal;letter-spacing:normal;word-spacing:normal;text-anchor:start;fill:#000000;stroke:#000000;stroke-width:0;stroke-linecap:butt;stroke-linejoin:miter;stroke-miterlimit:10.43299961;stroke-opacity:1;stroke-dasharray:none;stroke-dashoffset:0" />
        <path
           id="path3880"
           d="m 370.80643,365.8467 -8.2215,0 -0.2565,3.024 0.3375,0 c 0.189,-2.1735 0.3915,-2.6055 2.43,-2.6055 0.2295,0 0.5805,0 0.7155,0.027 0.2835,0.0405 0.2835,0.2025 0.2835,0.4995 l 0,7.0875 c 0,0.459 0,0.648 -1.404,0.648 l -0.54,0 0,0.4185 c 0.5535,-0.054 1.917,-0.054 2.538,-0.054 0.621,0 2.0115,0 2.565,0.054 l 0,-0.4185 -0.54,0 c -1.4175,0 -1.4175,-0.189 -1.4175,-0.648 l 0,-7.0875 c 0,-0.2565 0,-0.459 0.243,-0.4995 0.1485,-0.027 0.513,-0.027 0.7695,-0.027 2.025,0 2.2275,0.432 2.4165,2.6055 l 0.3375,0 z"
           style="font-style:normal;font-variant:normal;font-weight:normal;font-stretch:normal;letter-spacing:normal;word-spacing:normal;text-anchor:start;fill:#000000;stroke:#000000;stroke-width:0;stroke-linecap:butt;stroke-linejoin:miter;stroke-miterlimit:10.43299961;stroke-opacity:1;stroke-dasharray:none;stroke-dashoffset:0" />
        <path
           id="path3882"
           d="m 381.25543,370.3827 0,-0.2565 -0.0135,-0.243 -0.027,-0.2565 -0.0405,-0.243 -0.054,-0.243 -0.0675,-0.2295 -0.0675,-0.2295 -0.081,-0.216 -0.0945,-0.2295 -0.0945,-0.2025 -0.108,-0.216 -0.1215,-0.189 -0.1215,-0.2025 -0.135,-0.1755 -0.135,-0.189 -0.1485,-0.162 -0.162,-0.162 -0.162,-0.162 -0.1755,-0.135 -0.1755,-0.135 -0.1755,-0.135 -0.189,-0.1215 -0.189,-0.108 -0.2025,-0.0945 -0.2025,-0.081 -0.2025,-0.081 -0.216,-0.0675 -0.216,-0.054 -0.216,-0.0405 -0.2295,-0.027 -0.2295,-0.027 -0.2295,0 0,0.3375 c 1.1745,0 3.105,0.945 3.105,4.3875 0,3.564 -1.8495,4.698 -3.0915,4.698 l 0,0 c -1.2825,0 -3.0915,-1.188 -3.0915,-4.698 0,-3.483 1.971,-4.3875 3.078,-4.3875 l 0,-0.3375 c -2.403,0 -4.455,2.1465 -4.455,4.914 0,2.754 2.0655,4.8465 4.455,4.8465 2.457,0 4.482,-2.133 4.482,-4.8465 z"
           style="font-style:normal;font-variant:normal;font-weight:normal;font-stretch:normal;letter-spacing:normal;word-spacing:normal;text-anchor:start;fill:#000000;stroke:#000000;stroke-width:0;stroke-linecap:butt;stroke-linejoin:miter;stroke-miterlimit:10.43299961;stroke-opacity:1;stroke-dasharray:none;stroke-dashoffset:0" />
        <path
           id="path3884"
           d="m 387.87043,370.3692 0.1215,-0.027 0.1215,-0.0405 0.1215,-0.0405 0.1215,-0.0405 0.108,-0.0405 0.108,-0.0405 0.108,-0.054 0.108,-0.0405 0.108,-0.054 0.108,-0.054 0.0945,-0.0675 0.0945,-0.054 0.0945,-0.0675 0.081,-0.0675 0.0945,-0.0675 0.081,-0.0675 0.081,-0.0675 0.0675,-0.081 0.0675,-0.0675 0.0675,-0.081 0.0675,-0.081 0.054,-0.081 0.054,-0.081 0.0405,-0.081 0.0405,-0.0945 0.0405,-0.081 0.027,-0.0945 0.027,-0.0945 0.027,-0.0945 0.0135,-0.0945 0,-0.0945 0.0135,-0.0945 c 0,-1.296 -1.539,-2.4165 -3.51,-2.4165 l -4.239,0 0,0.4185 0.324,0 c 1.0395,0 1.0665,0.1485 1.0665,0.621 l 0,7.0875 c 0,0.486 -0.027,0.6345 -1.0665,0.6345 l -0.324,0 0,0.4185 c 0.486,-0.054 1.4445,-0.054 1.971,-0.054 0.5265,0 1.485,0 1.971,0.054 l 0,-0.4185 -0.324,0 c -1.0395,0 -1.0665,-0.1485 -1.0665,-0.6345 l 0,-3.402 0,-0.297 0,-3.483 c 0,-0.297 0,-0.459 0.297,-0.4995 0.135,-0.027 0.5265,-0.027 0.7965,-0.027 1.2015,0 2.7135,0.054 2.7135,1.998 0,0.9315 -0.324,2.0115 -2.3085,2.0115 l -1.4985,0 0,0.297 1.5525,0 c 0.216,0 0.7695,0 1.242,0.459 0.513,0.486 0.513,0.9045 0.513,1.7955 0,0.8775 0,1.4175 0.5535,1.9305 0.5535,0.4725 1.296,0.5535 1.701,0.5535 1.0395,0 1.269,-1.0935 1.269,-1.4715 0,-0.081 0,-0.2295 -0.1755,-0.2295 -0.1485,0 -0.1485,0.1215 -0.162,0.216 -0.081,0.9585 -0.54,1.2015 -0.8775,1.2015 -0.6615,0 -0.7695,-0.6885 -0.9585,-1.944 l -0.1755,-1.0665 c -0.243,-0.864 -0.9045,-1.3095 -1.647,-1.566 z"
           style="font-style:normal;font-variant:normal;font-weight:normal;font-stretch:normal;letter-spacing:normal;word-spacing:normal;text-anchor:start;fill:#000000;stroke:#000000;stroke-width:0;stroke-linecap:butt;stroke-linejoin:miter;stroke-miterlimit:10.43299961;stroke-opacity:1;stroke-dasharray:none;stroke-dashoffset:0" />
      </g>
      <path
         id="path4076-2-4-3-0"
         d="m 284.67279,498.30544 c -7.7e-4,0 139.30866,0 139.30866,0"
         style="fill:none;stroke:#000000;stroke-width:0.78307086;stroke-linecap:butt;stroke-linejoin:miter;stroke-miterlimit:4;stroke-opacity:1;stroke-dasharray:none;marker-start:url(#marker8113-171);marker-end:url(#marker8113)"
         sodipodi:nodetypes="cc" />
      <path
         id="path4076-2-4-3-0-9"
         d="m 217.44208,387.43227 c 0,-7.7e-4 0,54.26929 0,54.26929"
         style="fill:none;stroke:#000000;stroke-width:0.78307086;stroke-linecap:butt;stroke-linejoin:miter;stroke-miterlimit:4;stroke-opacity:1;stroke-dasharray:none;marker-start:url(#marker8113-171);marker-end:url(#marker8113)"
         sodipodi:nodetypes="cc" />
      <path
         style="font-style:normal;font-variant:normal;font-weight:normal;font-stretch:normal;letter-spacing:normal;word-spacing:normal;text-anchor:start;fill:#000000;stroke:#000000;stroke-width:0;stroke-linecap:butt;stroke-linejoin:miter;stroke-miterlimit:10.43299961;stroke-opacity:1;stroke-dasharray:none;stroke-dashoffset:0"
         d="m 355.72811,488.71512 -0.027,-0.0405 -0.0135,-0.0405 -0.027,-0.054 -0.027,-0.0405 -0.027,-0.0405 -0.027,-0.0405 -0.027,-0.0405 -0.0405,-0.0405 -0.027,-0.0405 -0.027,-0.0405 -0.0405,-0.027 -0.027,-0.0405 -0.0405,-0.0405 -0.027,-0.027 -0.0405,-0.027 -0.0405,-0.027 -0.0405,-0.027 -0.0405,-0.027 -0.0405,-0.027 -0.0405,-0.027 -0.0405,-0.027 -0.0405,-0.0135 -0.054,-0.0135 -0.0405,-0.027 -0.0405,-0.0135 -0.054,-0.0135 -0.054,0 -0.054,-0.0135 -0.0405,-0.0135 -0.054,0 -0.0675,0 -0.054,0 c -1.566,0 -3.24,1.971 -3.24,3.9285 0,1.269 0.7425,2.1465 1.7955,2.1465 l 0.027,-0.2835 c -0.675,0 -0.864,-0.7425 -0.864,-1.269 0,-0.675 0.432,-2.322 0.7425,-2.943 0.4185,-0.7965 1.0125,-1.296 1.5525,-1.296 0.8775,0 1.0665,1.107 1.0665,1.188 0,0.081 -0.027,0.162 -0.0405,0.2295 l -0.675,2.6325 c -0.0675,0.243 -0.0675,0.27 -0.27,0.4995 -0.594,0.7425 -1.134,0.9585 -1.512,0.9585 l -0.027,0.2835 c 0.27,0 0.9315,-0.054 1.7415,-0.999 0.108,0.567 0.5805,0.999 1.2285,0.999 0.4725,0 0.783,-0.297 0.999,-0.729 0.2295,-0.486 0.405,-1.3095 0.405,-1.3365 0,-0.135 -0.1215,-0.135 -0.162,-0.135 -0.135,0 -0.1485,0.054 -0.189,0.243 -0.2295,0.8775 -0.4725,1.674 -1.026,1.674 -0.3645,0 -0.405,-0.351 -0.405,-0.621 0,-0.297 0.027,-0.405 0.1755,-0.999 0.1485,-0.567 0.1755,-0.702 0.297,-1.2015 l 0.486,-1.89 c 0.0945,-0.378 0.0945,-0.405 0.0945,-0.459 0,-0.216 -0.162,-0.351 -0.3915,-0.351 -0.324,0 -0.5265,0.2835 -0.567,0.5805 z"
         id="path9907" />
      <path
         id="path10357"
         d="m 210.70061,409.98319 0,0 0,0 0,-0.0135 0,0 0,0 0,0 0,-0.0135 0,0 0,0 0,-0.0135 0,0 0,-0.0135 0,0 0,-0.0135 -0.0135,0 0,-0.0135 0,0 -0.0135,-0.0135 0,0 0,-0.0135 -0.0135,0 0,0 0,0 -0.0135,-0.0135 0,0 0,0 0,0 -0.0135,0 0,-0.0135 0,0 -0.0135,0 0,0 -0.0135,0 0,0 0,-0.0135 -0.0135,0 0,0 -0.0135,0 0,0 -0.0135,0 0,0 -0.0135,0 0,0 -0.0135,0 -0.0135,0 c -0.297,0 -1.2825,0.108 -1.6335,0.135 -0.108,0.0135 -0.2565,0.027 -0.2565,0.27 0,0.162 0.1215,0.162 0.324,0.162 0.648,0 0.675,0.0945 0.675,0.2295 0,0.0945 -0.1215,0.54 -0.189,0.8235 l -1.107,4.3875 c -0.162,0.6615 -0.216,0.8775 -0.216,1.35 0,1.2825 0.7155,2.106 1.7145,2.106 l 0,-0.2835 c -0.459,0 -0.9045,-0.3645 -0.9045,-1.3635 0,-0.2565 0,-0.513 0.216,-1.3635 l 0.297,-1.2285 c 0.081,-0.297 0.081,-0.324 0.2025,-0.4725 0.648,-0.8775 1.2555,-1.08 1.6065,-1.08 0.486,0 0.8505,0.405 0.8505,1.269 0,0.7965 -0.4455,2.3355 -0.6885,2.8485 -0.4455,0.9045 -1.0665,1.3905 -1.5795,1.3905 l 0,0.2835 c 1.5795,0 3.24,-1.998 3.24,-3.9285 0,-1.2285 -0.7155,-2.1465 -1.7955,-2.1465 -0.6075,0 -1.161,0.378 -1.566,0.7965 z"
         style="font-style:normal;font-variant:normal;font-weight:normal;font-stretch:normal;letter-spacing:normal;word-spacing:normal;text-anchor:start;fill:#000000;stroke:#000000;stroke-width:0;stroke-linecap:butt;stroke-linejoin:miter;stroke-miterlimit:10.43299961;stroke-opacity:1;stroke-dasharray:none;stroke-dashoffset:0" />
      <path
         sodipodi:nodetypes="cc"
         style="fill:none;stroke:#000000;stroke-width:0.35433072;stroke-linecap:butt;stroke-linejoin:miter;stroke-miterlimit:4;stroke-opacity:1;stroke-dasharray:none;stroke-dashoffset:0;marker-end:none"
         d="m 217.44917,442.91337 c -7.8e-4,0 66.01536,0 66.01536,0"
         id="path4076-2-4-3-6-0-0-7-1" />
      <path
         sodipodi:nodetypes="cc"
         style="fill:none;stroke:#000000;stroke-width:0.35433072;stroke-linecap:butt;stroke-linejoin:miter;stroke-miterlimit:4;stroke-opacity:1;stroke-dasharray:none;stroke-dashoffset:0;marker-end:none"
         d="m 217.435,386.22046 c -7.8e-4,0 66.02953,0 66.02953,0"
         id="path4076-2-4-3-6-0-0-7-1-9" />
      <path
         sodipodi:nodetypes="cc"
         style="fill:none;stroke:#000000;stroke-width:0.35433072;stroke-linecap:butt;stroke-linejoin:miter;stroke-miterlimit:4;stroke-opacity:1;stroke-dasharray:none;stroke-dashoffset:0;marker-end:none"
         d="m 283.46453,442.91337 c 0,-7.8e-4 0,55.39916 0,55.39916"
         id="path4076-2-4-3-6-0-0-7-1-8" />
      <path
         sodipodi:nodetypes="cc"
         style="fill:none;stroke:#000000;stroke-width:0.35433072;stroke-linecap:butt;stroke-linejoin:miter;stroke-miterlimit:4;stroke-opacity:1;stroke-dasharray:none;stroke-dashoffset:0;marker-end:none"
         d="m 425.19681,442.91512 c 0,-7.7e-4 0,55.38678 0,55.38678"
         id="path4076-2-4-3-6-0-0-7-1-2" />
      <g
         style="font-style:normal;font-variant:normal;font-weight:normal;font-stretch:normal;letter-spacing:normal;word-spacing:normal;text-anchor:start;fill:none;stroke:#000000;stroke-linecap:butt;stroke-linejoin:miter;stroke-miterlimit:10.43299961;stroke-opacity:1;stroke-dasharray:none;stroke-dashoffset:0"
         id="content"
         transform="matrix(1.35,0,0,-1.35,14.839215,1418.0598)"
         xml:space="preserve"
         stroke-miterlimit="10.433"
         font-style="normal"
         font-variant="normal"
         font-weight="normal"
         font-stretch="normal"
         font-size-adjust="none"
         letter-spacing="normal"
         word-spacing="normal"
         ns0:text="PERFECTO"
         ns0:preamble="">
<path
   style="fill:#000000;stroke-width:0"
   d="m 225.69,710.26 -0.03,0.26 v 2.69 c 0,0.32 0.02,0.39 0.49,0.39 h 0.88 c 1.59,0 1.59,-1.05 1.59,-1.54 0,-0.47 0,-1.54 -1.59,-1.54 h -1.37 l 0.03,-0.26 h 1.68 c 1.2,0 2.27,0.81 2.27,1.8 0,0.98 -0.99,1.85 -2.35,1.85 h -3.51 v -0.31 h 0.24 c 0.77,0 0.78,-0.11 0.78,-0.46 v -5.24 c 0,-0.36 -0.01,-0.47 -0.78,-0.47 h -0.24 v -0.3 c 0.35,0.03 1.09,0.03 1.46,0.03 0.38,0 1.13,0 1.47,-0.03 v 0.3 h -0.23 c -0.77,0 -0.79,0.11 -0.79,0.47 z"
   id="path3471" />
<path
   style="fill:#000000;stroke-width:0"
   d="m 231.57,707.9 0,-0.03 0,-0.03 -0.01,-0.03 0,-0.03 0,-0.03 0,-0.03 0,-0.02 -0.01,-0.02 0,-0.03 -0.01,-0.02 -0.01,-0.02 -0.01,-0.02 -0.01,-0.01 -0.02,-0.02 -0.01,-0.01 -0.02,-0.02 -0.02,-0.01 -0.02,-0.01 -0.01,-0.01 -0.02,0 -0.01,-0.01 -0.01,0 -0.02,-0.01 -0.02,0 -0.01,-0.01 -0.02,0 -0.02,0 -0.01,-0.01 -0.02,0 -0.02,0 -0.02,-0.01 -0.03,0 -0.02,0 -0.02,0 -0.03,-0.01 -0.02,0 -0.03,0 -0.03,0 -0.02,0 -0.03,0 -0.03,0 -0.03,-0.01 -0.04,0 -0.03,0 -0.03,0 -0.04,0 h -0.24 v -0.3 h 5.74 l 0.42,2.56 h -0.25 c -0.25,-1.53 -0.48,-2.26 -2.19,-2.26 h -1.32 c -0.47,0 -0.49,0.07 -0.49,0.4 v 2.65 h 0.9 c 0.96,0 1.07,-0.32 1.07,-1.16 h 0.25 v 2.63 h -0.25 c 0,-0.85 -0.11,-1.16 -1.07,-1.16 h -0.9 v 2.38 c 0,0.33 0.02,0.4 0.49,0.4 h 1.28 c 1.52,0 1.79,-0.54 1.95,-1.92 h 0.25 l -0.28,2.23 h -5.6 v -0.31 h 0.24 c 0.77,0 0.79,-0.11 0.79,-0.47 z"
   id="path3473" />
<path
   style="fill:#000000;stroke-width:0"
   d="m 241.32,710.5 0.09,0.03 0.09,0.02 0.09,0.03 0.08,0.03 0.09,0.03 0.08,0.03 0.08,0.04 0.08,0.04 0.08,0.04 0.07,0.04 0.08,0.04 0.07,0.05 0.06,0.04 0.07,0.05 0.06,0.05 0.06,0.05 0.06,0.05 0.06,0.06 0.05,0.05 0.05,0.06 0.04,0.06 0.04,0.06 0.04,0.06 0.04,0.07 0.03,0.06 0.02,0.07 0.03,0.06 0.02,0.07 0.01,0.07 0.01,0.07 0.01,0.07 0,0.07 c 0,0.96 -1.13,1.79 -2.6,1.79 h -3.12 v -0.31 h 0.24 c 0.77,0 0.79,-0.11 0.79,-0.46 v -5.24 c 0,-0.36 -0.02,-0.47 -0.79,-0.47 h -0.24 v -0.3 c 0.36,0.03 1.07,0.03 1.45,0.03 0.39,0 1.1,0 1.46,-0.03 v 0.3 h -0.24 c -0.77,0 -0.79,0.11 -0.79,0.47 v 2.51 0.22 2.58 c 0,0.22 0,0.34 0.22,0.37 0.1,0.02 0.39,0.02 0.59,0.02 0.89,0 2.01,-0.04 2.01,-1.48 0,-0.68 -0.24,-1.49 -1.71,-1.49 h -1.11 v -0.22 h 1.15 c 0.15,0 0.57,0 0.92,-0.33 0.38,-0.36 0.38,-0.67 0.38,-1.34 0,-0.64 0,-1.04 0.41,-1.42 0.41,-0.35 0.95,-0.41 1.25,-0.41 0.78,0 0.95,0.81 0.95,1.09 0,0.06 0,0.17 -0.13,0.17 -0.11,0 -0.11,-0.09 -0.12,-0.16 -0.06,-0.71 -0.41,-0.88 -0.66,-0.88 -0.49,0 -0.57,0.5 -0.71,1.42 l -0.12,0.8 c -0.18,0.64 -0.67,0.96 -1.22,1.15 z"
   id="path3475" />
<path
   style="fill:#000000;stroke-width:0"
   d="m 250.12,713.88 h -5.47 v -0.31 h 0.24 c 0.77,0 0.79,-0.11 0.79,-0.47 v -5.2 c 0,-0.36 -0.02,-0.47 -0.79,-0.47 h -0.24 v -0.3 c 0.35,0.03 1.13,0.03 1.52,0.03 0.4,0 1.31,0 1.67,-0.03 v 0.3 h -0.33 c -0.94,0 -0.94,0.13 -0.94,0.48 v 2.44 h 0.85 c 0.96,0 1.06,-0.31 1.06,-1.16 h 0.24 v 2.63 h -0.24 c 0,-0.83 -0.1,-1.16 -1.06,-1.16 h -0.85 v 2.51 c 0,0.33 0.02,0.4 0.48,0.4 h 1.2 c 1.49,0 1.74,-0.55 1.9,-1.92 h 0.25 z"
   id="path3477" />
<path
   style="fill:#000000;stroke-width:0"
   d="m 252.18,707.9 0,-0.03 0,-0.03 0,-0.03 0,-0.03 0,-0.03 0,-0.03 -0.01,-0.02 0,-0.02 -0.01,-0.03 -0.01,-0.02 0,-0.02 -0.01,-0.02 -0.02,-0.01 -0.01,-0.02 -0.01,-0.01 -0.02,-0.02 -0.02,-0.01 -0.03,-0.01 -0.01,-0.01 -0.01,0 -0.01,-0.01 -0.02,0 -0.01,-0.01 -0.02,0 -0.01,-0.01 -0.02,0 -0.02,0 -0.02,-0.01 -0.02,0 -0.02,0 -0.02,-0.01 -0.02,0 -0.02,0 -0.03,0 -0.02,-0.01 -0.03,0 -0.02,0 -0.03,0 -0.03,0 -0.03,0 -0.03,0 -0.03,-0.01 -0.03,0 -0.03,0 -0.04,0 -0.03,0 h -0.24 v -0.3 h 5.74 l 0.42,2.56 h -0.25 c -0.25,-1.53 -0.48,-2.26 -2.19,-2.26 h -1.32 c -0.47,0 -0.49,0.07 -0.49,0.4 v 2.65 h 0.89 c 0.97,0 1.08,-0.32 1.08,-1.16 h 0.25 v 2.63 h -0.25 c 0,-0.85 -0.11,-1.16 -1.08,-1.16 h -0.89 v 2.38 c 0,0.33 0.02,0.4 0.49,0.4 h 1.28 c 1.52,0 1.79,-0.54 1.95,-1.92 h 0.25 l -0.28,2.23 h -5.6 v -0.31 h 0.24 c 0.76,0 0.78,-0.11 0.78,-0.47 z"
   id="path3479" />
<path
   style="fill:#000000;stroke-width:0"
   d="m 258.17,710.52 0,-0.19 0.02,-0.19 0.02,-0.18 0.03,-0.18 0.04,-0.18 0.05,-0.18 0.06,-0.16 0.06,-0.17 0.07,-0.16 0.08,-0.16 0.08,-0.15 0.1,-0.15 0.09,-0.14 0.11,-0.13 0.11,-0.13 0.12,-0.13 0.12,-0.12 0.12,-0.11 0.14,-0.1 0.13,-0.1 0.14,-0.09 0.15,-0.09 0.15,-0.08 0.15,-0.07 0.15,-0.06 0.16,-0.06 0.17,-0.04 0.16,-0.04 0.17,-0.03 0.17,-0.03 0.17,-0.01 0.17,0 c 1.62,0 2.6,1.38 2.6,2.53 0,0.1 0,0.17 -0.13,0.17 -0.11,0 -0.11,-0.06 -0.12,-0.16 -0.08,-1.42 -1.15,-2.24 -2.23,-2.24 -0.61,0 -2.56,0.34 -2.56,3.3 0,2.97 1.94,3.31 2.55,3.31 1.08,0 1.97,-0.9 2.17,-2.35 0.02,-0.14 0.02,-0.17 0.16,-0.17 0.16,0 0.16,0.03 0.16,0.24 v 2.35 c 0,0.17 0,0.24 -0.11,0.24 -0.04,0 -0.08,0 -0.16,-0.12 l -0.5,-0.74 c -0.37,0.36 -0.88,0.86 -1.83,0.86 -1.86,0 -3.46,-1.58 -3.46,-3.61 z"
   id="path3481" />
<path
   style="fill:#000000;stroke-width:0"
   d="m 271.43,713.85 h -6.08 l -0.19,-2.24 h 0.25 c 0.14,1.6 0.29,1.93 1.79,1.93 0.18,0 0.44,0 0.54,-0.02 0.21,-0.04 0.21,-0.15 0.21,-0.37 v -5.24 c 0,-0.34 0,-0.48 -1.05,-0.48 h -0.39 v -0.3 c 0.41,0.03 1.42,0.03 1.88,0.03 0.46,0 1.48,0 1.89,-0.03 v 0.3 h -0.4 c -1.05,0 -1.05,0.14 -1.05,0.48 v 5.24 c 0,0.19 0,0.33 0.18,0.37 0.11,0.02 0.38,0.02 0.57,0.02 1.5,0 1.65,-0.33 1.79,-1.93 h 0.25 z"
   id="path3483" />
<path
   style="fill:#000000;stroke-width:0"
   d="m 279.17,710.49 0,0.19 -0.01,0.19 -0.02,0.18 -0.03,0.18 -0.04,0.18 -0.05,0.17 -0.05,0.17 -0.06,0.17 -0.07,0.16 -0.07,0.15 -0.08,0.16 -0.09,0.14 -0.09,0.15 -0.1,0.13 -0.1,0.13 -0.11,0.13 -0.12,0.12 -0.12,0.11 -0.12,0.11 -0.13,0.1 -0.14,0.1 -0.14,0.08 -0.14,0.08 -0.15,0.07 -0.15,0.07 -0.15,0.06 -0.16,0.04 -0.16,0.04 -0.16,0.04 -0.16,0.02 -0.17,0.01 -0.17,0.01 v -0.25 c 0.87,0 2.29,-0.71 2.29,-3.25 0,-2.63 -1.36,-3.47 -2.28,-3.47 h 0 c -0.95,0 -2.29,0.88 -2.29,3.47 0,2.58 1.46,3.25 2.28,3.25 v 0.25 c -1.78,0 -3.3,-1.59 -3.3,-3.64 0,-2.03 1.53,-3.58 3.3,-3.58 1.81,0 3.31,1.58 3.31,3.58 z"
   id="path3485" />
</g>    </g>
  </g>
</svg>
