<?xml version="1.0" encoding="UTF-8" standalone="no"?>
<!-- Created with Inkscape (http://www.inkscape.org/) -->

<svg
   xmlns:ns0="http://www.iki.fi/pav/software/textext/"
   xmlns:dc="http://purl.org/dc/elements/1.1/"
   xmlns:cc="http://creativecommons.org/ns#"
   xmlns:rdf="http://www.w3.org/1999/02/22-rdf-syntax-ns#"
   xmlns:svg="http://www.w3.org/2000/svg"
   xmlns="http://www.w3.org/2000/svg"
   xmlns:sodipodi="http://sodipodi.sourceforge.net/DTD/sodipodi-0.dtd"
   xmlns:inkscape="http://www.inkscape.org/namespaces/inkscape"
   width="500.95999"
   height="186.08"
   id="svg2"
   version="1.1"
   inkscape:version="0.47 r22583"
   sodipodi:docname="estudio_59.svg">
  <sodipodi:namedview
     id="base"
     pagecolor="#ffffff"
     bordercolor="#666666"
     borderopacity="1.0"
     inkscape:pageopacity="0.0"
     inkscape:pageshadow="2"
     inkscape:zoom="1.4142136"
     inkscape:cx="179.41282"
     inkscape:cy="198.97749"
     inkscape:document-units="px"
     inkscape:current-layer="layer1"
     showgrid="false"
     inkscape:window-width="1280"
     inkscape:window-height="898"
     inkscape:window-x="-8"
     inkscape:window-y="-8"
     inkscape:window-maximized="1"
     inkscape:object-paths="true"
     inkscape:object-nodes="true"
     inkscape:snap-smooth-nodes="false"
     inkscape:snap-intersection-paths="false"
     inkscape:snap-page="true"
     inkscape:snap-global="true"
     inkscape:snap-bbox="true"
     inkscape:snap-midpoints="false"
     inkscape:snap-bbox-edge-midpoints="true"
     inkscape:snap-nodes="true"
     inkscape:snap-bbox-midpoints="false"
     inkscape:snap-object-midpoints="false"
     inkscape:snap-center="false"
     inkscape:bbox-nodes="false"
     inkscape:bbox-paths="false" />
  <defs
     id="defs4">
    <marker
       inkscape:stockid="Arrow2Mend"
       orient="auto"
       refY="0"
       refX="0"
       id="Arrow2Mend"
       style="overflow:visible">
      <path
         id="path4159"
         style="font-size:12px;fill-rule:evenodd;stroke-width:0.625;stroke-linejoin:round"
         d="M 8.7185878,4.0337352 -2.2072895,0.01601326 8.7185884,-4.0017078 c -1.7454984,2.3720609 -1.7354408,5.6174519 -6e-7,8.035443 z"
         transform="scale(-0.6,-0.6)" />
    </marker>
    <marker
       inkscape:stockid="Arrow2Mstart"
       orient="auto"
       refY="0"
       refX="0"
       id="Arrow2Mstart"
       style="overflow:visible">
      <path
         id="path4156"
         style="font-size:12px;fill-rule:evenodd;stroke-width:0.625;stroke-linejoin:round"
         d="M 8.7185878,4.0337352 -2.2072895,0.01601326 8.7185884,-4.0017078 c -1.7454984,2.3720609 -1.7354408,5.6174519 -6e-7,8.035443 z"
         transform="scale(0.6,0.6)" />
    </marker>
    <inkscape:perspective
       sodipodi:type="inkscape:persp3d"
       inkscape:vp_x="0 : 526.18109 : 1"
       inkscape:vp_y="0 : 1000 : 0"
       inkscape:vp_z="744.09448 : 526.18109 : 1"
       inkscape:persp3d-origin="372.04724 : 350.78739 : 1"
       id="perspective10" />
    <inkscape:perspective
       id="perspective2824"
       inkscape:persp3d-origin="0.5 : 0.33333333 : 1"
       inkscape:vp_z="1 : 0.5 : 1"
       inkscape:vp_y="0 : 1000 : 0"
       inkscape:vp_x="0 : 0.5 : 1"
       sodipodi:type="inkscape:persp3d" />
    <inkscape:perspective
       id="perspective7747"
       inkscape:persp3d-origin="0.5 : 0.33333333 : 1"
       inkscape:vp_z="1 : 0.5 : 1"
       inkscape:vp_y="0 : 1000 : 0"
       inkscape:vp_x="0 : 0.5 : 1"
       sodipodi:type="inkscape:persp3d" />
    <inkscape:perspective
       id="perspective8355"
       inkscape:persp3d-origin="0.5 : 0.33333333 : 1"
       inkscape:vp_z="1 : 0.5 : 1"
       inkscape:vp_y="0 : 1000 : 0"
       inkscape:vp_x="0 : 0.5 : 1"
       sodipodi:type="inkscape:persp3d" />
    <inkscape:perspective
       id="perspective3779"
       inkscape:persp3d-origin="0.5 : 0.33333333 : 1"
       inkscape:vp_z="1 : 0.5 : 1"
       inkscape:vp_y="0 : 1000 : 0"
       inkscape:vp_x="0 : 0.5 : 1"
       sodipodi:type="inkscape:persp3d" />
    <inkscape:perspective
       id="perspective3115"
       inkscape:persp3d-origin="0.5 : 0.33333333 : 1"
       inkscape:vp_z="1 : 0.5 : 1"
       inkscape:vp_y="0 : 1000 : 0"
       inkscape:vp_x="0 : 0.5 : 1"
       sodipodi:type="inkscape:persp3d" />
    <marker
       inkscape:stockid="Arrow2Mstart"
       orient="auto"
       refY="0"
       refX="0"
       id="Arrow2Mstart-1"
       style="overflow:visible">
      <path
         id="path4156-7"
         style="font-size:12px;fill-rule:evenodd;stroke-width:0.625;stroke-linejoin:round"
         d="M 8.7185878,4.0337352 -2.2072895,0.01601326 8.7185884,-4.0017078 c -1.7454984,2.3720609 -1.7354408,5.6174519 -6e-7,8.035443 z"
         transform="scale(0.6,0.6)" />
    </marker>
    <marker
       inkscape:stockid="Arrow2Mend"
       orient="auto"
       refY="0"
       refX="0"
       id="Arrow2Mend-4"
       style="overflow:visible">
      <path
         id="path4159-0"
         style="font-size:12px;fill-rule:evenodd;stroke-width:0.625;stroke-linejoin:round"
         d="M 8.7185878,4.0337352 -2.2072895,0.01601326 8.7185884,-4.0017078 c -1.7454984,2.3720609 -1.7354408,5.6174519 -6e-7,8.035443 z"
         transform="scale(-0.6,-0.6)" />
    </marker>
    <inkscape:perspective
       id="perspective3741"
       inkscape:persp3d-origin="0.5 : 0.33333333 : 1"
       inkscape:vp_z="1 : 0.5 : 1"
       inkscape:vp_y="0 : 1000 : 0"
       inkscape:vp_x="0 : 0.5 : 1"
       sodipodi:type="inkscape:persp3d" />
    <inkscape:perspective
       id="perspective3764"
       inkscape:persp3d-origin="0.5 : 0.33333333 : 1"
       inkscape:vp_z="1 : 0.5 : 1"
       inkscape:vp_y="0 : 1000 : 0"
       inkscape:vp_x="0 : 0.5 : 1"
       sodipodi:type="inkscape:persp3d" />
    <inkscape:perspective
       id="perspective3764-4"
       inkscape:persp3d-origin="0.5 : 0.33333333 : 1"
       inkscape:vp_z="1 : 0.5 : 1"
       inkscape:vp_y="0 : 1000 : 0"
       inkscape:vp_x="0 : 0.5 : 1"
       sodipodi:type="inkscape:persp3d" />
    <inkscape:perspective
       id="perspective3812"
       inkscape:persp3d-origin="0.5 : 0.33333333 : 1"
       inkscape:vp_z="1 : 0.5 : 1"
       inkscape:vp_y="0 : 1000 : 0"
       inkscape:vp_x="0 : 0.5 : 1"
       sodipodi:type="inkscape:persp3d" />
    <inkscape:perspective
       id="perspective3837"
       inkscape:persp3d-origin="0.5 : 0.33333333 : 1"
       inkscape:vp_z="1 : 0.5 : 1"
       inkscape:vp_y="0 : 1000 : 0"
       inkscape:vp_x="0 : 0.5 : 1"
       sodipodi:type="inkscape:persp3d" />
    <inkscape:perspective
       id="perspective5608"
       inkscape:persp3d-origin="0.5 : 0.33333333 : 1"
       inkscape:vp_z="1 : 0.5 : 1"
       inkscape:vp_y="0 : 1000 : 0"
       inkscape:vp_x="0 : 0.5 : 1"
       sodipodi:type="inkscape:persp3d" />
    <inkscape:perspective
       id="perspective5942"
       inkscape:persp3d-origin="0.5 : 0.33333333 : 1"
       inkscape:vp_z="1 : 0.5 : 1"
       inkscape:vp_y="0 : 1000 : 0"
       inkscape:vp_x="0 : 0.5 : 1"
       sodipodi:type="inkscape:persp3d" />
    <inkscape:perspective
       id="perspective6216"
       inkscape:persp3d-origin="0.5 : 0.33333333 : 1"
       inkscape:vp_z="1 : 0.5 : 1"
       inkscape:vp_y="0 : 1000 : 0"
       inkscape:vp_x="0 : 0.5 : 1"
       sodipodi:type="inkscape:persp3d" />
    <inkscape:perspective
       id="perspective6238"
       inkscape:persp3d-origin="0.5 : 0.33333333 : 1"
       inkscape:vp_z="1 : 0.5 : 1"
       inkscape:vp_y="0 : 1000 : 0"
       inkscape:vp_x="0 : 0.5 : 1"
       sodipodi:type="inkscape:persp3d" />
    <inkscape:perspective
       id="perspective8479"
       inkscape:persp3d-origin="0.5 : 0.33333333 : 1"
       inkscape:vp_z="1 : 0.5 : 1"
       inkscape:vp_y="0 : 1000 : 0"
       inkscape:vp_x="0 : 0.5 : 1"
       sodipodi:type="inkscape:persp3d" />
    <inkscape:perspective
       id="perspective8501"
       inkscape:persp3d-origin="0.5 : 0.33333333 : 1"
       inkscape:vp_z="1 : 0.5 : 1"
       inkscape:vp_y="0 : 1000 : 0"
       inkscape:vp_x="0 : 0.5 : 1"
       sodipodi:type="inkscape:persp3d" />
    <inkscape:perspective
       id="perspective8523"
       inkscape:persp3d-origin="0.5 : 0.33333333 : 1"
       inkscape:vp_z="1 : 0.5 : 1"
       inkscape:vp_y="0 : 1000 : 0"
       inkscape:vp_x="0 : 0.5 : 1"
       sodipodi:type="inkscape:persp3d" />
    <inkscape:perspective
       id="perspective8523-9"
       inkscape:persp3d-origin="0.5 : 0.33333333 : 1"
       inkscape:vp_z="1 : 0.5 : 1"
       inkscape:vp_y="0 : 1000 : 0"
       inkscape:vp_x="0 : 0.5 : 1"
       sodipodi:type="inkscape:persp3d" />
    <inkscape:perspective
       id="perspective3788"
       inkscape:persp3d-origin="0.5 : 0.33333333 : 1"
       inkscape:vp_z="1 : 0.5 : 1"
       inkscape:vp_y="0 : 1000 : 0"
       inkscape:vp_x="0 : 0.5 : 1"
       sodipodi:type="inkscape:persp3d" />
    <inkscape:perspective
       id="perspective3810"
       inkscape:persp3d-origin="0.5 : 0.33333333 : 1"
       inkscape:vp_z="1 : 0.5 : 1"
       inkscape:vp_y="0 : 1000 : 0"
       inkscape:vp_x="0 : 0.5 : 1"
       sodipodi:type="inkscape:persp3d" />
    <marker
       inkscape:stockid="Arrow2Mstart"
       orient="auto"
       refY="0"
       refX="0"
       id="Arrow2Mstart-1-7"
       style="overflow:visible">
      <path
         id="path4156-7-4"
         style="font-size:12px;fill-rule:evenodd;stroke-width:0.625;stroke-linejoin:round"
         d="M 8.7185878,4.0337352 -2.2072895,0.01601326 8.7185884,-4.0017078 c -1.7454984,2.3720609 -1.7354408,5.6174519 -6e-7,8.035443 z"
         transform="scale(0.6,0.6)" />
    </marker>
    <marker
       inkscape:stockid="Arrow2Mend"
       orient="auto"
       refY="0"
       refX="0"
       id="Arrow2Mend-4-0"
       style="overflow:visible">
      <path
         id="path4159-0-9"
         style="font-size:12px;fill-rule:evenodd;stroke-width:0.625;stroke-linejoin:round"
         d="M 8.7185878,4.0337352 -2.2072895,0.01601326 8.7185884,-4.0017078 c -1.7454984,2.3720609 -1.7354408,5.6174519 -6e-7,8.035443 z"
         transform="scale(-0.6,-0.6)" />
    </marker>
    <inkscape:perspective
       id="perspective3844"
       inkscape:persp3d-origin="0.5 : 0.33333333 : 1"
       inkscape:vp_z="1 : 0.5 : 1"
       inkscape:vp_y="0 : 1000 : 0"
       inkscape:vp_x="0 : 0.5 : 1"
       sodipodi:type="inkscape:persp3d" />
    <inkscape:perspective
       id="perspective3879"
       inkscape:persp3d-origin="0.5 : 0.33333333 : 1"
       inkscape:vp_z="1 : 0.5 : 1"
       inkscape:vp_y="0 : 1000 : 0"
       inkscape:vp_x="0 : 0.5 : 1"
       sodipodi:type="inkscape:persp3d" />
    <inkscape:perspective
       id="perspective3901"
       inkscape:persp3d-origin="0.5 : 0.33333333 : 1"
       inkscape:vp_z="1 : 0.5 : 1"
       inkscape:vp_y="0 : 1000 : 0"
       inkscape:vp_x="0 : 0.5 : 1"
       sodipodi:type="inkscape:persp3d" />
    <marker
       inkscape:stockid="Arrow2Mstart"
       orient="auto"
       refY="0"
       refX="0"
       id="Arrow2Mstart-1-2"
       style="overflow:visible">
      <path
         id="path4156-7-45"
         style="font-size:12px;fill-rule:evenodd;stroke-width:0.625;stroke-linejoin:round"
         d="M 8.7185878,4.0337352 -2.2072895,0.01601326 8.7185884,-4.0017078 c -1.7454984,2.3720609 -1.7354408,5.6174519 -6e-7,8.035443 z"
         transform="scale(0.6,0.6)" />
    </marker>
    <marker
       inkscape:stockid="Arrow2Mend"
       orient="auto"
       refY="0"
       refX="0"
       id="Arrow2Mend-4-5"
       style="overflow:visible">
      <path
         id="path4159-0-1"
         style="font-size:12px;fill-rule:evenodd;stroke-width:0.625;stroke-linejoin:round"
         d="M 8.7185878,4.0337352 -2.2072895,0.01601326 8.7185884,-4.0017078 c -1.7454984,2.3720609 -1.7354408,5.6174519 -6e-7,8.035443 z"
         transform="scale(-0.6,-0.6)" />
    </marker>
    <inkscape:perspective
       id="perspective4633"
       inkscape:persp3d-origin="0.5 : 0.33333333 : 1"
       inkscape:vp_z="1 : 0.5 : 1"
       inkscape:vp_y="0 : 1000 : 0"
       inkscape:vp_x="0 : 0.5 : 1"
       sodipodi:type="inkscape:persp3d" />
    <inkscape:perspective
       id="perspective4633-1"
       inkscape:persp3d-origin="0.5 : 0.33333333 : 1"
       inkscape:vp_z="1 : 0.5 : 1"
       inkscape:vp_y="0 : 1000 : 0"
       inkscape:vp_x="0 : 0.5 : 1"
       sodipodi:type="inkscape:persp3d" />
    <inkscape:perspective
       id="perspective5379"
       inkscape:persp3d-origin="0.5 : 0.33333333 : 1"
       inkscape:vp_z="1 : 0.5 : 1"
       inkscape:vp_y="0 : 1000 : 0"
       inkscape:vp_x="0 : 0.5 : 1"
       sodipodi:type="inkscape:persp3d" />
    <inkscape:perspective
       id="perspective5448"
       inkscape:persp3d-origin="0.5 : 0.33333333 : 1"
       inkscape:vp_z="1 : 0.5 : 1"
       inkscape:vp_y="0 : 1000 : 0"
       inkscape:vp_x="0 : 0.5 : 1"
       sodipodi:type="inkscape:persp3d" />
    <inkscape:perspective
       id="perspective5650"
       inkscape:persp3d-origin="0.5 : 0.33333333 : 1"
       inkscape:vp_z="1 : 0.5 : 1"
       inkscape:vp_y="0 : 1000 : 0"
       inkscape:vp_x="0 : 0.5 : 1"
       sodipodi:type="inkscape:persp3d" />
  </defs>
  <metadata
     id="metadata7">
    <rdf:RDF>
      <cc:Work
         rdf:about="">
        <dc:format>image/svg+xml</dc:format>
        <dc:type
           rdf:resource="http://purl.org/dc/dcmitype/StillImage" />
        <dc:title />
      </cc:Work>
    </rdf:RDF>
  </metadata>
  <g
     inkscape:label="Capa 1"
     inkscape:groupmode="layer"
     id="layer1"
     transform="translate(55.07749,-313.8698)">
    <g
       id="g5674">
      <g
         id="g3898">
        <path
           style="fill:none;stroke:#000000;stroke-width:2;stroke-linecap:butt;stroke-linejoin:miter;stroke-miterlimit:4;stroke-opacity:1;stroke-dasharray:none"
           d="m 26.402509,359.58579 0,91 338.000001,0 0,-91 -338.000001,0 z"
           id="path2848"
           sodipodi:nodetypes="ccccc" />
        <path
           style="fill:none;stroke:#000000;stroke-width:2;stroke-linecap:butt;stroke-linejoin:miter;stroke-miterlimit:4;stroke-opacity:1;stroke-dasharray:none"
           d="m 227.90251,359.58579 0,-25.99972 71.5,0"
           id="path3646"
           sodipodi:nodetypes="ccc" />
        <path
           style="fill:none;stroke:#000000;stroke-width:2;stroke-linecap:butt;stroke-linejoin:miter;stroke-miterlimit:4;stroke-opacity:1;stroke-dasharray:none"
           d="m 227.90251,450.58579 0,26.00028 71.5,0"
           id="path3648"
           sodipodi:nodetypes="ccc" />
        <path
           style="fill:none;stroke:#000000;stroke-width:0.78100002;stroke-linecap:butt;stroke-linejoin:miter;stroke-miterlimit:4;stroke-opacity:1;stroke-dasharray:none;marker-start:url(#Arrow2Mstart-1);marker-end:url(#Arrow2Mend-4)"
           d="m 363.19112,498.0596 -222.912,0"
           id="path3656"
           sodipodi:nodetypes="cc" />
        <path
           style="fill:none;stroke:#000000;stroke-width:5;stroke-linecap:butt;stroke-linejoin:miter;stroke-miterlimit:4;stroke-opacity:1;stroke-dasharray:none"
           d="m 139.06961,450.58606 0,-33.007"
           id="path2980"
           sodipodi:nodetypes="cc" />
        <path
           style="fill:none;stroke:#000000;stroke-width:0.31093594;stroke-linecap:butt;stroke-linejoin:miter;stroke-miterlimit:4;stroke-opacity:1;stroke-dasharray:none"
           d="m 111.54912,417.57906 27.52049,0"
           id="path8467-1"
           sodipodi:nodetypes="cc" />
        <path
           style="fill:none;stroke:#000000;stroke-width:0.78100002;stroke-linecap:butt;stroke-linejoin:miter;stroke-miterlimit:4;stroke-opacity:1;stroke-dasharray:none;marker-start:url(#Arrow2Mstart-1);marker-end:url(#Arrow2Mend-4)"
           d="m 111.55572,418.7636 0,29.79"
           id="path3652-4"
           sodipodi:nodetypes="cc" />
        <path
           style="fill:none;stroke:#000000;stroke-width:0.354;stroke-linecap:butt;stroke-linejoin:miter;stroke-miterlimit:4;stroke-opacity:1;stroke-dasharray:none"
           d="m 26.402509,450.58579 0,47.48281"
           id="path8467-7-4-8"
           sodipodi:nodetypes="cc" />
        <path
           style="fill:none;stroke:#000000;stroke-width:0.78100002;stroke-linecap:butt;stroke-linejoin:miter;stroke-miterlimit:4;stroke-opacity:1;stroke-dasharray:none;marker-start:url(#Arrow2Mstart-1);marker-end:url(#Arrow2Mend-4)"
           d="m 27.61112,498.0596 110.248,0"
           id="path3656-7"
           sodipodi:nodetypes="cc" />
        <path
           style="fill:none;stroke:#000000;stroke-width:0.354;stroke-linecap:butt;stroke-linejoin:miter;stroke-miterlimit:4;stroke-opacity:1;stroke-dasharray:none"
           d="m 139.06961,450.58606 0,47.47754"
           id="path8467-7-4-8-1"
           sodipodi:nodetypes="cc" />
        <path
           style="fill:none;stroke:#000000;stroke-width:0.354;stroke-linecap:butt;stroke-linejoin:miter;stroke-miterlimit:4;stroke-opacity:1;stroke-dasharray:none"
           d="m 364.40251,450.58579 0,47.46781"
           id="path8467-7-4-8-5"
           sodipodi:nodetypes="cc" />
        <g
           style="font-style:normal;font-variant:normal;font-weight:normal;font-stretch:normal;letter-spacing:normal;word-spacing:normal;text-anchor:start;fill:none;stroke:#000000;stroke-linecap:butt;stroke-linejoin:miter;stroke-miterlimit:10.43299961;stroke-opacity:1;stroke-dasharray:none;stroke-dashoffset:0"
           id="content"
           transform="matrix(1.15,0,0,-1.15,-161.70849,1249.4848)"
           xml:space="preserve"
           stroke-miterlimit="10.433"
           font-style="normal"
           font-variant="normal"
           font-weight="normal"
           font-stretch="normal"
           font-size-adjust="none"
           letter-spacing="normal"
           word-spacing="normal"
           ns0:text="$L_e$"
           ns0:preamble="">
<path
   style="fill:#000000;stroke-width:0"
   d="m 227.15,713.14 0.01,0.03 0.01,0.03 0.01,0.03 0.01,0.03 0,0.03 0.01,0.02 0.01,0.03 0.01,0.02 0.02,0.02 0.01,0.02 0.01,0.02 0.02,0.02 0.02,0.02 0.02,0.01 0.02,0.02 0.02,0.01 0.03,0.02 0.03,0.01 0.03,0.01 0.04,0.01 0.02,0 0.01,0.01 0.03,0 0.02,0.01 0.02,0 0.02,0 0.03,0.01 0.02,0 0.03,0 0.02,0 0.03,0.01 0.03,0 0.03,0 0.03,0 0.03,0.01 0.04,0 0.03,0 0.04,0 0.03,0 0.04,0 0.04,0 0.04,0 0.04,0 0.05,0 c 0.3,0 0.38,0 0.38,0.19 0,0.12 -0.11,0.12 -0.16,0.12 -0.33,0 -1.15,-0.03 -1.48,-0.03 -0.29,0 -1.02,0.03 -1.32,0.03 -0.07,0 -0.19,0 -0.19,-0.2 0,-0.11 0.09,-0.11 0.28,-0.11 0.02,0 0.21,0 0.38,-0.02 0.18,-0.02 0.27,-0.03 0.27,-0.16 0,-0.04 -0.01,-0.07 -0.04,-0.19 l -1.34,-5.33 c -0.09,-0.39 -0.11,-0.47 -0.9,-0.47 -0.17,0 -0.27,0 -0.27,-0.2 0,-0.1 0.09,-0.1 0.27,-0.1 h 4.61 c 0.23,0 0.24,0 0.3,0.16 l 0.79,2.15 c 0.04,0.11 0.04,0.13 0.04,0.14 0,0.04 -0.03,0.11 -0.12,0.11 -0.09,0 -0.1,-0.05 -0.17,-0.21 -0.34,-0.91 -0.78,-2.05 -2.5,-2.05 h -0.93 c -0.14,0 -0.16,0 -0.22,0.01 -0.1,0.01 -0.13,0.02 -0.13,0.1 0,0.03 0,0.05 0.05,0.23 z"
   id="path2955" />
<path
   style="fill:#000000;stroke-width:0"
   d="m 231.77,707.22 0.02,0 0.02,0 0.03,0 0.02,0 0.03,0 0.03,0 0.03,0 0.03,0 0.03,0 0.03,0 0.04,0.01 0.03,0 0.04,0 0.04,0 0.07,0.01 0.08,0.01 0.08,0.01 0.09,0.01 0.08,0.01 0.08,0.02 0.04,0.01 0.03,0.01 0.04,0.01 0.04,0.01 0.04,0.01 0.03,0.01 c 0.52,0.18 0.62,0.52 0.62,0.73 0,0.38 -0.39,0.61 -0.87,0.61 v -0.2 c 0.31,0 0.57,-0.15 0.57,-0.41 0,-0.68 -1.18,-0.68 -1.48,-0.68 h -0.34 c 0.29,1.01 1.06,1.09 1.25,1.09 v 0.2 c -0.83,0 -1.96,-0.64 -1.96,-1.83 0,-0.7 0.44,-1.31 1.25,-1.31 1.18,0 1.73,0.69 1.73,0.79 0,0.04 -0.06,0.12 -0.12,0.12 -0.04,0 -0.05,-0.02 -0.11,-0.07 -0.54,-0.64 -1.36,-0.64 -1.48,-0.64 -0.42,0 -0.7,0.27 -0.7,0.84 0,0.1 0,0.23 0.08,0.62 z"
   id="path2957" />
</g>        <g
           ns0:preamble=""
           ns0:text="$D_c$"
           word-spacing="normal"
           letter-spacing="normal"
           font-size-adjust="none"
           font-stretch="normal"
           font-weight="normal"
           font-variant="normal"
           font-style="normal"
           stroke-miterlimit="10.433"
           xml:space="preserve"
           transform="matrix(1.15,0,0,-1.15,-181.16688,1305.4028)"
           id="g3637"
           style="font-style:normal;font-variant:normal;font-weight:normal;font-stretch:normal;letter-spacing:normal;word-spacing:normal;text-anchor:start;fill:none;stroke:#000000;stroke-linecap:butt;stroke-linejoin:miter;stroke-miterlimit:10.43299961;stroke-opacity:1;stroke-dasharray:none;stroke-dashoffset:0">
<path
   id="path3639"
   d="m 225.01,707.9 -0.01,-0.04 0,-0.03 -0.01,-0.03 -0.01,-0.03 -0.01,-0.03 -0.01,-0.03 -0.01,-0.02 -0.01,-0.03 -0.01,-0.02 -0.01,-0.02 -0.01,-0.02 -0.02,-0.02 -0.01,-0.02 -0.02,-0.01 -0.02,-0.02 -0.02,-0.01 -0.02,-0.01 -0.03,-0.01 -0.03,-0.01 -0.03,-0.01 -0.03,-0.01 -0.02,0 -0.01,-0.01 -0.02,0 -0.02,0 -0.02,-0.01 -0.02,0 -0.02,0 -0.03,0 -0.02,-0.01 -0.02,0 -0.03,0 -0.03,0 -0.02,0 -0.03,0 -0.03,0 -0.03,0 -0.03,-0.01 -0.03,0 -0.04,0 -0.03,0 -0.03,0 -0.04,0 c -0.17,0 -0.28,0 -0.28,-0.19 0,-0.11 0.09,-0.11 0.28,-0.11 h 3.29 l -0.18,0.3 h -1.12 c -0.14,0 -0.16,0 -0.22,0.01 -0.1,0.01 -0.13,0.02 -0.13,0.1 0,0.03 0,0.05 0.05,0.23 l 1.36,5.45 c 0.09,0.35 0.11,0.38 0.54,0.38 h 1.06 c 0.98,0 1.81,-0.52 1.81,-1.84 0,-0.48 -0.2,-2.11 -1.05,-3.21 -0.29,-0.36 -1.07,-1.12 -2.3,-1.12 l 0.18,-0.3 c 2.07,0 4.03,2.09 4.03,4.27 0,1.4 -0.84,2.51 -2.34,2.51 h -3.34 c -0.19,0 -0.3,0 -0.3,-0.19 0,-0.12 0.09,-0.12 0.29,-0.12 0.13,0 0.31,-0.01 0.43,-0.02 0.16,-0.02 0.22,-0.05 0.22,-0.16 0,-0.04 -0.01,-0.07 -0.04,-0.19 z"
   style="fill:#000000;stroke-width:0" />
<path
   id="path3641"
   d="m 234.73,708.29 -0.02,0 -0.03,-0.01 -0.02,0 -0.02,-0.01 -0.02,-0.01 -0.02,0 -0.01,-0.01 -0.02,-0.01 -0.02,-0.01 -0.01,-0.01 -0.02,-0.01 -0.01,-0.02 -0.02,-0.01 -0.01,-0.01 -0.01,-0.01 -0.01,-0.02 -0.01,-0.01 -0.01,-0.02 -0.01,-0.01 -0.01,-0.02 -0.01,-0.01 0,-0.02 -0.01,-0.01 0,-0.02 -0.01,-0.01 0,-0.02 -0.01,-0.01 0,-0.02 0,-0.01 0,-0.02 0,-0.01 0,-0.01 c 0,-0.19 0.14,-0.26 0.27,-0.26 0.15,0 0.39,0.11 0.39,0.44 0,0.48 -0.54,0.61 -0.91,0.61 -1.05,0 -2.02,-0.96 -2.02,-1.93 0,-0.6 0.42,-1.21 1.29,-1.21 1.18,0 1.73,0.69 1.73,0.79 0,0.04 -0.06,0.12 -0.12,0.12 -0.04,0 -0.06,-0.02 -0.11,-0.07 -0.55,-0.64 -1.36,-0.64 -1.49,-0.64 -0.5,0 -0.72,0.34 -0.72,0.77 0,0.2 0.1,0.96 0.46,1.44 0.26,0.34 0.63,0.53 0.98,0.53 0.09,0 0.43,-0.01 0.6,-0.21 z"
   style="fill:#000000;stroke-width:0" />
</g>        <g
           style="font-style:normal;font-variant:normal;font-weight:normal;font-stretch:normal;letter-spacing:normal;word-spacing:normal;text-anchor:start;fill:none;stroke:#000000;stroke-linecap:butt;stroke-linejoin:miter;stroke-miterlimit:10.43299961;stroke-opacity:1;stroke-dasharray:none;stroke-dashoffset:0"
           id="g3793"
           transform="matrix(1.15,0,0,-1.15,-12.47163,1305.4028)"
           xml:space="preserve"
           stroke-miterlimit="10.433"
           font-style="normal"
           font-variant="normal"
           font-weight="normal"
           font-stretch="normal"
           font-size-adjust="none"
           letter-spacing="normal"
           word-spacing="normal"
           ns0:text="$D_a$"
           ns0:preamble="">
<path
   style="fill:#000000;stroke-width:0"
   d="m 225.01,707.9 -0.01,-0.04 0,-0.03 -0.01,-0.03 -0.01,-0.03 -0.01,-0.03 -0.01,-0.03 -0.01,-0.02 -0.01,-0.03 -0.01,-0.02 -0.01,-0.02 -0.01,-0.02 -0.02,-0.02 -0.01,-0.02 -0.02,-0.01 -0.02,-0.02 -0.02,-0.01 -0.02,-0.01 -0.03,-0.01 -0.03,-0.01 -0.03,-0.01 -0.03,-0.01 -0.02,0 -0.01,-0.01 -0.02,0 -0.02,0 -0.02,-0.01 -0.02,0 -0.02,0 -0.03,0 -0.02,-0.01 -0.02,0 -0.03,0 -0.03,0 -0.02,0 -0.03,0 -0.03,0 -0.03,0 -0.03,-0.01 -0.03,0 -0.04,0 -0.03,0 -0.03,0 -0.04,0 c -0.17,0 -0.28,0 -0.28,-0.19 0,-0.11 0.09,-0.11 0.28,-0.11 h 3.29 l -0.18,0.3 h -1.12 c -0.14,0 -0.16,0 -0.22,0.01 -0.1,0.01 -0.13,0.02 -0.13,0.1 0,0.03 0,0.05 0.05,0.23 l 1.36,5.45 c 0.09,0.35 0.11,0.38 0.54,0.38 h 1.06 c 0.98,0 1.81,-0.52 1.81,-1.84 0,-0.48 -0.2,-2.11 -1.05,-3.21 -0.29,-0.36 -1.07,-1.12 -2.3,-1.12 l 0.18,-0.3 c 2.07,0 4.03,2.09 4.03,4.27 0,1.4 -0.84,2.51 -2.34,2.51 h -3.34 c -0.19,0 -0.3,0 -0.3,-0.19 0,-0.12 0.09,-0.12 0.29,-0.12 0.13,0 0.31,-0.01 0.43,-0.02 0.16,-0.02 0.22,-0.05 0.22,-0.16 0,-0.04 -0.01,-0.07 -0.04,-0.19 z"
   id="path3795" />
<path
   style="fill:#000000;stroke-width:0"
   d="m 234.62,708.29 -0.01,0.02 -0.02,0.02 -0.01,0.02 -0.02,0.02 -0.02,0.02 -0.01,0.02 -0.02,0.02 -0.02,0.02 -0.02,0.02 -0.01,0.01 -0.02,0.02 -0.02,0.02 -0.02,0.01 -0.03,0.02 -0.02,0.01 -0.02,0.02 -0.02,0.01 -0.02,0.02 -0.03,0.01 -0.02,0.01 -0.03,0.01 -0.02,0.01 -0.03,0.01 -0.03,0.01 -0.02,0 -0.03,0.01 -0.03,0.01 -0.03,0 -0.03,0 -0.03,0.01 -0.03,0 -0.03,0 v -0.2 c 0.49,0 0.62,-0.53 0.62,-0.6 0,-0.03 -0.01,-0.08 -0.02,-0.1 l -0.33,-1.3 c -0.04,-0.2 -0.2,-0.33 -0.35,-0.47 -0.06,-0.05 -0.34,-0.27 -0.64,-0.27 -0.26,0 -0.51,0.18 -0.51,0.67 0,0.37 0.2,1.13 0.36,1.41 0.32,0.56 0.68,0.66 0.87,0.66 v 0.2 c -0.89,0 -1.8,-0.98 -1.8,-1.98 0,-0.68 0.46,-1.16 1.06,-1.16 0.37,0 0.71,0.22 0.99,0.49 0.13,-0.42 0.53,-0.49 0.71,-0.49 0.25,0 0.43,0.15 0.55,0.37 0.16,0.27 0.25,0.67 0.25,0.7 0,0.09 -0.09,0.09 -0.12,0.09 -0.09,0 -0.1,-0.03 -0.15,-0.22 -0.08,-0.33 -0.21,-0.74 -0.51,-0.74 -0.18,0 -0.23,0.15 -0.23,0.34 0,0.12 0.06,0.37 0.11,0.55 0.05,0.18 0.12,0.47 0.15,0.62 l 0.14,0.53 c 0.04,0.18 0.13,0.51 0.13,0.54 0,0.16 -0.13,0.23 -0.24,0.23 -0.12,0 -0.28,-0.09 -0.32,-0.28 z"
   id="path3797" />
</g>      </g>
      <g
         ns0:preamble=""
         ns0:text="CHOQUE"
         word-spacing="normal"
         letter-spacing="normal"
         font-size-adjust="none"
         font-stretch="normal"
         font-weight="normal"
         font-variant="normal"
         font-style="normal"
         stroke-miterlimit="10.433"
         xml:space="preserve"
         transform="matrix(1.2,0,0,-1.2,-31.27749,1170.8258)"
         id="g3693"
         style="font-style:normal;font-variant:normal;font-weight:normal;font-stretch:normal;letter-spacing:normal;word-spacing:normal;text-anchor:start;fill:none;stroke:#000000;stroke-linecap:butt;stroke-linejoin:miter;stroke-miterlimit:10.43299961;stroke-opacity:1;stroke-dasharray:none;stroke-dashoffset:0">
<path
   id="path3695"
   d="m 223.99,710.52 0,-0.19 0.02,-0.19 0.02,-0.18 0.03,-0.18 0.04,-0.18 0.05,-0.18 0.06,-0.16 0.06,-0.17 0.07,-0.16 0.08,-0.16 0.08,-0.15 0.1,-0.15 0.1,-0.14 0.1,-0.13 0.11,-0.13 0.12,-0.13 0.12,-0.12 0.12,-0.11 0.14,-0.1 0.13,-0.1 0.14,-0.09 0.15,-0.09 0.15,-0.08 0.15,-0.07 0.16,-0.06 0.16,-0.06 0.16,-0.04 0.16,-0.04 0.17,-0.03 0.17,-0.03 0.17,-0.01 0.17,0 c 1.62,0 2.6,1.38 2.6,2.53 0,0.1 0,0.17 -0.13,0.17 -0.11,0 -0.11,-0.06 -0.12,-0.16 -0.08,-1.42 -1.15,-2.24 -2.23,-2.24 -0.61,0 -2.56,0.34 -2.56,3.3 0,2.97 1.94,3.31 2.55,3.31 1.09,0 1.97,-0.9 2.17,-2.35 0.02,-0.14 0.02,-0.17 0.16,-0.17 0.16,0 0.16,0.03 0.16,0.24 v 2.35 c 0,0.17 0,0.24 -0.11,0.24 -0.04,0 -0.08,0 -0.16,-0.12 l -0.5,-0.74 c -0.37,0.36 -0.87,0.86 -1.83,0.86 -1.86,0 -3.46,-1.58 -3.46,-3.61 z"
   style="fill:#000000;stroke-width:0" />
<path
   id="path3697"
   d="m 236.73,713.14 0,0.03 0,0.03 0,0.03 0,0.03 0,0.03 0,0.02 0.01,0.03 0,0.02 0.01,0.02 0,0.02 0.01,0.02 0.01,0.02 0.01,0.02 0.02,0.01 0.01,0.02 0.02,0.01 0.02,0.02 0.02,0.01 0.02,0 0.01,0.01 0.01,0 0.02,0.01 0.01,0 0.02,0.01 0.01,0 0.02,0.01 0.02,0 0.02,0 0.02,0.01 0.02,0 0.02,0 0.02,0 0.02,0.01 0.03,0 0.02,0 0.02,0 0.03,0.01 0.03,0 0.03,0 0.03,0 0.03,0 0.03,0 0.03,0 0.03,0 0.04,0 0.03,0 h 0.24 v 0.31 c -0.35,-0.03 -1.08,-0.03 -1.46,-0.03 -0.38,0 -1.13,0 -1.47,0.03 v -0.31 h 0.23 c 0.77,0 0.79,-0.11 0.79,-0.46 v -2.33 h -2.97 v 2.33 c 0,0.35 0.01,0.46 0.78,0.46 h 0.24 v 0.31 c -0.35,-0.03 -1.08,-0.03 -1.46,-0.03 -0.38,0 -1.13,0 -1.47,0.03 v -0.31 h 0.23 c 0.77,0 0.79,-0.11 0.79,-0.46 v -5.24 c 0,-0.36 -0.02,-0.47 -0.79,-0.47 h -0.23 v -0.3 c 0.34,0.03 1.08,0.03 1.46,0.03 0.38,0 1.12,0 1.47,-0.03 v 0.3 h -0.24 c -0.77,0 -0.78,0.11 -0.78,0.47 v 2.6 h 2.97 v -2.6 c 0,-0.36 -0.02,-0.47 -0.79,-0.47 h -0.23 v -0.3 c 0.34,0.03 1.08,0.03 1.46,0.03 0.38,0 1.12,0 1.47,-0.03 v 0.3 h -0.24 c -0.76,0 -0.78,0.11 -0.78,0.47 z"
   style="fill:#000000;stroke-width:0" />
<path
   id="path3699"
   d="m 245.27,710.49 0,0.19 -0.02,0.19 -0.02,0.18 -0.03,0.18 -0.03,0.18 -0.05,0.17 -0.05,0.17 -0.06,0.17 -0.07,0.16 -0.07,0.15 -0.08,0.16 -0.09,0.14 -0.09,0.15 -0.1,0.13 -0.11,0.13 -0.11,0.13 -0.11,0.12 -0.12,0.11 -0.13,0.11 -0.13,0.1 -0.13,0.1 -0.14,0.08 -0.14,0.08 -0.15,0.07 -0.15,0.07 -0.15,0.06 -0.16,0.04 -0.16,0.04 -0.16,0.04 -0.17,0.02 -0.16,0.01 -0.17,0.01 v -0.25 c 0.86,0 2.29,-0.71 2.29,-3.25 0,-2.63 -1.37,-3.47 -2.28,-3.47 h 0 c -0.96,0 -2.29,0.88 -2.29,3.47 0,2.58 1.45,3.25 2.28,3.25 v 0.25 c -1.78,0 -3.3,-1.59 -3.3,-3.64 0,-2.03 1.53,-3.58 3.3,-3.58 1.81,0 3.31,1.58 3.31,3.58 z"
   style="fill:#000000;stroke-width:0" />
<path
   id="path3701"
   d="m 251,707.19 0.11,0.06 0.11,0.05 0.1,0.06 0.1,0.07 0.11,0.06 0.09,0.08 0.1,0.07 0.09,0.08 0.09,0.08 0.09,0.09 0.08,0.09 0.09,0.09 0.07,0.1 0.08,0.1 0.07,0.1 0.07,0.11 0.07,0.11 0.06,0.11 0.06,0.11 0.05,0.12 0.05,0.12 0.05,0.12 0.04,0.12 0.04,0.13 0.03,0.13 0.04,0.13 0.02,0.13 0.02,0.13 0.02,0.14 0.01,0.13 0.01,0.14 0,0.14 c 0,2.03 -1.5,3.64 -3.31,3.64 v -0.25 c 0.96,0 2.32,-0.85 2.32,-3.39 0,-0.77 -0.12,-2.17 -1.18,-2.95 -0.22,0.56 -0.53,1.05 -1.12,1.05 v -0.21 c 0.53,0 0.75,-0.42 0.86,-1 h 0 c -0.33,-0.19 -0.65,-0.22 -0.87,-0.22 -0.51,0 -0.59,0.45 -0.59,0.6 0,0.29 0.21,0.62 0.6,0.62 v 0.21 c -0.51,0 -0.82,-0.42 -0.82,-0.83 0,-0.27 0.13,-0.46 0.14,-0.48 h 0 c -0.54,0.2 -1.65,0.93 -1.65,3.21 0,2.59 1.39,3.39 2.31,3.39 v 0.25 c -1.78,0 -3.31,-1.59 -3.31,-3.64 0,-2 1.51,-3.58 3.32,-3.58 0.31,0 0.66,0.06 0.94,0.14 0.15,-0.94 0.29,-1.85 1.22,-1.85 1.01,0 1.2,1.32 1.2,1.83 0,0.1 0,0.2 -0.11,0.2 -0.09,0 -0.1,-0.07 -0.11,-0.18 -0.06,-0.53 -0.48,-0.83 -0.9,-0.83 -0.47,0 -0.72,0.34 -0.96,0.97 z"
   style="fill:#000000;stroke-width:0" />
<path
   id="path3703"
   d="m 259.39,709.42 -0.01,-0.13 0,-0.13 -0.02,-0.12 -0.02,-0.12 -0.02,-0.12 -0.03,-0.11 -0.03,-0.11 -0.04,-0.1 -0.04,-0.1 -0.05,-0.1 -0.05,-0.09 -0.05,-0.09 -0.05,-0.08 -0.06,-0.08 -0.07,-0.08 -0.06,-0.07 -0.07,-0.07 -0.07,-0.06 -0.08,-0.06 -0.07,-0.06 -0.08,-0.05 -0.08,-0.05 -0.08,-0.04 -0.09,-0.04 -0.08,-0.03 -0.09,-0.03 -0.08,-0.03 -0.09,-0.02 -0.09,-0.02 -0.09,-0.01 -0.08,0 -0.09,-0.01 c -0.47,0 -1.64,0.25 -1.64,2.14 v 3.79 c 0,0.35 0.01,0.46 0.78,0.46 h 0.24 v 0.31 c -0.35,-0.03 -1.08,-0.03 -1.46,-0.03 -0.38,0 -1.13,0 -1.47,0.03 v -0.31 h 0.23 c 0.77,0 0.79,-0.11 0.79,-0.46 v -3.75 c 0,-1.4 1.15,-2.48 2.51,-2.48 1.14,0 2.04,0.92 2.21,2.05 0.03,0.2 0.03,0.29 0.03,0.69 v 3.18 c 0,0.33 0,0.77 1.02,0.77 v 0.31 c -0.36,-0.01 -0.83,-0.03 -1.17,-0.03 -0.35,0 -0.83,0.02 -1.19,0.03 v -0.31 c 1.03,0 1.03,-0.46 1.03,-0.73 z"
   style="fill:#000000;stroke-width:0" />
<path
   id="path3705"
   d="m 262.42,707.9 0,-0.03 0,-0.03 0,-0.03 0,-0.03 0,-0.03 0,-0.03 -0.01,-0.02 0,-0.02 -0.01,-0.03 -0.01,-0.02 0,-0.02 -0.01,-0.02 -0.02,-0.01 -0.01,-0.02 -0.02,-0.01 -0.01,-0.02 -0.02,-0.01 -0.03,-0.01 -0.01,-0.01 -0.01,0 -0.01,-0.01 -0.02,0 -0.01,-0.01 -0.02,0 -0.02,-0.01 -0.01,0 -0.02,0 -0.02,-0.01 -0.02,0 -0.02,0 -0.02,-0.01 -0.02,0 -0.02,0 -0.03,0 -0.02,-0.01 -0.03,0 -0.02,0 -0.03,0 -0.03,0 -0.03,0 -0.03,0 -0.03,-0.01 -0.03,0 -0.03,0 -0.04,0 -0.03,0 h -0.24 v -0.3 h 5.74 l 0.42,2.56 h -0.25 c -0.25,-1.53 -0.48,-2.26 -2.19,-2.26 h -1.32 c -0.47,0 -0.49,0.07 -0.49,0.4 v 2.65 h 0.89 c 0.97,0 1.08,-0.32 1.08,-1.16 h 0.25 v 2.63 h -0.25 c 0,-0.85 -0.11,-1.16 -1.08,-1.16 h -0.89 v 2.38 c 0,0.33 0.02,0.4 0.49,0.4 h 1.28 c 1.52,0 1.79,-0.54 1.95,-1.92 h 0.25 l -0.28,2.23 h -5.6 v -0.31 h 0.24 c 0.76,0 0.78,-0.11 0.78,-0.47 z"
   style="fill:#000000;stroke-width:0" />
</g>      <g
         ns0:preamble=""
         ns0:text="\\centering\nABERTURA\\\\\nDE LA GU\\\'IA\\\\\nDE ONDA"
         word-spacing="normal"
         letter-spacing="normal"
         font-size-adjust="none"
         font-stretch="normal"
         font-weight="normal"
         font-variant="normal"
         font-style="normal"
         stroke-miterlimit="10.433"
         xml:space="preserve"
         transform="matrix(1.2,0,0,-1.2,-64.705491,1243.4298)"
         id="g4595"
         style="font-style:normal;font-variant:normal;font-weight:normal;font-stretch:normal;letter-spacing:normal;word-spacing:normal;text-anchor:start;fill:none;stroke:#000000;stroke-linecap:butt;stroke-linejoin:miter;stroke-miterlimit:10.43299961;stroke-opacity:1;stroke-dasharray:none;stroke-dashoffset:0">
<path
   id="path4597"
   d="m 370.61,714.04 -0.01,0.01 0,0.01 -0.01,0.01 0,0.01 -0.01,0.02 0,0.01 -0.01,0.01 0,0 0,0.01 -0.01,0.01 0,0.01 -0.01,0.01 0,0.01 -0.01,0 0,0.01 -0.01,0.01 0,0 -0.01,0.01 -0.01,0 0,0.01 -0.01,0 -0.01,0.01 -0.01,0 -0.01,0.01 -0.01,0 -0.01,0 -0.01,0 -0.01,0 -0.01,0.01 -0.02,0 -0.01,0 -0.01,0 0,0 c -0.16,0 -0.19,-0.06 -0.24,-0.2 l -2.06,-5.94 c -0.18,-0.51 -0.58,-0.66 -1.12,-0.67 v -0.3 c 0.23,0.01 0.66,0.03 1.02,0.03 0.31,0 0.82,-0.02 1.14,-0.03 v 0.3 c -0.49,0 -0.74,0.25 -0.74,0.51 0,0.03 0.01,0.13 0.02,0.15 l 0.45,1.3 0.11,0.31 1.12,3.23 1.12,-3.23 h -2.24 l -0.11,-0.31 h 2.46 l 0.53,-1.52 c 0.01,-0.04 0.03,-0.1 0.03,-0.14 0,-0.3 -0.56,-0.3 -0.83,-0.3 v -0.3 c 0.36,0.03 1.06,0.03 1.44,0.03 0.42,0 0.88,-0.01 1.3,-0.03 v 0.3 h -0.18 c -0.6,0 -0.74,0.07 -0.85,0.4 z"
   style="fill:#000000;stroke-width:0" />
<path
   id="path4599"
   d="m 378.67,710.67 0.09,0.02 0.09,0.02 0.09,0.03 0.08,0.02 0.08,0.03 0.08,0.03 0.08,0.04 0.08,0.03 0.07,0.04 0.07,0.04 0.07,0.04 0.07,0.04 0.06,0.05 0.07,0.05 0.06,0.05 0.05,0.05 0.05,0.05 0.06,0.05 0.04,0.06 0.05,0.05 0.04,0.06 0.04,0.06 0.03,0.06 0.03,0.06 0.03,0.07 0.03,0.06 0.02,0.07 0.01,0.06 0.02,0.07 0.01,0.06 0,0.07 0.01,0.07 c 0,0.86 -0.92,1.68 -2.21,1.68 l -0.07,-0.31 c 0.96,0 1.31,-0.84 1.31,-1.37 0,-0.64 -0.49,-1.47 -1.59,-1.47 h -1.44 v -0.22 h 1.87 c 0.98,0 1.4,-0.92 1.4,-1.59 0,-0.7 -0.52,-1.52 -1.54,-1.52 h 0 -1.25 c -0.46,0 -0.48,0.07 -0.48,0.4 v 2.71 0.22 2.45 c 0,0.32 0.02,0.39 0.48,0.39 h 1.24 l 0.07,0.31 h -3.64 v -0.31 h 0.23 c 0.77,0 0.79,-0.11 0.79,-0.46 v -5.24 c 0,-0.36 -0.02,-0.47 -0.79,-0.47 h -0.23 v -0.3 h 3.9 c 1.32,0 2.21,0.88 2.21,1.81 0,0.87 -0.81,1.61 -1.92,1.73 z"
   style="fill:#000000;stroke-width:0" />
<path
   id="path4601"
   d="m 382.53,707.9 0,-0.03 0,-0.03 -0.01,-0.03 0,-0.03 0,-0.03 0,-0.03 0,-0.02 -0.01,-0.02 0,-0.03 -0.01,-0.02 -0.01,-0.02 -0.01,-0.02 -0.01,-0.01 -0.02,-0.02 -0.01,-0.01 -0.02,-0.02 -0.02,-0.01 -0.02,-0.01 -0.01,-0.01 -0.02,0 -0.01,-0.01 -0.01,0 -0.02,-0.01 -0.01,0 -0.02,-0.01 -0.02,0 -0.02,0 -0.01,-0.01 -0.02,0 -0.02,0 -0.02,-0.01 -0.03,0 -0.02,0 -0.02,0 -0.03,-0.01 -0.02,0 -0.03,0 -0.03,0 -0.02,0 -0.03,0 -0.03,0 -0.03,-0.01 -0.04,0 -0.03,0 -0.03,0 -0.04,0 h -0.24 v -0.3 h 5.74 l 0.42,2.56 h -0.25 c -0.25,-1.53 -0.48,-2.26 -2.19,-2.26 h -1.32 c -0.47,0 -0.49,0.07 -0.49,0.4 v 2.65 h 0.9 c 0.96,0 1.07,-0.32 1.07,-1.16 h 0.25 v 2.63 h -0.25 c 0,-0.85 -0.11,-1.16 -1.07,-1.16 h -0.9 v 2.38 c 0,0.33 0.02,0.4 0.49,0.4 h 1.28 c 1.52,0 1.79,-0.54 1.95,-1.92 h 0.25 l -0.28,2.23 h -5.6 v -0.31 h 0.24 c 0.77,0 0.79,-0.11 0.79,-0.47 z"
   style="fill:#000000;stroke-width:0" />
<path
   id="path4603"
   d="m 392.28,710.5 0.09,0.03 0.09,0.02 0.09,0.03 0.08,0.03 0.09,0.03 0.08,0.03 0.08,0.04 0.08,0.04 0.08,0.04 0.07,0.04 0.08,0.04 0.07,0.05 0.07,0.04 0.06,0.05 0.06,0.05 0.06,0.05 0.06,0.05 0.06,0.06 0.05,0.05 0.05,0.06 0.04,0.06 0.04,0.06 0.04,0.06 0.04,0.07 0.03,0.06 0.03,0.07 0.02,0.06 0.02,0.07 0.01,0.07 0.01,0.07 0.01,0.07 0,0.07 c 0,0.96 -1.13,1.79 -2.59,1.79 h -3.13 v -0.31 h 0.24 c 0.77,0 0.79,-0.11 0.79,-0.46 v -5.24 c 0,-0.36 -0.02,-0.47 -0.79,-0.47 h -0.24 v -0.3 c 0.36,0.03 1.07,0.03 1.46,0.03 0.38,0 1.09,0 1.45,-0.03 v 0.3 h -0.24 c -0.77,0 -0.79,0.11 -0.79,0.47 v 2.51 0.22 2.58 c 0,0.22 0,0.34 0.22,0.37 0.1,0.02 0.39,0.02 0.59,0.02 0.89,0 2.01,-0.04 2.01,-1.48 0,-0.68 -0.24,-1.49 -1.71,-1.49 h -1.11 v -0.22 h 1.15 c 0.16,0 0.57,0 0.92,-0.33 0.38,-0.36 0.38,-0.67 0.38,-1.34 0,-0.64 0,-1.04 0.41,-1.42 0.41,-0.35 0.95,-0.41 1.25,-0.41 0.78,0 0.95,0.81 0.95,1.09 0,0.06 0,0.17 -0.13,0.17 -0.11,0 -0.11,-0.09 -0.12,-0.16 -0.06,-0.71 -0.41,-0.88 -0.66,-0.88 -0.49,0 -0.57,0.5 -0.7,1.42 l -0.13,0.8 c -0.18,0.64 -0.67,0.96 -1.22,1.15 z"
   style="fill:#000000;stroke-width:0" />
<path
   id="path4605"
   d="m 401.09,713.85 h -6.08 l -0.19,-2.24 h 0.25 c 0.14,1.6 0.29,1.93 1.79,1.93 0.18,0 0.44,0 0.53,-0.02 0.21,-0.04 0.21,-0.15 0.21,-0.37 v -5.24 c 0,-0.34 0,-0.48 -1.04,-0.48 h -0.4 v -0.3 c 0.41,0.03 1.42,0.03 1.88,0.03 0.46,0 1.48,0 1.89,-0.03 v 0.3 h -0.39 c -1.05,0 -1.05,0.14 -1.05,0.48 v 5.24 c 0,0.19 0,0.33 0.18,0.37 0.11,0.02 0.38,0.02 0.57,0.02 1.5,0 1.65,-0.33 1.79,-1.93 h 0.25 z"
   style="fill:#000000;stroke-width:0" />
<path
   id="path4607"
   d="m 407.45,709.42 -0.01,-0.13 -0.01,-0.13 -0.01,-0.12 -0.02,-0.12 -0.02,-0.12 -0.03,-0.11 -0.03,-0.11 -0.04,-0.1 -0.04,-0.1 -0.05,-0.1 -0.05,-0.09 -0.05,-0.09 -0.06,-0.08 -0.06,-0.08 -0.06,-0.08 -0.06,-0.07 -0.07,-0.07 -0.07,-0.06 -0.08,-0.06 -0.07,-0.06 -0.08,-0.05 -0.08,-0.05 -0.08,-0.04 -0.09,-0.04 -0.08,-0.03 -0.09,-0.03 -0.08,-0.03 -0.09,-0.02 -0.09,-0.02 -0.09,-0.01 -0.09,0 -0.08,-0.01 c -0.47,0 -1.65,0.25 -1.65,2.14 v 3.79 c 0,0.35 0.02,0.46 0.79,0.46 h 0.24 v 0.31 c -0.35,-0.03 -1.09,-0.03 -1.46,-0.03 -0.38,0 -1.13,0 -1.48,0.03 v -0.31 h 0.24 c 0.77,0 0.79,-0.11 0.79,-0.46 v -3.75 c 0,-1.4 1.15,-2.48 2.51,-2.48 1.14,0 2.03,0.92 2.2,2.05 0.03,0.2 0.03,0.29 0.03,0.69 v 3.18 c 0,0.33 0,0.77 1.03,0.77 v 0.31 c -0.36,-0.01 -0.84,-0.03 -1.17,-0.03 -0.35,0 -0.83,0.02 -1.19,0.03 v -0.31 c 1.03,0 1.03,-0.46 1.03,-0.73 z"
   style="fill:#000000;stroke-width:0" />
<path
   id="path4609"
   d="m 413.45,710.5 0.09,0.03 0.09,0.02 0.09,0.03 0.09,0.03 0.08,0.03 0.08,0.03 0.09,0.04 0.07,0.04 0.08,0.04 0.08,0.04 0.07,0.04 0.07,0.05 0.07,0.04 0.06,0.05 0.07,0.05 0.06,0.05 0.05,0.05 0.06,0.06 0.05,0.05 0.05,0.06 0.04,0.06 0.05,0.06 0.03,0.06 0.04,0.07 0.03,0.06 0.03,0.07 0.02,0.06 0.02,0.07 0.02,0.07 0.01,0.07 0,0.07 0.01,0.07 c 0,0.96 -1.14,1.79 -2.6,1.79 h -3.12 v -0.31 h 0.23 c 0.77,0 0.79,-0.11 0.79,-0.46 v -5.24 c 0,-0.36 -0.02,-0.47 -0.79,-0.47 h -0.23 v -0.3 c 0.35,0.03 1.06,0.03 1.45,0.03 0.39,0 1.09,0 1.45,-0.03 v 0.3 h -0.24 c -0.76,0 -0.78,0.11 -0.78,0.47 v 2.51 0.22 2.58 c 0,0.22 0,0.34 0.22,0.37 0.09,0.02 0.38,0.02 0.58,0.02 0.9,0 2.01,-0.04 2.01,-1.48 0,-0.68 -0.24,-1.49 -1.71,-1.49 h -1.1 v -0.22 h 1.14 c 0.16,0 0.58,0 0.92,-0.33 0.38,-0.36 0.38,-0.67 0.38,-1.34 0,-0.64 0,-1.04 0.41,-1.42 0.41,-0.35 0.96,-0.41 1.25,-0.41 0.78,0 0.95,0.81 0.95,1.09 0,0.06 0,0.17 -0.13,0.17 -0.11,0 -0.11,-0.09 -0.12,-0.16 -0.06,-0.71 -0.41,-0.88 -0.65,-0.88 -0.49,0 -0.57,0.5 -0.71,1.42 l -0.13,0.8 c -0.18,0.64 -0.67,0.96 -1.22,1.15 z"
   style="fill:#000000;stroke-width:0" />
<path
   id="path4611"
   d="m 420.42,714.04 0,0.01 -0.01,0.01 0,0.01 -0.01,0.01 0,0.02 -0.01,0.01 0,0.01 0,0 -0.01,0.01 0,0.01 -0.01,0.01 0,0.01 -0.01,0.01 0,0 -0.01,0.01 0,0.01 -0.01,0 0,0.01 -0.01,0 -0.01,0.01 -0.01,0 0,0.01 -0.01,0 -0.01,0.01 -0.01,0 -0.01,0 -0.01,0 -0.01,0 -0.02,0.01 -0.01,0 -0.01,0 -0.01,0 -0.01,0 c -0.16,0 -0.19,-0.06 -0.24,-0.2 l -2.06,-5.94 c -0.18,-0.51 -0.57,-0.66 -1.11,-0.67 v -0.3 c 0.23,0.01 0.66,0.03 1.01,0.03 0.31,0 0.83,-0.02 1.15,-0.03 v 0.3 c -0.5,0 -0.75,0.25 -0.75,0.51 0,0.03 0.01,0.13 0.02,0.15 l 0.46,1.3 0.11,0.31 1.11,3.23 1.13,-3.23 h -2.24 l -0.11,-0.31 h 2.46 l 0.52,-1.52 c 0.01,-0.04 0.03,-0.1 0.03,-0.14 0,-0.3 -0.55,-0.3 -0.82,-0.3 v -0.3 c 0.36,0.03 1.05,0.03 1.43,0.03 0.43,0 0.89,-0.01 1.3,-0.03 v 0.3 h -0.17 c -0.6,0 -0.74,0.07 -0.85,0.4 z"
   style="fill:#000000;stroke-width:0" />
<path
   id="path4613"
   d="m 365.09,701.96 v -0.31 h 0.24 c 0.77,0 0.78,-0.11 0.78,-0.47 v -5.23 c 0,-0.36 -0.01,-0.47 -0.78,-0.47 h -0.24 v -0.31 h 3.64 l -0.27,0.31 h -1 c -0.47,0 -0.49,0.07 -0.49,0.4 v 5.37 c 0,0.33 0.02,0.4 0.49,0.4 h 0.99 c 0.62,0 1.31,-0.22 1.81,-0.93 0.43,-0.58 0.52,-1.44 0.52,-2.21 0,-1.1 -0.19,-1.7 -0.55,-2.19 -0.19,-0.27 -0.76,-0.84 -1.77,-0.84 l 0.27,-0.31 c 1.67,0 3.05,1.47 3.05,3.34 0,1.89 -1.35,3.45 -3.05,3.45 z"
   style="fill:#000000;stroke-width:0" />
<path
   id="path4615"
   d="m 373.7,695.95 0,-0.04 0,-0.03 0,-0.03 0,-0.03 0,-0.03 0,-0.02 -0.01,-0.03 0,-0.02 -0.01,-0.02 0,-0.02 -0.01,-0.02 -0.01,-0.02 -0.01,-0.02 -0.02,-0.01 -0.01,-0.02 -0.02,-0.01 -0.02,-0.02 -0.02,-0.01 -0.01,0 -0.02,-0.01 -0.01,0 -0.02,-0.01 -0.01,0 -0.02,-0.01 -0.01,0 -0.02,-0.01 -0.02,0 -0.02,0 -0.01,-0.01 -0.02,0 -0.03,0 -0.02,0 -0.02,-0.01 -0.02,0 -0.03,0 -0.02,0 -0.03,-0.01 -0.03,0 -0.03,0 -0.02,0 -0.03,0 -0.04,0 -0.03,0 -0.03,0 -0.04,0 -0.03,0 h -0.24 v -0.31 h 5.74 l 0.42,2.56 h -0.25 c -0.25,-1.53 -0.48,-2.25 -2.19,-2.25 h -1.32 c -0.47,0 -0.49,0.07 -0.49,0.4 v 2.65 h 0.9 c 0.96,0 1.07,-0.32 1.07,-1.17 h 0.25 V 700 h -0.25 c 0,-0.86 -0.11,-1.16 -1.07,-1.16 h -0.9 v 2.38 c 0,0.33 0.02,0.4 0.49,0.4 h 1.28 c 1.52,0 1.79,-0.55 1.95,-1.93 h 0.25 l -0.28,2.23 h -5.6 v -0.3 h 0.24 c 0.77,0 0.78,-0.11 0.78,-0.47 z"
   style="fill:#000000;stroke-width:0" />
<path
   id="path4617"
   d="m 388.24,697.73 h -0.25 c -0.11,-1.01 -0.25,-2.25 -2,-2.25 h -0.81 c -0.47,0 -0.49,0.07 -0.49,0.4 v 5.29 c 0,0.34 0,0.48 0.94,0.48 h 0.33 v 0.31 c -0.36,-0.04 -1.26,-0.04 -1.67,-0.04 -0.39,0 -1.16,0 -1.51,0.04 v -0.31 h 0.24 c 0.76,0 0.78,-0.11 0.78,-0.47 v -5.23 c 0,-0.36 -0.02,-0.47 -0.78,-0.47 h -0.24 v -0.31 h 5.18 z"
   style="fill:#000000;stroke-width:0" />
<path
   id="path4619"
   d="m 392.64,702.08 -0.01,0.02 0,0.01 -0.01,0.01 0,0.01 0,0.01 -0.01,0.01 0,0.01 -0.01,0.01 0,0.01 -0.01,0.01 0,0.01 -0.01,0 0,0.01 -0.01,0.01 0,0.01 -0.01,0 0,0.01 -0.01,0 -0.01,0.01 0,0 -0.01,0.01 -0.01,0 -0.01,0.01 -0.01,0 -0.01,0 -0.01,0.01 -0.01,0 -0.01,0 -0.01,0 -0.01,0 -0.02,0 0,0 -0.01,0 c -0.16,0 -0.19,-0.06 -0.24,-0.2 l -2.06,-5.94 c -0.18,-0.5 -0.58,-0.65 -1.12,-0.66 v -0.31 c 0.23,0.01 0.66,0.03 1.02,0.03 0.31,0 0.83,-0.02 1.14,-0.03 v 0.31 c -0.49,0 -0.74,0.25 -0.74,0.5 0,0.03 0.01,0.13 0.02,0.15 l 0.46,1.3 h 2.45 l -0.11,0.31 h -2.24 l 1.12,3.23 1.12,-3.23 0.11,-0.31 0.53,-1.52 c 0.01,-0.03 0.03,-0.09 0.03,-0.13 0,-0.3 -0.56,-0.3 -0.82,-0.3 v -0.31 c 0.35,0.03 1.05,0.03 1.43,0.03 0.42,0 0.88,-0.01 1.3,-0.03 v 0.31 h -0.18 c -0.59,0 -0.74,0.07 -0.84,0.4 z"
   style="fill:#000000;stroke-width:0" />
<path
   id="path4621"
   d="m 405.38,695.8 0.01,-0.03 0.01,-0.02 0.02,-0.02 0.02,-0.02 0.01,-0.03 0.02,-0.02 0.02,-0.03 0.03,-0.02 0.02,-0.03 0.02,-0.02 0.05,-0.06 0.04,-0.05 0.05,-0.04 0.03,-0.03 0.02,-0.02 0.02,-0.02 0.03,-0.02 0.02,-0.02 0.02,-0.02 0.02,-0.02 0.03,-0.01 0.02,-0.02 0.01,-0.01 0.02,-0.01 0.02,-0.01 0.02,-0.01 0.01,-0.01 0.01,0 0,0 0.01,0 0,0 c 0.09,0 0.09,0.08 0.09,0.23 v 1.73 c 0,0.38 0.04,0.43 0.69,0.43 v 0.31 c -0.37,-0.01 -0.92,-0.03 -1.21,-0.03 -0.4,0 -1.25,0 -1.61,0.03 v -0.31 h 0.32 c 0.9,0 0.93,-0.1 0.93,-0.47 v -0.64 c 0,-1.11 -1.27,-1.2 -1.55,-1.2 -0.64,0 -2.61,0.35 -2.61,3.31 0,2.97 1.96,3.29 2.55,3.29 1.07,0 1.97,-0.89 2.17,-2.35 0.02,-0.14 0.02,-0.17 0.16,-0.17 0.16,0 0.16,0.03 0.16,0.24 v 2.35 c 0,0.17 0,0.24 -0.11,0.24 -0.04,0 -0.08,0 -0.16,-0.12 l -0.49,-0.73 c -0.32,0.32 -0.86,0.85 -1.84,0.85 -1.86,0 -3.47,-1.57 -3.47,-3.6 0,-2.04 1.6,-3.62 3.49,-3.62 0.72,0 1.52,0.26 1.86,0.85 z"
   style="fill:#000000;stroke-width:0" />
<path
   id="path4623"
   d="m 413.08,697.47 0,-0.14 -0.01,-0.12 -0.01,-0.13 -0.02,-0.11 -0.02,-0.12 -0.03,-0.11 -0.03,-0.11 -0.04,-0.1 -0.04,-0.11 -0.05,-0.09 -0.05,-0.09 -0.05,-0.09 -0.06,-0.09 -0.06,-0.08 -0.06,-0.07 -0.07,-0.08 -0.06,-0.07 -0.08,-0.06 -0.07,-0.06 -0.08,-0.06 -0.07,-0.05 -0.08,-0.04 -0.09,-0.05 -0.08,-0.03 -0.08,-0.04 -0.09,-0.03 -0.09,-0.02 -0.08,-0.02 -0.09,-0.02 -0.09,-0.01 -0.09,-0.01 -0.09,0 c -0.46,0 -1.64,0.25 -1.64,2.14 v 3.78 c 0,0.36 0.02,0.47 0.79,0.47 h 0.24 v 0.31 c -0.35,-0.04 -1.09,-0.04 -1.46,-0.04 -0.38,0 -1.13,0 -1.48,0.04 v -0.31 h 0.24 c 0.77,0 0.79,-0.11 0.79,-0.47 v -3.75 c 0,-1.4 1.15,-2.48 2.5,-2.48 1.15,0 2.04,0.93 2.21,2.06 0.03,0.2 0.03,0.29 0.03,0.68 v 3.18 c 0,0.33 0,0.78 1.03,0.78 v 0.31 c -0.36,-0.01 -0.84,-0.04 -1.18,-0.04 -0.34,0 -0.82,0.03 -1.18,0.04 v -0.31 c 1.02,0 1.02,-0.47 1.02,-0.74 z"
   style="fill:#000000;stroke-width:0" />
<path
   id="path4625"
   d="m 417.8,703.97 0.02,0.01 0.02,0.01 0.01,0.02 0.02,0.02 0,0 0.01,0.01 0.01,0.01 0.01,0.01 0,0.01 0.01,0.01 0,0.01 0.01,0.01 0.01,0.01 0,0.01 0.01,0.01 0,0.01 0.01,0.01 0,0.01 0,0.01 0.01,0.01 0,0.01 0,0.01 0.01,0.01 0,0.01 0,0.01 0,0.01 0,0.01 0,0.01 c 0,0.18 -0.18,0.36 -0.36,0.36 -0.15,0 -0.26,-0.11 -0.3,-0.17 l -1.19,-1.52 0.17,-0.18 z"
   style="fill:#000000;stroke-width:0" />
<path
   id="path4627"
   d="m 417,701.18 0,0.03 0,0.03 0,0.03 0,0.03 0.01,0.03 0,0.03 0,0.02 0.01,0.02 0,0.03 0.01,0.02 0.01,0.02 0.01,0.02 0.01,0.01 0.02,0.02 0.02,0.01 0.01,0.02 0.03,0.01 0.02,0.01 0.01,0.01 0.01,0 0.02,0.01 0.01,0 0.02,0.01 0.01,0 0.02,0.01 0.02,0 0.02,0 0.02,0.01 0.02,0 0.02,0 0.02,0.01 0.02,0 0.03,0 0.02,0 0.03,0.01 0.02,0 0.03,0 0.03,0 0.03,0 0.03,0 0.03,0 0.03,0.01 0.03,0 0.04,0 0.03,0 0.04,0 h 0.26 v 0.31 c -0.35,-0.04 -1.14,-0.04 -1.52,-0.04 -0.38,0 -1.17,0 -1.52,0.04 v -0.31 h 0.26 c 0.79,0 0.82,-0.11 0.82,-0.47 v -5.23 c 0,-0.36 -0.03,-0.47 -0.82,-0.47 h -0.26 v -0.31 c 0.35,0.03 1.14,0.03 1.51,0.03 0.39,0 1.18,0 1.53,-0.03 v 0.31 h -0.26 c -0.79,0 -0.82,0.11 -0.82,0.47 z"
   style="fill:#000000;stroke-width:0" />
<path
   id="path4629"
   d="m 422.32,702.08 0,0.02 -0.01,0.01 0,0.01 -0.01,0.01 0,0.01 -0.01,0.01 0,0.01 0,0.01 -0.01,0.01 0,0.01 -0.01,0.01 0,0 -0.01,0.01 0,0.01 -0.01,0.01 0,0 -0.01,0.01 -0.01,0 0,0.01 -0.01,0 -0.01,0.01 0,0 -0.01,0.01 -0.01,0 -0.01,0 -0.01,0.01 -0.01,0 -0.02,0 -0.01,0 -0.01,0 -0.01,0 -0.01,0 -0.01,0 c -0.16,0 -0.19,-0.06 -0.24,-0.2 l -2.06,-5.94 c -0.18,-0.5 -0.57,-0.65 -1.11,-0.66 v -0.31 c 0.23,0.01 0.65,0.03 1.01,0.03 0.31,0 0.83,-0.02 1.15,-0.03 v 0.31 c -0.5,0 -0.75,0.25 -0.75,0.5 0,0.03 0.01,0.13 0.02,0.15 l 0.46,1.3 0.11,0.31 1.11,3.23 1.13,-3.23 h -2.24 l -0.11,-0.31 h 2.46 l 0.52,-1.52 c 0.01,-0.03 0.03,-0.09 0.03,-0.13 0,-0.3 -0.55,-0.3 -0.82,-0.3 v -0.31 c 0.36,0.03 1.05,0.03 1.43,0.03 0.43,0 0.89,-0.01 1.3,-0.03 v 0.31 h -0.17 c -0.6,0 -0.74,0.07 -0.85,0.4 z"
   style="fill:#000000;stroke-width:0" />
<path
   id="path4631"
   d="m 371.77,690 v -0.31 h 0.24 c 0.76,0 0.78,-0.11 0.78,-0.47 v -5.23 c 0,-0.36 -0.02,-0.47 -0.78,-0.47 h -0.24 v -0.3 h 3.64 l -0.27,0.3 h -1 c -0.47,0 -0.49,0.07 -0.49,0.4 v 5.37 c 0,0.33 0.02,0.4 0.49,0.4 h 0.99 c 0.62,0 1.3,-0.22 1.81,-0.92 0.43,-0.59 0.52,-1.44 0.52,-2.22 0,-1.1 -0.19,-1.7 -0.55,-2.18 -0.2,-0.27 -0.77,-0.85 -1.77,-0.85 l 0.27,-0.3 c 1.67,0 3.04,1.46 3.04,3.33 0,1.89 -1.34,3.45 -3.04,3.45 z"
   style="fill:#000000;stroke-width:0" />
<path
   id="path4633"
   d="m 380.38,683.99 0,-0.03 0,-0.03 0,-0.03 0,-0.03 0,-0.03 0,-0.03 -0.01,-0.02 0,-0.02 -0.01,-0.03 -0.01,-0.02 0,-0.02 -0.01,-0.02 -0.02,-0.01 -0.01,-0.02 -0.02,-0.01 -0.01,-0.02 -0.02,-0.01 -0.03,-0.01 -0.01,-0.01 -0.01,0 -0.01,-0.01 -0.02,0 -0.01,-0.01 -0.02,0 -0.01,-0.01 -0.02,0 -0.02,0 -0.02,-0.01 -0.02,0 -0.02,0 -0.02,-0.01 -0.02,0 -0.02,0 -0.03,0 -0.02,-0.01 -0.03,0 -0.02,0 -0.03,0 -0.03,0 -0.03,0 -0.03,0 -0.03,-0.01 -0.03,0 -0.03,0 -0.04,0 -0.03,0 h -0.24 v -0.3 h 5.74 l 0.42,2.56 h -0.25 c -0.25,-1.53 -0.48,-2.26 -2.19,-2.26 h -1.32 c -0.47,0 -0.49,0.07 -0.49,0.4 v 2.65 h 0.89 c 0.97,0 1.08,-0.31 1.08,-1.16 h 0.25 v 2.63 h -0.25 c 0,-0.85 -0.11,-1.16 -1.08,-1.16 h -0.89 v 2.39 c 0,0.32 0.02,0.39 0.49,0.39 h 1.28 c 1.52,0 1.79,-0.54 1.95,-1.93 h 0.25 l -0.28,2.24 h -5.6 v -0.31 h 0.24 c 0.76,0 0.78,-0.11 0.78,-0.46 z"
   style="fill:#000000;stroke-width:0" />
<path
   id="path4635"
   d="m 396.3,686.58 0,0.19 -0.02,0.19 -0.02,0.18 -0.03,0.18 -0.03,0.18 -0.05,0.17 -0.05,0.17 -0.06,0.17 -0.07,0.16 -0.07,0.15 -0.08,0.16 -0.09,0.14 -0.09,0.15 -0.1,0.13 -0.11,0.13 -0.11,0.13 -0.11,0.12 -0.12,0.11 -0.13,0.11 -0.13,0.1 -0.13,0.1 -0.14,0.08 -0.14,0.08 -0.15,0.07 -0.15,0.07 -0.15,0.06 -0.16,0.04 -0.16,0.04 -0.16,0.04 -0.17,0.02 -0.16,0.01 -0.17,0.01 v -0.25 c 0.86,0 2.29,-0.7 2.29,-3.25 0,-2.63 -1.37,-3.46 -2.28,-3.46 h 0 c -0.96,0 -2.29,0.87 -2.29,3.46 0,2.57 1.45,3.25 2.28,3.25 v 0.25 c -1.78,0 -3.31,-1.59 -3.31,-3.64 0,-2.03 1.54,-3.58 3.31,-3.58 1.81,0 3.31,1.58 3.31,3.58 z"
   style="fill:#000000;stroke-width:0" />
<path
   id="path4637"
   d="m 399.18,689.87 0,0.01 -0.01,0.01 -0.01,0.01 -0.01,0.01 0,0.01 -0.01,0.01 -0.01,0 0,0.01 -0.01,0.01 0,0 -0.01,0.01 -0.01,0 0,0.01 -0.01,0 -0.01,0.01 0,0 -0.01,0 -0.01,0.01 0,0 -0.01,0 -0.01,0 -0.01,0 -0.01,0.01 -0.01,0 -0.01,0 -0.01,0 -0.02,0 -0.01,0 -0.02,0 0,0 -0.01,0 -0.01,0 -0.01,0 -0.01,0 0,0 h -1.7 v -0.31 h 0.29 c 0.15,0 0.35,-0.01 0.5,-0.02 0.23,-0.03 0.24,-0.04 0.24,-0.23 v -5.18 c 0,-0.27 0,-0.74 -1.03,-0.74 v -0.3 c 0.35,0 0.84,0.02 1.17,0.02 0.33,0 0.81,-0.02 1.16,-0.02 v 0.3 c -1.02,0 -1.02,0.47 -1.02,0.74 v 5.16 c 0.05,-0.05 0.06,-0.06 0.1,-0.12 l 4.06,-5.96 c 0.09,-0.12 0.1,-0.12 0.17,-0.12 0.14,0 0.14,0.06 0.14,0.25 v 5.49 c 0,0.26 0,0.73 1.02,0.73 V 690 c -0.35,-0.01 -0.84,-0.03 -1.16,-0.03 -0.33,0 -0.82,0.02 -1.17,0.03 v -0.31 c 1.03,0 1.03,-0.47 1.03,-0.73 v -4.24 z"
   style="fill:#000000;stroke-width:0" />
<path
   id="path4639"
   d="m 404.7,690 v -0.31 h 0.23 c 0.77,0 0.79,-0.11 0.79,-0.47 v -5.23 c 0,-0.36 -0.02,-0.47 -0.79,-0.47 h -0.23 v -0.3 h 3.64 l -0.27,0.3 h -1.01 c -0.46,0 -0.48,0.07 -0.48,0.4 v 5.37 c 0,0.33 0.02,0.4 0.48,0.4 h 1 c 0.62,0 1.3,-0.22 1.81,-0.92 0.43,-0.59 0.52,-1.44 0.52,-2.22 0,-1.1 -0.19,-1.7 -0.55,-2.18 -0.2,-0.27 -0.77,-0.85 -1.77,-0.85 l 0.27,-0.3 c 1.67,0 3.04,1.46 3.04,3.33 0,1.89 -1.34,3.45 -3.04,3.45 z"
   style="fill:#000000;stroke-width:0" />
<path
   id="path4641"
   d="m 415.64,690.13 0,0.01 -0.01,0.01 0,0.01 -0.01,0.01 0,0.02 -0.01,0.01 0,0.01 0,0 -0.01,0.01 0,0.01 -0.01,0.01 0,0.01 -0.01,0.01 0,0 -0.01,0.01 0,0.01 -0.01,0 -0.01,0.01 0,0 -0.01,0.01 -0.01,0 -0.01,0.01 0,0 -0.01,0.01 -0.01,0 -0.01,0 -0.01,0 -0.02,0 -0.01,0.01 -0.01,0 -0.01,0 -0.01,0 -0.01,0 c -0.16,0 -0.19,-0.06 -0.24,-0.2 l -2.06,-5.94 c -0.18,-0.51 -0.57,-0.66 -1.11,-0.67 v -0.3 c 0.23,0 0.65,0.02 1.01,0.02 0.31,0 0.83,-0.02 1.15,-0.02 v 0.3 c -0.5,0 -0.75,0.25 -0.75,0.51 0,0.03 0.01,0.13 0.02,0.15 l 0.46,1.3 0.11,0.31 1.11,3.23 1.13,-3.23 H 414 l -0.11,-0.31 h 2.46 l 0.52,-1.52 c 0.01,-0.04 0.03,-0.1 0.03,-0.14 0,-0.3 -0.55,-0.3 -0.82,-0.3 v -0.3 c 0.35,0.02 1.05,0.02 1.43,0.02 0.43,0 0.88,-0.01 1.3,-0.02 v 0.3 h -0.18 c -0.59,0 -0.73,0.07 -0.84,0.4 z"
   style="fill:#000000;stroke-width:0" />
</g>      <g
         style="font-style:normal;font-variant:normal;font-weight:normal;font-stretch:normal;letter-spacing:normal;word-spacing:normal;text-anchor:start;fill:none;stroke:#000000;stroke-linecap:butt;stroke-linejoin:miter;stroke-miterlimit:10.43299961;stroke-opacity:1;stroke-dasharray:none;stroke-dashoffset:0"
         id="g4949"
         transform="matrix(1.2,0,0,-1.2,-493.18549,1236.1878)"
         xml:space="preserve"
         stroke-miterlimit="10.433"
         font-style="normal"
         font-variant="normal"
         font-weight="normal"
         font-stretch="normal"
         font-size-adjust="none"
         letter-spacing="normal"
         word-spacing="normal"
         ns0:text="\\centering\nCORTO\\\\\nCIRCUITO\\\\\nDE LA GU\\\'IA\\\\\nDE ONDA"
         ns0:preamble="">
<path
   style="fill:#000000;stroke-width:0"
   d="m 377.65,710.52 0,-0.19 0.02,-0.19 0.02,-0.18 0.03,-0.18 0.04,-0.18 0.05,-0.18 0.06,-0.16 0.06,-0.17 0.07,-0.16 0.08,-0.16 0.08,-0.15 0.1,-0.15 0.1,-0.14 0.1,-0.13 0.11,-0.13 0.12,-0.13 0.12,-0.12 0.12,-0.11 0.14,-0.1 0.13,-0.1 0.14,-0.09 0.15,-0.09 0.15,-0.08 0.15,-0.07 0.16,-0.06 0.16,-0.06 0.16,-0.04 0.16,-0.04 0.17,-0.03 0.17,-0.03 0.17,-0.01 0.17,0 c 1.62,0 2.6,1.38 2.6,2.53 0,0.1 0,0.17 -0.13,0.17 -0.11,0 -0.11,-0.06 -0.12,-0.16 -0.08,-1.42 -1.14,-2.24 -2.23,-2.24 -0.61,0 -2.56,0.34 -2.56,3.3 0,2.97 1.94,3.31 2.55,3.31 1.08,0 1.97,-0.9 2.17,-2.35 0.02,-0.14 0.02,-0.17 0.16,-0.17 0.16,0 0.16,0.03 0.16,0.24 v 2.35 c 0,0.17 0,0.24 -0.11,0.24 -0.04,0 -0.08,0 -0.16,-0.12 l -0.5,-0.74 c -0.37,0.36 -0.87,0.86 -1.83,0.86 -1.86,0 -3.46,-1.58 -3.46,-3.61 z"
   id="path4951" />
<path
   style="fill:#000000;stroke-width:0"
   d="m 391.46,710.49 0,0.19 -0.02,0.19 -0.02,0.18 -0.03,0.18 -0.04,0.18 -0.04,0.17 -0.05,0.17 -0.06,0.17 -0.07,0.16 -0.07,0.15 -0.08,0.16 -0.09,0.14 -0.09,0.15 -0.1,0.13 -0.11,0.13 -0.11,0.13 -0.11,0.12 -0.12,0.11 -0.13,0.11 -0.13,0.1 -0.13,0.1 -0.14,0.08 -0.14,0.08 -0.15,0.07 -0.15,0.07 -0.15,0.06 -0.16,0.04 -0.16,0.04 -0.16,0.04 -0.17,0.02 -0.16,0.01 -0.17,0.01 v -0.25 c 0.86,0 2.29,-0.71 2.29,-3.25 0,-2.63 -1.37,-3.47 -2.28,-3.47 h 0 c -0.96,0 -2.29,0.88 -2.29,3.47 0,2.58 1.45,3.25 2.28,3.25 v 0.25 c -1.78,0 -3.31,-1.59 -3.31,-3.64 0,-2.03 1.54,-3.58 3.31,-3.58 1.81,0 3.31,1.58 3.31,3.58 z"
   id="path4953" />
<path
   style="fill:#000000;stroke-width:0"
   d="m 396.36,710.5 0.09,0.03 0.09,0.02 0.09,0.03 0.09,0.03 0.08,0.03 0.08,0.03 0.08,0.04 0.08,0.04 0.08,0.04 0.08,0.04 0.07,0.04 0.07,0.05 0.07,0.04 0.06,0.05 0.07,0.05 0.06,0.05 0.05,0.05 0.06,0.06 0.05,0.05 0.05,0.06 0.04,0.06 0.05,0.06 0.03,0.06 0.04,0.07 0.03,0.06 0.03,0.07 0.02,0.06 0.02,0.07 0.02,0.07 0.01,0.07 0,0.07 0.01,0.07 c 0,0.96 -1.14,1.79 -2.6,1.79 h -3.13 v -0.31 h 0.24 c 0.77,0 0.79,-0.11 0.79,-0.46 v -5.24 c 0,-0.36 -0.02,-0.47 -0.79,-0.47 h -0.24 v -0.3 c 0.36,0.03 1.07,0.03 1.46,0.03 0.39,0 1.09,0 1.45,-0.03 v 0.3 h -0.24 c -0.77,0 -0.78,0.11 -0.78,0.47 v 2.51 0.22 2.58 c 0,0.22 0,0.34 0.21,0.37 0.1,0.02 0.39,0.02 0.59,0.02 0.9,0 2.01,-0.04 2.01,-1.48 0,-0.68 -0.24,-1.49 -1.71,-1.49 h -1.1 v -0.22 h 1.14 c 0.16,0 0.58,0 0.92,-0.33 0.38,-0.36 0.38,-0.67 0.38,-1.34 0,-0.64 0,-1.04 0.41,-1.42 0.41,-0.35 0.96,-0.41 1.25,-0.41 0.78,0 0.95,0.81 0.95,1.09 0,0.06 0,0.17 -0.13,0.17 -0.11,0 -0.11,-0.09 -0.12,-0.16 -0.06,-0.71 -0.41,-0.88 -0.66,-0.88 -0.48,0 -0.56,0.5 -0.7,1.42 l -0.13,0.8 c -0.18,0.64 -0.67,0.96 -1.22,1.15 z"
   id="path4955" />
<path
   style="fill:#000000;stroke-width:0"
   d="m 405.17,713.85 h -6.08 l -0.19,-2.24 h 0.25 c 0.14,1.6 0.29,1.93 1.79,1.93 0.18,0 0.44,0 0.54,-0.02 0.21,-0.04 0.21,-0.15 0.21,-0.37 v -5.24 c 0,-0.34 0,-0.48 -1.05,-0.48 h -0.4 v -0.3 c 0.41,0.03 1.43,0.03 1.88,0.03 0.46,0 1.49,0 1.89,-0.03 v 0.3 h -0.39 c -1.05,0 -1.05,0.14 -1.05,0.48 v 5.24 c 0,0.19 0,0.33 0.18,0.37 0.11,0.02 0.38,0.02 0.57,0.02 1.5,0 1.65,-0.33 1.79,-1.93 h 0.25 z"
   id="path4957" />
<path
   style="fill:#000000;stroke-width:0"
   d="m 412.91,710.49 0,0.19 -0.02,0.19 -0.02,0.18 -0.03,0.18 -0.03,0.18 -0.05,0.17 -0.05,0.17 -0.06,0.17 -0.07,0.16 -0.07,0.15 -0.08,0.16 -0.09,0.14 -0.09,0.15 -0.1,0.13 -0.11,0.13 -0.11,0.13 -0.11,0.12 -0.12,0.11 -0.13,0.11 -0.13,0.1 -0.13,0.1 -0.14,0.08 -0.14,0.08 -0.15,0.07 -0.15,0.07 -0.15,0.06 -0.16,0.04 -0.16,0.04 -0.16,0.04 -0.17,0.02 -0.16,0.01 -0.17,0.01 v -0.25 c 0.86,0 2.29,-0.71 2.29,-3.25 0,-2.63 -1.37,-3.47 -2.28,-3.47 h 0 c -0.96,0 -2.29,0.88 -2.29,3.47 0,2.58 1.45,3.25 2.28,3.25 v 0.25 c -1.78,0 -3.31,-1.59 -3.31,-3.64 0,-2.03 1.54,-3.58 3.31,-3.58 1.81,0 3.31,1.58 3.31,3.58 z"
   id="path4959" />
<path
   style="fill:#000000;stroke-width:0"
   d="m 370.32,698.57 0,-0.19 0.01,-0.19 0.03,-0.19 0.03,-0.18 0.04,-0.18 0.05,-0.17 0.05,-0.17 0.07,-0.17 0.07,-0.16 0.08,-0.15 0.08,-0.15 0.09,-0.15 0.1,-0.14 0.11,-0.14 0.11,-0.13 0.11,-0.12 0.12,-0.12 0.13,-0.11 0.13,-0.11 0.14,-0.1 0.14,-0.09 0.14,-0.08 0.15,-0.08 0.16,-0.07 0.15,-0.07 0.16,-0.05 0.16,-0.05 0.17,-0.04 0.16,-0.03 0.17,-0.02 0.18,-0.01 0.17,-0.01 c 1.62,0 2.59,1.38 2.59,2.53 0,0.1 0,0.17 -0.13,0.17 -0.1,0 -0.1,-0.06 -0.11,-0.16 -0.08,-1.42 -1.15,-2.23 -2.23,-2.23 -0.61,0 -2.56,0.34 -2.56,3.3 0,2.97 1.94,3.3 2.55,3.3 1.08,0 1.97,-0.9 2.17,-2.35 0.02,-0.14 0.02,-0.17 0.15,-0.17 0.16,0 0.16,0.03 0.16,0.24 v 2.35 c 0,0.17 0,0.24 -0.1,0.24 -0.04,0 -0.09,0 -0.16,-0.12 l -0.5,-0.73 c -0.37,0.36 -0.88,0.85 -1.83,0.85 -1.86,0 -3.46,-1.58 -3.46,-3.6 z"
   id="path4961" />
<path
   style="fill:#000000;stroke-width:0"
   d="m 379.19,701.18 0,0.03 0,0.03 0,0.03 0,0.03 0.01,0.03 0,0.03 0,0.02 0.01,0.02 0,0.03 0.01,0.02 0.01,0.02 0.01,0.02 0.01,0.01 0.02,0.02 0.02,0.01 0.01,0.02 0.03,0.01 0.02,0.01 0.01,0.01 0.01,0 0.02,0.01 0.01,0 0.02,0.01 0.01,0 0.02,0.01 0.02,0 0.02,0 0.02,0.01 0.02,0 0.02,0 0.02,0.01 0.02,0 0.03,0 0.02,0 0.03,0.01 0.02,0 0.03,0 0.03,0 0.03,0 0.03,0 0.03,0 0.03,0.01 0.03,0 0.04,0 0.03,0 0.04,0 h 0.26 v 0.31 c -0.35,-0.04 -1.14,-0.04 -1.52,-0.04 -0.38,0 -1.17,0 -1.52,0.04 v -0.31 h 0.26 c 0.79,0 0.82,-0.11 0.82,-0.47 v -5.23 c 0,-0.36 -0.03,-0.47 -0.82,-0.47 h -0.26 v -0.31 c 0.35,0.03 1.14,0.03 1.51,0.03 0.39,0 1.18,0 1.53,-0.03 v 0.31 h -0.26 c -0.79,0 -0.82,0.11 -0.82,0.47 z"
   id="path4963" />
<path
   style="fill:#000000;stroke-width:0"
   d="m 384.88,698.55 0.09,0.02 0.09,0.03 0.08,0.02 0.09,0.03 0.08,0.04 0.09,0.03 0.08,0.03 0.08,0.04 0.07,0.04 0.08,0.04 0.07,0.05 0.07,0.04 0.07,0.05 0.07,0.04 0.06,0.05 0.06,0.06 0.06,0.05 0.05,0.05 0.05,0.06 0.05,0.06 0.05,0.06 0.04,0.06 0.04,0.06 0.03,0.06 0.03,0.06 0.03,0.07 0.02,0.07 0.02,0.06 0.02,0.07 0.01,0.07 0.01,0.07 0,0.08 c 0,0.95 -1.14,1.79 -2.6,1.79 h -3.12 v -0.31 h 0.24 c 0.76,0 0.78,-0.11 0.78,-0.47 v -5.23 c 0,-0.36 -0.02,-0.47 -0.78,-0.47 h -0.24 v -0.31 c 0.36,0.03 1.06,0.03 1.45,0.03 0.39,0 1.1,0 1.45,-0.03 v 0.31 h -0.23 c -0.77,0 -0.79,0.11 -0.79,0.47 v 2.51 0.22 2.57 c 0,0.23 0,0.35 0.22,0.38 0.1,0.02 0.39,0.02 0.58,0.02 0.9,0 2.02,-0.04 2.02,-1.48 0,-0.69 -0.24,-1.49 -1.72,-1.49 h -1.1 v -0.22 h 1.14 c 0.16,0 0.58,0 0.93,-0.34 0.38,-0.36 0.38,-0.66 0.38,-1.33 0,-0.65 0,-1.04 0.4,-1.42 0.41,-0.36 0.96,-0.42 1.26,-0.42 0.77,0 0.94,0.82 0.94,1.09 0,0.06 0,0.17 -0.13,0.17 -0.11,0 -0.11,-0.09 -0.12,-0.16 -0.06,-0.7 -0.4,-0.88 -0.65,-0.88 -0.49,0 -0.57,0.51 -0.71,1.43 l -0.13,0.8 c -0.18,0.63 -0.66,0.96 -1.21,1.15 z"
   id="path4965" />
<path
   style="fill:#000000;stroke-width:0"
   d="m 388.16,698.57 0.01,-0.19 0.01,-0.19 0.02,-0.19 0.03,-0.18 0.04,-0.18 0.05,-0.17 0.06,-0.17 0.06,-0.17 0.07,-0.16 0.08,-0.15 0.09,-0.15 0.09,-0.15 0.1,-0.14 0.1,-0.14 0.11,-0.13 0.12,-0.12 0.12,-0.12 0.13,-0.11 0.13,-0.11 0.14,-0.1 0.14,-0.09 0.14,-0.08 0.15,-0.08 0.15,-0.07 0.16,-0.07 0.16,-0.05 0.16,-0.05 0.16,-0.04 0.17,-0.03 0.17,-0.02 0.17,-0.01 0.17,-0.01 c 1.63,0 2.6,1.38 2.6,2.53 0,0.1 0,0.17 -0.13,0.17 -0.11,0 -0.11,-0.06 -0.12,-0.16 -0.08,-1.42 -1.14,-2.23 -2.23,-2.23 -0.6,0 -2.55,0.34 -2.55,3.3 0,2.97 1.94,3.3 2.54,3.3 1.09,0 1.97,-0.9 2.17,-2.35 0.02,-0.14 0.02,-0.17 0.16,-0.17 0.16,0 0.16,0.03 0.16,0.24 v 2.35 c 0,0.17 0,0.24 -0.11,0.24 -0.04,0 -0.08,0 -0.16,-0.12 l -0.5,-0.73 c -0.36,0.36 -0.87,0.85 -1.83,0.85 -1.86,0 -3.46,-1.58 -3.46,-3.6 z"
   id="path4967" />
<path
   style="fill:#000000;stroke-width:0"
   d="m 400.59,697.47 0,-0.14 -0.01,-0.12 -0.01,-0.13 -0.02,-0.11 -0.03,-0.12 -0.03,-0.11 -0.03,-0.11 -0.04,-0.1 -0.04,-0.11 -0.04,-0.09 -0.05,-0.09 -0.06,-0.09 -0.05,-0.09 -0.06,-0.08 -0.06,-0.07 -0.07,-0.08 -0.07,-0.07 -0.07,-0.06 -0.07,-0.06 -0.08,-0.06 -0.08,-0.05 -0.08,-0.04 -0.08,-0.05 -0.08,-0.03 -0.09,-0.04 -0.08,-0.03 -0.09,-0.02 -0.09,-0.02 -0.08,-0.02 -0.09,-0.01 -0.09,-0.01 -0.09,0 c -0.47,0 -1.64,0.25 -1.64,2.14 v 3.78 c 0,0.36 0.02,0.47 0.78,0.47 h 0.24 v 0.31 c -0.35,-0.04 -1.08,-0.04 -1.46,-0.04 -0.38,0 -1.12,0 -1.47,0.04 v -0.31 h 0.24 c 0.76,0 0.78,-0.11 0.78,-0.47 v -3.75 c 0,-1.4 1.16,-2.48 2.51,-2.48 1.14,0 2.04,0.93 2.21,2.06 0.03,0.2 0.03,0.29 0.03,0.68 v 3.18 c 0,0.33 0,0.78 1.02,0.78 v 0.31 c -0.35,-0.01 -0.83,-0.04 -1.17,-0.04 -0.35,0 -0.83,0.03 -1.18,0.04 v -0.31 c 1.02,0 1.02,-0.47 1.02,-0.74 z"
   id="path4969" />
<path
   style="fill:#000000;stroke-width:0"
   d="m 404.51,701.18 0,0.03 0,0.03 0,0.03 0,0.03 0,0.03 0.01,0.03 0,0.02 0.01,0.02 0,0.03 0.01,0.02 0.01,0.02 0.01,0.02 0.01,0.01 0.02,0.02 0.01,0.01 0.02,0.02 0.02,0.01 0.03,0.01 0.01,0.01 0.01,0 0.02,0.01 0.01,0 0.02,0.01 0.01,0 0.02,0.01 0.02,0 0.02,0 0.02,0.01 0.02,0 0.02,0 0.02,0.01 0.02,0 0.02,0 0.03,0 0.02,0.01 0.03,0 0.03,0 0.03,0 0.02,0 0.03,0 0.04,0 0.03,0.01 0.03,0 0.03,0 0.04,0 0.04,0 h 0.25 v 0.31 c -0.34,-0.04 -1.13,-0.04 -1.51,-0.04 -0.39,0 -1.17,0 -1.52,0.04 v -0.31 h 0.26 c 0.79,0 0.82,-0.11 0.82,-0.47 v -5.23 c 0,-0.36 -0.03,-0.47 -0.82,-0.47 h -0.26 v -0.31 c 0.35,0.03 1.13,0.03 1.51,0.03 0.39,0 1.18,0 1.52,-0.03 v 0.31 h -0.25 c -0.79,0 -0.82,0.11 -0.82,0.47 z"
   id="path4971" />
<path
   style="fill:#000000;stroke-width:0"
   d="m 412.49,701.9 h -6.07 l -0.19,-2.24 h 0.25 c 0.13,1.6 0.29,1.93 1.79,1.93 0.18,0 0.43,0 0.53,-0.02 0.21,-0.04 0.21,-0.15 0.21,-0.38 v -5.23 c 0,-0.34 0,-0.48 -1.04,-0.48 h -0.4 v -0.31 c 0.41,0.03 1.42,0.03 1.88,0.03 0.46,0 1.48,0 1.89,-0.03 v 0.31 h -0.4 c -1.04,0 -1.04,0.14 -1.04,0.48 v 5.23 c 0,0.2 0,0.34 0.18,0.38 0.11,0.02 0.38,0.02 0.56,0.02 1.51,0 1.66,-0.33 1.8,-1.93 h 0.24 z"
   id="path4973" />
<path
   style="fill:#000000;stroke-width:0"
   d="m 420.24,698.54 -0.01,0.19 -0.01,0.18 -0.02,0.19 -0.03,0.18 -0.04,0.17 -0.04,0.18 -0.06,0.17 -0.06,0.16 -0.06,0.16 -0.08,0.16 -0.08,0.15 -0.08,0.15 -0.1,0.14 -0.09,0.14 -0.11,0.13 -0.11,0.13 -0.12,0.12 -0.12,0.11 -0.12,0.11 -0.13,0.1 -0.14,0.09 -0.13,0.09 -0.15,0.08 -0.14,0.07 -0.15,0.06 -0.16,0.06 -0.15,0.05 -0.16,0.04 -0.17,0.03 -0.16,0.02 -0.17,0.02 -0.17,0 v -0.25 c 0.87,0 2.29,-0.7 2.29,-3.24 0,-2.64 -1.36,-3.47 -2.28,-3.47 h 0 c -0.95,0 -2.28,0.87 -2.28,3.47 0,2.57 1.45,3.24 2.27,3.24 v 0.25 c -1.78,0 -3.3,-1.59 -3.3,-3.63 0,-2.04 1.53,-3.59 3.3,-3.59 1.81,0 3.32,1.58 3.32,3.59 z"
   id="path4975" />
<path
   style="fill:#000000;stroke-width:0"
   d="m 365.09,690 v -0.31 h 0.24 c 0.77,0 0.78,-0.11 0.78,-0.47 v -5.23 c 0,-0.36 -0.01,-0.47 -0.78,-0.47 h -0.24 v -0.3 h 3.64 l -0.27,0.3 h -1 c -0.47,0 -0.49,0.07 -0.49,0.4 v 5.37 c 0,0.33 0.02,0.4 0.49,0.4 h 0.99 c 0.62,0 1.31,-0.22 1.81,-0.92 0.43,-0.59 0.52,-1.44 0.52,-2.22 0,-1.1 -0.19,-1.7 -0.55,-2.18 -0.19,-0.27 -0.76,-0.85 -1.77,-0.85 l 0.27,-0.3 c 1.67,0 3.05,1.46 3.05,3.33 0,1.89 -1.35,3.45 -3.05,3.45 z"
   id="path4977" />
<path
   style="fill:#000000;stroke-width:0"
   d="m 373.7,683.99 0,-0.03 0,-0.03 0,-0.03 0,-0.03 0,-0.03 0,-0.03 -0.01,-0.02 0,-0.02 -0.01,-0.03 0,-0.02 -0.01,-0.02 -0.01,-0.02 -0.01,-0.01 -0.02,-0.02 -0.01,-0.01 -0.02,-0.02 -0.02,-0.01 -0.02,-0.01 -0.01,-0.01 -0.02,0 -0.01,-0.01 -0.02,0 -0.01,-0.01 -0.02,0 -0.01,-0.01 -0.02,0 -0.02,0 -0.02,-0.01 -0.01,0 -0.02,0 -0.03,-0.01 -0.02,0 -0.02,0 -0.02,0 -0.03,-0.01 -0.02,0 -0.03,0 -0.03,0 -0.03,0 -0.02,0 -0.03,0 -0.04,-0.01 -0.03,0 -0.03,0 -0.04,0 -0.03,0 h -0.24 v -0.3 h 5.74 l 0.42,2.56 h -0.25 c -0.25,-1.53 -0.48,-2.26 -2.19,-2.26 h -1.32 c -0.47,0 -0.49,0.07 -0.49,0.4 v 2.65 h 0.9 c 0.96,0 1.07,-0.31 1.07,-1.16 h 0.25 v 2.63 h -0.25 c 0,-0.85 -0.11,-1.16 -1.07,-1.16 h -0.9 v 2.39 c 0,0.32 0.02,0.39 0.49,0.39 h 1.28 c 1.52,0 1.79,-0.54 1.95,-1.93 h 0.25 l -0.28,2.24 h -5.6 v -0.31 h 0.24 c 0.77,0 0.78,-0.11 0.78,-0.46 z"
   id="path4979" />
<path
   style="fill:#000000;stroke-width:0"
   d="m 388.24,685.78 h -0.25 c -0.11,-1.01 -0.25,-2.26 -2,-2.26 h -0.81 c -0.47,0 -0.49,0.07 -0.49,0.4 v 5.3 c 0,0.33 0,0.47 0.94,0.47 h 0.33 V 690 c -0.36,-0.03 -1.26,-0.03 -1.67,-0.03 -0.39,0 -1.16,0 -1.51,0.03 v -0.31 h 0.24 c 0.76,0 0.78,-0.11 0.78,-0.47 v -5.23 c 0,-0.36 -0.02,-0.47 -0.78,-0.47 h -0.24 v -0.3 h 5.18 z"
   id="path4981" />
<path
   style="fill:#000000;stroke-width:0"
   d="m 392.64,690.13 -0.01,0.01 0,0.01 -0.01,0.01 0,0.01 0,0.02 -0.01,0.01 0,0.01 -0.01,0 0,0.01 -0.01,0.01 0,0.01 -0.01,0.01 0,0.01 -0.01,0 0,0.01 -0.01,0.01 0,0 -0.01,0.01 -0.01,0 0,0.01 -0.01,0 -0.01,0.01 -0.01,0 -0.01,0.01 -0.01,0 -0.01,0 -0.01,0 -0.01,0 -0.01,0.01 -0.01,0 -0.02,0 0,0 -0.01,0 c -0.16,0 -0.19,-0.06 -0.24,-0.2 l -2.06,-5.94 c -0.18,-0.51 -0.58,-0.66 -1.11,-0.67 v -0.3 c 0.22,0 0.65,0.02 1.01,0.02 0.31,0 0.83,-0.02 1.14,-0.02 v 0.3 c -0.49,0 -0.74,0.25 -0.74,0.51 0,0.03 0.01,0.13 0.02,0.15 l 0.46,1.3 h 2.45 l -0.11,0.31 h -2.24 l 1.12,3.23 1.12,-3.23 0.11,-0.31 0.53,-1.52 c 0.01,-0.04 0.03,-0.1 0.03,-0.14 0,-0.3 -0.56,-0.3 -0.82,-0.3 v -0.3 c 0.35,0.02 1.05,0.02 1.43,0.02 0.42,0 0.88,-0.01 1.3,-0.02 v 0.3 h -0.18 c -0.59,0 -0.74,0.07 -0.84,0.4 z"
   id="path4983" />
<path
   style="fill:#000000;stroke-width:0"
   d="m 405.38,683.84 0.01,-0.02 0.01,-0.02 0.02,-0.02 0.02,-0.03 0.01,-0.02 0.02,-0.03 0.02,-0.02 0.03,-0.03 0.02,-0.02 0.02,-0.03 0.05,-0.05 0.04,-0.05 0.05,-0.05 0.03,-0.02 0.02,-0.03 0.02,-0.02 0.03,-0.02 0.02,-0.02 0.02,-0.02 0.02,-0.01 0.03,-0.02 0.02,-0.01 0.01,-0.02 0.02,-0.01 0.02,-0.01 0.02,-0.01 0.01,0 0.01,0 0,0 0.01,0 0,-0.01 c 0.09,0 0.09,0.08 0.09,0.23 v 1.73 c 0,0.39 0.04,0.44 0.69,0.44 v 0.31 c -0.37,-0.01 -0.92,-0.03 -1.21,-0.03 -0.4,0 -1.25,0 -1.61,0.03 v -0.31 h 0.32 c 0.9,0 0.93,-0.11 0.93,-0.48 v -0.63 c 0,-1.12 -1.27,-1.21 -1.55,-1.21 -0.64,0 -2.61,0.35 -2.61,3.31 0,2.97 1.96,3.3 2.55,3.3 1.07,0 1.97,-0.89 2.17,-2.35 0.02,-0.14 0.02,-0.17 0.16,-0.17 0.16,0 0.16,0.03 0.16,0.24 v 2.35 c 0,0.17 0,0.24 -0.11,0.24 -0.04,0 -0.08,0 -0.16,-0.12 l -0.49,-0.74 c -0.32,0.32 -0.86,0.86 -1.84,0.86 -1.86,0 -3.47,-1.57 -3.47,-3.61 0,-2.03 1.6,-3.61 3.49,-3.61 0.72,0 1.52,0.26 1.86,0.84 z"
   id="path4985" />
<path
   style="fill:#000000;stroke-width:0"
   d="m 413.08,685.51 0,-0.13 -0.01,-0.13 -0.01,-0.12 -0.02,-0.12 -0.02,-0.12 -0.03,-0.11 -0.03,-0.11 -0.04,-0.1 -0.04,-0.1 -0.05,-0.1 -0.05,-0.09 -0.05,-0.09 -0.06,-0.08 -0.06,-0.08 -0.06,-0.08 -0.07,-0.07 -0.06,-0.07 -0.08,-0.06 -0.07,-0.06 -0.08,-0.06 -0.07,-0.05 -0.08,-0.05 -0.09,-0.04 -0.08,-0.04 -0.08,-0.03 -0.09,-0.03 -0.08,-0.03 -0.09,-0.02 -0.09,-0.02 -0.09,-0.01 -0.09,0 -0.09,-0.01 c -0.46,0 -1.64,0.25 -1.64,2.14 v 3.78 c 0,0.36 0.02,0.47 0.79,0.47 h 0.24 V 690 c -0.35,-0.03 -1.09,-0.03 -1.46,-0.03 -0.38,0 -1.13,0 -1.48,0.03 v -0.31 h 0.24 c 0.77,0 0.79,-0.11 0.79,-0.47 v -3.74 c 0,-1.4 1.15,-2.48 2.5,-2.48 1.15,0 2.04,0.92 2.21,2.05 0.03,0.2 0.03,0.29 0.03,0.69 v 3.18 c 0,0.32 0,0.77 1.03,0.77 V 690 c -0.36,-0.01 -0.84,-0.03 -1.18,-0.03 -0.34,0 -0.82,0.02 -1.18,0.03 v -0.31 c 1.02,0 1.02,-0.47 1.02,-0.73 z"
   id="path4987" />
<path
   style="fill:#000000;stroke-width:0"
   d="m 417.8,692.01 0.02,0.01 0.02,0.02 0.01,0.01 0.02,0.02 0,0.01 0.01,0.01 0.01,0.01 0.01,0 0,0.01 0.01,0.01 0,0.01 0.01,0.01 0.01,0.01 0,0.01 0.01,0.01 0,0.01 0.01,0.01 0,0.01 0,0.01 0.01,0.01 0,0.01 0,0.01 0.01,0.01 0,0.01 0,0.02 0,0.01 0,0.01 0,0.01 c 0,0.18 -0.18,0.36 -0.36,0.36 -0.15,0 -0.26,-0.11 -0.3,-0.17 l -1.19,-1.52 0.17,-0.18 z"
   id="path4989" />
<path
   style="fill:#000000;stroke-width:0"
   d="m 417,689.22 0,0.04 0,0.03 0,0.03 0,0.03 0.01,0.03 0,0.02 0,0.03 0.01,0.02 0,0.02 0.01,0.02 0.01,0.02 0.01,0.02 0.01,0.02 0.02,0.01 0.02,0.02 0.01,0.01 0.03,0.02 0.02,0.01 0.01,0 0.01,0.01 0.02,0 0.01,0.01 0.02,0 0.01,0.01 0.02,0 0.02,0.01 0.02,0 0.02,0 0.02,0.01 0.02,0 0.02,0 0.02,0 0.03,0.01 0.02,0 0.03,0 0.02,0 0.03,0.01 0.03,0 0.03,0 0.03,0 0.03,0 0.03,0 0.03,0 0.04,0 0.03,0 0.04,0 h 0.26 V 690 c -0.35,-0.03 -1.14,-0.03 -1.52,-0.03 -0.38,0 -1.17,0 -1.52,0.03 v -0.31 h 0.26 c 0.79,0 0.82,-0.11 0.82,-0.47 v -5.23 c 0,-0.36 -0.03,-0.47 -0.82,-0.47 h -0.26 v -0.3 c 0.35,0.02 1.14,0.02 1.51,0.02 0.39,0 1.18,0 1.53,-0.02 v 0.3 h -0.26 c -0.79,0 -0.82,0.11 -0.82,0.47 z"
   id="path4991" />
<path
   style="fill:#000000;stroke-width:0"
   d="m 422.32,690.13 0,0.01 -0.01,0.01 0,0.01 -0.01,0.01 0,0.02 -0.01,0.01 0,0.01 0,0 -0.01,0.01 0,0.01 -0.01,0.01 0,0.01 -0.01,0.01 0,0 -0.01,0.01 0,0.01 -0.01,0 -0.01,0.01 0,0 -0.01,0.01 -0.01,0 0,0.01 -0.01,0 -0.01,0.01 -0.01,0 -0.01,0 -0.01,0 -0.02,0 -0.01,0.01 -0.01,0 -0.01,0 -0.01,0 -0.01,0 c -0.16,0 -0.19,-0.06 -0.24,-0.2 l -2.06,-5.94 c -0.18,-0.51 -0.57,-0.66 -1.11,-0.67 v -0.3 c 0.23,0 0.65,0.02 1.01,0.02 0.31,0 0.83,-0.02 1.15,-0.02 v 0.3 c -0.5,0 -0.75,0.25 -0.75,0.51 0,0.03 0.01,0.13 0.02,0.15 l 0.46,1.3 0.11,0.31 1.11,3.23 1.13,-3.23 h -2.24 l -0.11,-0.31 h 2.46 l 0.52,-1.52 c 0.01,-0.04 0.03,-0.1 0.03,-0.14 0,-0.3 -0.55,-0.3 -0.82,-0.3 v -0.3 c 0.36,0.02 1.05,0.02 1.43,0.02 0.43,0 0.89,-0.01 1.3,-0.02 v 0.3 h -0.17 c -0.6,0 -0.74,0.07 -0.85,0.4 z"
   id="path4993" />
<path
   style="fill:#000000;stroke-width:0"
   d="m 371.77,678.04 v -0.3 h 0.24 c 0.76,0 0.78,-0.11 0.78,-0.47 v -5.24 c 0,-0.35 -0.02,-0.46 -0.78,-0.46 h -0.24 v -0.31 h 3.64 l -0.27,0.31 h -1 c -0.47,0 -0.49,0.07 -0.49,0.4 v 5.37 c 0,0.33 0.02,0.4 0.49,0.4 h 0.99 c 0.62,0 1.3,-0.22 1.81,-0.93 0.43,-0.58 0.52,-1.44 0.52,-2.21 0,-1.11 -0.19,-1.7 -0.55,-2.19 -0.2,-0.27 -0.77,-0.84 -1.77,-0.84 l 0.27,-0.31 c 1.67,0 3.04,1.47 3.04,3.34 0,1.88 -1.34,3.44 -3.04,3.44 z"
   id="path4995" />
<path
   style="fill:#000000;stroke-width:0"
   d="m 380.38,672.03 0,-0.03 0,-0.03 0,-0.03 0,-0.03 0,-0.03 0,-0.02 -0.01,-0.03 0,-0.02 -0.01,-0.02 -0.01,-0.02 0,-0.02 -0.01,-0.02 -0.02,-0.02 -0.01,-0.01 -0.02,-0.02 -0.01,-0.01 -0.02,-0.02 -0.03,-0.01 -0.01,0 -0.01,-0.01 -0.01,0 -0.02,-0.01 -0.01,0 -0.02,-0.01 -0.01,0 -0.02,-0.01 -0.02,0 -0.02,0 -0.02,-0.01 -0.02,0 -0.02,0 -0.02,0 -0.02,-0.01 -0.03,0 -0.02,0 -0.03,0 -0.02,-0.01 -0.03,0 -0.03,0 -0.03,0 -0.03,0 -0.03,0 -0.03,0 -0.03,0 -0.04,0 -0.03,0 h -0.24 v -0.31 h 5.74 l 0.42,2.56 h -0.25 c -0.25,-1.53 -0.48,-2.25 -2.19,-2.25 h -1.32 c -0.47,0 -0.49,0.07 -0.49,0.4 v 2.65 h 0.89 c 0.97,0 1.08,-0.32 1.08,-1.16 h 0.25 v 2.63 h -0.25 c 0,-0.86 -0.11,-1.16 -1.08,-1.16 h -0.89 v 2.38 c 0,0.33 0.02,0.4 0.49,0.4 h 1.28 c 1.52,0 1.79,-0.55 1.95,-1.93 h 0.25 l -0.28,2.24 h -5.6 v -0.31 h 0.24 c 0.76,0 0.78,-0.11 0.78,-0.47 z"
   id="path4997" />
<path
   style="fill:#000000;stroke-width:0"
   d="m 396.3,674.63 0,0.19 -0.02,0.18 -0.02,0.19 -0.03,0.18 -0.03,0.17 -0.05,0.18 -0.05,0.17 -0.06,0.16 -0.07,0.16 -0.07,0.16 -0.08,0.15 -0.09,0.15 -0.09,0.14 -0.1,0.14 -0.11,0.13 -0.11,0.13 -0.11,0.12 -0.12,0.11 -0.13,0.11 -0.13,0.1 -0.13,0.09 -0.14,0.09 -0.14,0.08 -0.15,0.07 -0.15,0.06 -0.15,0.06 -0.16,0.05 -0.16,0.04 -0.16,0.03 -0.17,0.02 -0.16,0.02 -0.17,0 v -0.24 c 0.86,0 2.29,-0.71 2.29,-3.25 0,-2.64 -1.37,-3.47 -2.28,-3.47 h 0 c -0.96,0 -2.29,0.87 -2.29,3.47 0,2.57 1.45,3.25 2.28,3.25 v 0.24 c -1.78,0 -3.31,-1.59 -3.31,-3.63 0,-2.04 1.54,-3.59 3.31,-3.59 1.81,0 3.31,1.58 3.31,3.59 z"
   id="path4999" />
<path
   style="fill:#000000;stroke-width:0"
   d="m 399.18,677.92 0,0.01 -0.01,0.01 -0.01,0.01 -0.01,0.01 0,0 -0.01,0.01 -0.01,0.01 0,0.01 -0.01,0 0,0.01 -0.01,0 -0.01,0.01 0,0 -0.01,0.01 -0.01,0 0,0.01 -0.01,0 -0.01,0 0,0 -0.01,0.01 -0.01,0 -0.01,0 -0.01,0 -0.01,0 -0.01,0 -0.01,0 -0.02,0 -0.01,0 -0.02,0 0,0 -0.01,0 -0.01,0 -0.01,0 -0.01,0 0,0 h -1.7 v -0.3 h 0.29 c 0.15,0 0.35,-0.01 0.5,-0.02 0.23,-0.03 0.24,-0.04 0.24,-0.23 v -5.19 c 0,-0.27 0,-0.73 -1.03,-0.73 v -0.31 c 0.35,0.01 0.84,0.03 1.17,0.03 0.33,0 0.81,-0.02 1.16,-0.03 v 0.31 c -1.02,0 -1.02,0.46 -1.02,0.73 v 5.17 c 0.05,-0.05 0.06,-0.06 0.1,-0.12 l 4.06,-5.96 c 0.09,-0.12 0.1,-0.13 0.17,-0.13 0.14,0 0.14,0.07 0.14,0.26 V 677 c 0,0.27 0,0.74 1.02,0.74 v 0.3 c -0.35,-0.01 -0.84,-0.02 -1.16,-0.02 -0.33,0 -0.82,0.01 -1.17,0.02 v -0.3 c 1.03,0 1.03,-0.47 1.03,-0.74 v -4.24 z"
   id="path5001" />
<path
   style="fill:#000000;stroke-width:0"
   d="m 404.7,678.04 v -0.3 h 0.23 c 0.77,0 0.79,-0.11 0.79,-0.47 v -5.24 c 0,-0.35 -0.02,-0.46 -0.79,-0.46 h -0.23 v -0.31 h 3.64 l -0.27,0.31 h -1 c -0.47,0 -0.49,0.07 -0.49,0.4 v 5.37 c 0,0.33 0.02,0.4 0.49,0.4 h 0.99 c 0.62,0 1.3,-0.22 1.81,-0.93 0.43,-0.58 0.52,-1.44 0.52,-2.21 0,-1.11 -0.19,-1.7 -0.55,-2.19 -0.2,-0.27 -0.77,-0.84 -1.77,-0.84 l 0.27,-0.31 c 1.67,0 3.04,1.47 3.04,3.34 0,1.88 -1.34,3.44 -3.04,3.44 z"
   id="path5003" />
<path
   style="fill:#000000;stroke-width:0"
   d="m 415.64,678.17 0,0.02 -0.01,0.01 0,0.01 -0.01,0.01 0,0.01 -0.01,0.01 0,0.01 0,0.01 -0.01,0.01 0,0.01 -0.01,0.01 0,0 -0.01,0.01 0,0.01 -0.01,0.01 0,0 -0.01,0.01 -0.01,0 0,0.01 -0.01,0 -0.01,0.01 -0.01,0 0,0.01 -0.01,0 -0.01,0 -0.01,0.01 -0.01,0 -0.02,0 -0.01,0 -0.01,0 -0.01,0 -0.01,0 -0.01,0 c -0.16,0 -0.19,-0.06 -0.24,-0.2 l -2.06,-5.94 c -0.18,-0.5 -0.57,-0.65 -1.11,-0.66 v -0.31 c 0.23,0.01 0.65,0.03 1.01,0.03 0.31,0 0.83,-0.02 1.15,-0.03 v 0.31 c -0.5,0 -0.75,0.25 -0.75,0.51 0,0.02 0.01,0.12 0.02,0.14 l 0.46,1.31 0.11,0.3 1.11,3.23 1.13,-3.23 H 414 l -0.11,-0.3 h 2.46 l 0.52,-1.52 c 0.01,-0.04 0.03,-0.1 0.03,-0.14 0,-0.3 -0.55,-0.3 -0.82,-0.3 v -0.31 c 0.35,0.03 1.05,0.03 1.43,0.03 0.43,0 0.88,-0.01 1.3,-0.03 v 0.31 h -0.18 c -0.59,0 -0.73,0.07 -0.84,0.4 z"
   id="path5005" />
</g>    </g>
  </g>
</svg>
