<?xml version="1.0" encoding="UTF-8" standalone="no"?>
<!-- Created with Inkscape (http://www.inkscape.org/) -->

<svg
   xmlns:ns0="http://www.iki.fi/pav/software/textext/"
   xmlns:dc="http://purl.org/dc/elements/1.1/"
   xmlns:cc="http://creativecommons.org/ns#"
   xmlns:rdf="http://www.w3.org/1999/02/22-rdf-syntax-ns#"
   xmlns:svg="http://www.w3.org/2000/svg"
   xmlns="http://www.w3.org/2000/svg"
   xmlns:sodipodi="http://sodipodi.sourceforge.net/DTD/sodipodi-0.dtd"
   xmlns:inkscape="http://www.inkscape.org/namespaces/inkscape"
   width="214.78741"
   height="176.00002"
   id="svg2"
   version="1.1"
   inkscape:version="0.47 r22583"
   sodipodi:docname="estudio_9.svg">
  <sodipodi:namedview
     id="base"
     pagecolor="#ffffff"
     bordercolor="#666666"
     borderopacity="1.0"
     inkscape:pageopacity="0.0"
     inkscape:pageshadow="2"
     inkscape:zoom="2"
     inkscape:cx="73.067259"
     inkscape:cy="130.68369"
     inkscape:document-units="px"
     inkscape:current-layer="layer1"
     showgrid="false"
     inkscape:window-width="1280"
     inkscape:window-height="898"
     inkscape:window-x="-8"
     inkscape:window-y="-8"
     inkscape:window-maximized="1"
     inkscape:snap-object-midpoints="true"
     inkscape:snap-bbox="true"
     inkscape:snap-bbox-midpoints="false"
     inkscape:object-paths="false"
     inkscape:object-nodes="false"
     inkscape:snap-smooth-nodes="false"
     inkscape:snap-nodes="false"
     inkscape:bbox-paths="true" />
  <defs
     id="defs4">
    <inkscape:perspective
       sodipodi:type="inkscape:persp3d"
       inkscape:vp_x="0 : 526.18109 : 1"
       inkscape:vp_y="0 : 1000 : 0"
       inkscape:vp_z="744.09448 : 526.18109 : 1"
       inkscape:persp3d-origin="372.04724 : 350.78739 : 1"
       id="perspective10" />
    <inkscape:perspective
       id="perspective2824"
       inkscape:persp3d-origin="0.5 : 0.33333333 : 1"
       inkscape:vp_z="1 : 0.5 : 1"
       inkscape:vp_y="0 : 1000 : 0"
       inkscape:vp_x="0 : 0.5 : 1"
       sodipodi:type="inkscape:persp3d" />
    <inkscape:perspective
       id="perspective14336"
       inkscape:persp3d-origin="0.5 : 0.33333333 : 1"
       inkscape:vp_z="1 : 0.5 : 1"
       inkscape:vp_y="0 : 1000 : 0"
       inkscape:vp_x="0 : 0.5 : 1"
       sodipodi:type="inkscape:persp3d" />
    <marker
       style="overflow:visible"
       id="marker8113-171"
       refX="0"
       refY="0"
       orient="auto"
       inkscape:stockid="Arrow2Mend">
      <path
         transform="scale(-0.6,-0.6)"
         d="M 8.7185878,4.0337352 -2.2072895,0.01601326 8.7185884,-4.0017078 c -1.7454984,2.3720609 -1.7354408,5.6174519 -6e-7,8.035443 z"
         style="font-size:12px;fill-rule:evenodd;stroke-width:0.625;stroke-linejoin:round"
         id="path8115-1" />
    </marker>
    <marker
       style="overflow:visible"
       id="marker8113"
       refX="0"
       refY="0"
       orient="auto"
       inkscape:stockid="Arrow2Mend">
      <path
         transform="scale(-0.6,-0.6)"
         d="M 8.7185878,4.0337352 -2.2072895,0.01601326 8.7185884,-4.0017078 c -1.7454984,2.3720609 -1.7354408,5.6174519 -6e-7,8.035443 z"
         style="font-size:12px;fill-rule:evenodd;stroke-width:0.625;stroke-linejoin:round"
         id="path8115" />
    </marker>
    <marker
       style="overflow:visible"
       id="marker14344"
       refX="0"
       refY="0"
       orient="auto"
       inkscape:stockid="Arrow2Mend">
      <path
         transform="scale(-0.6,-0.6)"
         d="M 8.7185878,4.0337352 -2.2072895,0.01601326 8.7185884,-4.0017078 c -1.7454984,2.3720609 -1.7354408,5.6174519 -6e-7,8.035443 z"
         style="font-size:12px;fill-rule:evenodd;stroke-width:0.625;stroke-linejoin:round"
         id="path14346" />
    </marker>
    <marker
       style="overflow:visible"
       id="marker14348"
       refX="0"
       refY="0"
       orient="auto"
       inkscape:stockid="Arrow2Mend">
      <path
         transform="scale(-0.6,-0.6)"
         d="M 8.7185878,4.0337352 -2.2072895,0.01601326 8.7185884,-4.0017078 c -1.7454984,2.3720609 -1.7354408,5.6174519 -6e-7,8.035443 z"
         style="font-size:12px;fill-rule:evenodd;stroke-width:0.625;stroke-linejoin:round"
         id="path14350" />
    </marker>
    <inkscape:perspective
       id="perspective15355"
       inkscape:persp3d-origin="0.5 : 0.33333333 : 1"
       inkscape:vp_z="1 : 0.5 : 1"
       inkscape:vp_y="0 : 1000 : 0"
       inkscape:vp_x="0 : 0.5 : 1"
       sodipodi:type="inkscape:persp3d" />
    <inkscape:perspective
       id="perspective15377"
       inkscape:persp3d-origin="0.5 : 0.33333333 : 1"
       inkscape:vp_z="1 : 0.5 : 1"
       inkscape:vp_y="0 : 1000 : 0"
       inkscape:vp_x="0 : 0.5 : 1"
       sodipodi:type="inkscape:persp3d" />
    <inkscape:perspective
       id="perspective15377-4"
       inkscape:persp3d-origin="0.5 : 0.33333333 : 1"
       inkscape:vp_z="1 : 0.5 : 1"
       inkscape:vp_y="0 : 1000 : 0"
       inkscape:vp_x="0 : 0.5 : 1"
       sodipodi:type="inkscape:persp3d" />
    <inkscape:perspective
       id="perspective15377-8"
       inkscape:persp3d-origin="0.5 : 0.33333333 : 1"
       inkscape:vp_z="1 : 0.5 : 1"
       inkscape:vp_y="0 : 1000 : 0"
       inkscape:vp_x="0 : 0.5 : 1"
       sodipodi:type="inkscape:persp3d" />
    <inkscape:perspective
       id="perspective15417"
       inkscape:persp3d-origin="0.5 : 0.33333333 : 1"
       inkscape:vp_z="1 : 0.5 : 1"
       inkscape:vp_y="0 : 1000 : 0"
       inkscape:vp_x="0 : 0.5 : 1"
       sodipodi:type="inkscape:persp3d" />
    <inkscape:perspective
       id="perspective15621"
       inkscape:persp3d-origin="0.5 : 0.33333333 : 1"
       inkscape:vp_z="1 : 0.5 : 1"
       inkscape:vp_y="0 : 1000 : 0"
       inkscape:vp_x="0 : 0.5 : 1"
       sodipodi:type="inkscape:persp3d" />
    <inkscape:perspective
       id="perspective4959"
       inkscape:persp3d-origin="0.5 : 0.33333333 : 1"
       inkscape:vp_z="1 : 0.5 : 1"
       inkscape:vp_y="0 : 1000 : 0"
       inkscape:vp_x="0 : 0.5 : 1"
       sodipodi:type="inkscape:persp3d" />
    <inkscape:perspective
       id="perspective6490"
       inkscape:persp3d-origin="0.5 : 0.33333333 : 1"
       inkscape:vp_z="1 : 0.5 : 1"
       inkscape:vp_y="0 : 1000 : 0"
       inkscape:vp_x="0 : 0.5 : 1"
       sodipodi:type="inkscape:persp3d" />
    <inkscape:perspective
       id="perspective3641"
       inkscape:persp3d-origin="0.5 : 0.33333333 : 1"
       inkscape:vp_z="1 : 0.5 : 1"
       inkscape:vp_y="0 : 1000 : 0"
       inkscape:vp_x="0 : 0.5 : 1"
       sodipodi:type="inkscape:persp3d" />
  </defs>
  <metadata
     id="metadata7">
    <rdf:RDF>
      <cc:Work
         rdf:about="">
        <dc:format>image/svg+xml</dc:format>
        <dc:type
           rdf:resource="http://purl.org/dc/dcmitype/StillImage" />
        <dc:title />
      </cc:Work>
    </rdf:RDF>
  </metadata>
  <g
     transform="translate(-208.47784,-344.37276)"
     inkscape:label="Capa 1"
     inkscape:groupmode="layer"
     id="layer1">
    <g
       id="g3356">
      <path
         id="path10861-1"
         d="m 423.26525,432.37277 c 0,48.60097 -39.39896,88 -87.99999,88 -48.60105,0 -88,-39.39903 -88,-88 0,-48.60097 39.39895,-88.00001 88,-88.00001 48.60103,0 87.99999,39.39904 87.99999,88.00001 z"
         style="fill:#000000;fill-opacity:0.17254902;stroke:none" />
      <path
         sodipodi:nodetypes="cc"
         style="fill:none;stroke:#000000;stroke-width:0.78307086;stroke-linecap:butt;stroke-linejoin:miter;stroke-miterlimit:4;stroke-opacity:1;stroke-dasharray:none;marker-start:url(#marker8113-171);marker-end:url(#marker8113)"
         d="m 219.24291,389.65679 c 0,-7.7e-4 0,85.43099 0,85.43099"
         id="path4076-2-4-3-0-9" />
      <path
         id="path4076-2-4-3-6-0-0-7-1-9"
         d="m 219.23511,388.44498 c -7.8e-4,0 116.03015,0 116.03015,0"
         style="fill:none;stroke:#000000;stroke-width:0.35433072;stroke-linecap:butt;stroke-linejoin:miter;stroke-miterlimit:4;stroke-opacity:1;stroke-dasharray:none;stroke-dashoffset:0;marker-end:none"
         sodipodi:nodetypes="cc" />
      <g
         ns0:preamble=""
         ns0:text="\\begin{center}\nPLANO\\\\\nCONDUCTOR\n\\end{center}"
         word-spacing="normal"
         letter-spacing="normal"
         font-size-adjust="none"
         font-stretch="normal"
         font-weight="normal"
         font-variant="normal"
         font-style="normal"
         stroke-miterlimit="10.433"
         xml:space="preserve"
         transform="matrix(1.35,0,0,-1.35,-198.71374,1318.2763)"
         id="g3956"
         style="font-style:normal;font-variant:normal;font-weight:normal;font-stretch:normal;letter-spacing:normal;word-spacing:normal;text-anchor:start;fill:none;stroke:#000000;stroke-linecap:butt;stroke-linejoin:miter;stroke-miterlimit:10.43299961;stroke-opacity:1;stroke-dasharray:none;stroke-dashoffset:0">
<path
   id="path3958"
   d="m 379.7,710.26 -0.03,0.26 v 2.69 c 0,0.32 0.02,0.39 0.48,0.39 h 0.89 c 1.58,0 1.58,-1.05 1.58,-1.54 0,-0.47 0,-1.54 -1.58,-1.54 h -1.37 l 0.03,-0.26 h 1.68 c 1.19,0 2.27,0.81 2.27,1.8 0,0.98 -0.99,1.85 -2.35,1.85 h -3.51 v -0.31 h 0.23 c 0.77,0 0.79,-0.11 0.79,-0.46 v -5.24 c 0,-0.36 -0.02,-0.47 -0.79,-0.47 h -0.23 v -0.3 c 0.34,0.03 1.08,0.03 1.46,0.03 0.38,0 1.12,0 1.47,-0.03 v 0.3 h -0.24 c -0.76,0 -0.78,0.11 -0.78,0.47 z"
   style="fill:#000000;stroke-width:0" />
<path
   id="path3960"
   d="m 390.01,709.69 h -0.25 c -0.11,-1.02 -0.25,-2.26 -2,-2.26 h -0.81 c -0.47,0 -0.49,0.07 -0.49,0.4 v 5.3 c 0,0.33 0,0.47 0.94,0.47 h 0.33 v 0.31 c -0.36,-0.03 -1.26,-0.03 -1.67,-0.03 -0.39,0 -1.17,0 -1.51,0.03 v -0.31 h 0.24 c 0.76,0 0.78,-0.11 0.78,-0.46 v -5.24 c 0,-0.36 -0.02,-0.47 -0.78,-0.47 h -0.24 v -0.3 h 5.18 z"
   style="fill:#000000;stroke-width:0" />
<path
   id="path3962"
   d="m 394.4,714.04 0,0.01 0,0.01 -0.01,0.01 0,0.01 -0.01,0.02 0,0.01 -0.01,0.01 0,0 0,0.01 -0.01,0.01 0,0.01 -0.01,0.01 0,0.01 -0.01,0 0,0.01 -0.01,0.01 0,0 -0.01,0.01 -0.01,0 0,0.01 -0.01,0 -0.01,0.01 -0.01,0 -0.01,0.01 -0.01,0 -0.01,0 -0.01,0 -0.01,0 -0.01,0.01 -0.02,0 -0.01,0 -0.01,0 0,0 c -0.16,0 -0.19,-0.06 -0.24,-0.2 l -2.06,-5.94 c -0.18,-0.51 -0.58,-0.66 -1.12,-0.67 v -0.3 c 0.23,0.01 0.66,0.03 1.02,0.03 0.31,0 0.82,-0.02 1.14,-0.03 v 0.3 c -0.5,0 -0.74,0.25 -0.74,0.51 0,0.03 0.01,0.13 0.02,0.15 l 0.45,1.3 h 2.46 L 395,709.7 h -2.24 l 1.12,3.23 1.12,-3.23 0.11,-0.31 0.53,-1.52 c 0.01,-0.04 0.03,-0.1 0.03,-0.14 0,-0.3 -0.56,-0.3 -0.83,-0.3 v -0.3 c 0.36,0.03 1.06,0.03 1.43,0.03 0.43,0 0.89,-0.01 1.31,-0.03 v 0.3 h -0.18 c -0.6,0 -0.74,0.07 -0.85,0.4 z"
   style="fill:#000000;stroke-width:0" />
<path
   id="path3964"
   d="m 400.23,713.78 -0.01,0.01 -0.01,0.01 -0.01,0.01 -0.01,0.01 0,0.01 -0.01,0.01 0,0 -0.01,0.01 -0.01,0.01 0,0 -0.01,0.01 -0.01,0 0,0.01 -0.01,0 0,0.01 -0.01,0 -0.01,0 -0.01,0.01 0,0 -0.01,0 -0.01,0 -0.01,0 -0.01,0.01 -0.01,0 -0.01,0 -0.01,0 -0.02,0 -0.01,0 -0.01,0 -0.01,0 -0.01,0 -0.01,0 -0.01,0 0,0 -0.01,0 h -1.7 v -0.31 h 0.29 c 0.15,0 0.35,-0.01 0.5,-0.02 0.23,-0.03 0.24,-0.04 0.24,-0.23 v -5.18 c 0,-0.27 0,-0.74 -1.03,-0.74 v -0.3 c 0.35,0.01 0.84,0.03 1.17,0.03 0.33,0 0.82,-0.02 1.16,-0.03 v 0.3 c -1.02,0 -1.02,0.47 -1.02,0.74 v 5.16 c 0.05,-0.05 0.06,-0.06 0.1,-0.12 l 4.06,-5.96 c 0.09,-0.11 0.1,-0.12 0.17,-0.12 0.14,0 0.14,0.06 0.14,0.25 v 5.49 c 0,0.27 0,0.73 1.02,0.73 v 0.31 c -0.35,-0.01 -0.84,-0.03 -1.16,-0.03 -0.33,0 -0.82,0.02 -1.17,0.03 v -0.31 c 1.03,0 1.03,-0.46 1.03,-0.73 v -4.24 z"
   style="fill:#000000;stroke-width:0" />
<path
   id="path3966"
   d="m 412.56,710.49 0,0.19 -0.02,0.19 -0.02,0.18 -0.03,0.18 -0.03,0.18 -0.05,0.17 -0.05,0.17 -0.06,0.17 -0.07,0.16 -0.07,0.15 -0.08,0.16 -0.09,0.14 -0.09,0.15 -0.1,0.13 -0.11,0.13 -0.11,0.13 -0.11,0.12 -0.12,0.11 -0.13,0.11 -0.13,0.1 -0.13,0.1 -0.14,0.08 -0.14,0.08 -0.15,0.07 -0.15,0.07 -0.15,0.06 -0.16,0.04 -0.16,0.04 -0.16,0.04 -0.17,0.02 -0.16,0.01 -0.17,0.01 v -0.25 c 0.86,0 2.29,-0.71 2.29,-3.25 0,-2.63 -1.37,-3.47 -2.28,-3.47 h 0 c -0.96,0 -2.29,0.88 -2.29,3.47 0,2.58 1.45,3.25 2.28,3.25 v 0.25 c -1.78,0 -3.3,-1.59 -3.3,-3.64 0,-2.03 1.53,-3.58 3.3,-3.58 1.81,0 3.31,1.58 3.31,3.58 z"
   style="fill:#000000;stroke-width:0" />
<path
   id="path3968"
   d="m 362.36,698.57 0,-0.19 0.02,-0.19 0.02,-0.19 0.03,-0.18 0.04,-0.18 0.05,-0.17 0.06,-0.17 0.06,-0.17 0.07,-0.16 0.08,-0.15 0.08,-0.15 0.1,-0.15 0.1,-0.14 0.1,-0.14 0.11,-0.13 0.12,-0.12 0.12,-0.12 0.12,-0.11 0.14,-0.11 0.13,-0.1 0.14,-0.09 0.15,-0.08 0.15,-0.08 0.15,-0.07 0.16,-0.07 0.16,-0.05 0.16,-0.05 0.16,-0.04 0.17,-0.03 0.17,-0.02 0.17,-0.01 0.17,-0.01 c 1.62,0 2.6,1.38 2.6,2.53 0,0.1 0,0.17 -0.13,0.17 -0.11,0 -0.11,-0.06 -0.12,-0.16 -0.08,-1.42 -1.15,-2.23 -2.23,-2.23 -0.61,0 -2.56,0.34 -2.56,3.3 0,2.97 1.94,3.3 2.55,3.3 1.09,0 1.97,-0.9 2.17,-2.35 0.02,-0.14 0.02,-0.17 0.16,-0.17 0.16,0 0.16,0.03 0.16,0.24 v 2.35 c 0,0.17 0,0.24 -0.11,0.24 -0.04,0 -0.08,0 -0.16,-0.12 l -0.5,-0.73 c -0.37,0.36 -0.87,0.85 -1.83,0.85 -1.86,0 -3.46,-1.58 -3.46,-3.6 z"
   style="fill:#000000;stroke-width:0" />
<path
   id="path3970"
   d="m 376.17,698.54 0,0.19 -0.02,0.18 -0.02,0.19 -0.03,0.18 -0.04,0.17 -0.04,0.18 -0.05,0.17 -0.06,0.16 -0.07,0.16 -0.07,0.16 -0.08,0.15 -0.09,0.15 -0.09,0.14 -0.1,0.14 -0.11,0.13 -0.11,0.13 -0.11,0.12 -0.12,0.11 -0.13,0.11 -0.13,0.1 -0.13,0.09 -0.14,0.09 -0.14,0.08 -0.15,0.07 -0.15,0.06 -0.15,0.06 -0.16,0.05 -0.16,0.04 -0.16,0.03 -0.17,0.02 -0.16,0.02 -0.17,0 v -0.25 c 0.86,0 2.29,-0.7 2.29,-3.24 0,-2.64 -1.37,-3.47 -2.28,-3.47 h 0 c -0.96,0 -2.29,0.87 -2.29,3.47 0,2.57 1.45,3.24 2.28,3.24 v 0.25 c -1.78,0 -3.31,-1.59 -3.31,-3.63 0,-2.04 1.54,-3.59 3.31,-3.59 1.81,0 3.31,1.58 3.31,3.59 z"
   style="fill:#000000;stroke-width:0" />
<path
   id="path3972"
   d="m 379.05,701.83 0,0.01 -0.01,0.01 -0.01,0.01 -0.01,0.01 0,0 -0.01,0.01 -0.01,0.01 0,0.01 -0.01,0 0,0.01 -0.01,0 -0.01,0.01 0,0 -0.01,0.01 -0.01,0 0,0.01 -0.01,0 -0.01,0 0,0 -0.01,0.01 -0.01,0 -0.01,0 -0.01,0 -0.01,0 -0.01,0 -0.01,0 -0.02,0 -0.01,0 -0.02,0 0,0 -0.01,0 -0.01,0 -0.01,0 -0.01,0.01 0,0 h -1.7 v -0.31 h 0.29 c 0.15,0 0.35,-0.01 0.5,-0.02 0.23,-0.03 0.24,-0.04 0.24,-0.23 v -5.19 c 0,-0.26 0,-0.73 -1.03,-0.73 v -0.31 c 0.35,0.01 0.84,0.03 1.17,0.03 0.33,0 0.81,-0.02 1.16,-0.03 v 0.31 c -1.02,0 -1.02,0.47 -1.02,0.73 v 5.17 c 0.05,-0.05 0.06,-0.06 0.1,-0.12 l 4.06,-5.96 c 0.09,-0.12 0.1,-0.13 0.16,-0.13 0.15,0 0.15,0.07 0.15,0.26 v 5.48 c 0,0.27 0,0.74 1.02,0.74 v 0.31 c -0.35,-0.01 -0.84,-0.04 -1.17,-0.04 -0.32,0 -0.81,0.03 -1.16,0.04 v -0.31 c 1.03,0 1.03,-0.47 1.03,-0.74 v -4.24 z"
   style="fill:#000000;stroke-width:0" />
<path
   id="path3974"
   d="m 384.57,701.96 v -0.31 h 0.23 c 0.77,0 0.79,-0.11 0.79,-0.47 v -5.23 c 0,-0.36 -0.02,-0.47 -0.79,-0.47 h -0.23 v -0.31 h 3.64 l -0.27,0.31 h -1.01 c -0.46,0 -0.48,0.07 -0.48,0.4 v 5.37 c 0,0.33 0.02,0.4 0.48,0.4 h 1 c 0.62,0 1.3,-0.22 1.81,-0.93 0.43,-0.58 0.52,-1.44 0.52,-2.21 0,-1.1 -0.19,-1.7 -0.55,-2.19 -0.2,-0.27 -0.77,-0.84 -1.77,-0.84 l 0.27,-0.31 c 1.67,0 3.04,1.47 3.04,3.34 0,1.89 -1.34,3.45 -3.04,3.45 z"
   style="fill:#000000;stroke-width:0" />
<path
   id="path3976"
   d="m 397.62,697.47 0,-0.14 -0.01,-0.12 -0.02,-0.13 -0.01,-0.11 -0.03,-0.12 -0.03,-0.11 -0.03,-0.11 -0.04,-0.1 -0.04,-0.11 -0.04,-0.09 -0.05,-0.09 -0.06,-0.09 -0.05,-0.09 -0.06,-0.08 -0.07,-0.07 -0.06,-0.08 -0.07,-0.07 -0.07,-0.06 -0.08,-0.06 -0.07,-0.06 -0.08,-0.05 -0.08,-0.04 -0.08,-0.05 -0.08,-0.03 -0.09,-0.04 -0.08,-0.03 -0.09,-0.02 -0.09,-0.02 -0.09,-0.02 -0.08,-0.01 -0.09,-0.01 -0.09,0 c -0.47,0 -1.64,0.25 -1.64,2.14 v 3.78 c 0,0.36 0.02,0.47 0.78,0.47 h 0.24 v 0.31 c -0.35,-0.04 -1.08,-0.04 -1.46,-0.04 -0.38,0 -1.12,0 -1.47,0.04 v -0.31 h 0.23 c 0.77,0 0.79,-0.11 0.79,-0.47 v -3.75 c 0,-1.4 1.15,-2.48 2.51,-2.48 1.14,0 2.04,0.93 2.21,2.06 0.03,0.2 0.03,0.29 0.03,0.68 v 3.18 c 0,0.33 0,0.78 1.02,0.78 v 0.31 c -0.36,-0.01 -0.83,-0.04 -1.17,-0.04 -0.35,0 -0.83,0.03 -1.19,0.04 v -0.31 c 1.03,0 1.03,-0.47 1.03,-0.74 z"
   style="fill:#000000;stroke-width:0" />
<path
   id="path3978"
   d="m 399.86,698.57 0,-0.19 0.02,-0.19 0.02,-0.19 0.03,-0.18 0.04,-0.18 0.05,-0.17 0.05,-0.17 0.07,-0.17 0.07,-0.16 0.08,-0.15 0.08,-0.15 0.09,-0.15 0.1,-0.14 0.11,-0.14 0.11,-0.13 0.11,-0.12 0.13,-0.12 0.12,-0.11 0.13,-0.11 0.14,-0.1 0.14,-0.09 0.15,-0.08 0.15,-0.08 0.15,-0.07 0.15,-0.07 0.16,-0.05 0.17,-0.05 0.16,-0.04 0.17,-0.03 0.17,-0.02 0.17,-0.01 0.17,-0.01 c 1.62,0 2.6,1.38 2.6,2.53 0,0.1 0,0.17 -0.13,0.17 -0.11,0 -0.11,-0.06 -0.12,-0.16 -0.08,-1.42 -1.15,-2.23 -2.23,-2.23 -0.61,0 -2.56,0.34 -2.56,3.3 0,2.97 1.94,3.3 2.55,3.3 1.08,0 1.97,-0.9 2.17,-2.35 0.02,-0.14 0.02,-0.17 0.16,-0.17 0.16,0 0.16,0.03 0.16,0.24 v 2.35 c 0,0.17 0,0.24 -0.11,0.24 -0.04,0 -0.08,0 -0.16,-0.12 l -0.5,-0.73 c -0.37,0.36 -0.88,0.85 -1.83,0.85 -1.86,0 -3.46,-1.58 -3.46,-3.6 z"
   style="fill:#000000;stroke-width:0" />
<path
   id="path3980"
   d="m 413.12,701.9 h -6.08 l -0.19,-2.24 h 0.25 c 0.14,1.6 0.29,1.93 1.79,1.93 0.18,0 0.44,0 0.54,-0.02 0.21,-0.04 0.21,-0.15 0.21,-0.38 v -5.23 c 0,-0.34 0,-0.48 -1.05,-0.48 h -0.39 v -0.31 c 0.4,0.03 1.42,0.03 1.88,0.03 0.45,0 1.48,0 1.89,-0.03 v 0.31 h -0.4 c -1.05,0 -1.05,0.14 -1.05,0.48 v 5.23 c 0,0.2 0,0.34 0.18,0.38 0.11,0.02 0.38,0.02 0.57,0.02 1.5,0 1.65,-0.33 1.79,-1.93 h 0.25 z"
   style="fill:#000000;stroke-width:0" />
<path
   id="path3982"
   d="m 420.86,698.54 0,0.19 -0.01,0.18 -0.03,0.19 -0.03,0.18 -0.03,0.17 -0.05,0.18 -0.05,0.17 -0.06,0.16 -0.07,0.16 -0.07,0.16 -0.08,0.15 -0.09,0.15 -0.09,0.14 -0.1,0.14 -0.1,0.13 -0.11,0.13 -0.12,0.12 -0.12,0.11 -0.13,0.11 -0.13,0.1 -0.13,0.09 -0.14,0.09 -0.14,0.08 -0.15,0.07 -0.15,0.06 -0.15,0.06 -0.16,0.05 -0.16,0.04 -0.16,0.03 -0.16,0.02 -0.17,0.02 -0.17,0 v -0.25 c 0.87,0 2.29,-0.7 2.29,-3.24 0,-2.64 -1.36,-3.47 -2.28,-3.47 h 0 c -0.95,0 -2.29,0.87 -2.29,3.47 0,2.57 1.46,3.24 2.28,3.24 v 0.25 c -1.78,0 -3.3,-1.59 -3.3,-3.63 0,-2.04 1.53,-3.59 3.3,-3.59 1.81,0 3.31,1.58 3.31,3.59 z"
   style="fill:#000000;stroke-width:0" />
<path
   id="path3984"
   d="m 425.77,698.55 0.09,0.02 0.09,0.03 0.08,0.02 0.09,0.03 0.08,0.04 0.09,0.03 0.08,0.03 0.08,0.04 0.07,0.04 0.08,0.04 0.07,0.05 0.07,0.04 0.07,0.05 0.07,0.04 0.06,0.05 0.06,0.06 0.06,0.05 0.05,0.05 0.05,0.06 0.05,0.06 0.05,0.06 0.04,0.06 0.04,0.06 0.03,0.06 0.03,0.06 0.03,0.07 0.02,0.07 0.02,0.06 0.02,0.07 0.01,0.07 0.01,0.07 0,0.08 c 0,0.95 -1.14,1.79 -2.6,1.79 h -3.12 v -0.31 h 0.24 c 0.76,0 0.78,-0.11 0.78,-0.47 v -5.23 c 0,-0.36 -0.02,-0.47 -0.78,-0.47 h -0.24 v -0.31 c 0.35,0.03 1.06,0.03 1.45,0.03 0.39,0 1.09,0 1.45,-0.03 v 0.31 h -0.24 c -0.76,0 -0.78,0.11 -0.78,0.47 v 2.51 0.22 2.57 c 0,0.23 0,0.35 0.22,0.38 0.1,0.02 0.38,0.02 0.58,0.02 0.9,0 2.01,-0.04 2.01,-1.48 0,-0.69 -0.24,-1.49 -1.71,-1.49 h -1.1 v -0.22 h 1.14 c 0.16,0 0.58,0 0.93,-0.34 0.37,-0.36 0.37,-0.66 0.37,-1.33 0,-0.65 0,-1.04 0.41,-1.42 0.41,-0.36 0.96,-0.42 1.26,-0.42 0.77,0 0.94,0.82 0.94,1.09 0,0.06 0,0.17 -0.13,0.17 -0.11,0 -0.11,-0.09 -0.12,-0.16 -0.06,-0.7 -0.4,-0.88 -0.65,-0.88 -0.49,0 -0.57,0.51 -0.71,1.43 l -0.13,0.8 c -0.18,0.63 -0.67,0.96 -1.21,1.15 z"
   style="fill:#000000;stroke-width:0" />
</g>      <path
         id="path10861"
         d="m 379.19304,432.37276 c 0,24.26064 -19.66714,43.92778 -43.92778,43.92778 -24.26065,0 -43.92779,-19.66714 -43.92779,-43.92778 0,-24.26063 19.66714,-43.92778 43.92779,-43.92778 24.26064,0 43.92778,19.66715 43.92778,43.92778 z"
         style="fill:#ffffff;fill-opacity:1;stroke:#000000;stroke-width:2.34443331;stroke-linejoin:miter;stroke-miterlimit:4;stroke-opacity:1;stroke-dasharray:none;stroke-dashoffset:0" />
      <path
         id="path4076-2-4-3-6-0-0-7-1"
         d="m 219.24784,476.30078 c -7.8e-4,0 116.01742,0 116.01742,0"
         style="fill:none;stroke:#000000;stroke-width:0.35433072;stroke-linecap:butt;stroke-linejoin:miter;stroke-miterlimit:4;stroke-opacity:1;stroke-dasharray:none;stroke-dashoffset:0;marker-end:none"
         sodipodi:nodetypes="cc" />
      <g
         style="font-style:normal;font-variant:normal;font-weight:normal;font-stretch:normal;letter-spacing:normal;word-spacing:normal;text-anchor:start;fill:none;stroke:#000000;stroke-linecap:butt;stroke-linejoin:miter;stroke-miterlimit:10.43299961;stroke-opacity:1;stroke-dasharray:none;stroke-dashoffset:0"
         id="content"
         transform="matrix(1.35,0,0,-1.35,-4.20574,1453.6513)"
         xml:space="preserve"
         stroke-miterlimit="10.433"
         font-style="normal"
         font-variant="normal"
         font-weight="normal"
         font-stretch="normal"
         font-size-adjust="none"
         letter-spacing="normal"
         word-spacing="normal"
         ns0:text="PERFECTO"
         ns0:preamble="">
<path
   style="fill:#000000;stroke-width:0"
   d="m 225.69,710.26 -0.03,0.26 v 2.69 c 0,0.32 0.02,0.39 0.49,0.39 h 0.88 c 1.59,0 1.59,-1.05 1.59,-1.54 0,-0.47 0,-1.54 -1.59,-1.54 h -1.37 l 0.03,-0.26 h 1.68 c 1.2,0 2.27,0.81 2.27,1.8 0,0.98 -0.99,1.85 -2.35,1.85 h -3.51 v -0.31 h 0.24 c 0.77,0 0.78,-0.11 0.78,-0.46 v -5.24 c 0,-0.36 -0.01,-0.47 -0.78,-0.47 h -0.24 v -0.3 c 0.35,0.03 1.09,0.03 1.46,0.03 0.38,0 1.13,0 1.47,-0.03 v 0.3 h -0.23 c -0.77,0 -0.79,0.11 -0.79,0.47 z"
   id="path3471" />
<path
   style="fill:#000000;stroke-width:0"
   d="m 231.57,707.9 0,-0.03 0,-0.03 -0.01,-0.03 0,-0.03 0,-0.03 0,-0.03 0,-0.02 -0.01,-0.02 0,-0.03 -0.01,-0.02 -0.01,-0.02 -0.01,-0.02 -0.01,-0.01 -0.02,-0.02 -0.01,-0.01 -0.02,-0.02 -0.02,-0.01 -0.02,-0.01 -0.01,-0.01 -0.02,0 -0.01,-0.01 -0.01,0 -0.02,-0.01 -0.02,0 -0.01,-0.01 -0.02,0 -0.02,0 -0.01,-0.01 -0.02,0 -0.02,0 -0.02,-0.01 -0.03,0 -0.02,0 -0.02,0 -0.03,-0.01 -0.02,0 -0.03,0 -0.03,0 -0.02,0 -0.03,0 -0.03,0 -0.03,-0.01 -0.04,0 -0.03,0 -0.03,0 -0.04,0 h -0.24 v -0.3 h 5.74 l 0.42,2.56 h -0.25 c -0.25,-1.53 -0.48,-2.26 -2.19,-2.26 h -1.32 c -0.47,0 -0.49,0.07 -0.49,0.4 v 2.65 h 0.9 c 0.96,0 1.07,-0.32 1.07,-1.16 h 0.25 v 2.63 h -0.25 c 0,-0.85 -0.11,-1.16 -1.07,-1.16 h -0.9 v 2.38 c 0,0.33 0.02,0.4 0.49,0.4 h 1.28 c 1.52,0 1.79,-0.54 1.95,-1.92 h 0.25 l -0.28,2.23 h -5.6 v -0.31 h 0.24 c 0.77,0 0.79,-0.11 0.79,-0.47 z"
   id="path3473" />
<path
   style="fill:#000000;stroke-width:0"
   d="m 241.32,710.5 0.09,0.03 0.09,0.02 0.09,0.03 0.08,0.03 0.09,0.03 0.08,0.03 0.08,0.04 0.08,0.04 0.08,0.04 0.07,0.04 0.08,0.04 0.07,0.05 0.06,0.04 0.07,0.05 0.06,0.05 0.06,0.05 0.06,0.05 0.06,0.06 0.05,0.05 0.05,0.06 0.04,0.06 0.04,0.06 0.04,0.06 0.04,0.07 0.03,0.06 0.02,0.07 0.03,0.06 0.02,0.07 0.01,0.07 0.01,0.07 0.01,0.07 0,0.07 c 0,0.96 -1.13,1.79 -2.6,1.79 h -3.12 v -0.31 h 0.24 c 0.77,0 0.79,-0.11 0.79,-0.46 v -5.24 c 0,-0.36 -0.02,-0.47 -0.79,-0.47 h -0.24 v -0.3 c 0.36,0.03 1.07,0.03 1.45,0.03 0.39,0 1.1,0 1.46,-0.03 v 0.3 h -0.24 c -0.77,0 -0.79,0.11 -0.79,0.47 v 2.51 0.22 2.58 c 0,0.22 0,0.34 0.22,0.37 0.1,0.02 0.39,0.02 0.59,0.02 0.89,0 2.01,-0.04 2.01,-1.48 0,-0.68 -0.24,-1.49 -1.71,-1.49 h -1.11 v -0.22 h 1.15 c 0.15,0 0.57,0 0.92,-0.33 0.38,-0.36 0.38,-0.67 0.38,-1.34 0,-0.64 0,-1.04 0.41,-1.42 0.41,-0.35 0.95,-0.41 1.25,-0.41 0.78,0 0.95,0.81 0.95,1.09 0,0.06 0,0.17 -0.13,0.17 -0.11,0 -0.11,-0.09 -0.12,-0.16 -0.06,-0.71 -0.41,-0.88 -0.66,-0.88 -0.49,0 -0.57,0.5 -0.71,1.42 l -0.12,0.8 c -0.18,0.64 -0.67,0.96 -1.22,1.15 z"
   id="path3475" />
<path
   style="fill:#000000;stroke-width:0"
   d="m 250.12,713.88 h -5.47 v -0.31 h 0.24 c 0.77,0 0.79,-0.11 0.79,-0.47 v -5.2 c 0,-0.36 -0.02,-0.47 -0.79,-0.47 h -0.24 v -0.3 c 0.35,0.03 1.13,0.03 1.52,0.03 0.4,0 1.31,0 1.67,-0.03 v 0.3 h -0.33 c -0.94,0 -0.94,0.13 -0.94,0.48 v 2.44 h 0.85 c 0.96,0 1.06,-0.31 1.06,-1.16 h 0.24 v 2.63 h -0.24 c 0,-0.83 -0.1,-1.16 -1.06,-1.16 h -0.85 v 2.51 c 0,0.33 0.02,0.4 0.48,0.4 h 1.2 c 1.49,0 1.74,-0.55 1.9,-1.92 h 0.25 z"
   id="path3477" />
<path
   style="fill:#000000;stroke-width:0"
   d="m 252.18,707.9 0,-0.03 0,-0.03 0,-0.03 0,-0.03 0,-0.03 0,-0.03 -0.01,-0.02 0,-0.02 -0.01,-0.03 -0.01,-0.02 0,-0.02 -0.01,-0.02 -0.02,-0.01 -0.01,-0.02 -0.01,-0.01 -0.02,-0.02 -0.02,-0.01 -0.03,-0.01 -0.01,-0.01 -0.01,0 -0.01,-0.01 -0.02,0 -0.01,-0.01 -0.02,0 -0.01,-0.01 -0.02,0 -0.02,0 -0.02,-0.01 -0.02,0 -0.02,0 -0.02,-0.01 -0.02,0 -0.02,0 -0.03,0 -0.02,-0.01 -0.03,0 -0.02,0 -0.03,0 -0.03,0 -0.03,0 -0.03,0 -0.03,-0.01 -0.03,0 -0.03,0 -0.04,0 -0.03,0 h -0.24 v -0.3 h 5.74 l 0.42,2.56 h -0.25 c -0.25,-1.53 -0.48,-2.26 -2.19,-2.26 h -1.32 c -0.47,0 -0.49,0.07 -0.49,0.4 v 2.65 h 0.89 c 0.97,0 1.08,-0.32 1.08,-1.16 h 0.25 v 2.63 h -0.25 c 0,-0.85 -0.11,-1.16 -1.08,-1.16 h -0.89 v 2.38 c 0,0.33 0.02,0.4 0.49,0.4 h 1.28 c 1.52,0 1.79,-0.54 1.95,-1.92 h 0.25 l -0.28,2.23 h -5.6 v -0.31 h 0.24 c 0.76,0 0.78,-0.11 0.78,-0.47 z"
   id="path3479" />
<path
   style="fill:#000000;stroke-width:0"
   d="m 258.17,710.52 0,-0.19 0.02,-0.19 0.02,-0.18 0.03,-0.18 0.04,-0.18 0.05,-0.18 0.06,-0.16 0.06,-0.17 0.07,-0.16 0.08,-0.16 0.08,-0.15 0.1,-0.15 0.09,-0.14 0.11,-0.13 0.11,-0.13 0.12,-0.13 0.12,-0.12 0.12,-0.11 0.14,-0.1 0.13,-0.1 0.14,-0.09 0.15,-0.09 0.15,-0.08 0.15,-0.07 0.15,-0.06 0.16,-0.06 0.17,-0.04 0.16,-0.04 0.17,-0.03 0.17,-0.03 0.17,-0.01 0.17,0 c 1.62,0 2.6,1.38 2.6,2.53 0,0.1 0,0.17 -0.13,0.17 -0.11,0 -0.11,-0.06 -0.12,-0.16 -0.08,-1.42 -1.15,-2.24 -2.23,-2.24 -0.61,0 -2.56,0.34 -2.56,3.3 0,2.97 1.94,3.31 2.55,3.31 1.08,0 1.97,-0.9 2.17,-2.35 0.02,-0.14 0.02,-0.17 0.16,-0.17 0.16,0 0.16,0.03 0.16,0.24 v 2.35 c 0,0.17 0,0.24 -0.11,0.24 -0.04,0 -0.08,0 -0.16,-0.12 l -0.5,-0.74 c -0.37,0.36 -0.88,0.86 -1.83,0.86 -1.86,0 -3.46,-1.58 -3.46,-3.61 z"
   id="path3481" />
<path
   style="fill:#000000;stroke-width:0"
   d="m 271.43,713.85 h -6.08 l -0.19,-2.24 h 0.25 c 0.14,1.6 0.29,1.93 1.79,1.93 0.18,0 0.44,0 0.54,-0.02 0.21,-0.04 0.21,-0.15 0.21,-0.37 v -5.24 c 0,-0.34 0,-0.48 -1.05,-0.48 h -0.39 v -0.3 c 0.41,0.03 1.42,0.03 1.88,0.03 0.46,0 1.48,0 1.89,-0.03 v 0.3 h -0.4 c -1.05,0 -1.05,0.14 -1.05,0.48 v 5.24 c 0,0.19 0,0.33 0.18,0.37 0.11,0.02 0.38,0.02 0.57,0.02 1.5,0 1.65,-0.33 1.79,-1.93 h 0.25 z"
   id="path3483" />
<path
   style="fill:#000000;stroke-width:0"
   d="m 279.17,710.49 0,0.19 -0.01,0.19 -0.02,0.18 -0.03,0.18 -0.04,0.18 -0.05,0.17 -0.05,0.17 -0.06,0.17 -0.07,0.16 -0.07,0.15 -0.08,0.16 -0.09,0.14 -0.09,0.15 -0.1,0.13 -0.1,0.13 -0.11,0.13 -0.12,0.12 -0.12,0.11 -0.12,0.11 -0.13,0.1 -0.14,0.1 -0.14,0.08 -0.14,0.08 -0.15,0.07 -0.15,0.07 -0.15,0.06 -0.16,0.04 -0.16,0.04 -0.16,0.04 -0.16,0.02 -0.17,0.01 -0.17,0.01 v -0.25 c 0.87,0 2.29,-0.71 2.29,-3.25 0,-2.63 -1.36,-3.47 -2.28,-3.47 h 0 c -0.95,0 -2.29,0.88 -2.29,3.47 0,2.58 1.46,3.25 2.28,3.25 v 0.25 c -1.78,0 -3.3,-1.59 -3.3,-3.64 0,-2.03 1.53,-3.58 3.3,-3.58 1.81,0 3.31,1.58 3.31,3.58 z"
   id="path3485" />
</g>      <g
         style="font-style:normal;font-variant:normal;font-weight:normal;font-stretch:normal;letter-spacing:normal;word-spacing:normal;text-anchor:start;fill:none;stroke:#000000;stroke-linecap:butt;stroke-linejoin:miter;stroke-miterlimit:10.43299961;stroke-opacity:1;stroke-dasharray:none;stroke-dashoffset:0"
         id="g3266"
         transform="matrix(1.35,0,0,-1.35,-93.69266,1391.5748)"
         xml:space="preserve"
         stroke-miterlimit="10.433"
         font-style="normal"
         font-variant="normal"
         font-weight="normal"
         font-stretch="normal"
         font-size-adjust="none"
         letter-spacing="normal"
         word-spacing="normal"
         ns0:text="$d$"
         ns0:preamble="">
<path
   style="fill:#000000;stroke-width:0"
   d="m 228.57,713.91 0,0 0,0 0,0 0,0 0,0.01 0,0 0,0 -0.01,0.01 0,0 0,0.01 0,0 0,0 0,0.01 0,0 0,0.01 -0.01,0 0,0.01 0,0 -0.01,0.01 0,0 -0.01,0.01 0,0 0,0 0,0 -0.01,0.01 0,0 0,0 -0.01,0 0,0 0,0.01 -0.01,0 0,0 0,0 -0.01,0 0,0 -0.01,0 0,0 -0.01,0.01 0,0 -0.01,0 0,0 -0.01,0 0,0 -0.01,0 0,0 c -0.15,0 -1.1,-0.09 -1.27,-0.11 -0.08,-0.01 -0.14,-0.06 -0.14,-0.19 0,-0.12 0.09,-0.12 0.24,-0.12 0.48,0 0.5,-0.07 0.5,-0.17 l -0.03,-0.2 -0.6,-2.35 c -0.18,0.37 -0.46,0.64 -0.91,0.64 -1.17,0 -2.4,-1.47 -2.4,-2.92 0,-0.93 0.55,-1.58 1.32,-1.58 l 0.02,0.21 c -0.49,0 -0.63,0.55 -0.63,0.94 0,0.49 0.31,1.72 0.54,2.17 0.31,0.59 0.76,0.96 1.16,0.96 0.64,0 0.78,-0.82 0.78,-0.88 0,-0.06 -0.02,-0.12 -0.03,-0.17 l -0.49,-1.94 c -0.05,-0.18 -0.05,-0.2 -0.2,-0.37 -0.44,-0.55 -0.85,-0.71 -1.13,-0.71 l -0.02,-0.21 c 0.2,0 0.7,0.03 1.3,0.74 0.08,-0.42 0.42,-0.74 0.9,-0.74 0.35,0 0.58,0.22 0.74,0.54 0.17,0.36 0.3,0.97 0.3,0.99 0,0.1 -0.09,0.1 -0.12,0.1 -0.1,0 -0.11,-0.05 -0.14,-0.18 -0.17,-0.65 -0.35,-1.24 -0.76,-1.24 -0.27,0 -0.3,0.26 -0.3,0.46 0,0.24 0.02,0.31 0.06,0.48 z"
   id="path3268" />
</g>    </g>
  </g>
</svg>
