<?xml version="1.0" encoding="UTF-8" standalone="no"?>
<!-- Created with Inkscape (http://www.inkscape.org/) -->

<svg
   xmlns:ns0="http://www.iki.fi/pav/software/textext/"
   xmlns:dc="http://purl.org/dc/elements/1.1/"
   xmlns:cc="http://creativecommons.org/ns#"
   xmlns:rdf="http://www.w3.org/1999/02/22-rdf-syntax-ns#"
   xmlns:svg="http://www.w3.org/2000/svg"
   xmlns="http://www.w3.org/2000/svg"
   xmlns:sodipodi="http://sodipodi.sourceforge.net/DTD/sodipodi-0.dtd"
   xmlns:inkscape="http://www.inkscape.org/namespaces/inkscape"
   width="332.27454"
   height="253.97411"
   id="svg2"
   version="1.1"
   inkscape:version="0.47 r22583"
   sodipodi:docname="estudio_32.svg">
  <sodipodi:namedview
     id="base"
     pagecolor="#ffffff"
     bordercolor="#666666"
     borderopacity="1.0"
     inkscape:pageopacity="0.0"
     inkscape:pageshadow="2"
     inkscape:zoom="1.4"
     inkscape:cx="199.1438"
     inkscape:cy="126.91808"
     inkscape:document-units="px"
     inkscape:current-layer="layer1"
     showgrid="false"
     inkscape:window-width="1366"
     inkscape:window-height="705"
     inkscape:window-x="-8"
     inkscape:window-y="-8"
     inkscape:window-maximized="1"
     inkscape:snap-page="false"
     inkscape:object-nodes="true"
     inkscape:object-paths="false"
     inkscape:snap-smooth-nodes="true"
     inkscape:snap-midpoints="false" />
  <defs
     id="defs4">
    <inkscape:perspective
       id="perspective10"
       inkscape:persp3d-origin="372.04724 : 350.78739 : 1"
       inkscape:vp_z="744.09448 : 526.18109 : 1"
       inkscape:vp_y="0 : 1000 : 0"
       inkscape:vp_x="0 : 526.18109 : 1"
       sodipodi:type="inkscape:persp3d" />
    <inkscape:perspective
       sodipodi:type="inkscape:persp3d"
       inkscape:vp_x="0 : 0.5 : 1"
       inkscape:vp_y="0 : 1000 : 0"
       inkscape:vp_z="1 : 0.5 : 1"
       inkscape:persp3d-origin="0.5 : 0.33333333 : 1"
       id="perspective2824" />
    <inkscape:perspective
       sodipodi:type="inkscape:persp3d"
       inkscape:vp_x="0 : 0.5 : 1"
       inkscape:vp_y="0 : 1000 : 0"
       inkscape:vp_z="1 : 0.5 : 1"
       inkscape:persp3d-origin="0.5 : 0.33333333 : 1"
       id="perspective4471" />
    <marker
       style="overflow:visible"
       id="Arrow2Mstart"
       refX="0"
       refY="0"
       orient="auto"
       inkscape:stockid="Arrow2Mstart">
      <path
         transform="scale(0.6,0.6)"
         d="M 8.7185878,4.0337352 -2.2072895,0.01601326 8.7185884,-4.0017078 c -1.7454984,2.3720609 -1.7354408,5.6174519 -6e-7,8.035443 z"
         style="font-size:12px;fill-rule:evenodd;stroke-width:0.625;stroke-linejoin:round"
         id="path4156" />
    </marker>
    <marker
       style="overflow:visible"
       id="Arrow2Mend"
       refX="0"
       refY="0"
       orient="auto"
       inkscape:stockid="Arrow2Mend">
      <path
         transform="scale(-0.6,-0.6)"
         d="M 8.7185878,4.0337352 -2.2072895,0.01601326 8.7185884,-4.0017078 c -1.7454984,2.3720609 -1.7354408,5.6174519 -6e-7,8.035443 z"
         style="font-size:12px;fill-rule:evenodd;stroke-width:0.625;stroke-linejoin:round"
         id="path4159" />
    </marker>
    <inkscape:perspective
       sodipodi:type="inkscape:persp3d"
       inkscape:vp_x="0 : 0.5 : 1"
       inkscape:vp_y="0 : 1000 : 0"
       inkscape:vp_z="1 : 0.5 : 1"
       inkscape:persp3d-origin="0.5 : 0.33333333 : 1"
       id="perspective3512" />
    <inkscape:perspective
       sodipodi:type="inkscape:persp3d"
       inkscape:vp_x="0 : 0.5 : 1"
       inkscape:vp_y="0 : 1000 : 0"
       inkscape:vp_z="1 : 0.5 : 1"
       inkscape:persp3d-origin="0.5 : 0.33333333 : 1"
       id="perspective3512-7" />
    <inkscape:perspective
       sodipodi:type="inkscape:persp3d"
       inkscape:vp_x="0 : 0.5 : 1"
       inkscape:vp_y="0 : 1000 : 0"
       inkscape:vp_z="1 : 0.5 : 1"
       inkscape:persp3d-origin="0.5 : 0.33333333 : 1"
       id="perspective3543" />
    <marker
       style="overflow:visible"
       id="Arrow2Mstart-0"
       refX="0"
       refY="0"
       orient="auto"
       inkscape:stockid="Arrow2Mstart">
      <path
         transform="scale(0.6,0.6)"
         d="M 8.7185878,4.0337352 -2.2072895,0.01601326 8.7185884,-4.0017078 c -1.7454984,2.3720609 -1.7354408,5.6174519 -6e-7,8.035443 z"
         style="font-size:12px;fill-rule:evenodd;stroke-width:0.625;stroke-linejoin:round"
         id="path4156-9" />
    </marker>
    <marker
       style="overflow:visible"
       id="Arrow2Mend-4"
       refX="0"
       refY="0"
       orient="auto"
       inkscape:stockid="Arrow2Mend">
      <path
         transform="scale(-0.6,-0.6)"
         d="M 8.7185878,4.0337352 -2.2072895,0.01601326 8.7185884,-4.0017078 c -1.7454984,2.3720609 -1.7354408,5.6174519 -6e-7,8.035443 z"
         style="font-size:12px;fill-rule:evenodd;stroke-width:0.625;stroke-linejoin:round"
         id="path4159-8" />
    </marker>
    <inkscape:perspective
       sodipodi:type="inkscape:persp3d"
       inkscape:vp_x="0 : 0.5 : 1"
       inkscape:vp_y="0 : 1000 : 0"
       inkscape:vp_z="1 : 0.5 : 1"
       inkscape:persp3d-origin="0.5 : 0.33333333 : 1"
       id="perspective4547" />
    <inkscape:perspective
       sodipodi:type="inkscape:persp3d"
       inkscape:vp_x="0 : 0.5 : 1"
       inkscape:vp_y="0 : 1000 : 0"
       inkscape:vp_z="1 : 0.5 : 1"
       inkscape:persp3d-origin="0.5 : 0.33333333 : 1"
       id="perspective4569" />
    <inkscape:perspective
       id="perspective5662"
       inkscape:persp3d-origin="0.5 : 0.33333333 : 1"
       inkscape:vp_z="1 : 0.5 : 1"
       inkscape:vp_y="0 : 1000 : 0"
       inkscape:vp_x="0 : 0.5 : 1"
       sodipodi:type="inkscape:persp3d" />
    <inkscape:perspective
       id="perspective6072"
       inkscape:persp3d-origin="0.5 : 0.33333333 : 1"
       inkscape:vp_z="1 : 0.5 : 1"
       inkscape:vp_y="0 : 1000 : 0"
       inkscape:vp_x="0 : 0.5 : 1"
       sodipodi:type="inkscape:persp3d" />
    <inkscape:perspective
       id="perspective6094"
       inkscape:persp3d-origin="0.5 : 0.33333333 : 1"
       inkscape:vp_z="1 : 0.5 : 1"
       inkscape:vp_y="0 : 1000 : 0"
       inkscape:vp_x="0 : 0.5 : 1"
       sodipodi:type="inkscape:persp3d" />
    <marker
       style="overflow:visible"
       id="Arrow2Mend-4-5"
       refX="0"
       refY="0"
       orient="auto"
       inkscape:stockid="Arrow2Mend">
      <path
         transform="scale(-0.6,-0.6)"
         d="M 8.7185878,4.0337352 -2.2072895,0.01601326 8.7185884,-4.0017078 c -1.7454984,2.3720609 -1.7354408,5.6174519 -6e-7,8.035443 z"
         style="font-size:12px;fill-rule:evenodd;stroke-width:0.625;stroke-linejoin:round"
         id="path4159-8-1" />
    </marker>
    <inkscape:perspective
       id="perspective6396"
       inkscape:persp3d-origin="0.5 : 0.33333333 : 1"
       inkscape:vp_z="1 : 0.5 : 1"
       inkscape:vp_y="0 : 1000 : 0"
       inkscape:vp_x="0 : 0.5 : 1"
       sodipodi:type="inkscape:persp3d" />
    <marker
       style="overflow:visible"
       id="Arrow2Mend-4-1"
       refX="0"
       refY="0"
       orient="auto"
       inkscape:stockid="Arrow2Mend">
      <path
         transform="scale(-0.6,-0.6)"
         d="M 8.7185878,4.0337352 -2.2072895,0.01601326 8.7185884,-4.0017078 c -1.7454984,2.3720609 -1.7354408,5.6174519 -6e-7,8.035443 z"
         style="font-size:12px;fill-rule:evenodd;stroke-width:0.625;stroke-linejoin:round"
         id="path4159-8-15" />
    </marker>
    <inkscape:perspective
       sodipodi:type="inkscape:persp3d"
       inkscape:vp_x="0 : 0.5 : 1"
       inkscape:vp_y="0 : 1000 : 0"
       inkscape:vp_z="1 : 0.5 : 1"
       inkscape:persp3d-origin="0.5 : 0.33333333 : 1"
       id="perspective7548" />
  </defs>
  <metadata
     id="metadata7">
    <rdf:RDF>
      <cc:Work
         rdf:about="">
        <dc:format>image/svg+xml</dc:format>
        <dc:type
           rdf:resource="http://purl.org/dc/dcmitype/StillImage" />
        <dc:title />
      </cc:Work>
    </rdf:RDF>
  </metadata>
  <g
     transform="translate(-156.33102,-235.29474)"
     id="layer1"
     inkscape:groupmode="layer"
     inkscape:label="Capa 1">
    <g
       id="g4283">
      <path
         style="fill:none;stroke:#000000;stroke-width:0.78100002;stroke-linecap:butt;stroke-linejoin:miter;stroke-miterlimit:4;stroke-opacity:1;stroke-dasharray:none;marker-start:url(#Arrow2Mstart-0);marker-end:url(#Arrow2Mend-4)"
         d="M 248.01512,334.55357 447.41923,235.76065"
         id="path2836" />
      <path
         sodipodi:nodetypes="cc"
         style="fill:none;stroke:#000000;stroke-width:0.78100002;stroke-linecap:butt;stroke-linejoin:miter;stroke-miterlimit:4;stroke-opacity:1;stroke-dasharray:none;marker-start:url(#Arrow2Mstart);marker-end:url(#Arrow2Mend)"
         d="m 166.88469,337.63361 0,46.98"
         id="path7027" />
      <path
         sodipodi:nodetypes="cc"
         style="fill:none;stroke:#000000;stroke-width:0.35433072;stroke-linecap:butt;stroke-linejoin:miter;stroke-miterlimit:4;stroke-opacity:1;stroke-dasharray:none;stroke-dashoffset:0;marker-end:none"
         d="m 166.88469,336.43361 c -9e-4,0 27.41533,0 27.41533,0"
         id="path8371" />
      <path
         id="path8373"
         d="m 166.88469,385.82503 c -9e-4,0 27.41533,0 27.41533,0"
         style="fill:none;stroke:#000000;stroke-width:0.35433072;stroke-linecap:butt;stroke-linejoin:miter;stroke-miterlimit:4;stroke-opacity:1;stroke-dasharray:none;stroke-dashoffset:0;marker-end:none"
         sodipodi:nodetypes="cc" />
      <path
         sodipodi:nodetypes="cc"
         style="fill:none;stroke:#000000;stroke-width:0.35433072;stroke-linecap:butt;stroke-linejoin:miter;stroke-miterlimit:4;stroke-opacity:1;stroke-dasharray:none;stroke-dashoffset:0;marker-end:none"
         d="m 459.30002,263.43361 c -9e-4,0 27.41532,0 27.41532,0"
         id="path8371-1" />
      <path
         sodipodi:nodetypes="cc"
         style="fill:none;stroke:#000000;stroke-width:0.35433072;stroke-linecap:butt;stroke-linejoin:miter;stroke-miterlimit:4;stroke-opacity:1;stroke-dasharray:none;stroke-dashoffset:0;marker-end:none"
         d="m 459.30002,459.43361 c -9e-4,0 27.41532,0 27.41532,0"
         id="path8371-4" />
      <path
         sodipodi:nodetypes="cc"
         style="fill:none;stroke:#000000;stroke-width:0.78100002;stroke-linecap:butt;stroke-linejoin:miter;stroke-miterlimit:4;stroke-opacity:1;stroke-dasharray:none;marker-start:url(#Arrow2Mstart);marker-end:url(#Arrow2Mend)"
         d="m 486.71534,264.63361 0,193.59"
         id="path7027-8" />
      <g
         id="g5045">
        <path
           id="path3567"
           d="m 311.80002,386.43361 -50.5,-25 50.5,-25"
           style="fill:none;stroke:#000000;stroke-width:1;stroke-linecap:butt;stroke-linejoin:miter;stroke-miterlimit:4;stroke-opacity:1;stroke-dasharray:4, 4;stroke-dashoffset:0" />
        <path
           style="fill:none;stroke:#000000;stroke-width:0.78100002;stroke-linecap:round;stroke-linejoin:round;stroke-miterlimit:4;stroke-opacity:1;stroke-dasharray:none;marker-start:url(#Arrow2Mstart-0);marker-end:url(#Arrow2Mend-4-1)"
           d="m 325.35451,331.81948 c 8.52532,6.50986 13.86708,16.61898 13.86708,28.17369"
           id="path7768"
           sodipodi:nodetypes="cc" />
        <path
           style="fill:none;stroke:#000000;stroke-width:2;stroke-linecap:round;stroke-linejoin:round;stroke-miterlimit:4;stroke-opacity:1;stroke-dasharray:none"
           d="m 459.30002,263.43361 -147.5,73 -117.5,0 0,50 117.5,0 147.5,73 0,-196"
           id="path7762"
           sodipodi:nodetypes="ccccccc" />
        <path
           style="fill:none;stroke:#000000;stroke-width:2;stroke-linecap:round;stroke-linejoin:round;stroke-miterlimit:4;stroke-opacity:1;stroke-dasharray:none"
           d="M 324.42502,330.18361"
           id="path2830" />
        <path
           style="fill:none;stroke:#000000;stroke-width:1;stroke-linecap:butt;stroke-linejoin:miter;stroke-miterlimit:4;stroke-opacity:1;stroke-dasharray:4, 4;stroke-dashoffset:0"
           d="m 438.83102,273.55861 m 0,175.75 m 0,-175.75 c 13.10816,26.47969 20.46875,56.31615 20.46875,87.875 m 0,0 c 0,31.55885 -7.36059,61.39532 -20.46875,87.875"
           id="path4353"
           sodipodi:nodetypes="cccccc" />
        <path
           id="path5143"
           d="m 263.80002,361.43361 c 0,1.38071 -1.11929,2.5 -2.5,2.5 -1.38071,0 -2.5,-1.11929 -2.5,-2.5 0,-1.38071 1.11929,-2.5 2.5,-2.5 1.38071,0 2.5,1.11929 2.5,2.5 z"
           style="stroke-width:1;stroke-linejoin:round;stroke-miterlimit:4;stroke-dashoffset:0" />
      </g>
      <g
         style="font-style:normal;font-variant:normal;font-weight:normal;font-stretch:normal;letter-spacing:normal;word-spacing:normal;text-anchor:start;fill:none;stroke:#000000;stroke-linecap:butt;stroke-linejoin:miter;stroke-miterlimit:10.43299961;stroke-opacity:1;stroke-dasharray:none;stroke-dashoffset:0"
         id="g5405"
         transform="matrix(1.35,0,0,-1.35,79.331157,1436.9591)"
         xml:space="preserve"
         stroke-miterlimit="10.433"
         font-style="normal"
         font-variant="normal"
         font-weight="normal"
         font-stretch="normal"
         font-size-adjust="none"
         letter-spacing="normal"
         word-spacing="normal"
         ns0:text="$L$"
         ns0:preamble="">
<path
   style="fill:#000000;stroke-width:0"
   d="m 227.15,713.14 0.01,0.03 0.01,0.03 0.01,0.03 0.01,0.03 0,0.03 0.01,0.02 0.01,0.03 0.01,0.02 0.02,0.02 0.01,0.02 0.01,0.02 0.02,0.02 0.02,0.02 0.02,0.01 0.02,0.02 0.02,0.01 0.03,0.02 0.03,0.01 0.03,0.01 0.04,0.01 0.02,0 0.01,0.01 0.03,0 0.02,0.01 0.02,0 0.02,0 0.03,0.01 0.02,0 0.03,0 0.02,0 0.03,0.01 0.03,0 0.03,0 0.03,0 0.03,0.01 0.04,0 0.03,0 0.04,0 0.03,0 0.04,0 0.04,0 0.04,0 0.04,0 0.05,0 c 0.3,0 0.38,0 0.38,0.19 0,0.12 -0.11,0.12 -0.16,0.12 -0.33,0 -1.15,-0.03 -1.48,-0.03 -0.29,0 -1.02,0.03 -1.32,0.03 -0.07,0 -0.19,0 -0.19,-0.2 0,-0.11 0.09,-0.11 0.28,-0.11 0.02,0 0.21,0 0.38,-0.02 0.18,-0.02 0.27,-0.03 0.27,-0.16 0,-0.04 -0.01,-0.07 -0.04,-0.19 l -1.34,-5.33 c -0.09,-0.39 -0.11,-0.47 -0.9,-0.47 -0.17,0 -0.27,0 -0.27,-0.2 0,-0.1 0.09,-0.1 0.27,-0.1 h 4.61 c 0.23,0 0.24,0 0.3,0.16 l 0.79,2.15 c 0.04,0.11 0.04,0.13 0.04,0.14 0,0.04 -0.03,0.11 -0.12,0.11 -0.09,0 -0.1,-0.05 -0.17,-0.21 -0.34,-0.91 -0.78,-2.05 -2.5,-2.05 h -0.93 c -0.14,0 -0.16,0 -0.22,0.01 -0.1,0.01 -0.13,0.02 -0.13,0.1 0,0.03 0,0.05 0.05,0.23 z"
   id="path5407" />
</g>      <path
         sodipodi:nodetypes="cc"
         id="path5460"
         d="m 261.30002,361.43361 195.971,0"
         style="fill:none;stroke:#000000;stroke-width:0.78100002;stroke-linecap:butt;stroke-linejoin:miter;stroke-miterlimit:4;stroke-opacity:1;stroke-dasharray:none;marker-end:url(#Arrow2Mend-4)" />
      <path
         id="path5462"
         d="m 313.29002,486.84861 144.51,0"
         style="fill:none;stroke:#000000;stroke-width:1px;stroke-linecap:butt;stroke-linejoin:miter;stroke-opacity:1;marker-start:url(#Arrow2Mstart-0);marker-end:url(#Arrow2Mend-4-1)"
         sodipodi:nodetypes="cc" />
      <path
         id="path5680"
         d="m 248.01512,334.55357 c -4.5e-4,-8.8e-4 13.2849,26.88004 13.2849,26.88004"
         style="fill:none;stroke:#000000;stroke-width:0.38752627;stroke-linecap:butt;stroke-linejoin:miter;stroke-miterlimit:4;stroke-opacity:1;stroke-dasharray:none;stroke-dashoffset:0;marker-end:none"
         sodipodi:nodetypes="cc" />
      <path
         id="path5680-5"
         d="m 446.01512,236.55357 c -4.5e-4,-8.8e-4 13.2849,26.88004 13.2849,26.88004"
         style="fill:none;stroke:#000000;stroke-width:0.38752627;stroke-linecap:butt;stroke-linejoin:miter;stroke-miterlimit:4;stroke-opacity:1;stroke-dasharray:none;stroke-dashoffset:0;marker-end:none"
         sodipodi:nodetypes="cc" />
      <g
         style="font-style:normal;font-variant:normal;font-weight:normal;font-stretch:normal;letter-spacing:normal;word-spacing:normal;text-anchor:start;fill:none;stroke:#000000;stroke-linecap:butt;stroke-linejoin:miter;stroke-miterlimit:10.43299961;stroke-opacity:1;stroke-dasharray:none;stroke-dashoffset:0"
         id="g6318"
         transform="matrix(1.35,0,0,-1.35,147.82052,1392.2401)"
         xml:space="preserve"
         stroke-miterlimit="10.433"
         font-style="normal"
         font-variant="normal"
         font-weight="normal"
         font-stretch="normal"
         font-size-adjust="none"
         letter-spacing="normal"
         word-spacing="normal"
         ns0:text="$\\delta$"
         ns0:preamble="">
<path
   style="fill:#000000;stroke-width:0"
   d="m 226.06,711.47 -0.12,-0.03 -0.11,-0.04 -0.11,-0.04 -0.11,-0.05 -0.11,-0.05 -0.11,-0.06 -0.1,-0.06 -0.1,-0.07 -0.1,-0.07 -0.09,-0.07 -0.1,-0.08 -0.09,-0.08 -0.08,-0.09 -0.09,-0.08 -0.08,-0.1 -0.07,-0.09 -0.07,-0.1 -0.07,-0.1 -0.07,-0.1 -0.06,-0.1 -0.06,-0.11 -0.05,-0.11 -0.05,-0.1 -0.04,-0.11 -0.04,-0.11 -0.03,-0.12 -0.03,-0.11 -0.03,-0.11 -0.02,-0.12 -0.01,-0.11 -0.01,-0.11 0,-0.12 c 0,-0.95 0.64,-1.66 1.57,-1.66 v 0.21 c -0.54,0 -0.95,0.42 -0.95,1.18 0,0.62 0.37,2.49 1.71,2.85 h 0 c 0.25,-0.46 0.55,-1 0.55,-1.71 0,-0.66 -0.38,-2.32 -1.31,-2.32 v -0.21 c 1.17,0 1.99,1.56 1.99,2.93 0,0.9 -0.4,1.4 -0.73,1.84 -0.36,0.45 -0.95,1.2 -0.95,1.63 0,0.22 0.2,0.46 0.55,0.46 0.3,0 0.49,-0.13 0.7,-0.27 0.2,-0.12 0.4,-0.25 0.55,-0.25 0.25,0 0.4,0.24 0.4,0.4 0,0.22 -0.16,0.25 -0.52,0.33 -0.52,0.11 -0.65,0.11 -0.81,0.11 -0.78,0 -1.14,-0.43 -1.14,-1.03 0,-0.53 0.29,-1.09 0.6,-1.69 z"
   id="path6320" />
</g>      <path
         sodipodi:nodetypes="cc"
         id="path5460-2"
         d="m 445.15002,439.43261 12.2439,5.22361"
         style="fill:none;stroke:#000000;stroke-width:0.78100002;stroke-linecap:butt;stroke-linejoin:miter;stroke-miterlimit:4;stroke-opacity:1;stroke-dasharray:none;marker-start:url(#Arrow2Mstart-0);marker-end:url(#Arrow2Mend-4)" />
      <path
         style="fill:none;stroke:#000000;stroke-width:0.78100002;stroke-linecap:butt;stroke-linejoin:miter;stroke-miterlimit:4;stroke-opacity:1;stroke-dasharray:none;marker-end:url(#Arrow2Mend-4)"
         d="m 261.30002,361.43361 180.8816,76.77032"
         id="path6416"
         sodipodi:nodetypes="cc" />
      <path
         id="path7344"
         d="m 459.30002,459.43361 c 0,-9e-4 0,27.41533 0,27.41533"
         style="fill:none;stroke:#000000;stroke-width:0.35433072;stroke-linecap:butt;stroke-linejoin:miter;stroke-miterlimit:4;stroke-opacity:1;stroke-dasharray:none;stroke-dashoffset:0;marker-end:none"
         sodipodi:nodetypes="cc" />
      <path
         id="path7344-7"
         d="m 311.80002,386.43361 c 0,-9e-4 0,100.415 0,100.415"
         style="fill:none;stroke:#000000;stroke-width:0.35433072;stroke-linecap:butt;stroke-linejoin:miter;stroke-miterlimit:4;stroke-opacity:1;stroke-dasharray:none;stroke-dashoffset:0;marker-end:none"
         sodipodi:nodetypes="cc" />
      <g
         style="font-style:normal;font-variant:normal;font-weight:normal;font-stretch:normal;letter-spacing:normal;word-spacing:normal;text-anchor:start;fill:none;stroke:#000000;stroke-linecap:butt;stroke-linejoin:miter;stroke-miterlimit:10.43299961;stroke-opacity:1;stroke-dasharray:none;stroke-dashoffset:0"
         ns0:preamble=""
         ns0:text="$A$"
         word-spacing="normal"
         letter-spacing="normal"
         font-size-adjust="none"
         font-stretch="normal"
         font-weight="normal"
         font-variant="normal"
         font-style="normal"
         stroke-miterlimit="10.433"
         xml:space="preserve"
         transform="matrix(1.35,0,0,-1.35,170.97802,1320.8583)"
         id="g3324">
<path
   id="path3326"
   d="m 225.21,708.27 -0.03,-0.06 -0.04,-0.06 -0.04,-0.06 -0.04,-0.05 -0.03,-0.05 -0.04,-0.04 -0.04,-0.05 -0.03,-0.04 -0.04,-0.04 -0.04,-0.04 -0.04,-0.03 -0.03,-0.03 -0.04,-0.03 -0.04,-0.03 -0.04,-0.02 -0.03,-0.03 -0.04,-0.02 -0.04,-0.02 -0.04,-0.02 -0.04,-0.02 -0.03,-0.01 -0.04,-0.01 -0.04,-0.02 -0.04,-0.01 -0.04,-0.01 -0.04,-0.01 -0.04,0 -0.04,-0.01 -0.08,-0.01 -0.08,-0.01 c -0.12,-0.01 -0.21,-0.01 -0.21,-0.2 0,-0.06 0.05,-0.1 0.13,-0.1 0.27,0 0.58,0.03 0.85,0.03 0.33,0 0.68,-0.03 1,-0.03 0.06,0 0.19,0 0.19,0.18 0,0.11 -0.09,0.12 -0.16,0.12 -0.23,0.02 -0.47,0.1 -0.47,0.35 0,0.12 0.06,0.23 0.14,0.37 l 0.76,1.27 h 2.49 l -0.03,0.31 h -2.27 l 1.96,3.28 0.31,-3.28 0.03,-0.31 c 0.03,-0.21 0.16,-1.56 0.16,-1.66 0,-0.3 -0.51,-0.33 -0.71,-0.33 -0.14,0 -0.24,0 -0.24,-0.2 0,-0.1 0.12,-0.1 0.14,-0.1 0.41,0 0.83,0.03 1.24,0.03 0.25,0 0.88,-0.03 1.13,-0.03 0.06,0 0.17,0 0.17,0.19 0,0.11 -0.09,0.11 -0.22,0.11 -0.62,0 -0.62,0.07 -0.65,0.36 l -0.61,6.21 c -0.02,0.2 -0.02,0.24 -0.19,0.24 -0.16,0 -0.19,-0.07 -0.25,-0.17 z"
   style="fill:#000000;stroke-width:0" />
</g>      <g
         style="font-style:normal;font-variant:normal;font-weight:normal;font-stretch:normal;letter-spacing:normal;word-spacing:normal;text-anchor:start;fill:none;stroke:#000000;stroke-linecap:butt;stroke-linejoin:miter;stroke-miterlimit:10.43299961;stroke-opacity:1;stroke-dasharray:none;stroke-dashoffset:0"
         id="g3474"
         transform="matrix(1.35,0,0,-1.35,-145.83948,1318.948)"
         xml:space="preserve"
         stroke-miterlimit="10.433"
         font-style="normal"
         font-variant="normal"
         font-weight="normal"
         font-stretch="normal"
         font-size-adjust="none"
         letter-spacing="normal"
         word-spacing="normal"
         ns0:text="$a$"
         ns0:preamble="">
<path
   style="fill:#000000;stroke-width:0"
   d="m 227.14,710.88 -0.01,0.03 -0.02,0.04 -0.02,0.03 -0.02,0.03 -0.02,0.03 -0.02,0.03 -0.02,0.03 -0.02,0.03 -0.03,0.03 -0.02,0.03 -0.02,0.03 -0.03,0.02 -0.02,0.03 -0.03,0.02 -0.03,0.02 -0.02,0.03 -0.03,0.02 -0.03,0.02 -0.03,0.01 -0.03,0.02 -0.04,0.02 -0.03,0.01 -0.03,0.02 -0.04,0.01 -0.03,0.01 -0.04,0.01 -0.03,0.01 -0.04,0 -0.04,0.01 -0.04,0 -0.04,0.01 -0.04,0 c -1.17,0 -2.4,-1.47 -2.4,-2.92 0,-0.93 0.55,-1.58 1.32,-1.58 l 0.02,0.21 c -0.49,0 -0.63,0.55 -0.63,0.94 0,0.49 0.31,1.72 0.54,2.17 0.31,0.59 0.76,0.96 1.16,0.96 0.64,0 0.78,-0.82 0.78,-0.88 0,-0.06 -0.02,-0.12 -0.03,-0.17 l -0.49,-1.94 c -0.05,-0.18 -0.05,-0.2 -0.2,-0.37 -0.44,-0.55 -0.85,-0.71 -1.13,-0.71 l -0.02,-0.21 c 0.2,0 0.7,0.03 1.3,0.74 0.08,-0.42 0.42,-0.74 0.9,-0.74 0.35,0 0.58,0.22 0.74,0.54 0.17,0.36 0.3,0.97 0.3,0.99 0,0.1 -0.09,0.1 -0.12,0.1 -0.1,0 -0.11,-0.05 -0.14,-0.18 -0.17,-0.65 -0.35,-1.24 -0.76,-1.24 -0.27,0 -0.3,0.26 -0.3,0.46 0,0.22 0.02,0.3 0.13,0.74 0.11,0.41 0.13,0.51 0.22,0.89 l 0.36,1.39 c 0.07,0.28 0.07,0.3 0.07,0.34 0,0.17 -0.12,0.27 -0.29,0.27 -0.24,0 -0.39,-0.22 -0.42,-0.44 z"
   id="path3476" />
</g>      <g
         ns0:preamble=""
         ns0:text="$R_h$"
         word-spacing="normal"
         letter-spacing="normal"
         font-size-adjust="none"
         font-stretch="normal"
         font-weight="normal"
         font-variant="normal"
         font-style="normal"
         stroke-miterlimit="10.433"
         xml:space="preserve"
         transform="matrix(1.35,0,0,-1.35,38.37802,1229.6548)"
         id="g3628"
         style="font-style:normal;font-variant:normal;font-weight:normal;font-stretch:normal;letter-spacing:normal;word-spacing:normal;text-anchor:start;fill:none;stroke:#000000;stroke-linecap:butt;stroke-linejoin:miter;stroke-miterlimit:10.43299961;stroke-opacity:1;stroke-dasharray:none;stroke-dashoffset:0">
<path
   id="path3630"
   d="m 228.6,710.5 0.09,0.02 0.1,0.03 0.09,0.03 0.1,0.03 0.09,0.03 0.1,0.03 0.1,0.04 0.09,0.04 0.1,0.05 0.09,0.04 0.09,0.05 0.09,0.05 0.09,0.05 0.08,0.06 0.09,0.06 0.08,0.06 0.07,0.06 0.08,0.06 0.07,0.07 0.07,0.07 0.06,0.07 0.06,0.07 0.05,0.08 0.05,0.08 0.05,0.08 0.04,0.08 0.03,0.08 0.03,0.09 0.02,0.09 0.02,0.09 0.01,0.09 0,0.09 c 0,0.85 -0.89,1.49 -2.19,1.49 h -2.84 c -0.2,0 -0.29,0 -0.29,-0.2 0,-0.11 0.09,-0.11 0.28,-0.11 0.02,0 0.21,0 0.38,-0.02 0.18,-0.02 0.27,-0.03 0.27,-0.16 0,-0.04 -0.01,-0.07 -0.04,-0.19 l -1.34,-5.33 c -0.1,-0.39 -0.11,-0.47 -0.9,-0.47 -0.18,0 -0.27,0 -0.27,-0.2 0,-0.1 0.12,-0.1 0.14,-0.1 0.28,0 0.97,0.03 1.25,0.03 0.28,0 0.99,-0.03 1.27,-0.03 0.08,0 0.2,0 0.2,0.19 0,0.11 -0.09,0.11 -0.28,0.11 -0.37,0 -0.65,0 -0.65,0.18 0,0.06 0.02,0.11 0.03,0.17 l 0.66,2.63 h 1.18 l -0.01,0.22 h -1.11 l 0.64,2.59 c 0.06,0.24 0.09,0.34 0.28,0.37 0.09,0.01 0.41,0.01 0.61,0.01 0.71,0 1.81,0 1.81,-0.98 0,-0.34 -0.16,-1.03 -0.55,-1.41 -0.26,-0.26 -0.78,-0.58 -1.68,-0.58 l 0.01,-0.22 c 0.91,0 1.09,-0.55 1.09,-0.9 0,-0.15 -0.08,-0.46 -0.14,-0.69 -0.07,-0.27 -0.16,-0.64 -0.16,-0.84 0,-1.07 1.19,-1.07 1.32,-1.07 0.85,0 1.19,1 1.19,1.14 0,0.12 -0.11,0.12 -0.12,0.12 -0.08,0 -0.11,-0.07 -0.12,-0.14 -0.25,-0.74 -0.68,-0.9 -0.91,-0.9 -0.33,0 -0.4,0.21 -0.4,0.6 0,0.31 0.06,0.82 0.1,1.13 0.02,0.14 0.04,0.33 0.04,0.47 0,0.76 -0.67,1.07 -0.93,1.17 z"
   style="fill:#000000;stroke-width:0" />
<path
   id="path3632"
   d="m 233.18,710.25 0,0 0,0 0,0 0,0 0,0 0,0 0,0.01 0,0 0,0 0,0 0,0.01 0,0 0.01,0 0,0.01 0,0 0,0.01 0,0 0,0.01 0,0.01 0,0 0.01,0.01 0,0 0,0 0,0.01 0,0 0,0.01 0,0 0,0 0,0.01 0,0 0,0 0,0 0,0 0,0 0,0.01 0,0 0,0 0,0 0,0 0,0 0.01,0 c 0,0.03 -0.03,0.1 -0.12,0.1 -0.14,0 -0.71,-0.06 -0.89,-0.07 -0.05,-0.01 -0.15,-0.02 -0.15,-0.16 0,-0.1 0.1,-0.1 0.18,-0.1 0.33,0 0.33,-0.05 0.33,-0.1 0,-0.05 -0.01,-0.1 -0.02,-0.16 l -0.99,-3.93 c -0.03,-0.13 -0.03,-0.14 -0.03,-0.16 0,-0.1 0.08,-0.22 0.24,-0.22 0.07,0 0.2,0.04 0.28,0.18 0.02,0.04 0.09,0.29 0.12,0.44 l 0.16,0.62 c 0.02,0.1 0.09,0.37 0.11,0.47 0.07,0.27 0.07,0.27 0.21,0.5 0.22,0.34 0.57,0.73 1.12,0.73 0.39,0 0.41,-0.32 0.41,-0.48 0,-0.42 -0.3,-1.19 -0.41,-1.49 -0.08,-0.19 -0.11,-0.25 -0.11,-0.37 0,-0.37 0.31,-0.6 0.66,-0.6 0.7,0 1.01,0.96 1.01,1.07 0,0.09 -0.1,0.09 -0.12,0.09 -0.09,0 -0.1,-0.05 -0.13,-0.12 -0.16,-0.56 -0.47,-0.84 -0.74,-0.84 -0.14,0 -0.17,0.09 -0.17,0.24 0,0.16 0.03,0.25 0.16,0.56 0.08,0.22 0.37,0.96 0.37,1.35 0,0.11 0,0.4 -0.26,0.6 -0.12,0.09 -0.32,0.19 -0.65,0.19 -0.51,0 -0.88,-0.28 -1.13,-0.58 z"
   style="fill:#000000;stroke-width:0" />
</g>      <g
         style="font-style:normal;font-variant:normal;font-weight:normal;font-stretch:normal;letter-spacing:normal;word-spacing:normal;text-anchor:start;fill:none;stroke:#000000;stroke-linecap:butt;stroke-linejoin:miter;stroke-miterlimit:10.43299961;stroke-opacity:1;stroke-dasharray:none;stroke-dashoffset:0"
         id="g3790"
         transform="matrix(1.35,0,0,-1.35,42.52102,1347.0568)"
         xml:space="preserve"
         stroke-miterlimit="10.433"
         font-style="normal"
         font-variant="normal"
         font-weight="normal"
         font-stretch="normal"
         font-size-adjust="none"
         letter-spacing="normal"
         word-spacing="normal"
         ns0:text="$R_a$"
         ns0:preamble="">
<path
   style="fill:#000000;stroke-width:0"
   d="m 228.6,710.5 0.09,0.02 0.1,0.03 0.09,0.03 0.1,0.03 0.09,0.03 0.1,0.03 0.1,0.04 0.09,0.04 0.1,0.05 0.09,0.04 0.09,0.05 0.09,0.05 0.09,0.05 0.08,0.06 0.09,0.06 0.08,0.06 0.07,0.06 0.08,0.06 0.07,0.07 0.07,0.07 0.06,0.07 0.06,0.07 0.05,0.08 0.05,0.08 0.05,0.08 0.04,0.08 0.03,0.08 0.03,0.09 0.02,0.09 0.02,0.09 0.01,0.09 0,0.09 c 0,0.85 -0.89,1.49 -2.19,1.49 h -2.84 c -0.2,0 -0.29,0 -0.29,-0.2 0,-0.11 0.09,-0.11 0.28,-0.11 0.02,0 0.21,0 0.38,-0.02 0.18,-0.02 0.27,-0.03 0.27,-0.16 0,-0.04 -0.01,-0.07 -0.04,-0.19 l -1.34,-5.33 c -0.1,-0.39 -0.11,-0.47 -0.9,-0.47 -0.18,0 -0.27,0 -0.27,-0.2 0,-0.1 0.12,-0.1 0.14,-0.1 0.28,0 0.97,0.03 1.25,0.03 0.28,0 0.99,-0.03 1.27,-0.03 0.08,0 0.2,0 0.2,0.19 0,0.11 -0.09,0.11 -0.28,0.11 -0.37,0 -0.65,0 -0.65,0.18 0,0.06 0.02,0.11 0.03,0.17 l 0.66,2.63 h 1.18 l -0.01,0.22 h -1.11 l 0.64,2.59 c 0.06,0.24 0.09,0.34 0.28,0.37 0.09,0.01 0.41,0.01 0.61,0.01 0.71,0 1.81,0 1.81,-0.98 0,-0.34 -0.16,-1.03 -0.55,-1.41 -0.26,-0.26 -0.78,-0.58 -1.68,-0.58 l 0.01,-0.22 c 0.91,0 1.09,-0.55 1.09,-0.9 0,-0.15 -0.08,-0.46 -0.14,-0.69 -0.07,-0.27 -0.16,-0.64 -0.16,-0.84 0,-1.07 1.19,-1.07 1.32,-1.07 0.85,0 1.19,1 1.19,1.14 0,0.12 -0.11,0.12 -0.12,0.12 -0.08,0 -0.11,-0.07 -0.12,-0.14 -0.25,-0.74 -0.68,-0.9 -0.91,-0.9 -0.33,0 -0.4,0.21 -0.4,0.6 0,0.31 0.06,0.82 0.1,1.13 0.02,0.14 0.04,0.33 0.04,0.47 0,0.76 -0.67,1.07 -0.93,1.17 z"
   id="path3792" />
<path
   style="fill:#000000;stroke-width:0"
   d="m 233.94,708.29 -0.02,0.02 -0.01,0.02 -0.02,0.02 -0.01,0.02 -0.02,0.02 -0.02,0.02 -0.01,0.02 -0.02,0.02 -0.02,0.02 -0.02,0.01 -0.02,0.02 -0.02,0.02 -0.02,0.01 -0.02,0.02 -0.02,0.01 -0.02,0.02 -0.02,0.01 -0.03,0.02 -0.02,0.01 -0.03,0.01 -0.02,0.01 -0.03,0.01 -0.02,0.01 -0.03,0.01 -0.03,0 -0.02,0.01 -0.03,0.01 -0.03,0 -0.03,0 -0.03,0.01 -0.03,0 -0.03,0 v -0.2 c 0.49,0 0.62,-0.53 0.62,-0.6 0,-0.03 -0.02,-0.08 -0.02,-0.1 l -0.33,-1.3 c -0.05,-0.2 -0.2,-0.33 -0.36,-0.47 -0.06,-0.05 -0.34,-0.27 -0.64,-0.27 -0.25,0 -0.5,0.18 -0.5,0.67 0,0.37 0.2,1.13 0.36,1.41 0.32,0.56 0.67,0.66 0.87,0.66 v 0.2 c -0.89,0 -1.8,-0.98 -1.8,-1.98 0,-0.68 0.46,-1.16 1.05,-1.16 0.38,0 0.71,0.22 0.99,0.49 0.14,-0.42 0.54,-0.49 0.72,-0.49 0.25,0 0.42,0.15 0.55,0.37 0.15,0.27 0.24,0.67 0.24,0.7 0,0.09 -0.09,0.09 -0.11,0.09 -0.1,0 -0.1,-0.03 -0.15,-0.22 -0.08,-0.33 -0.22,-0.74 -0.51,-0.74 -0.18,0 -0.23,0.15 -0.23,0.34 0,0.12 0.06,0.37 0.1,0.55 0.05,0.18 0.12,0.47 0.16,0.62 l 0.14,0.53 c 0.04,0.18 0.12,0.51 0.12,0.54 0,0.16 -0.12,0.23 -0.23,0.23 -0.12,0 -0.28,-0.09 -0.32,-0.28 z"
   id="path3794" />
</g>      <g
         ns0:preamble=""
         ns0:text="$R_a$"
         word-spacing="normal"
         letter-spacing="normal"
         font-size-adjust="none"
         font-stretch="normal"
         font-weight="normal"
         font-variant="normal"
         font-style="normal"
         stroke-miterlimit="10.433"
         xml:space="preserve"
         transform="matrix(1.35,0,0,-1.35,89.01502,1309.5248)"
         id="g3876"
         style="font-style:normal;font-variant:normal;font-weight:normal;font-stretch:normal;letter-spacing:normal;word-spacing:normal;text-anchor:start;fill:none;stroke:#000000;stroke-linecap:butt;stroke-linejoin:miter;stroke-miterlimit:10.43299961;stroke-opacity:1;stroke-dasharray:none;stroke-dashoffset:0">
<path
   id="path3878"
   d="m 228.6,710.5 0.09,0.02 0.1,0.03 0.09,0.03 0.1,0.03 0.09,0.03 0.1,0.03 0.1,0.04 0.09,0.04 0.1,0.05 0.09,0.04 0.09,0.05 0.09,0.05 0.09,0.05 0.08,0.06 0.09,0.06 0.08,0.06 0.07,0.06 0.08,0.06 0.07,0.07 0.07,0.07 0.06,0.07 0.06,0.07 0.05,0.08 0.05,0.08 0.05,0.08 0.04,0.08 0.03,0.08 0.03,0.09 0.02,0.09 0.02,0.09 0.01,0.09 0,0.09 c 0,0.85 -0.89,1.49 -2.19,1.49 h -2.84 c -0.2,0 -0.29,0 -0.29,-0.2 0,-0.11 0.09,-0.11 0.28,-0.11 0.02,0 0.21,0 0.38,-0.02 0.18,-0.02 0.27,-0.03 0.27,-0.16 0,-0.04 -0.01,-0.07 -0.04,-0.19 l -1.34,-5.33 c -0.1,-0.39 -0.11,-0.47 -0.9,-0.47 -0.18,0 -0.27,0 -0.27,-0.2 0,-0.1 0.12,-0.1 0.14,-0.1 0.28,0 0.97,0.03 1.25,0.03 0.28,0 0.99,-0.03 1.27,-0.03 0.08,0 0.2,0 0.2,0.19 0,0.11 -0.09,0.11 -0.28,0.11 -0.37,0 -0.65,0 -0.65,0.18 0,0.06 0.02,0.11 0.03,0.17 l 0.66,2.63 h 1.18 l -0.01,0.22 h -1.11 l 0.64,2.59 c 0.06,0.24 0.09,0.34 0.28,0.37 0.09,0.01 0.41,0.01 0.61,0.01 0.71,0 1.81,0 1.81,-0.98 0,-0.34 -0.16,-1.03 -0.55,-1.41 -0.26,-0.26 -0.78,-0.58 -1.68,-0.58 l 0.01,-0.22 c 0.91,0 1.09,-0.55 1.09,-0.9 0,-0.15 -0.08,-0.46 -0.14,-0.69 -0.07,-0.27 -0.16,-0.64 -0.16,-0.84 0,-1.07 1.19,-1.07 1.32,-1.07 0.85,0 1.19,1 1.19,1.14 0,0.12 -0.11,0.12 -0.12,0.12 -0.08,0 -0.11,-0.07 -0.12,-0.14 -0.25,-0.74 -0.68,-0.9 -0.91,-0.9 -0.33,0 -0.4,0.21 -0.4,0.6 0,0.31 0.06,0.82 0.1,1.13 0.02,0.14 0.04,0.33 0.04,0.47 0,0.76 -0.67,1.07 -0.93,1.17 z"
   style="fill:#000000;stroke-width:0" />
<path
   id="path3880"
   d="m 233.94,708.29 -0.02,0.02 -0.01,0.02 -0.02,0.02 -0.01,0.02 -0.02,0.02 -0.02,0.02 -0.01,0.02 -0.02,0.02 -0.02,0.02 -0.02,0.01 -0.02,0.02 -0.02,0.02 -0.02,0.01 -0.02,0.02 -0.02,0.01 -0.02,0.02 -0.02,0.01 -0.03,0.02 -0.02,0.01 -0.03,0.01 -0.02,0.01 -0.03,0.01 -0.02,0.01 -0.03,0.01 -0.03,0 -0.02,0.01 -0.03,0.01 -0.03,0 -0.03,0 -0.03,0.01 -0.03,0 -0.03,0 v -0.2 c 0.49,0 0.62,-0.53 0.62,-0.6 0,-0.03 -0.02,-0.08 -0.02,-0.1 l -0.33,-1.3 c -0.05,-0.2 -0.2,-0.33 -0.36,-0.47 -0.06,-0.05 -0.34,-0.27 -0.64,-0.27 -0.25,0 -0.5,0.18 -0.5,0.67 0,0.37 0.2,1.13 0.36,1.41 0.32,0.56 0.67,0.66 0.87,0.66 v 0.2 c -0.89,0 -1.8,-0.98 -1.8,-1.98 0,-0.68 0.46,-1.16 1.05,-1.16 0.38,0 0.71,0.22 0.99,0.49 0.14,-0.42 0.54,-0.49 0.72,-0.49 0.25,0 0.42,0.15 0.55,0.37 0.15,0.27 0.24,0.67 0.24,0.7 0,0.09 -0.09,0.09 -0.11,0.09 -0.1,0 -0.1,-0.03 -0.15,-0.22 -0.08,-0.33 -0.22,-0.74 -0.51,-0.74 -0.18,0 -0.23,0.15 -0.23,0.34 0,0.12 0.06,0.37 0.1,0.55 0.05,0.18 0.12,0.47 0.16,0.62 l 0.14,0.53 c 0.04,0.18 0.12,0.51 0.12,0.54 0,0.16 -0.12,0.23 -0.23,0.23 -0.12,0 -0.28,-0.09 -0.32,-0.28 z"
   style="fill:#000000;stroke-width:0" />
</g>      <g
         ns0:preamble=""
         ns0:text="$\\psi_h$"
         word-spacing="normal"
         letter-spacing="normal"
         font-size-adjust="none"
         font-stretch="normal"
         font-weight="normal"
         font-variant="normal"
         font-style="normal"
         stroke-miterlimit="10.433"
         xml:space="preserve"
         transform="matrix(1.35,0,0,-1.35,37.70102,1299.0363)"
         id="g3967"
         style="font-style:normal;font-variant:normal;font-weight:normal;font-stretch:normal;letter-spacing:normal;word-spacing:normal;text-anchor:start;fill:none;stroke:#000000;stroke-linecap:butt;stroke-linejoin:miter;stroke-miterlimit:10.43299961;stroke-opacity:1;stroke-dasharray:none;stroke-dashoffset:0">
<path
   id="path3969"
   d="m 228.23,713.76 0,0 0,0.01 0,0.01 0,0.01 0.01,0 0,0.01 0,0.01 0,0.01 0.01,0.01 0,0.01 0,0.01 0,0.01 0,0.01 0.01,0.01 0,0.01 0,0.01 0,0.01 0,0 c 0,0.1 -0.07,0.11 -0.12,0.11 -0.1,0 -0.11,-0.02 -0.15,-0.2 l -1.65,-6.57 c -0.76,0.09 -1.14,0.46 -1.14,1.12 0,0.2 0,0.45 0.54,1.84 0.04,0.12 0.11,0.29 0.11,0.49 0,0.45 -0.32,0.82 -0.82,0.82 -0.94,0 -1.31,-1.44 -1.31,-1.53 0,-0.1 0.1,-0.1 0.12,-0.1 0.1,0 0.11,0.02 0.16,0.18 0.27,0.94 0.67,1.23 1,1.23 0.08,0 0.25,0 0.25,-0.32 0,-0.26 -0.1,-0.51 -0.23,-0.85 -0.47,-1.26 -0.47,-1.52 -0.47,-1.68 0,-0.95 0.77,-1.36 1.73,-1.41 -0.08,-0.36 -0.08,-0.38 -0.22,-0.91 -0.03,-0.11 -0.23,-0.91 -0.23,-0.94 0,-0.01 0,-0.1 0.12,-0.1 0.02,0 0.07,0 0.09,0.04 0.03,0.02 0.09,0.27 0.12,0.41 l 0.38,1.48 c 0.36,0 1.24,0 2.17,1.06 0.41,0.46 0.62,0.89 0.73,1.19 0.09,0.25 0.31,1.11 0.31,1.55 0,0.56 -0.27,0.7 -0.44,0.7 -0.25,0 -0.49,-0.26 -0.49,-0.48 0,-0.13 0.05,-0.19 0.14,-0.27 0.11,-0.11 0.36,-0.37 0.36,-0.84 0,-0.64 -0.52,-1.45 -0.86,-1.81 -0.88,-0.89 -1.52,-0.89 -1.87,-0.89 z"
   style="fill:#000000;stroke-width:0" />
<path
   id="path3971"
   d="m 232.1,710.25 0,0 0,0 0,0 0,0 0,0 0,0 0,0.01 0.01,0 0,0 0,0 0,0.01 0,0 0,0 0,0.01 0,0 0,0.01 0.01,0 0,0.01 0,0.01 0,0 0,0.01 0,0 0,0 0,0.01 0,0 0.01,0.01 0,0 0,0 0,0.01 0,0 0,0 0,0 0,0 0,0 0,0.01 0,0 0,0 0,0 0,0 0,0 0,0 c 0,0.03 -0.03,0.1 -0.11,0.1 -0.14,0 -0.72,-0.06 -0.89,-0.07 -0.06,-0.01 -0.16,-0.02 -0.16,-0.16 0,-0.1 0.1,-0.1 0.18,-0.1 0.34,0 0.34,-0.05 0.34,-0.1 0,-0.05 -0.01,-0.1 -0.03,-0.16 l -0.98,-3.93 c -0.04,-0.13 -0.04,-0.14 -0.04,-0.16 0,-0.1 0.09,-0.22 0.24,-0.22 0.08,0 0.21,0.04 0.29,0.18 0.02,0.04 0.08,0.29 0.12,0.44 l 0.15,0.62 c 0.03,0.1 0.1,0.37 0.12,0.47 0.07,0.27 0.07,0.27 0.21,0.5 0.22,0.34 0.57,0.73 1.11,0.73 0.39,0 0.41,-0.32 0.41,-0.48 0,-0.42 -0.3,-1.19 -0.41,-1.49 -0.08,-0.19 -0.1,-0.25 -0.1,-0.37 0,-0.37 0.3,-0.6 0.66,-0.6 0.69,0 1,0.96 1,1.07 0,0.09 -0.09,0.09 -0.11,0.09 -0.1,0 -0.11,-0.05 -0.13,-0.12 -0.16,-0.56 -0.47,-0.84 -0.74,-0.84 -0.15,0 -0.18,0.09 -0.18,0.24 0,0.16 0.04,0.25 0.16,0.56 0.09,0.22 0.37,0.96 0.37,1.35 0,0.11 0,0.4 -0.25,0.6 -0.12,0.09 -0.32,0.19 -0.65,0.19 -0.51,0 -0.88,-0.28 -1.14,-0.58 z"
   style="fill:#000000;stroke-width:0" />
</g>    </g>
  </g>
</svg>
