<?xml version="1.0" encoding="UTF-8" standalone="no"?>
<!-- Created with Inkscape (http://www.inkscape.org/) -->

<svg
   xmlns:dc="http://purl.org/dc/elements/1.1/"
   xmlns:cc="http://creativecommons.org/ns#"
   xmlns:rdf="http://www.w3.org/1999/02/22-rdf-syntax-ns#"
   xmlns:svg="http://www.w3.org/2000/svg"
   xmlns="http://www.w3.org/2000/svg"
   xmlns:sodipodi="http://sodipodi.sourceforge.net/DTD/sodipodi-0.dtd"
   xmlns:inkscape="http://www.inkscape.org/namespaces/inkscape"
   id="svg2816"
   version="1.1"
   inkscape:version="0.47 r22583"
   width="30.118113"
   height="5.3149605"
   xml:space="preserve"
   sodipodi:docname="linea_tabla_violeta.svg"><metadata
     id="metadata2822"><rdf:RDF><cc:Work
         rdf:about=""><dc:format>image/svg+xml</dc:format><dc:type
           rdf:resource="http://purl.org/dc/dcmitype/StillImage" /><dc:title /></cc:Work></rdf:RDF></metadata><defs
     id="defs2820"><inkscape:perspective
       sodipodi:type="inkscape:persp3d"
       inkscape:vp_x="0 : 0.5 : 1"
       inkscape:vp_y="0 : 1000 : 0"
       inkscape:vp_z="1 : 0.5 : 1"
       inkscape:persp3d-origin="0.5 : 0.33333333 : 1"
       id="perspective2824" /><clipPath
       clipPathUnits="userSpaceOnUse"
       id="clipPath2834"><path
         d="m 0,1722.5 5950,0 0,4967.5 -5950,0 0,-4967.5 z"
         id="path2836" /></clipPath><clipPath
       clipPathUnits="userSpaceOnUse"
       id="clipPath2844"><path
         d="m 599.168,6318.33 5134.162,0 0,-4050 -5134.162,0 0,4050 z"
         id="path2846" /></clipPath><clipPath
       clipPathUnits="userSpaceOnUse"
       id="clipPath2854"><path
         d="m 0,1722 0,4968 5950,0 0,-4968 -5950,0 z"
         id="path2856" /></clipPath><clipPath
       clipPathUnits="userSpaceOnUse"
       id="clipPath2868"><path
         d="m 599.168,6318.33 5134.162,0 0,-4050 -5134.162,0 0,4050 z"
         id="path2870" /></clipPath><clipPath
       clipPathUnits="userSpaceOnUse"
       id="clipPath2878"><path
         d="m 0,1722 0,4968 5950,0 0,-4968 -5950,0 z"
         id="path2880" /></clipPath><clipPath
       clipPathUnits="userSpaceOnUse"
       id="clipPath2892"><path
         d="m 599.168,6318.33 5134.162,0 0,-4050 -5134.162,0 0,4050 z"
         id="path2894" /></clipPath><clipPath
       clipPathUnits="userSpaceOnUse"
       id="clipPath2902"><path
         d="m 0,1722 0,4968 5950,0 0,-4968 -5950,0 z"
         id="path2904" /></clipPath><clipPath
       clipPathUnits="userSpaceOnUse"
       id="clipPath2916"><path
         d="m 599.168,6318.33 5134.162,0 0,-4050 -5134.162,0 0,4050 z"
         id="path2918" /></clipPath><clipPath
       clipPathUnits="userSpaceOnUse"
       id="clipPath2926"><path
         d="m 0,1722 0,4968 5950,0 0,-4968 -5950,0 z"
         id="path2928" /></clipPath><clipPath
       clipPathUnits="userSpaceOnUse"
       id="clipPath2940"><path
         d="m 599.168,6318.33 5134.162,0 0,-4050 -5134.162,0 0,4050 z"
         id="path2942" /></clipPath><clipPath
       clipPathUnits="userSpaceOnUse"
       id="clipPath3108"><path
         d="m 0,1722 0,4968 5950,0 0,-4968 -5950,0 z"
         id="path3110" /></clipPath><clipPath
       clipPathUnits="userSpaceOnUse"
       id="clipPath3144"><path
         d="m 599.168,6318.33 5134.162,0 0,-4050 -5134.162,0 0,4050 z"
         id="path3146" /></clipPath><clipPath
       clipPathUnits="userSpaceOnUse"
       id="clipPath3238"><path
         d="m 0,1722 0,4968 5950,0 0,-4968 -5950,0 z"
         id="path3240" /></clipPath><clipPath
       clipPathUnits="userSpaceOnUse"
       id="clipPath3272"><path
         d="m 5350,5712.5 600,0 0,522.5 -600,0 0,-522.5 z"
         id="path3274" /></clipPath><clipPath
       clipPathUnits="userSpaceOnUse"
       id="clipPath3282"><path
         d="m 0,1722 0,4968 5950,0 0,-4968 -5950,0 z"
         id="path3284" /></clipPath><clipPath
       clipPathUnits="userSpaceOnUse"
       id="clipPath3296"><path
         d="m 5350,5712.5 600,0 0,522.5 -600,0 0,-522.5 z"
         id="path3298" /></clipPath><clipPath
       clipPathUnits="userSpaceOnUse"
       id="clipPath3306"><path
         d="m 0,1722 0,4968 5950,0 0,-4968 -5950,0 z"
         id="path3308" /></clipPath><clipPath
       clipPathUnits="userSpaceOnUse"
       id="clipPath3320"><path
         d="m 5350,5712.5 600,0 0,522.5 -600,0 0,-522.5 z"
         id="path3322" /></clipPath><clipPath
       clipPathUnits="userSpaceOnUse"
       id="clipPath3330"><path
         d="m 0,1722 0,4968 5950,0 0,-4968 -5950,0 z"
         id="path3332" /></clipPath><clipPath
       clipPathUnits="userSpaceOnUse"
       id="clipPath3344"><path
         d="m 5350,5712.5 600,0 0,522.5 -600,0 0,-522.5 z"
         id="path3346" /></clipPath><inkscape:perspective
       id="perspective4814"
       inkscape:persp3d-origin="0.5 : 0.33333333 : 1"
       inkscape:vp_z="1 : 0.5 : 1"
       inkscape:vp_y="0 : 1000 : 0"
       inkscape:vp_x="0 : 0.5 : 1"
       sodipodi:type="inkscape:persp3d" /><inkscape:perspective
       id="perspective4837"
       inkscape:persp3d-origin="0.5 : 0.33333333 : 1"
       inkscape:vp_z="1 : 0.5 : 1"
       inkscape:vp_y="0 : 1000 : 0"
       inkscape:vp_x="0 : 0.5 : 1"
       sodipodi:type="inkscape:persp3d" /></defs><sodipodi:namedview
     pagecolor="#ffffff"
     bordercolor="#666666"
     borderopacity="1"
     objecttolerance="10"
     gridtolerance="10"
     guidetolerance="10"
     inkscape:pageopacity="0"
     inkscape:pageshadow="2"
     inkscape:window-width="1024"
     inkscape:window-height="708"
     id="namedview2818"
     showgrid="false"
     inkscape:zoom="1.5963725"
     inkscape:cx="225.46134"
     inkscape:cy="105.87463"
     inkscape:window-x="-4"
     inkscape:window-y="-4"
     inkscape:window-maximized="1"
     inkscape:current-layer="g2826"
     inkscape:snap-global="true"
     inkscape:snap-grids="false"
     inkscape:snap-page="false"
     inkscape:snap-to-guides="false"
     inkscape:snap-nodes="true"
     inkscape:snap-bbox="false"
     units="mm" /><g
     id="g2826"
     inkscape:groupmode="layer"
     inkscape:label="ink_ext_XXXXXX"
     transform="matrix(1.25,0,0,-1.25,-102.82569,432.03629)"><path
       style="fill:none;stroke:#cc00cc;stroke-width:2.83464575;stroke-linecap:square;stroke-linejoin:round;stroke-miterlimit:10;stroke-opacity:1;stroke-dasharray:none"
       d="m 83.677875,344.21171 21.259845,0"
       id="path3196"
       sodipodi:nodetypes="cc" /></g></svg>